<?xml version="1.0" encoding="utf-8"?>
<!-- Generator: Adobe Illustrator 23.0.3, SVG Export Plug-In . SVG Version: 6.00 Build 0)  -->
<svg version="1.1" xmlns="http://www.w3.org/2000/svg" xmlns:xlink="http://www.w3.org/1999/xlink" x="0px" y="0px"
	 viewBox="0 0 400 400" style="enable-background:new 0 0 400 400;" xml:space="preserve">
<style type="text/css">
	.st0{display:none;}
	.st1{display:inline;fill:#EFEFFD;}
	.st2{fill:#E7E7F2;}
</style>
<g id="Réteg_2" class="st0">
	<rect y="0" class="st1" width="400" height="400"/>
</g>
<g id="Réteg_1">
	<path class="st2" d="M336.98,58.89c-1.72-0.87-3.84-0.17-4.7,1.56c-3.23,6.41-8.99,11.38-15.81,13.63
		c-1.84,0.61-2.83,2.58-2.23,4.42c0.49,1.47,1.85,2.4,3.32,2.4c0.36,0,0.73-0.05,1.1-0.18c8.57-2.82,15.81-9.07,19.87-17.13
		C339.41,61.86,338.71,59.76,336.98,58.89z"/>
	<path class="st2" d="M294.12,80.16c1.93-0.02,3.48-1.61,3.46-3.55l-0.24-19.31c-0.02-1.92-1.59-3.46-3.5-3.46
		c-0.01,0-0.03,0-0.04,0c-1.94,0.02-3.48,1.61-3.46,3.55l0.24,19.31c0.02,1.92,1.59,3.46,3.5,3.46
		C294.09,80.16,294.11,80.16,294.12,80.16z"/>
	<path class="st2" d="M372.23,79.98c0.31,1.69,1.78,2.86,3.44,2.86c0.21,0,0.43-0.02,0.64-0.06c8.1-1.5,15.82-4.97,22.33-10.02
		c1.53-1.18,1.81-3.38,0.62-4.91c-1.19-1.53-3.38-1.81-4.91-0.62c-5.64,4.37-12.32,7.36-19.32,8.66
		C373.13,76.25,371.88,78.08,372.23,79.98z"/>
	<path class="st2" d="M378.45,13.27c-0.2-1.92-1.89-3.34-3.84-3.12c-1.92,0.2-3.32,1.92-3.12,3.84c0.55,5.32,3.17,10.4,7.18,13.95
		c0.67,0.59,1.49,0.88,2.32,0.88c0.97,0,1.93-0.4,2.62-1.18c1.28-1.45,1.15-3.66-0.3-4.94C380.6,20.3,378.83,16.86,378.45,13.27z"/>
	<path class="st2" d="M227.08,58.4c0.04,0,0.08,0,0.12,0c1.88,0,3.43-1.49,3.49-3.39l0.77-23.95c0.06-1.93-1.45-3.55-3.39-3.61
		c-1.65-0.07-3.55,1.45-3.61,3.38l-0.77,23.95C223.63,56.72,225.15,58.34,227.08,58.4z"/>
	<path class="st2" d="M261.66,66.72c-7.05,0.58-13.91,2.3-20.38,5.12c-1.77,0.77-2.58,2.83-1.81,4.61c0.57,1.32,1.86,2.1,3.21,2.1
		c0.47,0,0.94-0.09,1.4-0.29c5.77-2.51,11.88-4.05,18.16-4.56c1.92-0.16,3.36-1.85,3.2-3.78C265.28,67.99,263.64,66.6,261.66,66.72z
		"/>
	<path class="st2" d="M272.13,44.97c0.49,0.24,1.01,0.35,1.53,0.35c1.3,0,2.55-0.72,3.15-1.97c2.16-4.45,3.02-9.4,2.48-14.32
		c-0.21-1.93-1.96-3.32-3.86-3.1c-1.92,0.21-3.31,1.94-3.1,3.86c0.39,3.55-0.26,7.28-1.82,10.5
		C269.66,42.03,270.39,44.12,272.13,44.97z"/>
	<path class="st2" d="M311.13,23.99c-1.78-0.74-3.83,0.12-4.57,1.91c-0.73,1.79,0.12,3.84,1.91,4.57c2.78,1.14,5.76,1.69,8.74,1.69
		c6.93,0,13.88-2.96,18.4-8.3c1.25-1.47,1.07-3.68-0.41-4.93c-1.47-1.24-3.68-1.07-4.93,0.41
		C325.78,24.63,317.54,26.62,311.13,23.99z"/>
	<path class="st2" d="M346.6,18.19c-1.93,0.13-3.39,1.79-3.27,3.72c0.33,4.98-1.25,10.09-4.32,14.01c-1.19,1.52-0.92,3.72,0.6,4.91
		c0.64,0.5,1.4,0.75,2.15,0.75c1.04,0,2.07-0.46,2.76-1.34c4.12-5.27,6.24-12.11,5.8-18.79C350.19,19.53,348.53,18.13,346.6,18.19z"
		/>
	<path class="st2" d="M257.17,10.71l-9.27,9.27c-1.37,1.37-1.37,3.58,0,4.95c0.68,0.68,1.58,1.03,2.48,1.03
		c0.9,0,1.79-0.34,2.48-1.03l9.27-9.27c1.37-1.37,1.37-3.58,0-4.95C260.75,9.34,258.54,9.34,257.17,10.71z"/>
	<path class="st2" d="M56.77,40.8c0.69,0.9,1.73,1.37,2.79,1.37c0.74,0,1.49-0.24,2.12-0.72c1.54-1.18,1.83-3.37,0.66-4.91
		L52.29,23.41c-1.17-1.54-3.37-1.82-4.91-0.65c-1.53,1.17-1.83,3.37-0.65,4.91L56.77,40.8z"/>
	<path class="st2" d="M41.76,61.55c1.51,0,2.91-0.99,3.36-2.52c0.54-1.86-0.52-3.8-2.38-4.35c-6.34-1.86-11.99-5.82-15.89-11.15
		c-1.15-1.56-3.34-1.91-4.89-0.76c-1.56,1.14-1.9,3.33-0.76,4.89c4.81,6.57,11.76,11.44,19.57,13.73
		C41.11,61.51,41.44,61.55,41.76,61.55z"/>
	<path class="st2" d="M13.7,27.35c0.27,0.06,0.53,0.09,0.79,0.09c1.59,0,3.03-1.09,3.41-2.71c1.4-6.05,4.7-11.67,9.3-15.82
		c1.43-1.3,1.55-3.51,0.25-4.95c-1.3-1.43-3.52-1.55-4.95-0.25c-5.65,5.11-9.71,12.01-11.43,19.44
		C10.64,25.03,11.82,26.91,13.7,27.35z"/>
	<path class="st2" d="M95.96,19.13c0.69,0,1.39-0.21,2-0.63l16.86-11.78c1.59-1.11,1.97-3.29,0.87-4.88
		c-1.1-1.58-3.29-1.96-4.88-0.87L93.95,12.76c-1.58,1.11-1.97,3.29-0.86,4.88C93.76,18.61,94.85,19.13,95.96,19.13z"/>
	<path class="st2" d="M98.6,62.87c0.47,0.21,0.95,0.3,1.43,0.3c1.34,0,2.62-0.77,3.2-2.07c2.79-6.25,3.52-13.36,2.05-20.05
		c-0.42-1.89-2.29-3.08-4.17-2.67c-1.89,0.41-3.08,2.28-2.67,4.17c1.15,5.23,0.57,10.8-1.61,15.69
		C96.04,60.01,96.84,62.08,98.6,62.87z"/>
	<path class="st2" d="M64.8,67c4.28,5.14,10.85,7.92,17.42,7.92c3.77,0,7.55-0.92,10.89-2.83c1.67-0.96,2.26-3.1,1.29-4.78
		c-0.96-1.68-3.1-2.26-4.78-1.29c-6.16,3.54-14.89,1.97-19.44-3.49c-1.23-1.49-3.44-1.69-4.93-0.45C63.77,63.31,63.56,65.52,64.8,67
		z"/>
	<path class="st2" d="M146.26,37.44c-1.48,1.24-1.68,3.45-0.43,4.93c3.22,3.84,8.14,5.93,13.07,5.93c2.53,0,5.07-0.55,7.37-1.71
		c1.73-0.87,2.42-2.97,1.56-4.7c-0.87-1.73-2.96-2.42-4.7-1.56c-3.88,1.95-9.13,0.87-11.93-2.46
		C149.96,36.39,147.76,36.19,146.26,37.44z"/>
	<path class="st2" d="M149.39,80.82c1.84,0,3.38-1.44,3.49-3.3l0.68-11.59c0.11-1.93-1.36-3.59-3.29-3.7
		c-1.99-0.13-3.59,1.36-3.7,3.29l-0.68,11.59c-0.11,1.93,1.36,3.59,3.29,3.7C149.25,80.81,149.32,80.82,149.39,80.82z"/>
	<path class="st2" d="M203.3,60.41c-5.41,2.7-12.38,1.81-16.95-2.13c-1.47-1.26-3.68-1.11-4.94,0.36c-1.27,1.46-1.1,3.68,0.36,4.94
		c4.07,3.51,9.45,5.36,14.82,5.36c3.4,0,6.78-0.74,9.83-2.25c1.73-0.86,2.44-2.96,1.58-4.69C207.14,60.26,205.03,59.55,203.3,60.41z
		"/>
	<path class="st2" d="M207.91,9.76l-17.77,3.86c-1.89,0.41-3.09,2.28-2.68,4.17c0.36,1.64,1.81,2.76,3.42,2.76
		c0.25,0,0.5-0.02,0.75-0.08l17.77-3.86c1.89-0.41,3.09-2.28,2.68-4.17C211.66,10.54,209.82,9.34,207.91,9.76z"/>
	<path class="st2" d="M378.45,363.37c-0.2-1.93-1.89-3.34-3.84-3.12c-1.92,0.2-3.32,1.92-3.12,3.84c0.55,5.32,3.17,10.4,7.18,13.95
		c0.67,0.59,1.49,0.88,2.32,0.88c0.97,0,1.93-0.4,2.62-1.18c1.28-1.45,1.15-3.66-0.3-4.94C380.6,370.4,378.83,366.96,378.45,363.37z
		"/>
	<path class="st2" d="M377.46,262.88c-1.91-0.34-3.73,0.92-4.07,2.82c-1.16,6.42,1.91,13.29,7.49,16.68
		c0.57,0.35,1.2,0.51,1.82,0.51c1.18,0,2.33-0.59,2.99-1.68c1.01-1.65,0.49-3.81-1.17-4.81c-3.11-1.9-4.89-5.87-4.24-9.46
		C380.62,265.05,379.36,263.23,377.46,262.88z"/>
	<path class="st2" d="M355.54,300.24c-1.87-0.45-3.76,0.75-4.19,2.63c-0.43,1.88,0.74,3.76,2.63,4.19
		c3.71,0.85,7.49,1.28,11.26,1.28c5.44,0,10.86-0.88,16.06-2.63c1.83-0.62,2.82-2.6,2.21-4.43c-0.62-1.83-2.6-2.82-4.43-2.21
		C371.49,301.62,363.36,302.03,355.54,300.24z"/>
	<path class="st2" d="M373.74,334.48c-1.22-1.5-3.43-1.72-4.93-0.49c-1.49,1.22-1.72,3.43-0.49,4.93l6.95,8.5
		c0.69,0.84,1.7,1.28,2.71,1.28c0.78,0,1.56-0.26,2.22-0.79c1.49-1.22,1.72-3.43,0.49-4.93L373.74,334.48z"/>
	<path class="st2" d="M207.98,223.26c0.17,0.02,0.35,0.04,0.52,0.04c1.71,0,3.2-1.25,3.46-2.98c1.35-9.07-1.31-18.73-7.13-25.83
		c-1.22-1.5-3.43-1.72-4.93-0.49c-1.49,1.22-1.72,3.43-0.49,4.93c4.58,5.6,6.68,13.21,5.61,20.36
		C204.75,221.2,206.06,222.98,207.98,223.26z"/>
	<path class="st2" d="M243.41,160.52c0.28,0,0.57-0.03,0.85-0.11c1.88-0.47,3.02-2.37,2.55-4.24l-4.63-18.54
		c-0.47-1.88-2.37-3.03-4.24-2.55c-1.88,0.47-3.02,2.37-2.55,4.24l4.63,18.54C240.42,159.46,241.84,160.52,243.41,160.52z"/>
	<path class="st2" d="M229.1,193.32c0,1.94,1.57,3.5,3.5,3.5h23.95c1.94,0,3.5-1.57,3.5-3.5c0-1.94-1.57-3.5-3.5-3.5H232.6
		C230.67,189.82,229.1,191.39,229.1,193.32z"/>
	<path class="st2" d="M253.04,270.99c1.02-8.56-1.13-17.59-5.91-24.77c-1.08-1.62-3.25-2.06-4.85-0.98
		c-1.61,1.07-2.05,3.24-0.98,4.86c3.87,5.82,5.61,13.13,4.79,20.07c-0.23,1.92,1.14,3.66,3.06,3.89c0.14,0.02,0.28,0.02,0.42,0.02
		C251.32,274.08,252.83,272.77,253.04,270.99z"/>
	<path class="st2" d="M211.34,117.72c-1.62,1.06-2.08,3.23-1.02,4.85c0.67,1.03,1.79,1.59,2.94,1.59c0.66,0,1.32-0.18,1.91-0.57
		c8.66-5.65,14.32-15.58,14.76-25.91c0.09-1.93-1.42-3.56-3.35-3.65c-1.91-0.08-3.56,1.42-3.65,3.35
		C222.58,105.49,218.14,113.28,211.34,117.72z"/>
	<path class="st2" d="M271.29,104.07L271.29,104.07c-1.94,0-3.5,1.57-3.5,3.5c0.01,4.74-1.71,9.55-4.7,13.22
		c-1.22,1.5-1,3.7,0.5,4.92c0.65,0.53,1.43,0.79,2.21,0.79c1.02,0,2.02-0.44,2.71-1.29c4.06-4.97,6.28-11.24,6.28-17.65
		C274.79,105.63,273.22,104.07,271.29,104.07z"/>
	<path class="st2" d="M282,148.97c-1.88,0.45-3.04,2.35-2.58,4.23c1,4.15,0.76,8.66-0.67,12.68c-0.65,1.82,0.3,3.83,2.13,4.47
		c0.39,0.14,0.78,0.2,1.17,0.2c1.44,0,2.79-0.9,3.3-2.33c1.88-5.29,2.19-11.21,0.88-16.67C285.77,149.68,283.89,148.52,282,148.97z"
		/>
	<path class="st2" d="M295.21,199.67c1.93,0.44,3.89,0.66,5.86,0.66c5.91,0,11.79-1.96,16.48-5.62c1.52-1.19,1.8-3.39,0.61-4.91
		c-1.19-1.52-3.39-1.8-4.91-0.61c-4.54,3.54-10.85,4.93-16.47,3.66c-1.87-0.44-3.76,0.74-4.19,2.63
		C292.14,197.36,293.32,199.24,295.21,199.67z"/>
	<path class="st2" d="M321.85,129.08l-0.77-21.63c-0.06-1.94-1.8-3.51-3.62-3.37c-1.94,0.07-3.44,1.69-3.37,3.62l0.77,21.63
		c0.06,1.89,1.62,3.38,3.49,3.38c0.04,0,0.09,0,0.13,0C320.41,132.63,321.92,131.01,321.85,129.08z"/>
	<path class="st2" d="M338.24,142.55c-4.41,2.69-9.66,3.83-14.79,3.17c-1.89-0.19-3.67,1.11-3.91,3.04
		c-0.24,1.92,1.12,3.67,3.04,3.91c1.23,0.16,2.48,0.23,3.72,0.23c5.47,0,10.9-1.5,15.6-4.37c1.65-1.01,2.17-3.16,1.17-4.81
		C342.05,142.07,339.88,141.54,338.24,142.55z"/>
	<path class="st2" d="M356.51,100.74c-0.75-1.78-2.78-2.62-4.58-1.88c-1.78,0.75-2.62,2.8-1.87,4.58
		c2.47,5.89,6.45,11.05,11.53,14.93c0.63,0.49,1.38,0.72,2.12,0.72c1.06,0,2.1-0.48,2.79-1.38c1.17-1.54,0.88-3.73-0.66-4.91
		C361.73,109.68,358.5,105.5,356.51,100.74z"/>
	<path class="st2" d="M259.64,213.77c-1.94,0-3.5,1.57-3.5,3.5v17c0,1.94,1.57,3.5,3.5,3.5c1.93,0,3.5-1.57,3.5-3.5v-17
		C263.14,215.34,261.58,213.77,259.64,213.77z"/>
	<path class="st2" d="M308.39,233.3l-10.82,2.28c-1.89,0.4-3.1,2.26-2.7,4.15c0.35,1.65,1.8,2.78,3.42,2.78
		c0.24,0,0.48-0.02,0.73-0.08l10.82-2.28c1.89-0.4,3.1-2.25,2.7-4.15C312.15,234.11,310.27,232.89,308.39,233.3z"/>
	<path class="st2" d="M338.44,223.86c1.94,0,3.5-1.57,3.5-3.5v-16.22c0-1.94-1.57-3.5-3.5-3.5s-3.5,1.57-3.5,3.5v16.22
		C334.94,222.3,336.51,223.86,338.44,223.86z"/>
	<path class="st2" d="M297.54,288.79c1.02,0,2.03-0.44,2.72-1.3c5.07-6.25,9-13.61,11.37-21.3c0.57-1.85-0.47-3.81-2.31-4.38
		c-1.87-0.58-3.81,0.47-4.38,2.31c-2.11,6.84-5.6,13.4-10.11,18.96c-1.22,1.5-0.99,3.71,0.51,4.92
		C295.98,288.54,296.76,288.79,297.54,288.79z"/>
	<path class="st2" d="M224.38,400.62c2.15-0.03,4.31-0.08,6.46-0.15l0.62-19.3c0.07-1.93-1.45-3.55-3.39-3.61
		c-1.65-0.07-3.55,1.45-3.61,3.38l-0.63,19.67C224.02,400.61,224.2,400.62,224.38,400.62z"/>
	<path class="st2" d="M275.43,376.04c-1.92,0.21-3.31,1.94-3.1,3.86c0.39,3.55-0.26,7.28-1.82,10.5c-0.84,1.74-0.12,3.83,1.62,4.68
		c0.49,0.24,1.01,0.35,1.53,0.35c1.3,0,2.55-0.73,3.15-1.97c2.16-4.45,3.02-9.4,2.48-14.32
		C279.08,377.21,277.33,375.82,275.43,376.04z"/>
	<path class="st2" d="M306.56,376.01c-0.73,1.79,0.12,3.84,1.91,4.57c2.78,1.14,5.76,1.69,8.74,1.69c6.93,0,13.88-2.96,18.4-8.3
		c1.25-1.47,1.07-3.68-0.41-4.93c-1.47-1.24-3.68-1.07-4.93,0.41c-4.49,5.3-12.72,7.29-19.14,4.66
		C309.34,373.36,307.29,374.22,306.56,376.01z"/>
	<path class="st2" d="M346.6,368.3c-1.93,0.13-3.39,1.8-3.27,3.72c0.33,4.98-1.25,10.09-4.32,14.01c-1.19,1.52-0.92,3.72,0.6,4.91
		c0.64,0.5,1.4,0.75,2.15,0.75c1.04,0,2.07-0.46,2.76-1.34c4.12-5.27,6.24-12.11,5.8-18.79C350.19,369.63,348.53,368.24,346.6,368.3
		z"/>
	<path class="st2" d="M269.33,321.18c-1.94-0.37-3.72,0.93-4.06,2.83c-1.07,6-6.67,10.98-12.76,11.31c-1.93,0.11-3.41,1.76-3.3,3.69
		c0.1,1.86,1.65,3.31,3.49,3.31c0.06,0,0.13,0,0.2-0.01c9.35-0.52,17.63-7.86,19.26-17.08C272.5,323.33,271.23,321.51,269.33,321.18
		z"/>
	<path class="st2" d="M211.85,330.33c-0.72-1.8-2.77-2.67-4.55-1.95c-1.8,0.72-2.67,2.76-1.95,4.55c2,5,1.79,10.88-0.56,15.72
		c-0.84,1.74-0.12,3.83,1.62,4.68c0.49,0.24,1.01,0.35,1.52,0.35c1.3,0,2.55-0.72,3.15-1.97
		C214.29,345.12,214.57,337.13,211.85,330.33z"/>
	<path class="st2" d="M216.09,286.95c-1.6-1.11-3.77-0.71-4.87,0.89c-1.1,1.59-0.7,3.77,0.89,4.87l16.92,11.69
		c0.61,0.42,1.3,0.62,1.99,0.62c1.11,0,2.21-0.53,2.88-1.51c1.1-1.59,0.7-3.77-0.89-4.87L216.09,286.95z"/>
	<path class="st2" d="M247.9,375.03c0.68,0.68,1.58,1.03,2.48,1.03c0.9,0,1.79-0.34,2.48-1.03l9.27-9.27c1.37-1.37,1.37-3.58,0-4.95
		c-1.37-1.37-3.58-1.37-4.95,0l-9.27,9.27C246.53,371.45,246.53,373.67,247.9,375.03z"/>
	<path class="st2" d="M319.75,329.76c0.42,0,0.83-0.02,1.25-0.05c1.93-0.15,3.37-1.83,3.22-3.76c-0.15-1.92-1.76-3.4-3.76-3.22
		c-5.62,0.37-11.29-4.44-11.75-10.01c-0.16-1.92-1.85-3.34-3.78-3.2c-1.93,0.16-3.36,1.85-3.2,3.78
		C302.49,322.35,310.74,329.76,319.75,329.76z"/>
	<path class="st2" d="M324.2,289.07c0.35,1.64,1.8,2.77,3.42,2.77c0.24,0,0.49-0.02,0.73-0.08c6.37-1.35,11.98-5.3,15.4-10.84
		c1.02-1.64,0.51-3.8-1.14-4.82c-1.63-1.02-3.8-0.51-4.82,1.14c-2.39,3.86-6.46,6.72-10.9,7.67
		C325,285.32,323.8,287.18,324.2,289.07z"/>
	<path class="st2" d="M333.53,249.12c1.75,6.23,1.99,12.88,0.71,19.22c-0.38,1.89,0.84,3.74,2.74,4.13c0.23,0.05,0.47,0.07,0.7,0.07
		c1.63,0,3.09-1.15,3.43-2.81c1.5-7.42,1.22-15.2-0.83-22.5c-0.52-1.86-2.45-2.93-4.32-2.42C334.09,245.33,333,247.26,333.53,249.12
		z"/>
	<path class="st2" d="M331.94,337.82c0.38,1.61,1.82,2.7,3.41,2.7c0.27,0,0.54-0.03,0.81-0.09c1.88-0.44,3.05-2.33,2.61-4.21
		l-3.09-13.13c-0.45-1.89-2.34-3.04-4.21-2.61c-1.88,0.44-3.05,2.33-2.61,4.21L331.94,337.82z"/>
	<path class="st2" d="M288.15,351.18c5.88,5.48,13.14,9.25,21,10.88c0.24,0.05,0.48,0.08,0.72,0.08c1.62,0,3.08-1.14,3.42-2.79
		c0.4-1.89-0.82-3.75-2.71-4.14c-6.61-1.38-12.71-4.54-17.66-9.15c-1.41-1.31-3.62-1.24-4.95,0.17
		C286.65,347.65,286.73,349.86,288.15,351.18z"/>
	<path class="st2" d="M376.96,218.6c-1.14-1.56-3.34-1.91-4.89-0.76c-1.56,1.14-1.9,3.33-0.76,4.89
		c4.81,6.57,11.76,11.44,19.57,13.73c0.33,0.1,0.66,0.14,0.98,0.14c1.51,0,2.91-0.99,3.36-2.52c0.54-1.86-0.52-3.8-2.38-4.35
		C386.51,227.89,380.87,223.93,376.96,218.6z"/>
	<path class="st2" d="M363.81,202.4c0.27,0.06,0.53,0.09,0.79,0.09c1.59,0,3.03-1.09,3.41-2.71c1.4-6.05,4.7-11.67,9.3-15.82
		c1.43-1.3,1.55-3.51,0.25-4.95c-1.3-1.43-3.52-1.55-4.95-0.25c-5.65,5.11-9.71,12.01-11.43,19.44
		C360.75,200.09,361.92,201.97,363.81,202.4z"/>
	<path class="st2" d="M349.22,159.25c-1.07-1.61-3.25-2.05-4.85-0.97c-1.61,1.07-2.04,3.24-0.97,4.85l7.73,11.59
		c0.67,1.01,1.79,1.56,2.92,1.56c0.67,0,1.34-0.19,1.94-0.59c1.61-1.07,2.04-3.24,0.97-4.85L349.22,159.25z"/>
	<path class="st2" d="M67.42,208.13c0.49,0.24,1.02,0.35,1.53,0.35c1.3,0,2.55-0.72,3.15-1.97c3.9-8.02,10.39-14.74,18.27-18.91
		c1.71-0.91,2.36-3.03,1.46-4.73c-0.9-1.71-3.03-2.36-4.73-1.46c-9.19,4.87-16.75,12.69-21.3,22.04
		C64.96,205.18,65.68,207.28,67.42,208.13z"/>
	<path class="st2" d="M90.91,213.73c0.66,5.46,3.87,10.41,8.59,13.25c2.81,1.7,6.04,2.56,9.29,2.56c2.18,0,4.37-0.39,6.44-1.19
		c1.8-0.7,2.7-2.72,2.01-4.53c-0.7-1.81-2.72-2.7-4.53-2.01c-3.1,1.19-6.77,0.87-9.6-0.84c-2.83-1.7-4.84-4.8-5.24-8.09
		c-0.23-1.92-1.95-3.28-3.9-3.06C92.04,210.06,90.68,211.81,90.91,213.73z"/>
	<path class="st2" d="M47.39,173.71c0.63,0.47,1.36,0.69,2.09,0.69c1.07,0,2.12-0.49,2.81-1.41c4.2-5.63,7.13-12.25,8.49-19.15
		c0.37-1.9-0.86-3.74-2.76-4.11c-1.89-0.38-3.74,0.86-4.11,2.76c-1.15,5.87-3.65,11.52-7.23,16.31
		C45.52,170.36,45.84,172.55,47.39,173.71z"/>
	<path class="st2" d="M65.18,219.99c-0.7-1.81-2.74-2.7-4.53-2.01c-5.82,2.25-12.16,2.91-18.32,1.94c-1.9-0.31-3.7,1.01-4,2.91
		c-0.3,1.91,1,3.7,2.91,4c2.2,0.35,4.41,0.52,6.63,0.52c5.21,0,10.41-0.96,15.3-2.84C64.98,223.82,65.88,221.8,65.18,219.99z"/>
	<path class="st2" d="M79,136.04c-1.79,0.74-2.64,2.78-1.9,4.57l9.24,22.42c0.56,1.35,1.86,2.17,3.24,2.17
		c0.45,0,0.9-0.09,1.33-0.26c1.79-0.74,2.64-2.78,1.9-4.57l-9.24-22.42C82.83,136.16,80.78,135.32,79,136.04z"/>
	<path class="st2" d="M119.08,189.13l-10.82,2.32c-1.89,0.4-3.1,2.26-2.69,4.15c0.35,1.64,1.8,2.77,3.42,2.77
		c0.24,0,0.49-0.02,0.73-0.08l10.82-2.32c1.89-0.4,3.1-2.26,2.69-4.15C122.83,189.93,120.95,188.69,119.08,189.13z"/>
	<path class="st2" d="M66.62,265.78c0.59,0,1.19-0.15,1.74-0.46c6.13-3.51,10.86-9.38,13-16.1c0.58-1.84-0.43-3.81-2.28-4.4
		c-1.86-0.59-3.81,0.44-4.4,2.28c-1.61,5.07-5.18,9.5-9.8,12.14c-1.68,0.96-2.26,3.1-1.3,4.78
		C64.22,265.14,65.4,265.78,66.62,265.78z"/>
	<path class="st2" d="M25.56,257.9c0.21,0,0.43-0.02,0.64-0.06c8.1-1.5,15.82-4.97,22.33-10.02c1.53-1.18,1.81-3.38,0.62-4.91
		c-1.19-1.53-3.38-1.81-4.91-0.62c-5.63,4.37-12.32,7.36-19.32,8.66c-1.9,0.35-3.16,2.18-2.8,4.08
		C22.44,256.72,23.91,257.9,25.56,257.9z"/>
	<path class="st2" d="M28.57,202.99c0.67,0.59,1.49,0.88,2.32,0.88c0.97,0,1.93-0.4,2.62-1.18c1.28-1.45,1.15-3.66-0.3-4.94
		c-2.71-2.4-4.48-5.83-4.86-9.43c-0.2-1.92-1.89-3.34-3.84-3.12c-1.93,0.2-3.32,1.92-3.12,3.84
		C21.94,194.36,24.56,199.45,28.57,202.99z"/>
	<path class="st2" d="M126.6,133.87c-1.69,0.94-2.3,3.07-1.36,4.76l7.73,13.9c0.64,1.15,1.83,1.8,3.06,1.8
		c0.57,0,1.16-0.14,1.7-0.44c1.69-0.94,2.3-3.07,1.36-4.76l-7.73-13.91C130.43,133.54,128.31,132.92,126.6,133.87z"/>
	<path class="st2" d="M93.5,125.51c4.93,4.67,11.34,7.8,18.05,8.81c0.18,0.02,0.35,0.04,0.52,0.04c1.71,0,3.2-1.24,3.46-2.98
		c0.29-1.91-1.03-3.7-2.94-3.98c-5.31-0.79-10.37-3.27-14.27-6.96c-1.4-1.33-3.61-1.27-4.95,0.13
		C92.04,121.96,92.1,124.18,93.5,125.51z"/>
	<path class="st2" d="M149.94,200.69c0.5,0,1.01-0.11,1.49-0.34l14.68-6.95c1.75-0.83,2.5-2.92,1.67-4.66
		c-0.83-1.75-2.93-2.49-4.66-1.67l-14.68,6.96c-1.75,0.83-2.5,2.91-1.66,4.66C147.37,199.95,148.63,200.69,149.94,200.69z"/>
	<path class="st2" d="M156.07,160.13c0.51,0.27,1.06,0.39,1.6,0.39c1.27,0,2.5-0.69,3.11-1.9c4.07-7.9,6.07-16.78,5.77-25.67
		c-0.06-1.94-1.75-3.63-3.61-3.38c-1.93,0.06-3.45,1.68-3.38,3.61c0.25,7.7-1.48,15.39-5,22.23
		C153.68,157.13,154.35,159.24,156.07,160.13z"/>
	<path class="st2" d="M139.05,244.55c0.68,0.68,1.58,1.03,2.48,1.03c0.9,0,1.79-0.34,2.48-1.03c5.37-5.37,9.37-12.06,11.57-19.32
		c0.56-1.85-0.49-3.81-2.34-4.36c-1.85-0.55-3.8,0.49-4.36,2.34c-1.87,6.17-5.26,11.84-9.82,16.4
		C137.68,240.97,137.68,243.18,139.05,244.55z"/>
	<path class="st2" d="M178.19,173.19c0.35,1.65,1.8,2.78,3.42,2.78c0.24,0,0.48-0.02,0.73-0.08l14.68-3.09
		c1.89-0.4,3.1-2.25,2.7-4.15c-0.39-1.89-2.27-3.09-4.15-2.7l-14.68,3.09C179,169.44,177.79,171.29,178.19,173.19z"/>
	<path class="st2" d="M136.37,262.74c-8.48,1.14-17.53-1.36-24.19-6.74c-1.51-1.22-3.71-0.98-4.92,0.52
		c-1.22,1.5-0.98,3.71,0.52,4.92c6.82,5.51,15.7,8.57,24.5,8.57c1.69,0,3.37-0.11,5.04-0.34c1.92-0.26,3.25-2.03,2.99-3.95
		C140.05,263.81,138.27,262.44,136.37,262.74z"/>
	<path class="st2" d="M175.17,225.72c-1.24,1.48-1.06,3.69,0.42,4.93c5.73,4.83,13,7.73,20.48,8.18c0.07,0,0.14,0.01,0.21,0.01
		c1.84,0,3.38-1.43,3.49-3.29c0.12-1.93-1.36-3.59-3.29-3.7c-5.98-0.36-11.8-2.68-16.38-6.54
		C178.62,224.04,176.41,224.24,175.17,225.72z"/>
	<path class="st2" d="M206.7,150.76c1.19-1.52,0.93-3.72-0.6-4.91c-5.95-4.66-10.41-11.21-12.56-18.45
		c-0.55-1.85-2.47-2.9-4.36-2.36c-1.85,0.55-2.91,2.5-2.36,4.36c2.56,8.62,7.87,16.41,14.96,21.96c0.64,0.5,1.4,0.75,2.15,0.75
		C204.98,152.11,206.01,151.65,206.7,150.76z"/>
	<path class="st2" d="M168.18,92.8c-0.05-1.94-1.8-3.37-3.6-3.41c-1.94,0.05-3.46,1.66-3.41,3.6c0.19,7.02,4.9,13.72,11.43,16.3
		c0.42,0.16,0.86,0.24,1.29,0.24c1.4,0,2.71-0.84,3.26-2.22c0.71-1.8-0.17-3.83-1.97-4.54C171.24,101.22,168.29,97.02,168.18,92.8z"
		/>
	<path class="st2" d="M127.3,82.13c-3.05,6.78-8.22,12.64-14.58,16.49c-1.65,1-2.18,3.16-1.18,4.81c0.66,1.09,1.81,1.69,3,1.69
		c0.62,0,1.24-0.16,1.81-0.51c7.56-4.58,13.71-11.55,17.33-19.6c0.79-1.76,0-3.84-1.76-4.63C130.16,79.59,128.09,80.37,127.3,82.13z
		"/>
	<path class="st2" d="M66.26,111.5c1.22,0,2.41-0.64,3.05-1.78c0.95-1.68,0.35-3.82-1.33-4.77c-4.31-2.43-7.84-6.47-9.66-11.08
		c-0.71-1.81-2.76-2.68-4.54-1.97c-1.8,0.71-2.68,2.75-1.97,4.54c2.44,6.17,6.96,11.36,12.74,14.61
		C65.09,111.35,65.68,111.5,66.26,111.5z"/>
	<path class="st2" d="M27.35,87.83c-1.91-0.34-3.73,0.92-4.07,2.82c-1.16,6.42,1.91,13.29,7.49,16.68c0.57,0.35,1.2,0.51,1.82,0.51
		c1.18,0,2.33-0.59,2.99-1.68c1.01-1.65,0.49-3.81-1.17-4.81c-3.11-1.9-4.89-5.87-4.24-9.46C30.52,90,29.25,88.18,27.35,87.83z"/>
	<path class="st2" d="M183.93,283.35c0.68,0,1.37-0.2,1.98-0.62l12.36-8.5c1.59-1.09,2-3.28,0.9-4.87c-1.09-1.59-3.27-2-4.87-0.9
		l-12.36,8.5c-1.59,1.09-2,3.27-0.9,4.87C181.72,282.82,182.82,283.35,183.93,283.35z"/>
	<path class="st2" d="M167.44,264.66c-0.29,1.91,1.03,3.7,2.94,3.98c0.18,0.03,0.35,0.04,0.53,0.04c1.7,0,3.2-1.24,3.46-2.98
		c0.88-5.81,0.22-11.76-1.91-17.23c-0.7-1.8-2.72-2.69-4.53-1.99c-1.8,0.7-2.69,2.73-1.99,4.53
		C167.61,255.34,168.13,260.07,167.44,264.66z"/>
	<path class="st2" d="M135.26,330.48c1.79,0,3.32-1.36,3.48-3.18l1.55-17c0.17-1.92-1.24-3.63-3.17-3.81
		c-1.94-0.17-3.63,1.24-3.8,3.17l-1.55,17c-0.17,1.92,1.24,3.63,3.17,3.8C135.05,330.47,135.16,330.48,135.26,330.48z"/>
	<path class="st2" d="M105.17,284.97c1.62-1.06,2.06-3.23,1-4.85c-1.06-1.61-3.23-2.05-4.85-1c-6.61,4.35-15.93,4.51-22.68,0.39
		c-1.66-1.01-3.8-0.49-4.81,1.16c-1.01,1.65-0.49,3.81,1.16,4.81c4.42,2.7,9.54,4.04,14.66,4.04
		C95.11,289.53,100.56,288.01,105.17,284.97z"/>
	<path class="st2" d="M81.09,329.09c0.2,0.03,0.39,0.05,0.57,0.05c1.68,0,3.17-1.22,3.45-2.93c1.39-8.4-1.38-17.46-7.22-23.64
		c-1.32-1.41-3.54-1.47-4.95-0.14c-1.4,1.33-1.47,3.54-0.14,4.95c4.37,4.63,6.44,11.41,5.4,17.69
		C77.89,326.98,79.18,328.78,81.09,329.09z"/>
	<path class="st2" d="M38,347.64c0.51,0,1.04-0.11,1.53-0.36c8.73-4.26,14.67-13.65,14.78-23.37c0.02-1.94-1.53-3.52-3.46-3.54
		c-0.01,0-0.03,0-0.04,0c-1.92,0-3.48,1.54-3.5,3.46c-0.08,7.14-4.44,14.03-10.85,17.16c-1.74,0.85-2.46,2.94-1.61,4.68
		C35.46,346.92,36.71,347.64,38,347.64z"/>
	<path class="st2" d="M35.56,303.21c-0.29,1.91,1.03,3.7,2.94,3.98c0.18,0.03,0.35,0.04,0.53,0.04c1.7,0,3.2-1.24,3.46-2.98
		c0.66-4.38,5.26-7.97,9.68-7.42c1.9,0.19,3.66-1.17,3.87-3.09c0.22-1.92-1.17-3.65-3.09-3.87C44.91,289,36.77,295.2,35.56,303.21z"
		/>
	<path class="st2" d="M56.77,390.91c0.69,0.9,1.73,1.37,2.79,1.37c0.74,0,1.49-0.24,2.12-0.72c1.54-1.18,1.83-3.37,0.66-4.91
		l-10.05-13.14c-1.17-1.54-3.37-1.82-4.91-0.65c-1.53,1.17-1.83,3.37-0.65,4.91L56.77,390.91z"/>
	<path class="st2" d="M23.06,400.08c0.53-0.19,1.13-0.3,1.8-0.29c2.88,0.02,5.75,0.26,8.63,0.37c-2.52-1.82-4.78-3.99-6.63-6.51
		c-1.15-1.56-3.34-1.91-4.89-0.76c-1.56,1.14-1.9,3.33-0.76,4.89C21.79,398.58,22.42,399.34,23.06,400.08z"/>
	<path class="st2" d="M13.7,377.46c0.27,0.06,0.53,0.09,0.79,0.09c1.59,0,3.03-1.09,3.41-2.71c1.4-6.05,4.7-11.67,9.3-15.82
		c1.43-1.3,1.55-3.51,0.25-4.95c-1.3-1.43-3.52-1.55-4.95-0.25c-5.65,5.11-9.71,12.01-11.43,19.44
		C10.64,375.14,11.82,377.02,13.7,377.46z"/>
	<path class="st2" d="M95.96,369.24c0.69,0,1.39-0.2,2-0.63l16.86-11.78c1.59-1.11,1.97-3.29,0.87-4.88
		c-1.1-1.58-3.29-1.96-4.88-0.87l-16.87,11.79c-1.58,1.11-1.97,3.29-0.86,4.87C93.76,368.72,94.85,369.24,95.96,369.24z"/>
	<path class="st2" d="M172.7,357.71c0.4-1.89-0.81-3.75-2.7-4.15c-4.96-1.05-10.32-0.67-15.07,1.09c-1.82,0.67-2.74,2.68-2.08,4.5
		c0.52,1.42,1.86,2.29,3.29,2.29c0.4,0,0.81-0.07,1.21-0.22c3.54-1.3,7.52-1.6,11.2-0.81C170.44,360.81,172.31,359.6,172.7,357.71z"
		/>
	<path class="st2" d="M98.91,400.23h6.65c0.12,0,0.24,0.01,0.35,0.02c0.21-3.04,0.02-6.11-0.63-9.09c-0.42-1.89-2.29-3.08-4.17-2.67
		c-1.89,0.41-3.08,2.28-2.67,4.17C98.99,395.14,99.13,397.7,98.91,400.23z"/>
	<path class="st2" d="M166.27,396.7c1.73-0.87,2.42-2.97,1.56-4.7c-0.87-1.73-2.96-2.42-4.7-1.56c-3.88,1.95-9.13,0.87-11.93-2.46
		c-1.24-1.48-3.44-1.68-4.93-0.43c-1.48,1.24-1.68,3.45-0.43,4.93c3.22,3.84,8.14,5.93,13.07,5.93
		C161.43,398.41,163.97,397.85,166.27,396.7z"/>
	<path class="st2" d="M187.46,367.89c0.36,1.64,1.81,2.76,3.42,2.76c0.25,0,0.5-0.02,0.75-0.08l17.77-3.86
		c1.89-0.41,3.09-2.28,2.68-4.17c-0.42-1.89-2.26-3.09-4.17-2.68l-17.77,3.86C188.25,364.14,187.05,366,187.46,367.89z"/>
	<path class="st2" d="M191.01,308.47c1.34-1.39,1.3-3.61-0.1-4.95c-1.4-1.34-3.61-1.3-4.95,0.1c-3.66,3.8-8.76,6.34-14.01,6.95
		c-1.92,0.23-3.29,1.97-3.07,3.89c0.21,1.78,1.72,3.09,3.47,3.09c0.14,0,0.27-0.01,0.41-0.02
		C179.7,316.71,186.18,313.49,191.01,308.47z"/>
	<path class="st2" d="M1.25,127.82c-0.43,1.88,0.75,3.76,2.63,4.19c3.71,0.85,7.49,1.28,11.26,1.28c5.44,0,10.86-0.88,16.06-2.63
		c1.83-0.62,2.82-2.6,2.21-4.43c-0.62-1.83-2.6-2.82-4.43-2.21c-7.59,2.55-15.72,2.95-23.54,1.17
		C3.57,124.74,1.67,125.93,1.25,127.82z"/>
	<path class="st2" d="M25.17,172.37c0.69,0.84,1.7,1.28,2.71,1.28c0.78,0,1.56-0.26,2.22-0.79c1.49-1.22,1.72-3.43,0.49-4.93
		l-6.95-8.5c-1.22-1.5-3.43-1.72-4.93-0.49c-1.49,1.22-1.72,3.43-0.49,4.93L25.17,172.37z"/>
	<path class="st2" d="M11.48,293.43c0.63,0.49,1.38,0.72,2.12,0.72c1.06,0,2.1-0.48,2.79-1.38c1.17-1.54,0.88-3.73-0.66-4.91
		c-4.1-3.14-7.33-7.31-9.32-12.07c-0.75-1.78-2.78-2.62-4.58-1.88c-1.78,0.75-2.62,2.8-1.87,4.59
		C2.41,284.39,6.4,289.56,11.48,293.43z"/>
</g>
</svg>
