<svg id="Layer_1" data-name="Layer 1" xmlns="http://www.w3.org/2000/svg" viewBox="0 0 529.76 581.25"><defs><style>.cls-1,.cls-4,.cls-5,.cls-8,.cls-9{opacity:0.5;}.cls-2,.cls-8{fill:#edbf2e;}.cls-3,.cls-5{fill:#82cecd;}.cls-4,.cls-6{fill:#dd708d;}.cls-7,.cls-9{fill:#42799b;}</style></defs><title>bg-light</title><g class="cls-1"><path class="cls-2" d="M469.09,180.43a1.5,1.5,0,0,1-1-.4l-15.25-14.31a1.5,1.5,0,1,1,2.05-2.18l15.25,14.3a1.51,1.51,0,0,1,.07,2.12A1.53,1.53,0,0,1,469.09,180.43Z" transform="translate(-56.04 -35.73)"/><path class="cls-2" d="M454.31,180.91a1.46,1.46,0,0,1-1-.41,1.49,1.49,0,0,1-.07-2.12l14.31-15.25a1.5,1.5,0,1,1,2.18,2.05l-14.3,15.26A1.53,1.53,0,0,1,454.31,180.91Z" transform="translate(-56.04 -35.73)"/></g><g class="cls-1"><path class="cls-3" d="M72.8,307.29a1.47,1.47,0,0,1-1-.41l-15.25-14.3a1.49,1.49,0,0,1-.07-2.12,1.51,1.51,0,0,1,2.12-.07L73.82,304.7a1.5,1.5,0,0,1-1,2.59Z" transform="translate(-56.04 -35.73)"/><path class="cls-3" d="M58,307.77a1.51,1.51,0,0,1-1.1-2.53L71.23,290A1.5,1.5,0,0,1,73.42,292L59.11,307.29A1.48,1.48,0,0,1,58,307.77Z" transform="translate(-56.04 -35.73)"/></g><g class="cls-1"><path class="cls-2" d="M215.75,358.36a1.11,1.11,0,0,1-.76-.3l-11.32-10.62a1.11,1.11,0,0,1,1.52-1.62l11.32,10.62a1.11,1.11,0,0,1-.76,1.92Z" transform="translate(-56.04 -35.73)"/><path class="cls-2" d="M204.78,358.71a1.13,1.13,0,0,1-.76-.3,1.11,1.11,0,0,1-.05-1.57l10.62-11.32a1.11,1.11,0,1,1,1.62,1.52l-10.62,11.32A1.06,1.06,0,0,1,204.78,358.71Z" transform="translate(-56.04 -35.73)"/></g><path class="cls-4" d="M211.31,439.84a1.5,1.5,0,0,1-1.5-1.5,14.42,14.42,0,1,0-28.83,0,1.5,1.5,0,0,1-3,0,17.42,17.42,0,1,1,34.83,0A1.51,1.51,0,0,1,211.31,439.84Z" transform="translate(-56.04 -35.73)"/><path class="cls-5" d="M454.56,281.28a17.34,17.34,0,1,1,0-34.68,1.5,1.5,0,0,1,0,3,14.34,14.34,0,1,0,0,28.68,1.5,1.5,0,0,1,0,3Z" transform="translate(-56.04 -35.73)"/><g class="cls-1"><path class="cls-6" d="M312.44,288c-4.14,0-6-3.38-7.57-6.36-1.71-3.16-3.19-5.9-7-5.9a1.5,1.5,0,0,1,0-3c5.57,0,7.81,4.15,9.61,7.48,1.6,3,2.69,4.78,4.93,4.78a1.5,1.5,0,1,1,0,3Z" transform="translate(-56.04 -35.73)"/><path class="cls-6" d="M341.51,288c-4.14,0-6-3.38-7.57-6.36-1.71-3.16-3.18-5.9-7-5.9a1.5,1.5,0,0,1,0-3c5.57,0,7.8,4.15,9.6,7.48,1.6,3,2.69,4.78,4.93,4.78a1.5,1.5,0,0,1,0,3Z" transform="translate(-56.04 -35.73)"/><path class="cls-6" d="M312.44,288a1.5,1.5,0,0,1,0-3c2.24,0,3.33-1.82,4.93-4.78,1.8-3.33,4-7.48,9.61-7.48a1.5,1.5,0,0,1,0,3c-3.79,0-5.26,2.74-7,5.9C318.4,284.61,316.58,288,312.44,288Z" transform="translate(-56.04 -35.73)"/><path class="cls-6" d="M356.05,274.23" transform="translate(-56.04 -35.73)"/><path class="cls-6" d="M341.51,288a1.5,1.5,0,0,1,0-3c2.24,0,3.33-1.82,4.93-4.78,1.8-3.33,4-7.48,9.6-7.48h0a1.5,1.5,0,0,1,0,3h0c-3.78,0-5.25,2.74-7,5.9-1.61,3-3.43,6.36-7.57,6.36Z" transform="translate(-56.04 -35.73)"/></g><path class="cls-5" d="M195.4,97.57h0a1.5,1.5,0,1,0-2.12-2.12h0c-3.94,3.94-2.6,8.45-1.51,12.08,1,3.23,1.47,5.28-.11,6.87s-3.64,1.07-6.87.1c-3.62-1.08-8.13-2.43-12.07,1.51s-2.59,8.45-1.51,12.08c1,3.22,1.48,5.28-.11,6.86s-3.63,1.07-6.86.11c-3.63-1.09-8.14-2.43-12.08,1.51a1.49,1.49,0,0,0,0,2.12,1.51,1.51,0,0,0,2.12,0c2.68-2.68,5.65-1.79,9.1-.76,3.24,1,6.92,2.07,9.85-.86s1.82-6.6.86-9.84c-1-3.45-1.92-6.43.75-9.1s5.65-1.78,9.1-.75c3.24,1,6.92,2.06,9.84-.86s1.83-6.61.86-9.85C193.61,103.22,192.72,100.25,195.4,97.57Z" transform="translate(-56.04 -35.73)"/><g class="cls-1"><path class="cls-7" d="M554.83,216.16a1.5,1.5,0,0,1-1.5-1.5c0-5.57,4.15-7.81,7.48-9.61,3-1.6,4.78-2.69,4.78-4.93a1.5,1.5,0,0,1,3,0c0,4.14-3.38,6-6.36,7.57-3.16,1.71-5.9,3.19-5.9,7A1.5,1.5,0,0,1,554.83,216.16Z" transform="translate(-56.04 -35.73)"/><path class="cls-7" d="M554.83,187.09a1.51,1.51,0,0,1-1.5-1.5c0-5.57,4.15-7.81,7.48-9.61,3-1.6,4.78-2.69,4.78-4.93a1.5,1.5,0,0,1,3,0c0,4.14-3.38,6-6.36,7.57-3.16,1.71-5.9,3.19-5.9,7A1.5,1.5,0,0,1,554.83,187.09Z" transform="translate(-56.04 -35.73)"/><path class="cls-7" d="M567.09,201.62a1.5,1.5,0,0,1-1.5-1.5c0-2.23-1.82-3.33-4.78-4.93-3.33-1.79-7.48-4-7.48-9.6a1.5,1.5,0,0,1,3,0c0,3.78,2.74,5.25,5.9,7,3,1.61,6.36,3.43,6.36,7.57A1.5,1.5,0,0,1,567.09,201.62Z" transform="translate(-56.04 -35.73)"/><path class="cls-7" d="M554.83,156.51" transform="translate(-56.04 -35.73)"/><path class="cls-7" d="M567.09,172.55a1.5,1.5,0,0,1-1.5-1.5c0-2.23-1.82-3.33-4.78-4.93-3.33-1.8-7.48-4-7.48-9.61a1.5,1.5,0,0,1,3,0c0,3.79,2.74,5.26,5.9,7,3,1.61,6.36,3.43,6.36,7.57A1.5,1.5,0,0,1,567.09,172.55Z" transform="translate(-56.04 -35.73)"/></g><path class="cls-8" d="M221.7,231.2H185.83a1.5,1.5,0,1,1,0-3H221.7a1.5,1.5,0,0,1,0,3Z" transform="translate(-56.04 -35.73)"/><path class="cls-8" d="M431.59,409.81a1.51,1.51,0,0,1-1.06-.44,1.49,1.49,0,0,1,0-2.12l25.36-25.37A1.5,1.5,0,1,1,458,384l-25.36,25.36A1.51,1.51,0,0,1,431.59,409.81Z" transform="translate(-56.04 -35.73)"/><path class="cls-9" d="M558.94,64.1a1.5,1.5,0,0,1-1.06-2.56l25.36-25.37a1.51,1.51,0,0,1,2.12,0,1.49,1.49,0,0,1,0,2.12L560,63.66A1.51,1.51,0,0,1,558.94,64.1Z" transform="translate(-56.04 -35.73)"/><path class="cls-8" d="M492,59.06a7.94,7.94,0,0,1-1.74-.2,7.76,7.76,0,1,1,8.3-11.7,7.77,7.77,0,0,1-2.43,10.7h0A7.69,7.69,0,0,1,492,59.06Zm0-12.54a4.77,4.77,0,1,0,2.55,8.8h0a4.77,4.77,0,0,0-2.55-8.8Z" transform="translate(-56.04 -35.73)"/><path class="cls-8" d="M376.36,582.16A17.41,17.41,0,1,1,359,599.57,17.44,17.44,0,0,1,376.36,582.16Zm0,31.82A14.41,14.41,0,1,0,362,599.57,14.43,14.43,0,0,0,376.36,614Z" transform="translate(-56.04 -35.73)"/><path class="cls-9" d="M491,506.92a1.51,1.51,0,0,0-2.12,0c-2.67,2.68-5.65,1.79-9.1.76-3.24-1-6.92-2.07-9.84.85s-1.83,6.61-.86,9.85c1,3.45,1.92,6.42-.76,9.1s-5.65,1.78-9.09.75c-3.25-1-6.92-2.07-9.85.86s-1.83,6.6-.86,9.85c1,3.44,1.92,6.42-.75,9.09h0a1.5,1.5,0,0,0,2.13,2.12h0c3.94-3.94,2.59-8.46,1.5-12.08-1-3.23-1.47-5.29.11-6.87s3.64-1.07,6.87-.1c3.62,1.08,8.13,2.43,12.07-1.51s2.59-8.45,1.51-12.08c-1-3.22-1.47-5.28.11-6.86s3.64-1.07,6.86-.11c3.63,1.08,8.14,2.43,12.08-1.51A1.49,1.49,0,0,0,491,506.92Z" transform="translate(-56.04 -35.73)"/><path class="cls-9" d="M84.26,581.51a1.53,1.53,0,0,1,1.07.44,1.51,1.51,0,0,1,0,2.12L60,609.44a1.51,1.51,0,0,1-2.12,0,1.49,1.49,0,0,1,0-2.12L83.2,582A1.53,1.53,0,0,1,84.26,581.51Z" transform="translate(-56.04 -35.73)"/><path class="cls-4" d="M151.22,586.55a7.94,7.94,0,0,1,1.74.2,7.77,7.77,0,1,1-5.86,1h0A7.77,7.77,0,0,1,151.22,586.55Zm0,12.54a4.79,4.79,0,0,0,4.63-3.71,4.77,4.77,0,0,0-7.18-5.1h0a4.77,4.77,0,0,0,2.55,8.81Z" transform="translate(-56.04 -35.73)"/><path class="cls-4" d="M413.06,465.49a7.85,7.85,0,0,1,1.73.2,7.76,7.76,0,1,1-8.29,11.7,7.77,7.77,0,0,1,2.43-10.7h0A7.83,7.83,0,0,1,413.06,465.49Zm0,12.54a4.79,4.79,0,0,0,4.64-3.71,4.75,4.75,0,0,0-.62-3.6,4.69,4.69,0,0,0-3-2.11,4.79,4.79,0,0,0-3.6.61h0a4.78,4.78,0,0,0,1.48,8.69A4.94,4.94,0,0,0,413.08,478Z" transform="translate(-56.04 -35.73)"/><path class="cls-8" d="M77.91,501.22a7.93,7.93,0,0,1-1.74-.19A7.76,7.76,0,1,1,82,500h0A7.73,7.73,0,0,1,77.91,501.22Zm0-12.53a4.76,4.76,0,0,0-4,7.3,4.76,4.76,0,0,0,8.68-1.48,4.76,4.76,0,0,0-3.59-5.7A4.88,4.88,0,0,0,77.88,488.69Z" transform="translate(-56.04 -35.73)"/></svg>