<svg id="Layer_1" data-name="Layer 1" xmlns="http://www.w3.org/2000/svg" viewBox="0 0 637.74 637.74"><defs><style>.cls-1{fill:#d3d3d3;}.cls-2,.cls-9{fill:#e3eaf5;}.cls-3,.cls-8{fill:#edbf2e;}.cls-4{fill:#82cecd;}.cls-5{fill:#dd708d;}.cls-6{fill:#42799b;}.cls-7{fill:none;stroke:#d3d3d3;}.cls-7,.cls-8{stroke-linecap:round;stroke-linejoin:round;}.cls-8{stroke:#ffd550;stroke-width:3px;}.cls-9{opacity:0.84;}</style></defs><title>bg</title><path class="cls-1" d="M228,565.31a.52.52,0,0,1-.25-.07l-36.35-21a.49.49,0,0,1,0-.86l36.32-21a.5.5,0,0,1,.5,0,.52.52,0,0,1,.25.44l0,41.95a.52.52,0,0,1-.25.43A.59.59,0,0,1,228,565.31Zm-35.35-21.45,34.84,20.08,0-40.22-17.41,10.07h0Z" transform="translate(0 -0.08)"/><rect class="cls-2" width="637.74" height="637.74"/><path class="cls-1" d="M170.9,321.47a.54.54,0,0,1-.25-.06.52.52,0,0,1-.25-.44l0-42a.52.52,0,0,1,.25-.43.5.5,0,0,1,.5,0l36.35,21a.49.49,0,0,1,0,.86l-36.32,21A.54.54,0,0,1,170.9,321.47Zm.47-41.58,0,40.22L188.81,310h0L206.22,300Z" transform="translate(0 -0.08)"/><path class="cls-1" d="M426.65,115.14a.45.45,0,0,1-.25-.07.5.5,0,0,1-.25-.43l0-41.95a.52.52,0,0,1,.25-.44.5.5,0,0,1,.5,0l36.35,21a.5.5,0,0,1,.25.43.52.52,0,0,1-.25.44l-36.32,21A.45.45,0,0,1,426.65,115.14Zm.47-41.59,0,40.22,17.41-10.07h0L462,93.63Z" transform="translate(0 -0.08)"/><path class="cls-3" d="M469.09,180.43a1.5,1.5,0,0,1-1-.4l-15.25-14.31a1.5,1.5,0,1,1,2.05-2.18l15.25,14.3a1.51,1.51,0,0,1,.07,2.12A1.53,1.53,0,0,1,469.09,180.43Z" transform="translate(0 -0.08)"/><path class="cls-3" d="M454.31,180.91a1.46,1.46,0,0,1-1-.41,1.49,1.49,0,0,1-.07-2.12l14.31-15.25a1.5,1.5,0,1,1,2.18,2.05l-14.3,15.26A1.53,1.53,0,0,1,454.31,180.91Z" transform="translate(0 -0.08)"/><path class="cls-4" d="M72.8,307.29a1.47,1.47,0,0,1-1-.41l-15.25-14.3a1.49,1.49,0,0,1-.07-2.12,1.51,1.51,0,0,1,2.12-.07L73.82,304.7a1.5,1.5,0,0,1-1,2.59Z" transform="translate(0 -0.08)"/><path class="cls-4" d="M58,307.77a1.51,1.51,0,0,1-1.1-2.53L71.23,290A1.5,1.5,0,0,1,73.42,292L59.11,307.29A1.48,1.48,0,0,1,58,307.77Z" transform="translate(0 -0.08)"/><path class="cls-5" d="M64.51,194.17a2.53,2.53,0,0,1-1.74-.69L36.89,169.21a2.55,2.55,0,1,1,3.48-3.72l25.88,24.28a2.53,2.53,0,0,1,.11,3.59A2.5,2.5,0,0,1,64.51,194.17Z" transform="translate(0 -0.08)"/><path class="cls-5" d="M39.43,195a2.55,2.55,0,0,1-1.86-4.29l24.28-25.88a2.54,2.54,0,0,1,3.71,3.48L41.29,194.17A2.53,2.53,0,0,1,39.43,195Z" transform="translate(0 -0.08)"/><path class="cls-3" d="M215.75,358.36a1.11,1.11,0,0,1-.76-.3l-11.32-10.62a1.11,1.11,0,0,1,1.52-1.62l11.32,10.62a1.11,1.11,0,0,1-.76,1.92Z" transform="translate(0 -0.08)"/><path class="cls-3" d="M204.78,358.71a1.13,1.13,0,0,1-.76-.3,1.11,1.11,0,0,1-.05-1.57l10.62-11.32a1.11,1.11,0,1,1,1.62,1.52l-10.62,11.32A1.06,1.06,0,0,1,204.78,358.71Z" transform="translate(0 -0.08)"/><path class="cls-1" d="M87.41,194.17l12.15-13a.65.65,0,0,0,0-.92.66.66,0,0,0-.92,0L86.51,193.2,74.39,180.32a.67.67,0,0,0-.48-.2.64.64,0,0,0-.47,1.09l12.16,13-12.16,13a.65.65,0,0,0,0,.91.67.67,0,0,0,.92,0l12.12-12.88L98.62,208a.66.66,0,0,0,.92,0,.65.65,0,0,0,0-.91Z" transform="translate(0 -0.08)"/><path class="cls-3" d="M72,84.45A1.49,1.49,0,0,1,71,84L41.29,54.37A1.5,1.5,0,0,1,42,51.86L82.48,41a1.5,1.5,0,0,1,1.45.39,1.52,1.52,0,0,1,.39,1.45L73.49,83.34a1.51,1.51,0,0,1-1.06,1.06A1.31,1.31,0,0,1,72,84.45ZM45.25,54.08l26,26L76,62.3h0l4.75-17.76Z" transform="translate(0 -0.08)"/><path class="cls-6" d="M155.73,309.12a1.44,1.44,0,0,1-.75-.21,1.47,1.47,0,0,1-.75-1.29l0-41.95a1.5,1.5,0,0,1,2.25-1.3l36.35,20.94a1.5,1.5,0,0,1,0,2.6l-36.32,21A1.44,1.44,0,0,1,155.73,309.12Zm1.47-40.86,0,36.76,15.91-9.2h0l15.91-9.21Z" transform="translate(0 -0.08)"/><path class="cls-5" d="M403.83,102.78a1.56,1.56,0,0,1-.75-.2,1.51,1.51,0,0,1-.75-1.3l0-41.95a1.51,1.51,0,0,1,.75-1.3,1.49,1.49,0,0,1,1.5,0L440.9,79a1.5,1.5,0,0,1,0,2.6l-36.32,21A1.53,1.53,0,0,1,403.83,102.78Zm1.48-40.86,0,36.76,15.91-9.2h0l15.91-9.2Z" transform="translate(0 -0.08)"/><path class="cls-5" d="M211.31,439.84a1.5,1.5,0,0,1-1.5-1.5,14.42,14.42,0,1,0-28.83,0,1.5,1.5,0,0,1-3,0,17.42,17.42,0,1,1,34.83,0A1.51,1.51,0,0,1,211.31,439.84Z" transform="translate(0 -0.08)"/><path class="cls-4" d="M454.56,281.28a17.34,17.34,0,1,1,0-34.68,1.5,1.5,0,0,1,0,3,14.34,14.34,0,1,0,0,28.68,1.5,1.5,0,0,1,0,3Z" transform="translate(0 -0.08)"/><path class="cls-6" d="M266.84,63.45A17.42,17.42,0,1,1,284.25,46,17.43,17.43,0,0,1,266.84,63.45Zm0-31.83A14.42,14.42,0,1,0,281.25,46,14.43,14.43,0,0,0,266.84,31.62Z" transform="translate(0 -0.08)"/><path class="cls-3" d="M324,181H292.39a1.5,1.5,0,0,1-1.5-1.5V147.79a1.5,1.5,0,0,1,1.5-1.5H324a1.5,1.5,0,0,1,1.5,1.5v31.66A1.5,1.5,0,0,1,324,181Zm-30.15-3h28.65V149.29H293.89Z" transform="translate(0 -0.08)"/><path class="cls-6" d="M319.28,379.7H287.63a1.5,1.5,0,0,1-1.5-1.5V346.55a1.5,1.5,0,0,1,1.5-1.5h31.65a1.5,1.5,0,0,1,1.5,1.5V378.2A1.5,1.5,0,0,1,319.28,379.7Zm-30.15-3h28.65V348.05H289.13Z" transform="translate(0 -0.08)"/><path class="cls-5" d="M312.44,288c-4.14,0-6-3.38-7.57-6.36-1.71-3.16-3.19-5.9-7-5.9a1.5,1.5,0,0,1,0-3c5.57,0,7.81,4.15,9.61,7.48,1.6,3,2.69,4.78,4.93,4.78a1.5,1.5,0,1,1,0,3Z" transform="translate(0 -0.08)"/><path class="cls-5" d="M341.51,288c-4.14,0-6-3.38-7.57-6.36-1.71-3.16-3.18-5.9-7-5.9a1.5,1.5,0,0,1,0-3c5.57,0,7.8,4.15,9.6,7.48,1.6,3,2.69,4.78,4.93,4.78a1.5,1.5,0,0,1,0,3Z" transform="translate(0 -0.08)"/><path class="cls-5" d="M312.44,288a1.5,1.5,0,0,1,0-3c2.24,0,3.33-1.82,4.93-4.78,1.8-3.33,4-7.48,9.61-7.48a1.5,1.5,0,0,1,0,3c-3.79,0-5.26,2.74-7,5.9C318.4,284.61,316.58,288,312.44,288Z" transform="translate(0 -0.08)"/><path class="cls-5" d="M356.05,274.23" transform="translate(0 -0.08)"/><path class="cls-5" d="M341.51,288a1.5,1.5,0,0,1,0-3c2.24,0,3.33-1.82,4.93-4.78,1.8-3.33,4-7.48,9.6-7.48h0a1.5,1.5,0,0,1,0,3h0c-3.78,0-5.25,2.74-7,5.9-1.61,3-3.43,6.36-7.57,6.36Z" transform="translate(0 -0.08)"/><path class="cls-4" d="M195.4,97.57h0a1.5,1.5,0,1,0-2.12-2.12h0c-3.94,3.94-2.6,8.45-1.51,12.08,1,3.23,1.47,5.28-.11,6.87s-3.64,1.07-6.87.1c-3.62-1.08-8.13-2.43-12.07,1.51s-2.59,8.45-1.51,12.08c1,3.22,1.48,5.28-.11,6.86s-3.63,1.07-6.86.11c-3.63-1.09-8.14-2.43-12.08,1.51a1.49,1.49,0,0,0,0,2.12,1.51,1.51,0,0,0,2.12,0c2.68-2.68,5.65-1.79,9.1-.76,3.24,1,6.92,2.07,9.85-.86s1.82-6.6.86-9.84c-1-3.45-1.92-6.43.75-9.1s5.65-1.78,9.1-.75c3.24,1,6.92,2.06,9.84-.86s1.83-6.61.86-9.85C193.61,103.22,192.72,100.25,195.4,97.57Z" transform="translate(0 -0.08)"/><path class="cls-6" d="M554.83,216.16a1.5,1.5,0,0,1-1.5-1.5c0-5.57,4.15-7.81,7.48-9.61,3-1.6,4.78-2.69,4.78-4.93a1.5,1.5,0,0,1,3,0c0,4.14-3.38,6-6.36,7.57-3.16,1.71-5.9,3.19-5.9,7A1.5,1.5,0,0,1,554.83,216.16Z" transform="translate(0 -0.08)"/><path class="cls-6" d="M554.83,187.09a1.51,1.51,0,0,1-1.5-1.5c0-5.57,4.15-7.81,7.48-9.61,3-1.6,4.78-2.69,4.78-4.93a1.5,1.5,0,0,1,3,0c0,4.14-3.38,6-6.36,7.57-3.16,1.71-5.9,3.19-5.9,7A1.5,1.5,0,0,1,554.83,187.09Z" transform="translate(0 -0.08)"/><path class="cls-6" d="M567.09,201.62a1.5,1.5,0,0,1-1.5-1.5c0-2.23-1.82-3.33-4.78-4.93-3.33-1.79-7.48-4-7.48-9.6a1.5,1.5,0,0,1,3,0c0,3.78,2.74,5.25,5.9,7,3,1.61,6.36,3.43,6.36,7.57A1.5,1.5,0,0,1,567.09,201.62Z" transform="translate(0 -0.08)"/><path class="cls-6" d="M554.83,156.51" transform="translate(0 -0.08)"/><path class="cls-6" d="M567.09,172.55a1.5,1.5,0,0,1-1.5-1.5c0-2.23-1.82-3.33-4.78-4.93-3.33-1.8-7.48-4-7.48-9.61a1.5,1.5,0,0,1,3,0c0,3.79,2.74,5.26,5.9,7,3,1.61,6.36,3.43,6.36,7.57A1.5,1.5,0,0,1,567.09,172.55Z" transform="translate(0 -0.08)"/><path class="cls-3" d="M221.7,231.2H185.83a1.5,1.5,0,1,1,0-3H221.7a1.5,1.5,0,0,1,0,3Z" transform="translate(0 -0.08)"/><path class="cls-3" d="M431.59,409.81a1.51,1.51,0,0,1-1.06-.44,1.49,1.49,0,0,1,0-2.12l25.36-25.37A1.5,1.5,0,1,1,458,384l-25.36,25.36A1.51,1.51,0,0,1,431.59,409.81Z" transform="translate(0 -0.08)"/><path class="cls-6" d="M558.94,64.1a1.5,1.5,0,0,1-1.06-2.56l25.36-25.37a1.51,1.51,0,0,1,2.12,0,1.49,1.49,0,0,1,0,2.12L560,63.66A1.51,1.51,0,0,1,558.94,64.1Z" transform="translate(0 -0.08)"/><path class="cls-1" d="M94.85,96.81a.5.5,0,0,1-.35-.14L64.82,67a.49.49,0,0,1,.22-.83L105.55,55.3a.49.49,0,0,1,.49.13.52.52,0,0,1,.13.48L95.34,96.44a.52.52,0,0,1-.36.36ZM66.14,66.93,94.59,95.35l5.19-19.43h0L105,56.49Z" transform="translate(0 -0.08)"/><path class="cls-1" d="M234.12,452.19a.5.5,0,0,1-.5-.5,15.42,15.42,0,0,0-30.83,0,.5.5,0,0,1-.5.5.5.5,0,0,1-.5-.5,16.42,16.42,0,0,1,32.83,0A.5.5,0,0,1,234.12,452.19Z" transform="translate(0 -0.08)"/><path class="cls-1" d="M477.38,293.64a16.34,16.34,0,1,1,0-32.68.5.5,0,0,1,0,1,15.34,15.34,0,1,0,0,30.68.5.5,0,0,1,0,1Z" transform="translate(0 -0.08)"/><path class="cls-1" d="M289.66,75.81A16.42,16.42,0,1,1,306.07,59.4,16.44,16.44,0,0,1,289.66,75.81Zm0-31.83A15.42,15.42,0,1,0,305.07,59.4,15.44,15.44,0,0,0,289.66,44Z" transform="translate(0 -0.08)"/><path class="cls-1" d="M346.85,193.31H315.2a.51.51,0,0,1-.5-.5V161.15a.51.51,0,0,1,.5-.5h31.65a.5.5,0,0,1,.5.5v31.66A.5.5,0,0,1,346.85,193.31Zm-31.15-1h30.65V161.65H315.7Z" transform="translate(0 -0.08)"/><path class="cls-1" d="M342.1,392.06H310.45a.5.5,0,0,1-.5-.5V359.91a.5.5,0,0,1,.5-.5H342.1a.5.5,0,0,1,.5.5v31.65A.5.5,0,0,1,342.1,392.06Zm-31.15-1H341.6V360.41H311Z" transform="translate(0 -0.08)"/><path class="cls-1" d="M335.25,300.35c-3.54,0-5.14-3-6.69-5.83-1.7-3.16-3.46-6.43-7.84-6.43a.5.5,0,0,1-.5-.5.5.5,0,0,1,.5-.5c5,0,7,3.69,8.72,7,1.54,2.85,2.87,5.31,5.81,5.31a.5.5,0,0,1,.5.5A.5.5,0,0,1,335.25,300.35Z" transform="translate(0 -0.08)"/><path class="cls-1" d="M364.33,300.35c-3.55,0-5.15-3-6.69-5.83-1.71-3.16-3.47-6.43-7.85-6.43a.5.5,0,0,1-.5-.5.51.51,0,0,1,.5-.5c5,0,7,3.7,8.73,7,1.53,2.85,2.86,5.31,5.81,5.31a.5.5,0,0,1,.5.5A.51.51,0,0,1,364.33,300.35Z" transform="translate(0 -0.08)"/><path class="cls-1" d="M335.25,300.35a.51.51,0,0,1-.5-.5.5.5,0,0,1,.5-.5c2.95,0,4.28-2.46,5.82-5.31,1.75-3.25,3.75-7,8.72-7a.5.5,0,0,1,.5.5.5.5,0,0,1-.5.5c-4.38,0-6.14,3.27-7.84,6.43C340.4,297.38,338.8,300.35,335.25,300.35Z" transform="translate(0 -0.08)"/><path class="cls-7" d="M378.86,287.59" transform="translate(0 -0.08)"/><path class="cls-1" d="M364.33,300.35a.5.5,0,0,1-.5-.5.5.5,0,0,1,.5-.5c2.94,0,4.27-2.46,5.81-5.31,1.75-3.26,3.75-7,8.72-7h0a.5.5,0,0,1,.5.5.5.5,0,0,1-.5.5h0c-4.38,0-6.14,3.27-7.84,6.43C369.47,297.38,367.87,300.35,364.33,300.35Z" transform="translate(0 -0.08)"/><path class="cls-1" d="M178.8,131.44a.5.5,0,0,1-.35-.85c3.52-3.52,7.53-2.32,11.08-1.26,3.1.93,5.78,1.73,7.86-.36a.5.5,0,1,1,.71.71c-2.5,2.51-5.73,1.54-8.86.61-3.43-1-7-2.09-10.08,1A.51.51,0,0,1,178.8,131.44Z" transform="translate(0 -0.08)"/><path class="cls-1" d="M199.36,110.88A.5.5,0,0,1,199,110c3.51-3.52,7.53-2.32,11.08-1.26,3.1.93,5.78,1.73,7.86-.35a.5.5,0,0,1,.71,0,.5.5,0,0,1,0,.7c-2.51,2.51-5.74,1.54-8.86.61-3.44-1-7-2.09-10.09,1A.5.5,0,0,1,199.36,110.88Z" transform="translate(0 -0.08)"/><path class="cls-1" d="M197.75,129.83a.51.51,0,0,1-.36-.15.51.51,0,0,1,0-.71c2.09-2.08,1.29-4.76.36-7.86-1.06-3.54-2.26-7.56,1.26-11.08a.48.48,0,0,1,.7,0,.5.5,0,0,1,0,.71c-3.09,3.09-2,6.65-1,10.09.93,3.12,1.89,6.34-.61,8.85A.5.5,0,0,1,197.75,129.83Z" transform="translate(0 -0.08)"/><path class="cls-7" d="M219.92,89.83" transform="translate(0 -0.08)"/><path class="cls-1" d="M218.3,109.27a.5.5,0,0,1-.35-.85c2.08-2.09,1.28-4.76.36-7.86C217.25,97,216,93,219.56,89.47a.51.51,0,0,1,.71,0,.5.5,0,0,1,0,.71c-3.1,3.1-2,6.65-1,10.09.94,3.12,1.9,6.35-.6,8.85A.51.51,0,0,1,218.3,109.27Z" transform="translate(0 -0.08)"/><path class="cls-3" d="M54.46,414c-2.93,2.92-6.6,1.83-9.85.86-3.44-1-6.42-1.92-9.09.75a1.5,1.5,0,0,1-2.12-2.12c3.93-3.94,8.45-2.59,12.07-1.51,3.23,1,5.29,1.48,6.87-.1A1.5,1.5,0,1,1,54.46,414Z" transform="translate(0 -0.08)"/><path class="cls-3" d="M75,393.48c-2.93,2.93-6.61,1.83-9.85.86-3.45-1-6.42-1.92-9.1.75a1.49,1.49,0,0,1-2.12,0A1.51,1.51,0,0,1,54,393c3.94-3.94,8.45-2.59,12.08-1.51,3.23,1,5.29,1.48,6.87-.1a1.49,1.49,0,0,1,2.12,0A1.51,1.51,0,0,1,75,393.48Z" transform="translate(0 -0.08)"/><path class="cls-3" d="M54.46,414a1.51,1.51,0,0,1-2.12,0,1.49,1.49,0,0,1,0-2.12c1.58-1.59,1.07-3.64.11-6.87C51.36,401.42,50,396.91,54,393a1.51,1.51,0,0,1,2.12,0,1.49,1.49,0,0,1,0,2.12c-2.67,2.68-1.78,5.65-.75,9.1C56.29,407.43,57.39,411.11,54.46,414Z" transform="translate(0 -0.08)"/><path class="cls-8" d="M75.57,373.48" transform="translate(0 -0.08)"/><path class="cls-3" d="M75,393.48a1.5,1.5,0,0,1-2.12-2.12c1.58-1.58,1.07-3.64.1-6.87-1.08-3.62-2.43-8.13,1.51-12.07h0a1.5,1.5,0,0,1,2.12,2.12h0c-2.67,2.67-1.78,5.65-.75,9.09C76.85,386.88,77.94,390.55,75,393.48Z" transform="translate(0 -0.08)"/><path class="cls-1" d="M60,408.4a.54.54,0,0,1-.36-.14.51.51,0,0,1,0-.71c3.52-3.52,7.54-2.32,11.09-1.26,3.1.93,5.77,1.73,7.86-.35a.49.49,0,1,1,.7.7c-2.5,2.51-5.73,1.54-8.85.61-3.44-1-7-2.09-10.09,1A.54.54,0,0,1,60,408.4Z" transform="translate(0 -0.08)"/><path class="cls-1" d="M80.59,387.85a.5.5,0,0,1-.35-.15.51.51,0,0,1,0-.71c3.52-3.52,7.54-2.31,11.08-1.25,3.1.92,5.78,1.72,7.86-.36a.5.5,0,0,1,.71.71c-2.5,2.5-5.73,1.54-8.85.6-3.44-1-7-2.09-10.09,1A.51.51,0,0,1,80.59,387.85Z" transform="translate(0 -0.08)"/><path class="cls-1" d="M79,406.79a.47.47,0,0,1-.35-.15.48.48,0,0,1,0-.7c2.08-2.09,1.28-4.76.35-7.86-1.06-3.55-2.26-7.57,1.26-11.09a.5.5,0,0,1,.71.71c-3.1,3.09-2,6.65-1,10.09.93,3.12,1.9,6.35-.61,8.85A.47.47,0,0,1,79,406.79Z" transform="translate(0 -0.08)"/><path class="cls-7" d="M101.15,366.79" transform="translate(0 -0.08)"/><path class="cls-1" d="M99.54,386.23a.54.54,0,0,1-.36-.14.51.51,0,0,1,0-.71c2.09-2.09,1.29-4.76.36-7.86-1.06-3.55-2.26-7.57,1.26-11.08a.49.49,0,1,1,.7.7c-3.09,3.1-2,6.65-1,10.09.93,3.12,1.9,6.35-.61,8.86A.52.52,0,0,1,99.54,386.23Z" transform="translate(0 -0.08)"/><path class="cls-1" d="M577.65,228.52a.5.5,0,0,1-.5-.5c0-5,3.69-7,7-8.73,2.85-1.53,5.3-2.86,5.3-5.81a.51.51,0,0,1,.5-.5.5.5,0,0,1,.5.5c0,3.55-3,5.15-5.83,6.69-3.15,1.71-6.42,3.47-6.42,7.85A.5.5,0,0,1,577.65,228.52Z" transform="translate(0 -0.08)"/><path class="cls-1" d="M577.65,199.45a.5.5,0,0,1-.5-.5c0-5,3.69-7,7-8.73,2.85-1.54,5.3-2.86,5.3-5.81a.5.5,0,0,1,.5-.5.5.5,0,0,1,.5.5c0,3.54-3,5.14-5.83,6.69-3.15,1.71-6.42,3.47-6.42,7.85A.5.5,0,0,1,577.65,199.45Z" transform="translate(0 -0.08)"/><path class="cls-1" d="M589.9,214a.5.5,0,0,1-.5-.5c0-2.94-2.45-4.27-5.3-5.81-3.26-1.76-7-3.75-7-8.72a.5.5,0,1,1,1,0c0,4.37,3.27,6.14,6.42,7.84,2.87,1.55,5.83,3.15,5.83,6.69A.5.5,0,0,1,589.9,214Z" transform="translate(0 -0.08)"/><path class="cls-7" d="M577.65,169.87" transform="translate(0 -0.08)"/><path class="cls-1" d="M589.9,184.91a.5.5,0,0,1-.5-.5c0-2.95-2.45-4.27-5.3-5.81-3.26-1.76-7-3.75-7-8.73a.5.5,0,0,1,1,0c0,4.38,3.27,6.15,6.42,7.85,2.87,1.55,5.83,3.15,5.83,6.69A.5.5,0,0,1,589.9,184.91Z" transform="translate(0 -0.08)"/><path class="cls-1" d="M244.52,243.56H208.65a.5.5,0,0,1,0-1h35.87a.5.5,0,1,1,0,1Z" transform="translate(0 -0.08)"/><path class="cls-1" d="M454.41,422.17a.51.51,0,0,1-.36-.15.51.51,0,0,1,0-.71L479.41,396a.51.51,0,0,1,.71,0,.5.5,0,0,1,0,.71L454.76,422A.5.5,0,0,1,454.41,422.17Z" transform="translate(0 -0.08)"/><path class="cls-1" d="M581.75,76.46a.5.5,0,0,1-.35-.15.51.51,0,0,1,0-.71l25.36-25.36a.5.5,0,1,1,.71.71L582.11,76.31A.51.51,0,0,1,581.75,76.46Z" transform="translate(0 -0.08)"/><path class="cls-3" d="M492,59.06a7.94,7.94,0,0,1-1.74-.2,7.76,7.76,0,1,1,8.3-11.7,7.77,7.77,0,0,1-2.43,10.7h0A7.69,7.69,0,0,1,492,59.06Zm0-12.54a4.77,4.77,0,1,0,2.55,8.8h0a4.77,4.77,0,0,0-2.55-8.8Z" transform="translate(0 -0.08)"/><path class="cls-3" d="M578.69,451.44a2.57,2.57,0,0,1,1.75.69l25.87,24.27a2.54,2.54,0,1,1-3.48,3.71L577,455.84a2.55,2.55,0,0,1,1.74-4.4Z" transform="translate(0 -0.08)"/><path class="cls-3" d="M603.77,450.63a2.55,2.55,0,0,1,1.86,4.29L581.35,480.8a2.55,2.55,0,0,1-3.71-3.49l24.28-25.87A2.5,2.5,0,0,1,603.77,450.63Z" transform="translate(0 -0.08)"/><path class="cls-1" d="M555.79,451.44l-12.15,13a.65.65,0,0,0,.94.89L556.7,452.4l12.12,12.89a.63.63,0,0,0,.47.2.62.62,0,0,0,.44-.18.65.65,0,0,0,0-.91l-12.16-13,12.16-13a.64.64,0,0,0-.94-.88L556.7,450.48,544.58,437.6a.64.64,0,1,0-.94.88Z" transform="translate(0 -0.08)"/><path class="cls-4" d="M571.17,561.15a1.53,1.53,0,0,1,1.06.44l29.68,29.65a1.5,1.5,0,0,1,.39,1.45,1.53,1.53,0,0,1-1.06,1.06l-40.52,10.89a1.49,1.49,0,0,1-1.83-1.84l10.83-40.53a1.48,1.48,0,0,1,1.06-1.06A1.27,1.27,0,0,1,571.17,561.15ZM598,591.52l-26-26-4.74,17.76h0l-4.75,17.75Z" transform="translate(0 -0.08)"/><path class="cls-6" d="M239.37,542.83a1.53,1.53,0,0,1,.75.2,1.51,1.51,0,0,1,.75,1.3l0,41.95a1.51,1.51,0,0,1-.75,1.3,1.49,1.49,0,0,1-1.5,0l-36.35-21a1.49,1.49,0,0,1-.75-1.29,1.48,1.48,0,0,1,.75-1.3l36.32-21A1.53,1.53,0,0,1,239.37,542.83Zm-1.48,40.85,0-36.75L222,556.13h0l-15.91,9.2Z" transform="translate(0 -0.08)"/><path class="cls-3" d="M376.36,582.16A17.41,17.41,0,1,1,359,599.57,17.44,17.44,0,0,1,376.36,582.16Zm0,31.82A14.41,14.41,0,1,0,362,599.57,14.43,14.43,0,0,0,376.36,614Z" transform="translate(0 -0.08)"/><path class="cls-4" d="M319.16,464.66h31.66a1.5,1.5,0,0,1,1.5,1.5v31.65a1.5,1.5,0,0,1-1.5,1.5H319.16a1.5,1.5,0,0,1-1.5-1.5V466.16A1.5,1.5,0,0,1,319.16,464.66Zm30.16,3H320.66v28.65h28.66Z" transform="translate(0 -0.08)"/><path class="cls-6" d="M491,506.92a1.51,1.51,0,0,0-2.12,0c-2.67,2.68-5.65,1.79-9.1.76-3.24-1-6.92-2.07-9.84.85s-1.83,6.61-.86,9.85c1,3.45,1.92,6.42-.76,9.1s-5.65,1.78-9.09.75c-3.25-1-6.92-2.07-9.85.86s-1.83,6.6-.86,9.85c1,3.44,1.92,6.42-.75,9.09h0a1.5,1.5,0,0,0,2.13,2.12h0c3.94-3.94,2.59-8.46,1.5-12.08-1-3.23-1.47-5.29.11-6.87s3.64-1.07,6.87-.1c3.62,1.08,8.13,2.43,12.07-1.51s2.59-8.45,1.51-12.08c-1-3.22-1.47-5.28.11-6.86s3.64-1.07,6.86-.11c3.63,1.08,8.14,2.43,12.08-1.51A1.49,1.49,0,0,0,491,506.92Z" transform="translate(0 -0.08)"/><path class="cls-3" d="M595.83,322.45a1.49,1.49,0,0,1,0,2.12c-3.94,3.94-8.45,2.59-12.07,1.51-3.23-1-5.29-1.47-6.87.11a1.51,1.51,0,0,1-2.12,0,1.49,1.49,0,0,1,0-2.12c2.92-2.93,6.6-1.83,9.84-.86,3.45,1,6.43,1.92,9.1-.76A1.51,1.51,0,0,1,595.83,322.45Z" transform="translate(0 -0.08)"/><path class="cls-3" d="M575.27,343a1.49,1.49,0,0,1,0,2.12c-3.94,3.94-8.45,2.59-12.07,1.51-3.23-1-5.29-1.48-6.87.1a1.5,1.5,0,1,1-2.12-2.12c2.93-2.92,6.6-1.83,9.85-.86,3.44,1,6.42,1.92,9.09-.75A1.49,1.49,0,0,1,575.27,343Z" transform="translate(0 -0.08)"/><path class="cls-3" d="M576.89,324.07a1.51,1.51,0,0,1,0,2.12c-1.58,1.58-1.07,3.64-.11,6.86,1.08,3.63,2.43,8.14-1.51,12.08a1.49,1.49,0,0,1-2.12,0,1.51,1.51,0,0,1,0-2.12c2.68-2.67,1.79-5.65.76-9.1-1-3.24-2.07-6.92.86-9.84A1.49,1.49,0,0,1,576.89,324.07Z" transform="translate(0 -0.08)"/><path class="cls-8" d="M553.66,364.63" transform="translate(0 -0.08)"/><path class="cls-3" d="M556.33,344.62a1.49,1.49,0,0,1,0,2.12c-1.58,1.59-1.07,3.64-.11,6.87,1.09,3.63,2.44,8.14-1.5,12.08a1.5,1.5,0,1,1-2.13-2.12c2.68-2.68,1.79-5.65.76-9.1-1-3.24-2.07-6.92.86-9.85A1.51,1.51,0,0,1,556.33,344.62Z" transform="translate(0 -0.08)"/><path class="cls-6" d="M84.26,581.51a1.53,1.53,0,0,1,1.07.44,1.51,1.51,0,0,1,0,2.12L60,609.44a1.51,1.51,0,0,1-2.12,0,1.49,1.49,0,0,1,0-2.12L83.2,582A1.53,1.53,0,0,1,84.26,581.51Z" transform="translate(0 -0.08)"/><path class="cls-1" d="M537.52,590.33a.51.51,0,0,1-.36-.15.49.49,0,0,1-.12-.48l10.83-40.53a.49.49,0,0,1,.35-.36.52.52,0,0,1,.48.13l29.69,29.64a.54.54,0,0,1,.13.49.53.53,0,0,1-.36.35l-40.51,10.89Zm11.09-40.07-5.19,19.43h0l-5.19,19.43,38.84-10.44Z" transform="translate(0 -0.08)"/><path class="cls-1" d="M228.38,523.84a.49.49,0,0,1,.37.06.5.5,0,0,1,.25.44l-.74,41.95a.48.48,0,0,1-.26.42.5.5,0,0,1-.5,0l-35.95-21.62a.48.48,0,0,1-.25-.43.54.54,0,0,1,.26-.43l36.69-20.34Zm-1.11,41.56.36-20.1h0l.35-20.11L192.8,544.68Z" transform="translate(0 -0.08)"/><path class="cls-1" d="M353.54,602.62A16.41,16.41,0,1,1,370,586.21,16.43,16.43,0,0,1,353.54,602.62Zm0-31.82A15.41,15.41,0,1,0,369,586.21,15.43,15.43,0,0,0,353.54,570.8Z" transform="translate(0 -0.08)"/><path class="cls-1" d="M328,485H296.35a.5.5,0,0,1-.5-.5V452.8a.5.5,0,0,1,.5-.5H328a.5.5,0,0,1,.5.5v31.66A.5.5,0,0,1,328,485Zm-31.15-1H327.5V453.3H296.85Z" transform="translate(0 -0.08)"/><path class="cls-1" d="M459.19,517.37a19.53,19.53,0,0,1-5.52-1.09c-3.1-.93-5.78-1.73-7.86.36a.5.5,0,0,1-.71-.71c2.51-2.51,5.74-1.54,8.86-.61,3.43,1,7,2.09,10.09-1a.49.49,0,0,1,.7.7A7.51,7.51,0,0,1,459.19,517.37Z" transform="translate(0 -0.08)"/><path class="cls-1" d="M438.63,537.92a19.87,19.87,0,0,1-5.52-1.08c-3.1-.93-5.77-1.73-7.86.35a.49.49,0,1,1-.7-.7c2.5-2.51,5.73-1.54,8.85-.61,3.44,1,7,2.09,10.09-1a.5.5,0,1,1,.71.71A7.52,7.52,0,0,1,438.63,537.92Z" transform="translate(0 -0.08)"/><path class="cls-1" d="M443.84,535.73a.49.49,0,0,1-.35-.15.5.5,0,0,1,0-.71c3.09-3.09,2-6.65,1-10.09-.94-3.12-1.9-6.35.6-8.85a.5.5,0,0,1,.71,0,.51.51,0,0,1,0,.71c-2.08,2.08-1.28,4.76-.36,7.86,1.06,3.54,2.26,7.56-1.25,11.08A.51.51,0,0,1,443.84,535.73Z" transform="translate(0 -0.08)"/><path class="cls-7" d="M423.29,555.78" transform="translate(0 -0.08)"/><path class="cls-1" d="M423.29,556.28a.54.54,0,0,1-.36-.14.51.51,0,0,1,0-.71c3.1-3.1,2-6.65,1-10.09-.93-3.12-1.9-6.35.61-8.85a.49.49,0,0,1,.7.7c-2.08,2.09-1.28,4.76-.35,7.86,1.06,3.55,2.26,7.57-1.26,11.09A.54.54,0,0,1,423.29,556.28Z" transform="translate(0 -0.08)"/><path class="cls-1" d="M582.87,300.63a19.67,19.67,0,0,1-5.52-1.09c-3.1-.92-5.77-1.72-7.86.36a.5.5,0,0,1-.7,0,.5.5,0,0,1,0-.71c2.5-2.5,5.73-1.54,8.85-.61,3.44,1,7,2.09,10.09-1a.5.5,0,0,1,.71,0,.51.51,0,0,1,0,.71A7.52,7.52,0,0,1,582.87,300.63Z" transform="translate(0 -0.08)"/><path class="cls-1" d="M562.31,321.19a19.53,19.53,0,0,1-5.51-1.09c-3.1-.93-5.78-1.73-7.86.36a.51.51,0,0,1-.71,0,.5.5,0,0,1,0-.71c2.51-2.51,5.73-1.54,8.85-.61,3.44,1,7,2.09,10.09-1a.5.5,0,0,1,.71,0,.5.5,0,0,1,0,.7A7.53,7.53,0,0,1,562.31,321.19Z" transform="translate(0 -0.08)"/><path class="cls-1" d="M567.53,319a.51.51,0,0,1-.36-.15.5.5,0,0,1,0-.7c3.1-3.1,2-6.66,1-10.09-.93-3.12-1.9-6.35.61-8.86a.5.5,0,0,1,.7,0,.5.5,0,0,1,0,.71c-2.08,2.08-1.28,4.76-.35,7.86,1.06,3.55,2.26,7.57-1.26,11.08A.5.5,0,0,1,567.53,319Z" transform="translate(0 -0.08)"/><path class="cls-7" d="M547,339.05" transform="translate(0 -0.08)"/><path class="cls-1" d="M547,339.55a.47.47,0,0,1-.35-.15.5.5,0,0,1,0-.71c3.09-3.09,2-6.65,1-10.09-.93-3.12-1.9-6.35.61-8.85a.5.5,0,0,1,.71,0,.51.51,0,0,1,0,.71c-2.09,2.08-1.29,4.76-.36,7.86,1.06,3.54,2.26,7.56-1.26,11.08A.49.49,0,0,1,547,339.55Z" transform="translate(0 -0.08)"/><path class="cls-1" d="M36.09,595.52a.51.51,0,0,1-.36-.15.51.51,0,0,1,0-.71L61.09,569.3a.5.5,0,0,1,.71.71L36.44,595.37A.5.5,0,0,1,36.09,595.52Z" transform="translate(0 -0.08)"/><path class="cls-5" d="M151.22,586.55a7.94,7.94,0,0,1,1.74.2,7.77,7.77,0,1,1-5.86,1h0A7.77,7.77,0,0,1,151.22,586.55Zm0,12.54a4.79,4.79,0,0,0,4.63-3.71,4.77,4.77,0,0,0-7.18-5.1h0a4.77,4.77,0,0,0,2.55,8.81Z" transform="translate(0 -0.08)"/><path class="cls-5" d="M413.06,465.49a7.85,7.85,0,0,1,1.73.2,7.76,7.76,0,1,1-8.29,11.7,7.77,7.77,0,0,1,2.43-10.7h0A7.83,7.83,0,0,1,413.06,465.49Zm0,12.54a4.79,4.79,0,0,0,4.64-3.71,4.75,4.75,0,0,0-.62-3.6,4.69,4.69,0,0,0-3-2.11,4.79,4.79,0,0,0-3.6.61h0a4.78,4.78,0,0,0,1.48,8.69A4.94,4.94,0,0,0,413.08,478Z" transform="translate(0 -0.08)"/><path class="cls-3" d="M77.91,501.22a7.93,7.93,0,0,1-1.74-.19A7.76,7.76,0,1,1,82,500h0A7.73,7.73,0,0,1,77.91,501.22Zm0-12.53a4.76,4.76,0,0,0-4,7.3,4.76,4.76,0,0,0,8.68-1.48,4.76,4.76,0,0,0-3.59-5.7A4.88,4.88,0,0,0,77.88,488.69Z" transform="translate(0 -0.08)"/><rect class="cls-9" width="637.74" height="637.74"/></svg>