<svg xmlns="http://www.w3.org/2000/svg" viewBox="0 0 400 400"><title>ceruza</title><g style="isolation:isolate"><rect width="400" height="400" fill="#dd708c"/><path d="M177.18,86.62c-3-8.8-13.22-9.3-18.44-2.41-6.8,9-6.44,25.9-6.65,36.56-.2,10.21,2.83,17.15,10.76,21A11.38,11.38,0,0,0,176,143.34a11.17,11.17,0,0,0,5.85-10.65C185.22,117.81,181.9,100.52,177.18,86.62Z" transform="translate(0 0)" fill="#e4cbb9"/><path d="M229.88,103.93c-1.19-10.05-6.92-22.58-18.11-24.1-27.4-3.74-15.91,43-10.58,56.09a10.41,10.41,0,0,0,4.91,5.48,8.72,8.72,0,0,0,8.25,2.83c3.26.4,6.55-.93,8.5-4.82,3.81-4.11,4.71-9.88,5.63-16.55a11.11,11.11,0,0,0-.21-4.18A36.91,36.91,0,0,0,229.88,103.93Z" transform="translate(0 0)" fill="#e4cbb9"/><path d="M278.09,159.62a14.73,14.73,0,0,0,2.31-4.51c1.89-5.89-1.52-10.16-6-11.71a9.52,9.52,0,0,0-2.69-5.59c5.71-5.74,5.59-16.31,4.53-24.94A39.47,39.47,0,0,0,275,98.07a9.75,9.75,0,0,0,.82-3.89v-.72a10.42,10.42,0,0,0-3-7.14,10.21,10.21,0,0,0-7.13-2.95,12.36,12.36,0,0,0-2.55.37c-5.77-3-12.64-3.48-18.3.75-4.76,3.54-6.51,9-5.43,14.86a114.55,114.55,0,0,1,1.89,17.33,51.22,51.22,0,0,0,9.08,27,59.06,59.06,0,0,0-12.74-.21c-1.89-.2-3.79-.4-5.68-.58-7.92-.72-14.15,1.08-20.71,3.24a9.82,9.82,0,0,0-9.71-3.13c-5.63,1.17-10.54-.07-16.09,0s-10.73,2.05-16.2,2.86c-.29,0-.58.07-.86.11a45.42,45.42,0,0,0-14.78-3.55c-5.71-.25-10.8.54-16.44-.79a10.4,10.4,0,0,0-5.48.27c-.08-.34-.16-.69-.27-1-1.16-13.06-2-27-7.39-38.72C119.13,91.6,108.37,78,95.35,81.42a10.29,10.29,0,0,0-7.41,9.74c.25,23.28-1.22,47.35,1.33,70.51C91.07,178,97,193.21,103.79,208a7.87,7.87,0,0,1,4.69,3.75,8,8,0,0,1,2.16,1.57c2.71,2.87,5.55,5.53,8.28,8.29a26.59,26.59,0,0,1,2.43,2,11.52,11.52,0,0,0,2.11-1.3c2.29,3.11,4.79,6.22,7.33,9.38,2.54,4.35,5,8.77,7.36,13.23,1.06,6.94,2.89,15.07,6.1,21.59q-.88,2.76-1.71,5.5a9.32,9.32,0,0,1,2,5.64v6.75c2.14,12.75,1.78,25.38,1.11,38.15a9.51,9.51,0,0,1,.32,2.85c-.08,2.25-.11,4.49-.16,6.74,18.62.12,37.19,2.12,55.83,2.85q16.23,0,32.47-.13l.81-.09a9.38,9.38,0,0,1,2.87.06h2.09c-.1-6.44-.18-12.87-.41-19.28-.28-7.61-1.31-15.53-.88-23.14a63.48,63.48,0,0,1,1.37-9.22c0-1,0-2,0-2.95a53.25,53.25,0,0,1,3.16-17.45c.75-6.49,1.9-12.51,5.85-18.3-.07-1.42-.13-2.84-.2-4.26v0a73.12,73.12,0,0,0,11.84-10.38,8.75,8.75,0,0,1,2.58-5.68c13.6-14.22,13.26-35.92,17-54.11a9.5,9.5,0,0,1,1.11-2.92A31.33,31.33,0,0,0,278.09,159.62Z" transform="translate(0 0)" fill="#e4cbb9"/><path d="M371.77,114.57a13.41,13.41,0,0,0-4.6-10.24c-1.86-1.67-5.64-2.75-6.69-3.32a27,27,0,0,0-5.74-2.85,6.17,6.17,0,0,0-3.6-1.07,5.82,5.82,0,0,0-5.43,3.19,35.25,35.25,0,0,0-3.78,3.15,7.48,7.48,0,0,0-.74.86c-8,.28-7.93,12.82.25,12.82a7,7,0,0,0,.49.59c1.78,1.74,5.41,5.84,8,6.63a19.91,19.91,0,0,1-1.44,2.41,7.14,7.14,0,0,0-1.15,2.33,20.33,20.33,0,0,0-4.33,4.54,6.46,6.46,0,0,0-.65,4.94,6.43,6.43,0,0,0,7.9,4.49,6.84,6.84,0,0,0,3-1.92c4.8,2.1,9.62-.14,12.66-4.19a21.65,21.65,0,0,0,4.27-16.65A9.47,9.47,0,0,0,371.77,114.57Z" transform="translate(0 0)" fill="#e4cbb9"/><path d="M85.89,137.59c.14-3.12-1.17-6-2-9.4a40.88,40.88,0,0,1-1-12.83A9.26,9.26,0,0,0,85,109.61v-.36a9.17,9.17,0,0,0-9.17-9.17,9.3,9.3,0,0,0-6.49,2.69,1.71,1.71,0,0,0-.11.14l-32.35-.84c-7.58-.2-11.36,8.78-7.43,14.5a10,10,0,0,0-.78,3.12c-.36,4,2,7.9,1.9,11.45-.17,4.46-2.84,7.28.08,11.93,5.21,8.32,19.61,4.87,27.59,4.66,6-.15,15.65,1.42,21.89-1.57a5.51,5.51,0,0,0,1.44.19C86.57,146.35,88,140.8,85.89,137.59Z" transform="translate(0 0)" fill="#42799b"/><path d="M347.16,126.16a5.79,5.79,0,0,0-6.75-5.22c-.58-.39-1.19-.77-1.82-1.12a5.31,5.31,0,0,0-.65-1.86,23.46,23.46,0,0,0-3.91-5,9.59,9.59,0,0,0,.07-3.66c1-.33,2-.67,3-1.06,6.51-2.59,3.67-13.24-2.92-10.62a45.88,45.88,0,0,1-18.55,3.34,5.29,5.29,0,0,0-2.79.67c-8.94-.18-17.86-.72-26.78-1.69-7.66-.84-10.42,8.23-7.92,13.8.67,1.48,1.29,3,1.9,4.47a7.32,7.32,0,0,0-2.81,6c-3.69,2.18-4.37,6.12-3.16,9.62a5,5,0,0,0-1.27,3.46,5.59,5.59,0,0,0,5.5,5.5h1.8a5.7,5.7,0,0,0,4.11-1.91c8.47.37,16.95.86,25.43,1,4.84.07,10.11.14,14.74-1.46a5.08,5.08,0,0,0,2.79,1.63c3.64.87,7.23,1.09,10.46-1.1,2.8-1.9,4.17-5.23,5.28-8.35A5.74,5.74,0,0,0,347.16,126.16Z" transform="translate(0 0)" fill="#42799b"/><path d="M196.21,132.22c-.91-9-1.75-18-2.91-26.92-.89-6.93-11.91-7-11,0,1.29,9.91,2.17,19.87,3.2,29.8a5.63,5.63,0,0,0,3.7,4.8,5,5,0,0,0,4.71,2.86C200.1,142.76,200.88,134.31,196.21,132.22Z" transform="translate(0 0)" fill="#42799b"/><path d="M151.22,129.86a4.47,4.47,0,0,0,1.87-2.91,8.59,8.59,0,0,0-.19-5.07c-.08-.2-.17-.37-.26-.55a83.88,83.88,0,0,1-1-12.79c0-.13,0-.24,0-.36A4.7,4.7,0,0,0,152,106c-.12-2.8-2.43-5.74-5.5-5.51a23.68,23.68,0,0,1-2.66.06l-.76,0q-.43-.06-.87-.15a6.49,6.49,0,0,0-4.81,1,5.06,5.06,0,0,0-3.82-1.57c-6.09,0-6.94,8.12-2.56,10.4a80.58,80.58,0,0,1,1.34,11.88,12.66,12.66,0,0,0,1.66,6,19.07,19.07,0,0,0-.91,2.83c-2.28,9.91,8.41,9,14.89,9C153.79,139.87,154.86,132.56,151.22,129.86Z" transform="translate(0 0)" fill="#42799b"/><path d="M244.62,131.25a5.58,5.58,0,0,0-3.29-2.53,6.51,6.51,0,0,0-1.09-.16c0-.21,0-.42.06-.64a4.94,4.94,0,0,0,.57-2.86,176.44,176.44,0,0,1-.53-18c.15-7.09-10.86-7.09-11,0q-.18,8.46.46,16.88a5.53,5.53,0,0,0-.36,1.79,39.65,39.65,0,0,1-1.53,9.61c-1.57,5.52,5.06,8.47,8.68,5.81a4.7,4.7,0,0,0,1.43.65,5.6,5.6,0,0,0,4.24-.55,5.35,5.35,0,0,0,2.53-3.29c.13-.84.27-1.67.4-2.51A6,6,0,0,0,244.62,131.25Z" transform="translate(0 0)" fill="#42799b"/><path d="M389.27,115.43a5.76,5.76,0,0,0-6.22-2.52,5.49,5.49,0,0,0-6.14-2.49,5.61,5.61,0,0,0-3.84,6.78c.07.21.12.42.17.64s.05.25.05.22c0,.29,0,.6,0,.76s0,.11,0,.16a1.31,1.31,0,0,0,0,.15c-.1.27-.53,1.54,0,.37-.95,2.2-1.08,4.89.86,6.67a5.63,5.63,0,0,0,6.67.86l6.57-4.06A5.6,5.6,0,0,0,389.27,115.43Z" transform="translate(0 0)" fill="#42799b"/><path d="M31.79,135.66a26.9,26.9,0,0,1-1.71-6.34c.12-.72.21-1.39.25-1.91l.73-9.73a8.21,8.21,0,0,0-1.35-5.45,9.44,9.44,0,0,0-.22-3.89C27,98.28,13,100.8,11.6,109.34c-1.84,4.3-1,8.24-.54,13.23.2,2.29.33,4.5.53,6.67-.52,9.21.7,19,11.35,18C28.16,146.79,34.26,141.69,31.79,135.66Z" transform="translate(0 0)" fill="#82cecd"/><path d="M83.2,130.94c-8.46-2.41-17.56.75-26.19,1.53-8,.72-16,1.12-24,2.15a13,13,0,0,0-.58-1.37c-4.37-8.75-4.76-18.15-4.23-27.74.29-5.24-7.12-6.85-9.62-2.61-6.76,11.47-7,25.11-3.65,37.73,2.6,9.67,14.42,8,17.81,1.28A95.77,95.77,0,0,0,57,147.8c9.37,1.16,19.59,2.92,28.19-1.56C91.74,142.84,89.87,132.85,83.2,130.94Z" transform="translate(0 0)" fill="#e0dfe6" style="mix-blend-mode:multiply"/><path d="M233.21,161.36q6.47.15,12.93.24c5.58,10.28,21.08,9.49,26.42-.14,12.56-.4,12.62-19.26,0-19.61a8.24,8.24,0,0,0-1.18-9.82c-2.92-2.92-8.49-3.28-11.36,0-.68.64-.72.76-.13.38a9.66,9.66,0,0,1-1.16.82c-.09,0-.51.22-.56.22a1,1,0,0,1-.75-.23A3.19,3.19,0,0,1,256.4,132c-2.5-4.36-8-3.06-9.8.54a7.5,7.5,0,0,0-2.54-2.63c-.67-.42-1.31-.88-2-1.3s-.64-.46-.28-.15l-.72-.62c-1.17-1-2.3-2.11-3.39-3.22-2.94-3-7.3.16-6.61,3.85a93.38,93.38,0,0,0,2.37,9.6,7.36,7.36,0,0,0,3.08,4.09q-6.83.19-13.66.43a26.64,26.64,0,0,0,2.78-1.88c3.22-2.52,2.64-8.06,0-10.7a7.7,7.7,0,0,0-10.71,0c-2.22,2-6.56,3-9.42.63-3.87-3.17-10.16.79-7.3,5.63a17.83,17.83,0,0,0,7.35,6.83c-3.22.08-6.45.14-9.67.19a8.51,8.51,0,0,0,1.86-7.14c-.88-5.54-2.2-10.48-2-16.17s-7.78-6.23-9.57-1.29A49,49,0,0,0,183,134.32a6.13,6.13,0,0,0-.34-1.16,6.37,6.37,0,0,0-9-3c-1.73,1-3.46,2.47-5.45,2.86-1.23.24-3.59.21-3.92-1.32-.62-2.81-4.93-1.62-4.32,1.19.73,3.33,2,6.34,5.1,8.06,4.07,2.23,9.14,2,13.49.84a6.25,6.25,0,0,0,4.51-5.15,34.43,34.43,0,0,0,.33,3.51,5.72,5.72,0,0,0,1.75,3.18,263.88,263.88,0,0,1-28.41-2c-5.91-.75-12.35-.9-16.93,2.46-.38-.35-.78-.69-1.15-1.05a3.46,3.46,0,0,0-5.4,4.17c.75,1.72,1.51,3.43,2.27,5.15.8,2,2.46,3.78,4.81,3.66,8.11-.39,15.93,2,23.91,3.26a11.07,11.07,0,0,0,5.13,8.46c6.32,4,15.47,1,18.59-5.65a10.83,10.83,0,0,0,.47-1.28c4.05.07,8.1.09,12.15.15,1.42,3.63,5.11,6.66,8.74,7.93,6.5,2.27,14,.14,20-2.69A7.94,7.94,0,0,0,233.21,161.36Zm11.59-19.54A7.18,7.18,0,0,0,247,139a13.7,13.7,0,0,0,1.69,2.88c-1.37,0-2.73,0-4.09.08Z" transform="translate(0 0)" fill="#e0dfe6" style="mix-blend-mode:multiply"/><path d="M390.15,123.15a7.37,7.37,0,0,0-2.74-10,7.34,7.34,0,0,0-3.15-1l-1.78-.36c-.62-.13-1.24-.25-1.88-.34a9.78,9.78,0,0,0-2.85.18,4.65,4.65,0,0,0-2.81,2.16,5.33,5.33,0,0,0-.47,3.62c.38,2.18,1.92,3.87,2.82,5.83a6.6,6.6,0,0,0,3.88,3.21q-8.61,6.89-16.49,14.54c-6.76-.58-13.91.19-21,1.16a17.11,17.11,0,0,0,2-.86c9.07-4.63,2.46-17.39-6.58-15.61s-19.46.26-28.63.67-18.53.88-27.5,3c-4.88,1.13-4.73,8.51,0,9.73,10.59,2.73,21.85,3.3,32.73,3.95,4.52.26,9.59.9,14.6,1-1.3.16-2.6.29-3.89.4-9.58.82-19.07,1.53-28.4,3.54a7.23,7.23,0,0,0-10.52.2,2.76,2.76,0,0,0-1.24,1.87c-.07.36-.12.72-.19,1.08a7.84,7.84,0,0,0-.19,1.18c-2.58,15.23-4.17,31.61-9.37,46.38,1.06-8.26.83-16.88.8-25.45,0-2.2-3.52-2.83-4-.54a112.51,112.51,0,0,1-9.5,29.48c-5.37,10.8-13.39,15.05-22.3,22.39-17.1,14.11-19.14,40.15-13.37,60.22,0,.16.12.3.18.46,0,.65,0,1.31,0,2-1.28,11.55-1.11,23.55-.76,35.06q-.34,6.07-.56,12.16c2.82.16,5.64.36,8.45.63,2.11-.33,4.22-.68,6.33-1a11.39,11.39,0,0,1,1.24-1c.46-.31.95-.62,1.45-.93,1.23-1.81,2.55-3.57,3.69-5.59A16,16,0,0,0,250,321c-1-19.27-1.7-40.78,7.25-57,9.12-16.56,23.88-29.06,31-46.91,6.75-17,8.3-36.89,6.27-55.41,10.85,3.43,22.22,4.09,33.65,3.89,12.52-.23,27.58.33,39.37-4.1,6.54-2.45,8.51-8.76,6.6-13.73A223.6,223.6,0,0,1,390.53,129C392.23,127.23,391.64,124.59,390.15,123.15Z" transform="translate(0 0)" fill="#e0dfe6" style="mix-blend-mode:multiply"/><path d="M178.47,180c-1.62-1.37-4.79-.4-4.68,1.78a.41.41,0,0,1-.07-.11c-9.33-12.86-24.12-14-35.58-23.59a2,2,0,0,0-3.36,1.95c1.85,12.3,15.52,17,21.58,26.74,8.71,14,6.2,30.5,8.83,46,1.11,6.58,6.38,8.15,11.17,6.63,3.56,6,14.63,6.65,17.68-2.07C201,217.36,194.55,193.58,178.47,180Z" transform="translate(0 0)" fill="#e0dfe6" style="mix-blend-mode:multiply"/><path d="M138.48,248.73c6.1,18.11,4,35.68,4.1,54.34,0,7.16,11.71,9.31,13,1.75,3.36-20.3-4.74-39.77-14.44-57.19C140.32,246.23,138,247.17,138.48,248.73Z" transform="translate(0 0)" fill="#e0dfe6" style="mix-blend-mode:multiply"/><path d="M143.85,331.92l.16.06c1.51.06,3,.13,4.53.13.28,0,.54.06.81.08q0-3.42,0-6.84c0-79-16.46-94.7-32.37-109.92-14.75-14.1-28.68-27.42-28.68-94.49,0-11.15.37-22.37.74-31.88a6.34,6.34,0,0,1,7.29-6C108.16,84.82,117.27,91,123,100.42a2.74,2.74,0,0,1,2.67-2.72l2,0c-6.53-10.86-17-18-30.42-20.06A11.86,11.86,0,0,0,83.56,88.85c-.12,3-.23,6.24-.34,9.55l2.58-.09a2.75,2.75,0,0,1,.19,5.5l-2.93.1c-.14,5.53-.24,11.29-.24,17,0,69.42,15.44,84.19,30.37,98.47,15.08,14.42,30.67,29.33,30.67,105.94Q143.86,328.62,143.85,331.92Z" transform="translate(0 0)" fill="#444471"/><path d="M129.42,140.2a2.75,2.75,0,0,1,2.75-2.74l2.73,0c0-.73,0-1.48.07-2.2.09-2.51.19-5.1.19-7.68a61,61,0,0,0-4.78-24.52l-4.61.11a2.72,2.72,0,0,1-1.52-.42c3.51,6.85,5.4,15.22,5.4,24.83,0,2.48-.09,5-.18,7.48s-.18,5.08-.18,7.63c0,17.8,10,21.47,19.7,25,13.36,4.9,28.51,10.45,28.51,54,0,6.55-.33,13-.65,19.21l0,.77a2.75,2.75,0,0,0,5.5.28l0-.77c.32-6.29.65-12.8.65-19.49,0-47.36-17.8-53.89-32.12-59.14-9.62-3.53-16-5.89-16.08-19.58l-2.65,0A2.75,2.75,0,0,1,129.42,140.2Z" transform="translate(0 0)" fill="#444471"/><path d="M155.58,100.68a2.76,2.76,0,0,0,.06-.4Z" transform="translate(0 0)" fill="#525d7d"/><path d="M125.77,103.2l4.61-.11c6.91-.16,13.3-.26,19.37-.29.21-1.83.46-3.68.78-5.51h-.16c-7.06,0-14.55.15-22.77.36l-2,0a2.74,2.74,0,0,0-2.67,2.72s0,.07,0,.1a2.77,2.77,0,0,0,2.82,2.68Z" transform="translate(0 0)" fill="#444471"/><path d="M179.84,101l0,.12Z" transform="translate(0 0)" fill="#525d7d"/><path d="M190.39,103.58c0-.83,0-1.6,0-2.28,0-1,0-2.09,0-3.22l-5.6-.2c.39,1.81.74,3.68,1,5.55Z" transform="translate(0 0)" fill="#444471"/><path d="M237.13,104.16c0-1.15-.1-2.31-.1-3.45,0-.57,0-1.27,0-2l-4.55,0c.28,1.74.49,3.57.61,5.5Z" transform="translate(0 0)" fill="#444471"/><path d="M340.1,100.19c1.63-1.7,3.31-3.42,5.12-5.2a2.75,2.75,0,1,1,3.87,3.91l-.71.71,4.23-.32c4.88,3.08,10.49,6.49,16.57,9.83.11-.67.22-1.34.35-2a2.76,2.76,0,0,1,3.25-2.14,2.73,2.73,0,0,1,2.14,3.24c-.24,1.2-.42,2.43-.58,3.66,3.93,2,8,4,12.21,5.78q-6.32,4.14-12,8.32c.2,1.42.45,2.83.77,4.23a2.76,2.76,0,0,1-2.07,3.3,2.68,2.68,0,0,1-.62.07,2.76,2.76,0,0,1-2.68-2.14c-.13-.59-.23-1.17-.35-1.76q-7,5.4-13.23,10.93l-7.68.05H343.6c-.84,1.39-1.69,2.78-2.52,4.18a2.75,2.75,0,0,1-2.35,1.34c3.36,0,6.69,0,10,0l8.74-.05a2.79,2.79,0,0,0,1.82-.71,255.78,255.78,0,0,1,34.73-26,2.75,2.75,0,0,0-.49-4.89c-14.67-5.61-28.39-13.82-38.71-20.36a2.78,2.78,0,0,0-1.68-.42c-26,2-54.38,3.25-74.46,3.92.35,1.81.64,3.66.89,5.48C296.17,102.56,318.34,101.64,340.1,100.19Z" transform="translate(0 0)" fill="#444471"/><path d="M278.78,140.12l-3.76-.06a27.53,27.53,0,0,1-3,3.86,2.76,2.76,0,0,0,2.46,1.64l3.21.05c0-1.16.09-2.29.13-3.48A2.77,2.77,0,0,1,278.78,140.12Z" transform="translate(0 0)" fill="#444471"/><path d="M336.35,142l.82-1.35c-16.48,0-34.29-.16-54.79-.49a2.75,2.75,0,0,1,.91,2.13c0,1.16-.09,2.26-.13,3.39,20.21.32,37.8.48,54.11.48h1.43a2.81,2.81,0,0,1-1.39-.39A2.75,2.75,0,0,1,336.35,142Z" transform="translate(0 0)" fill="#444471"/><path d="M273.64,101.1v0Z" transform="translate(0 0)" fill="#525d7d"/><path d="M229.08,139.13a16.86,16.86,0,0,1-3.16,4.55,2.73,2.73,0,0,0,2,.93l16.13.35a2.75,2.75,0,0,0,2.35-1.24,32.18,32.18,0,0,1-3-4.28Z" transform="translate(0 0)" fill="#444471"/><path d="M186.7,138.24a15.31,15.31,0,0,1-2.87,5.21,2.74,2.74,0,0,0,1.11.26l12.55.25a2.8,2.8,0,0,0,2.32-1.18,23.36,23.36,0,0,1-3.08-4.34Z" transform="translate(0 0)" fill="#444471"/><path d="M134.9,137.49l-2.71,0a2.76,2.76,0,0,0,0,5.51l2.65,0q9.24.08,18.47.19a2.75,2.75,0,0,0,1.76-.62,19.91,19.91,0,0,1-3-4.9Q143.48,137.57,134.9,137.49Z" transform="translate(0 0)" fill="#444471"/><path d="M31.63,149.67h-.17q7,0,14.3-.08l5.52-.06c9.25-.1,18.67-.25,28.05-.49a2.76,2.76,0,0,0-.15-5.51c-15.26.4-30.67.56-45.19.63.06.85.11,1.71.17,2.56A2.75,2.75,0,0,1,31.63,149.67Z" transform="translate(0 0)" fill="#444471"/><path d="M88.64,101a2.74,2.74,0,0,0-2.84-2.66l-2.58.09c-11.29.39-23.41.8-35.81,1-1.84,0-3.67.08-5.51.1-5.41.09-10.85.14-16.27.14q-6.91,0-13.84-.11A2.78,2.78,0,0,0,9,102.23c-.13,4.21-.2,8.38-.2,12.39a302,302,0,0,0,1.66,32.63,2.75,2.75,0,0,0,2.74,2.46c5.82,0,11.94,0,18.22,0a2.74,2.74,0,0,1-2.73-2.54c-.08-1-.14-2-.21-2.95l-12.8,0c-.92-9.43-1.38-19.13-1.38-29.59,0-3.09.05-6.28.13-9.51,3.74,0,7.47.08,11.21.08h.79l-.12-2.62a2.75,2.75,0,0,1,5.5-.26l.13,2.86c4.35,0,8.7-.09,13-.17,13.23-.24,26.14-.66,38.11-1.08l2.93-.1A2.74,2.74,0,0,0,88.64,101Z" transform="translate(0 0)" fill="#444471"/><path d="M28.92,99.68a2.75,2.75,0,0,0-2.62,2.88l.12,2.62.27,6c.49,10.83,1,22,1.78,33,.07,1,.13,2,.21,2.95a2.74,2.74,0,0,0,2.73,2.54h.22a2.75,2.75,0,0,0,2.53-2.95c-.06-.85-.11-1.71-.17-2.56-.79-11.08-1.31-22.34-1.8-33.26l-.26-5.74-.13-2.86A2.78,2.78,0,0,0,28.92,99.68Z" transform="translate(0 0)" fill="#444471"/><path d="M338.73,146.18a2.75,2.75,0,0,0,2.35-1.34c.83-1.4,1.68-2.79,2.52-4.18l.21-.33c3-4.91,6.08-10,8.62-15.27a2.68,2.68,0,0,0,.1-2.15,2.74,2.74,0,0,0-1.49-1.57c-4.85-2.09-9.21-5.09-13.82-8.26l-.92-.63c3.51-4,7.5-8.27,12.08-12.84l.71-.71A2.75,2.75,0,1,0,345.22,95c-1.81,1.78-3.49,3.5-5.12,5.2-3.72,3.86-7,7.51-10,11a2.75,2.75,0,0,0,.57,4c1.15.77,2.29,1.55,3.42,2.33a104.71,104.71,0,0,0,12.13,7.55c-2.18,4.19-4.69,8.3-7.12,12.3-.65,1.07-1.3,2.14-1.94,3.21l-.82,1.35a2.75,2.75,0,0,0,1,3.77A2.83,2.83,0,0,0,338.73,146.18Z" transform="translate(0 0)" fill="#444471"/><path d="M369.57,129.67c.12.59.22,1.17.35,1.76a2.76,2.76,0,0,0,2.68,2.14,2.68,2.68,0,0,0,.62-.07,2.76,2.76,0,0,0,2.07-3.3c-.32-1.4-.57-2.81-.77-4.23a53,53,0,0,1-.59-7.75,51.43,51.43,0,0,1,.41-6.35c.16-1.23.34-2.46.58-3.66a2.73,2.73,0,0,0-2.14-3.24,2.76,2.76,0,0,0-3.25,2.14c-.13.67-.24,1.34-.35,2a56,56,0,0,0-.75,9.1A59.67,59.67,0,0,0,369.57,129.67Z" transform="translate(0 0)" fill="#444471"/><path d="M188.19,126.31a214.15,214.15,0,0,0-2.34-22.88c-.3-1.87-.65-3.74-1-5.55-1.07-5-2.45-9.55-4.25-12.54a19.77,19.77,0,0,0-11-8.67,13.68,13.68,0,0,0-3.94-.62c-8.94,0-13.12,10.29-15.05,21.24-.32,1.83-.57,3.68-.78,5.51a133.35,133.35,0,0,0-.78,14.66c0,7.23.57,14.5,3.07,20.21a19.91,19.91,0,0,0,3,4.9c3.15,3.68,7.87,6,14.94,6,6.85,0,11.16-2,13.86-5.11a15.31,15.31,0,0,0,2.87-5.21A38.09,38.09,0,0,0,188.19,126.31ZM170,143.05c-11.3,0-15.5-6.93-15.5-25.59a119.91,119.91,0,0,1,1.11-16.78l.06-.4c1.58-10.67,4.81-18.72,9.94-18.72a7.8,7.8,0,0,1,2.33.38,14.18,14.18,0,0,1,7.93,6.23c1.67,2.78,3,7.55,4,12.81l0,.12a181.56,181.56,0,0,1,2.82,25.21C182.69,139.3,179.84,143.05,170,143.05Z" transform="translate(0 0)" fill="#444471"/><path d="M229.08,139.13c3-6.15,4.18-15.88,4.18-30.55,0-1.51-.06-3-.15-4.38-.12-1.93-.33-3.76-.61-5.5C230.09,84,222,75.79,209.49,75.79q-1.52,0-3,.09c-14.37.8-15.94,13-16.11,22.2,0,1.13,0,2.22,0,3.22,0,.68,0,1.45,0,2.28,0,8.58.56,24.53,6.34,34.86a23.36,23.36,0,0,0,3.08,4.34,15.94,15.94,0,0,0,12.29,5.42c6.08,0,10.57-1.3,13.82-4.52A16.86,16.86,0,0,0,229.08,139.13Zm-17,3.56c-10.91,0-16.21-13.53-16.21-41.39,0-12.81,1.69-19.41,10.93-19.93.87,0,1.77-.08,2.67-.08,8.34,0,18.27,4.74,18.27,27.29C227.76,141.05,221.81,142.69,212.1,142.69Z" transform="translate(0 0)" fill="#444471"/><path d="M280.86,118.06c0-.14-.26-7.17-1.33-14.93-.25-1.82-.54-3.67-.89-5.48-1.26-6.67-3.2-12.83-6.17-14.61-5.16-3.09-10.05-3.35-14.78-3.61-.89,0-1.79-.09-2.7-.16-16.15-1.21-17.78,12.55-17.94,19.39,0,.78,0,1.48,0,2,0,1.14.05,2.3.1,3.45.08,2.27.21,4.54.36,6.76.21,3,.41,5.85.41,8.34,0,1.11-.08,2.46-.11,3,0,.25,0,.41,0,.45,0,2.48,1.67,10.08,5.59,16.69a32.18,32.18,0,0,0,3,4.28c3.3,3.87,7.64,6.69,13.21,6.69,3.43,0,8.21-2.06,12.38-6.49a27.53,27.53,0,0,0,3-3.86C278.41,134.89,280.86,127.67,280.86,118.06ZM259.61,144.9c-11.78,0-16.31-20.44-16.33-22.07v-.24c0-.64.11-2.12.11-3.33,0-2.68-.2-5.61-.41-8.71-.23-3.27-.46-6.64-.46-9.84,0-11.52,2.95-16,10.51-16,.49,0,1,0,1.54.06.95.07,1.88.12,2.82.17,4.43.24,8.25.44,12.22,2.82,1.47,1.07,2.94,6.86,4,13.35a118,118,0,0,1,1.72,17C275.36,138.3,263.65,144.9,259.61,144.9Z" transform="translate(0 0)" fill="#444471"/><path d="M282.38,140.18a2.73,2.73,0,0,0-1.75-.71,2.78,2.78,0,0,0-2.84,2.66c0,1.19-.09,2.32-.13,3.48-2.46,63.51-12.45,73.32-22.11,82.78-10.74,10.5-20.89,20.42-20.89,89.74,0,1.85.1,8.24.33,16.7l3.61.05a8.22,8.22,0,0,1,1.87-.63c-.2-7.16-.3-13-.3-16.12,0-67,9.34-76.14,19.22-85.81,10.45-10.21,21.23-20.8,23.77-86.62,0-1.13.09-2.23.13-3.39A2.75,2.75,0,0,0,282.38,140.18Z" transform="translate(0 0)" fill="#444471"/></g></svg>