<svg xmlns="http://www.w3.org/2000/svg" xmlns:xlink="http://www.w3.org/1999/xlink" viewBox="0 0 711.39 684"><defs><style>.cls-1,.cls-16{fill:none;}.cls-2{isolation:isolate;}.cls-3{fill:#444471;}.cls-4{fill:#82cecd;}.cls-5{fill:#f5b6a3;}.cls-6{fill:#dd708d;}.cls-7{fill:#edbf2e;}.cls-8{clip-path:url(#clip-path);}.cls-9{fill:#e0dfe6;}.cls-13,.cls-15,.cls-9{mix-blend-mode:multiply;}.cls-10{fill:#42799b;}.cls-11{fill:#4e4f7d;}.cls-12{fill:#525d7d;}.cls-13{fill:#d3d3d3;opacity:0.76;}.cls-14,.cls-18{fill:#d9e6ed;}.cls-14,.cls-16{stroke:#4e4f7d;stroke-miterlimit:10;stroke-width:3px;}.cls-15{fill:#dbdbdb;}.cls-17{fill:#878c8e;}</style><clipPath id="clip-path" transform="translate(54.96 27.31)"><rect class="cls-1" width="637.74" height="637.82"/></clipPath></defs><title>ferde-bg</title><g class="cls-2"><g id="Réteg_13" data-name="Réteg 13"><rect class="cls-3" width="711.39" height="684"/></g><g id="Réteg_4" data-name="Réteg 4"><path class="cls-4" d="M172.68,429.06a15.26,15.26,0,0,0,.06-7.47c.67-2.31-.55-5.25-3.67-5.25a4.07,4.07,0,0,0-.62.06,16,16,0,0,0-3-.66,4,4,0,0,0-1-.8c-10.54-5.77-22.82-10.8-31.46-19.34a4,4,0,0,0-6.68,1.76,36.17,36.17,0,0,1-1.83,4.52,14.26,14.26,0,0,0-1.74,2.68,15.16,15.16,0,0,0-4.23,5.92c-2,2.17-4.15,4.23-5.94,6.59a3.73,3.73,0,0,0-.92,1.05,3.43,3.43,0,0,0-.27.58l-5.76.07c-3.54,0-7.67-.53-11.09.4A4,4,0,0,0,91.7,422c-.77,3.25,0,7.27.34,10.56.25,2.63,1.47,6.61,1.39,9.74-.56.78-1.09,1.59-1.59,2.45a4,4,0,0,0-.48,2.49c-2.63,1.75-4.66,5.46-5.5,7.91a3.36,3.36,0,0,0-.13,1.51,24.23,24.23,0,0,1-2.86,3.72,3.71,3.71,0,0,0-.76,4.32,4.73,4.73,0,0,0,1.51,3.81C85.26,470,87.68,470,90,470.14c1.2.93,2.33,2,3.52,2.93a11.34,11.34,0,0,0,1.1,1.09,21.16,21.16,0,0,0,5,3.08l0,0a17.9,17.9,0,0,0,7.15,5.15c.9.36,2.16.45,3,.82a1,1,0,0,1,.22.14c1.44,2.13,3.29,3.77,5.38,4a3.6,3.6,0,0,0,3.43,2.11,3.85,3.85,0,0,0,3.81-4.65c1.32-2.47,2.67-4.92,4.19-7.26l1.24-1a3.23,3.23,0,0,0,1.07-1.95,6,6,0,0,0,.55-.38c1.37-1.17,2.67-2.4,3.93-3.68a3.92,3.92,0,0,0,2.58-1.82c.53-.88,1-1.79,1.47-2.7q1.56-1.92,3-4c2.18.07,4.38.1,6.58,0a3.83,3.83,0,0,0,2.28-.85,16.09,16.09,0,0,0,5.59-.62,4.06,4.06,0,0,0,2.39-5.88l-.12-.23a4.1,4.1,0,0,0-3.79-2q.07-.89.18-1.68a5,5,0,0,0-.49-3.12A18.63,18.63,0,0,0,157,443a4.06,4.06,0,0,0,.5-2l.61-.4c2.4-1.5,4.69-2.65,6.31-5.05l1.86,0a3.66,3.66,0,0,0,1.75-.05l1.43-.05a4,4,0,0,0,3.22-6.32Z" transform="translate(54.96 27.31)"/></g><g id="Réteg_9" data-name="Réteg 9"><path class="cls-5" d="M587.44,447l-.3,0c-.29-3.43-4-5.91-7.43-5.92a13.56,13.56,0,0,0-1.22-.73l-.19-.12a18.22,18.22,0,0,0-3.92-3c-.32-.24-.63-.48-1-.71a2.79,2.79,0,0,0-1.49-.49c-.47-.19-.94-.37-1.43-.52a3.23,3.23,0,0,0-.83-.17,12.27,12.27,0,0,0-1.59-.51,9.42,9.42,0,0,0-3.06-.7,10.81,10.81,0,0,0,.12-1.49c2.16-5.14-.9-9.6-4.44-13.16a10.28,10.28,0,0,0-6.85-3,8.48,8.48,0,0,0-7.85.86,4,4,0,0,0-.38.32,13.16,13.16,0,0,0-5.78,3.93c-2.92,3.57-3.92,10.1-1.44,14.15s6,9.24,11.18,8.64a13.06,13.06,0,0,0,6-.06c.19.35.39.71.6,1.06,0,.14-.05.28-.07.42a8.69,8.69,0,0,0,.38,3.57c0,.08,0,.16.05.25a6.4,6.4,0,0,0,.37,2.26,20.3,20.3,0,0,0,2.06,4.21c.83,1.48,1.72,2.93,2.69,4.34l0,0,0,.06a6.61,6.61,0,0,0,3.68,4.54,3.72,3.72,0,0,0,.37,1.11,7.93,7.93,0,0,0,3.45,3.38,3.62,3.62,0,0,0,5.21-2.63,4.84,4.84,0,0,0,1-.57c1.82-1.42,2.05-3.68,3.3-5.48,1.92-2.78,4.8-4.57,7.1-7a3.55,3.55,0,0,0,4.06-2.47C590.34,449.68,589.32,447.31,587.44,447Z" transform="translate(54.96 27.31)"/></g><g id="Réteg_12" data-name="Réteg 12"><path class="cls-6" d="M602.31,413.1a9.82,9.82,0,0,0-4.9-.93,3.47,3.47,0,0,0-1-.9l0,0a10.63,10.63,0,0,0-1.14-.86,4.74,4.74,0,0,0-2.27-.65c-.37-3.08-1-6.13-4.47-7.14a3.61,3.61,0,0,0-1.23-.14,6.45,6.45,0,0,0-4.11-1.68,7.74,7.74,0,0,0-3.29.55,3,3,0,0,0-3.12.94,7,7,0,0,0-1.6,3.13,5.17,5.17,0,0,0-.39,1.41,16.48,16.48,0,0,0,1.06,7.28,3.5,3.5,0,0,0,1.24,1.74c1.28,1.95,3.53,3.35,5.77,2.67a3.29,3.29,0,0,0,2.41,0,3.16,3.16,0,0,0,.12,1.35l2,6.53a3.31,3.31,0,0,0,1.22,1.7l.21.62a3.66,3.66,0,0,0,1.48,1.91,3.35,3.35,0,0,0,5.34.7,24.48,24.48,0,0,0,5.69-8.13,15.12,15.12,0,0,1,1.75-.89,3.64,3.64,0,0,0,2.57-3.37A6.49,6.49,0,0,0,602.31,413.1Z" transform="translate(54.96 27.31)"/></g><g id="Réteg_11" data-name="Réteg 11"><path class="cls-7" d="M552.08,470.91c-2.3-2.68-5.68-5.28-8.75-4.87a3.53,3.53,0,0,0-1-.15c-.65-.65-1.26-1.26-1.87-1.78a17.6,17.6,0,0,0,0-1.93c-.11-3.37-.77-6.45-4.4-7.3-1.32-2.62-5.45-2.88-7.83-1.65a4.44,4.44,0,0,0-2.31,3.37,7.33,7.33,0,0,0-1.88,9.57c1.92,3.1,6.1,6.24,9.86,4.79a4.29,4.29,0,0,0,1.61-1.07c.17,0,.35,0,.51-.07l.15,0a3.24,3.24,0,0,0-.25.24c-3.3,4.28,1.75,11.16,4.11,14.76,2.2,3.35,7.24.92,6.55-2.32a2.82,2.82,0,0,0,1.13-.77,8.34,8.34,0,0,1,4.35-2.74,3.41,3.41,0,0,0,2.51-3.07,3,3,0,0,0,.36-1.54A3.58,3.58,0,0,0,552.08,470.91Z" transform="translate(54.96 27.31)"/></g><g id="Réteg_6" data-name="Réteg 6"><path class="cls-7" d="M186.26,452.22s0,0,0,0c1.61-4.5-2.42-10.88-7.15-12.49a6.83,6.83,0,0,0-5.51-3c-4.5-2-10.84-.07-14.13,3.2a4.36,4.36,0,0,0-.52.65,3.57,3.57,0,0,0-2.84,1.88c-2.42,4.53-3,9.08-1.07,13.91a10.9,10.9,0,0,0,2.84,4.5,3.87,3.87,0,0,0,.66,1.36A13.86,13.86,0,0,0,168.5,468a4.44,4.44,0,0,0,3,1,8,8,0,0,0,4.52-2.22,16.82,16.82,0,0,0,8-7.16,9.35,9.35,0,0,0,2.57-5.83A4.36,4.36,0,0,0,186.26,452.22Z" transform="translate(54.96 27.31)"/></g><g id="Réteg_10" data-name="Réteg 10"><g class="cls-8"><path class="cls-9" d="M547.09,483.75c5.14-2.35,10.6-5.79,14.1-10.31a3.52,3.52,0,0,0-4.08-5.57,21.61,21.61,0,0,0-10.92-10c-.9-.37-2.4-.73-2.6-1.21-.33-.77,0-2.08-.32-3a5.44,5.44,0,0,0-4.88-3.51,1.69,1.69,0,0,0-1.79,2l-.14-.2c-1.1-1.41-3.51-1.29-4.78-.29a3.69,3.69,0,0,0-1,4.68c.83,1.75,2.49,3.4,3,5.32.32,1.33-1.38,3-2.09,4a1.94,1.94,0,0,0,2.16,2.81c3.09-1.05,5.77-3.22,6.14-6.67a.37.37,0,0,1,0-.11,10.64,10.64,0,0,0,1.57,1.13,28.18,28.18,0,0,1,2.51,1.72c-.68-.2-1.37-.38-2.06-.53a2.6,2.6,0,0,0-1.94,4.75,23.61,23.61,0,0,1,5.72,4.86,9.2,9.2,0,0,1-2.56,4.37,1.87,1.87,0,0,0,1.19,3.1,2,2,0,0,0,2.77,2.59m-9.43-30a1.82,1.82,0,0,1,.9,1.71,18.44,18.44,0,0,0-.9-1.71m13.36,21a1.63,1.63,0,0,1,.17.22c-.27.31-.54.6-.82.89a12.37,12.37,0,0,0,.65-1.11" transform="translate(54.96 27.31)"/><path class="cls-9" d="M576.09,464.41a40.61,40.61,0,0,0,9.55-6.24c2.83-2.37,6.2-5.21,7.68-8.65a3.12,3.12,0,0,0-1.27-4c-.15-4.27-5.55-8-8.68-10.21-4.78-3.42-11.49-7.26-17.51-7.22-1.67,0-3,2.44-1.51,3.64,3.19,2.48,7,4,10.33,6.44,1.07.78,2.12,1.6,3.13,2.46q-.59-.41-1.14-.84a2.69,2.69,0,0,0-4.33,3.05h-.07A1.33,1.33,0,0,0,571,444.5c.44,1.65,1.59,2.69,2.54,4.05s1.7,3.12,2.76,4.54c1.42,1.89,3.71,2.77,5.79,1.38l-.07.08a104.7,104.7,0,0,1-7.85,7.34c-1.44,1.29.38,3.2,1.92,2.52m7.18-15.74a3.47,3.47,0,0,0,.56-.76,4.07,4.07,0,0,0,1.64,2.11c-.61.85-1.21,1.71-1.84,2.55a3.91,3.91,0,0,0-.36-3.9" transform="translate(54.96 27.31)"/><path class="cls-9" d="M554.15,431c-1.52,4.67,5.83,7.73,8,3.27a13.35,13.35,0,0,0-3-15.69c-3.65-3.22-9.89-4.7-13.85-1.24a1.91,1.91,0,0,0,.86,3.17c2.65.59,5.55.61,7.46,2.88s1.36,5,.51,7.61" transform="translate(54.96 27.31)"/><path class="cls-9" d="M593.85,432.92a105.77,105.77,0,0,0,13.58-12.5,2.91,2.91,0,0,0,.8-2,4.27,4.27,0,0,0,.53-1.07c1.17-3.66-3-6.31-5.78-7.73a18.86,18.86,0,0,0-10.14-2.19,2.17,2.17,0,0,0-.94.3c.18-4.89-4.54-9.17-9.44-9a1.82,1.82,0,0,0-1.6,2.43,4.57,4.57,0,0,0-2,.24,1.74,1.74,0,0,0-.77,2.86c1.14,1.43,3,2.09,4.31,3.42a13.23,13.23,0,0,1,2.83,4.79,3.51,3.51,0,0,0,2.7,2.31,2.15,2.15,0,0,0,.62.53c1.72,1,3.39,2,5,3.08s3,2.51,4.94,3.23a102.71,102.71,0,0,0-6.68,9.33c-.73,1.16.82,2.89,2,2m-1.69-21.38.15,0a18.29,18.29,0,0,1,5.46,2.17,13.41,13.41,0,0,1,2,1.45,41,41,0,0,0-3.82-1.76c-1.23-.55-2.49-1.06-3.75-1.55a2.17,2.17,0,0,0,0-.36" transform="translate(54.96 27.31)"/><path class="cls-9" d="M194,447.55a29,29,0,0,0-6.65-10.48,12.08,12.08,0,0,0-5.92-3.51c-3-.66-6.67.46-7.55,3.82-.57,2.16.38,4.14,1.5,5.91.45.71.86,1.23,1.41,1.95.11.16.75,1.09.13.18.65.95,1.36,1.85,2,2.77-.14-.18.69,1,.86,1.27a22.32,22.32,0,0,1,1.3,2.28c.11.36.21.72.3,1.09-.06-.26,0-1.19,0,.18,0,.37,0,.75,0,1.13,0-.5-.36,1.11-.4,1.42l-.35.76-.74,1.47a22.17,22.17,0,0,1-3.06,5,9.61,9.61,0,0,1-3.6,3c-1.37.52-2.88.31-4.25.8a.56.56,0,0,0-.41.53c-.13,2.72,3.29,4.13,5.48,4.54a13.51,13.51,0,0,0,10.5-2.5c6.84-4.94,12.59-12.8,9.41-21.58" transform="translate(54.96 27.31)"/><path class="cls-9" d="M149.35,430.16c-3.39-7-12.21-5.84-17.44-2a4.57,4.57,0,0,0-1.08,1.12,7.45,7.45,0,0,0-2.11,4.65c-.5,6.63,6.75,10.79,12.66,10,6.34-.87,10.88-7.79,8-13.81" transform="translate(54.96 27.31)"/><path class="cls-9" d="M158.09,461.33a3.66,3.66,0,0,1-2.34-2.84c-.26-2.21-1.16-3.85-1.67-6.08-11.85,2.91-24.8,3.06-36.87,3.49-1,0-.85,1.51,0,1.66l1.52.22h-.15c-5.92,0-11.82,0-17.73.05a30.36,30.36,0,0,1-3.56.1c-2.12-.25-2.2-.85-2.82-2.54-1.07-2.88-1.35-6.39-2-9.4a1.76,1.76,0,0,0-3.47.53c.09,3.75.15,7.51.27,11.27.07,2.22,0,4.3,1.68,5.93,2.09,2.06,5.42,2,8.16,2.31,3.61.39,7.24.72,10.86,1,6.09.47,12.21,1,18.35,1.42-1.21,1.33-2.39,2.65-3.57,3.84-1.76,1.79-3.53,3.56-5.27,5.36-.9.92-3,4.06-4.52,5.15.09-.3-.86-.61-1.41-.94-1.21-.71-2.4-1.46-3.6-2.18-2.16-1.32-4.31-2.64-6.45-4a98.76,98.76,0,0,0-13.48-7.61A1,1,0,0,0,89,469.61c3.79,5,8.89,9,13.77,12.86,3.39,2.67,8.55,8.31,13.31,7.79s9.21-6.29,12.5-9.18c4.21-3.71,9.53-7.36,13.13-11.8,4,.19,8,.32,12,.36a5.89,5.89,0,0,0,5.91-6.67A12.83,12.83,0,0,1,158.09,461.33Z" transform="translate(54.96 27.31)"/></g></g><g id="Réteg_1" data-name="Réteg 1"><g class="cls-8"><path class="cls-7" d="M469.09,180.43a1.5,1.5,0,0,1-1-.4l-15.25-14.31a1.5,1.5,0,1,1,2.05-2.18l15.25,14.3a1.51,1.51,0,0,1,.07,2.12,1.53,1.53,0,0,1-1.1.47" transform="translate(54.96 27.31)"/><path class="cls-7" d="M454.31,180.91a1.51,1.51,0,0,1-1-.41,1.49,1.49,0,0,1-.07-2.12l14.31-15.25a1.5,1.5,0,1,1,2.18,2.05l-14.3,15.26a1.53,1.53,0,0,1-1.1.47" transform="translate(54.96 27.31)"/><path class="cls-4" d="M72.8,307.29a1.47,1.47,0,0,1-1-.41l-15.25-14.3a1.5,1.5,0,0,1,2-2.19L73.82,304.7a1.49,1.49,0,0,1,.07,2.12,1.51,1.51,0,0,1-1.09.47" transform="translate(54.96 27.31)"/><path class="cls-4" d="M58,307.77a1.51,1.51,0,0,1-1.1-2.53L71.23,290A1.5,1.5,0,0,1,73.42,292L59.11,307.29a1.48,1.48,0,0,1-1.09.48" transform="translate(54.96 27.31)"/><path class="cls-7" d="M215.75,358.36a1.11,1.11,0,0,1-.76-.3l-11.32-10.62a1.11,1.11,0,0,1,1.52-1.62l11.32,10.62a1.11,1.11,0,0,1-.76,1.92" transform="translate(54.96 27.31)"/><path class="cls-7" d="M204.78,358.71a1.13,1.13,0,0,1-.76-.3,1.11,1.11,0,0,1-.05-1.57l10.62-11.32a1.11,1.11,0,1,1,1.62,1.52l-10.62,11.32a1.06,1.06,0,0,1-.81.35" transform="translate(54.96 27.31)"/><path class="cls-7" d="M72,84.45A1.46,1.46,0,0,1,71,84L41.29,54.37A1.5,1.5,0,0,1,42,51.86L82.48,41a1.5,1.5,0,0,1,1.45.39,1.52,1.52,0,0,1,.39,1.45L73.49,83.34a1.51,1.51,0,0,1-1.06,1.06,1.31,1.31,0,0,1-.39,0M45.25,54.08l26,26L76,62.3l4.75-17.76Z" transform="translate(54.96 27.31)"/><path class="cls-10" d="M155.73,309.12a1.44,1.44,0,0,1-.75-.21,1.49,1.49,0,0,1-.75-1.29l0-41.95a1.5,1.5,0,0,1,2.25-1.3l36.35,20.94a1.5,1.5,0,0,1,0,2.6l-36.32,21a1.44,1.44,0,0,1-.75.21m1.47-40.86,0,36.76,15.91-9.2,15.91-9.2Z" transform="translate(54.96 27.31)"/><path class="cls-6" d="M403.83,102.78a1.56,1.56,0,0,1-.75-.2,1.51,1.51,0,0,1-.75-1.3l0-41.95a1.51,1.51,0,0,1,.75-1.3,1.49,1.49,0,0,1,1.5,0L440.9,79a1.5,1.5,0,0,1,0,2.6l-36.32,21a1.53,1.53,0,0,1-.75.2m1.48-40.86,0,36.76,15.91-9.2,15.91-9.2Z" transform="translate(54.96 27.31)"/><path class="cls-10" d="M266.84,63.45A17.42,17.42,0,1,1,284.25,46a17.43,17.43,0,0,1-17.41,17.41m0-31.83A14.42,14.42,0,1,0,281.25,46a14.43,14.43,0,0,0-14.41-14.42" transform="translate(54.96 27.31)"/><path class="cls-7" d="M324,181H292.39a1.5,1.5,0,0,1-1.5-1.5V147.79a1.5,1.5,0,0,1,1.5-1.5H324a1.5,1.5,0,0,1,1.5,1.5v31.66A1.5,1.5,0,0,1,324,181m-30.15-3h28.65V149.29H293.89Z" transform="translate(54.96 27.31)"/><path class="cls-4" d="M195.4,97.57h0a1.5,1.5,0,1,0-2.12-2.12h0c-3.94,3.94-2.6,8.45-1.51,12.08,1,3.23,1.47,5.28-.11,6.86s-3.64,1.08-6.87.11c-3.62-1.08-8.13-2.43-12.07,1.51s-2.59,8.45-1.51,12.07c1,3.23,1.48,5.29-.11,6.87s-3.63,1.07-6.86.11c-3.63-1.09-8.14-2.43-12.08,1.51a1.49,1.49,0,0,0,0,2.12,1.51,1.51,0,0,0,2.12,0c2.68-2.68,5.65-1.79,9.1-.76,3.24,1,6.92,2.07,9.85-.86s1.82-6.6.86-9.84c-1-3.45-1.92-6.43.75-9.1s5.65-1.79,9.1-.76c3.24,1,6.92,2.07,9.84-.85s1.83-6.61.86-9.85c-1-3.45-1.92-6.42.76-9.1" transform="translate(54.96 27.31)"/><path class="cls-7" d="M48.66,566.93c-2.92,2.93-6.6,1.83-9.85.86-3.44-1-6.42-1.92-9.09.76a1.51,1.51,0,0,1-2.12,0,1.49,1.49,0,0,1,0-2.12c3.94-3.94,8.45-2.6,12.07-1.51,3.23,1,5.29,1.47,6.87-.11a1.51,1.51,0,0,1,2.12,0,1.49,1.49,0,0,1,0,2.12" transform="translate(54.96 27.31)"/><path class="cls-7" d="M69.22,546.38c-2.93,2.92-6.6,1.82-9.85.86-3.44-1-6.42-1.92-9.09.75a1.5,1.5,0,1,1-2.12-2.12c3.93-3.94,8.45-2.59,12.07-1.51,3.23,1,5.29,1.48,6.87-.1a1.5,1.5,0,1,1,2.12,2.12" transform="translate(54.96 27.31)"/><path class="cls-7" d="M48.66,566.93a1.5,1.5,0,0,1-2.12-2.12c1.58-1.58,1.07-3.64.11-6.86-1.09-3.63-2.43-8.14,1.51-12.08a1.49,1.49,0,0,1,2.12,0,1.51,1.51,0,0,1,0,2.12c-2.68,2.67-1.79,5.65-.76,9.1,1,3.24,2.07,6.92-.86,9.84" transform="translate(54.96 27.31)"/><path class="cls-7" d="M69.22,546.38a1.51,1.51,0,0,1-2.12,0,1.49,1.49,0,0,1,0-2.12c1.58-1.59,1.07-3.64.1-6.87-1.08-3.63-2.43-8.14,1.51-12.08h0a1.51,1.51,0,0,1,2.12,0,1.49,1.49,0,0,1,0,2.12h0c-2.67,2.68-1.78,5.65-.75,9.1,1,3.24,2.07,6.92-.86,9.85" transform="translate(54.96 27.31)"/><path class="cls-7" d="M492,59.06a7.94,7.94,0,0,1-1.74-.2,7.76,7.76,0,1,1,8.3-11.7,7.77,7.77,0,0,1-2.43,10.7h0a7.69,7.69,0,0,1-4.12,1.2m0-12.54a4.78,4.78,0,1,0,1.06.12,4.77,4.77,0,0,0-1.06-.12" transform="translate(54.96 27.31)"/><path class="cls-4" d="M571.17,561.15a1.53,1.53,0,0,1,1.06.44l29.68,29.65a1.5,1.5,0,0,1,.39,1.45,1.51,1.51,0,0,1-1.06,1.06l-40.52,10.89a1.5,1.5,0,0,1-1.83-1.84l10.83-40.53a1.46,1.46,0,0,1,1.06-1.06,1.32,1.32,0,0,1,.39-.06M598,591.52l-26-26-4.74,17.76-4.74,17.75Z" transform="translate(54.96 27.31)"/><path class="cls-10" d="M499.73,282.54a1.59,1.59,0,0,1,.75.2,1.51,1.51,0,0,1,.75,1.3l0,41.95a1.49,1.49,0,0,1-2.24,1.3l-36.35-21a1.5,1.5,0,0,1,0-2.59l36.33-21a1.53,1.53,0,0,1,.75-.2m-1.48,40.85,0-36.75-15.91,9.2L466.41,305Z" transform="translate(54.96 27.31)"/><path class="cls-7" d="M376.36,582.16A17.41,17.41,0,1,1,359,599.57a17.44,17.44,0,0,1,17.41-17.41m0,31.82A14.41,14.41,0,1,0,362,599.57,14.43,14.43,0,0,0,376.36,614" transform="translate(54.96 27.31)"/><path class="cls-4" d="M319.16,464.66h31.66a1.5,1.5,0,0,1,1.5,1.5v31.65a1.5,1.5,0,0,1-1.5,1.5H319.16a1.5,1.5,0,0,1-1.5-1.5V466.16a1.5,1.5,0,0,1,1.5-1.5m30.16,3H320.66v28.65h28.66Z" transform="translate(54.96 27.31)"/><path class="cls-10" d="M491,506.92a1.51,1.51,0,0,0-2.12,0c-2.68,2.68-5.65,1.79-9.1.76-3.24-1-6.92-2.07-9.84.85s-1.83,6.61-.86,9.85c1,3.45,1.92,6.42-.76,9.1s-5.65,1.78-9.09.75c-3.25-1-6.92-2.07-9.85.86s-1.83,6.6-.86,9.85c1,3.44,1.92,6.42-.75,9.09h0a1.51,1.51,0,1,0,2.13,2.13h0c3.94-3.94,2.59-8.46,1.5-12.08-1-3.23-1.47-5.29.11-6.87s3.64-1.07,6.87-.1c3.62,1.08,8.13,2.43,12.07-1.51s2.59-8.45,1.51-12.08c-1-3.22-1.47-5.28.11-6.86s3.64-1.07,6.86-.11c3.63,1.08,8.14,2.43,12.08-1.51a1.49,1.49,0,0,0,0-2.12" transform="translate(54.96 27.31)"/><path class="cls-7" d="M595.83,322.45a1.49,1.49,0,0,1,0,2.12c-3.94,3.94-8.45,2.59-12.07,1.51-3.23-1-5.29-1.48-6.87.11a1.5,1.5,0,1,1-2.12-2.13c2.92-2.92,6.6-1.82,9.84-.85,3.45,1,6.43,1.92,9.1-.76a1.51,1.51,0,0,1,2.12,0" transform="translate(54.96 27.31)"/><path class="cls-7" d="M575.27,343a1.49,1.49,0,0,1,0,2.12c-3.94,3.94-8.45,2.59-12.07,1.51-3.23-1-5.29-1.48-6.87.1a1.5,1.5,0,1,1-2.12-2.12c2.93-2.92,6.6-1.83,9.85-.86,3.44,1,6.42,1.92,9.09-.75a1.49,1.49,0,0,1,2.12,0" transform="translate(54.96 27.31)"/><path class="cls-7" d="M576.89,324.07a1.51,1.51,0,0,1,0,2.12c-1.58,1.58-1.07,3.64-.11,6.86,1.09,3.63,2.43,8.14-1.51,12.08a1.49,1.49,0,0,1-2.12,0,1.51,1.51,0,0,1,0-2.12c2.68-2.67,1.79-5.65.76-9.1-1-3.24-2.07-6.92.86-9.84a1.49,1.49,0,0,1,2.12,0" transform="translate(54.96 27.31)"/><path class="cls-7" d="M556.33,344.62a1.49,1.49,0,0,1,0,2.12c-1.58,1.58-1.07,3.64-.1,6.87,1.08,3.62,2.43,8.14-1.51,12.08a1.51,1.51,0,0,1-2.12,0,1.49,1.49,0,0,1,0-2.12c2.67-2.68,1.78-5.65.75-9.1-1-3.24-2.07-6.92.86-9.85a1.51,1.51,0,0,1,2.12,0" transform="translate(54.96 27.31)"/><path class="cls-6" d="M151.22,586.55a7.38,7.38,0,0,1,1.74.2,7.76,7.76,0,1,1-5.86,1h0a7.77,7.77,0,0,1,4.12-1.19m0,12.54a4.79,4.79,0,0,0,4.63-3.71,4.77,4.77,0,1,0-8.68,1.48,4.78,4.78,0,0,0,4.05,2.23" transform="translate(54.96 27.31)"/><path class="cls-6" d="M413.06,465.49a7.85,7.85,0,0,1,1.73.2,7.76,7.76,0,1,1-8.29,11.7,7.77,7.77,0,0,1,2.43-10.7h0a7.83,7.83,0,0,1,4.13-1.19m0,12.54a4.76,4.76,0,0,0,4-7.31,4.69,4.69,0,0,0-3-2.11,4.77,4.77,0,0,0-2.12,9.3,4.94,4.94,0,0,0,1.07.12" transform="translate(54.96 27.31)"/><path class="cls-7" d="M77.91,501.22a7.93,7.93,0,0,1-1.74-.19A7.76,7.76,0,1,1,82,500h0a7.73,7.73,0,0,1-4.12,1.19m0-12.53a4.76,4.76,0,0,0-4,7.3A4.77,4.77,0,1,0,79,488.81a4.88,4.88,0,0,0-1.07-.12" transform="translate(54.96 27.31)"/><path class="cls-7" d="M272.11,572.44a1.51,1.51,0,0,1-1-.41l-15.25-14.3a1.51,1.51,0,0,1-.07-2.12,1.49,1.49,0,0,1,2.12-.07l15.26,14.3a1.5,1.5,0,0,1-1,2.6" transform="translate(54.96 27.31)"/><path class="cls-7" d="M257.33,572.91a1.49,1.49,0,0,1-1.09-2.52l14.3-15.25a1.5,1.5,0,0,1,2.19,2.05l-14.3,15.25a1.53,1.53,0,0,1-1.1.47" transform="translate(54.96 27.31)"/></g><g class="cls-8"><path class="cls-11" d="M562.46,418.57c-6.48-6.48-16.94-4.71-22.65,1A18.11,18.11,0,0,0,536,426c-2,5.05-.55,10.68,3.84,15.07a16.12,16.12,0,0,0,14.07,5,12.54,12.54,0,0,1,.18-1.72,1.2,1.2,0,0,1,.64-.86c-4.43,1.23-9.3-.12-13.22-4-3.7-3.7-4.93-8.39-3.3-12.53a16.23,16.23,0,0,1,3.24-5.58c4.91-4.9,13.83-6.48,19.3-1,6.1,6.1,4.7,14.79-.18,19.67a13.34,13.34,0,0,1-5.47,3.38,1.45,1.45,0,0,1,.36,0,1.19,1.19,0,0,1,1,1.37c0,.22-.06.45-.09.68a15.64,15.64,0,0,0,5.9-3.75,17,17,0,0,0,4.1-6.7,8.14,8.14,0,0,0-.85,0,1.19,1.19,0,1,1,0-2.37,12,12,0,0,1,1.45.09,15.56,15.56,0,0,0-4.49-14" transform="translate(54.96 27.31)"/><path class="cls-11" d="M591.89,449l-.24-.22c-3.29-3.17-10.46-10-17.58-13.77a1.16,1.16,0,0,1,.43.65,3.08,3.08,0,0,0-.39-.3,1,1,0,0,0-1,1.73.6.6,0,0,1,.3.29,1,1,0,0,0,1.29.35l0,.32c5.75,3.44,11.48,8.79,14.63,11.8-2.76,2.59-5.07,4.82-7.21,6.95l.08.06-2.4,1.88a.86.86,0,0,0-.29.73c-3.06,3.17-5.78,6.18-8.22,9.11a22.49,22.49,0,0,1-5.26-3.63c-6.81-6.81-10.3-13.92-9.68-19.64,0-.23,0-.46.09-.68a1.2,1.2,0,0,0-1-1.37,1.45,1.45,0,0,0-.36,0,1.21,1.21,0,0,0-.37.11,1.2,1.2,0,0,0-.64.86,12.54,12.54,0,0,0-.18,1.72c-.43,8.42,6.23,16.47,10.43,20.68a25.68,25.68,0,0,0,6.77,4.5,1.17,1.17,0,0,0,1.33-.24l.08-.09c2.93-3.57,6.26-7.25,10.16-11.21a2.2,2.2,0,0,0,1.08-1.09c2.36-2.35,4.93-4.83,8.09-7.78a1.2,1.2,0,0,0,0-1.72Z" transform="translate(54.96 27.31)"/><path class="cls-11" d="M564.32,433.68a1.2,1.2,0,0,0,1.2,1.18,8.14,8.14,0,0,1,.85,0,17.3,17.3,0,0,1,5.86,1.83c0-.22,0-.44-.05-.66a1.17,1.17,0,0,1,1.09-1.26,1.12,1.12,0,0,1,.45.05,20.72,20.72,0,0,0-6.77-2.27,12,12,0,0,0-1.45-.09,1.19,1.19,0,0,0-1.18,1.19" transform="translate(54.96 27.31)"/><path class="cls-11" d="M584.62,417.91a9.43,9.43,0,0,1-7.27-2.76c-2.51-2.51-3.79-8.7-.39-12.09a6.35,6.35,0,0,1,1.33-1,7.05,7.05,0,0,1,5.87-.51,10.94,10.94,0,0,1,4.66,2.37c2.7,2.7,4.76,8.43,1.45,11.75a8.83,8.83,0,0,1-5.64,2.26,1.18,1.18,0,0,1,1.18,1.18c0,.36,0,.73.07,1.09a10.14,10.14,0,0,0,6.06-2.86,8.12,8.12,0,0,0,2.38-5.39c-.4-.05-.81-.1-1.23-.12a1.19,1.19,0,0,1,.13-2.37c.33,0,.66.07,1,.1a13.92,13.92,0,0,0-3.71-7.31,13.2,13.2,0,0,0-5.66-3,9.44,9.44,0,0,0-7.74.73,8.91,8.91,0,0,0-1.82,1.4c-3.48,3.47-4.06,11,.4,15.43a12.49,12.49,0,0,0,7.84,3.42,10.9,10.9,0,0,1-.07-1.14,1.18,1.18,0,0,1,1.17-1.19" transform="translate(54.96 27.31)"/><path class="cls-11" d="M592.75,434.31a1.19,1.19,0,0,0,1.48-.16l.08-.09a141.36,141.36,0,0,1,13.6-14.9,1.2,1.2,0,0,0,.19-1.5,17.52,17.52,0,0,0-2.29-2.86,19,19,0,0,0-11.6-5.26c-.33,0-.66-.08-1-.1a1.19,1.19,0,0,0-.13,2.37c.42,0,.83.07,1.23.12a16.53,16.53,0,0,1,9.82,4.55,15,15,0,0,1,1.42,1.65,142.65,142.65,0,0,0-12.4,13.59,20.3,20.3,0,0,1-2.4-2.05,16.1,16.1,0,0,1-4.88-9.48c0-.37-.07-.74-.07-1.1a1.18,1.18,0,1,0-2.36,0,10.9,10.9,0,0,0,.07,1.14,18.33,18.33,0,0,0,5.57,11.1,22.54,22.54,0,0,0,3.66,3" transform="translate(54.96 27.31)"/><path class="cls-11" d="M533.39,471.35a1.18,1.18,0,1,1,2.36.16c0,.27,0,.54,0,.81a10.52,10.52,0,0,0,3.88-2.52A10.24,10.24,0,0,0,542,466c-.32-.05-.63-.11-1-.14a1.19,1.19,0,0,1,.23-2.36c.41,0,.83.11,1.24.18a11.48,11.48,0,0,0-3.15-9.18c-5.29-5.29-12.4-2.13-15.63,1.11a8.07,8.07,0,0,0-2.54,5.53,11.36,11.36,0,0,0,3.35,8.44,11.14,11.14,0,0,0,8.81,3.26,14.77,14.77,0,0,1,0-1.49m-7.15-3.45a9,9,0,0,1-2.67-6.67,5.89,5.89,0,0,1,1.85-4c.07-.06,6.85-6.54,12.28-1.11,2.55,2.55,4,8.13.23,11.95s-8.81,2.67-11.69-.22" transform="translate(54.96 27.31)"/><path class="cls-11" d="M543.24,488.34l.76-.77,3.79-3.83c2.38-2.37,5.53-5.47,8.84-8.38l.06-.05a1.19,1.19,0,0,0,.11-1.54,33.91,33.91,0,0,0-3.37-3.94,20.56,20.56,0,0,0-10.9-6.15c-.41-.07-.83-.14-1.24-.18a1.19,1.19,0,0,0-.23,2.36c.32,0,.63.09,1,.14a18.24,18.24,0,0,1,9.75,5.5,31.24,31.24,0,0,1,2.48,2.81c-3.06,2.73-5.92,5.56-8.12,7.76-1.28,1.27-2.54,2.55-3.79,3.82q-.45-.39-.87-.81c-3.67-3.68-5.78-8.39-5.74-12.76,0-.27,0-.54,0-.8a1.18,1.18,0,1,0-2.36-.17,14.93,14.93,0,0,0,0,1.5,21,21,0,0,0,6.42,13.9,24.44,24.44,0,0,0,1.87,1.68,1.19,1.19,0,0,0,1.58-.09" transform="translate(54.96 27.31)"/><path class="cls-11" d="M182.92,464.69c-5.86,5.86-16.16,8.18-24.93-.59-6.7-6.7-7.06-18.55-.75-24.86a14,14,0,0,1,3.64-2.62h0a23.22,23.22,0,0,1,7.13-2.14,18.16,18.16,0,0,1,14.77,4.78c6.15,6.15,7.95,17.62.14,25.43M159,441c-5.3,5.3-4.94,15.68.74,21.36,7.61,7.6,16.24,5.77,21.43.59a15.27,15.27,0,0,0-12.81-26,20.74,20.74,0,0,0-6.37,1.91,11.44,11.44,0,0,0-3,2.15" transform="translate(54.96 27.31)"/><path class="cls-11" d="M174.46,460.33l-.62.59c-.21.19-.42.39-.64.61a1.24,1.24,0,0,1-1.75-1.76l.7-.66.56-.53a15.36,15.36,0,0,0,3-4.87c.56-1.49,1-3.51-.19-4.67a2,2,0,0,0-3.23,0,15.43,15.43,0,0,0-2.23,3.26,10,10,0,0,1-1.3,2,3.93,3.93,0,0,1-5.59.05c-2.67-2.67-.78-7.2.34-9.9l.19-.46a1.24,1.24,0,1,1,2.29.94l-.19.47c-.89,2.13-2.38,5.7-.88,7.2a1.49,1.49,0,0,0,2.09-.05,12.07,12.07,0,0,0,.9-1.44,17.14,17.14,0,0,1,2.63-3.79,4.46,4.46,0,0,1,6.73,0c3.85,3.85-.79,11-2.83,13.05" transform="translate(54.96 27.31)"/><path class="cls-11" d="M163.89,450.57a1.26,1.26,0,0,1-1.6.14,17.82,17.82,0,0,0-1.67-1c-.61-.35-1.23-.71-1.88-1.17a1.24,1.24,0,0,1,1.44-2,17.82,17.82,0,0,0,1.67,1,21.08,21.08,0,0,1,1.88,1.17,1.24,1.24,0,0,1,.29,1.73l-.13.15" transform="translate(54.96 27.31)"/><path class="cls-11" d="M181.46,457.33a1.24,1.24,0,0,1-1.75,0,9.09,9.09,0,0,0-3-1.76l1-2.28-.49,1.14.49-1.14a11.36,11.36,0,0,1,3.77,2.29,1.24,1.24,0,0,1,0,1.75" transform="translate(54.96 27.31)"/><path class="cls-11" d="M155.42,459.65c-1.85.06-3.51.09-5.18.11a186.81,186.81,0,0,0-24.48,1.79c-6.89.85-13.55,1.19-20,1.52-3,.16-6.11.32-9.21.53-1.29-6.93-2.73-21.68-4.17-42.88,17.19-.93,61-2.86,79.37-3.28.07,2,.11,4,.16,5.92.1,4.26.2,8.64.54,13a8,8,0,0,1,2.57.34c-.37-4.49-.49-9-.59-13.41-.05-2.36-.11-4.8-.2-7.2a1.27,1.27,0,0,0-1.29-1.21c-12.37.25-38.58,1.32-59.16,2.26-.36.54-.66,1-.87,1.4a1.28,1.28,0,0,1-1.72.49,1.26,1.26,0,0,1-.49-1.72c-8.09.35-15.12.69-19.74.95a1.29,1.29,0,0,0-.88.42,1.3,1.3,0,0,0-.31.92c.51,7.62,1.16,16.31,1.88,24.25a1,1,0,0,1,.34.05,1.26,1.26,0,0,1,.82,1.59,16.25,16.25,0,0,1-.82,2c.72,7.41,1.5,13.85,2.3,17.66a1.26,1.26,0,0,0,1.33,1c3.44-.25,6.91-.42,10.27-.6,6.49-.33,13.19-.67,20.17-1.54a187.22,187.22,0,0,1,24.21-1.77c1.68,0,3.36,0,5.23-.11a1.26,1.26,0,1,0-.09-2.52Z" transform="translate(54.96 27.31)"/><path class="cls-11" d="M129.28,448.1a17.06,17.06,0,0,0,9.84,1.79,12.86,12.86,0,0,0,10.09-6.69c3-5.43,1.49-11.44-3.64-14.29a25.24,25.24,0,0,0-7.82-2.33l-.73-.13c-5-.94-9.83,1-12,4.91-2.76,5-1.49,13.56,4.24,16.74m7.28-19.17.73.14a23.44,23.44,0,0,1,7.06,2.05c4,2.2,5,6.57,2.65,10.86-3.92,7.06-12.68,6-16.5,3.91-4.3-2.39-5.4-9.43-3.25-13.31,1.86-3.36,6.13-4.25,9.31-3.65" transform="translate(54.96 27.31)"/><path class="cls-11" d="M110.9,426.68a1.27,1.27,0,0,0,0-2.53c-2.22,0-4.43.25-6.56.47-1.34.14-2.73.29-4.09.37a1.27,1.27,0,0,0-1.17,1.42c.19,1.43.41,2.87.63,4.3.34,2.22.69,4.52.9,6.75a1.27,1.27,0,0,0,2.52-.24c-.22-2.31-.58-4.64-.93-6.9-.15-1-.3-1.94-.44-2.91,1-.08,1.91-.18,2.84-.28,2.08-.22,4.22-.44,6.32-.45" transform="translate(54.96 27.31)"/><path class="cls-11" d="M163.94,425.09a21.37,21.37,0,0,1,.16,4.27c0,1.28,0,2.86,0,4.78a1.25,1.25,0,0,0,.65,1.09,1.31,1.31,0,0,0,.63.16,1.27,1.27,0,0,0,1.24-1.28c0-1.9,0-3.46,0-4.74,0-3.82,0-5.26-1-6.18s-2-.68-3.74-.5a36.83,36.83,0,0,1-5.47.27h-.67a1.25,1.25,0,0,0-1,.48,1.28,1.28,0,0,0-.23,1.13,1.42,1.42,0,0,0,1.61,1,1.24,1.24,0,0,0,.66,0l.12,0a41.2,41.2,0,0,0,5.29-.29,11.85,11.85,0,0,1,1.77-.11" transform="translate(54.96 27.31)"/><path class="cls-11" d="M100.94,458.09a1.26,1.26,0,0,0,.58.68,1.24,1.24,0,0,0,.85.14,46,46,0,0,1,7.68-.58c1,0,2,0,3-.09a1.26,1.26,0,0,0-.11-2.52c-1,0-2,.06-3,.08a56.48,56.48,0,0,0-6.94.44,63.52,63.52,0,0,1-.88-9.76,1.26,1.26,0,0,0-2.44-.61c-.3.93.27,9.56,1.2,12.22" transform="translate(54.96 27.31)"/><path class="cls-11" d="M111.2,419a1.28,1.28,0,0,0,1.72-.49c.21-.38.51-.86.87-1.4,1-1.46,2.44-3.45,4.07-5.67A169.69,169.69,0,0,0,129,395.08c.07-.13.14-.25.19-.36l1,.69c2.75,2,9.18,6.54,24.28,14.92,2.34,1.3,4.49,2.43,6.59,3.45a1.26,1.26,0,1,0,1.11-2.26c-2.06-1-4.18-2.12-6.48-3.4-15-8.31-21.32-12.83-24-14.77-1.8-1.28-2.41-1.71-3.28-1.47a2,2,0,0,0-1.25,1.32,7.14,7.14,0,0,1-.31.65A170.67,170.67,0,0,1,115.83,410c-2.38,3.23-4.25,5.79-5.1,7.3a1.27,1.27,0,0,0,.47,1.75" transform="translate(54.96 27.31)"/><path class="cls-11" d="M119.09,491.79a1.26,1.26,0,0,0,.89.13,1.21,1.21,0,0,0,.8-.57,184.53,184.53,0,0,1,16.74-23.17,1.26,1.26,0,1,0-1.93-1.63,186.43,186.43,0,0,0-16.28,22.37c-5.74-3.75-11.61-7.47-17.3-11.08-4.8-3-9.76-6.2-14.65-9.37a32.64,32.64,0,0,1-3.74-3c-.7-.61-1.41-1.24-2.21-1.89,4.76-6.78,9.83-14.61,10.17-15.23.15-.27.28-.57.42-.86a16.25,16.25,0,0,0,.82-2,1.26,1.26,0,0,0-.82-1.59,1,1,0,0,0-.34-.05,1.25,1.25,0,0,0-1.24.87,13.67,13.67,0,0,1-1,2.43c-.31.55-5.67,8.85-10.73,16a1.28,1.28,0,0,0,.27,1.74c1.14.86,2.11,1.7,3,2.52a34.23,34.23,0,0,0,4,3.18c4.89,3.17,9.86,6.33,14.67,9.38,6,3.83,12.29,7.8,18.35,11.77l.08.05" transform="translate(54.96 27.31)"/><path class="cls-11" d="M123.51,469.38l-.67,1c-2.1,3-4.1,5.83-6,8.88a25.61,25.61,0,0,1-3.74-2.6,30.26,30.26,0,0,0-3.84-2.69,12.78,12.78,0,0,0-2.13-.95,1.26,1.26,0,0,0-.79,2.4,9.28,9.28,0,0,1,1.7.76,26.66,26.66,0,0,1,3.5,2.47,29.74,29.74,0,0,0,3.78,2.65,10.76,10.76,0,0,0,1.55.73,1.25,1.25,0,0,0,1.52-.5c2.11-3.35,4.27-6.43,6.56-9.7l.68-1a1.26,1.26,0,1,0-2.07-1.45" transform="translate(54.96 27.31)"/><path class="cls-12" d="M131.51,405.22l1.61,1.15a49,49,0,0,0,5,3.35,1.25,1.25,0,0,0,1.71-.49,1.26,1.26,0,0,0-.49-1.72,45.57,45.57,0,0,1-4.78-3.18c-.86-.62-1.75-1.27-2.67-1.88a1.25,1.25,0,0,0-1.71.29c-.38.52-.77,1-1.15,1.53a56.14,56.14,0,0,0-4.69,6.85,1.24,1.24,0,0,0,.11,1.39,1.16,1.16,0,0,0,.38.32,1.23,1.23,0,0,0,1,.11l.32-.09a1.26,1.26,0,0,0,.9-1.33,62.34,62.34,0,0,1,4-5.72l.43-.58" transform="translate(54.96 27.31)"/><path class="cls-11" d="M85.47,460.85a1.74,1.74,0,0,0,.4,2.08,39,39,0,0,0,7.57,5.78l1.23.78.07.05a1.27,1.27,0,0,0,1.3-2.17l-1.24-.79a38.46,38.46,0,0,1-6.71-5,12.41,12.41,0,0,0,.78-1.25c.17-.3.32-.6.48-.9s.29-.57.45-.85l.07-.12c.69-1.18,1-1.86.8-2.54a1.39,1.39,0,0,0-1.36-1,1.26,1.26,0,0,0-1.32,1.2,1.09,1.09,0,0,0,.06.44c-.08.16-.2.37-.36.65l-.1.17c-.17.3-.32.6-.48.91s-.29.56-.44.83a8.07,8.07,0,0,1-1,1.48,2,2,0,0,0-.18.26" transform="translate(54.96 27.31)"/></g><path class="cls-11" d="M572.07,436.49a21.26,21.26,0,0,1,1.56.83c.14.05.29.1.42.16l.07,0h0l.14.07a.86.86,0,0,0,.07.1,3.12,3.12,0,0,1,.55.46,1.09,1.09,0,0,0,.26,0,1,1,0,0,0,.39-1.89.9.9,0,0,0-.63-.58.8.8,0,0,0-.28-.13l-.12,0a.83.83,0,0,0-.07-.18,1.83,1.83,0,0,0-1.24-.87,1.05,1.05,0,0,0-1.23.7,1,1,0,0,0,0,.6A1.05,1.05,0,0,0,572.07,436.49Z" transform="translate(54.96 27.31)"/></g><g id="Réteg_14" data-name="Réteg 14"><path class="cls-13" d="M115.1,164a16.73,16.73,0,0,0,2.76-7.39,2.3,2.3,0,0,0-.07-.74,3.71,3.71,0,0,0-.9-3.21,3.12,3.12,0,0,0-2.8-1.5h-.39c-3.15,0-4.1,3.41-2.84,5.47a9.35,9.35,0,0,1-1.29,2.82,36.91,36.91,0,0,1-2,3.36,3.1,3.1,0,0,0,1.34,4.66,3.35,3.35,0,0,0,3.37,3.43c5.56.09,25.14,1,25.68,9.67L124.43,196a3.71,3.71,0,0,0-2.59.37,3.49,3.49,0,0,0-1.25,4.79,3.37,3.37,0,0,0,2.09,1.6l1.69.29a4.7,4.7,0,0,0,1.67,0,3,3,0,0,0,2.48-1.13l.69-.79a4.13,4.13,0,0,0,.52-.33,81,81,0,0,0,13.77-14.17,3.55,3.55,0,0,0,.74-1.64,3.68,3.68,0,0,0,.37-1.09C147.35,168.26,127.44,164.59,115.1,164Z" transform="translate(54.96 27.31)"/><path class="cls-13" d="M109.29,210.13a75.12,75.12,0,0,0-2.22-12.37c-1.21-4.34-8-2.5-6.75,1.86,1.44,5.17,4.37,15,1.38,19.83-3.11,5-9,9.29-13.58,12.86-3.55,2.77,1.44,7.69,4.95,4.95a96.63,96.63,0,0,0,9.36-8.26c2.44-2.48,5.74-5.34,7-8.7C110.5,217.21,109.61,213.3,109.29,210.13Z" transform="translate(54.96 27.31)"/></g><g id="Réteg_2" data-name="Réteg 2"><path class="cls-14" d="M60.17,155A12.45,12.45,0,0,0,56.8,167a20.13,20.13,0,0,0,4.76,8.75C59.51,181.76,57,188.28,55.49,194A35.58,35.58,0,0,0,54,202.11c-.08,2.42.33,4.66,1.88,6.22a3.38,3.38,0,0,0,2.29.91,7.61,7.61,0,0,0,2.29-.31,24.85,24.85,0,0,0,5.1-2.16,49.5,49.5,0,0,0,7.62-5.08c1.44,5.41,1.94,11.2,2.64,16.53.8,6.17,1.8,11.85,5.52,15.56a16.36,16.36,0,0,0,1.4,1.32,2.78,2.78,0,0,0,3.84,0A16.5,16.5,0,0,0,88,233.75L102.83,219c1.07-1.07,1.92-1.79,2.21-3.12s-.13-2.34-.61-4v-.07s-1.33-3.91-2.4-8.05a47.19,47.19,0,0,1-1.18-5.84,10.19,10.19,0,0,1-.08-2,.66.66,0,0,1,.06-.26.91.91,0,0,1,.25-.06,11.18,11.18,0,0,1,2,.08,47.56,47.56,0,0,1,5.84,1.18c4.14,1.07,8.05,2.4,8.05,2.4H117c1.64.48,2.64.9,4,.62s2-1.13,3.11-2.19l14.85-14.85a18,18,0,0,0,1.32-1.4,2.79,2.79,0,0,0,0-3.83,18,18,0,0,0-1.32-1.4c-3.71-3.71-9.39-4.72-15.56-5.52-5.33-.7-11.12-1.2-16.54-2.63a49.27,49.27,0,0,0,5.08-7.62,24.45,24.45,0,0,0,2.17-5.11,7.61,7.61,0,0,0,.31-2.29,3.34,3.34,0,0,0-.91-2.28c-1.56-1.56-3.8-2-6.22-1.89a36.31,36.31,0,0,0-8.15,1.45c-5.68,1.55-12.2,4-18.27,6.07a20.1,20.1,0,0,0-8.74-4.76A12.44,12.44,0,0,0,60.17,155Z" transform="translate(54.96 27.31)"/></g><g id="Réteg_7" data-name="Réteg 7"><path class="cls-15" d="M80.73,156.61c-4.06-1.63-7.18-4.15-11.79-4.45-.56,0-1.21-.11-1.9-.18a25.59,25.59,0,0,0-3.5,1.32,15.87,15.87,0,0,0-1.5.84,5.31,5.31,0,0,1-.51,1c.12.26.22.51.34.77,2.2,0,4.34-.93,6.59-.9a23.71,23.71,0,0,1,7.41,1.34,13.63,13.63,0,0,1,2.93,1.48c.64,0,1.28,0,1.92-.05l.2-.13a5.66,5.66,0,0,1,0-.58C80.87,156.88,80.8,156.75,80.73,156.61Z" transform="translate(54.96 27.31)"/><path class="cls-15" d="M142.07,179.29c-8.06-9.81-22.32-8.78-33.88-11.15,0,0,0,0,0,0,1.11-2.64,3.57-4.8,4.94-7.35a15.94,15.94,0,0,0,2.35-7.66c0-2.58-4-2.58-4,0,.07,5.57-5.15,9.21-7.15,13.95a1.87,1.87,0,0,0-.11.42,2.1,2.1,0,0,0-.58,1.6,1.83,1.83,0,0,0,1.3,2.45c11.11,2.84,26.38,1,34.28,10.62C140.88,184.11,143.69,181.27,142.07,179.29Z" transform="translate(54.96 27.31)"/><path class="cls-15" d="M100.67,194.58a.66.66,0,0,0,0-.15,12.77,12.77,0,0,1-1.62-.19,5.62,5.62,0,0,1-.86.39l-.31.1a3.8,3.8,0,0,1-.22.8,5,5,0,0,1-.11,1.16,5.05,5.05,0,0,1,.19,1.41v.09a3.18,3.18,0,0,1-.07.62A9.09,9.09,0,0,1,97.7,200s0,0,0,.07c1.26,5.49,3.09,10.94,3.5,16.5a2,2,0,0,0,1.28,1.74l.13-.1a1.59,1.59,0,0,1,.18-.37,4.17,4.17,0,0,1,1.67-1.66l.11-.16,0-.16a3.74,3.74,0,0,1,.34-.76l.06-.18C104.19,208,101.64,201.39,100.67,194.58Z" transform="translate(54.96 27.31)"/></g><g id="Réteg_8" data-name="Réteg 8"><path class="cls-16" d="M60.17,155A12.45,12.45,0,0,0,56.8,167a20.13,20.13,0,0,0,4.76,8.75C59.51,181.76,57,188.28,55.49,194A35.58,35.58,0,0,0,54,202.11c-.08,2.42.33,4.66,1.88,6.22a3.38,3.38,0,0,0,2.29.91,7.61,7.61,0,0,0,2.29-.31,24.85,24.85,0,0,0,5.1-2.16,49.5,49.5,0,0,0,7.62-5.08c1.44,5.41,1.94,11.2,2.64,16.53.8,6.17,1.8,11.85,5.52,15.56a16.36,16.36,0,0,0,1.4,1.32,2.78,2.78,0,0,0,3.84,0A16.5,16.5,0,0,0,88,233.75L102.83,219c1.07-1.07,1.92-1.79,2.21-3.12s-.13-2.34-.61-4v-.07s-1.33-3.91-2.4-8.05a47.19,47.19,0,0,1-1.18-5.84,10.19,10.19,0,0,1-.08-2,.66.66,0,0,1,.06-.26.91.91,0,0,1,.25-.06,11.18,11.18,0,0,1,2,.08,47.56,47.56,0,0,1,5.84,1.18c4.14,1.07,8.05,2.4,8.05,2.4H117c1.64.48,2.64.9,4,.62s2-1.13,3.11-2.19l14.85-14.85a18,18,0,0,0,1.32-1.4,2.79,2.79,0,0,0,0-3.83,18,18,0,0,0-1.32-1.4c-3.71-3.71-9.39-4.72-15.56-5.52-5.33-.7-11.12-1.2-16.54-2.63a49.27,49.27,0,0,0,5.08-7.62,24.45,24.45,0,0,0,2.17-5.11,7.61,7.61,0,0,0,.31-2.29,3.34,3.34,0,0,0-.91-2.28c-1.56-1.56-3.8-2-6.22-1.89a36.31,36.31,0,0,0-8.15,1.45c-5.68,1.55-12.2,4-18.27,6.07a20.1,20.1,0,0,0-8.74-4.76A12.44,12.44,0,0,0,60.17,155Z" transform="translate(54.96 27.31)"/></g><g id="Réteg_3" data-name="Réteg 3"><path class="cls-17" d="M396.58,314.14c-1-1.13-1.86-2.47-2.83-3.67-.58-.44-1.13-.86-1.57-1.23a41.61,41.61,0,0,1-3.94-3.65A42.31,42.31,0,0,1,378,297.41a4.93,4.93,0,0,0,0-.55,4.17,4.17,0,0,1-.76-.6c-5.42-5.31-10.68-11-16.09-16.39-4.36-4.35-10-7.34-14.57-11.39l-.38.07c-1.46-1.58-2.89-3.19-4.29-4.81.2-.43.39-.87.56-1.31a3.78,3.78,0,0,1,.53-1.63,16.5,16.5,0,0,0,.52-6.12c-2.95-2.82-5.6-6-8.47-8.9a4.63,4.63,0,0,1-1.35-2.61,5.88,5.88,0,0,0-1,.07c-1-.88-2-1.79-2.92-2.72.25-2.41-2.91-4.72-5.1-2.52a5.43,5.43,0,0,0-.44,5.5c1.33,1.35,2.72,2.63,4.12,3.88a2.86,2.86,0,0,0-1.07.7,75.71,75.71,0,0,1-5.66,5.9c-1.67-1.69-3.74-3.24-5-4.48-2.75-2.77-6.73,1.35-4.24,4.25a43.77,43.77,0,0,0,4.91,5.42.36.36,0,0,1,0,.11c0,1.38-2.46,4.07-4.37,5.7h-.52c-.46-.38-.9-.78-1.33-1.18a2.87,2.87,0,0,0-2.86-.68,19.38,19.38,0,0,0-3.2-3.27c-3.08-2.3-6,2.93-3,5.22,1.45,1.08,2.52,3.07,3.79,4.38.39.41.8.82,1.21,1.23a6.56,6.56,0,0,0,4.07,5.85,1.73,1.73,0,0,0,.07.31c5.32,1.67,10.86,1.3,15.61,4.92a15.63,15.63,0,0,1,4.93,3.33,4.15,4.15,0,0,1,1.26,2.4,3.46,3.46,0,0,1,.53.35,33.85,33.85,0,0,1,7.07,7.22,6.67,6.67,0,0,1,1.08,2.52l.77.53.12.15c-.3.35-.57.71-.86,1.07a4.56,4.56,0,0,1-1.56,2.78c-1.86,1.65-5.5,1.78-7.05-.44-.35-.49-.7-1-1.07-1.42l-.08,0a2.92,2.92,0,0,0-4.31.36,6.81,6.81,0,0,0-1.36.11c0,.09,0,.19-.06.28a14.48,14.48,0,0,1-2.79,5.12l1.95,1.92a4.21,4.21,0,0,1,1.1,2c2.19,2.11,1,7.05-3,7.05a3.51,3.51,0,0,1-2.42-.85,5.57,5.57,0,0,1-3.16-1.59l-1.82-1.81a5.53,5.53,0,0,0-1.94.19,4.12,4.12,0,0,1-2,2.19c-.51.25-1,.49-1.55.71a7,7,0,0,0-.73,3,13.82,13.82,0,0,0,1.52,1,4.84,4.84,0,0,1,2.17,4.64l.82.64-1.52,1.51a1.19,1.19,0,0,1-.09.15,4.7,4.7,0,0,1-1.51,1.44c-.77.78-1.54,1.56-2.32,2.32-.91-.76-1.85-1.5-2.8-2.23l-.3-.14a20.67,20.67,0,0,1-2-1.34,6.27,6.27,0,0,0-6.46,1.89,6.8,6.8,0,0,0-2.8,5.11,2,2,0,0,1,.23.27c.23.32.44.66.66,1a4.19,4.19,0,0,1,2,1.92,3.49,3.49,0,0,1,.39,1.51,6,6,0,0,1,1.46.84c-.77.65-1.56,1.27-2.35,1.9a4.15,4.15,0,0,1-1.35,1.1h0l0,0a4.62,4.62,0,0,0-1.76,2.83c-1.41-1-2.82-2-4.25-2.89a47.1,47.1,0,0,0-8.91-8.54,40.05,40.05,0,0,1-7.5-17.71,5,5,0,0,0-.81-2.11c-.21-3.21-3.08-5.24-6-5.41q-3.13-3.16-6.49-6.11c-2.89-2.54-7.15,1.69-4.24,4.24,1.83,1.61,3.59,3.27,5.32,5a7.41,7.41,0,0,0-.43,1.23,3.59,3.59,0,0,1-2.09,2.83,5.94,5.94,0,0,0-2.06,1.9,7.44,7.44,0,0,0-1.7.75c-1.7-1.49-3.37-3-5-4.62-2.74-2.71-7,1.53-4.24,4.25q2.3,2.25,4.7,4.38a34.07,34.07,0,0,0-5.62,7.22,31.67,31.67,0,0,0-3.42-2.78c-.09-2.64-4-4.32-5.58-1.44v0a3,3,0,0,0,0,4.91c.53,1,1.27,2.05,1.92,3.19A9.86,9.86,0,0,0,243,338c0,.07,0,.13,0,.2a9.39,9.39,0,0,0,6.67,6.43c3.81.9,5.88-.91,8.91-2.69,4,5.24,9.25,9.82,14,14.17,1.47,1.35,3,2.68,4.46,4a5,5,0,0,0,1.19,1.81l33.64,32.78c3.45,3.36,10.3,1.2,10.24-3.94a33.84,33.84,0,0,0,4.62-5.42,2.25,2.25,0,0,0,.35-.87c.45-.35.86-.66,1.18-.94l2.23-2a5.83,5.83,0,0,0,5.88-4.26c.07-.23.16-.44.25-.66a7.4,7.4,0,0,1,1-1.5q8.86-8.22,17.19-17c8-8.42,15.56-17.22,22.77-26.31q6-5.4,11.47-11.32a5.47,5.47,0,0,0,2.51.29c.75-.74,1.55-1.42,2.37-2.09.72-.91,1.36-1.87,2.14-2.73a2.74,2.74,0,0,1,.61-.48A5,5,0,0,0,396.58,314.14Z" transform="translate(54.96 27.31)"/><path class="cls-7" d="M351.86,281.58l-.79-.29a19,19,0,0,0-3.28-2.78,4,4,0,0,0-4,0,4.12,4.12,0,0,0-2,3.48,5,5,0,0,0,1.81,4.33,4.48,4.48,0,0,0,1.07,2.28,8.55,8.55,0,0,0,3.57,2.28c1.84.72,3.53-.4,4.4-1.94a3.47,3.47,0,0,0,2-2.47A4.12,4.12,0,0,0,351.86,281.58Z" transform="translate(54.96 27.31)"/><path class="cls-7" d="M282.91,345.12l-.14-.11a9.47,9.47,0,0,0-.95-.6l-.07,0a4,4,0,0,0-5.22-1.2,4.08,4.08,0,0,0-1.51,5.46,35.22,35.22,0,0,0,2.45,4l0,.05c1,1.65,3.66,2.83,5.46,1.5l.38-.3a4,4,0,0,0,2.09-.59,4.55,4.55,0,0,0,1.69-6.18A4.23,4.23,0,0,0,282.91,345.12Z" transform="translate(54.96 27.31)"/><path class="cls-10" d="M361.08,343.42a89,89,0,0,0-9-6.79c-1.18-1.79-2.17-3.89-3.73-5.29-4-3.64-11.75-6.6-16.45-2.62s-8.13,9.69-5.25,15.43c2.53,5,7.16,12.8,12.66,16.14,0,3.57,4,6,7.5,4.51,2.83-1.23,4.72-4.33,6.65-6.62L359,351.6c2.2-.18,3.77-3,3.27-5.37A3.34,3.34,0,0,0,361.08,343.42Z" transform="translate(54.96 27.31)"/><path class="cls-9" d="M299.78,346.51c9.39,10.65,20.21,19.89,29.44,30.68a3.58,3.58,0,0,0,5,0l.31-.36a3.66,3.66,0,0,0,.58-4.21l-.27-.55a2.86,2.86,0,0,0-2.75-1.76c-10.1-8.71-21.25-16.14-31.53-24.63A.59.59,0,0,0,299.78,346.51Z" transform="translate(54.96 27.31)"/><path class="cls-9" d="M341.39,324.94c2.42,5.2,9,8.09,13,12,2.53,2.47,5.39,6.77,9,7.66,4,1,5.71-5.27,1.64-6.27-3.29-.82-6-4.25-8.72-6.18-4.08-2.91-9.52-6.83-14.49-7.74A.36.36,0,0,0,341.39,324.94Z" transform="translate(54.96 27.31)"/><path class="cls-9" d="M328.24,276.73a36.3,36.3,0,0,0,8.51-7.82,2.61,2.61,0,0,0,1-.47c3.86-2.91,3-10.13,3.31-14.5.2-3-4-3.8-5.4-1.42a100.89,100.89,0,0,1-5.91,8.52c-3.45,4-7,7.86-9.73,12.49a1.31,1.31,0,0,0,.21,1.57,13.2,13.2,0,0,0-3.07.74.6.6,0,0,0,.14,1.08C321.33,277.69,324.57,279,328.24,276.73Z" transform="translate(54.96 27.31)"/><path class="cls-9" d="M308.27,367.24c4.84,5.75,9.87,12.33,16,16.77,4,2.89,7.73-3.78,3.78-6.66-5.44-4-10.15-8.91-15.13-13.41-2.79-2.51-5.54-5.08-8.38-7.52s-6.29-4.31-8.63-7.27a1.51,1.51,0,0,0-.27-1.94c-6.73-6.37-14.05-12.06-20.89-18.3a.67.67,0,0,0-.94.94c6,7.06,13,13.08,19.46,19.74a1.49,1.49,0,0,0,1.59.42,30.14,30.14,0,0,0,5,6.87C302.82,360.22,305.41,363.84,308.27,367.24Z" transform="translate(54.96 27.31)"/><path class="cls-9" d="M387.15,317.36c3,3.74,9-1.95,5.36-5.36-16.6-15.56-32-32.23-49.74-46.52-.56-.46-1.59.13-1.1.84,6.22,9.22,15.57,15.93,23,24.1C372.53,299,379.87,308.28,387.15,317.36Z" transform="translate(54.96 27.31)"/><path class="cls-11" d="M239,320.93a1.5,1.5,0,0,0-2.18,0L231,327.21a1.51,1.51,0,0,0,.06,2.1c4.08,3.95,8.17,8,12.13,12l3.94,3.91a1.5,1.5,0,0,0,1.18.43l2.65-.22c2.41-.2,4.9-.41,7.34-.53q3.19,3.25,6.36,6.56c3.34,3.46,6.79,7,10.27,10.51,8.31,8.31,15.55,14.49,23.22,21,5.14,4.37,10.44,8.9,16.39,14.33-1.56,1.64-3.31,3.47-5.3,5.54a1.5,1.5,0,0,0,2.14,2.1c9.7-10.1,13.89-14.61,17-17.91,4-4.3,6-6.46,15.58-16l2.47-2.47c11.45-11.45,15.58-16,19.94-20.81,4.56-5,9.27-10.2,23-23.94,5.72-5.72,10.31-9.95,14.89-13.72a1.5,1.5,0,1,0-1.9-2.31c-1.82,1.5-3.65,3.07-5.54,4.77-6.45-6.32-12.19-11.67-17.74-16.84S367.58,285,361,278.54c-3.51-3.44-7.12-6.86-10.61-10.16-2.22-2.1-4.43-4.19-6.63-6.3.1-2.45.28-4.93.46-7.35.07-.88.14-1.77.2-2.65a1.52,1.52,0,0,0-.44-1.18L340.05,247c-4-3.93-8.1-8-12.1-12a1.5,1.5,0,0,0-2.1,0l-5.31,5a1.49,1.49,0,0,0,0,2.14c2.4,2.44,4.32,4.45,6.05,6.34-1.18,1.06-2.39,2.14-3.58,3.28l-.27-.26c-.7-.71-1.42-1.41-2.14-2.1s-1.42-1.38-2.12-2.08-1.1-1.11-1.63-1.68a1.49,1.49,0,0,0-1.05-.47,1.54,1.54,0,0,0-1.08.41l-5.45,5.22a1.46,1.46,0,0,0-.46,1.06,1.52,1.52,0,0,0,.42,1.07l1.5,1.51c1.23,1.23,2.29,2.26,3.36,3.3.71.68,1.42,1.37,2.18,2.12-.69.73-1.32,1.5-1.93,2.25l-1.24,1.48c-2.22-2.11-4.9-4.66-7.6-7.18a1.5,1.5,0,0,0-2.07,0c-2.28,2.21-3.77,3.67-4.43,4.34l-1.09,1.11a1.5,1.5,0,0,0,0,2.07c4.71,5.08,9.57,10.14,14.43,15a1.54,1.54,0,0,0,.85.43c4.42.63,8.59,1.17,12.72,1.67,4.53,4.77,10.16,10.31,16.19,16.08-2,1.83-4.28,3.93-6.06,5.52l-5.31-5.32a1.51,1.51,0,0,0-2.1,0c-2.64,2.52-5.17,5-7.51,7.36a1.5,1.5,0,0,0,0,2.12l.35.35c1.64,1.64,3.44,3.32,5.48,5.11-.94.84-1.91,1.66-2.85,2.46L322.59,316c-.9-.82-1.84-1.72-2.84-2.72s-1.72-1.75-2.57-2.64a1.45,1.45,0,0,0-1.09-.46,1.49,1.49,0,0,0-1.09.48c-1.56,1.68-3.27,3.25-4.93,4.78-.88.8-1.76,1.61-2.62,2.45a1.45,1.45,0,0,0-.47,1.06,1.55,1.55,0,0,0,.44,1.08c1.81,1.81,3.69,3.56,5.53,5.27-1.53,1.58-3.09,3.09-4.81,4.7l-.69-.68-1.32-1.34-1.35-1.36c-1.14-1.14-2-2-2.92-2.77a1.51,1.51,0,0,0-2.1.12c-.83.91-1.72,1.84-2.74,2.85-1.55,1.55-3.12,3-4.86,4.67a1.47,1.47,0,0,0-.47,1.12,1.49,1.49,0,0,0,.5,1.1c1.19,1,2.42,2.22,3.76,3.55.78.78,1.54,1.57,2.3,2.36-.66.66-1.34,1.3-2,1.95l-1.65,1.6c-6.42-6.05-12.43-11.7-17.45-16.35-.53-4.12-1.12-8.28-1.79-12.7a1.44,1.44,0,0,0-.44-.84c-4.93-4.81-10-9.62-15.16-14.29a1.49,1.49,0,0,0-2.07.05l-1.11,1.1c-.65.65-2.07,2.13-4.24,4.41a1.5,1.5,0,0,0,0,2.09c1,1,2,2,3,3,1.22,1.24,2.44,2.49,3.67,3.73-.65.55-1.32,1.1-2,1.63l-1.51,1.24c-.84-.81-1.71-1.66-2.62-2.57-1.2-1.21-2.39-2.42-3.57-3.65a1.5,1.5,0,0,0-1.09-.45,1.51,1.51,0,0,0-1.09.47l-5.35,5.69a1.51,1.51,0,0,0,.05,2.11c1.75,1.68,3.48,3.37,5.22,5.06l.48.47c-1,1.06-2,2.15-3,3.21l-.86-.85q-2.06-2.07-4.08-4.17Zm115.29,35.28c-2.34,2.42-5.18,5.32-8.8,9l-.94-.93-3.07-3c-7.49-7.37-14.57-14.33-14.6-21.1a11,11,0,0,1,2.64-6.94c2.85,2.66,5.77,5.31,8.61,7.88,5.11,4.61,10.39,9.39,15.31,14.31C353.76,355.63,354,355.92,354.32,356.21Zm2.07-2.17-.8-.81c-5-5-10.28-9.78-15.42-14.42-2.84-2.57-5.75-5.22-8.6-7.87,2.11-2,4.17-3,6.3-3,5.13,0,10.78,5.71,17.32,12.3,2.33,2.35,4.75,4.77,7.35,7.18C360.77,349.38,358.88,351.43,356.39,354Zm-42.33-77.55c-4.38-4.42-8.76-9-13-13.55l.08-.09c.53-.54,1.68-1.67,3.36-3.29,2.79,2.62,5.5,5.21,7.62,7.23a1.56,1.56,0,0,0,2.14-.06,35.91,35.91,0,0,0,2.4-2.74,27.91,27.91,0,0,1,2.74-3,1.49,1.49,0,0,0,.5-1.08,1.51,1.51,0,0,0-.44-1.1c-1.2-1.2-2.24-2.21-3.28-3.22s-2.11-2-3.33-3.26l-.41-.4,3.27-3.13.65.65c.71.71,1.43,1.41,2.15,2.11s1.41,1.37,2.11,2.07c.43.43.86.86,1.28,1.3a1.51,1.51,0,0,0,1.09.44,1.63,1.63,0,0,0,1.11-.47c1.48-1.48,3.08-2.91,4.63-4.29l1-.89a1.51,1.51,0,0,0,.49-1,1.46,1.46,0,0,0-.38-1.08c-1.78-2-3.69-4-6.09-6.46l3.13-3c3.69,3.71,7.46,7.42,11.11,11l3.44,3.39-.15,2c-.2,2.66-.4,5.41-.5,8.13a1.54,1.54,0,0,0,.46,1.13c2.37,2.28,4.75,4.53,7.14,6.79,3.48,3.29,7.08,6.7,10.57,10.12,6.6,6.48,12.44,11.92,18.09,17.18s11.19,10.43,17.58,16.68c-2.29,2.12-4.71,4.45-7.36,7.11s-5,5-7.08,7.13c-4.14-4-9.47-8.93-15.11-14.17-13-12.13-27.8-25.88-37.36-36a1.51,1.51,0,0,0-.92-.46C322.62,277.65,318.47,277.11,314.06,276.49Zm-15.75,67.2c1.05-1,2.11-2,3.11-3.07a1.5,1.5,0,0,0,0-2.07c-1.1-1.16-2.21-2.32-3.35-3.46-.93-.93-1.82-1.78-2.67-2.58,1.3-1.23,2.53-2.4,3.74-3.61.65-.65,1.25-1.27,1.82-1.86.51.48,1.06,1,1.7,1.65L304,330c.44.46.89.91,1.34,1.37l1.76,1.71a1.51,1.51,0,0,0,2,0c2.61-2.39,4.84-4.57,7-6.9a1.5,1.5,0,0,0-.07-2.13l-.17-.15c-1.74-1.63-3.54-3.3-5.29-5l1.46-1.35c1.33-1.21,2.69-2.47,4-3.8.5.53,1,1,1.53,1.56,1.41,1.41,2.71,2.63,4,3.73a1.49,1.49,0,0,0,2,0c.79-.7,1.6-1.39,2.4-2.07,1.4-1.18,2.85-2.41,4.2-3.7a1.43,1.43,0,0,0,.46-1.13,1.48,1.48,0,0,0-.52-1.09c-2.19-1.89-4.12-3.65-5.86-5.35,1.71-1.69,3.5-3.46,5.35-5.24l5.27,5.28a1.5,1.5,0,0,0,2.06.06c1.86-1.64,4.87-4.36,7.29-6.63,6.17,5.87,12.66,11.91,18.77,17.59C368.61,322,373.92,327,378,330.92c-6.78,6.94-10.25,10.73-13.49,14.3-2.54-2.36-4.92-4.75-7.23-7.07-7-7.07-13.07-13.18-19.45-13.19-3.08,0-5.95,1.36-8.78,4.19-.24.24-.45.49-.68.73l-.09.08a.54.54,0,0,0-.09.12c-2.91,3.21-4.34,6.5-4.32,10,0,8,7.55,15.41,15.5,23.23l3,3c.31.32.62.62.94.93l-1.59,1.59c-4.44,4.44-7.26,7.29-9.41,9.5-7.89-7-20.95-19.35-33.62-31.29-.68-.63-1.34-1.27-2-1.9C297.28,344.68,297.79,344.18,298.31,343.69ZM250.7,324.34a1.51,1.51,0,0,0,0-2.12l-1.54-1.5-4.16-4,3.26-3.47q1.25,1.28,2.52,2.55c1.28,1.28,2.48,2.45,3.65,3.56a1.5,1.5,0,0,0,2,0c.8-.7,1.64-1.38,2.47-2.06,1.1-.89,2.23-1.81,3.29-2.79a1.49,1.49,0,0,0,.05-2.16l-.15-.15c-1.55-1.55-3.09-3.12-4.63-4.69l-1.95-2c1.6-1.67,2.67-2.79,3.2-3.31l.08-.09c4.62,4.23,9.22,8.57,13.68,12.9.66,4.4,1.25,8.55,1.77,12.67a1.49,1.49,0,0,0,.47.91c6.16,5.71,13.87,13,22,20.67,12.64,11.9,25.67,24.19,33.6,31.27-1.44,1.51-2.67,2.83-4.17,4.45-2.13,2.29-4.81,5.19-9.52,10.14-6-5.49-11.34-10-16.51-14.45-7.62-6.49-14.83-12.63-23.05-20.86-3.46-3.45-6.9-7-10.23-10.47-2.28-2.37-4.55-4.73-6.85-7.07a1.48,1.48,0,0,0-1.13-.44c-2.72.12-5.47.35-8.13.58l-1.95.16-3.45-3.43c-3.63-3.61-7.37-7.33-11.11-11,1.1-1.19,2.37-2.56,3.75-4,1.19,1.23,2.39,2.46,3.6,3.67.66.66,1.33,1.32,2,2a1.5,1.5,0,0,0,2.15-.07l.45-.49C247.65,327.61,249.16,325.93,250.7,324.34Z" transform="translate(54.96 27.31)"/><path class="cls-11" d="M280.36,357.76a1.56,1.56,0,0,0,1.1.43,1.53,1.53,0,0,0,1-.44l.06-.06c2.23-2.49,4.56-5,6.92-7.36a1.5,1.5,0,0,0,.05-2l-.43-.5c-.81-.92-1.65-1.88-2.54-2.76-4.6-4.61-9-5.44-12.2-2.29-2.34,2.35-2.78,6.65,1.54,11,.78.78,1.62,1.5,2.44,2.21S279.74,357.15,280.36,357.76Zm-3.9-12.9c2.46-2.47,6,.37,8,2.29.65.65,1.3,1.36,1.92,2.07-1.7,1.75-3.38,3.54-5,5.34l-1.05-.92c-.78-.67-1.58-1.36-2.27-2.05C274.94,348.54,275.26,346.06,276.46,344.86Z" transform="translate(54.96 27.31)"/><path class="cls-11" d="M347.85,293.22a1.52,1.52,0,0,0,1.1.43,1.49,1.49,0,0,0,1-.44l.06-.06c2.23-2.48,4.56-5,6.92-7.36a1.5,1.5,0,0,0,.05-2l-.43-.49c-.81-.92-1.65-1.88-2.54-2.77-4.6-4.6-9-5.44-12.2-2.29-2.34,2.35-2.78,6.65,1.54,11,.78.77,1.62,1.5,2.44,2.2S347.23,292.61,347.85,293.22Zm-3.91-12.9c2.47-2.46,6.05.38,8,2.29.65.65,1.3,1.37,1.92,2.08-1.7,1.75-3.38,3.53-5,5.33l-1.05-.91c-.78-.67-1.58-1.36-2.27-2.06C342.43,284,342.75,281.52,343.94,280.32Z" transform="translate(54.96 27.31)"/></g><g id="Réteg_5" data-name="Réteg 5"><path class="cls-18" d="M597.54,157.33c-1.69-1.44-4.21-1.89-6.08-3.11-2.41-1.56-4.48-3.64-6.77-5.36a24.37,24.37,0,0,0-3.2-2c-2.12-2.59-4.57-6-7.54-7-1.89-.59-3.57.06-5.26.79a7.16,7.16,0,0,0-2.27.27c-4.27-1.08-7.43-.1-11.37,1.67-4.61,2.07-9.28,0-13.85,1.46-4.85,1.58-4.6,6.92-5.71,11-1.46,5.4-3.89,10.45-5.71,15.73a10.34,10.34,0,0,0-1.17,2.52,10.15,10.15,0,0,0-.75,2,7,7,0,0,0-.89,1.31,4.1,4.1,0,0,0,.65,4.8l0,0a10.51,10.51,0,0,0,1,2.74,11,11,0,0,0,3.06,4.83l3.09,2.36.45.22a17.09,17.09,0,0,0,3.66,2.69c-.07,0,0,0,.19.05,4.92,4.87,9.88,9.69,14.82,14.54a4,4,0,0,0,6.4-1.23c.46,0,.92.05,1.4,0,4.42-.14,6.58-1.39,10.16-1.52a23.68,23.68,0,0,0,11-3.18,14.92,14.92,0,0,0,10.58-10.36c2-7,4.87-14.39,4.83-21.76,0-.29,0-.57,0-.85a4.19,4.19,0,0,0,.72-1.36C600.05,165.2,600.66,160,597.54,157.33Z" transform="translate(54.96 27.31)"/><path class="cls-9" d="M594.38,190c0-1.27-.14-2.53-.27-3.79a86.92,86.92,0,0,0,2.48-10.61,5.12,5.12,0,0,0,.44-1.72c.26-2.91.73-5.77.73-8.7a4.91,4.91,0,0,0-.55-2.3c.08-.22.18-.43.25-.65.81-2.33-.68-4.49-2.43-5.79l-3.49-2.58c-3.47-5.78-8.61-10.19-15.52-11-3.12-.35-5.28,3.8-3.66,6.29,3.24,5,8.12,8.7,12.82,12.4.15.38.29.77.42,1.15a4.05,4.05,0,0,0-.42,4,4.94,4.94,0,0,0-2.3,3.95,46.34,46.34,0,0,0,.32,7.73A68.19,68.19,0,0,0,567,168.7c-1.76-.72-4.1,1.51-2.27,3,7.8,6.3,14.4,14.6,21.47,21.75C589,196.34,594.5,194.23,594.38,190Z" transform="translate(54.96 27.31)"/><path class="cls-9" d="M598.72,163.75c1,10.43-3.36,21-4.77,31.15-.26,1.93,1.3,4.51,3.62,3.62,5.94-2.3,7.62-11.14,8.9-16.62,1.35-5.81,3.5-13.46,2.14-19.43C607.38,157,598.16,158,598.72,163.75Z" transform="translate(54.96 27.31)"/><path class="cls-11" d="M553.69,210.82a1.49,1.49,0,0,0,1.46.38c4.67-1.29,9.53-2.23,14.24-3.14,9.13-1.77,18.57-3.6,27.24-8.09a2,2,0,0,0,.37-.27,1.55,1.55,0,0,0,.43-1,1.52,1.52,0,0,0-.67-1.34l-1.85-1.22c2-11.33,4.83-22.69,7.54-33.69l.31-1.23a1.49,1.49,0,0,0-.54-1.54l-3.59-2.8c-8.25-6.41-16.79-13.05-24.76-20.14a1.5,1.5,0,0,0-1.36-.33,347.35,347.35,0,0,1-34.57,6.78,1.5,1.5,0,0,0-1.18,1,365.17,365.17,0,0,0-12.12,37.23,1.5,1.5,0,0,0,.4,1.44q6.29,6.18,12.58,12.27C542.91,200.23,548.37,205.53,553.69,210.82Zm7.93-35.53a1.5,1.5,0,0,1-1.15-1.78l.21-.92c-4,1-8.21,1.78-13,2.69-5.67,1.09-12,2.3-19.38,4.05,2.68-9.86,6.2-20.54,11-33.28,11.37-1.7,21.75-3.72,31.62-6.13.31-.78.63-1.56,1-2.33a1.5,1.5,0,0,1,2.75,1.19c-.27.63-.52,1.27-.79,1.91,7.48,6.52,15.35,12.64,23,18.58l2.82,2.2-.07.29c-2.62,10.62-5.32,21.6-7.35,32.59-9.17-6.17-18.5-12.91-26.61-21l-1-1a1.49,1.49,0,0,0-.72-.41c-.16.73-.34,1.46-.49,2.19a1.5,1.5,0,0,1-.41.74,1.35,1.35,0,0,1-.58.36l.67-.16.37.38c9,9,19.4,16.3,29.46,23-7.67,3.49-16,5.1-24.1,6.67-4.49.87-9.11,1.76-13.63,3-5.14-5.1-10.39-10.19-15.48-15.13q-5.48-5.3-10.94-10.65c7.38-1.77,13.77-3,19.46-4.07,5.19-1,9.75-1.87,14-2.95A1.53,1.53,0,0,1,561.62,175.29Z" transform="translate(54.96 27.31)"/><path class="cls-11" d="M563,174.88a1.5,1.5,0,0,0,.41-.74c.15-.73.33-1.46.49-2.19a193.93,193.93,0,0,1,9.9-31.26c.27-.64.52-1.28.79-1.91a1.5,1.5,0,0,0-2.75-1.19c-.33.77-.65,1.55-1,2.33a196.69,196.69,0,0,0-10.2,32.67l-.21.92a1.5,1.5,0,0,0,1.15,1.78,1.53,1.53,0,0,0,.64,0l.16,0A1.35,1.35,0,0,0,563,174.88Z" transform="translate(54.96 27.31)"/><path class="cls-11" d="M547,185.74a1.49,1.49,0,0,0-2.54,1.25,1.51,1.51,0,0,0-1.31,1.2,3.36,3.36,0,0,0,.89,3.14,3.22,3.22,0,0,0,4.55.13,2.81,2.81,0,0,0,.78-2.35,4.33,4.33,0,0,0-1.32-2.4l-.6-.56Zm-.69,3.57a.3.3,0,0,1-.15-.1.26.26,0,0,1-.09-.22A2,2,0,0,1,546.29,189.31Z" transform="translate(54.96 27.31)"/><path class="cls-11" d="M565,196.86c.15.14.27.28.39.41s.27.31.41.45c1.23,1.23,3.33,1.6,5.27-.34,1.18-1.18,1-4-.07-5.08a3.62,3.62,0,0,0-2.69-.9,1.51,1.51,0,0,0-1.5,1.35,1.47,1.47,0,0,0-1-.41,1.5,1.5,0,0,0-1.5,1.5c0,.09,0,.18,0,.28A3.14,3.14,0,0,0,565,196.86Zm2.64-1.57c-.13-.15-.27-.3-.43-.46,0-.11,0-.27,0-.39a3.42,3.42,0,0,0,0-.44,1.5,1.5,0,0,0,1,.4,4,4,0,0,1,.5,0,3,3,0,0,1,0,.94c-.6.55-.81.33-.92.23Z" transform="translate(54.96 27.31)"/><path class="cls-11" d="M584.23,169.15c2.15-2.14,1.49-5.31.51-6.94a2.33,2.33,0,0,0-.27-.35,3,3,0,0,0-2.29-.66H582a1.5,1.5,0,0,0-1.5,1.5,1.56,1.56,0,0,0,.18.71,1.5,1.5,0,0,0-1.64.32c-1.48,1.48-.67,3.94.46,5.07S582.94,170.45,584.23,169.15Zm-3-3.38a1.5,1.5,0,0,0,.18-1.69,1.62,1.62,0,0,0,.58.12h.35a2.7,2.7,0,0,1-.19,2.74,1.06,1.06,0,0,1-.54-.27A1.5,1.5,0,0,1,581.28,165.77Z" transform="translate(54.96 27.31)"/><path class="cls-11" d="M537.21,167.49a2.68,2.68,0,0,0-.58.89,1.47,1.47,0,0,0-.58,1.17,1.25,1.25,0,0,1,0,.19,2.36,2.36,0,0,0,.49,2.19,2.07,2.07,0,0,0,1.9.58,2.67,2.67,0,0,0,1.33-.75,3.1,3.1,0,0,0,.28-4.35A2,2,0,0,0,537.21,167.49Z" transform="translate(54.96 27.31)"/><path class="cls-11" d="M552.63,163.37a1.51,1.51,0,0,0-.67,2,1.4,1.4,0,0,0,.1.16h-.12a1.5,1.5,0,0,0-1.5,1.5,2.76,2.76,0,0,0,.77,2c1.17,1.17,3.06,1,4.5-.47,1.64-1.64,1.61-3.86.55-4.92A3.08,3.08,0,0,0,552.63,163.37Zm.75,3.26a1.62,1.62,0,0,0-.2-.42,1.43,1.43,0,0,0,.67-.1A1.92,1.92,0,0,1,553.38,166.63Z" transform="translate(54.96 27.31)"/><path class="cls-11" d="M544.64,149.74a9,9,0,0,1-2.1,2.64,3.28,3.28,0,0,0,1,2.36,3.11,3.11,0,0,0,4.42.2c1.49-1.49.88-3.92-.21-5A2.38,2.38,0,0,0,544.64,149.74Z" transform="translate(54.96 27.31)"/><path class="cls-11" d="M557.83,148.66a1.48,1.48,0,0,0-1.11,1,2.75,2.75,0,0,0,.41,2.94,2.57,2.57,0,0,0,2.29.73,3.33,3.33,0,0,0,1.7-.94c1.24-1.24,1.42-2.92.42-3.92A2.46,2.46,0,0,0,557.83,148.66Z" transform="translate(54.96 27.31)"/></g></g></svg>