<svg xmlns="http://www.w3.org/2000/svg" viewBox="0 0 193 193"><defs><style>.cls-1{isolation:isolate;}.cls-2{fill:#82cecd;}.cls-3{fill:#d9e6ed;}.cls-4{fill:#e0dfe6;mix-blend-mode:multiply;}.cls-5{fill:#4e4f7d;}</style></defs><title>ido</title><g class="cls-1"><g id="Réteg_4" data-name="Réteg 4"><rect class="cls-2" width="193" height="193" rx="49.95"/></g><g id="Réteg_2" data-name="Réteg 2"><path class="cls-3" d="M370.06,314.05l4.93-5.5a21.72,21.72,0,0,1,6-4c.36-1.75.69-3.57.94-5.44,4.77-3.45,9.34-7.35,12.34-12.22,8.49-13.74,4.15-33.82-2-47.58a70.84,70.84,0,0,0-32.51-33.91,81.84,81.84,0,0,0-48.58-7.61c-8.32,1.21-16.3,3.69-23,8.89a103,103,0,0,0-17.14,17.08c-10.92,13.76-13,31.54-9.74,48.42,1.73,8.84,5.15,17.27,8.91,25.42,3.57,7.76,7.17,17.18,14.3,22.36a22.74,22.74,0,0,0,12,4A9.57,9.57,0,0,0,302,327.8a149.16,149.16,0,0,0,21.73,4.61l4.6.62a23.8,23.8,0,0,1,3.33-.82c3.38-.58,6.81-.75,10.21-1.17A28.11,28.11,0,0,1,360.43,322a5.93,5.93,0,0,0,.23-1.19,19.15,19.15,0,0,0,2.17-1.34c.26-.18.51-.37.76-.56a22.24,22.24,0,0,0,4.2-.8A28.65,28.65,0,0,1,370.06,314.05Z" transform="translate(-230 -170)"/></g><g id="Réteg_3" data-name="Réteg 3"><path class="cls-4" d="M264.41,285.1c-.76-2.37-4.44-2-4.43.6.14,27.34,18,58.89,46.39,64.59,17.5,3.5,37.25-1.65,53.17-11.83a99,99,0,0,0,28.32-23C401.3,299.83,404,283.37,405,263.29c.22-4.32-5.89-4.71-7.19-1-4.6,13.27-10.11,24.74-19,34.72a15.19,15.19,0,0,0-18.56.92c-13.24,11.42-27.1,23.31-45.17,25.61C291,326.63,271.33,306.77,264.41,285.1Z" transform="translate(-230 -170)"/></g><g id="Réteg_1" data-name="Réteg 1"><path class="cls-5" d="M353.57,195a119.72,119.72,0,0,0-18.3-5.67c0-.13,0-.25,0-.38a22.86,22.86,0,0,1-3.8-.78c-.58,0-1.17,0-1.77-.1h-.53a29.45,29.45,0,0,1-5.34-.86c0,.19,0,.38,0,.58l-1.59-.11c-.81,0-1.61,0-2.41,0-32,0-65.11,28.58-65.11,76.41,0,1.84.09,3.68.2,5.52h-.32a30.64,30.64,0,0,1,1.11,8.64c.24.9.44,1.8.6,2.71h.1c5.88,29.7,27.7,55.54,68.66,55.54,35.3,0,76.33-33.1,76.33-75.77C401.4,231.1,377.08,204.05,353.57,195Zm-28.5,130.06c-43.5,0-58.94-32.87-58.94-61,0-31.26,20.53-65,53.7-65,.65,0,1.31,0,2,0,9.81.38,17.86,2.79,27.68,6.57,19.91,7.66,40.5,30.34,40.5,55C390,296.36,354.47,325.07,325.07,325.07Z" transform="translate(-230 -170)"/><path class="cls-5" d="M284.38,261a10.14,10.14,0,0,0-6.54-.42,5.7,5.7,0,0,0,2.47,11.08,10.06,10.06,0,0,0,3.89.86,8.53,8.53,0,0,0,2.64-.43A5.71,5.71,0,0,0,284.38,261Z" transform="translate(-230 -170)"/><path class="cls-5" d="M324.5,301.81a5.69,5.69,0,0,0-3.61,7.21,20.36,20.36,0,0,1,.38,5,5.71,5.71,0,1,0,11.42,0,27.38,27.38,0,0,0-1-8.56A5.7,5.7,0,0,0,324.5,301.81Z" transform="translate(-230 -170)"/><path class="cls-5" d="M370.94,268.29h4.73a5.71,5.71,0,1,0,0-11.42h-4.73a5.71,5.71,0,1,0,0,11.42Z" transform="translate(-230 -170)"/><path class="cls-5" d="M320.6,211.18a5.64,5.64,0,0,0,2.19,4.46,5.69,5.69,0,0,0-5.55,5.17c-.68,7.42-1.2,14.76-1.72,22.09-.72,10-1.46,20.39-2.59,30.6a5.71,5.71,0,0,0,3.38,5.86l4.94,2.14c11.49,5,22.34,9.7,32.59,15.75a5.7,5.7,0,0,0,5.8-9.82C348.78,281,337.1,275.94,325.8,271l-1.08-.47c.91-9,1.55-18.07,2.18-26.85.52-7.25,1-14.52,1.71-21.87a5.69,5.69,0,0,0-2.13-5,5.7,5.7,0,0,0,5.53-5.69v-4.73a5.71,5.71,0,1,0-11.41,0Z" transform="translate(-230 -170)"/></g></g></svg>