<svg xmlns="http://www.w3.org/2000/svg" viewBox="0 0 194 194"><defs><style>.cls-1{isolation:isolate;}.cls-2{fill:#d9e6ed;}.cls-3{fill:#edbf2e;}.cls-4{fill:#f5b6a3;}.cls-5{fill:#dd708d;}.cls-6{fill:#e0dfe6;mix-blend-mode:multiply;}.cls-7{fill:#4e4f7d;}</style></defs><title>jatekosok</title><g class="cls-1"><g id="Réteg_3" data-name="Réteg 3"><rect class="cls-2" width="194" height="194" rx="49.96"/></g><g id="Réteg_4" data-name="Réteg 4"><path class="cls-3" d="M272.42,243.77c0-4.7-3.28-8.59-5.71-12.32a10.12,10.12,0,0,0-3-3,20.06,20.06,0,0,0,2.94-7.34,19.55,19.55,0,0,0-.32-11.9,9.8,9.8,0,0,0-4.29-5.4,12.43,12.43,0,0,0-3-2.77c-6.81-4.2-15.6-2-21.12,3.33,0,.57,0,1.14,0,1.71a24.81,24.81,0,0,1-.79,5.79l.26,3.86a30,30,0,0,1-.6,4.28,21.77,21.77,0,0,1,.41,5.66c1.16,1.22,2.43,2.38,3.74,3.55.3.27.6.52.9.77-.18,1.17-.4,2.33-.65,3.49a50.26,50.26,0,0,0-2.69,6.85c-7.85,3.28-6.67,17.31,3.57,17.31.33,0,.65,0,1,0a9.9,9.9,0,0,0,6.11-.12c1.71.13,3.46.14,5.14.17,6.61.11,15.12.88,17.36-7.22a11,11,0,0,0,.32-3.44A11.23,11.23,0,0,0,272.42,243.77Z" transform="translate(-219 -146)"/></g><g id="Réteg_5" data-name="Réteg 5"><path class="cls-4" d="M331.53,276.18c-1.27-3.82-3.39-6.65-5.55-9.72a9.16,9.16,0,0,0,.89-2.11c.18-1.14.35-2.27.53-3.4a6.67,6.67,0,0,0,.3-1.64,15.31,15.31,0,0,0,5.2-10.5,12.1,12.1,0,0,0-2.3-12.9c-4-6.92-12.59-8.63-20.43-6.95-8.8,1.89-12.73,10-12.49,18.45a15.09,15.09,0,0,0,4.89,11,56.67,56.67,0,0,0,6.17,5.54l-.14.05a12,12,0,0,0-1.3.55,9.11,9.11,0,0,0-3.05,2.64,11.55,11.55,0,0,0-4.62,5,10.33,10.33,0,0,0-1.06,5.7c-.09.27-.17.55-.24.83a9.31,9.31,0,0,0-.65.94c-.14.23-.26.45-.38.68a9.54,9.54,0,0,0-2.59,7.68c-.39,4.76,2.48,9.83,8.64,9.83a8.71,8.71,0,0,0,4.89-1.39c.72.1,1.55.23,2.74.35a15.49,15.49,0,0,0,6.24-.69,8.28,8.28,0,0,0,6.48,2.77,9,9,0,0,0,1.18-.08c4.52,0,8.91-2.84,8.61-8.66C333.25,285.49,333,280.62,331.53,276.18Z" transform="translate(-219 -146)"/></g><g id="Réteg_6" data-name="Réteg 6"><path class="cls-5" d="M392.75,245.86l-.48-.76a5.5,5.5,0,0,0-.15-.65,10,10,0,0,0-.72-1.67,8.31,8.31,0,0,0-1.07-6.09c-1.93-2.66-4-5.24-6.13-7.69a10,10,0,0,0,3.24-6.24,7.14,7.14,0,0,0,.92-4.12l-.08-1c1-4.66.93-9.28-2.71-12.1a13.55,13.55,0,0,0-3.41-5.2c-4.47-4.21-11.52-4-16.12-.2-4.19,3.48-5.27,8.46-6.12,13.51a10.09,10.09,0,0,0,1.75,12.17,8.23,8.23,0,0,0,2,1.44c0,1.26-.11,2.56-.09,3.72l-.19.17C358.58,236,357.48,242.41,357,249c-.31,4.71,4.37,9.21,9,9a9.54,9.54,0,0,0,4.59-1.35l.6-.16a12.71,12.71,0,0,0,1.78.28,40.36,40.36,0,0,0,12.72-1.17,7.4,7.4,0,0,0,1.36.12,6,6,0,0,0,4.44-1.76A6.51,6.51,0,0,0,392.75,245.86Z" transform="translate(-219 -146)"/></g><g id="Réteg_1" data-name="Réteg 1"><path class="cls-6" d="M294.55,294.2c11.06,4.12,24.23,7.1,36.08,5.59,8.94-1.14,8.93-12.14,2.2-14.26a45.16,45.16,0,0,0-1.35-30.91c-.79-1.87-2.48-4.64-2.07-5.64.66-1.61,3.12-3,4-4.9,2.07-4.6.91-8.65-2-12.4-1.62-2.08-4.24-1.34-5.65.38,0-.17.05-.34.07-.51.48-3.71-3.27-7.1-6.62-7.5a7.72,7.72,0,0,0-8.38,5.47c-1.35,3.83-1.33,8.72-3.47,12.25-1.48,2.44-6.44,2.38-9,2.88-3.32.64-4,5.85-1,7.34,6.12,3,13.28,3.78,18.93-.79.06,0,.11-.11.17-.15a22.27,22.27,0,0,0,.65,4,56.13,56.13,0,0,1,1.16,6.26c-.7-1.31-1.44-2.59-2.25-3.84-3.29-5.11-11.41-1.91-9.88,4.16a49.38,49.38,0,0,1,1.27,15.64,19.4,19.4,0,0,1-10.25,2.68c-3.34-.05-4.68,4.26-2.82,6.34A4.21,4.21,0,0,0,294.55,294.2ZM324.92,236a3.8,3.8,0,0,1-1.18,3.86A37.13,37.13,0,0,0,324.92,236Zm-11.23,50.74a3.69,3.69,0,0,1-.09.58c-.84.05-1.69.08-2.53.1C312,287.18,312.83,287,313.69,286.69Z" transform="translate(-219 -146)"/><path class="cls-6" d="M357.59,257.78a192.94,192.94,0,0,0,33.55,1.39,5.22,5.22,0,0,0,3.58-1.52,7.87,7.87,0,0,0,2.06-.71c6.21-3.2,4.2-12,2.5-17.37a34.16,34.16,0,0,0-10.22-15.85,3.87,3.87,0,0,0-1.59-.83c6.51-6,5.95-17.63-.51-23.76a3.32,3.32,0,0,0-5.18,1.06,8.47,8.47,0,0,0-2.86-2.23,3.16,3.16,0,0,0-4.67,2.68c-.38,3.31,1.19,6.57,1.14,9.94a23.93,23.93,0,0,1-2.52,9.81,6.41,6.41,0,0,0,.51,6.44,4,4,0,0,0,.11,1.49c1,3.44,1.81,6.9,2.49,10.41s.67,7.12,2.21,10.5a189.5,189.5,0,0,0-20.6,3.4C355.17,253.19,354.92,257.41,357.59,257.78Zm25.34-29.66c0,.08.07.16.12.24a34.23,34.23,0,0,1,4.23,9.82,25.39,25.39,0,0,1,.68,4.42,74.92,74.92,0,0,0-2.65-7.18c-.88-2.29-1.84-4.56-2.83-6.81A5.34,5.34,0,0,0,382.93,228.12Z" transform="translate(-219 -146)"/><path class="cls-6" d="M262.79,219.76a4.06,4.06,0,0,0-1.59-.83,15.51,15.51,0,0,0,4.51-12.84,30.16,30.16,0,0,1-5.23-6.69,21.44,21.44,0,0,1-5.69-1.91,31.67,31.67,0,0,1-6.85.82c.14,2.76,1.21,5.5,1.17,8.32a23.77,23.77,0,0,1-2.52,9.8,6.38,6.38,0,0,0,.52,6.44,3.65,3.65,0,0,0,.11,1.49c1,3.44,1.81,6.91,2.49,10.42s.67,7.11,2.2,10.49a187.49,187.49,0,0,0-20.6,3.41c-2.42.55-2.66,4.77,0,5.14a192.94,192.94,0,0,0,33.55,1.39,5.2,5.2,0,0,0,3.58-1.52,7.58,7.58,0,0,0,2.07-.71c6.2-3.2,4.19-12,2.5-17.37A34.37,34.37,0,0,0,262.79,219.76ZM259,231.46c-.87-2.29-1.83-4.56-2.82-6.8.15-.16.3-.32.44-.5,0,.08.07.16.12.24a34,34,0,0,1,4.24,9.82,25.52,25.52,0,0,1,.67,4.42A74.92,74.92,0,0,0,259,231.46Z" transform="translate(-219 -146)"/></g><g id="Réteg_2" data-name="Réteg 2"><path class="cls-7" d="M304.54,260.88a2.38,2.38,0,1,1,3.12,3.59c-.41.35-.8.72-1.19,1.1a21.4,21.4,0,0,0,9.1,1.93,20.32,20.32,0,0,0,8.81-2c-.37-.53-.74-1.06-1.15-1.55a2.38,2.38,0,1,1,3.68-3c.53.65,1,1.33,1.49,2A23,23,0,0,0,337,245.44c0-15-14.59-20.62-23.78-20.62a16.25,16.25,0,0,0-11.47,4.25,22.87,22.87,0,0,0-7.22,16.75A22.35,22.35,0,0,0,302.38,263C303.07,262.24,303.79,261.53,304.54,260.88Zm-5.27-15.06a18.13,18.13,0,0,1,5.7-13.27,11.66,11.66,0,0,1,8.23-3c.19,0,19,.43,19,15.86,0,7.25-5.78,17.3-16.65,17.3C305,262.74,299.27,254,299.27,245.82Z" transform="translate(-219 -146)"/><path class="cls-7" d="M294.39,299h2.17q5.4,0,10.83-.05c6.75,0,15.63.07,24.46.65H332a2.38,2.38,0,0,0,2.35-2,69.9,69.9,0,0,0,.81-10.38c0-9.7-2.29-17.82-6.77-24.22-.48-.69-1-1.37-1.49-2a2.38,2.38,0,1,0-3.68,3c.41.49.78,1,1.15,1.55,4,5.62,6,12.88,6,21.67a63.5,63.5,0,0,1-.47,7.52c-8.22-.46-16.3-.53-22.56-.53-3.62,0-7.22,0-10.82.05,0-.79-.06-1.59-.06-2.38,0-10.45,3.7-20.13,10-26.28.39-.38.78-.75,1.19-1.1a2.38,2.38,0,1,0-3.12-3.59c-.75.65-1.47,1.36-2.16,2.09-6.7,7-10.63,17.6-10.63,28.88a44.29,44.29,0,0,0,.28,5A2.37,2.37,0,0,0,294.39,299Z" transform="translate(-219 -146)"/><path class="cls-7" d="M365.68,227.1a16.45,16.45,0,0,1-5.57-12.4c0-6.21,6.07-15.42,14.45-15.42a11.64,11.64,0,0,1,2.92.38c3.38.89,6,3.06,7.88,6.63,1.4,2.59,2.83,5.65,2.83,8.7,0,6.66-4.54,16.3-12.73,16.3a15.4,15.4,0,0,1-9.77-4.17,2.07,2.07,0,0,1,0,2.92c-.45.45-.86.94-1.27,1.44a17.81,17.81,0,0,0,11,4,14.25,14.25,0,0,0,9.61-3.73c-.45-.56-.89-1.13-1.38-1.67a2.07,2.07,0,0,1,3.09-2.76c.38.43.73.89,1.09,1.34A24.28,24.28,0,0,0,392.33,215c0-4-1.68-7.62-3.32-10.66a16.47,16.47,0,0,0-10.48-8.67,15.29,15.29,0,0,0-4-.52c-8.6,0-18.59,8.55-18.59,19.56a21.86,21.86,0,0,0,5.47,13.92c.43-.51.86-1,1.32-1.5A2.08,2.08,0,0,1,365.68,227.1Z" transform="translate(-219 -146)"/><path class="cls-7" d="M355.46,257.42a2.06,2.06,0,0,0,2,1.63h.23a247.32,247.32,0,0,1,35.21-1.6,2.09,2.09,0,0,0,2.09-1.62,29.05,29.05,0,0,0,.7-6.37,33.11,33.11,0,0,0-7.84-20.84c-.36-.45-.71-.91-1.09-1.34a2.07,2.07,0,0,0-3.09,2.76c.49.54.93,1.11,1.38,1.67a28.93,28.93,0,0,1,6.5,17.75,24.22,24.22,0,0,1-.29,3.8,251.5,251.5,0,0,0-32.11,1.47,34.68,34.68,0,0,1-.43-5.5c0-7,2.06-13.3,5.69-17.74.41-.5.82-1,1.27-1.44a2.07,2.07,0,0,0-2.94-2.92c-.46.47-.89,1-1.32,1.5-4.35,5.2-6.84,12.57-6.84,20.6A39.36,39.36,0,0,0,355.46,257.42Z" transform="translate(-219 -146)"/><path class="cls-7" d="M243.88,227.63a16.49,16.49,0,0,1-5.56-12.4c0-6.21,6.06-15.43,14.45-15.43a11.57,11.57,0,0,1,2.91.38c3.39.89,6,3.06,7.89,6.63,1.4,2.59,2.82,5.66,2.82,8.7,0,6.66-4.53,16.3-12.73,16.3a15.36,15.36,0,0,1-9.76-4.17,2.07,2.07,0,0,1,0,2.92c-.44.45-.86.94-1.26,1.44a17.8,17.8,0,0,0,11,3.95,14.28,14.28,0,0,0,9.61-3.72c-.44-.57-.89-1.13-1.37-1.67a2.07,2.07,0,1,1,3.08-2.77c.39.44.74.89,1.1,1.34a24.34,24.34,0,0,0,4.45-13.62c0-4-1.68-7.61-3.32-10.66-2.46-4.57-6-7.49-10.47-8.67a15.79,15.79,0,0,0-4-.52c-8.6,0-18.59,8.55-18.59,19.57a21.85,21.85,0,0,0,5.47,13.91c.42-.51.85-1,1.32-1.5A2.06,2.06,0,0,1,243.88,227.63Z" transform="translate(-219 -146)"/><path class="cls-7" d="M233.66,257.94a2.08,2.08,0,0,0,2,1.64l.22,0A245.92,245.92,0,0,1,271.13,258a2.1,2.1,0,0,0,2.09-1.63,29.65,29.65,0,0,0,.7-6.36,33.11,33.11,0,0,0-7.84-20.85c-.36-.45-.71-.9-1.1-1.34a2.07,2.07,0,1,0-3.08,2.77c.48.54.93,1.1,1.37,1.67A28.86,28.86,0,0,1,269.78,250a25.49,25.49,0,0,1-.29,3.8,248.1,248.1,0,0,0-32.12,1.47,36,36,0,0,1-.43-5.5c0-7,2.07-13.3,5.7-17.75.4-.5.82-1,1.26-1.44a2.07,2.07,0,0,0-2.93-2.92c-.47.47-.9,1-1.32,1.5-4.36,5.2-6.85,12.57-6.85,20.61A39.26,39.26,0,0,0,233.66,257.94Z" transform="translate(-219 -146)"/></g></g></svg>