<svg xmlns="http://www.w3.org/2000/svg" viewBox="0 0 400.41 400"><title>kamera</title><g style="isolation:isolate"><rect width="400.41" height="400" fill="#edbf2e"/><path d="M347.74,150.28a22,22,0,0,0-2.79-11.8,23.27,23.27,0,0,0-7.57-16.37c-6.14-5.65-13.62-7.48-21.37-7.66-1-.17-2-.3-3-.4a13.38,13.38,0,0,0-7.17-2.7l-16.59-1.17c-1.54-1.08-3.14-2.06-4.77-3a98.54,98.54,0,0,0-22.67-31,11.5,11.5,0,0,0-8.87-3.09,19,19,0,0,0-8.13-3.8c-10.77-1.9-20.42-2-31.15.46-.66.16-1.3.35-1.94.56a57.53,57.53,0,0,0-18.33,5c-9.54,4.43-19.12,12.32-29.15,18.93a103.84,103.84,0,0,0-11.44,3.69,50.32,50.32,0,0,0-5.51.7c-3.84.8-7.65,1.73-11.43,2.74a33.31,33.31,0,0,0-6.44-1.21,101.81,101.81,0,0,0-17.72,0,42.51,42.51,0,0,0-41.48,14c-6.48,4.29-10.36,11-9.6,21.43a12.17,12.17,0,0,0,1.11,4.25c-4.35,11.5-6.77,23.77-6,35.78l-2.08,2.56c-2,2.49-3.44,5-3.44,8.29a12.21,12.21,0,0,0,2.8,7.62c.08.27.17.53.27.79A50,50,0,0,0,51,222.1c.1.53.18,1.07.28,1.6A14,14,0,0,0,51.4,227a30.92,30.92,0,0,0-.58,10.48L52,247.86a18.75,18.75,0,0,0-1,2c-3.79,9-1.23,20.4,5.35,27.56.48,13.43,4.84,26.7,17.2,33.92,8.88,5.2,20.39,5.79,30.92,3.09a11.41,11.41,0,0,0,7.57,2.82l105.3-6c15.4-.87,31.28-.65,45.91-3.8a14.58,14.58,0,0,0,3.06.76c18.77,2.43,41.22,5.07,59.89.65.43-.1.82-.23,1.23-.34a10.92,10.92,0,0,0,6.47.11c6.52-2.11,9.32-7.93,8.19-14.42-.47-2.69-.93-5.38-1.4-8.06a10.17,10.17,0,0,0,.91-5.59q-.79-8.07-1.61-16.13a37.73,37.73,0,0,0,1.23-5.87L343,244.16a81.36,81.36,0,0,0,2-16.41,23.18,23.18,0,0,0-1.67-9.05V203.52a12.37,12.37,0,0,0-.61-3.93,29.16,29.16,0,0,0,2.71-10.76ZM253.35,251c-3.49,4.39-5.69,7.13-11.24,8.46-3.72.89-8.33.31-12.11.44l-10.54.35c-10.84,5.67-19.56-1.41-27.21-7-6.42-4.71-13.51-10-17.69-18-6.19-6.76-11.92-16.19-13.82-25.5a130.16,130.16,0,0,1,5.65-23.78c2.09-3.26,4.36-6.41,6.26-9.42l8.44-13.33a199.12,199.12,0,0,0,27.37-13c8.11-.46,16.29-.39,24.4-.17a18.71,18.71,0,0,0,10,10.5,13.91,13.91,0,0,0,6.86,1.08c8,9.57,17,19.19,21.11,31.09,3.58,10.45,4.33,21.53,4.24,32.74C266.86,232.87,260.43,242,253.35,251Z" transform="translate(0.41 0)" fill="#878c8e"/><path d="M128.46,148.32c-.16-1.53.11-2.74-.88-4a3.65,3.65,0,0,0-4.82-1.26l-.18.11a58.77,58.77,0,0,0-6.77-.24,3.33,3.33,0,0,0-2.81-1.58,75.73,75.73,0,0,0-15.11,1c-2.49.4-2.88,3.31-2.1,5.15a2.94,2.94,0,0,0,2.4,3.55l.39.05c3.41,2.51,8.51,2.26,12.83,2.25,3.33,0,7.06.46,10.28-.51a8.68,8.68,0,0,0,2.39-1.21C126.19,152.1,128.74,151,128.46,148.32Z" transform="translate(0.41 0)" fill="#d9e6ed"/><path d="M273.59,213.54a35.07,35.07,0,0,0,.43-7,46.65,46.65,0,0,0-2.59-13.23c-.05-.35-.1-.7-.14-1a42.45,42.45,0,0,0-5-11.26,44.09,44.09,0,0,0-2.61-5.3l-6.61-8.54a42.14,42.14,0,0,0-18.64-10.85l-.92-.3a32.85,32.85,0,0,0-9.1-1.52,43,43,0,0,0-9.8-1.17h-.31A31.74,31.74,0,0,0,202,157a31.35,31.35,0,0,0-10.77,6c-11.38,6.51-20,18-21.44,31.06-.18.61-.32,1.22-.47,1.84a36,36,0,0,0-2.47,14.62,46.28,46.28,0,0,0,1.43,9.45,42,42,0,0,0,5.22,14.62c.1.2.21.4.31.61a31.87,31.87,0,0,0,10.88,11.84,31.79,31.79,0,0,0,13.86,7.4,40.85,40.85,0,0,0,7.08,2.64,43,43,0,0,0,12,1.76h.61c.36,0,.71,0,1.07,0,1.15.13,2.31.21,3.48.26a43.11,43.11,0,0,0,5.25.36,42.43,42.43,0,0,0,24.15-7.94c12.85-7.41,22.15-21.13,21.46-36.4C273.69,214.6,273.63,214.07,273.59,213.54Z" transform="translate(0.41 0)" fill="#d9e6ed"/><g style="mix-blend-mode:multiply"><path d="M242,163.82c-4.55-15-29.86-11.9-41.17-8.17-18.34,6-35.76,20.26-41.43,39.27a42.64,42.64,0,0,0,24.49,51.8c13.94,5.88,33.24,16,44.45.75,2.66-3.62-.79-8.88-4.93-8.84a23.75,23.75,0,0,1-22.55-14.49c-4.37-9.77-9.12-16.92-7-28,1.78-9,6.67-19.72,14.49-25,5.71-3.84,12.07-5.22,18.9-5.07,5.05.12,8.58,1.61,13.36,0A1.91,1.91,0,0,0,242,163.82Z" transform="translate(0.41 0)" fill="#e0dfe6"/><path d="M227.88,192.74a1,1,0,0,0,0,1.63c1.61,1.2,2.69,3.67,3.23,5.57.14.44.22.89.32,1.34a15,15,0,0,0-.87,2.94c-.18.6-.28.92-.31,1s.07-.23.21-.72l-.55.79-.11.16a1.78,1.78,0,0,0-.3.19c-1.17.35-2.34.74-3.54,1l-.94.1.23,0-.4,0-.53,0a15.26,15.26,0,0,0-4.8.93c-.24.08-.46.21-.69.3l-.47.16a7.93,7.93,0,0,0-4.21,3.15c-4.29,7.13,2.35,14.82,8.81,17.24,13.35,5,29.17-5.85,29.15-20.08C252.07,197.21,238.32,185.53,227.88,192.74Z" transform="translate(0.41 0)" fill="#e0dfe6"/><path d="M225,206.71c-1,.06-1.07.07-.7,0l.53,0Z" transform="translate(0.41 0)" fill="#e0dfe6"/><path d="M316.46,177.9c-4.08-13.21-10.69-27.89-22.35-36.1-12.25-8.62-25.83-5.47-39.82-6.53-6.17-.47-7.74,8-3.12,11,7.54,4.95,20.29,4.45,26.24,11,6.22,6.86,6.25,22.47,7.22,31.14,2.28,20.49,1.75,41.81-9.26,59.93-9.54,15.7-25.31,26.84-43.75,28.78s-42.55,3.13-59.81-4.8c-1.95-.9-4.87.54-4,3C175.5,298.73,210,304.71,231.29,305c29.46.35,54.72-14.41,71.54-38.12C320.47,242,325.41,206.94,316.46,177.9Z" transform="translate(0.41 0)" fill="#e0dfe6"/><path d="M122.34,149.46c-9.51-2.53-18.46-2.21-27.49,1.62-5.74,2.44-5.32,11.64-.18,14.37.62.33,1.27.6,1.9.9-6.23,12.62-9.37,28.37-11.1,41.87-2.28,17.78-4.57,36.27-3.62,54.21.5,9.35,6.33,14.78,13.05,16.3,1.26,11.65,19.2,10.79,20.62-1.56a465.66,465.66,0,0,0,3.46-58.3,244.06,244.06,0,0,0-1.72-26.61c-.21-1.8-.37-3.66-.54-5.53.17-6.44,1.21-13.16,5.34-14.28C133.22,169.41,133.9,152.54,122.34,149.46Z" transform="translate(0.41 0)" fill="#e0dfe6"/><path d="M358.71,218.12c-.47-21.76-.31-43.62-1.43-65.35-.9-17.32-5.21-35.73-23.34-42.11-14.9-5.24-22.37,13.69-14.3,23.89,8.33,10.53,5.88,25.09,6,37.79l.36,54.94c.06,9.55.18,19.11.11,28.66-.06,7.66,1,16.72-.45,24.23-1.14,5.78-3.35,4.44-10.05,5.22-9.43,1.11-18.89,2-28.34,2.94-35.87,3.72-71.9,6.14-107.81,9.51-16.77,1.58-33.58,2.34-50.35,3.89-8.31.78-17.14.92-25.28,2.87-8.67,2.08-15.16,4.2-24.32,3.83a1.62,1.62,0,0,0-1.16,2.72c14.22,15.67,29.46,22.6,50.35,25.06,21.26,2.51,42.78.08,64-1.84,22-2,44-4.77,65.9-7.49,22.4-2.79,45-4,67.37-6.87,21.05-2.74,33.59-16.55,34.51-37.71S359.16,239.35,358.71,218.12Z" transform="translate(0.41 0)" fill="#e0dfe6"/><path d="M302,92.53c-9.12-13.17-24-11.12-37.88-15.9-10.69-3.69-21.88-8.64-33.46-6.76a1.32,1.32,0,0,0-.6,2.19c5,5.51,10.78,9.7,15.12,15.84,3.57,5,6.27,10.65,11.05,14.72,10,8.55,29.7,13,41.18,6.58C302.81,106.19,305.75,98,302,92.53Z" transform="translate(0.41 0)" fill="#e0dfe6"/><path d="M348.9,105.16c-1.7-3.4-4.37-5.22-7-7.73a32.3,32.3,0,0,0-6.58-5.19c-4.42-2.43-8.76-.82-11.7,2.92-2.42,3.08-3.36,7.64-3.35,11.45,0,.71,0,1.39.07,2.07A170.27,170.27,0,0,0,298.64,103c-7.27-1.48-14.57-2.71-21.7-4.79-8.14-2.36-8.11-7.08-12.35-13.47-6.27-9.45-15.9-15-27-16.84-9.7-1.58-25.87-3.38-33.29,4.38a.1.1,0,0,0,0,.13c7.07,8.45,21.54,5.77,31.25,9.27,16.53,5.94,10.49,18.77,19.33,29.68,6.84,8.45,20.9,11.55,30.8,14.58,13.83,4.23,27.2,7.33,40.2,13.87,11.83,5.95,21.95-5.75,18.4-15.46.2-.13.42-.23.6-.37C350.88,119.45,352.2,111.75,348.9,105.16Z" transform="translate(0.41 0)" fill="#e0dfe6"/><path d="M301.43,157.13c-12.29-18-40.56-35.06-62.7-25a1.15,1.15,0,0,0-.25,1.77c11.71,13.55,27.4,22.25,37.09,38s8.59,33.82,11.26,51.58c.67,4.45,7.22,7.22,10.87,4.57C320.72,211.3,315.85,178.27,301.43,157.13Z" transform="translate(0.41 0)" fill="#e0dfe6"/></g><path d="M106.23,317.21q-11.82,0-23.28-.08h-.61c-14.84-.18-25-8.69-30.13-25.31-4.33-14-4.74-31.62-4.54-48.63,0-2.31,0-4.61.06-6.88s0-4.43.05-6.63c.88-73.91,7.12-107.13,23-122.58C83.51,94.7,101.11,95,125.47,95.3c3.37,0,6.88.1,10.52.12l4.18,0c3,0,5.91.07,8.81.12C158.16,90.46,165.62,86,172.24,82,194.67,68.44,206,61.68,232.16,62c32.34.39,46.89,24.05,58.36,43.76,12.57,1.81,25.31,3.91,38.9,6.4,19.9,3.66,22,21.62,21.83,34.82a241.26,241.26,0,0,1-2.26,26.5,231,231,0,0,0-2.17,24.83c-.05,3.25-.1,6.5-.13,9.75-.33,27.26-.3,54.86.09,84.41v1c-.07,5.71-1.41,10.3-4,13.62-2.07,2.68-6.13,5.83-13.15,5.76-.76,0-1.54,0-2.31-.07s-1.43-.06-2.14-.07c-.41,0-.82,0-1.22,0C264.23,314.84,180.47,317.21,106.23,317.21Zm8.25-215c-17.11,0-29.93,1.28-38.79,9.9-14.17,13.79-20,46.77-20.87,117.62,0,2.19,0,4.38,0,6.59s0,4.6-.06,6.93c-.19,15.64.17,33.4,4.22,46.45C63.2,303.48,70.66,310,82.41,310.09H83c79.36.59,174.72-2.06,240.74-4.39.52,0,1,0,1.55,0,.78,0,1.57,0,2.34.07s1.42.06,2.11.07c3.48,0,5.89-.95,7.5-3s2.46-5.31,2.51-9.41v-.87c-.39-29.59-.42-57.26-.1-84.57q.06-4.89.14-9.78A239.71,239.71,0,0,1,342,172.58a233.7,233.7,0,0,0,2.21-25.73c.21-17.39-4.6-25.7-16.06-27.81-14.1-2.59-27.29-4.75-40.31-6.6a3.55,3.55,0,0,1-2.55-1.72C271.66,87.28,259.08,69.32,232.08,69c-24.19-.27-34.25,5.75-56.2,19-6.86,4.13-14.64,8.82-24.3,14.19a3.36,3.36,0,0,1-1.77.45c-3.2-.06-6.44-.1-9.72-.14l-4.13,0c-3.67,0-7.2-.07-10.6-.11C121.56,102.28,117.93,102.23,114.48,102.23Z" transform="translate(0.41 0)" fill="#444471"/><path d="M326.58,118.7l-.37,0a3.52,3.52,0,0,1-3.13-3.87c.4-3.75,1-7.47,1.53-11.08s1.1-7.17,1.49-10.81c-9.41-.61-18.9-2-27.62-3.31-.83,6.31-1.87,12.56-2.89,18.63l-.3,1.8a3.52,3.52,0,1,1-6.94-1.16l.3-1.8c1.25-7.47,2.43-14.54,3.29-21.9a3.5,3.5,0,0,1,4-3.07c11.11,1.72,22.6,3.5,34.11,4a3.51,3.51,0,0,1,2.48,1.17,3.56,3.56,0,0,1,.89,2.59c-.37,5.11-1.14,10.11-1.88,14.94-.55,3.53-1.11,7.17-1.49,10.75A3.52,3.52,0,0,1,326.58,118.7Z" transform="translate(0.41 0)" fill="#444471"/><path d="M327,104.34a119.4,119.4,0,0,1-33-4.68A3.52,3.52,0,1,1,296,92.94a112.32,112.32,0,0,0,31,4.37,3.52,3.52,0,0,1,0,7Z" transform="translate(0.41 0)" fill="#444471"/><path d="M130.3,157l-34.83-.42a3.52,3.52,0,0,1-3.48-3.5l0-3.49c0-3,0-6,0-9a3.59,3.59,0,0,1,1-2.49,3.68,3.68,0,0,1,2.52-1l35,.42a3.52,3.52,0,0,1,3.48,3.56l-.15,12.44A3.52,3.52,0,0,1,130.3,157ZM99,149.6l27.81.33.07-5.41L99,144.19C99,146,99,147.77,99,149.6Z" transform="translate(0.41 0)" fill="#444471"/><path d="M223.76,292.28h-1.08c-21.88-.26-44-9.2-60.55-24.53-18-16.59-27.7-39-27.41-63,.51-42.62,33.13-80.6,74.26-86.46a58.55,58.55,0,0,1,9.09-.53c27,.32,49.33,9.94,64.58,27.83,13.25,15.54,20.4,36.43,20.13,58.83C302.25,248.26,275,292.28,223.76,292.28Zm-6.61-167.46a50.76,50.76,0,0,0-7.17.47c-37.79,5.39-67.75,40.34-68.22,79.58-.27,22,8.67,42.48,25.15,57.71,15.33,14.16,35.69,22.42,55.86,22.66h1c46.65,0,71.53-40.54,72-80.87.47-39.13-23.39-78.9-77.75-79.55Z" transform="translate(0.41 0)" fill="#444471"/><path d="M219.44,264.76h-.94c-12.07-.14-26.26-5.76-37-14.65-9.56-7.89-20.89-21.91-20.63-43.94.35-28.92,23.14-53.86,53-58a48.35,48.35,0,0,1,7.33-.46c15.55.19,30.25,7.42,41.39,20.37,10,11.65,15.91,26.75,15.75,40.4-.19,15.28-5.86,29.34-16,39.6C251.57,259,236.74,264.76,219.44,264.76Zm1.16-110a42.59,42.59,0,0,0-5.77.4c-26.46,3.68-46.65,25.67-47,51.14-.23,19.24,9.7,31.52,18.07,38.43,9.45,7.8,22.26,12.91,32.64,13,15.64.18,29.14-4.86,38.75-14.6,8.83-9,13.79-21.3,14-34.76.14-12-5.11-25.34-14.05-35.72-9.8-11.4-22.64-17.76-36.13-17.92Z" transform="translate(0.41 0)" fill="#444471"/><path d="M185.17,220.56a3.5,3.5,0,0,1-3-1.6,25,25,0,0,1-4-14.16c.1-8.07,3.71-16.87,9.92-24.13a3.52,3.52,0,0,1,5.35,4.57c-5.08,5.94-8.15,13.29-8.23,19.65a18.07,18.07,0,0,0,2.89,10.24,3.51,3.51,0,0,1-1,4.86A3.46,3.46,0,0,1,185.17,220.56Z" transform="translate(0.41 0)" fill="#444471"/><path d="M195.35,238.5a3.51,3.51,0,0,1-2.52-1.06,8.18,8.18,0,0,0-1.78-1.16c-1.92-1.05-5.14-2.81-5.09-7.35a3.52,3.52,0,0,1,7,.09.85.85,0,0,0,0,.23,9.57,9.57,0,0,0,1.4.86,13.48,13.48,0,0,1,3.45,2.42,3.52,3.52,0,0,1-2.52,6Z" transform="translate(0.41 0)" fill="#444471"/><path d="M103.81,255.93a3.52,3.52,0,0,1-3.5-3.21c-1.61-18-1.63-36.36-1.64-54.13,0-10.34,0-21-.34-31.55a3.52,3.52,0,1,1,7-.21c.33,10.62.34,21.37.35,31.76,0,17.61,0,35.83,1.61,53.51a3.52,3.52,0,0,1-3.19,3.81Z" transform="translate(0.41 0)" fill="#444471"/><path d="M315.25,155h-.12a6.8,6.8,0,0,1-6.53-7c0-3.16,2.48-6.25,6.86-6.29a7.39,7.39,0,0,1,5.44,2.58,3.54,3.54,0,0,1,1,2.5v.55c0,1.52,0,4.06-1.83,5.93A6.53,6.53,0,0,1,315.25,155Zm-.15-6.28Z" transform="translate(0.41 0)" fill="#444471"/><path d="M105.35,279.86a3.52,3.52,0,0,1-3.49-3.06c-.08-.61-.2-1.24-.32-1.88a24.72,24.72,0,0,1-.59-5,12.26,12.26,0,0,1,.82-4.37,3.52,3.52,0,0,1,6.56,2.55A5.33,5.33,0,0,0,108,270a18.93,18.93,0,0,0,.47,3.64c.14.78.29,1.54.38,2.28a3.51,3.51,0,0,1-3,3.94Z" transform="translate(0.41 0)" fill="#444471"/></g></svg>