<svg xmlns="http://www.w3.org/2000/svg" viewBox="0 0 158.87 158.87"><defs><style>.cls-1{isolation:isolate;}.cls-2{fill:#82cecd;}.cls-3{fill:#e4cbb9;}.cls-4{fill:#4e4f7d;}.cls-5{fill:#d9e6ed;}.cls-6{fill:#42799b;}.cls-7{fill:#e0dfe6;mix-blend-mode:multiply;}</style></defs><title>kooperativ</title><g class="cls-1"><g id="Réteg_8" data-name="Réteg 8"><rect class="cls-2" width="158.87" height="158.87"/></g><g id="Réteg_4" data-name="Réteg 4"><path class="cls-3" d="M373.14,677.81a4.73,4.73,0,0,0-.88-.48,17.12,17.12,0,0,0,.27-1.81,12.64,12.64,0,0,0-.63-5.32,6.32,6.32,0,0,0-6.11-4.4c-.13-.35-.29-.69-.45-1a17.62,17.62,0,0,0-.44-3.41,18.65,18.65,0,0,0-3.37-7.21c-1.8-2.34-4.63-3.67-7.43-2.49-.43-.27-.86-.52-1.31-.76a6.5,6.5,0,0,0-1.52-1.53,5.12,5.12,0,0,0,0-.56v-.86a6,6,0,0,0,1.91-.19,12.48,12.48,0,0,0,7.31-6.39,6.92,6.92,0,0,0,.78-.67l.35-.37a6.08,6.08,0,0,0,1.53-5.8c-.5-1.8-2.18-3.87-4.16-4.15a8,8,0,0,0-3.68,0,7.31,7.31,0,0,0-3.07,1.81l0,.05a20.49,20.49,0,0,0-12.34,6.59,66.61,66.61,0,0,1-2.49-7.09,6.38,6.38,0,0,0-1.23-2.36A6.3,6.3,0,0,0,325.09,628a34.06,34.06,0,0,0-11.95,4.61,12.05,12.05,0,0,0-3.54,4.32,6.48,6.48,0,0,0-2.56.81,15.27,15.27,0,0,0-7,7.91,10.81,10.81,0,0,0-3.12,1.49A17.34,17.34,0,0,0,290.43,658a8.07,8.07,0,0,0,0,3.06l-.18.46-.21.08A14.46,14.46,0,0,0,280.88,675c-.07,3.24-.22,6.57,1.61,9.37.29.46.56.88.81,1.29a9.31,9.31,0,0,0,1.5,4.25,14.28,14.28,0,0,0,.89,1.63l.06.28a6.67,6.67,0,0,0,.48,1.45l-4.48,4.42a5.11,5.11,0,0,0-1.9,1.37c-4,.67-4.15,6.74-.39,7.77a5.19,5.19,0,0,0,2.71,2,22,22,0,0,0,2.92,4.93c2.15,2.8,5.18,4.37,7.44,7,1.59,1.83,2.57,3.23,4.48,4.09a6.62,6.62,0,0,0,2.88,4.62,3.69,3.69,0,0,0,3.78,3.17,3.8,3.8,0,0,0,3.84-4.3c0-.1,0-.2,0-.3a5.27,5.27,0,0,0,1.26-2.57,30.32,30.32,0,0,0,10-3.83c.78-.48,1.53-1,2.27-1.48A22.93,22.93,0,0,0,330.3,719a16.81,16.81,0,0,0,3.16,4.12,36.4,36.4,0,0,0,3.69,2.95l1.1.79a5.56,5.56,0,0,0,5.73,5.4,5.43,5.43,0,0,0,5.39-3.77c.11-.06.23-.11.34-.18a6.28,6.28,0,0,0,2.57-3,6.35,6.35,0,0,0,1.29-1,20.45,20.45,0,0,1,5.61-4.54c2.6-1.25,4.83-2.1,6.5-4.34.45-.11.89-.25,1.33-.4,2-.72,3.5-2.76,2.79-4.93a4.35,4.35,0,0,0-1-1.68,3.52,3.52,0,0,0-2.1-1.62,35.25,35.25,0,0,0-4.52-5.68,17.38,17.38,0,0,0,3.76-3.27c.05-.06.09-.13.15-.19,3.13-1.45,6.42-2.93,8.67-5.57C378.69,687.46,378.19,681.37,373.14,677.81Z" transform="translate(-255.99 -605.57)"/></g><g id="Réteg_5" data-name="Réteg 5"><path class="cls-4" d="M302,733.08c-6.75-5.37-12.3-13.11-18-19.53-1.5-1.88-3-3.77-4.39-5.75-2.43-3.41-7.54-1.33-7.64,1.85a1,1,0,0,1-.08.14,8,8,0,0,0-.71,1.19c-.16,0-.31-.05-.48-.05h-.2a3.65,3.65,0,0,0-3.67,2.75,3.06,3.06,0,0,0,.19,3.88,245.74,245.74,0,0,0,28.79,31.53c2.78,2.56,6.58.18,6.88-2.64l.18-.13c2-1.63,3.88-4,4.12-6.68C307.21,736.13,304.33,735,302,733.08Z" transform="translate(-255.99 -605.57)"/></g><g id="Réteg_6" data-name="Réteg 6"><path class="cls-5" d="M374.87,715.87c-1.62-2.64-3.39-2.25-5.16-1.21a2.41,2.41,0,0,0-1.23.34,6.23,6.23,0,0,0-2.52,2.14,2.7,2.7,0,0,0-.47.86c-3.13.78-5.15,3.18-7,5.79-1.69,1.21-3.37,2.43-5,3.72a16.64,16.64,0,0,0-1.23,1.19l-.1,0a16,16,0,0,0-2.72.3,4.1,4.1,0,0,0-2.09,1.16,9.46,9.46,0,0,0-.77,1.22,3,3,0,0,0-.39.32,2.3,2.3,0,0,0-.38.33,2.52,2.52,0,0,0,0,3.53l.24.22.07.06a.41.41,0,0,1,.06.11l.08.21c0,.1.05.46,0,.06v-.06c0,.18.07.59.08.62a2.91,2.91,0,0,0,.32.8,2.79,2.79,0,0,0,3.13,1.25,2.71,2.71,0,0,0,1.87-3.21c.41-.36.81-.75,1.26-1.15s.6-.52.89-.77l1.39-.07a2.47,2.47,0,0,0,2.39-2.39l.65-.41a2.47,2.47,0,0,0,.93-.4c1.14-.8,2.26-1.63,3.37-2.47a27.76,27.76,0,0,0,4.93-4.06,10.26,10.26,0,0,0,3.9-3.12c.87-.5,1.73-1,2.59-1.54A2.52,2.52,0,0,0,374.87,715.87Z" transform="translate(-255.99 -605.57)"/></g><g id="Réteg_7" data-name="Réteg 7"><path class="cls-6" d="M391.13,728.21a3.08,3.08,0,0,0-3-2.18,5.34,5.34,0,0,0-4.39-2.55c-2.81-3.24-6.67-6-10.39-3.1a5.7,5.7,0,0,0-2,2.74,40.88,40.88,0,0,0-4.69,4.13c-.07,0-.14,0-.21.09a41.6,41.6,0,0,0-11,8.69,6.15,6.15,0,0,0-.52.68h-.05a7.28,7.28,0,0,0-3,1.44,7.7,7.7,0,0,0-1.19,1.16c-5.79.63-5.59,10,.63,10h.1c.15.06.3.1.45.15a4.93,4.93,0,0,0,1.25,3,2.79,2.79,0,0,0,.05,1.25,3.08,3.08,0,0,0,1.37,1.79l.27.11.13.09a3,3,0,0,0,4.1-1.08c.11-.19.21-.38.33-.56l0-.06.36-.36a5.43,5.43,0,0,0,.74-.57c7.45-6.85,17.22-10.42,24.44-17.56a5.08,5.08,0,0,0,2-1.41,5.63,5.63,0,0,0,.91-1c.14-.1.3-.19.44-.3.39-.26.79-.52,1.17-.8a4,4,0,0,0,1-1.15A2.9,2.9,0,0,0,391.13,728.21Z" transform="translate(-255.99 -605.57)"/></g><g id="color"><path class="cls-7" d="M365,637.63a1.49,1.49,0,0,0-2-1.46,3.54,3.54,0,0,0-3.57-1.45c-2.39.35-4.06,2.36-5.83,3.85a28,28,0,0,0-4.49,4.28c-.8,1.06.31,2.31,1.37,2.4a15,15,0,0,0,6.61-1.41l1.59-.66c-2.17,3.21-4.62,6.29-5.65,10a2.62,2.62,0,0,0,.39,2.21,4.46,4.46,0,0,0-.91.93c-1.86,2.53-1.07,5.67-2.65,8.42-1.81,3.16-4.43,6-6.73,8.77-1.66,2-4.12,5.88-6.83,6.55-3.1.77-5.54-1.55-8.63.75a4.29,4.29,0,0,0-1.12,1.18c-1.24-3.26-4.22-4.65-6.83-6.72-2.13-1.7-4.37-4.35-7.05-5.11a2.09,2.09,0,0,0-2.61,2c-.32,3,2.1,6.28,3.83,8.56,2.21,2.92,4.88,6.23,8.78,6.4a3.67,3.67,0,0,0,2.3-.75,4.55,4.55,0,0,1-.76,1.21c-2.46,2.8-7.3,1.09-10-.21-4.65-2.25-9.79-7.43-15.32-6.57a1.67,1.67,0,0,0-1.22,1.6l.09,1a.3.3,0,0,0,.21.27c4.22,1.52,7.61,6.27,11.07,9,3.13,2.51,6.69,4.68,10.75,5.16a13.89,13.89,0,0,0,9.67-2.47,12.06,12.06,0,0,0,3.4-3.57,9.19,9.19,0,0,0,.9-2.53,9.17,9.17,0,0,0,2.49.37,12.56,12.56,0,0,0,4.95-1.47c3.54-1.87,6.13-4.93,8.62-8,5.15-6.3,12.17-13.11,10.42-21.94a3.85,3.85,0,0,0-1.45-2.25,10.61,10.61,0,0,0,5.44-6.49C365.56,645.39,364.8,641.8,365,637.63Z" transform="translate(-255.99 -605.57)"/><path class="cls-7" d="M394.65,718.18c-2.1-.88-4.21-3.32-6-4.75-2.24-1.82-4.44-3.67-6.63-5.55-2.56-2.2-5.15-4.72-7.94-6.84,4.17-4.94,8.12-11.58,6.53-17.92-.62-2.45-3.8-2.56-5.08-.66-2,2.94-3.32,6.15-5.63,8.9a24.71,24.71,0,0,0,4.69-12.09,1.9,1.9,0,0,0,1-1.68c-.11-2.53-1.18-3.92-2.41-5.76a13.56,13.56,0,0,0-1.1-1.8c-2.22-4-8.19-.48-6.16,3.6,3.65,7.3-8.05,16.77-13,20.83a95.9,95.9,0,0,1-21.68,12.89c-7.71,3.47-15.84,5.84-23.61,9.13-3.46,1.47-6.63,3.7-8.16,6.75-.22-.19-.43-.4-.67-.58a1.07,1.07,0,0,0-1.77,1,31.62,31.62,0,0,0,1.75,5.94,2.58,2.58,0,0,0,.84,1.16A3.49,3.49,0,0,0,295,734c0,1.86.91,3,1.56,4.65a5.42,5.42,0,0,1,.3,1.25c0,.06,0,.05.06,0a2.2,2.2,0,0,0-.13.24c-.88,1.69-2.07,3.13-2.57,5a2.84,2.84,0,0,0,.73,2.76,4.57,4.57,0,0,0,.54.42,2.87,2.87,0,0,0,2.89,0,10.49,10.49,0,0,0,1.5-1c-1.52,1.82-2.68,3.74-2.64,6.25a1.17,1.17,0,0,0,2,.82c4.06-3.76,10.07-6.74,12.77-11.73a11.36,11.36,0,0,0,1.19-8c6.21-3.1,12.37-6.14,18.84-8.75,7.28-2.94,14.56-5.87,21.55-9.47a74,74,0,0,0,15.95-10.68,53.15,53.15,0,0,0,7.73,10.57c-3.27,1.71-5.7,5-8.58,7.29-3.63,2.87-7.43,5.51-11,8.47-5,4.19-12.31,11.44-6.63,17.89a1.13,1.13,0,0,0,1.88-1.09c-2.71-7.67,11.79-14,16.72-17.14,3.94-2.52,9.85-6.18,11.53-11,3.94,4.39,9,9.33,14.7,6.6C400.26,725.29,398.2,719.67,394.65,718.18Zm-90,11.92a4.1,4.1,0,0,0,.83,6.41c2.92,1.38-.23,5.21-2.62,7.72a12.78,12.78,0,0,0,.79-1.29c1.91-3.63.49-9.32-3-11.62a2.24,2.24,0,0,0,3.1-1.7c.55-3.15,5.32-4.17,8.49-5A64.28,64.28,0,0,0,304.63,730.1Z" transform="translate(-255.99 -605.57)"/><path class="cls-7" d="M296.55,676.79c-1-.91-2.81-1.41-4-.52a7.29,7.29,0,0,0-1.74,1.81l-.26.36c-.2.25-.39.48-.58.73-.4.52-.37.49-.72.91a2.52,2.52,0,0,0-.47.22c-.11.06-.2.09-.29.13a2.05,2.05,0,0,0-.88,1.25c-.45,1.65,1.22,3,2.72,3.08a6.13,6.13,0,0,0,2.8-.66c.79.91,2.39.29,2.79-.77a24,24,0,0,1,1.15-2.53A3.39,3.39,0,0,0,296.55,676.79Z" transform="translate(-255.99 -605.57)"/><path class="cls-7" d="M372.25,713.7c-4.38,2-8.1,5.64-11.76,8.7-4,3.37-8.26,6.75-11.54,10.87a1,1,0,0,0,1.25,1.62c4.59-2.33,8.63-5.71,12.66-8.89s8.42-6.17,11.4-10.29C375.21,714.38,373.43,713.17,372.25,713.7Z" transform="translate(-255.99 -605.57)"/><path class="cls-7" d="M345.75,655.61c-3.2-3.16-7.43-5.36-10.88-8.28-3.19-2.7-5.93-6-9.38-8.34-.72-.5-1.44.32-1.33,1,.77,4.64,3.74,8.67,6.67,12.23s6.93,7.61,11.42,9.38C345.72,663,348.14,658,345.75,655.61Z" transform="translate(-255.99 -605.57)"/><path class="cls-7" d="M335.9,665.87c-3.15-1.48-6.64-1.65-9.75-3.35-1.36-.75-7.18-3.69-6.18-5.9a.35.35,0,0,0-.47-.47c-3.71,2.07-1.46,5.9.75,8.47,3.09,3.59,9.12,7.67,14.05,7.13a3.29,3.29,0,0,0,3.05-2.32,2.94,2.94,0,0,0,.11-.84A3.11,3.11,0,0,0,335.9,665.87Z" transform="translate(-255.99 -605.57)"/></g><g id="line"><path class="cls-4" d="M285.26,694.15a1.51,1.51,0,0,1-1.36-.87c-3.31-7.16-4.92-13-4.92-17.9,0-8.76,4.82-12.61,9.39-14.88-.05-.57-.07-1.13-.07-1.69,0-9.26,6.94-12.26,10.41-13.38.56-7.71,8.2-11.3,11.44-11.7,4.69-7,13.6-8.73,20.81-10.13a4.28,4.28,0,0,1,.87-.09c3.87,0,6.08,4.88,6.67,6.37a63.63,63.63,0,0,0,14.2,21.94,8,8,0,0,1,2.47,5.63c0,4.64-3.26,5.15-5.41,5.49-.33,0-.67.1-1,.17a1.5,1.5,0,1,1-.59-2.94c.37-.08.75-.14,1.12-.2,2.28-.35,2.88-.53,2.88-2.52a5.05,5.05,0,0,0-1.59-3.51,66.49,66.49,0,0,1-14.87-23c-.88-2.23-2.41-4.47-3.88-4.47l-.3,0c-8.42,1.65-15.68,3.49-19.26,9.43a1.51,1.51,0,0,1-1.36.72h-.21c-1.53,0-9,2.62-9,9.63v.2a1.49,1.49,0,0,1-1.07,1.47c-6.44,1.89-9.31,5.23-9.31,10.82a16.66,16.66,0,0,0,.17,2.38,1.5,1.5,0,0,1-.86,1.57c-4.49,2-8.63,5-8.63,12.62,0,4.44,1.52,9.88,4.65,16.64a1.5,1.5,0,0,1-.74,2A1.38,1.38,0,0,1,285.26,694.15Z" transform="translate(-255.99 -605.57)"/><path class="cls-4" d="M342.22,675.13a14.07,14.07,0,0,1-6.43-1.47,1.5,1.5,0,1,1,1.34-2.68,11,11,0,0,0,5.09,1.15c4.21,0,5-.67,5-4.27,0-1.38-.28-4.7-2.88-5.8-11.64-4.93-16.19-12.39-19.5-17.85-2.56-4.2-4-6.39-6.81-6.39-1.82,0-3.7,1.86-4.1,4.07a1.5,1.5,0,0,1-2.95-.54c.67-3.66,3.76-6.53,7.05-6.53,4.6,0,6.81,3.63,9.37,7.83,3.28,5.39,7.36,12.1,18.11,16.64,3,1.27,4.71,4.39,4.71,8.57C350.23,673.92,347.17,675.13,342.22,675.13Z" transform="translate(-255.99 -605.57)"/><path class="cls-4" d="M331.33,682.25c-7.45,0-12.74-4.75-17.41-8.94-3.64-3.26-6.79-6.08-10.15-6.08a17.55,17.55,0,0,0-5,.88,1.5,1.5,0,1,1-.86-2.87,20.22,20.22,0,0,1,5.85-1c4.51,0,8.22,3.33,12.15,6.85,4.48,4,9.11,8.17,15.41,8.17,2,0,5.1-.94,5.1-3.46,0-2.11-2-4.68-4.39-5.6-7.41-2.88-12.41-7.22-16.44-10.7-3.22-2.8-5.77-5-8-5-1,0-3.5.28-3.87,2.87a1.5,1.5,0,0,1-3-.43c.47-3.3,3.16-5.44,6.84-5.44,3.35,0,6.28,2.53,10,5.73,3.85,3.33,8.64,7.48,15.55,10.17,3.54,1.38,6.31,5.07,6.31,8.4C339.43,680,335.25,682.25,331.33,682.25Z" transform="translate(-255.99 -605.57)"/><path class="cls-4" d="M318.77,691.34c-4,0-7.3-2.68-10.76-5.52-3.82-3.14-7.78-6.39-13.16-6.39H294c-2.82,0-6.49-.32-8-1.82a1.5,1.5,0,0,1,2.12-2.13c.46.46,2.67,1,5.87,1h.86c6.45,0,11,3.76,15.07,7.07,3.16,2.6,5.89,4.84,8.85,4.84,3.84,0,4.93-2.78,5.88-6.14l.12-.43a1.5,1.5,0,0,1,2.88.82l-.12.42C326.72,685.92,325.2,691.34,318.77,691.34Z" transform="translate(-255.99 -605.57)"/><path class="cls-4" d="M268.71,714.4a1.5,1.5,0,0,1-1.19-2.42c20.61-26.71,28-32.2,32.81-34.15a1.5,1.5,0,1,1,1.12,2.78c-4.26,1.71-11.33,7-31.55,33.21A1.51,1.51,0,0,1,268.71,714.4Z" transform="translate(-255.99 -605.57)"/><path class="cls-4" d="M298.25,751.61a1.5,1.5,0,0,1-1.15-2.47,96.13,96.13,0,0,1,7.32-7.5l2.36-2.27c-6.69-6.77-12.2-13-18-19.57-4.31-4.88-8.78-9.92-13.78-15.22a1.5,1.5,0,1,1,2.18-2.06c5,5.33,9.52,10.4,13.85,15.29,6.09,6.88,11.85,13.38,19,20.51a1.51,1.51,0,0,1,0,2.12c-1.13,1.14-2.31,2.25-3.48,3.37a93.3,93.3,0,0,0-7.09,7.26A1.48,1.48,0,0,1,298.25,751.61Z" transform="translate(-255.99 -605.57)"/><path class="cls-4" d="M303.33,734.05a1.48,1.48,0,0,1-1-.42,1.5,1.5,0,0,1-.05-2.12c9.41-9.83,13-10.41,18.52-11.28,7-1.12,17.64-2.81,50.8-27.24,2.85-2.1,5.15-6.51,5.15-8.75,0-1.89-1.65-4.45-4.41-5.47a1.5,1.5,0,0,1-.94-1.78,14.37,14.37,0,0,0,.52-3.58c0-4-3.7-6-6.81-6.89A1.51,1.51,0,0,1,364,665c.06-.71.09-1.33.09-1.92,0-8.74-8.55-11.24-11.77-12.19a6.46,6.46,0,0,1-1.47-.52,1.5,1.5,0,0,1,1.55-2.58l.77.22c3.44,1,13.92,4.08,13.92,15.07,0,.32,0,.64,0,1,5.05,1.8,7.81,5.11,7.81,9.4a15.14,15.14,0,0,1-.33,3.09,9.43,9.43,0,0,1,5.16,7.74c0,3.44-3,8.66-6.37,11.17-33.75,24.86-44.8,26.62-52.11,27.78-5.23.84-8.11,1.3-16.82,10.4A1.5,1.5,0,0,1,303.33,734.05Z" transform="translate(-255.99 -605.57)"/><path class="cls-4" d="M352.61,649.57a6.67,6.67,0,0,1-1.27-.13,1.5,1.5,0,1,1,.59-2.94,3.73,3.73,0,0,0,.68.07c2.63,0,9.08-3.4,9.08-9.68,0-5-1.95-5-3.38-5-2,0-14.08,2.08-15.09,6.85a1.5,1.5,0,1,1-2.93-.62c1.64-7.82,17.86-9.23,18-9.23,4.29,0,6.38,2.61,6.38,8C364.69,645.09,356.71,649.57,352.61,649.57Z" transform="translate(-255.99 -605.57)"/><path class="cls-4" d="M349.21,741.05a1.49,1.49,0,0,1-1.1-.48,219.72,219.72,0,0,0-20-19.1,1.5,1.5,0,0,1,1.9-2.32,224,224,0,0,1,20.31,19.38,1.5,1.5,0,0,1-1.1,2.52Z" transform="translate(-255.99 -605.57)"/><path class="cls-4" d="M391.46,730.53a1.5,1.5,0,0,1-1-.36c-3.71-3.13-6.72-5.56-9.38-7.7-8.55-6.87-12.46-10-18.08-20.13a1.5,1.5,0,1,1,2.62-1.46c5.34,9.61,8.85,12.44,17.33,19.26,2.68,2.15,5.71,4.58,9.45,7.74a1.5,1.5,0,0,1,.17,2.12A1.48,1.48,0,0,1,391.46,730.53Z" transform="translate(-255.99 -605.57)"/><path class="cls-4" d="M356.58,757.1a1.53,1.53,0,0,1-1.1-.47c-4-4.29-8.09-8.22-12.05-11.67a1.5,1.5,0,0,1-.51-1.1,1.49,1.49,0,0,1,.47-1.12c5.24-4.93,11.17-9.56,17.45-14.47,4.86-3.81,9.89-7.74,15.18-12.23a1.5,1.5,0,1,1,1.94,2.28c-5.33,4.54-10.38,8.49-15.27,12.31-5.74,4.49-11.19,8.75-16,13.17,3.63,3.24,7.33,6.86,11,10.77a1.51,1.51,0,0,1-1.09,2.53Z" transform="translate(-255.99 -605.57)"/><path class="cls-4" d="M343.87,734.16a1.52,1.52,0,0,1-1.27-.7,1.5,1.5,0,0,1,.47-2.07A133.63,133.63,0,0,0,356.83,721a144.66,144.66,0,0,1,12.69-9.71,1.5,1.5,0,0,1,1.64,2.51,144.73,144.73,0,0,0-12.42,9.51,138.13,138.13,0,0,1-14.07,10.62A1.46,1.46,0,0,1,343.87,734.16Z" transform="translate(-255.99 -605.57)"/><path class="cls-4" d="M354.11,734.16a1.46,1.46,0,0,1-1.2-.6l-3.18-4.23a1.5,1.5,0,1,1,2.4-1.8l3.18,4.23a1.5,1.5,0,0,1-1.2,2.4Z" transform="translate(-255.99 -605.57)"/><path class="cls-4" d="M362.22,727.46a1.52,1.52,0,0,1-1.2-.6l-3.17-4.24a1.49,1.49,0,0,1,.3-2.1,1.51,1.51,0,0,1,2.1.3l3.17,4.24a1.5,1.5,0,0,1-1.2,2.4Z" transform="translate(-255.99 -605.57)"/><path class="cls-4" d="M370.34,723.22a1.46,1.46,0,0,1-.94-.33,15.25,15.25,0,0,1-2.08-2.1,9.18,9.18,0,0,0-2.59-2.31,1.5,1.5,0,0,1,1.34-2.69,11.93,11.93,0,0,1,3.51,3,12.78,12.78,0,0,0,1.7,1.74,1.5,1.5,0,0,1-.94,2.67Z" transform="translate(-255.99 -605.57)"/></g></g></svg>