<svg xmlns="http://www.w3.org/2000/svg" viewBox="0 0 178 178"><defs><style>.cls-1{isolation:isolate;}.cls-2{fill:#edbf2e;}.cls-3{fill:#f5b6a3;}.cls-4,.cls-5{fill:#e4cbb9;}.cls-4{stroke:#e4cbb9;}.cls-4,.cls-8{stroke-miterlimit:10;}.cls-6{fill:#dd708d;}.cls-7{fill:#42799b;}.cls-10,.cls-8{fill:#878c8e;}.cls-8{stroke:#878c8e;}.cls-9{fill:#d9e6ed;}.cls-11{fill:#82cecd;}.cls-12,.cls-14{mix-blend-mode:multiply;}.cls-13,.cls-14{fill:#e0dfe6;}.cls-15{fill:#4e4f7d;}</style></defs><title>korosztaly</title><g class="cls-1"><g id="Réteg_12" data-name="Réteg 12"><rect class="cls-2" width="178" height="178" rx="49.96"/></g><g id="Réteg_3" data-name="Réteg 3"><path class="cls-3" d="M330.41,204.54a3.87,3.87,0,0,0-6.68-.43,3.69,3.69,0,0,0-3.51-3.38A3.82,3.82,0,0,0,318,200a3.74,3.74,0,0,0-2.64,1,4.91,4.91,0,0,0-.89-.08,3.66,3.66,0,0,0-2.82,1.18,3.73,3.73,0,0,0-3.75,3.61,4.82,4.82,0,0,0-.72-.61,35.57,35.57,0,0,0-4.33-2.58,4.1,4.1,0,0,0-5.47,1.44,4,4,0,0,0,1.44,5.47l.24.14a4,4,0,0,0-1.88,4.49,4,4,0,0,0,4.92,2.8c2.76-.87,4.19-3.32,5.89-5.48a5,5,0,0,0,1.05-2.35,11.92,11.92,0,0,0,8.07-1.11,5.22,5.22,0,0,0,.58,0,3.82,3.82,0,0,0,2.26.69,3.63,3.63,0,0,0,3.23-1.73,4.25,4.25,0,0,0,.23.95V208a3.8,3.8,0,0,0,3.85,4.21,4.66,4.66,0,0,0,.77-.08,4,4,0,0,0,.79.08C333.31,212.22,333.86,206,330.41,204.54Z" transform="translate(-256 -125)"/></g><g id="Réteg_5" data-name="Réteg 5"><path class="cls-4" d="M324.74,209.82a3.59,3.59,0,0,0-3.37-2.57c-2.06-.25-4.84.71-6.81,1.31-2.19.66-5.15,1.44-5.84,4a14.22,14.22,0,0,0,.48,6.57,6.13,6.13,0,0,0,.68,1.47c-.05.12-.11.24-.16.37-.69,1.76.75,3.84,2.44,4.31a3.24,3.24,0,0,0,2.94-.59,12.19,12.19,0,0,0,2.71.35c3.31-.2,4.88-3.52,5.71-6.28C324.28,216.24,325.31,212.37,324.74,209.82Z" transform="translate(-256 -125)"/><path class="cls-5" d="M315.11,271.76c-.47-1.26-1.27-2.48-1.23-3.86.09-3.22-4.91-3.22-5,0a9,9,0,0,0,.84,3.86c.41,1,1.12,2.1.83,3.17-.84,3.11,4,4.44,4.82,1.33A7.3,7.3,0,0,0,315.11,271.76Z" transform="translate(-256 -125)"/><path class="cls-5" d="M326.52,272.74l0,0c.59-1.78.18-4.29.13-5.88-.05-1.75-2.14-3.31-3.76-2.16-.15.11-.28.22-.41.33a2.62,2.62,0,0,0-2.83,2.39,8.36,8.36,0,0,0,1,4.62,11.28,11.28,0,0,0,1.61,3.24,2.56,2.56,0,0,0,3.42.9A2.52,2.52,0,0,0,326.52,272.74Z" transform="translate(-256 -125)"/><path class="cls-5" d="M367.64,170.43a3.48,3.48,0,0,0-2.24-.51v-.07l-.15-2.86a2,2,0,0,0-4,0c-.05.53,0,1.51-.06,2.33a1.94,1.94,0,0,0-1.46,2.91l2.18,4c-1.3,1.68,1.31,4.06,3.14,2.5s1.4-3.74,3-5.19A2,2,0,0,0,367.64,170.43Z" transform="translate(-256 -125)"/><path class="cls-5" d="M374.82,145.89a1.51,1.51,0,0,0-.37-.49s-.05,0-.07-.07A2.09,2.09,0,0,0,373,143.9a2,2,0,0,0-2.46,1.39l-.08.18a1.81,1.81,0,0,0-.52.62c-2.27,1-4.55,2.08-6.78,3.2a3.67,3.67,0,0,0-1.69-.38,2,2,0,0,0-2,2.14,45.43,45.43,0,0,1-5.69,2.5,5.37,5.37,0,0,0-2.65,1.5,3,3,0,0,0,1.15,4.72,3.08,3.08,0,0,0,1.84.11,2.76,2.76,0,0,0,.3.29,16.32,16.32,0,0,0,2.53,1.71c4.11,2.38,9,3.26,13.24.37a16.52,16.52,0,0,0,5.39-6.76,7.36,7.36,0,0,0,.4-5.42c.21-.41.44-.8.65-1.22A2,2,0,0,0,374.82,145.89Z" transform="translate(-256 -125)"/><path class="cls-5" d="M344.62,222.67a6.08,6.08,0,0,0-5.39-3c-3,.36-2.46,3.89-1.92,6a1.82,1.82,0,0,0,2.08,1.4l0,.05a3.52,3.52,0,0,0,3.06.74A3.44,3.44,0,0,0,344.62,222.67Z" transform="translate(-256 -125)"/><path class="cls-5" d="M298.35,242.7c-2.58,0-2.58,4,0,4S300.93,242.7,298.35,242.7Z" transform="translate(-256 -125)"/></g><g id="Réteg_6" data-name="Réteg 6"><path class="cls-6" d="M332.07,259.93c-3.06-4.09-5.1-8.61-7.84-12.85-1.82-2.82-3.94-3.36-7-2.66-3.26.75-8-.22-10.12,2.83-2.72,3.86-3.72,9.84-4.45,14.5-1.77,1.57-.14,5.28,2.35,4.27a35.25,35.25,0,0,1,3.41-1.18c2.94.31,6.37-.29,9.22-.42,4.09-.18,8.21-.22,12.28-.73C331.55,263.48,333.35,261.63,332.07,259.93Z" transform="translate(-256 -125)"/></g><g id="Réteg_9" data-name="Réteg 9"><path class="cls-7" d="M392.58,165c-.44-4.54-2.92-7.79-5.92-11.05-1.75-1.9-4.57.94-2.83,2.83,3.34,3.62,6.38,9.34,4.26,14a4.38,4.38,0,0,0-4,.12c-.58.29-1.18.62-1.8.93s-1.35.62-2,.88a7.9,7.9,0,0,1-2.42.49,10.27,10.27,0,0,1-1.87-.15c-1.59-3.31-7.52-2.87-8.34,1a3.68,3.68,0,0,1-1,2.42,4.88,4.88,0,0,0-.9,1.54,26.32,26.32,0,0,0-2.44,3.83,3.9,3.9,0,0,0-.28.64,49.46,49.46,0,0,0-3.05-6.09c-.37-.62-.74-1.25-1.13-1.86.67-4.13-5.13-6-7.91-3.12l-.37.14c-4.21-2.46-7.91,1.78-9.86,5.43-.32.6-.61,1.2-.87,1.79a18.55,18.55,0,0,1-.49,5.2c-.11,11.66-2.54,23.53-2.29,35.22a3.75,3.75,0,0,0,1.59,1.25,3.9,3.9,0,0,1,3-1.25,3.64,3.64,0,0,1,2.09.6,4.4,4.4,0,0,0,1.64-3.28c.22-3.8.44-7.59.61-11.39-.16-2.67-.53-5.32-.5-8a3.66,3.66,0,0,1,.81-2.35c0-2.21-.24-4.57-.05-6.79a4.21,4.21,0,0,0,3.7-1.09c.32.44.63.85.81,1.16a35.44,35.44,0,0,1,1.8,3.73,4.25,4.25,0,0,0-1.52,2.09,3.86,3.86,0,0,1,2.44,3.75c0,2.7.44,5.38.54,8.07.09,2.18.1,4.34.24,6.5a1.27,1.27,0,0,1,.06.18c.15.57.29,1.14.43,1.71,1.62,2.75,5.46,2.58,7.34.6a4.88,4.88,0,0,0,1.7,0,48.92,48.92,0,0,1,8.94-.9,4.52,4.52,0,0,0,3.55-1.8,12.07,12.07,0,0,1,.07-5.48c-2.8-5.14-3.87-10.78-4.58-16.51-.12-1-.25-1.93-.34-2.9a6,6,0,0,0-.19-.88,16.12,16.12,0,0,1,1.87-2.76c5.29.25,11.34-2.33,15.64-4.72a4,4,0,0,0,2.13-4.52A14.51,14.51,0,0,0,392.58,165Z" transform="translate(-256 -125)"/></g><g id="Réteg_7" data-name="Réteg 7"><path class="cls-8" d="M382.4,266.89a30,30,0,0,1-1.11-3.53,39.66,39.66,0,0,0,.17-11.71,4.54,4.54,0,0,0,.66-2.13c.37-5.77-1.88-11-3.2-16.44a5.91,5.91,0,0,0,0-2.1c-.73-4.62-1-9.51-2.92-13.83-1-2.42-4.15-2.47-6.15-1.62-.82.35-2.35,0-3.21,0a13.77,13.77,0,0,0-4.14.64c-2.59-1-6.34.3-6.54,4-.23,4.18.74,8.29.83,12.44a5.28,5.28,0,0,0-1.13.59,4.52,4.52,0,0,1-.09,1.45c-1.28,5.28-1.57,10.81-2.41,16.18-.15.92-.28,1.83-.42,2.74-.13,4.49-.17,9-.09,13.47-1.41,3.18.92,7.76,5.05,6.27,2.4-.87,4.24-.42,5.81-2.89,1.83-2.88,2.21-7.81,2.81-11.06A128.6,128.6,0,0,0,368.47,239h0c.88,9.86,2,19.71,3.07,29.55.43,3.93,4.84,5.18,7.33,3.69C381.39,272,383.56,269.91,382.4,266.89Z" transform="translate(-256 -125)"/><path class="cls-9" d="M360.1,139.4a14.29,14.29,0,0,0-9.6,9.29c-.5,1.52-1.13,3.86.5,4.93,1.79,1.18,4.33-.7,5.72-1.67a2.12,2.12,0,0,0-.84-3.8h0c2-.45,4.1-.81,6.15-1.27a29.26,29.26,0,0,0,3.21-.17c1.91-.41,4.9-1.54,5.47-3.71C372.18,137.5,362.76,138.67,360.1,139.4Z" transform="translate(-256 -125)"/><path class="cls-10" d="M361.46,268.58A2.07,2.07,0,0,0,359,270a1.79,1.79,0,0,0-.74,1.06,2.89,2.89,0,0,0,.3,2.19,2,2,0,0,0,2,1,2.05,2.05,0,0,0,1.66-1.43l.64-1.72A2,2,0,0,0,361.46,268.58Z" transform="translate(-256 -125)"/></g><g id="Réteg_4" data-name="Réteg 4"><path class="cls-11" d="M321.76,238.12a13.87,13.87,0,0,0-.77-3.25,17.67,17.67,0,0,0-.48-3.65,10.94,10.94,0,0,0-1.38-4.15c-1.56-2.7-6.21-2.31-7.26.38a4.53,4.53,0,0,0-1.32,3.09,3.69,3.69,0,0,0-.59,2.33c.06,1,.19,2.21.26,3.44a4.24,4.24,0,0,0-.82,5.28,3.91,3.91,0,0,0,1.29,2.88,4,4,0,0,0,3.89,1,4.64,4.64,0,0,0,1-.54c.46,0,.92,0,1.37,0a5.16,5.16,0,0,0,4.46-2.47A3.75,3.75,0,0,0,321.76,238.12Z" transform="translate(-256 -125)"/></g><g id="Réteg_2" data-name="Réteg 2"><g class="cls-12"><path class="cls-13" d="M325.88,278.42a.33.33,0,0,0,.45.11c2.4-1.25,6.34-4.74,7.43-8.14a7.92,7.92,0,0,0,6.34-7.23c.34-6.94-4.34-14.3-8.32-19.67-4.5-6.07-8.75-12.06-12.78-18.43a.24.24,0,0,0-.44.12,103.2,103.2,0,0,0-.13,10.42,13.92,13.92,0,0,1,2.3-1.11,2.63,2.63,0,0,1,3.17,1.8c1.32,3.55-1.63,6.8-4.78,8,.07.56.13,1.11.21,1.66.93,6.84,4.53,12.53,5.89,19.21a6.71,6.71,0,0,0,2.35,4c-.4,1-.78,2-1.19,2.94C325.52,274.21,324.66,276.33,325.88,278.42Z" transform="translate(-256 -125)"/></g><g class="cls-12"><path class="cls-13" d="M317.66,263c-2.62,4.74-2.32,10.51-2.14,15.76a.42.42,0,0,0,.83.11c1.28-5,3.72-9.91,4.1-15.11A1.51,1.51,0,0,0,317.66,263Z" transform="translate(-256 -125)"/></g><g class="cls-12"><path class="cls-13" d="M323.9,236.29a2.63,2.63,0,0,0-3.17-1.8,13.92,13.92,0,0,0-2.3,1.11c-1.2.7-2.33,1.51-3.53,2.19-2.21,1.25-4.69,1.84-6.94,3a.71.71,0,0,0-.2,1.14c2.88,2.3,6.74,3.63,10.42,2.7a8.6,8.6,0,0,0,.94-.31C322.27,243.09,325.22,239.84,323.9,236.29Z" transform="translate(-256 -125)"/></g><g class="cls-12"><path class="cls-13" d="M313.34,221.19c.59,5.37,8.52,2.79,10.88.52,3.75-3.59,8.46-11.39,5.17-16.5a2.43,2.43,0,0,0-2.6-1.06c-5,.68-6.75,6.4-8.38,10.34a14.41,14.41,0,0,1-3.36,4.88C314.64,219.76,313.26,220.53,313.34,221.19Z" transform="translate(-256 -125)"/></g><path class="cls-14" d="M356.83,213.21a2.51,2.51,0,0,0,4.57,1.93c4.5-6.62-3-19.9-6.47-25.69-1.38-2.33-4.11-6.09-7.27-5.81-3.5.31-3.52,4.31-2.84,6.88a1.4,1.4,0,0,0,2.7,0l.05,0c.65-4.15,2.13-2.62,3.83.37a51,51,0,0,1,3,6.8C356.45,202.88,357.9,207.68,356.83,213.21Z" transform="translate(-256 -125)"/><path class="cls-14" d="M356.43,220.09c6.48,1.57,13.79.82,20.34.09,4.38-.48,3.54-6.91-.81-6-6.43,1.38-13.19,1.61-19.53,3.25A1.38,1.38,0,0,0,356.43,220.09Z" transform="translate(-256 -125)"/><path class="cls-14" d="M366.23,239.35a66.06,66.06,0,0,1-3,9.12,2.83,2.83,0,0,0-3.77,2.07c-1.51,5.67-4.23,11.55-5,17.47a10.44,10.44,0,0,0-1.06.21,2.06,2.06,0,0,0-.9,3.41,4.77,4.77,0,0,0,3,1.48c-.07.16-.12.33-.2.48-.57,1.18.9,2.51,1.9,1.47a3.38,3.38,0,0,0,.82-1.85,3.25,3.25,0,0,0,1.83-2c.78-2.42,1.64-4.88,2.45-7.36a2.45,2.45,0,0,0,.72-1.49c.06-.46.13-.93.2-1.39a76.53,76.53,0,0,0,2.26-8.78,3.44,3.44,0,0,0,0-1,61.85,61.85,0,0,0,2.23-11.64A.79.79,0,0,0,366.23,239.35Z" transform="translate(-256 -125)"/><path class="cls-14" d="M376.75,253.41c-.23,2.7,1.05,5.6,1.53,8.24.23,1.23.8,3.14.27,4.34a4.29,4.29,0,0,1-2.37,1.87C374,263,374.1,257,372.71,252a.86.86,0,0,0-1.69.23c.27,6.56.22,13,1.93,19.35a2.32,2.32,0,0,0,2.85,1.62c4.12-1.63,7.77-3.06,8.1-8a30.75,30.75,0,0,0-2.56-13C380.28,249.7,376.93,251.28,376.75,253.41Z" transform="translate(-256 -125)"/><path class="cls-14" d="M362.59,175.61a5.3,5.3,0,0,0,3,1.42,1.53,1.53,0,0,0,.4-3,2.39,2.39,0,0,1-.49-.2c-.25-.13-.5-.27-.74-.42l-.2-.11a1.24,1.24,0,0,0-2.07-1.05,2.39,2.39,0,0,0-.75,1.62A2,2,0,0,0,362.59,175.61Z" transform="translate(-256 -125)"/><path class="cls-14" d="M351.43,156.4a3,3,0,0,0,1.11.39,14.55,14.55,0,0,0,9.16,7.93c5,1.37,11.31-.16,13.15-5.46.87-2.48-2.34-5-4.53-3.48-3,2.06-4.44,3.88-8.44,3.2a14.32,14.32,0,0,1-6.48-2.85,15.75,15.75,0,0,0,2-1.24c1.68-1.19,4-3,4.5-5.15a22.88,22.88,0,0,0,3.79-.63,15.33,15.33,0,0,0,5.9-2.09c1.58-1.14.7-4.23-1.44-3.43s-4,1.65-6.07,2.35a15.21,15.21,0,0,0-3.3,1.3,1.52,1.52,0,0,0-.73-.12c-2.19.17-3.7,2.3-4.84,4a10.75,10.75,0,0,1-1.16,1.43,7,7,0,0,1,.42-5.6.63.63,0,0,0-.85-.86c-2.74,1.72-3,5.62-2,8.55l-.38.3A.94.94,0,0,0,351.43,156.4Z" transform="translate(-256 -125)"/><path class="cls-14" d="M394.76,176.85c2.34-2.92-1.55-7.07-4.19-4.2-4.86,5.27-11.68,7-18.69,6.79a1,1,0,0,0-.52,1.89A18.12,18.12,0,0,0,394.76,176.85Z" transform="translate(-256 -125)"/></g><g id="Réteg_1" data-name="Réteg 1"><path class="cls-15" d="M294.74,205.15a3.38,3.38,0,0,0,2.72,3.6,7.14,7.14,0,0,0-2.26,5.06,4.4,4.4,0,0,0,4.66,4.43c2.7,0,4.58-1.79,6.23-3.47,0-.4,0-.78,0-1.1v-1.51a1.51,1.51,0,0,1,1.05-1.43,1.43,1.43,0,0,1,.5-1.08,1.39,1.39,0,0,0-.5.19,17.3,17.3,0,0,0-2.93,2.56c-1.42,1.46-2.77,2.84-4.35,2.84-1,0-1.66-.54-1.66-1.43a3.81,3.81,0,0,1,2.95-3.65,1.5,1.5,0,0,0,1.1-2.26,4.52,4.52,0,0,0-3.37-1.91c-1.14-.21-1.14-.21-1.14-.84,0-1.16,1.48-2,2.81-2,1.94,0,4.51,1.38,6.26,3.35a1.5,1.5,0,0,0,1.66.4,2,2,0,0,1-.22-.09,1.5,1.5,0,0,1-.58-2,11.69,11.69,0,0,1,.66-1c-1.87-1.8-4.78-3.61-7.78-3.61C297.75,200.18,294.74,202.08,294.74,205.15Z" transform="translate(-256 -125)"/><path class="cls-15" d="M323.11,205.43a9.79,9.79,0,0,1-1-.59,1.51,1.51,0,0,0,.14.62Z" transform="translate(-256 -125)"/><path class="cls-15" d="M325.22,204.82a1.46,1.46,0,0,1-1.19.81,1.54,1.54,0,0,1,.46.42,1.64,1.64,0,0,0,.31-.28,8.08,8.08,0,0,1,4.24-2.88,1.52,1.52,0,0,1,.21.36,5.19,5.19,0,0,1-.42,2.23l-.19.05c-1.56.39-1.88,1.23-1.88,1.87A1.65,1.65,0,0,0,328.5,209a3,3,0,0,0,1.88-.74c.35,0,.8-.05,1.37-.05a1.94,1.94,0,0,1,1.16.49c-.15,1.06-2.28,1.17-3.22,1.17h-.94l-1,0a1.5,1.5,0,0,0,0,3l.89,0h1c5.62,0,6.23-3,6.23-4.29,0-1.94-2.19-3.22-3.87-3.36a9.69,9.69,0,0,0,.2-2.09c0-1.31-1.33-3.32-3-3.32l-.28,0a10,10,0,0,0-5.11,2.55,5.91,5.91,0,0,0,.67.4A1.51,1.51,0,0,1,325.22,204.82Z" transform="translate(-256 -125)"/><path class="cls-15" d="M308.25,206.84a2,2,0,0,0,.22.09,1.54,1.54,0,0,0,.51.1,1.49,1.49,0,0,0,1.31-.77,8.34,8.34,0,0,1,7.36-4.11c1,0,2,.78,3.13,1.67.44.35.88.7,1.35,1a9.79,9.79,0,0,0,1,.59h.17a1.58,1.58,0,0,1,.75.2,1.46,1.46,0,0,0,1.19-.81,1.51,1.51,0,0,0-.67-2,5.91,5.91,0,0,1-.67-.4c-.4-.27-.81-.59-1.23-.93-1.37-1.08-2.92-2.32-5-2.32a11.43,11.43,0,0,0-9.32,4.64,11.69,11.69,0,0,0-.66,1A1.5,1.5,0,0,0,308.25,206.84Z" transform="translate(-256 -125)"/><path class="cls-15" d="M308.63,212.26a1.48,1.48,0,0,1-1.27-.71,1.45,1.45,0,0,1-.22-.82,1.51,1.51,0,0,0-1.05,1.43v1.51c0,.32,0,.7,0,1.1.05,3.22.52,8.77,4.58,10.76a1.48,1.48,0,0,1,2.12.65,9.36,9.36,0,0,0,1.34.1,15.77,15.77,0,0,0,3.23-.32,1.48,1.48,0,0,1,.45-1.72,1.5,1.5,0,0,1,2.11.23l.33.44c4.61-2.54,5.07-8,5.33-11,0-.53.08-1,.14-1.38a1.52,1.52,0,0,0-1.28-1.7,1.49,1.49,0,0,0-1.69,1.27c-.07.44-.11,1-.16,1.56-.43,5.08-1.4,9.65-8.46,9.65-3.63,0-5.05-2.69-5.05-9.61v-1.48A1.77,1.77,0,0,1,308.63,212.26Z" transform="translate(-256 -125)"/><path class="cls-15" d="M324,205.63a1.58,1.58,0,0,0-.75-.2h-.17l-.84,0a29,29,0,0,0-14.42,4,.83.83,0,0,0-.21.16,1.43,1.43,0,0,0-.5,1.08,1.45,1.45,0,0,0,.22.82,1.48,1.48,0,0,0,1.27.71,1.77,1.77,0,0,0,.46-.07,1.61,1.61,0,0,0,.33-.15,26.62,26.62,0,0,1,13.86-3.61,1.5,1.5,0,0,0,1.21-2.38A1.54,1.54,0,0,0,324,205.63Z" transform="translate(-256 -125)"/><path class="cls-15" d="M302.9,264.16l.74,0c0-.1,0-.19,0-.3,0-3.45,1.76-8,3.47-12.38.74-1.91,1.44-3.74,2-5.49a1.48,1.48,0,0,1,.72-2.77h.09a33.07,33.07,0,0,0,.63-5.89c.17-3.53.32-6.87,2.43-9.16a1.52,1.52,0,0,0,.26-1.62,1.45,1.45,0,0,0-.35-.47,1.46,1.46,0,0,0-1.74-.17,1.45,1.45,0,0,0-.35.26,11.24,11.24,0,0,0-1,1.24,1.48,1.48,0,0,1,.13,3,9.25,9.25,0,0,0-1.71.83,32.43,32.43,0,0,0-.65,6,29.55,29.55,0,0,1-.58,5.44,66.46,66.46,0,0,1-2.68,7.77c-1.8,4.64-3.67,9.45-3.67,13.45a6.37,6.37,0,0,0,.17,1.5,1.47,1.47,0,0,0,.78.95,1.66,1.66,0,0,1-.15-.59A1.49,1.49,0,0,1,302.9,264.16Z" transform="translate(-256 -125)"/><path class="cls-15" d="M319.79,264.36a1.5,1.5,0,0,1,1.5,1.5c0,.11,0,.22,0,.33,1.34-.12,2.66-.25,4-.39v-.31c0-.47,0-.93,0-1.38a1.51,1.51,0,0,1,1.14-1.45c-7.25.81-14.95,1.36-23.34,1.67l-.76,0a1.49,1.49,0,0,0-1.44,1.55,1.32,1.32,0,0,0,.15.59,1.49,1.49,0,0,0,1.35.86h.05l4.38-.17c0-.1,0-.19,0-.28a1.5,1.5,0,0,1,3,0s0,.09,0,.12c.88,0,1.74-.09,2.6-.15a1.23,1.23,0,0,1,0-.19,1.5,1.5,0,1,1,3-.25c0,.08,0,.16,0,.24l2.93-.21c0-.2,0-.41,0-.6A1.5,1.5,0,0,1,319.79,264.36Z" transform="translate(-256 -125)"/><path class="cls-15" d="M333,263.84a1.53,1.53,0,0,1-.3,0,1.5,1.5,0,0,1-1.47-1.21c0-.19-.1-.38-.15-.57-1.4.19-2.83.36-4.27.53a1.49,1.49,0,0,1,1.46,1.49c0,.45,0,.9,0,1.35,1.62-.19,3.23-.39,4.81-.6a1.51,1.51,0,0,0,1.28-1.69,1.69,1.69,0,0,0-.19-.56A1.51,1.51,0,0,1,333,263.84Z" transform="translate(-256 -125)"/><path class="cls-15" d="M317.81,224.24a1.48,1.48,0,0,0-.45,1.72,1.41,1.41,0,0,0,.21.38c2.57,3.22,2.93,7.25,2.93,11.13a20.57,20.57,0,0,0,.54,4.65l.1,0a1.5,1.5,0,0,1,.79,2.9,46.63,46.63,0,0,0,5,9.3c1.78,2.74,3.45,5.34,4.1,7.8.05.19.11.38.15.57a1.5,1.5,0,0,0,1.47,1.21,1.5,1.5,0,0,0,1.48-1.26,1.41,1.41,0,0,0,0-.54c-.64-3.19-2.6-6.21-4.67-9.41-2.95-4.54-6-9.24-6-15.19a28.16,28.16,0,0,0-.83-7.47l-1.95-.91-1.22-.58a1.5,1.5,0,0,1,1.27-2.72l.11.05q-.3-.47-.63-.93l-.33-.44A1.5,1.5,0,0,0,317.81,224.24Z" transform="translate(-256 -125)"/><path class="cls-15" d="M309.33,243.09a1.49,1.49,0,0,0-.72,2.8,1.47,1.47,0,0,0,.72.2c4.21,0,8.56,0,12.58-1.1a1.5,1.5,0,1,0-.77-2.9l-.1,0c-3.59,1-7.49,1-11.62,1Z" transform="translate(-256 -125)"/><path class="cls-15" d="M311.31,228.86a1.48,1.48,0,0,0-1.48-1.48c-1.76,0-11.18,4.91-11.18,13.63,0,.28,0,.57.05.85a1.42,1.42,0,0,1,.6.2,1.48,1.48,0,0,1,1.16-.56h.12a4.54,4.54,0,0,1,1.06.07c0-.19,0-.38,0-.56,0-5,4.16-8.38,6.64-9.85a9.25,9.25,0,0,1,1.71-.83A1.49,1.49,0,0,0,311.31,228.86Z" transform="translate(-256 -125)"/><path class="cls-15" d="M300,241.37h-.12a1.48,1.48,0,0,0-1.18.57,1.42,1.42,0,0,0-.61-.2,1.53,1.53,0,0,0-1.21.33,1.49,1.49,0,0,0-1.22,1.47,2.58,2.58,0,0,1-.16.71,4.7,4.7,0,0,0-.29,1.5,2.93,2.93,0,0,0,3,2.79c2,0,5-2.17,5-4v-.25a2.9,2.9,0,0,0-.77-2.13,2.4,2.4,0,0,0-1.3-.67A4.18,4.18,0,0,0,300,241.37Zm-1.76,4.17.11-.37c0-.13.09-.27.13-.42a1.72,1.72,0,0,0,.63-.59,1.5,1.5,0,0,0,.77.21h.2A3.83,3.83,0,0,1,298.19,245.54Z" transform="translate(-256 -125)"/><path class="cls-15" d="M340.23,228h-.13a3.57,3.57,0,0,1-2.44-.86,6,6,0,0,1-5.35,2.84c-3.22,0-6.81-1.71-10-3.21l-1.11-.53-.11-.05a1.48,1.48,0,1,0-1.25,2.68l1.2.57,1.92.9c2.95,1.35,6.15,2.6,9.33,2.6a9,9,0,0,0,8.29-5C340.47,227.92,340.36,228,340.23,228Z" transform="translate(-256 -125)"/><path class="cls-15" d="M314.17,264.86a1.47,1.47,0,0,0-1.35,1.59,1.37,1.37,0,0,1,0,.19c.09,1,.2,1.91.31,2.86a44.27,44.27,0,0,1,.42,5.29c0,.79,0,1.48-.09,2-1.26-2.27-3.15-6.75-3.2-10,0,0,0-.08,0-.12a1.48,1.48,0,1,0-2.95,0V267c.15,4.36,3.77,13.93,6.29,13.93H314c2.29,0,2.58-3.25,2.58-6.08a47.33,47.33,0,0,0-.44-5.64c-.11-.9-.21-1.8-.29-2.7l0-.24A1.46,1.46,0,0,0,314.17,264.86Z" transform="translate(-256 -125)"/><path class="cls-15" d="M328.5,263.92a1.48,1.48,0,0,0-1.45-1.47,1.14,1.14,0,0,0-.39,0,1.48,1.48,0,0,0-1.12,1.43v1.36c0,.1,0,.21,0,.31v1.08c0,2.92-.11,5.95-1.31,8.62a20.49,20.49,0,0,1-2.61-9.31c0-.12,0-.23,0-.34a1.48,1.48,0,0,0-3,0c0,.2,0,.4,0,.59a24.26,24.26,0,0,0,4,12.24,1.48,1.48,0,0,0,1.24.68h.69a1.45,1.45,0,0,0,1.23-.66c2.46-3.69,2.67-8,2.67-11.82,0-.47,0-.95,0-1.41Z" transform="translate(-256 -125)"/><path class="cls-15" d="M364.67,152.85a1.49,1.49,0,0,0-1.76-1.18,5.89,5.89,0,0,0-1.29.46,3.51,3.51,0,0,1-.66.26,1.5,1.5,0,1,0,0,3,4.42,4.42,0,0,0,1.9-.53,4,4,0,0,1,.63-.25A1.49,1.49,0,0,0,364.67,152.85Z" transform="translate(-256 -125)"/><path class="cls-15" d="M368.43,153.15a2.8,2.8,0,0,0,1.34-.39l.15-.07a1.5,1.5,0,0,0-.14-3,3,3,0,0,0-1.35.38l-.14.07a1.52,1.52,0,0,0-1.36,1.5A1.5,1.5,0,0,0,368.43,153.15Z" transform="translate(-256 -125)"/><path class="cls-15" d="M395.16,166.58v-.08a4.11,4.11,0,0,1-.28-.79,6.65,6.65,0,0,1-.46-1.23s0-.08,0-.12h-.1a21.94,21.94,0,0,0-3.15-7h.28a2.82,2.82,0,0,1-.21-.31,3.31,3.31,0,0,1-.9-.93,3.24,3.24,0,0,1-.81-1,3.08,3.08,0,0,1-.75-.78,30.41,30.41,0,0,0-3.17-3,1.49,1.49,0,0,0-1.84,0c-.92.68-1.81,1.39-2.64,2.07a1.52,1.52,0,0,0-.55,1.06,1.55,1.55,0,0,0,.41,1.13c3.75,3.94,5.65,7.48,5.65,10.55,0,1.5-.54,5-5.58,5A18.89,18.89,0,0,1,374.8,170a38.24,38.24,0,0,0-6.93-1.6c0-1,0-2,0-3A13.53,13.53,0,0,0,378.22,152a15.17,15.17,0,0,0-4.47-10.65l0-.05-.06,0a14.85,14.85,0,0,0-10.57-4.17,18.07,18.07,0,0,0-4.82.66C352.34,139.36,348,145.35,348,152a14.09,14.09,0,0,0,.3,2.82v.09l0,.08c1.28,5.83,6.23,9.21,11.06,10.43.06.86.13,1.72.17,2.59a73.54,73.54,0,0,0-13.43,1.48,9.75,9.75,0,0,0-7.75,8.91l-.35,5.42c-.77,11.77-1.57,23.93-1.74,36a6.78,6.78,0,0,0-1.4,4.14c0,3.75,2.52,6.36,6.12,6.36a6.16,6.16,0,0,0,6.36-5.92,6.5,6.5,0,0,0-2-4.89c.88-5.77,1.47-11.63,2-17.31.39-3.92.79-7.93,1.28-11.9,2.44,5.16,4.42,17.46,5.42,26.13a1.85,1.85,0,0,0,0,.47,1.17,1.17,0,0,0,.05.11c.42,3.73.66,6.72.66,8.05,0,4.37-.79,11-1.69,18.62-1,8.72-2.19,18.49-2.44,27.3a1.47,1.47,0,0,0-.21.9c0,.39,0,.76,0,1.13,0,.63,0,1.26-.07,1.88s-.07,1.33-.07,2c0,1.85,0,3,.86,3.78a2.69,2.69,0,0,0,2.21.56c.2,0,.43,0,.7,0,.76,0,1.52,0,2.29,0l2.39,0c8.74,0,8.74-2,8.74-2.67,0-1.05-.81-1.43-1.84-1.91a19.65,19.65,0,0,1-2.92-1.63,1.48,1.48,0,0,0,1-1.09c1.69-7.47,3.07-14.24,4.19-20.58,1,6.43,2.08,13,2.68,19.53a24.45,24.45,0,0,0,.43,4.25c.12.69.24,1.42.35,2.29a1.49,1.49,0,0,0,1.47,1.32h2c3.09,0,8-.08,12.3-.51a1.5,1.5,0,0,0,1.35-1.53c-.1-3.77-2.61-4.76-4.44-5.47l-.51-.21a1.52,1.52,0,0,0,.41-1.07c-.63-26-2.15-33.48-3.91-42.18-.78-3.85-1.64-8.09-2.51-14.39a1.46,1.46,0,0,0,.35-1.1c-.56-6-1.52-11.09-2.36-15.57a79.71,79.71,0,0,1-1.81-13.48c.36,0,.73,0,1.1,0,12.43,0,19.86-8.47,19.86-16.67,0-.42,0-.85,0-1.28h.36A5,5,0,0,1,395.16,166.58Zm-27.08,4.85c-1.48,2.32-3.05,4.63-4.62,6.9-.74-1.53-1.51-3-2.27-4.51-.48-.93-.94-1.87-1.41-2.81.45,0,.9,0,1.36,0a1.52,1.52,0,0,0,1.5-1.52c0-1.19-.09-2.38-.18-3.55.36,0,.71,0,1.05,0s.89,0,1.34-.06c0,1.23,0,2.54,0,3.85a1.5,1.5,0,0,0,1.36,1.46C366.91,171.26,367.51,171.34,368.08,171.43ZM351,152c0-5.23,3.45-10.11,8-11.36a15.47,15.47,0,0,1,4-.55,12,12,0,0,1,7.27,2.31,18,18,0,0,1-11.2,4.48,12.45,12.45,0,0,1-3.19-.41,1.51,1.51,0,0,0-1.84,1.07,1.49,1.49,0,0,0,1.07,1.83,14.64,14.64,0,0,0,1.75.35,13.34,13.34,0,0,1-5.86,3.18A8.87,8.87,0,0,1,351,152Zm.71,3.84a15.74,15.74,0,0,0,9.11-6.06,21.76,21.76,0,0,0,11.68-5.3,12.06,12.06,0,0,1,2.69,7.52c0,6.35-4.93,11-11.71,11C360.15,163,353.85,161.12,351.74,155.83ZM341,227.32c-2,0-3.12-1.26-3.12-3.36a3.78,3.78,0,0,1,1.62-3.14,1.23,1.23,0,0,1,.76-.26c.17,0,4.1.05,4.1,3.84A3.14,3.14,0,0,1,341,227.32Zm36.23,3.1c1.77,8.75,3.18,15.69,3.82,40.26l-.46,0a1.55,1.55,0,0,0-1,.1l-.45.05c-1.81.19-3.68.38-5.53.5a.72.72,0,0,0-.09-.2c-.67-6.66-1.76-13.36-2.82-19.85q-.6-3.7-1.19-7.41c.72-5,1.26-9.75,1.66-14.45a1.5,1.5,0,1,0-3-.25c-1.08,12.79-3.26,26.07-7,42.92H361c-2.41,0-4.9-.05-7.33-.24.2-8.88,1.4-18.93,2.45-27.84.92-7.74,1.72-14.43,1.72-19,0-.09-.19-3-.63-7.27a120.13,120.13,0,0,1,16.63-1.68l.91-.05C375.63,222.32,376.49,226.56,377.27,230.42ZM375,182.31a21.9,21.9,0,0,1-2.44-.14,1.51,1.51,0,0,0-1.67,1.48v.95c0,4.83.87,9.41,1.87,14.72.44,2.32.91,4.81,1.33,7.5a1.49,1.49,0,0,0-.31,1.09c.2,1.86.4,3.57.6,5.17l-.67,0a122.41,122.41,0,0,0-16.79,1.67c-1.26-10.94-3.87-27-8.53-29.44a1.5,1.5,0,0,0-1.38,0,1.51,1.51,0,0,0-.8,1.13c-.73,5.12-1.25,10.36-1.75,15.43-.53,5.26-1.08,10.68-1.85,16a7.71,7.71,0,0,0-2.29-.35,4.25,4.25,0,0,0-.94.12c.23-11.29,1-22.65,1.69-33.68l.35-5.42a6.74,6.74,0,0,1,5.36-6.16,69.77,69.77,0,0,1,9.72-1.27c.67,1.36,1.36,2.71,2,4,1.19,2.3,2.31,4.47,3.3,6.76a1.5,1.5,0,0,0,1.23.89h.15a1.49,1.49,0,0,0,1.23-.65c2.29-3.29,4.64-6.69,6.8-10.15,1,.25,1.86.52,2.68.78A22.13,22.13,0,0,0,381,174.1c6.33,0,8.58-4.3,8.58-8,0-3.52-1.81-7.35-5.37-11.42l.33-.26c4.57,4.1,7.26,9.34,7.26,14.21C391.84,175.36,385.53,182.31,375,182.31Z" transform="translate(-256 -125)"/></g></g></svg>