<svg xmlns="http://www.w3.org/2000/svg" viewBox="0 0 1265.35 892.9"><defs><style>.cls-1{isolation:isolate;}.cls-2{fill:#f5b6a3;}.cls-3,.cls-4{fill:#e4cbb9;}.cls-3{stroke:#e4cbb9;}.cls-14,.cls-3,.cls-9{stroke-miterlimit:10;}.cls-5{fill:#42799b;}.cls-6{fill:#82cecd;}.cls-7{fill:#fff;}.cls-14,.cls-8{fill:#edbf2e;}.cls-10,.cls-9{fill:#d9e6ed;}.cls-9{stroke:#d9e6ed;}.cls-11{fill:#878c8e;}.cls-12{fill:#4e4f7d;}.cls-13{fill:#dd708d;}.cls-14{stroke:#edbf2e;}.cls-15{fill:#e0dfe6;mix-blend-mode:multiply;}</style></defs><title>party</title><g class="cls-1"><g id="Réteg_16" data-name="Réteg 16"><path class="cls-2" d="M1183.11,1016.32a130.94,130.94,0,0,0-11.42-10.67,20.45,20.45,0,0,0-2.08-1.4,30.47,30.47,0,0,0-11.28-6.24c-8.67-5.63-19.34-4.89-29.46-5.48a5.59,5.59,0,0,0-3.3.77,31.49,31.49,0,0,0-3.79-.23,30.06,30.06,0,0,0-11,2.16,16,16,0,0,0-3.83-.47,17.17,17.17,0,0,0-13.13,6.59,19.79,19.79,0,0,0-6.36,4.6,16.89,16.89,0,0,0-9.42,11.19,26.85,26.85,0,0,0-8.07,9.07,34.72,34.72,0,0,0-2.38,5.63,18.26,18.26,0,0,0-5.17,11.76c-.09,1.21-.12,2.42-.12,3.62-5.23,9.85-9.2,20.11-13.47,30.44.15-.38-.3.66-.59,1.24-.73,1.46-1.47,2.92-2.24,4.37l-.66,1.25a14.64,14.64,0,0,0-6.73,4l-2.58,3.34a16.52,16.52,0,0,0-1.71,4.17l-.66.44a24.18,24.18,0,0,0-4.12,2.78l-.34.08-3.39.83-.48.13A23.7,23.7,0,0,0,1015,1103l-.12,0a23.33,23.33,0,0,0-8.48,2.58c-.74.24-1.45.52-2.14.82a31,31,0,0,0-6.6-.71c-16.48,0-32.26,14.49-31.5,31.5a35,35,0,0,0,1,6.91,38.79,38.79,0,0,0-3.36,16.57,47.59,47.59,0,0,0,1.37,9.37l-2.21,4a123.22,123.22,0,0,1-6.3,10.69c.39-.69-2.57,3-3,3.39-.7.68-1.44,1.32-2.19,2l-.44.31c-7.3,5.06-15.92,7.6-23.36,12.38a54.11,54.11,0,0,0-6.74,5.12,20.8,20.8,0,0,0-3.25,1.55c-5.54,3.25-8.07,8.81-10.23,14.52-.25.66-.47,1.32-.69,2a54.26,54.26,0,0,0-3.67,24.58,2.61,2.61,0,0,1,0,.28h0c.13,1.49.32,3,.57,4.39a12.42,12.42,0,0,0,2,4.87,30.76,30.76,0,0,0,1.56,3.83,23.8,23.8,0,0,0,5.54,7.17c.83.72,1.72,1.43,2.63,2.1,3.58,6.12,12.27,9.57,18.79,7.46a18.13,18.13,0,0,0,3.32-1.42,23.59,23.59,0,0,0,4.43-.7,5,5,0,0,0,2.41,1.35,12.62,12.62,0,0,0,7.15-.35,6.47,6.47,0,0,0,3.58-2.75,6.37,6.37,0,0,0,.78-3.74,96.19,96.19,0,0,0,16.92-9.69c4.5-3.29,9.7-6.89,13.56-11.09a62.24,62.24,0,0,0,7.2-9.83c6.05-4.58,12.1-9.16,18.07-13.83a83.74,83.74,0,0,0,11-10.39c1.21-.28,2.42-.52,3.64-.75,9.54-.75,19.35-.34,28.49-3.34l1,.09a5.23,5.23,0,0,0,3.33-.64,15.87,15.87,0,0,0,9.69,3.25,17.15,17.15,0,0,0,12.85-6.23,31.5,31.5,0,0,0,8.52-3.42l6.38-4.92a32.25,32.25,0,0,0,4.83-6.23,45.87,45.87,0,0,0,10.36-25.17,12.9,12.9,0,0,0-1.53-7.26,24.19,24.19,0,0,0-.66-4.91,32.54,32.54,0,0,0-1-6.11q-.78-2.34-1.55-4.7a23.71,23.71,0,0,0-3.79-8.41,30.86,30.86,0,0,0-1.75-3.44,16.18,16.18,0,0,0,.57-4.31v-1.3a12.44,12.44,0,0,0-1.42-6.36,12.6,12.6,0,0,0-1.3-2.78c3.49-6.76,7.07-13.48,11.21-19.92q2-3.06,3.8-6.15l.14,0a16.45,16.45,0,0,0,8.33-2.25l.77-.54a12.35,12.35,0,0,0,4.32-3.82,16.58,16.58,0,0,0,5.58-3.66l.28-.28a4.53,4.53,0,0,0,2.66.62,9,9,0,0,1,1,0,1.83,1.83,0,0,1,.25.06,6.24,6.24,0,0,0,4.63-.61,6,6,0,0,0,2.15-8.21,6.26,6.26,0,0,0-3.59-2.75,12.64,12.64,0,0,0-2.07-.41c0-.19,0-.37,0-.56a12.31,12.31,0,0,0-1.42-6.36,12.15,12.15,0,0,0-2.62-4.48c0-.73,0-1.47,0-2.21a35.51,35.51,0,0,0-.86-6.31,33.85,33.85,0,0,0,10.38-7.09,16,16,0,0,0,7.76,2,15.6,15.6,0,0,0,4.93-.83,4.9,4.9,0,0,0,6.45.25c4.77-3.36,6-9.23,9-14,1.28-2.06,2.61-4.53,4.72-5.71s4-1.31,6-3.24A6.07,6.07,0,0,0,1183.11,1016.32Z" transform="translate(-819.8 -741.73)"/></g><g id="Réteg_22" data-name="Réteg 22"><path class="cls-3" d="M1209.68,931.72c3.3-1.18,5.52-4.43,4.54-8a6.92,6.92,0,0,0-4.62-4.59,11.6,11.6,0,0,0-3.81-4.33,16.3,16.3,0,0,0-6.73-7.95,27.47,27.47,0,0,0-5.94-2.58c-1-.3-2-.57-3.07-.81-.9-.72-1.8-1.43-2.72-2.13a5.74,5.74,0,0,0-.1-1.09A68.33,68.33,0,0,0,1197.9,885a6.61,6.61,0,0,0,.8-4,8.09,8.09,0,0,0,.51-2.38l.27-4.51a5.46,5.46,0,0,0-1.27-3.75,49.85,49.85,0,0,0-.85-6.32,5.24,5.24,0,0,0-.61-1.57c1-4.31-2.31-9.67-7.82-8l-6.34,1.87a6.66,6.66,0,0,0-1.87.92c-3.32-2.18-7-3.9-10-6.6-4.78-4.31-8.62-9.56-13.86-13.37-6.36-4.63-11.05-.67-16,3.77q-5.87,5.31-11.73,10.66a7.33,7.33,0,0,0-3,2.67l-2.7,2.46a5.75,5.75,0,0,0-1.83,5.16,5.86,5.86,0,0,0-.86,3v.39a6.2,6.2,0,0,0,1.63,4.11,23.38,23.38,0,0,0,2.18,9.21c3,6.48,6.49,12.89,11.62,17.9a6.41,6.41,0,0,0,.76,1.94,27.25,27.25,0,0,0,4.16,5.38,11.45,11.45,0,0,0,3.11,4.39v0c2.26,3.35,5.23,5.86,9.27,6.7l.21,0a127.73,127.73,0,0,0,3.44,24.11,5.57,5.57,0,0,0,4.75,4.62,7,7,0,0,0,.65.84c3.89,4.27,9.11,5.92,14.54,7.35a28.9,28.9,0,0,1,14.85,8.72c4.71,5.18,12-.42,10.86-6.32-.2-1.08-.34-2.18-.45-3.28a7,7,0,0,0,1.11-2.39,31,31,0,0,1,5.13-10.86,5.27,5.27,0,0,0,.6-5.77l.12-.3C1209.51,931.8,1209.59,931.75,1209.68,931.72Zm-34.7-60.8-1.17,2.9c-.8-2.44-1.64-4.88-2.52-7.3a24.34,24.34,0,0,1,4.3,3.19A7.61,7.61,0,0,0,1175,870.92Z" transform="translate(-819.8 -741.73)"/><path class="cls-4" d="M1188,1049a55.72,55.72,0,0,0-5.13-8.58c1.08-3.49-.74-8-5.49-8a5.49,5.49,0,0,0-5.52,4.08,6.57,6.57,0,0,0-2.65,5.11c0,.26-.06.51-.09.77a6.54,6.54,0,0,0-.8,1,65.51,65.51,0,0,0-5.73,11.1,13.76,13.76,0,0,0-6.33-3.51c-5.81-1.49-13.51-1-16.92,4.62-6.26,10.3,2.63,18.36,11.59,22.8-2.2,2-5.71,3.52-7.38,4.89l-.29.25c-.81.18-1.61.37-2.42.58-7.68,2-15.16,4.53-20.5,10.72l-1.13,1.27c-10.17.06-14.76,11.39-16.56,22.52-1.35,5.26-1.25,10.9-.9,16.34a6.55,6.55,0,0,0,6.26,6.21c5,13.54,5.17,28.34,5,42.7a5.41,5.41,0,0,0-.48.76,12.13,12.13,0,0,0-1.61,1.83c-1.65,2.31-.89,6,1,7.87a6.66,6.66,0,0,0,7.72,1.08l.29,0a6,6,0,0,0,2.28,1c4.68,1,8.89,1.22,12.59-.37q3.1-.43,6.18-1.16a5,5,0,0,0,.88,1.11,6.26,6.26,0,0,0,4.24,1.75h.79a6.23,6.23,0,0,0,4.24-1.75,6.16,6.16,0,0,0,1.76-4.25,6.05,6.05,0,0,0-1.76-4.24,6.24,6.24,0,0,0-4.24-1.76H1146a5,5,0,0,0-.67,0,4.89,4.89,0,0,0-.33-.51,63.53,63.53,0,0,1-7.34-12.28,6.2,6.2,0,0,0-2.26-5.75,61.2,61.2,0,0,1-3.08-22.31,6.16,6.16,0,0,0,2.78-5.13q.21-10.77,1.18-21.49a142.52,142.52,0,0,1,6.92-13.68,10.47,10.47,0,0,0,7.71,4.78c9.85,1.27,17.3-2.17,23.1-8a20.33,20.33,0,0,0,10.56-17.7,5.68,5.68,0,0,0-.55-2.52c1.68-3.14,3.28-6.32,4.68-9.55a25.9,25.9,0,0,0,2.19-9,28,28,0,0,0,2.16-2.42C1196.69,1055.65,1193.3,1048.26,1188,1049Z" transform="translate(-819.8 -741.73)"/><path class="cls-4" d="M1400.65,963.78a12.83,12.83,0,0,0-6.16-8.28,15.75,15.75,0,0,0-6.15-2.19,23.67,23.67,0,0,0-8.43-3.86,5.57,5.57,0,0,0-5.74-5.1c-4.6,0-6.46,4.26-5.58,7.7A14.22,14.22,0,0,0,1364,962c0,.41,0,.79,0,1.18-.23.41-.45.82-.66,1.24s-.45.72-.65,1.09c-7.34.13-7.56,11.23-.6,12a13.46,13.46,0,0,0,1.53,3.2,15.23,15.23,0,0,0,1.2,2.48,15.84,15.84,0,0,0,7.08,6.13,6.28,6.28,0,0,0,1.48,4c-2.41,3.49-.86,9.67,4.7,9.67a5.54,5.54,0,0,0,5.66-4.66,5.06,5.06,0,0,0,.77-.39,6.13,6.13,0,0,0,2.24-8c0-.08,0-.16-.07-.24v-.08a16.66,16.66,0,0,0,5.17-4.68c2.25-3.07,4.86-6.08,6.87-9.32h.1C1405.88,975.52,1406.5,965.5,1400.65,963.78Z" transform="translate(-819.8 -741.73)"/><path class="cls-4" d="M1531.79,875.08a20.9,20.9,0,0,1-9.69-.54c-4-1.23-4.37-2-6.16-5.53-2.41-4.75-6.14-9-7.28-14.16.28-2.07.59-4.14,1-6.21a17,17,0,0,0,.23-1.85,7.2,7.2,0,0,0,.63-2.48q.46-6.85.92-13.69a5.76,5.76,0,0,0-3.32-5.32,14.33,14.33,0,0,0,2.7-3.17c2.58-4.27,3.54-9.32,4-14.21a5,5,0,0,0-1.2-4c0-.46,0-.92,0-1.37a39.85,39.85,0,0,0,.48-4.24,30.37,30.37,0,0,0-1.56-11.51c-1-3-3.14-5.46-4.56-8.2,0-.27-.09-.53-.14-.79a5.59,5.59,0,0,0-1.35-2.78c-3.07-5.77-13.19-2.58-11.07,4.4,0,.18.12.36.18.53l-.21.48a5.19,5.19,0,0,0-4,2,56.39,56.39,0,0,0-6.14,8.48,14.75,14.75,0,0,0-3.76,3.87,50.77,50.77,0,0,1-5.7,7.13c-.19.2-.66.8-1.08,1.33a11.74,11.74,0,0,0-11.28,2.69,5.7,5.7,0,0,0-3-.85c-3,0-6.28,2.76-6,6a12.65,12.65,0,0,0,2.7,7c-1.33,9.57,5.48,16.1,13.87,15.46l.17.11c8,4.6,20,0,27.87-3.26l.43-.19a4.36,4.36,0,0,0-.06.49l-.12,1.76c-6.13-1-13.51,2.86-14.73,9.35a219.81,219.81,0,0,0-2.92,24.24c-5.27-.15-9.4,3.58-11.26,8.29l-1.17-.31a5.81,5.81,0,0,0-3.09-.82,5.56,5.56,0,0,0-5.72,5,5.77,5.77,0,0,0,4.07,6.93c2.88.87,5,1.14,6.91,3.18a24.7,24.7,0,0,0,5.23,4.33c6.31,6,15.11,8.18,23.8,6.73a4.54,4.54,0,0,0,1.29-.42c.63.06,1.25.07,1.86.07a6.18,6.18,0,0,0,.92.27c7.25,1.54,15.46-2.12,20.61-7.61a18.56,18.56,0,0,0,8-4.71c.67-.08,1.31-.18,1.92-.28C1542.57,885.31,1539.35,873.74,1531.79,875.08Z" transform="translate(-819.8 -741.73)"/><path class="cls-4" d="M1662.88,1275l-3.05-.93c-2.89-4.39-7.35-8-12.52-8.2-.44-.35-.9-.7-1.36-1a13.77,13.77,0,0,0-3-5.58,30.49,30.49,0,0,0-12.72-7.84c-1.1-1.64-2.23-3.26-3.43-4.84a6.2,6.2,0,0,0-3-2.2,60.84,60.84,0,0,0-7.66-7.39c-4-6.22-7.94-12.5-12.93-18s-11.59-9.62-17.06-14.81c-5.25-5-6.48-11.64-10-19-3.35-7-9.22-12-12.74-18.53-2-3.65-2.92-7.8-4.48-11.65-.7-1.72-1.46-3.41-2.23-5.1a13.29,13.29,0,0,0,4,2c.32.11.65.19,1,.28a5.55,5.55,0,0,0,4.68,2.36l70.71.89c2.39,0,5.38-1.87,5.79-4.41a44.43,44.43,0,0,0-.29-16.63,7.83,7.83,0,0,0,1.59-4.11c1.26-3.52-.53-8.28-5.4-8.28a6.39,6.39,0,0,0-1.87.27,7.55,7.55,0,0,0-2,.61l-3.12,1.44a4.91,4.91,0,0,0-1.91,1.76,13,13,0,0,0-2.09-.1c-9.86.41-19.19-2.39-28.62-4.82a9.21,9.21,0,0,1-1.3-1.28c-2.43-3-4.19-6-7.73-7.83-7.46-3.78-15.48,1.23-22.67,3.89a31.5,31.5,0,0,0-7.7,2.2,5.26,5.26,0,0,0-1.2-.47,14.6,14.6,0,0,0-6.65-.26c1.84-1.65,3.66-3.31,5.46-5q5.74-5.39,11.24-11c3.49-3.58,7-7.11,8.45-11.56a3.79,3.79,0,0,0,1.5-.25l2-.78A6.81,6.81,0,0,0,1584,1086a6.14,6.14,0,0,0,.6-4.63,6,6,0,0,0-2.76-3.58,5.82,5.82,0,0,0-4.62-.61l-1.6.64c-4.48-8.79-15.74-15.28-25.19-12.5l-.13,0c5.62-6.25,8.79-14.53,11.17-23a11,11,0,0,0,1.79-6.65,1.21,1.21,0,0,1,0-.19c.19-.77.37-1.54.56-2.3a91,91,0,0,0,6.16-12.34c2.25-5.72,2.6-11.9,4.66-17.65,1.79-5,5.63-10.49,7.25-16.39h.07a5.48,5.48,0,0,0,4.61-2.22c4-2.92,2.89-10.95-3.44-10.95a5.77,5.77,0,0,0-3.32,1,14.8,14.8,0,0,0-3.65-3.43c-6.6-4.41-16.64-7.29-24-3.88a5.75,5.75,0,0,0-3.5-1.09c-5.9,0-7.3,7-4.18,10.3a15.78,15.78,0,0,0-.44,5.52,12.31,12.31,0,0,0-2.06,7.33c.2,12.72-3.78,25-4.69,37.61-.53.91-1.06,1.83-1.55,2.76a60.25,60.25,0,0,0-3.43,7.73,15.72,15.72,0,0,0-5,6.9c-2.78,7.4-9.93,14.36-15,21.41a72.81,72.81,0,0,0-8.51,15.45q-4.93,4.82-9.72,9.76c-1.46,1.51-3,3-4.47,4.58a5,5,0,0,0-1.6-.22,7.36,7.36,0,0,0-2.35.49,32.08,32.08,0,0,0-9.91-1.26c-3.89-2.06-7.78-4.17-11.56-6.49-7.52-4.59-14.75-9.61-21.87-14.78a6.27,6.27,0,0,0-1.12-1.81c-5.65-6.5-11-14-17.61-19.54-3-2.56-6.78-4.15-9.59-6.94s-4.56-6.29-6.41-9.64c-2.9-5.22-9.76-2.78-11,1.72a8.11,8.11,0,0,0-1.06.77,10.39,10.39,0,0,0-1.78,2.11l-6.8,8c-1.15,1.35-2.36,2.69-3.39,4.14a9.48,9.48,0,0,0-3.2,2.89,7.92,7.92,0,0,0-.07,8.2,6,6,0,0,0,6.33,2.83c1.2.4,2.41.8,3.62,1.23a41,41,0,0,0,15.39,11.59,6.71,6.71,0,0,0,1.9.51c3,2.5,6.18,4.85,9.35,7.24,8.32,6.25,16.68,12.44,25.33,18.22a16.24,16.24,0,0,0-2.75-1.17c-5.61-1.79-12.87.06-18.63.57q-27,2.42-54,5.4l-1.05-.09a5.19,5.19,0,0,0-4.19-1.46,167.39,167.39,0,0,1-21.13,0c-6.28-.4-7.43,7.47-3.5,10.68a12.27,12.27,0,0,0-1.49,6,12.67,12.67,0,0,0,3.46,8.7l-1.1.87c-2.45,2-2.22,6.45,0,8.49,2.6,2.39,5.87,2.12,8.48,0,1.3-1,3-2.27,4.71-3.46l8.28-2.81.06,0c2.67-.31,5.33-.62,8-.91,1.44.18,2.87.4,4.22.53q13.33,1.24,26.63,3c5.11.67,10.22,1.49,15.31,2.2a12.9,12.9,0,0,0,11.38,8.71l-.29.05c-5.67,1-15.13,4.36-17.67,10s-.16,14.72,3.3,19.52c1.43,2,3.5,3.2,5.34,4.64a15.2,15.2,0,0,0,3.54,6.79c-.07.14-.15.26-.21.4-1.59,3.62-.41,7.51,3.58,8.81a8.77,8.77,0,0,0,5.68.05,5.71,5.71,0,0,0,4-4.09,19.51,19.51,0,0,0,2.19-.82c1.85-1,3.11-2.79,4.8-3.67,2.61-1.34,6.65-1.55,9.53-2.21l10.74-2.49c7.45-1.72,4.38-13.11-3-11.6a6.12,6.12,0,0,0-1-.65,16.4,16.4,0,0,0-8-1.66c-.66,0-2.58-.09-2.33.13-.8-.71-1.67-3.71-2-4.56-1.19-3.29-2.16-6.7-.29-9.91,1.43-2.47,4.15-4.37,6.32-6.12,4.47-3.59.91-9.07-3.6-9.88,1.26-.45,2.52-.89,3.8-1.29a6.11,6.11,0,0,0,5.77,6.58,15.82,15.82,0,0,1,6.23,1.57c-1.63,6.75,1.63,14.72,8.8,16.15l-2.19,1.51a6.06,6.06,0,0,0-2.32,3c-3.43,3.19-2.12,10.55,3.93,10.55a5.48,5.48,0,0,0,5.47-3.92c5.56-3.88,11.25-7.56,17.1-11,4.4-2.56,9.24-4.71,13.29-7.85,5.86,11.5,11.3,24.93,21.71,32.73,1.55,1.17,2.82,2.06,3.92,2.89,6.94,14.61,17.36,27.19,24.27,41.86a4.88,4.88,0,0,0,5.79,2.93Q1568,1249,1575,1259.33c12.63,18.69,25.34,36.72,43.69,50a6.38,6.38,0,0,0,.17,1.05,12.33,12.33,0,0,0,2.93,5.76,9,9,0,0,0,3.1,2c-1.57,3.55.17,8.7,5.24,8.7,4.78,0,6.6-4.59,5.46-8.09a4.83,4.83,0,0,0,1.1-1.53,8.22,8.22,0,0,0,.67-2.75c7-4.79,9.4-12.71,15.49-18.27,2.7-2.47,6.72-2.61,9-5.65a8.4,8.4,0,0,0,1.62-4.18C1668.82,1284.71,1668.12,1276.63,1662.88,1275ZM1434.43,1148.6a10.24,10.24,0,0,1-5.43,1.25,13.51,13.51,0,0,0,3.59-1.27c1.75-.93,3.53-1.78,5.33-2.59A42.81,42.81,0,0,1,1434.43,1148.6Zm18.52-34.9c-.67.15-1.33.32-2,.48h-.08a13.1,13.1,0,0,0-1.4,0,14.65,14.65,0,0,0-4.81-7.65l.3.21q3.69,2.38,7.45,4.6a18,18,0,0,0,1.16,2.27Zm16.39,20.25a14.3,14.3,0,0,0-3,3.74c-.1.17-.25.38-.39.6-.91-.38-2-.72-2.78-1a10.43,10.43,0,0,0,5-5.58l1.54,1.88Z" transform="translate(-819.8 -741.73)"/><path class="cls-4" d="M1846.42,1226.83c-2.09,3.26-4.09,8.7-8.21,9.3q-.37.06-.72.15a17.53,17.53,0,0,0-2.15-3.38c-2-2.46-5.14-3-7.63-4.78-1.76-4.46-3.28-8.92-5.73-13.18a5.45,5.45,0,0,0-4.24-2.89,12.9,12.9,0,0,0-2.19-2.83l.12-.12c2.17-2.27,2.42-6.26,0-8.49a6.1,6.1,0,0,0-8.49,0c-.8.84-1.61,1.66-2.42,2.48a7.48,7.48,0,0,0-2.81.69c1.28-.59-.12,0-.36.08a4.7,4.7,0,0,1-1.41.31l.63-.1c-.32,0-.64,0-1,0s-1.79-.21-.32,0c-2.85-.46-6.06.61-7.15,3.44-.66.1-1.32.18-2,.25-10.06-2.32-20.61-3.31-30.9-4.6a31.46,31.46,0,0,0-1.76-3.07h0a19.2,19.2,0,0,0-2.68-15.44,5.93,5.93,0,0,0-6.43-2.67,9.44,9.44,0,0,0-3-.38,6.08,6.08,0,0,0-2.93.84,14.89,14.89,0,0,0-2.29-5.26c3.19-2.88,3-9.07-2.17-10.31a19.05,19.05,0,0,1-2.1-.65c-.33-.36-.67-.72-1-1.09-1.08-1.29-2-2.71-3.19-3.9a12.38,12.38,0,0,0-5.24-3.42,5.86,5.86,0,0,0-6.51-.34,14,14,0,0,0-6,8.45,15.05,15.05,0,0,0-.51,1.42c-4.89,1.11-7.67,8.23-2.07,10.82l2.18,1c.07.94.15,1.87.22,2.78.81,11.07.14,23.1,5.68,33,4.35,7.81,9.84,16.24,19.11,18.45,7.36,1.75,18.46,1.33,25-3.57l4.42.62c4.34.62,8.74,1.11,13.08,1.91a4.59,4.59,0,0,0,.55,1.11,39.36,39.36,0,0,0,4.71,5.81,53.82,53.82,0,0,0,2.65,12.12c.2.63.41,1.25.62,1.87a15.71,15.71,0,0,0-2.73,7.67,109.54,109.54,0,0,1-2.76,16.29,21.37,21.37,0,0,0-4.26,3.49c-1.26,1.39-2.32,3.61-3.62,4.69-1.54,1.28-3.73,2-5.39,3.24-.59.43-1.17.87-1.73,1.32a4.66,4.66,0,0,0-4.69,2.54c-.08.08-.17.14-.24.21a6.09,6.09,0,0,0-1.76,4.24,6.47,6.47,0,0,0,1.09,3.47c1.4,3,5.17,5,8.38,3.06a48.83,48.83,0,0,0,26.06.37,8.33,8.33,0,0,0,.8-.27,52.08,52.08,0,0,0,16.66-1.62c8.39-2.46,15.64-8.31,21.49-14.66a73.46,73.46,0,0,0,14.66-23.94c4.1-7.84,6.53-16.25,5.23-25.13a6,6,0,0,0-.46-1.59,69.11,69.11,0,0,0,1.08-6.87C1858.26,1223.54,1849.36,1222.25,1846.42,1226.83Z" transform="translate(-819.8 -741.73)"/><path class="cls-4" d="M1855.93,929.27l-10.15-5.3c-3.31-1.73-7-3.23-9.52-6.12a42.44,42.44,0,0,1-3.62-4.85c-.71-2.43-1.41-4.89-2.28-7.12-.51-1.28-1-2.55-1.57-3.82A17.61,17.61,0,0,1,1829,898a6.18,6.18,0,0,0-3.33-6.69c1.79-3.77,4-7.35,5.42-11.24,1.76-4.74-4.66-9.79-8.82-6.78-2.66,1.93-5.78,2.6-8.73,3.65a5.22,5.22,0,0,0-1,0c0-.63-.11-1.26-.18-1.9-1-9.63-.76-21.57-12.36-24.42a22.2,22.2,0,0,0-4.42-.62,6.12,6.12,0,0,0-3.55-.4,9.36,9.36,0,0,0-2.62.92,26.5,26.5,0,0,0-4.66,1.46,36.07,36.07,0,0,0-3.79,0c-4.6.54-8.92,2.28-13.48,2.95-3.84.56-7.74-1.41-11.38.36-4.5,2.19-4.2,7-4.15,11.24a5.49,5.49,0,0,0,.38,2c-3.12,5.31-3.3,12-3.84,18.65-.68,8.34-2.24,17.27.07,25.5a26.08,26.08,0,0,0,4.78,9.39c1.35,8.33,8.48,15,16.71,17.91a32.31,32.31,0,0,0,10.45,1.88c.7,7.84,2.2,15.74,6.75,22.32a28.88,28.88,0,0,0,21.85,12.74,23.8,23.8,0,0,0,17.57-6.44,40.71,40.71,0,0,0,3.84-2,31.37,31.37,0,0,0,10.54-8l.52-.49,0,0c.71-.83,1.41-1.68,2.09-2.59a9.44,9.44,0,0,0,1.54-3.29,12.51,12.51,0,0,0,6-2.57c3.38-2.7,6.06-7.83,5-12.36C1859.36,936.85,1860.41,931.62,1855.93,929.27Z" transform="translate(-819.8 -741.73)"/><path class="cls-4" d="M1198.09,956.09c-7.72,0-7.74,12,0,12S1205.82,956.09,1198.09,956.09Z" transform="translate(-819.8 -741.73)"/></g><g id="Réteg_23" data-name="Réteg 23"><path class="cls-5" d="M2061.69,1469.22l-.39-10.18a5.84,5.84,0,0,0-2.26-4.39,11.6,11.6,0,0,0,.09-1.87c-.32-7.79.78-17.58-4.05-24.2a15.85,15.85,0,0,0-.08-8.13c-1.31-3.74-5-4.91-8.42-6s-5.5.25-7.67,2.12a15,15,0,0,0-5.46,1.75,18.87,18.87,0,0,0-10.11,4.13c-.82.08-1.61.13-2.33.16a5.41,5.41,0,0,0-5.25,5c-6,2.75-11.93,5.65-17.66,8.84a94.46,94.46,0,0,0-16.12,12c-4.63,4.07-10.17,7-14.58,11.37a71.82,71.82,0,0,0-10.81,14c-6.44,4.52-10.18,13.41-13.56,20-4.41,8.69-8.35,17.9-10,27.56a84.34,84.34,0,0,0,8.73,54.64c2.77,5.19,9.24,7.36,14.73,5.91a12.6,12.6,0,0,0,7,2,12,12,0,0,0,9.22-3.86,13.5,13.5,0,0,0,6.32-4h.11l3.46-.46a13,13,0,0,0,5.73-3.35c.12-.14.23-.29.34-.43a6,6,0,0,0,6.65-5.22q1.47-12.87,2.12-25.81c6.59-20.51,12.13-41.54,9.09-62.89,0-.08,0-.15,0-.23a210.17,210.17,0,0,1,20.52-10.85,11.26,11.26,0,0,0,5,3.58q.29,3.12.48,6.25a218.75,218.75,0,0,1-.53,32.78,10.7,10.7,0,0,0,2.21,7.33q-2,11.39-3.24,22.88a4.6,4.6,0,0,0-2.37,3.17,14.3,14.3,0,0,1-.6,2.29,7.28,7.28,0,0,0-.6,1.18,5.76,5.76,0,0,0-.31,4.85c-.08,2.82,1.68,5.69,5.31,5.69a5.2,5.2,0,0,0,5.31-5.44,4.8,4.8,0,0,0,.53-.47,5.71,5.71,0,0,0,1.61-3.89v-1a5.31,5.31,0,0,0,.84-.93,5.77,5.77,0,0,0,5.21-3.65c.72-1.79,1.12-3.63,1.72-5.45a31.8,31.8,0,0,1,3.06-5.72,20.88,20.88,0,0,0,2.46-10.79,15,15,0,0,0,4.86-10,218.12,218.12,0,0,0,.34-35.23A5.43,5.43,0,0,0,2061.69,1469.22Z" transform="translate(-819.8 -741.73)"/></g><g id="Réteg_19" data-name="Réteg 19"><path class="cls-6" d="M1414.26,1195.13a37,37,0,0,0-2.3-8,50.54,50.54,0,0,1-2.2-9.95c-.82-5.89-1.32-12.63-7.27-15.75-6.51-3.41-14.37,1.39-20.44,3.78a9.33,9.33,0,0,0-3.91,2.81c-6.31-.56-11.94.87-18.13,3.42l4.64-2c-20.43,8.53-41.68,14.61-63.3,19.28-19.74,4.26-39.72,8.08-59.72,11-16,1.82-32.05,1.71-48.06,2.47a7.45,7.45,0,0,0-2.91-1.66,39.49,39.49,0,0,0-11.23-1.4,68.36,68.36,0,0,1-8.09-3c-5.85-2.67-10.68-5.89-17.35-3.93a112,112,0,0,0-16.17,6.36,31.35,31.35,0,0,0-20.54.46,6.81,6.81,0,0,0-6.71-4.55,7.44,7.44,0,0,0-3.28.7c-4.08.85-5.9,4.77-5.47,8.36a15.52,15.52,0,0,0-2.07,2.66c-.14.23-.73,1.06-.77,1.19-.25.26-.51.52-.77.77s-.8.76-1.22,1.12l-.78.42c-1.25.67-2.47,1.38-3.73,2-.15.08-.78.35-1.12.5-.69.27-1.39.54-2.08.79-6.72,2.41-15,5.24-21.29,6-4.64.55-9-.37-13.49-1.19-8.63-3.65-18.42-2.44-27.32.52a7.34,7.34,0,0,0-4.33,3.6,65.72,65.72,0,0,0-6.37,3.24c-15,8.66-26.85,22.52-38.93,34.71-3.31,3.33-6.61,6.68-9.91,10a5.58,5.58,0,0,0-3.4,1.11,67.84,67.84,0,0,1-25,12.13,80.49,80.49,0,0,1-22-3.47l-1.87-.63a17.58,17.58,0,0,0-3.45-4.78,16.76,16.76,0,0,0-4.45-3.16h0c.36-4-2-8.28-7.21-8.28-4.9,0-7.31,3.88-7.23,7.69-4,1.68-6.93,4.76-10.19,7.64-5.93,5.24-11.53,10.39-17,16.13a14.81,14.81,0,0,0-2.31,3.19,8.34,8.34,0,0,0-1.86-.21c-9.66,0-9.67,15,0,15a8.11,8.11,0,0,0,2-.26,14.49,14.49,0,0,0,2.14,2.79,14.27,14.27,0,0,0,6.88,3.75,26.27,26.27,0,0,0,3.92,12,42.13,42.13,0,0,0,4.87,6.2c-2.3,5.3-.89,11.45,3,16.1-1-1.25-.09.4.15.59.23.78.67,2.15.67,2.13.19.77.35,1.56.49,2.35-.12-.58.21,1.4.27,2,.57,5.5.89,11.24,2.6,16.53A33.66,33.66,0,0,0,899,1391.9c.43,1.56.86,3.12,1.28,4.68,1.68,6.11,2.8,12.74,7.08,17.65,1.87,2.14,3,3,3.91,5.65a15.45,15.45,0,0,0,4.81,7.55c2.2,1.85,2.9,4.16,5,6.15a14.53,14.53,0,0,0,3.14,2.14c.81.43,2,1.27,2.48,1.23,1,4.09,5.38,6.43,9.09,5.88a38.92,38.92,0,0,0,28,10.76,37.34,37.34,0,0,0,5.74-.61,6.63,6.63,0,0,0,6.46,1.15,138,138,0,0,0,31.45-14.06,5.9,5.9,0,0,0,4.41.08c19.81-8,36.78-20.5,52.44-34.84,7.62-7,15-14.22,22.24-21.6a96.23,96.23,0,0,0,7.09-8,47.42,47.42,0,0,0,9.21-3.64c6.22-3.29,9.78-8.45,14.42-13.41,4.34-4.66,8.83-8.77,12.65-13.92a70.51,70.51,0,0,0,7.68-13.42c1.83-4.1,3.43-8.27,5-12.46,5.16-6.61,8.87-14.71,13.13-21.56a74.6,74.6,0,0,1,12.39-15.78c5.29-4.89,12-7.76,17.71-12.09a9.9,9.9,0,0,0,2.55-2.79c10.63-1.35,21.27-2.6,32-3.28,12.45-.78,24.71,0,37.16.24,24.17.51,48.6-8.54,71.27-16.08a7.28,7.28,0,0,0,4.29-3.53l.58-.14a380.12,380.12,0,0,0,56.4-19.4c5-2.15,9.61-8,12.24-13.57a7.81,7.81,0,0,0,2.5-.46,15.49,15.49,0,0,0,3.59-1.81,7.17,7.17,0,0,0,4.4,1.37C1421.73,1210,1422.28,1196.7,1414.26,1195.13Z" transform="translate(-819.8 -741.73)"/><path class="cls-6" d="M1334.48,1134.57a9.28,9.28,0,0,0-.86-.69c.43-3,.39-6.16.54-9.14a7.62,7.62,0,0,0,0-1.36c2.26-2.38,2-5.8.28-8.42-.51-3.41-3.71-7-7.42-6.57-20,2.59-39.9,4.89-60.06,5.11s-40.09-.46-60,2.57a181.46,181.46,0,0,0-23.23,5.59c-10.77-.45-20.62,1.44-30.86,5a26.14,26.14,0,0,0-6.17,1.4,7.7,7.7,0,0,0-8.3,1.61l-.24.24a7,7,0,0,0-1.23,8.48,15,15,0,0,0-.33,1.7,25.66,25.66,0,0,0,1,9.89l.15,3.12c.12,2.51.17,5,.36,7.53.11,1.51,1.57,6.37,1.31,7.18-2.88,9.09,11.13,13,14.32,4.37,31.26-9.86,63.79-14.23,96.28-17.93,17-1.93,34-3.77,51-6.14,7.12-1,14.94-1.48,22-3.25.11.12.22.24.34.35a7.78,7.78,0,0,0,5.3,2.2h.52a7.74,7.74,0,0,0,5.31-2.2,8.28,8.28,0,0,0,2.19-5.3A7.54,7.54,0,0,0,1334.48,1134.57Z" transform="translate(-819.8 -741.73)"/></g><g id="Réteg_17" data-name="Réteg 17"><path class="cls-7" d="M1210.67,838c-.81-2.87-3.54-4.42-5.37-6.56-.71-.84-1.39-1.71-2-2.6a5.25,5.25,0,0,0-2.53-3.61c-2.31-3.46-4.48-7.05-7.08-10.29a55.21,55.21,0,0,0-14.86-13.35,43.59,43.59,0,0,0-10-4.42l-.25-.12c-.8-.34-1.65-.68-2.54-1a10.71,10.71,0,0,0-6.85-5.63c-7.54-2.32-18.41-1.7-25.09,2.69-7.07,4.66-13.46,13.52-15.48,21.73a34.37,34.37,0,0,0-.43,11.12,5.86,5.86,0,0,0-1.37,3.78c0,.8,0,1.6,0,2.41a7.45,7.45,0,0,0-1.5,3.85,12.7,12.7,0,0,0,1.7,7.37,5.18,5.18,0,0,0,.67.94,17.15,17.15,0,0,1-.69,1.6c-3.45,6.87,6.79,12.94,10.36,6a36.75,36.75,0,0,1,3.44-5.44,5.37,5.37,0,0,0,4.35-1.9l3.27-3.5a3.5,3.5,0,0,1,3.57-4.68,40.85,40.85,0,0,0,6.36-3.13,34.13,34.13,0,0,1,5.61-1.85l1.12-.3c1.45,4.57,4.64,7.44,8.64,10.81,2.12,1.78,3.55,4.25,5.74,5.91,2.53,1.93,5.87,2.56,8.87,3.43l1,.3a21.55,21.55,0,0,0,9.51,2.76c6.58.17,14.92-3.45,19.48-8.23A8.59,8.59,0,0,0,1210.67,838Z" transform="translate(-819.8 -741.73)"/></g><g id="Réteg_18" data-name="Réteg 18"><path class="cls-8" d="M1559.94,865.58a13.48,13.48,0,0,0-2.21-3.59,9.62,9.62,0,0,0-3.74-2c-.15-.31-.29-.63-.44-.94a6.36,6.36,0,0,0-2.19-2.66,14.38,14.38,0,0,0,0-1.86c0-.53-.08-1.05-.14-1.56l.14-1a18.88,18.88,0,0,0-2.59-9.59c-.18-.26-.35-.52-.52-.78a16.46,16.46,0,0,0-1.12-1.76,16.38,16.38,0,0,0,.06-2.22,21,21,0,0,0-1.9-7.78,20.49,20.49,0,0,0-4.89-11.81c.94-6.24-1.26-11.39-3.85-16.86a59.39,59.39,0,0,0-.51-8,70.42,70.42,0,0,0-3.63-12.89,96.25,96.25,0,0,0-4.92-15.88c-6.49-16.1-28.93-18-43.93-16.9a8.1,8.1,0,0,0-1.75.31,18.43,18.43,0,0,0-4-.43,19.8,19.8,0,0,0-16,8.78,20.11,20.11,0,0,0-6.63,6,19,19,0,0,0-8.64,12.21,18.3,18.3,0,0,0-2.55,4.9c-5.79,1.87-10.85,8.68-12.2,14a7,7,0,0,0,1.58,6.68c-3.13,4.05-4.82,8.34-6.51,13.2-1.85,5.31-3.29,11.11-5.92,16.09a22.25,22.25,0,0,1-1.42,2.31,20,20,0,0,0-6.12,6.49,15.1,15.1,0,0,1-3.56,2.07c-4.22,1.62-7.41,6.64-4.48,11,3.71,5.57,7.61,10.37,13.18,14.17,2.2,1.5,4.59,2.73,6.72,4.32,2.49,1.86,4.09,4.8,7,6.06,5.42,2.35,13.51-.71,18.81-2.41l.91-.3a19.07,19.07,0,0,0,9.75-.09l1.3-.26a14.25,14.25,0,0,0,6.46-3.4,13.88,13.88,0,0,0,1.8-1.42c4.92-3.5,8.31-9.15,8-15.37,0-.18,0-.36-.05-.54,3.08-2.69,3.53-8.15.41-11.09a16.05,16.05,0,0,0-9.26-4.35,18.12,18.12,0,0,0-6.93-2.71c-1.29-.91-2.55-1.88-3.78-2.87a19.43,19.43,0,0,0-7-7.87c-1-5.52-2-11-3-16.55a5.69,5.69,0,0,0-.87-2.14c.8-1.1,1.65-2.32,2.48-3.63a18.29,18.29,0,0,0,10.76,3.45,19.76,19.76,0,0,0,14.86-7.24c7.53-2.17,13.79-9.05,14-17.06a17.8,17.8,0,0,0,5.76-12.77,6.57,6.57,0,0,0,5.53.4l.36-.11,0,0a27.58,27.58,0,0,0,2.82,3,69.38,69.38,0,0,1,4.62,5.53,42,42,0,0,1,6.72,12.69c.81,2.71,1.26,5.43,1.89,8.12-.87,6.42-4.43,12.11-5.13,18.67a5.77,5.77,0,0,0,0,1.1,17.83,17.83,0,0,0-6.33,14,83.64,83.64,0,0,0,5.79,18.33c-.11.76-.21,1.52-.31,2.28a19.33,19.33,0,0,0,.67,5,20.76,20.76,0,0,0,2.48,7.59,8.8,8.8,0,0,0,1.5,4.77,10.75,10.75,0,0,0,4.35,3.72,15.31,15.31,0,0,0,8.46,4.14,47,47,0,0,0,8.71.23l.87,0c3.14,2,7.25,1.78,10.86,1.45a9.14,9.14,0,0,0,2.63-.63c.28,0,.56,0,.83,0C1561.38,877,1563.09,869.91,1559.94,865.58Z" transform="translate(-819.8 -741.73)"/><path class="cls-9" d="M1836.24,815.46a14.57,14.57,0,0,0-2.82-3.67c-9.54-9-25.67-2-35.1,3.62-5.09,3.06-9.7,6.46-15.9,6.27-5.9-.18-11.18-3.16-16.81-4.23a43.46,43.46,0,0,0-7.32-7.29c-7.7-6.23-15.29,1.45-18.55,8.56-4.46,9.73-2.32,22,5,28.41a11.89,11.89,0,0,0,6.52,4.82,24.3,24.3,0,0,0,2.42.56c4.16,4.36,9.8,3.12,15.46.55a8.24,8.24,0,0,0,4.92-.87c.37-.2.74-.37,1.11-.56l3.06-.48a6,6,0,0,0,3.74-2c7.63-2,15.8-1.54,23.55.07,1.93.4,3.84.88,5.74,1.4,0,.13,0,.26-.07.38-1.26,4.64,1.69,8,5.28,9a4.61,4.61,0,0,1,.57,3c-1.2,4.22,2.32,10.11,7.23,9.5,8.54-1.08,13-7.22,14.7-15,.18-.29.35-.59.52-.9,2.75-5,5.4-10.39,6.49-16C1847.62,831.67,1845.54,818.47,1836.24,815.46Z" transform="translate(-819.8 -741.73)"/><path class="cls-10" d="M2031.37,1481.44a4.1,4.1,0,0,0,.08-1.27,10.33,10.33,0,0,0-4.34-7.87c-.06,0-.14-.08-.2-.13a5.54,5.54,0,0,0-7.38-1.85c-.65.39-1.33.77-2,1.16a9.74,9.74,0,0,0-2,1.29,7.09,7.09,0,0,0-2.88,3.42,6.21,6.21,0,0,0-1,2.9l0,.18a20.61,20.61,0,0,0-2.85,5.94,29.52,29.52,0,0,0-1.15,7.48,42.4,42.4,0,0,0-.74,14.2c-.2,1.52-.37,3-.53,4.59-.4,3.88-.78,7.75-1.17,11.62a5.59,5.59,0,0,0-.6,2.47l-.09,4.45c-.22,2.21-.45,4.43-.67,6.65a5.85,5.85,0,0,0-.34.71l-.06.15a6.39,6.39,0,0,0-.86,1.47,9.07,9.07,0,0,0-.58,2.38,75.18,75.18,0,0,0-2.47,8c-.93,3.88-.84,7.9-1.7,11.74-.79,3.57-2.68,6.44-3,10.19s-.33,7.47-.41,11.2c-.74.74-1.47,1.5-2.16,2.31-2.83,3.32-3.4,7.21-3.91,11.4-.33,2.65-.64,5.29-1,7.94a5.34,5.34,0,0,0-1.23,2.42,23,23,0,0,1-5.16,10.35,5.39,5.39,0,0,0-.78,6.27,5.23,5.23,0,0,0,1.55,3.84c2,2,5.81,2.24,7.78,0,.12-.13.23-.27.34-.4a5.63,5.63,0,0,0,2.77-.61,22.69,22.69,0,0,0,11.85-15c8.52-9.45,10.38-21.25,12.94-33.34q4.33-20.42,8.57-40.85c2.61-12.63,5.37-25.34,6-38.26C2032.26,1493.13,2032.53,1486.92,2031.37,1481.44Z" transform="translate(-819.8 -741.73)"/><path class="cls-10" d="M1166.51,878.5c1.79-2.14,2-5.58-.17-7.58s-5.7-2.27-7.77,0a11.3,11.3,0,0,0-3.15,8.21c.18,2.87,2.41,5.64,5.5,5.5,2.83-.13,5.69-2.42,5.5-5.5,0-.17,0-.34,0-.51Z" transform="translate(-819.8 -741.73)"/><path class="cls-10" d="M1204.76,868.17a6,6,0,0,0-.84-2.93,5.49,5.49,0,0,0-8.94-1.74,5.71,5.71,0,0,0-1.61,3.89v1.17h0v.78a5.67,5.67,0,0,0,1.61,3.89,5.5,5.5,0,0,0,7.78,0,6,6,0,0,0,1.5-2.81A5.62,5.62,0,0,0,1204.76,868.17Z" transform="translate(-819.8 -741.73)"/></g><g id="Réteg_24" data-name="Réteg 24"><path class="cls-11" d="M1819.67,1169.4a28.62,28.62,0,0,0-2.83-14.08c0-.06,0-.12-.08-.19a9.94,9.94,0,0,0-.53-5.37,7.3,7.3,0,0,0-2.32-3.26,42.52,42.52,0,0,0-8.21-14.89,5.9,5.9,0,0,0-3-2l0,0a5.7,5.7,0,0,0-2.87-2.07,28.36,28.36,0,0,0-9.38-7.83c-5.38-2.52-11.09-.72-16.53-2.38a5.7,5.7,0,0,0-6.13,1.51,24.83,24.83,0,0,0-5.59.49,35.11,35.11,0,0,0-12.14,0c-.41-.12-.82-.24-1.24-.34a18.76,18.76,0,0,0-12.78,1.37c-.32-.27-.64-.54-1-.84a6.63,6.63,0,0,0-4.45-1.83,5.67,5.67,0,0,0-2.33-.44,6.51,6.51,0,0,0-4.59,1.9,6.74,6.74,0,0,0-1.91,4.6v.39a6.77,6.77,0,0,0,1.24,3.79c-1.16,11.22,4.32,23.48,11.45,31.65a30.77,30.77,0,0,0,7,5.87c1.45.9,3.71,1.52,5.38,2.4a6.89,6.89,0,0,0-.3,1.25,7.12,7.12,0,0,0-.9,3.9,7.52,7.52,0,0,0,5.31,6.79,8.06,8.06,0,0,0,4,.11,16.56,16.56,0,0,0,1.45,1.14,23.14,23.14,0,0,0,2.49,1.19.43.43,0,0,0,0,0l-.23,1.73a6.31,6.31,0,0,0,.67,2.84,6.63,6.63,0,0,0,1.66,3.74c-.15,1.74-.31,3.47-.46,5.2-.37,4.18,2.71,6.23,6,6.22a10.11,10.11,0,0,0,4.44,2.59c2.73.73,5.74.35,8.52.88a24.59,24.59,0,0,0,9.17.19c5.68-1,11.4-3.65,16.61-6.08a11.4,11.4,0,0,0,6.42-7,24.53,24.53,0,0,0,2.27-2.06,6.59,6.59,0,0,0,1.86-4.61,6.29,6.29,0,0,0,2-4.64v-4.31c0-.14,0-.28,0-.43v0A21.59,21.59,0,0,0,1819.67,1169.4Z" transform="translate(-819.8 -741.73)"/></g><g id="Réteg_12" data-name="Réteg 12"><path class="cls-12" d="M1926.1,1003.38l-.18-.39c-.06-.54-.1-1.07-.18-1.61a42.29,42.29,0,0,0-1.6-6.91,45.37,45.37,0,0,0-.67-6,20.53,20.53,0,0,0-9-13.43,1.05,1.05,0,0,0-.11-.07,28.38,28.38,0,0,0-3.12-6c-3.83-5.46-9.93-9.32-15.17-13.31q-7-5.31-14.25-10.25a2.58,2.58,0,0,0,.41-1.33,2.55,2.55,0,0,0-2.5-2.5c.19,0,.13,0-.18,0l-.56-.13a8,8,0,0,1-.83-.26,8.14,8.14,0,0,1-1.45-.78,2.39,2.39,0,0,0-2.37-.06c-4-2.62-8.5-4.59-13.09-2-5.17,2.89-9.18,10-12.91,14.54a9.34,9.34,0,0,0-2,3.9,14.75,14.75,0,0,0-6.13,5.12,16.87,16.87,0,0,0-5.68,9.36l0,0a56,56,0,0,1-10.12,6.34,47.09,47.09,0,0,0-4.35,1.93,64.61,64.61,0,0,1-7.82,2.61l-.48.12-6.84-2.17-8.31-2.64a26.91,26.91,0,0,0-1.64-3.44,33.63,33.63,0,0,0-12.53-12.84,10.77,10.77,0,0,0,.35-1.85l0-.24a7,7,0,0,0-1.8-5.24,10.41,10.41,0,0,0,0-5.23c-2-7.45-11.83-10-19-12.23-.72-.28-1.47-.53-2.23-.76a5.58,5.58,0,0,0-.38-.47,108.45,108.45,0,0,0-8.89-8.92c2.34-5-.1-12.48-7.35-12.48a7.78,7.78,0,0,0-6.29,2.84,6.53,6.53,0,0,0-3.23,2.1c-.75.94-1.54,1.82-2.35,2.65-1.27.8-2.61,1.51-3.94,2.22a9.5,9.5,0,0,0-5.16.74c-4.88,2.09-9.45,4.5-13.14,8.39l-15.23,9.72c-13.42,2.31-25.81,8.65-37.85,15-13.44,7-26.39,15.1-37.91,25-12,10.33-20.5,23.13-29.73,35.81-8.35,11.46-21.42,20.11-25.9,34a8.71,8.71,0,0,0-.41,2.22,8.14,8.14,0,0,0-3.51,5.5,9.85,9.85,0,0,0-1,1.5A2.49,2.49,0,0,0,1559,1065a7.72,7.72,0,0,0,7.62,5.15c.32,0,.63,0,.94,0s.4,0,.62,0a9,9,0,0,0,2.06-.23,15,15,0,0,0,5.66,4.11,9,9,0,0,0,3.81,4.9c4.3,2.51,8.92.67,11.63-3.05,13.81-19,33.56-32.55,49-50.09,8.2-2.56,14.85-7.68,22-12.38a170.27,170.27,0,0,1,24.08-13.08,270.5,270.5,0,0,1,25.37-9.64q6.76-2.25,13.6-4.33c1.37-.42,3.19-1.11,5-1.77.81,9.45,1.67,18.85,2.79,28.26-.48,6.12-.44,12.41,1.19,18.14a41.85,41.85,0,0,0,2,5.53,50.51,50.51,0,0,0,1.42,7.31c-1.52,4.94,1.07,11.32,7.78,11.32.38,0,.74,0,1.09-.06,6.22,4.17,13,7.76,19.39,11.61a8.63,8.63,0,0,0,3.42,1.22,188.51,188.51,0,0,0,14.51,12.27c6.84,5.08,14.48,8.73,22.26,12.14l.27.1-3.34,3.09-3.32,3.07-1.26,1.16a9,9,0,0,0-5.18,4.71c-.76.23-1.51.48-2.25.77a10.27,10.27,0,0,0-5.24,4.4,2,2,0,0,0-.81-.13,2.58,2.58,0,0,0-2.49,2.21,2.51,2.51,0,0,0-.48,3.1,2.57,2.57,0,0,0,3.13,1c1.2,4,6.17,7.47,10.41,5.78a20.8,20.8,0,0,1,4.46-1.27c1.1,3.91,4.38,6.84,8.26,8.34a7.58,7.58,0,0,0,.18.95c1.34,4.87,5.9,6.61,10.46,5.93s7.89-3.48,11.68-5.77a73.85,73.85,0,0,1,9.18-4.54,105.31,105.31,0,0,0,20.09,29.23,9.07,9.07,0,0,0,2.41,1.79,122.07,122.07,0,0,0,6.12,11c-.88,6,2.61,12.83,10.49,12.83a10.9,10.9,0,0,0,5.36-1.32,16,16,0,0,0,5.62-.34,23.51,23.51,0,0,0,11-.5c.51-.15,1-.31,1.53-.48a12.56,12.56,0,0,0,2.67.29c7.12,0,10.66-5.56,10.63-11.08a20.85,20.85,0,0,0,1.36-7.39c.08-5.18.37-10.76-1.54-15.52a34.3,34.3,0,0,0,.26-8.19c.07.49.14,1,.2,1.48a48,48,0,0,1-.19-8.29c1.58-7.88,4.18-15.49,6-23.32a126.24,126.24,0,0,0,2.69-35.47c-.08-1.58-.2-3.15-.3-4.72a48.75,48.75,0,0,0,3.67-22.93c0-.15,0-.3,0-.45a9.29,9.29,0,0,0,.77-3.1c.43-6,.93-12,1.3-18A30.91,30.91,0,0,0,1926.1,1003.38Zm-73,54.24-.15.4-.11.24c-.9,2-2.12,2.59.38-1Z" transform="translate(-819.8 -741.73)"/><path class="cls-12" d="M1721.86,1145.64a17.33,17.33,0,0,0-2.6-5.43c-.31-.44-.63-.87-1-1.31a8.77,8.77,0,0,0,0-11.73,2.55,2.55,0,0,0-2.5-2.46,2.79,2.79,0,0,0-1,.26,9.49,9.49,0,0,0-2.52-.42c-6.67-.2-13.25.84-19.93.41s-13-1.5-19.56-2.23-16.21-1.94-22.93.63a2.42,2.42,0,0,0-1-.2,2.47,2.47,0,0,0-2.42,2c-2.48,1.89-4.09,4.73-4.24,9-.14,3.86-.13,8.33,1.6,11.81-1.55,4.88,1,11.44,7.75,11.74l24.8,1.12c7.54.34,15.53,0,23,1.21s15.42,3.73,20.6-3.83a15.16,15.16,0,0,0,.79-1.34,2.45,2.45,0,0,0,1.4-2.2v-.39a2.37,2.37,0,0,0-.18-.87A13.49,13.49,0,0,0,1721.86,1145.64Z" transform="translate(-819.8 -741.73)"/></g><g id="Réteg_13" data-name="Réteg 13"><path class="cls-2" d="M1602.63,922.17a40,40,0,0,0-15.9-30.45,31.89,31.89,0,0,0-7.07-6.64c-7.25-5-15.81-6.3-24.35-5.88a10.15,10.15,0,0,0-7.79-3.24c-6.56,0-10.08,4.73-10.56,9.8a15.61,15.61,0,0,0-4.15,7.09,17.39,17.39,0,0,0-2.88.55,230.19,230.19,0,0,1-26,6c-1.65.28-3.31.55-5,.78.3-.06-4,.43-4.42.47a79.79,79.79,0,0,1-10.37.29c-.47,0-1.85-.23-2.81-.36a74.59,74.59,0,0,0-6.81-3.3c-1-1-2.06-2-3-2.94-3.77-3.83-7.8-7.79-10.51-12.45a10.12,10.12,0,0,0-7-5.14,12,12,0,0,0-6.3,0,13.48,13.48,0,0,0-1.79,0,13,13,0,0,0-6.2,2.15,11,11,0,0,0-1,.75,11.94,11.94,0,0,0-4.68,2.11l-2,1.53c-2.84.61-5.69.84-8.52,2.36a27.1,27.1,0,0,0-9,8.23,61.23,61.23,0,0,0-5.41,3.32,53.37,53.37,0,0,0-15.22,15.13c-3.5,5.46-6.15,11.59-9.07,17.38l-2.54,1.56a11.53,11.53,0,0,0-5.06,6.58,11.28,11.28,0,0,0,1.11,8.47,11.12,11.12,0,0,0,6.58,5.06,14,14,0,0,0,2.14.32,15.85,15.85,0,0,0,4,3,19.42,19.42,0,0,0,5.65,1.9c2.2,5.82,8.67,10,15.46,5.76,5.12-3.21,10.65-6.22,14.78-10.72.92-1,1.86-2,2.8-2.93a10,10,0,0,0,6.35-2.33c.12.85.26,1.69.43,2.52a25.07,25.07,0,0,0-2.33,4.73,55.66,55.66,0,0,0-3.2,22,18.62,18.62,0,0,0,.29,2.35c0,.15,0,.3-.07.44a.3.3,0,0,1,0,.08c-1.68,2.47-2,6.59-1.24,9.35,0,.18.62,1.18,1.24,2.27,1.55,8.77,12.67,10.64,18.41,5.6a19.06,19.06,0,0,0,4.5,1.73c6.1,1.54,13,.88,19.29.81q8.93-.09,17.82-.53,8.41-.4,16.8-1.11c3.58-.3,7.29-.44,10.9-1a2.5,2.5,0,0,0,.22.24,10.12,10.12,0,0,0,6.47,3.08,11.1,11.1,0,0,0,4.74,1c8.71,0,12.06-8.32,10.06-14.72a23.06,23.06,0,0,0,.33-3.06,32.28,32.28,0,0,0-.68-6.57c-.06-.34-.14-.67-.21-1,.9-3.61,1.54-7.32,2.14-10.82a9.74,9.74,0,0,0,7.55,3.05c8.61-.64,16.87.6,25.17,2.34a10,10,0,0,0,9.25,5.35c6.57,0,10.09-4.73,10.57-9.81,2-4.69,3.87-9.21,4.38-14.39a40.66,40.66,0,0,0-.58-10.62A33,33,0,0,0,1602.63,922.17Z" transform="translate(-819.8 -741.73)"/></g><g id="Réteg_14" data-name="Réteg 14"><path class="cls-13" d="M1396.22,1022.22c-3.93-6.21-9.69-11.67-16-16.17a8.76,8.76,0,0,0-1.17-.82l-.1-.06q-1.64-1.12-3.3-2.16a24.68,24.68,0,0,0-7.59-10.7c-1.36-3.48-4-6.49-7.1-9.27a23.32,23.32,0,0,0-2.6-5.47c-3-4.63-7.52-8.26-12.38-11.24l-.76-1.21a23.8,23.8,0,0,0-7.77-7.63,75.08,75.08,0,0,0-5.24-5.59l-1.49-1.47-.49-.69c-1-1.49-1.9-3-2.79-4.55-2.42-4.19-4.87-8.38-8.34-11.84a88.41,88.41,0,0,0-20.45-14.68l0,0a76.36,76.36,0,0,0-12.76-10,21.38,21.38,0,0,0-6.65-5.71,8.75,8.75,0,0,0-2-.8c-6.76-5.54-14.23-10.15-22.75-12.49-13.94-3.82-29.7-2.87-43.9-1.25a12.86,12.86,0,0,0-3.35.84,10.18,10.18,0,0,0-9.53,4.71c-2.79,4.76-.79,10,3.41,13a48.64,48.64,0,0,1,10.17,10.19,38,38,0,0,0,3.36,3.69,32.7,32.7,0,0,0,1.42,3.81l.16.37a9.53,9.53,0,0,0-2.79,2.27c-5.42,6.42-6.58,13.29-6.92,21.49a56.32,56.32,0,0,1-4.38,20.39l-.08.2a10.39,10.39,0,0,0-1.72-.76c-1.56-.53-3.12-1.06-4.67-1.61q-10.77-6.74-22-12.77a21.89,21.89,0,0,0-2.89-1.28,27.06,27.06,0,0,0-4.69-4.12,17,17,0,0,0-12.7-2.2,27.93,27.93,0,0,0,.91-20c-1.9-5.92-5.35-13.89-11.78-15.94-.14,0-.29-.08-.43-.12-1.2-4-4.38-7.17-9-7.17a9.71,9.71,0,0,0-5,1.51c-4.31-2.11-10.59-1.15-13.33,3.26-1.59,2.57-5.69,3.61-8.32,4.8a88.25,88.25,0,0,0-10.25,5.46c-7.07,4.41-14,9.77-19.19,16.32s-6.53,13.81-9,21.33a24.21,24.21,0,0,0-2,5.54c-2.51,6.68-4.76,13.3-2.88,20.44a48.77,48.77,0,0,0-1.64,14,8.82,8.82,0,0,0,2.64,6.58c.05,2.75-.43,7,.51,10.12a54,54,0,0,1-.68,6.68c-.83,5,6.88,7.2,7.72,2.12.32-1.94.56-3.86.72-5.78a8.7,8.7,0,0,0,1.6-1.71,4,4,0,0,0,4.55-2.68c1.55-4.38,8.43-7,12.13-9.25l13.6-8.26a4,4,0,0,0,1.49-1.54h1.2a88.47,88.47,0,0,0,23.06-2.52l16.46-.13A19.51,19.51,0,0,0,1151,993a389.64,389.64,0,0,1,36.13,22.08,9.82,9.82,0,0,0,.31,2.49,24.48,24.48,0,0,0,1.47,4,10.41,10.41,0,0,0-4,3.51c-6.06,9.42,4.09,20.81,10.69,27.83l-.27,1.61a4.17,4.17,0,0,0,1,3.85,10.33,10.33,0,0,0-.52,2.78,3.49,3.49,0,0,0-1.1.79,31,31,0,0,0-3.06,3.82,4.25,4.25,0,0,0-1.92,3.12,4,4,0,0,0-3.51,3.94v2a4,4,0,0,0,4,4,4.17,4.17,0,0,0,3.69-2.46,5.17,5.17,0,0,0,1.84,0,11.65,11.65,0,0,0,7.66-5.42,4,4,0,0,0,.23-.46c3,.56,6.34-.11,8.25-2.57.32-.41.66-.8,1-1.21a8.54,8.54,0,0,0,8-.68c15.5-10.9,32.34-19.06,49.54-26.87,4.7-2.14,5.74-8.91,3.4-13-3.18-5.58-6.65-11-10.36-16.2-.12-.29-.25-.56-.39-.84.44-1.58.83-3.18,1.12-4.76,1.86-10.23,1.07-19.85-3-29.09a58.77,58.77,0,0,0-.47-9.43,20.4,20.4,0,0,0,3.16-1.26c.61.25,1.22.49,1.84.68,1,1,2,1.91,3,2.84,2.65,2.42,5.38,4.76,8.14,7.06,3.52,2.92,7.06,6,10.72,8.94a9.26,9.26,0,0,0,6.65,7.13c.53.14,1.06.29,1.58.45a82,82,0,0,0,12.16,12.73,37.24,37.24,0,0,0,3.52,2.65,44,44,0,0,0,3.62,4.68,26.76,26.76,0,0,0,8.95,6.53,12.72,12.72,0,0,0,2.24,4.17c3.41,4.28,8.49,6.52,13.56,8.2l1.75.52a10.86,10.86,0,0,0,5.42,7.55,8.27,8.27,0,0,0,1.79,2.57,12,12,0,0,0,6.3,3.58,10.9,10.9,0,0,0,8.76-1.83c-.27.65-.53,1.32-.76,2-3.64,10.42,11.88,16.25,17.36,7.32,1.88-3.06,4.24-6.37,6.28-9.84a20.68,20.68,0,0,1,4-2.7C1397.38,1036.29,1400.43,1028.88,1396.22,1022.22Zm-25.66,9.85c-.76,1-1.49,2-2.19,3,0-.15,0-.31,0-.46.16-.25.4-.67.74-1.27.85-1.15,1.64-2.35,2.53-3.47l.15-.17h0A23.66,23.66,0,0,0,1370.56,1032.07Z" transform="translate(-819.8 -741.73)"/></g><g id="Réteg_15" data-name="Réteg 15"><path class="cls-14" d="M2005.22,1411.72c.33.22-.46-1.5-.65-2.21a51.68,51.68,0,0,1-1.13-6.54q-1.25-9.39-2.4-18.79-2.38-19.29-4.55-38.6-3.24-28.71-6.38-57.42a9.76,9.76,0,0,0,0-2.35q-1-8.38-2.08-16.75a15,15,0,0,0-2-5.93,17.81,17.81,0,0,0,.51-9.76,59.62,59.62,0,0,0-3.76-11.29c-1.25-2.87-3.11-5.45-3.92-8.47-1.81-6.72-2.74-13-6.6-19a51.68,51.68,0,0,0-14-14.3c-25.86-18.38-61-7.2-84.53,9.59a13.91,13.91,0,0,0-3.33,3.39c-5.06.48-9.71,4-9.6,10.56.33,19.21-6.35,37.35-13.56,54.92a90.21,90.21,0,0,0-14.12,11.43,93.75,93.75,0,0,0-7.21,8.35,12.76,12.76,0,0,0-7.76,3.13c-3.22,2.74-8.75,3.12-12.75,3.9a89.33,89.33,0,0,1-15.1,2,31.79,31.79,0,0,1-13.36-2.38c-6.39-2.65-12.49-5.31-19.58-3.56-5.55,1.37-9.39,5.17-13.63,8.71-3.26,2.73-7,4-11.09,5.2-.78.23-1.62.51-2.49.79a15.77,15.77,0,0,0-4.87-1.45c-.88-.42-1.75-.85-2.6-1.3-2.84-2.56-5.94-4.72-9.84-5.47a12.41,12.41,0,0,0-4.19-.12l-.09,0a24.72,24.72,0,0,0-3.84-1.87c-6.38-7.8-13.87-14.4-23.84-16.27l-.19,0a10.38,10.38,0,0,0-4-4.14c-4.71-2.75-12.59-1.49-15.05,4-.5,1.12-1,2.3-1.53,3.48-3.58,2.12-7,5.11-8.59,8.69l-.75,1.79a34.79,34.79,0,0,0-4.94,3.39,21.86,21.86,0,0,0-6.85,11.58,8.29,8.29,0,0,0-1.09,1.34,8.2,8.2,0,0,0-2,3.74l-.39,2.92a10.8,10.8,0,0,0,1.5,5.55c.57.75,1.14,1.49,1.72,2.23a11,11,0,0,0,3.75,2.45c.1.07.18.15.27.22,8.26,6.35,14.36,15.27,21.64,22.63a70.59,70.59,0,0,0,18.43,13.8c.72.51,1.43,1,2.12,1.57,2.93,2.32,4.19,6.21,6.86,9.36a9.77,9.77,0,0,0,8.11,3.16c4.15,3.56,8.47,6.95,12.69,10.37,18.66,15.1,37.45,30.13,57.29,43.65q10.56,7.18,21.46,13.83a13.33,13.33,0,0,0,4.85,6.39l13.42,10,.49.31c6.34,7.13,12.86,14,18.94,21.42q5.7,7.75,11,15.84a59.82,59.82,0,0,0,15.66,16.54c1.93,4.77,4.88,8.91,7.52,13.28a8.63,8.63,0,0,0-.2,2.55c.87,11.28,9.06,15.52,18.71,18.88,6.38,2.22,15.12,5.07,22.3,4.09a9.43,9.43,0,0,0,2,.16,30.55,30.55,0,0,0,17.29-5.62c5.11-.8,9.77-5,9.75-10.43,0-.16.12-.32.17-.49.92-3,.6-6.48.6-9.63a10.69,10.69,0,0,0-1.76-5.86,80.5,80.5,0,0,0,5.36-14.31c1.54-6.22,1.91-12.67,2.33-19,0-.15,0-.31,0-.47s.13-.57.21-1a40.16,40.16,0,0,0,1.09-4.16c1.46-4.11,4-8.28,5.68-12.14l3-6.65c2-2.6,4-5.23,6.27-7.64a100.92,100.92,0,0,1,18.43-15.57,10.71,10.71,0,0,0,4.87-7.16,123.72,123.72,0,0,0,11.85-8.49c3.64.94,7.56-.29,10.77-2.8l5.55-4.34C2013.4,1424.33,2010.45,1415.21,2005.22,1411.72Z" transform="translate(-819.8 -741.73)"/><path class="cls-8" d="M1465.88,1163.07a12,12,0,0,0-1.28-5.22,7.43,7.43,0,0,0-.16-.82,7,7,0,0,0-5-5,13.35,13.35,0,0,0-10.69,1.72c-3.77,2.67-5.14,7.42-4.38,11.84A10.67,10.67,0,0,0,1447,1171c2.77,4.24,9.83,5.26,14.38,2.85a8.88,8.88,0,0,0,4.53-10.77Z" transform="translate(-819.8 -741.73)"/></g><g id="shadow"><path class="cls-15" d="M1185.61,834.67a66.33,66.33,0,0,1-15.95-3.37c-3.88-1.27-6.15-3.81-9.62-5.47-11.68-5.61-29.38,11.86-32.22,22.06-.72,2.59,2.29,5.08,4.66,3.58,4.63-2.93,12.2-11.23,18.65-12.41,2.46,4.79,4.94,8.48,10.41,11.51,8.4,4.67,18.42,7.74,28.08,7.49a33.09,33.09,0,0,0,7.47-1.18,202.14,202.14,0,0,1-4,21.54,12.41,12.41,0,0,0-3,2.31c-5.46,5.73-9.54,12.41-14.74,18.33-5.63,6.41-11.36,9.52-18.87,13.15-1.83.88-1.59,3.58,0,4.53,9.12,5.43,19.46,2.68,29-2.57a11,11,0,0,0,.75,1.67c4.47,7.82,7.85,15.53,9.42,24.45,1.39,7.84,1,15.32,4.59,22.57a2.3,2.3,0,0,0,3.6.46c12.84-15.17,9.91-39.15,2.93-56.14a15.42,15.42,0,0,0-3.61-5.34c.93-.74,1.82-1.45,2.68-2.15,9.63,3,21.46-.31,31.38-.56,6.65-.17,14.58,1.4,21.64.6,13.29,5.44,26.1,11.91,37.52,20.85,23.38,18.32,37.75,46,56.52,68.56a389.38,389.38,0,0,0,62.74,60.34c11.56,8.81,23.26,17.57,35.14,26,8.16,5.77,23.45,19.34,34.1,15.24,1.85-.72,3.73-2.42,3.53-4.64-1-12.12-19.14-20.32-28.11-26.89a299.15,299.15,0,0,1-34-29q-13.38-13.23-26.1-26.87a159.73,159.73,0,0,0,15.59-11c3.75,5.58,12.91,3.49,15.45-2.94,2.41-6.1,1.51-12.29,1.33-18.69-.18-6.7,1.3-13.3,1.27-19.95l1.28-1.07c8.2-6.8-2.27-19.1-11-14.31-18.93,10.34-34.91,23.69-47.71,41-4.14-4.95-8.22-9.95-12.22-15-18.88-24.13-35.74-49.57-62.41-65.92a113,113,0,0,0-20.38-9.82,7.53,7.53,0,0,0-.42-3.63,11.26,11.26,0,0,0-10.35-7.89c-10.38-.72-21.4-1.26-31.47-4-5.22-1.39-9.39-3.78-14-6.51a20.25,20.25,0,0,0-2.09-1c3.35-15.9,3.51-31.89-8.6-45.06-7-7.63-16.34-12.65-25.78-16.59-9.63-4-21-9.71-31.51-9.7a1.77,1.77,0,0,0-1.51,2.63c9.07,13.93,27.62,19.32,36.6,33.78a32.26,32.26,0,0,1,2.27,4.51A13.73,13.73,0,0,1,1185.61,834.67Zm34.58,49.63a1.17,1.17,0,0,0,.7,1.64l.16,0c-1.57.42-3.12.9-4.63,1.45.44-1.6.91-3.21,1.38-4.84C1218.56,883.19,1219.35,883.76,1220.19,884.3Z" transform="translate(-819.8 -741.73)"/><path class="cls-15" d="M1178.79,966.75c6.41,1.34,18.45,1.76,14.65-8.56s-22-12.69-31.12-12.77c-10.65-.1-24.53,3.57-29.65,13.86a5.46,5.46,0,0,0,6.08,7.9C1152.38,964.39,1165.13,963.9,1178.79,966.75Z" transform="translate(-819.8 -741.73)"/><path class="cls-15" d="M951.43,1257.14c-5.21,4.2-11.64,7.25-18.38,7.7-5.57.37-19.17-2.53-19.76-9.7-.18-2.22-3.27-3.48-4.48-1.22-4.91,9.19,1.62,18.5,9.09,24a38,38,0,0,0,4.34,2.73c-2.8-.26-5.67-.6-8.66-1-1.81-.21-2.72,2.41-1.47,3.55,13.94,12.81,38.09,8.83,53.48,1.08,20.16-10.15,33.65-28.66,50-43.44,9.83-8.87,19.94-12.81,33.24-12.16,11,.54,21.78,2.21,32.72.06,10-2,34.49-13.49,33.15-27a47.12,47.12,0,0,0,11.74-20.49c3.84-15.15-6-28.29-11.44-41.64-3.12-7.58-6.72-16.4-7.83-24.59-1.27-9.35,7.27-14.36,15-17.5,13.26-5.4,31.68-2.59,33-21.49.75-11-14.69-11.59-18-2.44-1.15,3.12-18.74,5.05-22.27,6.48a58.45,58.45,0,0,0-17.58,10.72c-12.51,11.3-12,24.48-9.36,39.89a235.58,235.58,0,0,0,5.26,23.92c1.72,6.22,5.78,13.67,4,20.12-3.73,13.66-20.3,18-32.49,17.51-16.47-.68-32.31-4.85-48.3,1.26-14.67,5.61-25.51,16.39-35,28.58S963.53,1247.39,951.43,1257.14Z" transform="translate(-819.8 -741.73)"/><path class="cls-15" d="M1283.16,1163.11c23.75-4,47.51-8.51,71.39-11.71,12.35-1.66,25-3.05,37.37-.66,8.63,1.67,21.83,8.1,29.61,2.15,2.62-2,3.71-4.37,3.11-7.65-1.26-6.89-6.54-8.79-12.14-12-6.63-3.79-13.3-7.56-20.49-10.2-14.52-5.33-30.23-3.15-45.18-1-32.24,4.66-64.33,10.9-96.36,16.77-9,1.66-18,3.77-26.91,6-10-.32-20.7,2.38-30.13,3.45-12.77,1.44-26.14,2.23-38.65,5.32a43.44,43.44,0,0,0-5.22-.6,172,172,0,0,1-1.32-20,116.35,116.35,0,0,1,.92-15.27c.87-6.57,1.58-5.09,7.32-5,6.9.08,13.89-.09,20.57-2,32.21-9.39,28.63-60.29,15.34-83.24a11,11,0,0,0-4.87-4.63,17.81,17.81,0,0,0,.86-10.68c-3.19-13.6-22.83-19.94-34.81-15.73a1,1,0,0,0-.24,1.8,75.44,75.44,0,0,1,15.17,10.16c2.81,2.56,4.5,3.39,2.63,7.2-.9,1.85-4.73,3.76-6.31,5-8.08,6.58-15.61,14.8-19.14,24.71-3.32,9.29,10.84,18.07,17.14,10,3.58-4.59,6.66-9.2,10.14-13.61,1.78,6.62,3.89,13.06,4.57,20s1.9,17.07-1.93,23.38c-7,11.44-23.39,8.41-33.21,15.19-11.44,7.9-8.13,28.66-6.57,40.32a130,130,0,0,0,2.56,13.51c-4.4,3.44-4.49,12.15,2.21,13.14.56.12,1.16.23,1.79.34q1.53,4.39,3.29,8.74a13.46,13.46,0,0,0,2,6.11,7.67,7.67,0,0,0,1.14,1.36q1.46,3.27,3,6.56c.63,1.32,3,.73,2.85-.77-.06-.49-.13-1-.19-1.47a48.77,48.77,0,0,0,3.35,4.48c7.88,9.42,21.59-3.48,14.87-13,12-1.65,24-3.84,36-5.47C1233.63,1170.8,1258.37,1167.33,1283.16,1163.11Z" transform="translate(-819.8 -741.73)"/><path class="cls-15" d="M1256,1484.42c-11.63-11.73-30.21-19.07-45.38-25.05a10.46,10.46,0,0,0-7.22-.36c-15.14-11.14-32.3-19.89-47.91-30.39-8.78-5.9-17.32-12.14-25.85-18.4-6.78-5-11.91-10.71-17.59-16.43a5,5,0,0,0-1.06-3.59,351.22,351.22,0,0,0,48.71-51.64c17.49-22.45,30-49.25,59.2-58.35,15-4.67,30.68-5.4,46.14-7.19,2.43-.28,5.14-.5,8-.76,9.3-.43,18.59-1.17,27.8-2.48a198.53,198.53,0,0,0,63.54-20.52c16.1-8.51,33.25-20,47.06-32.86,11.83-3.06,23-11.81,33.69-17.17,13.22-6.6,27.38-10.11,41.14-15.3,12.77-4.82,19.2-11,22.39-24.33,2.18-9.11.84-19.36-7.94-24.34-5.68-3.23-10.67,3-8.31,8.31,1.47,3.32,2.16,6,3.32,8.43-1.44,6-11.78,10-17.58,12.67-9.49,4.36-18.56,8.39-27.56,13.76-4.48,2.67-9.64,5.55-14.86,8.72a9,9,0,0,0-1.21-1.64c-3.22-3.55-6.84-6.3-10.47-9.39-3.35-2.85-6.26-6.25-9.37-9.36-2.56-2.56-6.43-.5-6.71,2.78-1,11.42,6.63,19.44,13.2,27.7-.53.43-1,.88-1.55,1.32-1.69-3.24-5.06-5.34-9.24-3.64-21.27,8.65-41.78,19.74-62.88,28.9s-42.64,15.52-65.5,18c-23,2.48-45.68,2.9-67.34,12-29.78.38-55.75,17.54-73.89,40.12-19.82,24.67-38.87,48.77-62.33,70.22a542.61,542.61,0,0,1-76.75,58.08l-1.2.77c-2.67,0-5.33,0-8,.13-.52,0-2-.08-1.37,0-5.36-.52-2.53-.52-1.69-.23a24.52,24.52,0,0,0-4.35-1.15,12.36,12.36,0,0,0-2.73,0,9.34,9.34,0,0,0-5,13.2c.24.51.51,1,.78,1.44a37.25,37.25,0,0,1-16.26,3.68c-14.32-.44-26.17-9.36-35.47-19.5-11.84-12.92-17.78-29.35-24.25-45.29-6.57-16.18-14.56-31.47-25.31-45.27-1.52-2-4.27.23-3.84,2.23,7.19,33.36,8,67.18,25.07,97.79,15.75,28.3,49.17,48.12,81.69,37.06,13.67-4.64,25.78-13.21,37.57-21.51a2.33,2.33,0,0,0,1.87.2c.45-.15.9-.32,1.35-.48-2.7,16.28,10.72,32.69,22.54,44.77a2.87,2.87,0,0,0,4.75-1.25c2.09-9.17,4.82-18.1,4-27.62a66.21,66.21,0,0,0-1.17-7.4c-.17-.89-.22-2.41-.37-3.29.85-.64,2.08-1.84,2.27-2,1.91-1.16,3.65-2.55,5.61-3.67,12.86-7.38,29-11.51,33.88-25.92,1.68-1,3.33-2.11,4.93-3.23,11.67,12.31,29.69,20.47,43.54,28,9.2,5,19.22,10.35,29.63,14.51,4.54,9.44,15.79,17.12,23.25,22.39,15.41,10.88,32.59,18.75,50.43,24.7C1256,1509.39,1264.51,1493,1256,1484.42Zm-59.8-19.28.42,0s-.05.08-.07.13Z" transform="translate(-819.8 -741.73)"/><path class="cls-15" d="M1480.44,1538.26c3.86,7.29,13.77,10.2,21.41,11.94,10,2.28,23.08.45,29.06-8.9,5.74-9-.26-21.74-9.3-26.4-4.2-2.18-8.29-1.59-12.75-.94-6.35.93-12.53,1.86-18.95,2.21-10.4.57-12.67,11.18-8.45,17.37-.15.17-.32.3-.47.47A3.66,3.66,0,0,0,1480.44,1538.26Z" transform="translate(-819.8 -741.73)"/><path class="cls-15" d="M1943.58,1478.46c13.59-11.7,25.87-24.47,41.15-34.22,11.41-7.28,30-13.13,39.16-24.68,9.52-3.14,16.4-13.57,10.07-25.62-15.81-30.14-24-61-31-94.1-6.57-31-13.23-65.23-35.34-89.15a1.1,1.1,0,0,0-1.83,1.07c.76,2.14,1.46,4.29,2.14,6.43-.29-.27-.55-.56-.84-.82a1.78,1.78,0,0,0-3,1.24c-.53,7.65,1.9,15.42,2.57,23.09a167.11,167.11,0,0,1,.16,24.1c-1,17.1-4,34-4.55,51.13-.58,17.57,1.65,34.55,3.93,51.93,1.7,13,1,30.63,6.35,43.74a12.29,12.29,0,0,0,3.08,5.9c.29.44.56.9.87,1.32a11.24,11.24,0,0,0,.81,1c-4.59,5.31-9,10.8-13.21,16.38-9.08,11.91-18,24.47-23.37,38.48-14.52,15.5-26.88,35-28.25,56a17.23,17.23,0,0,1-5.72-.38c-5.54-1.38-10.36-4.8-15-7.93-9.75-6.54-19.53-13-28.6-20.48-18.1-15-32.79-33.59-51.17-48.21-16.16-12.85-34.65-22.38-52.72-32.19-19.06-10.34-36.1-24-55.12-34.12a.44.44,0,0,0-.6.6,50.82,50.82,0,0,0,2.43,4.62c-5.06-4.64-10.68-9.09-16.4-9.36a.33.33,0,0,0-.33.32c-.43,9.69,11.55,20.25,17.29,27.32q12.63,15.57,26.4,30.13c6.69,7,13.68,13.62,20.92,19.9-7.62,4.07-15.29,8-22.87,12.19l-.11,0c-16.89,7.68-34.24,14.47-51,21.43l-1.61.66c-15,4.34-30.36,7.85-45.47,12-15.77,4.3-32.16,6.43-47.53,11.76-1-2-2-3.94-3.26-5.89-5.6-8.92-10.4-17.54-15.13-26.92-4.13-8.18-10.4-16-20.23-16.07-7.35,0-12.13,9.93-6.27,15.12s8.77,8.5,11.61,15.89c3.27,8.51,5,14.31,3.4,23.35-1.31,7.4-1,16.39-3.61,23.36-2.39,6.33-7.42,12.47-11.82,17.55-5.84,6.73-11,10-19.91,11.06-8,1-16,1.92-24.06,3-3.71.5-9,2.15-12.69,1.5s-7.31-3.92-10.82-5.29a28,28,0,0,0-20.83-.44c-1.52.52-2.26,3-.5,3.8a44.15,44.15,0,0,1,15.32,10.84c3.29,3.79,5.64,7.9,10.07,10.59,9.56,5.81,22.41,4.4,33.19,4.61,12,.23,24.67,0,35.92-4.54,10.55-4.23,19.31-11.7,27.73-19.19a53.36,53.36,0,0,0,15.42-22.5,12.78,12.78,0,0,0,4.13-1.52c22.25-12.76,46.66-21.57,70.7-30.93a225.86,225.86,0,0,0,27.62-9.11c17.1-6.8,34-14,50.18-22.88,4-2.19,7.8-4.59,11.53-7.13a17.4,17.4,0,0,0,1.58,2.12c5.49,6.18,14.37,7.36,22.11,7.88,17.14,1.15,31.2,6.11,44.44,17.47,12.72,10.92,28.69,23.7,36.94,38.53a1.1,1.1,0,0,0,1.49.4,6.85,6.85,0,0,0,2.54-3.24c16.43,11.56,38.3,14.54,58.09,9.8a10.77,10.77,0,0,0,1.26-.38c5.93,1.92,13.59-2.38,11-9.92C1923.8,1525.65,1934.62,1502,1943.58,1478.46Zm-353.65,53.94c-.18-.71-.4-1.43-.6-2.14,1.11.27,2.23.52,3.35.75C1591.76,1531.46,1590.85,1531.94,1589.93,1532.4Z" transform="translate(-819.8 -741.73)"/><path class="cls-15" d="M1731,1318.39c5-1.38,8.28-6.49,12.11-9.68,6.74-5.61,13.89-10.71,21-15.83,4-2.9.44-9.48-4-6.8-5.6,3.41-11.22,6.81-16.94,10-6.32,3.56-8.57,4.09-15.43,1.67-11.42-4-22.26-10.44-32.46-16.86a369.43,369.43,0,0,1-53-41c-15.89-14.6-30.62-30.66-44.62-47.07-7.12-8.35-13.83-17.07-20.51-25.77-2.06-2.69-4.07-5.65-6.14-8.61a6.53,6.53,0,0,0,3,1.54,566.08,566.08,0,0,0,62.86,10.64c10.17,1.18,20.34,2.39,30.59,2.6,10.9.22,20-1.59,25.43,9.17l.12-.07c2.88,4.28,9.38,6.58,13.1,1.78,4.61-6,5.4-12.45,3.06-18.32a36.33,36.33,0,0,1,9-8.76c6.39-4.09,2.14-13.15-5-11.85-21.83,4-43.21,4.67-64.71-1.49a7.28,7.28,0,0,0-8.68,3.64c-21.28-.54-42.59-.79-63.86-1.52-5.75-.19-8.3,6.15-6.42,10.48-3.27-4.54-6.78-8.89-11-11.95a1.44,1.44,0,0,0-2.14,1.23c0,10.1,6.4,21.38,10.71,30.33a280.41,280.41,0,0,0,37.21,56c3.43,6.45,7.89,12.46,12,18.35,6.07,8.66,12,17.48,18.57,25.76,4.73,6,12.45,15.79,20.44,17.44,4.47.93,9-1.21,12.52-4.46a298.68,298.68,0,0,0,28.86,18.15C1705.36,1312,1720.52,1321.27,1731,1318.39Z" transform="translate(-819.8 -741.73)"/><path class="cls-15" d="M1621.78,1031.28c-15.89,14.29-31.39,29.23-45,45.73-13.91,16.85-29.92,31.63-44.06,48.16-1,1.12-.08,3.36,1.59,2.74,11.56-4.29,22.31-11,32.68-18.11a8.69,8.69,0,0,0,10,5.56c4.2-1,12.33-4.24,16-2.58,4.24,1.94,4.88,6.11,10.36,6.93,6.51,1,11.43-3.55,10.23-10.23a40.22,40.22,0,0,1,3.08-23.49c2.85-6.14,7.29-11.35,7.9-18.3a3.34,3.34,0,0,0-.75-2.39q3.2-2.9,6.4-5.81c14.42-13.1,29-26.13,45.06-37.25,8.42-5.84,17.23-11,26.11-16,8.47-4.87,19.3-13.16,29.24-12.85,9.64.3,11.87-14.81,2.3-17-21.56-4.88-42.74,5.29-60.71,16.37S1637.47,1017.18,1621.78,1031.28Zm-24.4,57.36c0-.29.07-.58.11-.87l.19-.15C1597.59,1088,1597.47,1088.3,1597.38,1088.64Z" transform="translate(-819.8 -741.73)"/><path class="cls-15" d="M1826.53,854.48c-5.59-8.15-13.67-13.45-25.07-12.78-9.63.56-19,3-28.64,3.87-7.41.69-17.58-2.19-23.91,2.2a2.28,2.28,0,0,0-1,2.47c2.71,12.88,25.71,11,35.14,10.4,6.2-.36,16.67-3.37,22.76-1.07,6.7,2.54,6.6,11.55,11,16.33a8,8,0,0,0,1.6,1.33l0,.25a8,8,0,0,0-3.11,3.65c-5.84,13.09-3.32,26.48,5.69,37.56,9.44,11.62,22.42,15.15,35.58,20.6,1.49.61,2.71-1,2.56-2.33l1.23.71c-2.35,1.38-2.46,5-.7,7,5.7,6.51,13.43,10.19,19.19,16.71,6.21,7.05,10.81,15.6,14.36,24.26,8.8,21.44,9.12,44.46,8.34,67.28-.13,3.78-.28,7.56-.42,11.34a2.69,2.69,0,0,0-.75,0,30.16,30.16,0,0,0-4.13,1.15c2.55-3.14,4.49-6.56,4.55-10.31a.57.57,0,0,0-.55-.55c-7.49-.94-14.91,6-20.87,9.93-8.88,5.79-17.51,11.73-26.91,16.67-18.56,9.77-34.45,22.43-52.09,33.5a13.1,13.1,0,0,0-3.51,3.16,36.35,36.35,0,0,0-10-.66c-11,.79-20.35,2-31.47.35-6.32-.92-16.47-3.3-21.12,2.52-2.24,2.81-1.17,8.38,3.32,8,12-1,23.82,4.26,36,3.83,5.44-.19,11.29-1.33,16.84-.88a6.19,6.19,0,0,0,.73,3.76c6,10.5,6.59,21.56,1.41,32.65a56,56,0,0,1-8.7,13.12c-3.17,3.58-8.82,11.55-13.44,13a2.1,2.1,0,0,0-1.47,1.47c0,.19-.09.39-.14.58a3.3,3.3,0,0,0,1.48,3.62,13.81,13.81,0,0,0,4.12,1.64,4.19,4.19,0,0,0-.33,3.63,42.11,42.11,0,0,0-8.62,1.14,1.1,1.1,0,0,0-.48,1.82c8.53,10.8,25.21,11.2,39.14,7.38.63,16.91,18.46,31.48,35.06,28.46,9.65-1.75,18.84-8,25.88-14.63,6-5.62,13.33-12.08,15.11-20.32a15.3,15.3,0,0,0,4.4-3.69c1.93-2.43,2.36-6.83-1.08-8.42-8.56-4-17.72.66-25.93,4.19a99.13,99.13,0,0,0-20.63,12c-3.08-3.92-5.44-8.21-5.14-13.53.35-6.22,3.63-12,4.41-18.25,1.31-10.5-1.26-20.24-6.81-29.12,3.45.9,7.16-.86,9.69-3,3.6-3.07,7-6.4,10.3-9.74a143.62,143.62,0,0,1,11.51,15.78c3.68,8.6,8.5,16.92,12,24.47l.09-.06c3.77,6,14.07,2.87,12.44-4.74.64.07,1.28.15,1.91.17,5.69,1.32,12.35,2.09,17.47.18,6.54,14.34,21.17,22.16,36.84,15.47,5.84-2.5,3.43-11-1.64-12.6-12.64-4-8.09-34.48-7.22-43.94,1.64-17.81,4.83-35.47,6.78-53.25,4-36.66,2.27-74.18-8.73-109.62-4.63-14.94-13.69-25.26-26.66-33.73-13.72-9-30.37-14.5-41.57-26.87-11-12.19-14-25.7-8.23-40.9,5.41-14.39,11.4-31.21,3.14-45.82-8-14.19-22.95-16.24-37.81-14.41-7.34.9-14.18,3.26-21.23,5.38a91.09,91.09,0,0,1-27.77,3.54.12.12,0,0,0-.1.17c6.61,11.12,21.41,10.06,32.76,9.15,9.32-.75,31.78-3.55,30.39,11.75C1833.1,844.44,1829.57,849.5,1826.53,854.48Zm74.25,217.69c0,.37,0,.74,0,1.11l-.41-.11C1900.47,1072.83,1900.63,1072.51,1900.78,1072.17Zm-86.43,138.94a1.5,1.5,0,0,0-.11-.13c1.17-.56,2.3-1.14,3.35-1.75a42,42,0,0,0,5.31,10.58A48.43,48.43,0,0,1,1814.35,1211.11Zm9.29-78a7.54,7.54,0,0,0-2.4,3.43,43.63,43.63,0,0,0-3.26-4.95,172.31,172.31,0,0,0,28.57-16.63l-.16.18C1839.78,1122.31,1831.23,1127.18,1823.64,1133.15Zm80.11-164.51a47.51,47.51,0,0,1,3.44,11.88q-.93-2.34-2-4.68a128.76,128.76,0,0,0-8.73-16.31A27.63,27.63,0,0,1,1903.75,968.64Z" transform="translate(-819.8 -741.73)"/><path class="cls-15" d="M1525.23,765.2a2,2,0,0,0-.62,1.84c1.82,10.11,3.84,19.88,4.11,30.22s-.64,20.94-.1,31.39a95.82,95.82,0,0,0,5.73,28c.17.47.34,1,.52,1.43-.54,0-1.08,0-1.62,0-4.65-.1-8.85-1.38-13.38-2.17-3-.53-6.59,1.95-5.38,5.38a21.58,21.58,0,0,0,5.81,8.59c-1,1.06-2,2.07-3,3-6.37,6.05-15,13.38-17.13,22.23a2.77,2.77,0,0,0,2.64,3.46c9.11.53,18.72-6,26-10.77,4.16-2.74,10.29-6,14.63-10.12a24.46,24.46,0,0,0,5.07-1,12.29,12.29,0,0,0,1.42.3,10,10,0,0,0,3.1,0c.69,1.41,1.41,2.81,2.19,4.2,3.19,5.66,8.11,7.48,12.76,6.78a49.45,49.45,0,0,1,6.42,11.22c3.84,9.51,8.9,17.28,9.8,27.87,1.8,20.92-7.81,41.32-14,60.8-6,19.11-15.15,36.38-24.34,54.12-4.81,9.28-9.93,18.4-15,27.53-4.57,8.22-10.45,16.21-12.07,25.6a1.66,1.66,0,0,0,2.41,1.85c9-5.16,15.15-14.64,21.56-22.61q10.44-12.93,20.17-26.43a272.54,272.54,0,0,0,18.27-29.49c1.73-3.18,3.52-6.33,5.3-9.49,2.86,2,6.72,2.15,9.93-1.43,11.56-12.93,25.39-24.93,24.77-43.73-.61-18.53-9.25-35.49-13.83-53a2.06,2.06,0,0,0-2.51-1.43,6.22,6.22,0,0,0-1.59.8c-2.82-7.56-7-15.13-12.59-20.44-3.62-3.48-8-6.37-11.88-9.59a14.16,14.16,0,0,0,.2-12.83c-16.5-35.91-15.52-91.74-55.75-111.7-1.51-.75-3.7.9-2.54,2.54A80.83,80.83,0,0,1,1525.23,765.2Zm75.86,210.88c1.1-3.49,2.12-7,3-10.6a23.44,23.44,0,0,1-2.43,9.57C1601.5,975.4,1601.29,975.73,1601.09,976.08Z" transform="translate(-819.8 -741.73)"/><path class="cls-15" d="M1465.29,840.32c16.2,4.74,37.42.36,48.58-12.71,10.33-12.09,13.9-29.92,7-44.56-3.47-7.31-14.52-3.36-14.61,4-.11,9-4.55,21.56-10.87,28.06-8.48,8.73-21.58,8.22-31.48,14.36A6,6,0,0,0,1465.29,840.32Z" transform="translate(-819.8 -741.73)"/><path class="cls-15" d="M1422.53,875a49.88,49.88,0,0,1-9.69-11.45c-2.32-3.86-4-8.18-7.67-10.93-2-1.51-4.62.21-5.34,2.17-3.55,9.81,7.13,23,13.33,29.58C1419,890.62,1428.88,880.68,1422.53,875Z" transform="translate(-819.8 -741.73)"/><path class="cls-15" d="M2072.47,1549.75c10.56-19.25,13.67-41.68,12.42-63.42-1.15-19.72-4.75-42.2-14.89-59.47-5.93-10.1-21.66-22.07-32.16-10.62a1.21,1.21,0,0,0,.85,2c19.15,1.78,17.45,23.47,18.15,37.82.74,15.15.24,31-2.55,46a104,104,0,0,1-6.28,21.3c-.3-15.26-3.82-30.25-12.08-42.72-4.22-6.37-16.09-4.58-15.49,4.2.88,12.92,2.53,25.33,1.37,38.33a170.36,170.36,0,0,1-8.49,39.75c-4.07,11.81-9.7,22.86-15.1,34.09-4.92,10.23-11.81,21.35-12.47,32.86a4.74,4.74,0,0,0,6,4.53c12.16-4.11,21.62-16.15,28.88-26.29a139.09,139.09,0,0,0,11.8-19.93C2049.08,1582.5,2064.49,1564.29,2072.47,1549.75Z" transform="translate(-819.8 -741.73)"/><path class="cls-15" d="M1997.23,1569.68c1.45-12.07,2.42-23.65,1.84-35.79-.19-4.07-5.55-5.72-7.74-2.1-7.11,11.76-11.43,24-17.08,36.41-6.22,13.74-18.27,8.9-30.6,9.25-1.33,0-2.81,1.46-2.22,2.91,6.9,16.71,28.36,24.35,43.62,14.17C1993.67,1588.77,1996.05,1579.39,1997.23,1569.68Z" transform="translate(-819.8 -741.73)"/><path class="cls-15" d="M1440.51,1127c4.6,3.83,9,7.87,13.57,11.83,9.85,8.56,22.31-4.25,14.17-14.17-6.52-7.64-14.68-14.05-22.8-19.93-7.84-5.68-16.86-12.42-26.44-14.42a9.43,9.43,0,0,0-4.67.22c-1.85-4-3.62-8.08-6.49-11.63-6.7-8.27-15.83-14.94-24.42-21.08-17.34-12.41-36.84-20.54-54.94-31.67A139.65,139.65,0,0,1,1304,1007.6c-5.6-5.44-10.12-11.69-14.9-17.77a22.81,22.81,0,0,0-5.69-12.11,10.48,10.48,0,0,0-9.69-2.82c-.3-1.66-.55-3.31-.7-5-.78-8.45-10.3-13.19-16.91-7-13,12.14-14.9,31.08-9.9,47.4,1.52,5,10.43,17.56,8.85,22.73-2.26,7.39-11.82,10.6-13.38,18.81a.1.1,0,0,0,.09.13c6.94.84,15.15-3.62,21.07-6.94,6.74-3.79,10.07-9.72,11.25-17a29,29,0,0,0,2.47,2.63c8.88,8.31,20.15.46,20-8.92,3.88,4.38,8,8.47,12,12.24,15.34,14.51,32.69,27.47,49.88,39.66a191.55,191.55,0,0,1,24.58,20.45c7.36,7.33,15.77,12.42,24.39,18.16,7.67,5.1,15.19,8.27,23.85,11.23C1434.33,1124.55,1437.5,1125.64,1440.51,1127Z" transform="translate(-819.8 -741.73)"/><path class="cls-15" d="M1831.5,1058.53c3.18-3.73-.91-10.25-5.57-7.22-5.47,3.56-12.41,10-19,11.4-6.37,1.39-16.87-4.78-22.81-6.66-12.93-4.1-31.4-9.43-44.88-5.87a1.33,1.33,0,0,0-.58,2.2c6.43,6.21,16,8.84,24.06,12.4,7.73,3.41,15.44,6.87,23.16,10.31a5.73,5.73,0,0,0,2.25,3.07c1,.67,1.25,5.76,3.43,7.29,3,2.09,5.9,1.28,8.77-.15a40.64,40.64,0,0,1,3.76,4c5,6.15,14.32-2.83,8.82-8.81-.33-.36-.67-.68-1-1a15.58,15.58,0,0,0,1.78-.79C1821.33,1074.76,1826.32,1065,1831.5,1058.53Z" transform="translate(-819.8 -741.73)"/><path class="cls-15" d="M1546.39,969.42c3.57-8.56,9-18,10-27.19.22-2.08-2.48-3.39-4.11-2.36-10.36,6.53-16.52,21.47-21,32.39-3.57,8.74-7.89,13.11-17.24,15-7.72,1.61-15.75,1.36-23.57,1.11a.44.44,0,0,0-.31.74c11.12,10.57,31.65,12.26,44.09,2.55C1541.1,986.36,1543.18,977.13,1546.39,969.42Z" transform="translate(-819.8 -741.73)"/></g><g id="lineart"><path class="cls-12" d="M1117.8,863a3,3,0,0,1-.83-.12,3,3,0,0,1-2.12-2.35,137.17,137.17,0,0,1-2.41-24.24c0-31.95,13.18-51,35.26-51,18.17,0,58.16,22.22,66.36,57.08a3,3,0,0,1-.75,2.76c-8.31,8.65-17.14,13-26.23,13-18.43,0-30.58-17.34-34.09-23.06-6.68,1.43-18.51,11.07-33,26.93A3,3,0,0,1,1117.8,863Zm29.9-71.73c-8.8,0-29.26,4.38-29.26,45a120.24,120.24,0,0,0,1.34,17.18c15.5-16.31,27.2-24.57,34.83-24.57a3,3,0,0,1,2.64,1.59c.12.21,11.84,21.66,29.83,21.66,7.1,0,13.9-3.28,20.74-10C1199.3,810.42,1162.17,791.25,1147.7,791.25Z" transform="translate(-819.8 -741.73)"/><path class="cls-12" d="M1162,889.53c-7.43,0-12-7.07-12-12.13s4.09-12.42,10.49-12.42l.39,0c.31,0,.65,0,1,0,4.11,0,10.2,3.82,10.2,12,0,5.12-3.55,12.55-9.11,12.55Zm-.15-18.6-.63,0-.72,0c-2.46,0-4.49,4.25-4.49,6.42,0,1.83,2,6.13,6,6.13h.94c.9,0,3.11-3.49,3.11-6.55C1166.09,872,1162.54,870.93,1161.89,870.93Z" transform="translate(-819.8 -741.73)"/><path class="cls-12" d="M1198.83,879.75c-5.91,0-10.55-5-10.55-11.31a11.47,11.47,0,0,1,4.36-9.22,8.16,8.16,0,0,1,5.22-2.06c6.66,0,11.29,6,11.29,11.29S1205,879.75,1198.83,879.75ZM1196.24,864a5.58,5.58,0,0,0-2,4.42c0,3,2,5.31,4.55,5.31s4.32-3.09,4.32-5.3c0-1.8-1.86-5.29-5.29-5.29C1197.44,863.16,1197.26,863.25,1196.24,864Z" transform="translate(-819.8 -741.73)"/><path class="cls-12" d="M1168.26,876.16a3,3,0,0,1-1.71-5.47c7.58-5.24,16.21-7.34,24.22-5.85a3,3,0,0,1-1.1,5.9c-6.45-1.21-13.45.55-19.71,4.89A3,3,0,0,1,1168.26,876.16Z" transform="translate(-819.8 -741.73)"/><path class="cls-12" d="M1147.73,876.31c-2.21,0-6.76-2-18.27-7.49-6.71-3.17-16.84-8-18.93-8.12a18,18,0,0,0-1.88.15,20.43,20.43,0,0,1-2.37.18,3,3,0,0,1,0-6,15,15,0,0,0,1.7-.14,23,23,0,0,1,2.6-.19c2.74,0,8.93,2.79,21.44,8.7,6,2.82,14.16,6.69,15.85,6.92l.5-.06a10.2,10.2,0,0,1,1.34-.1,3,3,0,0,1,0,6,4.76,4.76,0,0,0-.64.06A12.22,12.22,0,0,1,1147.73,876.31Z" transform="translate(-819.8 -741.73)"/><path class="cls-12" d="M1162.89,919.08c-29.71,0-37.14-32.22-39.94-44.35-.21-.88-.39-1.66-.55-2.31a3,3,0,0,1,5.82-1.46c.17.68.36,1.5.57,2.42,2.74,11.88,9.17,39.7,34.1,39.7,13,0,29.75-10.74,35.64-34.31a3,3,0,0,1,5.82,1.46C1197.68,906.92,1178.18,919.08,1162.89,919.08Z" transform="translate(-819.8 -741.73)"/><path class="cls-12" d="M1063.82,1030.37a3,3,0,0,1-3-2.82c-.29-4.65-.76-9.35-1.22-13.9a222.62,222.62,0,0,1-1.48-22.25c0-60.85,33.09-75.32,71.42-92.08l1.39-.61a3,3,0,1,1,2.4,5.5l-1.39.61c-37.89,16.57-67.82,29.66-67.82,86.58a214.24,214.24,0,0,0,1.45,21.65c.47,4.61.94,9.37,1.23,14.14a3,3,0,0,1-2.81,3.18Z" transform="translate(-819.8 -741.73)"/><path class="cls-12" d="M1493,1098.44l-.29,0c-40.3-3.88-80.33-51.87-122.7-102.66-43.67-52.35-88.83-106.48-132.67-106.48a143,143,0,0,0-35.85,4.92,4.57,4.57,0,0,1-1.88.06,4.83,4.83,0,0,0-.58,0,3,3,0,0,1,0-6,9,9,0,0,1,1.24.09,148.18,148.18,0,0,1,37.07-5c46.65,0,92.72,55.23,137.27,108.63,39.74,47.64,80.83,96.89,118.67,100.54a3,3,0,0,1-.28,6Z" transform="translate(-819.8 -741.73)"/><path class="cls-12" d="M1359.8,1051.62a3,3,0,0,1-2.67-4.36c7.61-14.94,22.76-28,31.12-34.38a3,3,0,0,1,3.66,4.76c-8,6.12-22.36,18.46-29.44,32.34A3,3,0,0,1,1359.8,1051.62Z" transform="translate(-819.8 -741.73)"/><path class="cls-12" d="M1375.16,1063.27a3.06,3.06,0,0,1-1.63-.48,3,3,0,0,1-.89-4.15c6.84-10.61,15.93-20.6,28.61-31.44a3,3,0,0,1,3.89,4.57c-12.22,10.44-21,20-27.46,30.12A3,3,0,0,1,1375.16,1063.27Z" transform="translate(-819.8 -741.73)"/><path class="cls-12" d="M1202.22,971.93a3,3,0,0,1-1.7-.53,313.9,313.9,0,0,0-43.21-24.7c-2.28,1.56-4.59,3.09-6.9,4.62-5.48,3.63-11.15,7.39-16.41,11.43a3,3,0,0,1-4.81-2.09c-1.57-16.57-3.82-34.25-7.08-55.65a3,3,0,0,1,5.94-.9c2.93,19.26,5,35.53,6.59,50.69,4.11-2.95,8.33-5.75,12.45-8.48,2.77-1.83,5.53-3.66,8.25-5.53a3,3,0,0,1,3-.25,324.46,324.46,0,0,1,41.43,23.11c1.65-13.39,5.52-27.21,11.78-42-7.89-5.72-14.23-13.26-20.37-20.57l-.47-.55a3,3,0,1,1,4.59-3.87l.47.56c6.4,7.61,13,15.49,21.15,20.86a3,3,0,0,1,1.1,3.7c-7.38,17-11.56,32.47-12.79,47.44a3,3,0,0,1-1.7,2.46A3.07,3.07,0,0,1,1202.22,971.93Z" transform="translate(-819.8 -741.73)"/><path class="cls-12" d="M1157.87,946.65a3,3,0,0,1-2.91-2.28c-1.73-6.93-3.21-14-4.64-20.93-.61-2.94-1.22-5.88-1.85-8.81a3,3,0,0,1,5.87-1.26c.63,2.94,1.24,5.89,1.86,8.84,1.42,6.83,2.88,13.89,4.58,20.71a3,3,0,0,1-2.18,3.64A3.1,3.1,0,0,1,1157.87,946.65Z" transform="translate(-819.8 -741.73)"/><path class="cls-12" d="M1470.25,1138.14a3,3,0,0,1-2.23-1c-8.91-9.88-28.23-30.08-31.82-32.13-51-29.21-139-99.47-171-136,0,.71,0,1.43,0,2.17,0,39.46,9.13,50.38,12.57,54.49a7.93,7.93,0,0,1,1.94,3.12,3,3,0,0,1-5.74,1.73c-.15-.21-.51-.65-.8-1-3.82-4.57-14-16.7-14-58.34,0-3.78.09-7.16.28-10.32a3,3,0,0,1,2.1-2.69,3,3,0,0,1,3.26,1c25.74,33,121.9,110.52,174.39,140.57,5.46,3.13,29.81,29.46,33.3,33.32a3,3,0,0,1-2.23,5ZM1273.84,1030.3Z" transform="translate(-819.8 -741.73)"/><path class="cls-12" d="M931.11,1284.35c-11.78,0-32.83-11.16-32.83-33.41,0-39.19,18.55-48.5,34.92-56.72,15-7.52,27.91-14,27.91-41.69l0-5.72c0-25.65,14.81-45,34.44-45,1.45,0,2.88.07,4.32.13s2.69.13,4,.13c30.13,0,39.22-22.93,49.74-49.49,12-30.4,25.71-64.86,76-64.86,29.15,0,51.85,12.42,60.73,33.22a3,3,0,0,1-1,3.58,102,102,0,0,0-26.62,29.68,3,3,0,0,1-4.54.76c-2.51-2.14-4.58-3.65-8.27-3.65-5.66,0-12,4-12,9.76,0,7.19,6.75,12.26,13,13.93a3,3,0,0,1,1.34,5c-5.86,5.83-14.11,9.34-22.09,12.73-14.35,6.11-26.75,11.38-26.75,28.08,0,7.55,3.26,15.78,6.4,23.75s6.39,16.17,6.39,23.83c0,31.8-25.24,50.81-49.63,50.81a40.11,40.11,0,0,1-8.81-1.27,59.73,59.73,0,0,0-14.12-1.76c-22.92,0-37.21,15.71-52.34,32.34C975.47,1266.15,958.91,1284.35,931.11,1284.35Zm64.42-176.53c-13.79,0-28.44,13.67-28.44,39l0,5.72c0,31.37-15.87,39.34-31.22,47-16.26,8.16-31.61,15.87-31.61,51.36,0,19.26,19.19,27.41,26.83,27.41,25.14,0,40.1-16.44,55.93-33.84,15.34-16.86,31.21-34.3,56.78-34.3a65.78,65.78,0,0,1,15.41,1.9,35.36,35.36,0,0,0,7.52,1.13c27.31,0,43.63-22.79,43.63-44.81,0-6.52-2.9-13.86-6-21.63-3.35-8.48-6.82-17.26-6.82-26,0-20.67,16.16-27.54,30.41-33.6,6-2.57,11.82-5,16.46-8.34-7.5-3.7-12.4-10.5-12.4-17.83,0-9.43,9.28-15.76,18-15.76a15.85,15.85,0,0,1,9.41,2.94,108.36,108.36,0,0,1,24.5-27.06c-8.54-17.24-28.61-27.47-54.25-27.47-46.26,0-58.56,31-70.46,61.07-10.38,26.2-21.12,53.28-55.32,53.28-1.46,0-2.89-.07-4.33-.13S996.88,1107.82,995.53,1107.82Z" transform="translate(-819.8 -741.73)"/><path class="cls-12" d="M1218.71,1203.48c-5.19,0-36.5-.69-50.15-3.73-24.16-5.38-36.93-25.76-36.93-58.92,0-14,3.36-26.47,9.7-36.13a3,3,0,0,1,3.6-1.15,33.19,33.19,0,0,0,12.28,2c21.38,0,23.63-12.28,26.25-26.51,1.11-6.07,2.27-12.34,5.09-17.56a17.39,17.39,0,0,1,2.79-3.52,20.49,20.49,0,0,0,1.48-1.66c-3.84-3-12.06-11.08-16.12-26.77a3,3,0,1,1,5.81-1.51c4.63,17.89,15.3,24.5,15.4,24.57a3,3,0,0,1,1.47,2.57c0,3.06-2.05,5.21-3.69,6.94a12.43,12.43,0,0,0-1.86,2.24c-2.37,4.38-3.39,9.92-4.47,15.79-2.57,14-5.78,31.42-32.15,31.42a41.33,41.33,0,0,1-12.09-1.62c-4.9,8.4-7.49,19-7.49,30.87,0,30.45,10.85,48.3,32.23,53.06,12.24,2.73,41.63,3.59,48.85,3.59,47.61,0,138.83-24,256.86-67.49,5.84-2.16,5.84-2.16,6.48-2.16a3,3,0,0,1,.72,5.92c-.51.16-2.56.92-5.13,1.87C1359,1179.38,1267,1203.48,1218.71,1203.48Z" transform="translate(-819.8 -741.73)"/><path class="cls-12" d="M975.49,1457.93c-59.51,0-73.82-44.21-81.51-68-2-6.06-3.82-11.79-5.53-13.5-7.19-7.18-9.58-19.71-11.89-31.82-3.69-19.31-6.8-31-18.95-31-1.92,0-4,.91-6.14,1.86-.94.41-1.86.82-2.79,1.17a3,3,0,0,1-2.11-5.62c.83-.31,1.65-.67,2.48-1,2.52-1.11,5.38-2.37,8.56-2.37,18,0,21.63,19.08,24.84,35.9,2.15,11.23,4.36,22.83,10.24,28.71,2.73,2.73,4.52,8.25,7,15.9,7.72,23.86,20.66,63.8,75.8,63.8,21.36,0,119.57-61.8,163.18-127.13,22.49-46.27,35.55-63.76,83.35-63.76,3.7,0,7.39.06,11.08.12s7.31.13,11,.13c64.7,0,122.6-30.82,183.91-63.44,23.83-12.68,48.47-25.79,74.31-37.54a3,3,0,1,1,2.49,5.46c-25.68,11.67-50.23,24.74-74,37.38-62,33-120.53,64.14-186.73,64.14-3.69,0-7.37-.07-11.06-.13s-7.31-.12-11-.12c-44.64,0-56.25,15.7-78,60.56a4,4,0,0,1-.2.35C1100.67,1392.68,1001.18,1457.93,975.49,1457.93Z" transform="translate(-819.8 -741.73)"/><path class="cls-12" d="M996.93,1431.54c-3.79,0-9.07-3.31-9.07-8.69a9.26,9.26,0,0,1,3.94-7.5,3,3,0,0,1,2.41-.49,8.74,8.74,0,0,1,3.28-.67c3.88,0,6.49,3,6.49,7.45C1004,1425.09,1001.91,1431.54,996.93,1431.54Zm-2.28-10.72a3.23,3.23,0,0,0-.79,2c0,1.56,2,2.51,2.85,2.67a7.63,7.63,0,0,0,1.27-3.88,2.61,2.61,0,0,0-.31-1.44h-.18a2.85,2.85,0,0,0-1.22.32A3.09,3.09,0,0,1,994.65,1420.82Z" transform="translate(-819.8 -741.73)"/><path class="cls-12" d="M1025.71,1415c-4.44,0-7.79-3-7.79-7a3.44,3.44,0,0,0,0-.43,12.08,12.08,0,0,1-.1-1.35,5.06,5.06,0,0,1,1.46-3.73,4,4,0,0,0,4.5-4.12,7.68,7.68,0,0,1,3.46-.85c4.86,0,9.78,2.41,9.78,7C1037,1411,1031.13,1415,1025.71,1415Zm-1.93-8.6c0,.17,0,.32.05.46a10.14,10.14,0,0,1,.09,1.16c0,1,1.77,1,1.79,1,1.41,0,5.27-1.06,5.27-4.44a6.5,6.5,0,0,0-3.78-1,1.67,1.67,0,0,0-.78.21,2.89,2.89,0,0,1-2.13.21A3,3,0,0,1,1023.78,1406.38Z" transform="translate(-819.8 -741.73)"/><path class="cls-12" d="M845.19,1317.81a3,3,0,0,1-2.37-4.84,316.11,316.11,0,0,1,57.64-56.7,3,3,0,0,1,3.65,4.76,310.91,310.91,0,0,0-55,53.66A3.7,3.7,0,0,1,845.19,1317.81Z" transform="translate(-819.8 -741.73)"/><path class="cls-12" d="M823,1394.93a3,3,0,0,1-3-2.86c-.14-3-.21-6-.21-9,0-33.83,10-56.74,32.56-74.29a3,3,0,1,1,3.69,4.74c-20.92,16.29-30.25,37.75-30.25,69.55,0,2.83.07,5.76.21,8.69a3,3,0,0,1-2.86,3.14Z" transform="translate(-819.8 -741.73)"/><path class="cls-12" d="M865,1361.57a3,3,0,0,1-3-3c0-7.53-2.71-15.38-7.83-22.69a3,3,0,0,1,4.92-3.44c5.83,8.33,8.91,17.36,8.91,26.13A3,3,0,0,1,865,1361.57Z" transform="translate(-819.8 -741.73)"/><path class="cls-12" d="M1040,1495.46a3,3,0,0,1-2.5-1.33c-12-18.05-20.94-36.23-26.48-54a3,3,0,0,1,5.73-1.79c5.37,17.24,14,34.89,25.74,52.47a3,3,0,0,1-2.49,4.66Z" transform="translate(-819.8 -741.73)"/><path class="cls-12" d="M1421.84,1207.51a3,3,0,0,1-2.74-1.79c-7.91-17.84-13.77-32.57-18.44-46.34a3,3,0,1,1,5.68-1.93c4.61,13.6,10.41,28.17,18.24,45.84a3,3,0,0,1-1.52,4A2.94,2.94,0,0,1,1421.84,1207.51Z" transform="translate(-819.8 -741.73)"/><path class="cls-12" d="M1454.47,1178.18c-8.65,0-14-7.36-14-14.17a18.34,18.34,0,0,1,8.43-15.1,10.55,10.55,0,0,1,5.61-1.55c6.36,0,15.18,5.33,15.18,15.34C1469.68,1171.53,1463.14,1178.18,1454.47,1178.18Zm0-24.82a4.6,4.6,0,0,0-2.46.66,12.31,12.31,0,0,0-5.58,10,8,8,0,0,0,8,8.17c5.34,0,9.21-4,9.21-9.48C1463.68,1156.18,1457.6,1153.36,1454.5,1153.36Z" transform="translate(-819.8 -741.73)"/><path class="cls-12" d="M1451.45,1153.37a3,3,0,0,1-2.78-1.88,51.7,51.7,0,0,0-3.53-7.59,3,3,0,0,1,5.15-3.08,56.47,56.47,0,0,1,3.94,8.43,3,3,0,0,1-1.67,3.9A2.89,2.89,0,0,1,1451.45,1153.37Z" transform="translate(-819.8 -741.73)"/><path class="cls-12" d="M1465.35,1184.91a3,3,0,0,1-2.12-.87c-2.39-2.39-3.55-5.54-3.55-9.61a3,3,0,0,1,6,0c0,2.47.55,4.12,1.79,5.36a3,3,0,0,1,0,4.24A3,3,0,0,1,1465.35,1184.91Z" transform="translate(-819.8 -741.73)"/><path class="cls-12" d="M1135.43,1132.52a3,3,0,0,1-.73-5.91l7.19-1.84c14.84-3.82,30.17-7.77,46-9,193.09-14.81,227.81-13.89,231.62-13.7,1-.14,2-.31,3-.48,1.19-.2,2.4-.4,3.67-.58a3,3,0,1,1,.85,5.93c-1.22.18-2.38.37-3.53.57s-2.31.38-3.47.55a2.92,2.92,0,0,1-.66,0c-1.11-.08-29.79-1.77-231.05,13.67-15.32,1.18-30.4,5.06-45,8.81l-7.22,1.85A3.18,3.18,0,0,1,1135.43,1132.52Z" transform="translate(-819.8 -741.73)"/><path class="cls-12" d="M1142.9,1180.51a3,3,0,0,1-.89-5.87,547.48,547.48,0,0,1,86.41-19.31c18.59-2.66,33.8-3.95,48.5-5.2,13-1.11,25.21-2.15,38.45-4a301.26,301.26,0,0,0,31.05-6.24,228.47,228.47,0,0,1,22.93-4.74c25.05-3.58,38.46,1.09,54.46,11a3,3,0,1,1-3.15,5.11c-14.8-9.12-27.22-13.44-50.46-10.12a225.24,225.24,0,0,0-22.36,4.63,307.84,307.84,0,0,1-31.62,6.35c-13.41,1.91-25.73,3-38.79,4.07-14.62,1.25-29.74,2.53-48.16,5.17a540.29,540.29,0,0,0-85.47,19.1A3.13,3.13,0,0,1,1142.9,1180.51Z" transform="translate(-819.8 -741.73)"/><path class="cls-12" d="M1128,1202a39.88,39.88,0,0,1-22.22-7.06,3,3,0,0,1,3.35-5,33.84,33.84,0,0,0,18.87,6c4.92,0,15.44-2.22,26.92-7.1a3,3,0,0,1,2.35,5.52C1146.59,1198.92,1134.83,1202,1128,1202Z" transform="translate(-819.8 -741.73)"/><path class="cls-12" d="M1335.67,1148.45h-.17a3,3,0,0,1-2.83-3.16c.15-2.74.23-5.56.23-8.36a185.48,185.48,0,0,0-2.23-27.9,3,3,0,1,1,5.93-.89,190.76,190.76,0,0,1,2.3,28.79c0,2.91-.08,5.84-.24,8.69A3,3,0,0,1,1335.67,1148.45Z" transform="translate(-819.8 -741.73)"/><path class="cls-12" d="M1281.08,1479a3,3,0,0,1-1.08-.2c-63.38-24.52-115.18-59.68-149.78-101.69a3,3,0,1,1,4.63-3.82c34,41.22,84.89,75.77,147.31,99.91a3,3,0,0,1-1.08,5.8Z" transform="translate(-819.8 -741.73)"/><path class="cls-12" d="M1352.13,1500.71a2.63,2.63,0,0,1-.68-.08c-7.07-1.63-14.15-3.42-21.07-5.3a3,3,0,0,1,1.58-5.79c6.84,1.87,13.85,3.63,20.84,5.25a3,3,0,0,1-.67,5.92Z" transform="translate(-819.8 -741.73)"/><path class="cls-12" d="M1445.45,1514.47h-.21a605.78,605.78,0,0,1-71.18-9.08,3,3,0,1,1,1.12-5.89,602.45,602.45,0,0,0,70.47,9,3,3,0,0,1-.2,6Z" transform="translate(-819.8 -741.73)"/><path class="cls-12" d="M1488.67,1515.94c-3.23,0-6.44,0-9.65-.07a3,3,0,0,1-3-3,3,3,0,0,1,3-3c15.28.22,30.86-.1,46.12-1a3,3,0,0,1,3.17,2.82,3,3,0,0,1-2.82,3.17C1513.38,1515.58,1501,1515.94,1488.67,1515.94Z" transform="translate(-819.8 -741.73)"/><path class="cls-12" d="M1559.19,1512a3,3,0,0,1-.33-6c78.56-8.9,150.52-32.5,208.1-68.23a3,3,0,1,1,3.17,5.09c-58.33,36.2-131.15,60.1-210.59,69.1A2.06,2.06,0,0,1,1559.19,1512Z" transform="translate(-819.8 -741.73)"/><path class="cls-12" d="M1883.41,1207.1a3,3,0,0,1-2.86-2.11c-8.73-28.12-24.77-54.92-47.66-79.66a3,3,0,0,1,4.41-4.08c23.5,25.41,40,53,49,82a3,3,0,0,1-2.87,3.9Z" transform="translate(-819.8 -741.73)"/><path class="cls-12" d="M1802.18,1095.9a3,3,0,0,1-1.86-.65c-39.38-31.32-90.35-56.59-147.4-73.06a3,3,0,0,1,1.66-5.77c57.8,16.69,109.49,42.33,149.47,74.13a3,3,0,0,1-1.87,5.35Z" transform="translate(-819.8 -741.73)"/><path class="cls-12" d="M1598.58,1009.41a3.29,3.29,0,0,1-.54,0c-6.68-1.21-13.46-2.32-20.17-3.3a3,3,0,0,1,.87-5.94c6.77,1,13.63,2.11,20.37,3.34a3,3,0,0,1-.53,5.95Z" transform="translate(-819.8 -741.73)"/><path class="cls-12" d="M1381.72,1008.88a3,3,0,0,1-.52-6,621,621,0,0,1,107.47-9.25c17,0,34.12.68,50.89,2a3,3,0,0,1-.48,6c-16.61-1.34-33.57-2-50.41-2a614.89,614.89,0,0,0-106.43,9.16A3.05,3.05,0,0,1,1381.72,1008.88Z" transform="translate(-819.8 -741.73)"/><path class="cls-12" d="M1195.68,1080.8a3,3,0,0,1-2.48-1.31,3,3,0,0,1,.79-4.17c36.73-25,80-44.79,128.57-58.84a3,3,0,1,1,1.67,5.76c-48,13.87-90.65,33.4-126.86,58A3,3,0,0,1,1195.68,1080.8Z" transform="translate(-819.8 -741.73)"/><path class="cls-12" d="M1434.93,882.18a3,3,0,0,1-1.42-.36c-12.8-6.89-27.23-20.18-35.93-33.07a3,3,0,0,1-.43-2.36,3,3,0,0,1,1.44-1.92c16.32-9.26,23.3-27,30.68-45.75,11-28,22.43-57,66.44-57,38,0,42.11,31.39,46.12,61.75,3.25,24.57,6.61,50,25.76,64.2a3,3,0,0,1,0,4.78c-4.41,3.4-8.43,6.23-11,8a3,3,0,1,1-3.38-5c1.92-1.31,4.63-3.2,7.7-5.49-18.47-16.08-22-42.39-25-65.74-4-30.34-7.48-56.54-40.18-56.54-39.93,0-50.09,25.84-60.85,53.19-7,17.9-14.32,36.39-30.5,47,8.3,11.32,20.82,22.56,32,28.58a3,3,0,0,1-1.43,5.64Z" transform="translate(-819.8 -741.73)"/><path class="cls-12" d="M1479.88,840.31c-18.92,0-30.34-13.34-30.57-35.69a3,3,0,0,1,.91-2.18,3,3,0,0,1,2.19-.85c.46,0,.92,0,1.39,0,24.9,0,38.55-21.42,42.68-34.07a3,3,0,0,1,4.14-1.78c16.18,7.69,18.26,21.85,18.26,33.34C1518.88,829.94,1492.09,840.31,1479.88,840.31Zm-24.46-32.72c1.08,17,9.88,26.72,24.46,26.72,6.54,0,33-6.26,33-35.2,0-13.19-3.6-21.27-11.92-26.35C1495.28,786.77,1480.64,806.76,1455.42,807.59Z" transform="translate(-819.8 -741.73)"/><path class="cls-12" d="M1355.33,978.11a3.06,3.06,0,0,1-1.28-.29,3,3,0,0,1-1.43-4c45.05-95.3,82.33-99.83,104.61-102.54,9.68-1.18,14.89-2,18.21-7.47,3-4.88,4.37-10.58,4.37-17.93,0-2.41-.14-5-.44-8.45a3,3,0,1,1,6-.53c.32,3.62.47,6.39.47,9,0,8.51-1.67,15.2-5.25,21.06-5,8.15-13.15,9.15-22.61,10.29-21,2.56-56.27,6.85-99.91,99.16A3,3,0,0,1,1355.33,978.11Z" transform="translate(-819.8 -741.73)"/><path class="cls-12" d="M1561,1056.63a2.82,2.82,0,0,1-.81-.11,3,3,0,0,1-2.08-3.7c8.06-28.65,15.55-46.57,22.16-62.37,5-12,9.33-22.31,13-35a125.64,125.64,0,0,0,5-34.42c0-21.1-14-35.88-27.57-38a313.26,313.26,0,0,0-32.22-3.21c-26.79-1.55-27.12-4-32.76-44.25q-.7-5-1.55-10.94a3,3,0,0,1,5.94-.85c.57,4,1.08,7.59,1.55,11,2.66,19,4.12,29.47,7.44,34.08,2.77,3.85,7.23,4.3,19.73,5a321,321,0,0,1,32.79,3.27c20.43,3.17,32.65,24.82,32.65,43.92a131.7,131.7,0,0,1-5.28,36.06c-3.73,13.08-8.12,23.57-13.19,35.71-6.55,15.65-14,33.39-21.92,61.69A3,3,0,0,1,1561,1056.63Z" transform="translate(-819.8 -741.73)"/><path class="cls-12" d="M1501,904.9c-18.57,0-37.52-11.3-48.29-28.78a3,3,0,1,1,5.1-3.15c9.56,15.51,26.91,25.93,43.19,25.93s31.94-12.2,39.69-23.54a3,3,0,0,1,4.95,3.39C1537,891.34,1519.37,904.9,1501,904.9Z" transform="translate(-819.8 -741.73)"/><path class="cls-12" d="M1432.74,1002.14a3,3,0,0,1-2.7-1.7c-3.32-6.9-4.79-12.65-4.79-18.62,0-6.18,1.37-11.22,2.83-16.56s2.9-10.61,3.13-17.55c-14.3,12.49-28.26,28.1-43.52,48.59a3,3,0,1,1-4.81-3.58c17.28-23.21,33-40.29,49.38-53.76a3,3,0,0,1,3.14-.41,3,3,0,0,1,1.76,2.63c0,1.52.09,3.05.09,4.57,0,8.71-1.8,15.29-3.38,21.09-1.35,4.94-2.62,9.61-2.62,15,0,5,1.29,10,4.2,16a3,3,0,0,1-1.41,4A2.88,2.88,0,0,1,1432.74,1002.14Z" transform="translate(-819.8 -741.73)"/><path class="cls-12" d="M1490.36,1106.24a3,3,0,0,1-3-2.67,10.54,10.54,0,0,1-.07-1.24c0-4.23,2.34-7.48,4.42-10.34l1-1.33c39.86-57.32,40.49-63.09,43.11-87.36,1.41-13.16,3.36-31.18,11.66-64.39a3,3,0,0,1,5.82,1.46c-8.2,32.81-10.12,50.59-11.52,63.57-2.75,25.51-3.4,31.57-44.15,90.14l-1,1.42c-1.69,2.34-3.28,4.54-3.28,6.83a5.78,5.78,0,0,0,0,.58,3,3,0,0,1-2.65,3.31Z" transform="translate(-819.8 -741.73)"/><path class="cls-12" d="M1589.43,979a3,3,0,0,1-1-.18c-12.1-4.41-24.61-9-42.48-9h-1.65a3,3,0,0,1-3-3,3,3,0,0,1,3-3h1.73c18.93,0,32,4.74,44.53,9.33a3,3,0,0,1-1,5.82Z" transform="translate(-819.8 -741.73)"/><path class="cls-12" d="M1406.77,970.9a3,3,0,0,1-2.39-1.19,35,35,0,0,0-3.65-4.23c-8.41-7.9-24.32-17.82-29.55-21.07a3,3,0,0,1,3.17-5.1c9.29,5.79,22.56,14.35,30.49,21.8a38.72,38.72,0,0,1,4.32,5,3,3,0,0,1-2.39,4.81Z" transform="translate(-819.8 -741.73)"/><path class="cls-12" d="M1514,1113.88a3,3,0,0,1-2.12-5.12,25.16,25.16,0,0,0,3-3.91,34,34,0,0,1,2.54-3.49c31-36.16,50.23-60.62,64.28-78.48,37.27-47.36,37.27-47.36,117.54-89.92,13.54-7.18,28.89-15.33,47.23-25.18a3,3,0,0,1,2.84,5.29c-18.35,9.86-33.71,18-47.26,25.19-79.14,42-79.14,42-115.63,88.34-14.08,17.89-33.37,42.41-64.45,78.67a29.4,29.4,0,0,0-2.09,2.9,30.46,30.46,0,0,1-3.74,4.83A3,3,0,0,1,1514,1113.88Z" transform="translate(-819.8 -741.73)"/><path class="cls-12" d="M1540,1129a3,3,0,0,1-1.29-5.71c13.22-6.27,49-46.55,66.07-67,31.24-37.37,90.84-64.62,123.58-77.54a3,3,0,0,1,4.1,2.79v.26c0,9.16.51,41.18,7,68.88a3,3,0,1,1-5.83,1.38c-5.9-25-7-53.41-7.17-66.11-72.18,29.11-104.3,58.87-117.1,74.19-5.14,6.15-50.7,60.3-68.11,68.55A3,3,0,0,1,1540,1129Z" transform="translate(-819.8 -741.73)"/><path class="cls-12" d="M1866.83,1557.25a3,3,0,0,1-3-2.63c-.65-5.26-30.66-69.45-110.28-120.82-90.23-58.21-157-136.08-197.14-191.16-45.68-62.68-70.94-114.93-70.94-127.07,0-9.27,5.81-12.58,11.24-12.58s13,6.51,23.12,15.7c3.4,3.1,8,7.31,9.58,8,1.78-.1,3.89-1.2,5.76-2.17,2.08-1.08,3.88-2,5.75-2,5.87,0,13,10.45,15.58,17.94,16.87,49.55,60.75,92.81,94.6,120.37,40.41,32.9,74.42,50.24,78.86,50.28,6.62,0,28.73-18.18,52.15-37.43l3.93-3.23c0-.94,0-1.87,0-2.79,0-6-.71-35.77-14.76-35.77-3.06,0-5.57,1.11-8.75,2.52-4.09,1.81-9.16,4-16.71,4-16.3,0-37-22.68-37-48.18a43.86,43.86,0,0,1,1.34-10.84,34,34,0,0,1-5.78-6.17,3,3,0,0,1,.45-4l.34-.3c4.23-3.72,12.11-10.63,18.11-19.39a3,3,0,0,1,5,3.39c-5.63,8.23-12.66,14.8-17.3,18.92a26.35,26.35,0,0,0,4.4,4,3,3,0,0,1,1.14,3.33,37.4,37.4,0,0,0-1.65,11.11c0,18,15.32,42.18,31,42.18,6.28,0,10.35-1.8,14.28-3.54,3.37-1.49,6.85-3,11.18-3,4.87,0,20.76,3,20.76,41.77,0,1.39,0,2.79,0,4.2a3.07,3.07,0,0,1-1.1,2.34l-5,4.12c-31,25.48-47.58,38.79-56,38.79-7.66,0-44.5-20.57-82.59-51.57-34.47-28.07-79.21-72.22-96.55-123.15-2.4-7.05-8.09-13.54-10-13.87a17.68,17.68,0,0,0-2.91,1.34c-2.45,1.27-5.5,2.86-8.8,2.86-2.6,0-5.39-2.34-13.35-9.6-5.8-5.28-15.5-14.13-19.08-14.13-1.29,0-5.24,0-5.24,6.58,0,9.69,24,60.66,69.79,123.53,39.83,54.67,106.09,132,195.54,189.66,82.84,53.44,112.26,119.33,113,125.12a3,3,0,0,1-2.61,3.34A2.31,2.31,0,0,1,1866.83,1557.25Z" transform="translate(-819.8 -741.73)"/><path class="cls-12" d="M1632.41,1331.79a3,3,0,0,1-2.74-4.24c10.47-23.18,28.16-39.4,41.15-48.91a3,3,0,0,1,3.55,4.84c-12.42,9.09-29.3,24.54-39.23,46.54A3,3,0,0,1,1632.41,1331.79Z" transform="translate(-819.8 -741.73)"/><path class="cls-12" d="M1782.26,1210.57c-16.5,0-24.73-7.51-27.5-10.73a3,3,0,0,1-.38-3.35,13.49,13.49,0,0,0,1.38-6.42c0-4-2.67-8-8.61-8a18.25,18.25,0,0,0-4.76.67,3,3,0,0,1-3.51-4.12c1.3-2.93,2.53-6.06,3.27-8.09-6.83-3.65-25.15-15.73-25.15-40.34a63.05,63.05,0,0,1,1.92-14.19,3,3,0,0,1,3.15-2.32l2.76.21c6.74.52,13.11,1,19.65,1,5.88,0,10.89-.48,15.73-.94,4.66-.45,9.07-.88,14-.88,24.64,0,49.58,18.78,49.58,54.67C1823.79,1195,1808.65,1210.57,1782.26,1210.57Zm-21.67-13.31c3.07,2.9,9.7,7.31,21.67,7.31,29.37,0,35.53-20,35.53-36.85,0-28.2-18.33-48.67-43.58-48.67-4.65,0-8.91.41-13.42.85a161.86,161.86,0,0,1-16.31,1c-6.77,0-13.55-.51-20.11-1l-.16,0a51.38,51.38,0,0,0-1.21,10.33c0,25.55,23,35.61,24,36a3,3,0,0,1,1.83,2.76c0,1-1.21,4.22-2.37,7.1h.71c9.59,0,14.61,7,14.61,14A20.73,20.73,0,0,1,1760.59,1197.26Z" transform="translate(-819.8 -741.73)"/><path class="cls-12" d="M2013.49,1428.16a3,3,0,0,1-2.7-1.69c-14.53-30.08-17.32-70.06-20-108.73-4.61-66.28-8.59-123.52-65.92-123.52-19.48,0-47.7,13.86-86.29,42.37a3,3,0,0,1-3.67-.08c-6.23-5-17.8-16.91-25.34-40.08a3,3,0,0,1,5.71-1.85c6.39,19.63,15.7,30.47,21.65,35.77,39.2-28.73,67.18-42.13,87.94-42.13,62.93,0,67.29,62.71,71.91,129.1,2.65,38.1,5.39,77.5,19.42,106.54a3,3,0,0,1-1.4,4A2.88,2.88,0,0,1,2013.49,1428.16Z" transform="translate(-819.8 -741.73)"/><path class="cls-12" d="M1787.14,1309.07c-17,0-23.73-2.94-31.63-9.13a3,3,0,0,1,3.71-4.73c6.93,5.44,12.6,7.86,27.92,7.86,47.54,0,69.19-33.76,69.19-65.14a82.9,82.9,0,0,0-2-17.56,3,3,0,1,1,5.86-1.27,88.86,88.86,0,0,1,2.11,18.83C1862.33,1284.64,1824.5,1309.07,1787.14,1309.07Z" transform="translate(-819.8 -741.73)"/><path class="cls-12" d="M1584.76,1086.89a3,3,0,0,1-1.92-.7c-10.7-8.9-20.92-15.33-31.23-19.64a3,3,0,0,1,2.32-5.54c10.87,4.55,21.58,11.28,32.75,20.57a3,3,0,0,1-1.92,5.31Z" transform="translate(-819.8 -741.73)"/><path class="cls-12" d="M1779.71,944.69c-20.64,0-35.62-18.19-35.62-43.24a27.42,27.42,0,0,1,.3-4.27,27.59,27.59,0,0,0,.26-4c0-1.29-.05-2.56-.11-3.83s-.12-2.72-.12-4.08c0-3.21,1.88-18.92,6.25-31.92a3,3,0,1,1,5.69,1.91c-4.09,12.16-5.94,27.14-5.94,30,0,1.27,0,2.54.11,3.81s.12,2.72.12,4.1a31.94,31.94,0,0,1-.32,4.82,22.9,22.9,0,0,0-.24,3.49c0,21.58,12.46,37.24,29.62,37.24,14.33,0,26.93-9.57,37.46-28.46.47-.86.82-1.44,1-1.7a3,3,0,1,1,4.88,3.49c-.12.18-.33.58-.64,1.13C1810.75,934.08,1796.38,944.69,1779.71,944.69Z" transform="translate(-819.8 -741.73)"/><path class="cls-12" d="M1762.52,918.91a3,3,0,0,1-.83-.12c-3.8-1.09-10.59-5.25-10.59-9.69,0-1.05.4-1.59,1.34-2.91,2-2.71,7.87-11,7.87-17.93a14.6,14.6,0,0,0-3.14-9.41,3,3,0,0,1,4.61-3.84,20.34,20.34,0,0,1,4.53,13.25c0,8.69-6.21,17.56-8.8,21.17a15,15,0,0,0,5.83,3.59,3,3,0,0,1-.82,5.89Z" transform="translate(-819.8 -741.73)"/><path class="cls-12" d="M1824.14,897.61a3,3,0,0,1-2.59-4.51c.45-.76.94-1.56,1.44-2.38,2.39-3.91,5.09-8.34,5.09-12.22s-1.53-3.85-2.26-3.85a17,17,0,0,0-8.22,3.73,3,3,0,0,1-4.95-2.27c-.06-16.57-6-25.7-16.63-25.7-2.65,0-6.84,1.42-11.28,2.93-6.63,2.26-14.87,5.06-23.25,5.06-20.69,0-28-18.72-28-22.73,0-1.72,0-3.37-.1-5s-.1-3.31-.1-5c0-14.33,8.79-20.85,17-20.85,6.56,0,12,3.45,17.35,6.79s10.15,6.39,15.94,6.39c4.75,0,9.28-2.43,14.53-5.24,6.92-3.71,14.75-7.9,25.49-7.9,15.77,0,26.77,15.77,26.77,29.92,0,10.72-4.81,20.94-9.47,30.82-1.77,3.78-3.45,7.34-4.85,10.89a3,3,0,0,1-2,1.79v.2c0,5.57-3.31,11-6,15.35-.48.78-.95,1.54-1.37,2.28A3,3,0,0,1,1824.14,897.61Zm1.68-29a7.61,7.61,0,0,1,5.93,2.52c1.17-2.71,2.45-5.44,3.71-8.1,4.37-9.29,8.89-18.89,8.89-28.27,0-14.1-10.95-23.92-20.77-23.92-9.23,0-16,3.65-22.65,7.19-5.72,3.06-11.12,5.95-17.37,5.95-7.52,0-13.69-3.89-19.14-7.31-4.79-3-9.32-5.87-14.15-5.87-5,0-11,3.89-11,14.85,0,1.6,0,3.19.1,4.79s.1,3.41.1,5.19c0,0,4.06,16.73,22,16.73,7.39,0,14.79-2.52,21.32-4.74,5.13-1.75,9.56-3.25,13.21-3.25,6.32,0,20.49,2.69,22.42,26.36A19.33,19.33,0,0,1,1825.82,868.65Z" transform="translate(-819.8 -741.73)"/><path class="cls-12" d="M1917.43,1194.79a3,3,0,0,1-3-2.7c-.55-5.68-.79-12.9-.79-24.16,0-37.2,4.8-67,8.66-90.94,2.65-16.46,4.94-30.67,4.94-42.79,0-67.11-32.55-82.25-61.27-95.59-19.54-9.08-38-17.66-38-42.49,0-4.07.22-8.17.45-12.13.09-1.72.19-3.45.27-5.18a3,3,0,1,1,6,.28c-.08,1.75-.17,3.49-.27,5.24-.22,3.88-.44,7.89-.44,11.79,0,21,15.22,28.08,34.51,37,28.84,13.41,64.74,30.1,64.74,101,0,12.6-2.33,27-5,43.74-3.82,23.74-8.58,53.27-8.58,90,0,11,.23,18.1.76,23.57a3,3,0,0,1-2.69,3.28Z" transform="translate(-819.8 -741.73)"/><path class="cls-12" d="M1809.71,982.78c-8.7,0-24.67-5.24-33.85-40.34a3,3,0,0,1,5.8-1.52c2.82,10.78,11.2,35.86,28,35.86,13.17,0,30.69-15.44,50.67-44.64a3,3,0,0,1,5,3.39C1843.88,966.88,1825.17,982.78,1809.71,982.78Z" transform="translate(-819.8 -741.73)"/><path class="cls-12" d="M1720.29,1128.32h-.2c-30-1.94-63.89-2.57-103.53-1.93-.73,0-1.45,0-2.16.08-.94,0-1.87.08-2.79.08-8,0-14.24-5.5-19.23-9.91-2.72-2.4-5.79-5.12-7.48-5.12-1.11,0-3.93,1.19-6.41,2.23-5.27,2.21-11.83,5-18.73,5a34.12,34.12,0,0,1-6-.53,3,3,0,1,1,1-5.91,28.15,28.15,0,0,0,4.94.44c5.69,0,11.63-2.49,16.41-4.49,3.58-1.5,6.42-2.69,8.73-2.69,4,0,7.43,3.07,11.45,6.62,4.46,3.94,9.51,8.41,15.26,8.41.83,0,1.67,0,2.52-.08l2.33-.08c39.81-.64,73.84,0,104,1.94a3,3,0,0,1-.19,6Z" transform="translate(-819.8 -741.73)"/><path class="cls-12" d="M1773.92,1119.05a3,3,0,0,1-1.8-5.4c39.74-29.76,68.46-61.39,87.79-96.7a3,3,0,1,1,5.26,2.89c-19.75,36.07-49,68.33-89.45,98.61A3,3,0,0,1,1773.92,1119.05Z" transform="translate(-819.8 -741.73)"/><path class="cls-12" d="M1715,1167h-.27c-28.89-2.53-113.79-9.64-117.74-10h-1.13c-13.71.22-27.72.45-36.9.63a3,3,0,0,1-.13-6c9.2-.18,23.21-.41,36.94-.63h1.59c.88.08,88.46,7.42,117.9,10a3,3,0,0,1-.26,6Z" transform="translate(-819.8 -741.73)"/><path class="cls-12" d="M1814,1142.58a3,3,0,0,1-1.72-5.46c11.73-8.25,43.61-32.49,86.21-79.36a3,3,0,0,1,4.45,4c-43,47.31-75.32,71.87-87.22,80.23A3,3,0,0,1,1814,1142.58Z" transform="translate(-819.8 -741.73)"/><path class="cls-12" d="M1643.51,1161a3,3,0,0,1-3-2.79c-.37-5.21-.51-9.8-.51-12.36a167.76,167.76,0,0,1,1.61-23.07,3,3,0,1,1,5.94.83,163.45,163.45,0,0,0-1.55,22.24c0,2.46.13,6.88.49,11.93a3,3,0,0,1-2.77,3.21Z" transform="translate(-819.8 -741.73)"/><path class="cls-12" d="M1881.75,1182.45c-2.72,0-5.51-.08-8.29-.25a3,3,0,0,1,.36-6c2.66.17,5.32.24,7.93.24a112,112,0,0,0,34-4.92,3,3,0,1,1,1.78,5.73A119.36,119.36,0,0,1,1881.75,1182.45Z" transform="translate(-819.8 -741.73)"/><path class="cls-12" d="M1620,1515.78a3,3,0,0,1-.23-6c67.83-5.32,123.8-31.47,141.87-48.34a3,3,0,1,1,4.09,4.38c-10.45,9.76-30.69,20.86-54.16,29.71a336.76,336.76,0,0,1-91.33,20.23Z" transform="translate(-819.8 -741.73)"/><path class="cls-12" d="M1236.64,1476.78a3,3,0,0,1-2.5-1.33,4.5,4.5,0,0,0-1.64-.79c-.49-.18-1-.36-1.48-.58a99.13,99.13,0,0,0-10.08-3.45c-23.21-7.16-66.42-20.49-121.22-96.62a3,3,0,1,1,4.87-3.51c53.62,74.5,95.58,87.44,118.12,94.39a102.54,102.54,0,0,1,10.75,3.71c.35.16.71.28,1.07.41a8.47,8.47,0,0,1,4.6,3.11,3,3,0,0,1-2.49,4.66Z" transform="translate(-819.8 -741.73)"/><path class="cls-12" d="M1975.94,1432.75a3,3,0,0,1-2.74-4.2,70.12,70.12,0,0,0,6.22-28.14c0-5.21-2-8.46-5.24-8.46-2.51,0-5.86,2.12-8.8,4-3.27,2.06-6.08,3.84-8.91,3.84-1.56,0-6.64-.58-6.64-8.14,0-3.05,3.12-24,13-56.13a3,3,0,0,1,5.74,1.77c-10,32.61-12.75,52.82-12.75,54.36a4,4,0,0,0,.35,2.12,2.13,2.13,0,0,0,.29,0c1.09,0,3.75-1.68,5.7-2.91,3.64-2.3,7.76-4.91,12-4.91,5.59,0,11.24,4.48,11.24,14.46a76,76,0,0,1-6.73,30.54A3,3,0,0,1,1975.94,1432.75Zm-19.75-39h0Z" transform="translate(-819.8 -741.73)"/><path class="cls-12" d="M1964.29,1588.67c-31.26,0-33.51-23.16-33.51-61.3,0-22.07,9.39-55.22,54.14-87.82,26.38-19.21,54.29-30,56.71-30,16.15,0,21.87,14.44,21.87,55.18,0,73-14.26,82.72-32.3,95.07l-2.39,1.63a3,3,0,1,1-3.42-4.93l2.42-1.66c17.24-11.79,29.69-20.31,29.69-90.11,0-40.76-5.71-49-15.6-49.18-2.94.81-28.84,10.68-54.7,29.81-23,17-50.42,45.08-50.42,82,0,42.17,3.79,55.3,27.51,55.3,2.21,0,10.41-4.27,15.84-7.09,5-2.6,9.73-5,12.77-6.07a3,3,0,0,1,1.9,5.69c-2.6.87-7.33,3.33-11.91,5.71C1973.61,1585.74,1967.72,1588.67,1964.29,1588.67Z" transform="translate(-819.8 -741.73)"/><path class="cls-12" d="M1961.23,1486.47a3,3,0,0,1-2.57-4.55c13.21-22,74.75-59.65,96.76-62.24a3,3,0,0,1,.71,6c-18.17,2.14-79.54,38.07-92.32,59.38A3,3,0,0,1,1961.23,1486.47Z" transform="translate(-819.8 -741.73)"/><path class="cls-12" d="M1983,1632.23c-4.29,0-8.72-2.78-8.72-7.44a9.83,9.83,0,0,1,.77-3.72c19.42-45.76,23.12-83.48,25.82-111,2.64-26.92,4.38-44.7,21.57-44.7,12.08,0,12.48,13.19,12.67,19.52,0,.59,0,1.15.06,1.65l-3,.14h3c.15,3.43.31,7,.31,10.55,0,10.86-3.4,44-11.58,75.14C2013.44,1612.09,1999.68,1632.23,1983,1632.23Zm39.44-160.87c-10.78,0-12.74,10.18-15.6,39.28-2.58,26.35-6.49,66.17-26.26,112.77a3.9,3.9,0,0,0-.3,1.38c0,.72,1.37,1.44,2.72,1.44,13.24,0,25.71-19.67,35.11-55.4,8-30.56,11.38-63,11.38-73.61,0-3.44-.16-6.92-.31-10.28l3-.27-3,.14c0-.54-.05-1.12-.07-1.74C2028.82,1476.18,2027.68,1471.36,2022.42,1471.36Z" transform="translate(-819.8 -741.73)"/><path class="cls-12" d="M2020.91,1498h-.23a3,3,0,0,1-1.8-.6,6.72,6.72,0,0,1-2.79-5.65,17,17,0,0,1,.19-2.25,11.9,11.9,0,0,0,.15-1.58,3,3,0,0,1,5.08-2.16,4,4,0,0,1,4.66,4.22,5.72,5.72,0,0,0,.06.67,14,14,0,0,1,.12,1.6C2026.35,1495.66,2024.11,1498,2020.91,1498Z" transform="translate(-819.8 -741.73)"/><path class="cls-12" d="M1904.05,1568.27a24.9,24.9,0,0,1-8.41-1.4,3,3,0,1,1,2-5.65,18.63,18.63,0,0,0,6.39,1c5.78,0,16.84-2.83,29-10.81a3,3,0,0,1,3.29,5C1923.09,1565.18,1911,1568.27,1904.05,1568.27Z" transform="translate(-819.8 -741.73)"/><path class="cls-12" d="M1909.57,1579.44c-1.87,0-3.74-.06-5.62-.13s-3.59-.12-5.39-.12a3,3,0,0,1,0-6c1.86,0,3.73.06,5.59.13s3.61.12,5.42.12c8.45,0,17.22-2.81,26.09-8.34a3,3,0,1,1,3.17,5.09C1929,1576.32,1919.16,1579.44,1909.57,1579.44Z" transform="translate(-819.8 -741.73)"/><path class="cls-12" d="M1952.92,1587.25a3,3,0,0,1-2-5.21c7.66-7,11.38-17.66,11.38-32.59a79,79,0,0,0-13.74-44.46,3,3,0,0,1,4.94-3.4,85,85,0,0,1,14.8,47.86c0,16.71-4.36,28.82-13.33,37A3,3,0,0,1,1952.92,1587.25Z" transform="translate(-819.8 -741.73)"/></g></g></svg>