<svg xmlns="http://www.w3.org/2000/svg" viewBox="0 0 415.57 626.93"><defs><style>.cls-1{isolation:isolate;}.cls-2{fill:#42799b;}.cls-3{fill:#d9e6ed;}.cls-4,.cls-5{fill:#e4cbb9;}.cls-4{stroke:#e4cbb9;stroke-miterlimit:10;}.cls-6{fill:#82cecd;}.cls-7{fill:#fff;}.cls-8{fill:#dd708d;}.cls-9{fill:#4e4f7d;}.cls-10{fill:#edbf2e;}.cls-11{fill:#f5b6a3;}.cls-12{mix-blend-mode:multiply;}.cls-13{fill:#e0dfe6;}</style></defs><title>strategiai</title><g class="cls-1"><g id="Réteg_17" data-name="Réteg 17"><rect class="cls-2" width="415.57" height="626.93"/><path class="cls-3" d="M669,424.54a6.83,6.83,0,0,0-2.78.66,7.73,7.73,0,0,0-.94,14.6,6.08,6.08,0,0,0,3.87,1.43,5.78,5.78,0,0,0,4.39-2,6.57,6.57,0,0,0,2.28-2.85C677.91,431.37,674.92,424.49,669,424.54Z" transform="translate(-441.75 -165.67)"/><path class="cls-3" d="M728.08,428.1c-.75-2.89-3.25-4.56-6-5.08a6.38,6.38,0,0,0-1.56-.7,6,6,0,0,0-7.33,4.16l-.11.82a5.67,5.67,0,0,0-.6,2.44,7.34,7.34,0,0,0,1,4.47,6.68,6.68,0,0,0,1.35,1.6,10,10,0,0,0,.86,1.11,6.53,6.53,0,0,0,4.81,2.1,6.73,6.73,0,0,0,5.65-3.38C727.48,433.4,728.78,430.77,728.08,428.1Z" transform="translate(-441.75 -165.67)"/></g><g id="Réteg_5" data-name="Réteg 5"><path class="cls-4" d="M765.81,418.74a10,10,0,0,0-4.84.13,9.52,9.52,0,0,0-1.59.23l0,0c-.07-.08-.16-.15-.24-.23a58.52,58.52,0,0,0-3.49-21.42,33.06,33.06,0,0,1-1.25-5.73,6.76,6.76,0,0,0-.08-4.77c-2.49-6.05-3.88-12.36-5.23-18.74-1.22-5.78-1.78-14.05-6.93-17.8-6.51-4.74-15,.2-15.75,7.79q-.07.75-.09,1.53a26.1,26.1,0,0,0-13,4,33.29,33.29,0,0,1-5.4,2.82c-1.16.39-2.31.84-3.47,1.3l-1.25.41a86.16,86.16,0,0,0-10.31.9,22.84,22.84,0,0,0-4.75,1.67h-.41a8.89,8.89,0,0,0-4.4,1.15,48.92,48.92,0,0,0-7.92,1.58,10.14,10.14,0,0,0-2.28.23l-.43.1a35.48,35.48,0,0,0-11.37,3l-1.82.89c-5.21,1.77-10.07,4.08-13.66,7.93a29,29,0,0,0-8.1,7.31c-3.41,4.64-5.61,10.38-7.3,15.86a24.78,24.78,0,0,0-1,10.22c.37,3.26,1,6.07.2,9.31a8.56,8.56,0,0,0,1.79,7.82,10.75,10.75,0,0,0-1.54-.14l-1.43.12a14,14,0,0,0-2.61-2.09c-2.71-1.59-6.29-1.54-9.32-1.27-6.16.54-9.16,5-9.71,10.2-1.05,2.93-.83,6.49,1.26,8.75,2.62,6.24,8.75,9,15.41,9.84a6.79,6.79,0,0,0,2.07-.07c.12.41.24.82.39,1.23s.4,1.05.61,1.57a8.74,8.74,0,0,0-.26,2.06v.52a6.87,6.87,0,0,0,.59,3.05,16,16,0,0,0,.34,3.5c.31,1.54.76,2.87,1.1,4.22l.42,4.19a11.06,11.06,0,0,0,2.12,5.6,11.78,11.78,0,0,0,1,5.62c1,2.24,1.91,4.49,2.92,6.71s2.65,4,4,6.1c.71,1.15,1.15,2.7,2,3.93a12.33,12.33,0,0,0,7,5.26c3.7,3.32,7.68,6.45,11.31,9.67a9.33,9.33,0,0,0,3.35,2c.54,2.24,1.12,4.48,1.75,6.69a16.94,16.94,0,0,0,2.52,5.16l.74,2.35a14.06,14.06,0,0,0-2.43,3.4c-1.24,2.43-2.41,4.89-3.56,7.37a15.93,15.93,0,0,0-8,10.16c-2.08,9.12,2.74,18.23,11.87,20.91a27.5,27.5,0,0,0,11.75.89c.07.38.16.75.26,1.13l.41,2.35a16.37,16.37,0,0,0,14.13,12.18,12.93,12.93,0,0,0,6.78-.31l4.06-1.71a17.06,17.06,0,0,0,6.1-6.1l1.71-4.06a17.19,17.19,0,0,0,.47-6.68c.24-.37.48-.74.69-1.13,3.16-5.85,5.58-11.67,6.12-18.34a38.4,38.4,0,0,0-1.28-11.66c.49-1,1-2.1,1.46-3.14a10.82,10.82,0,0,0,1.07-4.67,18.85,18.85,0,0,0,4.34-3.12,5.12,5.12,0,0,0,.83.77,5.67,5.67,0,0,0-.18,1.38c0,.33,0,.66.08,1,0,0,0,.16,0,.55a.13.13,0,0,0,0,.06,7.26,7.26,0,0,0,.2,3.31,5.56,5.56,0,0,0,5.73,5.42c4,0,5.87-3.18,5.74-6.25a4.82,4.82,0,0,0,.37-2.2,11.66,11.66,0,0,1-.06-1.32c0-.21,0-1.46,0-.53s.1-.26.17-.5a10.79,10.79,0,0,1,.45-1.24,4,4,0,0,0,.24-1.64,8.42,8.42,0,0,0,1.7-5.2,10.13,10.13,0,0,0-2.38-6c-.77-1-1.49-2.06-2.2-3.11.31-.51.6-1,.91-1.52a5.35,5.35,0,0,1,2.69-4.55c1.19-2.07,2.36-4.17,3.5-6.27l.44-.19c2.28-1,3.94-3.5,5.48-5.4,2.45-3,4.69-6.65,4.22-10.75,0-.29-.07-.57-.11-.85l.63-.78a10.42,10.42,0,0,0,2.53-6.5,25.89,25.89,0,0,0,1.27-6.68c1.34-3.38,2.58-6.79,3.79-10.22a20.1,20.1,0,0,1,.24-3.09,18.43,18.43,0,0,0,.48-5.32,4.79,4.79,0,0,1,1.45-4.38,18.31,18.31,0,0,0-1.25-3.86c-.09-1-.17-1.89-.19-2.77a.37.37,0,0,1,0-.11v-.12l.37-.65c.53-.95,1-1.91,1.46-2.86a18.9,18.9,0,0,0,6.65-6.25c1.92-3,2.59-6.49,3.36-9.9C773.13,425.22,770.71,419.85,765.81,418.74ZM675,437.92a6.79,6.79,0,0,1-7.84,3.57c-2.89-.81-4.48-3.65-5-6.42a11.39,11.39,0,0,1-.22-2.32,6.42,6.42,0,0,1,0-1.16,6.71,6.71,0,0,1,.84-2.64,7.5,7.5,0,0,1,1.61-2.23,4.41,4.41,0,0,1,3-1.19,6.05,6.05,0,0,1,4,.56,6.49,6.49,0,0,1,.77,0c2.91.06,4.55,2.7,4.68,5.31A13.15,13.15,0,0,1,675,437.92Zm53-6.37a8.32,8.32,0,0,1-.6,1.67,8,8,0,0,1-.85,1.68,4.61,4.61,0,0,1-1.48,1.41c-1.15,2.06-3.73,2.7-6,2.19a6.22,6.22,0,0,1-1.12-.4,7.48,7.48,0,0,1-2.61-2,4.16,4.16,0,0,1-.52-.51,8.17,8.17,0,0,1-1.33-8.41,5.18,5.18,0,0,1,4.37-3.33,6.2,6.2,0,0,1,1.35-.41,6.41,6.41,0,0,1,2.55.07,6.83,6.83,0,0,1,4.11,1.17C728.2,426.26,728.59,429.05,728,431.55Z" transform="translate(-441.75 -165.67)"/><path class="cls-5" d="M676.88,670.76v0h0Z" transform="translate(-441.75 -165.67)"/><path class="cls-5" d="M676.24,558a.91.91,0,0,1-.08.13S676.2,558.09,676.24,558Z" transform="translate(-441.75 -165.67)"/><path class="cls-5" d="M730.54,558.22a13.67,13.67,0,0,1-3.19-4.22,5.85,5.85,0,0,0-1.3-2.55c-.06-.3-.12-.61-.17-.92-.48-3.14.12-6.23-.92-9.32-1.34-4-5.4-4.81-8.4-3.58-4.22-.93-9.43,3.75-6.76,8.88,1.27,2.46,2.6,4.89,4,7.31l-.4,0a9.24,9.24,0,0,0-9,4.3,11.3,11.3,0,0,0-.64,1.46,8.3,8.3,0,0,0,.2,8.56,16.8,16.8,0,0,1,.85,1.7,9.06,9.06,0,0,1-.45.79c-1.65,2.32-3.67,4.41-5.38,6.69a23.72,23.72,0,0,0-1.52,2.35,7.81,7.81,0,0,0-3.1-2.51h0c.59-4.83-4.55-9-9-9a8.46,8.46,0,0,0-8,5.29c-.85-.35-1.7-.69-2.57-1a19.15,19.15,0,0,0-2.88-.78l-.39-.06a.53.53,0,0,0-.1-.12,45.4,45.4,0,0,1-4.09-4.46c.81-.43,1.61-.88,2.4-1.36a7.51,7.51,0,0,0,3.15-2.25,11.91,11.91,0,0,0,2-3.42,11.31,11.31,0,0,0,1.3-1.84c-.16.14,2-4.86.78-2.15a25,25,0,0,0,1.76-4.5,9.49,9.49,0,0,0,2.86-6.46v-.16a35.71,35.71,0,0,0,.57-4.15,9,9,0,0,0-2.64-6.36,9.44,9.44,0,0,0-5.55-2.62,8.64,8.64,0,0,0-5.71,1.07c-1.84,1.19-3.78,3.12-4.13,5.38-.14.87-.27,1.74-.41,2.6a16.54,16.54,0,0,0-2.18,5.06c-.1.44-.18.89-.27,1.34a1.91,1.91,0,0,0,0,.21c-.08.16-.18.32-.28.49a9.59,9.59,0,0,0-2.78,3.55,32.9,32.9,0,0,0-6,3.6,9.44,9.44,0,0,0-1.32-.09c-11.3,0-11.58,17.12-.82,18,.32.74.67,1.45,1,2.12a41.17,41.17,0,0,0,8.47,10c3.81,3.45,8.11,3.47,12.44,5.67a9.13,9.13,0,0,0,4.84,1,27.51,27.51,0,0,1-.7,7.83c-.92,3.59-.9,7.12-1.28,10.56A12.29,12.29,0,0,0,673.2,613c-.33.82-.63,1.64-.92,2.47a15.23,15.23,0,0,0-4.32,9.95,12.7,12.7,0,0,0-6.52,6.51q-2,4.56-3.94,9.12c-.06.14-.13.28-.2.42l-.59.26a108.85,108.85,0,0,0-16.11,9.39l-.26.2a17.63,17.63,0,0,0-2.14-.27,12.78,12.78,0,0,0-2.67.35l-.15.05-.23,0a10.55,10.55,0,0,0-6.2,1.09,6.78,6.78,0,0,0-2.53,2.31,6.85,6.85,0,0,0-1.61,3.06c-.11.8-.21,1.6-.32,2.4,0,.15,0,.29,0,.44a9.12,9.12,0,0,0-.07,4.73,13.8,13.8,0,0,0,.58,1.75,51.48,51.48,0,0,0-.28,13.2A30.39,30.39,0,0,0,627,689c.13,2.15.4,4.32.72,6.46a12.8,12.8,0,0,0-.91,5,9.33,9.33,0,0,0,2.64,6.36,9.56,9.56,0,0,0,2.87,1.92,13.08,13.08,0,0,0,3.11,2.81,8,8,0,0,0,3.65,1.16,8.1,8.1,0,0,0,4.8,0,9.45,9.45,0,0,0,3.23-1.78l.43-.18a9.72,9.72,0,0,0,1-.55,11.19,11.19,0,0,0,4.81-6.21,8.27,8.27,0,0,0,.19-.83,5.06,5.06,0,0,0,3.21-1.52,4.44,4.44,0,0,0,1.4-1.17,40.35,40.35,0,0,0,3.42-4c1.22-1.41,2.45-2.82,3.67-4.24a69.52,69.52,0,0,0,7.51-8.83c4.29-6.2,7.72-13.15,11.35-19.8.48-.78.94-1.56,1.35-2.37a13.25,13.25,0,0,0,2.88-3.37,4.47,4.47,0,0,0,.33-3.75c.71-1.67,1.4-3.35,2.12-5a24.34,24.34,0,0,0,1.48-4.81,6,6,0,0,0,1.61-3,2.23,2.23,0,0,0,0-.23,4.75,4.75,0,0,0,.38-1.32,4.25,4.25,0,0,0,.88-1.52c.12-.35.22-.71.33-1.06a3.5,3.5,0,0,0,.52-.5c.24-.31.46-.62.68-.93l0,0,.06-.13a11.85,11.85,0,0,0,2.11-5.56,37.88,37.88,0,0,0,1.47-7.69,41.43,41.43,0,0,0,1.38-6.13c.81-2,1.72-3.94,2.45-6A70,70,0,0,0,707.35,598c0-.09,0-.18,0-.26,1-1.56,1.89-3.21,2.83-4.87a73.94,73.94,0,0,1,7.09-9.77c3.6-4.44,5.76-9.14,5.69-14,.09-.22.19-.43.28-.65a6,6,0,0,0,2.55.54,5.45,5.45,0,0,0,4.64-2.28s0,0,.07-.07C732.6,564.59,733.1,560.21,730.54,558.22Z" transform="translate(-441.75 -165.67)"/><path class="cls-5" d="M772.27,700.89a12.22,12.22,0,0,1,.92,8.22A47.74,47.74,0,0,0,776.36,724c.22,1.24.41,2.49.59,3.75.57,13.75,3.34,27.44,2.49,41.27a7.71,7.71,0,0,0,.06,1.46c6.2-.24,12.39-.14,18.63-.41a18.29,18.29,0,0,1,6.09.82c9.16-.45,18.32-.66,27.48-.75-.82-2.4-2.37-4.59-3.55-6.86.35-6.5-2.69-12.62-4.42-19-1.12-4.1-1.31-8.22-2.16-12.35a20.13,20.13,0,0,0-1.09-3.67c.11-4.51.4-9,.14-13.63a60.38,60.38,0,0,0-.63-6.14,2.3,2.3,0,0,0,.76-1.75c0-2.74.44-5.7.06-8.42-.4-2.87-2.41-3.15-4.88-3.06a2.36,2.36,0,0,0-1.92,1,6.79,6.79,0,0,0-.92-.51c-3.35-1.49-7.81-1.13-11.43-1.23-3.23-.09-6.45-.08-9.68,0a9.27,9.27,0,0,0-1.43-.25,34.88,34.88,0,0,0-13.32,1.33A6.85,6.85,0,0,0,775,696.7a2.49,2.49,0,0,0-3.19,3.8Z" transform="translate(-441.75 -165.67)"/></g><g id="Réteg_16" data-name="Réteg 16"><path class="cls-2" d="M670.66,426.23c-4.5,0-4.51,7,0,7S675.17,426.23,670.66,426.23Z" transform="translate(-441.75 -165.67)"/><path class="cls-2" d="M720.49,424.4c-4.51,0-4.51,7,0,7S725,424.4,720.49,424.4Z" transform="translate(-441.75 -165.67)"/></g><g id="Réteg_6" data-name="Réteg 6"><path class="cls-6" d="M818.82,690.62,819,689a5.87,5.87,0,0,0-.81-3l-.2-.39a4.11,4.11,0,0,0-.68-1c0-.29.08-.58.1-.87,2.95-6,1.48-12.71-.29-19.08a7.73,7.73,0,0,0,.39-3.11,114.33,114.33,0,0,1-.25-16.24c.33-5.32,1.14-10.1.32-15.41a7.21,7.21,0,0,0-1-2.74c.12-1.33.24-2.65.25-4,.1-8-2.25-16.32-3.78-24.18a8.63,8.63,0,0,0-1.15-2.93h0c.37-4.11-2.7-7.77-6.43-9.27a16.22,16.22,0,0,0-3-3.57,23.7,23.7,0,0,0-5.57-4.93c-.2-.19-.4-.39-.62-.57-2.42-2-5.08-3.72-7.67-5.5a9,9,0,0,0-7.2-1.1h0c-3.1-2.08-7.46-2.8-11-2.94-2.83-.12-5.46.18-8.2.07A87.65,87.65,0,0,0,744,565.54a7.09,7.09,0,0,0-.69-.49,10.73,10.73,0,0,0-5.46-1.6,6.22,6.22,0,0,0-2.6-1.05,5.61,5.61,0,0,0-2.61-.63,6,6,0,0,0-4.21,1.75c-.09.1-.16.22-.25.33a5.15,5.15,0,0,0-2.27,2h0a5.84,5.84,0,0,0-1,1.36,5.32,5.32,0,0,0-.54.75,6.29,6.29,0,0,0-.77,3.74,6.79,6.79,0,0,0,0,1c-.17.27-.34.54-.5.81a45.53,45.53,0,0,0-2.93,6.21,17.36,17.36,0,0,1-1.64,1.83,9.32,9.32,0,0,0-3,5.77,38.92,38.92,0,0,0-4.58,6.14,36.76,36.76,0,0,0-5.23,19.85,6.79,6.79,0,0,0-.37,1.24,10.85,10.85,0,0,0-.89,3.17,10,10,0,0,0-1.66,3.69q-.79,3.45-1.62,6.88a27.37,27.37,0,0,0-4.2,12c-5.6,10-9.94,20.46-14.21,31a78.1,78.1,0,0,0-4.72,7.8c-.26.49-.51,1-.75,1.49-5.83,7-11.13,14.5-16.5,21.87a39.14,39.14,0,0,0-9.69,6.06,24.18,24.18,0,0,1-3.81,3.31c-1.12.68-2.37,1.09-3.48,1.83a18.92,18.92,0,0,0-3.46,3c-.81.23-1.41.41-1.61.49a14.42,14.42,0,0,0-2.22,1.12,35.13,35.13,0,0,0-4-1.39l0-.12a17.89,17.89,0,0,0-1.53-3.89c-.11-.19-.23-.37-.35-.55-.53-2.47-1.09-4.93-1.72-7.38a16.31,16.31,0,0,0-2.56-5.41l-.16-1.85a12,12,0,0,0-1.77-5.38c-.44-10.65-.21-21.32.09-32a33.14,33.14,0,0,0-.85-8.25,72.92,72.92,0,0,0,7.87-2.24,8.25,8.25,0,0,0,4.87.31,7.54,7.54,0,0,0,1.35.07l2.66-.35a10.07,10.07,0,0,0,4.41-2.58l1.19-1.23a14.12,14.12,0,0,0,6.36-3.31,22.4,22.4,0,0,0,2.16-2.4,14.36,14.36,0,0,0,6-6.17,22.91,22.91,0,0,0,2.45-3.71,11,11,0,0,0,.68-1.59,31.86,31.86,0,0,0,4.65-7.69,49.36,49.36,0,0,0,2.33-7.59,9.67,9.67,0,0,0,1.83-3.62c.68-2.51.25-5.15.9-7.65a4,4,0,0,0,.12-1.35,10.88,10.88,0,0,1,.9-2,4.12,4.12,0,0,0,.56-1.68c.46-2.25-.78-4.92-3.76-4.92a4.79,4.79,0,0,0-.78.08c-1.77-2.23-4.59-3.75-8.61-4.06-.56-.2-.94-.33-1.18-.39l-.57-.62c-1.44-1.93-3.36-3.13-5.24-4.59-2.12-1.65-3.13-2.43-3.77-5.23a9,9,0,0,0-3.57-5.57c-.52-2.55-1.13-5.08-1.9-7.58-.09-1.34-.14-2.69-.13-4a4,4,0,0,0-4-4A4.15,4.15,0,0,0,638,558.5l-.28.14a3.58,3.58,0,0,0-2.1,0,4.12,4.12,0,0,0-1.5.86l-.11,0c-2.47-.56-5.57-.55-7.71,1-.81.6-1.61,1.2-2.4,1.82l-.3,0c-3.8.71-7.61,1.61-11.34,2.62a81.92,81.92,0,0,0-22.41,10.33c-2.93,1.86-5.84,3.7-8.65,5.67a7.65,7.65,0,0,0-3,1.28,72.87,72.87,0,0,0-26,33.43,11.09,11.09,0,0,0-2.34,4q-1,2.93-2.07,5.81a33,33,0,0,0-2.15,4.44,13.38,13.38,0,0,0-1,4c-.08.74-.15,1.49-.23,2.23a45.08,45.08,0,0,0-2.58,6.73,20.85,20.85,0,0,0,.07,8.18,116.12,116.12,0,0,0-1,28.46,12.86,12.86,0,0,0,.51,2.57,176.41,176.41,0,0,0,.55,28.26c1.17,10.38,3.1,20.61,4.88,30.9q.52,3.11,1,6.22a12.1,12.1,0,0,0-.45,2.68,13.2,13.2,0,0,0,1.09,5.67,12,12,0,0,0-.64,5.16c.12,1.12.24,2.23.37,3.34A33.39,33.39,0,0,0,549,769a15.29,15.29,0,0,0,.47,3.37q49.77,0,99.53.48c37.27.38,74.77,1.53,112.06.26a13.41,13.41,0,0,0-.16-3,35.21,35.21,0,0,1,.11-10.65c.58-4.15.11-8.76,1-12.7,2-8.55,4.07-16.6,4.88-25.37a19.36,19.36,0,0,0,1.42-3.35,21.84,21.84,0,0,0,.78-5.75c0-.46,0-.93,0-1.4a9.34,9.34,0,0,0,1.94-5.67c0-2.92,0-5.84-.07-8.75a7.54,7.54,0,0,0,2.93-.84,7.37,7.37,0,0,0,2.89-1.76l17.19-.63a83.56,83.56,0,0,0,10.67-.74,10.43,10.43,0,0,0,3.16.47c.26,0,.5,0,.74,0a6,6,0,0,0,5.74,1.93,2.18,2.18,0,0,0,1.94,1,2.93,2.93,0,0,0,2.88-2.88,2.13,2.13,0,0,0-.55-1.55A5.1,5.1,0,0,0,818.82,690.62Z" transform="translate(-441.75 -165.67)"/><path class="cls-5" d="M684.4,651.75a6.06,6.06,0,0,0-7.78,1.63,6.28,6.28,0,0,0-2.65,4l-2.5,3.78A5.93,5.93,0,0,0,673,668.8h0a6.5,6.5,0,0,0-8.14,3.63c-.28.69-.57,1.38-.86,2.08-.67.83-1.39,1.63-2,2.44-1,1.27-2.25,3.37-3.44,4.23-2.38,1.72-3.64,4.63-2.5,7.38-2.89,3-6.68,4.73-9.29,7.91a6.35,6.35,0,0,0-1.24,2.44,7.12,7.12,0,0,0-1.5-1.09,6.73,6.73,0,0,0-3.35-1.07,7,7,0,0,0-3.59.16,9.14,9.14,0,0,0-5.37,4.14l-.91,2.15a9.57,9.57,0,0,0-.26,1.38,7.31,7.31,0,0,0-.28,1.63,8.13,8.13,0,0,0,1.46,6.27c-.46,2.51.95,5.43,4.26,5.43a4.12,4.12,0,0,0,3.32-1.49,7.14,7.14,0,0,0,2.19-.33l2.15-.91a9,9,0,0,0,3.23-3.23,8.37,8.37,0,0,0,1.31-3.09,13.43,13.43,0,0,0,.34-2.81,4.79,4.79,0,0,0,6.66-1.16c1.76-2.16,4.46-3.37,6.58-5.19a36.76,36.76,0,0,0,5.75-6.45,63.7,63.7,0,0,0,7-13.06,12.26,12.26,0,0,0,2.29-5.64,3.06,3.06,0,0,0,0-.6,4.46,4.46,0,0,0-1.85-4.19,5.62,5.62,0,0,0,5.89-1.44,27.41,27.41,0,0,0,3.1-4.08,12.62,12.62,0,0,0,.74-1.53l1.88-2.83A6,6,0,0,0,684.4,651.75Z" transform="translate(-441.75 -165.67)"/><path class="cls-5" d="M628.92,649.05c-5.79,0-5.8,9,0,9S634.72,649.05,628.92,649.05Z" transform="translate(-441.75 -165.67)"/></g><g id="Réteg_7" data-name="Réteg 7"><path class="cls-7" d="M745.16,689c-.63-10.12-2.7-23.68-11.24-30.16a17.92,17.92,0,0,0-2.28-4.38,11.61,11.61,0,0,0-8.62-5,10.73,10.73,0,0,0-2.1-1,8.63,8.63,0,0,0-2.58-1.79,11.25,11.25,0,0,0-7-2.85l-1.05.15a111.47,111.47,0,0,0-14.12-4.15l-.36-.06-.69-.45a20.5,20.5,0,0,1-2.6,7.51l-.19.24a45,45,0,0,1-3.91,8.21,10.85,10.85,0,0,1-.55,3,9.26,9.26,0,0,1-2.31,3.67,8.6,8.6,0,0,1-1.34,2.25,4.36,4.36,0,0,1-.11.52,8.07,8.07,0,0,1-1.54,3.9,8.15,8.15,0,0,1-.87,1.12,16.51,16.51,0,0,1-1.88,3.24,10.46,10.46,0,0,1-1.56,3.6l-.12.13c-.06.1-.1.21-.16.3a7.78,7.78,0,0,1-2.45,3.29l-.34.34-.1.15c-.13.31-.26.61-.4.91a12.72,12.72,0,0,1-3.38,5.83l-.09.13a10.46,10.46,0,0,1-3.1,2.94,12.78,12.78,0,0,1-3.55,4.57c-.09.08-.19.14-.29.22-.51,1-1,2-1.58,3a7.89,7.89,0,0,0-2.18,1.71l-4.74,5.23a11.15,11.15,0,0,0-7.62,5.72A11.32,11.32,0,0,0,646,713.7a1.43,1.43,0,0,0-.61-.14,1.54,1.54,0,0,0-1.5,1.5,8.83,8.83,0,0,0,.22,2.94,1.24,1.24,0,0,0,.35.62,9.07,9.07,0,0,0,4.78,8.67,14.5,14.5,0,0,0,1.67.84,9.66,9.66,0,0,0,4.27,5.54c2.44,1.56,3.95,5,6.47,6.77a33.79,33.79,0,0,0,6.35,3.35,39.42,39.42,0,0,0,8.76,4.61c9.88,3.63,21.8,2.28,31.89.35a8,8,0,0,0,3.91-2c.29-.12.57-.25.85-.39,4-2.07,7.39-5.19,10.75-8.17a18.63,18.63,0,0,0,3.92-4.76,22.64,22.64,0,0,0,2.44-1.92,15.26,15.26,0,0,0,4.75-8c.33-.38.65-.78,1-1.2a46.22,46.22,0,0,0,6.54-15.94C744.07,700.75,745.53,694.71,745.16,689Z" transform="translate(-441.75 -165.67)"/></g><g id="Réteg_11" data-name="Réteg 11"><path class="cls-8" d="M726.27,696.47c-.92-20.59-16.7-38-38-38-.59,0-1.17,0-1.76,0a31.62,31.62,0,0,1-2.19,6.17,79.36,79.36,0,0,1-8.26,14,18.81,18.81,0,0,1-1.89,4.25,15.62,15.62,0,0,1-3.62,5c-.31.3-.65.61-1,.92a21.27,21.27,0,0,1-4,4.29c-1.3,3.24-2.83,5.18-5.43,8.26a34.47,34.47,0,0,1-7.57,6.43l-.14.09c5.1,15.16,18.67,26.47,35.84,26.47C708.15,734.47,727.19,717,726.27,696.47Z" transform="translate(-441.75 -165.67)"/></g><g id="Réteg_15" data-name="Réteg 15"><path class="cls-8" d="M529.85,523c-.27-1.84-1.52-2-2.9-2.39a1.56,1.56,0,0,0-.94-.4,3.52,3.52,0,0,0-2.07-1.87c-3.57-1.19-5.84,2.21-6.8,5.1a1.28,1.28,0,0,0,.23,1.25c-.87,2-.68,4.33,1.82,5.19h0a1.24,1.24,0,0,0,.7,1.34,4,4,0,0,0,2,.35,2.38,2.38,0,0,0,1.7.07l.14-.07a1.41,1.41,0,0,0,1.67.15c2-1.05,3.07-3.26,3.53-5.4a4.77,4.77,0,0,0,.11-1.06A2.7,2.7,0,0,0,529.85,523Z" transform="translate(-441.75 -165.67)"/><path class="cls-9" d="M509.72,377a1.51,1.51,0,0,0,.41-2.08,2,2,0,0,1-.34-1.14c0-1.39.41-3.23,3.91-3.23,4.28,0,4.85,1.83,4.85,3.62,0,2.54-2.31,4.93-4.35,7-1.88,1.94-3.5,3.61-3.5,5.52a10.53,10.53,0,0,0,1,3.75c.19.47.39,1,.55,1.45a1.49,1.49,0,0,0,1.42,1,1.59,1.59,0,0,0,.48-.07,1.51,1.51,0,0,0,1-1.9c-.19-.55-.4-1.09-.61-1.62a8.24,8.24,0,0,1-.77-2.63c0-.69,1.53-2.28,2.65-3.44,2.32-2.39,5.2-5.37,5.2-9.12,0-2.47-1-6.62-7.85-6.62-4.32,0-6.91,2.33-6.91,6.23a5,5,0,0,0,.85,2.81A1.5,1.5,0,0,0,509.72,377Z" transform="translate(-441.75 -165.67)"/><path class="cls-9" d="M515.73,407.15a3,3,0,0,0,3.1-3,3.5,3.5,0,0,0-2.06-3.08,1.63,1.63,0,0,0-.2-.45,1.5,1.5,0,0,0-2.08-.41,3.78,3.78,0,0,0-.72.59,1.51,1.51,0,0,0-1.16,1.46,1.62,1.62,0,0,0,.07.44,4.54,4.54,0,0,0-.15,1.18A3,3,0,0,0,515.73,407.15Zm-.2-3.35a.68.68,0,0,1,.33.33,1.41,1.41,0,0,1-.31,0,1.61,1.61,0,0,1,0-.26Z" transform="translate(-441.75 -165.67)"/></g><g id="Réteg_12" data-name="Réteg 12"><path class="cls-7" d="M665.14,726.57c-1.89-3.53-3.93-5.47-4.73-9.6a60.55,60.55,0,0,1-.95-13.44c.51-.55,1-1.1,1.47-1.66-.54.31-1.1.59-1.67.85a22,22,0,0,1-9.7,7,73.06,73.06,0,0,0,1.2,9.87,25.08,25.08,0,0,0,1.84,6.19c1,2.15,2.79,3.72,3.91,5.8C659.55,737.29,668.19,732.25,665.14,726.57Z" transform="translate(-441.75 -165.67)"/></g><g id="Réteg_9" data-name="Réteg 9"><path class="cls-7" d="M693.86,333.29a13.18,13.18,0,0,0-17.79-4.66c-.67.4-1.34.79-2,1.14-.24.11-.78.35-1,.44-2,.66-3.94,1.24-5.92,1.83a66.47,66.47,0,0,0-12.7,5c-5.65,3-7.82,10.54-5.32,16.23,2.67,6.07,8.85,9,15.34,7.53l13.09-2.93c4.86.29,10.12-1.73,12-6.28l.3-.71c0-.11.09-.22.14-.34A13.23,13.23,0,0,0,693.86,333.29Z" transform="translate(-441.75 -165.67)"/><path class="cls-10" d="M767.55,314.79c-.29.29-.58.56-.88.84a11.09,11.09,0,0,0-4.38-.19l-5.51.4a20.79,20.79,0,0,0-2.88.37,11.58,11.58,0,0,0-4.17-2.52,9.36,9.36,0,0,1-8.54.54l-5.69,2c-1.28-.15-2.56-.28-3.83-.41a12.83,12.83,0,0,0-2.6-.24h-.39a80.73,80.73,0,0,0-14,.08c-.52.06-1,.14-1.55.24-10.63.47-21.41,1.22-31.66,4.13l-1.38.42a97.61,97.61,0,0,0-21.51,5.15c-16.79,6.1-32.36,16.49-40.63,32.81a15,15,0,0,0-1.53,5.3c-.24.49-.49,1-.72,1.48l-.13.27a5,5,0,0,0-1.72,3.5l0,.73c-.11.34-.22.68-.31,1a12.42,12.42,0,0,0-.36,4.68c-1.45,4.82-1.14,10.34-.71,15.39.87,10.46,2.15,20.87,3.74,31.24a4,4,0,0,0,2.25,3.23c0,1.33,0,2.67,0,4a4.84,4.84,0,0,0,.54,2.4h0l-.26,0c-.53,0-.64.68-.25.93a33,33,0,0,0,3.7,2.33c2.56,1.9,6,3.13,8.75,2.77.52-.06.73-.83.13-1l-.48-.13a.61.61,0,0,0,.06-.35.47.47,0,0,0,.17-.47.48.48,0,0,0,0-.42l0-.06a.53.53,0,0,0-.37-.84l-.12,0a2.35,2.35,0,0,0,.27-.86,2.53,2.53,0,0,0-.46-1.8c-.11-1.94-.22-3.87-.32-5.81a2.4,2.4,0,0,0-1.34-2.09v-.11a5,5,0,0,0,1.16-3.06c.21-5,.29-9.82,1.78-14.64,1-3.22,2.13-6.39,3.28-9.56a10.91,10.91,0,0,0,5.73-7.52,14.54,14.54,0,0,1,1.28-3.62l.11-.08c15.95-12.07,36.1-13.59,55.07-17.58,3.6-.76,7.16-1.68,10.71-2.64.76-.12,1.53-.23,2.29-.36.56-.1,1.1-.21,1.63-.33a44.52,44.52,0,0,0,5.8-.84c5-1.11,9.53-2.72,14.48-3.21a15.73,15.73,0,0,0,8.78-3.66c.68-.22,1.34-.47,2-.73.2,1.2.43,2.39.74,3.57a28.21,28.21,0,0,0,1.53,4.27c.28.66,1.32,2.13,1.34,2.72a4.75,4.75,0,0,0,3.41,4.55q1.9,4.23,3.88,8.43a35.22,35.22,0,0,0,2.15,8.11,66.1,66.1,0,0,0,1,9.78,4.45,4.45,0,0,0,1.22,2.47,5,5,0,0,0,.77,2.14c1.09,3.84,2,7.79,1.41,11.79-.5,3.15,4.32,4.5,4.82,1.33a25.29,25.29,0,0,0,.23-5.54,2.68,2.68,0,0,0,3-2.38,45,45,0,0,0-.27-10.44,1.75,1.75,0,0,0-.36-.85c0-.12,0-.25,0-.38a4.35,4.35,0,0,0,.37-1.91c0-.17,0-.34,0-.5a5.67,5.67,0,0,0,0-.71q-.09-3.41-.25-6.8c.88-5.05-.6-11.71-1.2-15.26a4,4,0,0,0-1.41-2.5c-.12-.89-.26-1.77-.43-2.65-1.38-7-4.59-13.54-8-19.83a11.22,11.22,0,0,0,1.27-4.44,12.42,12.42,0,0,0,6.34-9.44l1.78-2.76a15.38,15.38,0,0,0,2.53-3.88,5.92,5.92,0,0,0,2-3.92l0-.27a3.39,3.39,0,0,0-.14-1.39l.88-.83C773.38,316.06,769.84,312.52,767.55,314.79Z" transform="translate(-441.75 -165.67)"/></g><g id="Réteg_8" data-name="Réteg 8"><path class="cls-11" d="M699.61,702.38a1.87,1.87,0,0,0-.83-.71,3.29,3.29,0,0,0-1.57-1.53,5.29,5.29,0,0,0-2.07-3.52,5.64,5.64,0,0,0-2.47-3.11,7.45,7.45,0,0,0-1.53-.59l-.77-2.69a1.51,1.51,0,0,0-3,.4v.29a1.86,1.86,0,0,0-.2.14c-1.82,1.68-2.62,4.28-3.87,6.37a7.52,7.52,0,0,0-1.12,4.19,1.59,1.59,0,0,0-.86,2.58c.72.81,1.15.54,1.87.61a1.53,1.53,0,0,0,1.53.31,1.33,1.33,0,0,0,.84.53c.18.09.35.19.54.27a5.86,5.86,0,0,0,3.54.28,5.65,5.65,0,0,0,2.3.46,5.07,5.07,0,0,0,4-1.79l.26-.07c1.36.38,2.63.28,3.31-.91A1.49,1.49,0,0,0,699.61,702.38Z" transform="translate(-441.75 -165.67)"/><path class="cls-11" d="M538.42,436.21a11.17,11.17,0,0,0,0-6.2c-.8-2.18-3.16-3.75-4.78-5.27a1,1,0,0,0-1.48.14l-.14-.1c-.42-.25-.86-.47-1.3-.7a9.57,9.57,0,0,0-6.23-2.81,6.28,6.28,0,0,0-.75,0c-4.55-1.22-10.35-.12-14.13,1.9a15.59,15.59,0,0,0-8,13.53,18.41,18.41,0,0,0,7.46,14.71,18.12,18.12,0,0,0,3.64,2.07,7.31,7.31,0,0,0-1.64,1.07,15.49,15.49,0,0,0-4.56,7.4c-2.18,2.49-3.34,5.65-4.56,8.89-1.78,4.74.81,8.91-.42,13.66-1.59,6.15,6,9.36,9.75,6.07,2.12-.15,4.25-.27,6.37-.39l2.18,0,6.88.15a6.28,6.28,0,0,0,2-.28,5.19,5.19,0,0,0,2.73-.11c.18-.06.34-.14.51-.21a4.11,4.11,0,0,0,1.55.3,3.94,3.94,0,0,0,1.89-.46l1.41,0a1,1,0,0,0,.34-1.93A3.69,3.69,0,0,0,537,484c-.22-.37-.42-.75-.62-1.13,1.64-4.17-.25-10.19-1.57-14.86.12-1.2.2-2.4.21-3.62a6.11,6.11,0,0,0-2.76-5c-.15-.57-.3-1.15-.47-1.73a6.41,6.41,0,0,0-.68-1.47c0-.34-.09-.68-.15-1a6.92,6.92,0,0,0-.28-1.11,17.7,17.7,0,0,0,2-1.94l.29-.1a1,1,0,0,0,.66-1.09l0,0A16.7,16.7,0,0,0,536,445.3c.07-.16.13-.31.19-.47a7.89,7.89,0,0,0,1.4-2.09,9.2,9.2,0,0,0,.37-5.91A.9.9,0,0,0,538.42,436.21Z" transform="translate(-441.75 -165.67)"/><path class="cls-11" d="M485,475.72a7.9,7.9,0,0,0,.41-3.64c-.4-3.51-3.39-6.2-4.28-9.24A5.77,5.77,0,0,0,479.4,460c0-.14,0-.28,0-.42a5.86,5.86,0,0,0,2.51-2.1,9.79,9.79,0,0,0,.87-1.63c3.69-3.37,3.16-9.1,0-13.16-.07-.09-.15-.15-.22-.23a5.49,5.49,0,0,0-.4-.43l-.06-.06a6.23,6.23,0,0,0-1.43-1,1,1,0,0,0-.42-1.62l-3.24-.74a.94.94,0,0,0-1.08.47c-3.22-.86-7.33-.54-9.64,2a8.09,8.09,0,0,0-1.86,5.37,9.54,9.54,0,0,0-.62,2.32,8.66,8.66,0,0,0,1.33,6,6.16,6.16,0,0,0,2.68,3.8c0,1.23,0,2.45-.09,3.64a5.16,5.16,0,0,0-2.13,2.53,11.87,11.87,0,0,0-2.82,7.22l0,0a6.56,6.56,0,0,0-1.51,2.61,6.13,6.13,0,0,0,.6,4.59,6,6,0,0,0,3.56,2.73l1.58.22h0a5.88,5.88,0,0,0,3.42-.39,16,16,0,0,0,3.64.72,7.77,7.77,0,0,0,4.56-1.16,13,13,0,0,0,1.44-.55,4.22,4.22,0,0,0,1.27.21l.24,0a1.43,1.43,0,0,0,1.63.19l.09,0h.1a1,1,0,0,0,.84-1.48A4.36,4.36,0,0,0,485,475.72Z" transform="translate(-441.75 -165.67)"/><path class="cls-11" d="M580,472.59a6.52,6.52,0,0,0-1.13-5.61,20.52,20.52,0,0,0-1.18-5.22,6.73,6.73,0,0,0-3.61-3.92,15.29,15.29,0,0,0,4-6.19.87.87,0,0,0-.58-1.14,13.13,13.13,0,0,0,.65-1.3,4.75,4.75,0,0,0-1.73-6,6.48,6.48,0,0,0-1.62-4.84c-2.67-3.2-7.14-3.51-10.91-2.38-2.86.85-5.75,2.46-7.07,5.08h0a6.75,6.75,0,0,0-.73,2.63,11,11,0,0,0,1,4.83,1.1,1.1,0,0,0-.14.42c-.41,3.14.32,6.24,3,8.16a.88.88,0,0,0,1.38-.51l.18.12a2.16,2.16,0,0,1-.05.27,6.38,6.38,0,0,0-1.1,1.41,29.27,29.27,0,0,0-2.16,4.88,1.55,1.55,0,0,0-2.46,1.16c0,.52-.51.95-.82,1.33a6.41,6.41,0,0,0-1,1.64,3.11,3.11,0,0,0,.52,3.49,2.56,2.56,0,0,0,1.06.6,10,10,0,0,0-.1,2.33,5.07,5.07,0,0,0,.35,1.43,1,1,0,0,0,.6,1.78,1,1,0,0,0,.53-.16,3.45,3.45,0,0,0,2.52.95,4.64,4.64,0,0,0,2.82-1.19h.36a7,7,0,0,0,.49.59,32.68,32.68,0,0,1,6.61-.69,23.86,23.86,0,0,1,4.35.4l.1-.05h.41a5.91,5.91,0,0,0,2.89-.7.76.76,0,0,0,.19.12.91.91,0,0,0,.84.52h.49a1,1,0,0,0,.92-1.3,1.56,1.56,0,0,0,.08-.42,1.46,1.46,0,0,0,.79-1.3A1.59,1.59,0,0,0,580,472.59Z" transform="translate(-441.75 -165.67)"/></g><g id="color"><g class="cls-12"><path class="cls-13" d="M716.91,547.25c.3-2.34-3-2.72-4.08-1.11-3,4.46-4.26,8.52-2.28,13.67s2.72,9.26.26,14.42a6.08,6.08,0,0,0-.28,4.91,90.4,90.4,0,0,0-6,11,173.38,173.38,0,0,0-9.23,26c-5.18,18.19-9.7,36.35-19.5,52.74a5,5,0,0,0-.59,1.42c-2.27,2.87-4.59,5.67-6.92,8.38a113.15,113.15,0,0,1-16.88,16.52,65,65,0,0,1-10,6.19c-.14-.2-.29-.39-.42-.59-.67-1-1.29-1.94-1.89-2.93a85,85,0,0,1-4.11-7.64,74.38,74.38,0,0,1-5.47-16.12c-.62-2.84-4.68-2-4.85.66a56.61,56.61,0,0,0,3.8,25.5c.59,1.43,1.32,3.14,2.19,4.86a5.87,5.87,0,0,0-1,.2c-11.79,3.55-22.88,4.52-34.73.41a53,53,0,0,1-13.63-7.34c-4.66-3.42-8.39-7.83-12.92-11.36a2.37,2.37,0,0,0-3.92,2.28,23,23,0,0,0,1.36,4.95,1.62,1.62,0,0,0-1.26,2c1.13,5.2,4.38,9.81,7.26,14.21a52.65,52.65,0,0,0,11.6,13.2,46.78,46.78,0,0,0,11.62,6.53A70.09,70.09,0,0,0,608,735.18c9.56,2.74,21.73,2.77,30.3-3,8.22-1.39,15.55-5.93,22.07-11.77a3.72,3.72,0,0,0,1.33-3.62l.49-.41c10-5.31,18.41-13.69,24.62-23.09,4.19-6.33,8.59-14.87,10.39-23.39a46,46,0,0,0,3.11-7.66c.18.1.37.21.56.3,9.79,4.6,18.22,11.37,22.38,21.65a38.12,38.12,0,0,1-2.66,33.26c-5.68,9.59-16.09,16.53-27.29,17.27-10.9.73-21.92-4.66-29.66-12.09a1.8,1.8,0,0,0-3,1.73c3.64,14.17,17.12,22,31.15,22.77,15.53.81,30.49-8.35,39-20.92,17.82-26.34,5.6-65.42-24.94-75.49a5.89,5.89,0,0,0-2.27-.29,65.71,65.71,0,0,1,12.53-23.75,50.31,50.31,0,0,0,4.73-3.79c2.88-2.69,5.15-6.6,4-10.66s-5.48-8-9.46-9.16l-.16,0a1.72,1.72,0,0,0-1.12-.53,3.39,3.39,0,0,0-3,1.45,2.11,2.11,0,0,0-1.58.81c-2.83,3.49-4.34,8.1-6,12.26q-.94,2.34-1.87,4.7c.28-1.2.55-2.39.83-3.58,2.22-9.41,4.66-18.9,8.38-27.85a59.76,59.76,0,0,1,3.92-7.32,5.26,5.26,0,0,0,5-1.14,6.66,6.66,0,0,0,1.31-1.57,21.12,21.12,0,0,0,2.9-12.09,19.67,19.67,0,0,0-.78-4.45,20,20,0,0,0-3.58-6.85C717,553.58,716.37,551.48,716.91,547.25ZM627.63,719.38a49.28,49.28,0,0,0,6.91-2.55,5.4,5.4,0,0,0,1.92-1.43c1.35-.29,2.68-.65,4-1.06A57.74,57.74,0,0,1,627.63,719.38Zm49-33.72a73.86,73.86,0,0,1-10.29,11.14,130.4,130.4,0,0,0,8.7-10.14c2.2-2.83,4.33-5.71,6.36-8.65l.12.19A82.52,82.52,0,0,1,676.67,685.66Z" transform="translate(-441.75 -165.67)"/><path class="cls-13" d="M623.82,648.83c0,2.35,1.54,4.49,4.49,4.1,15.29-2,31.27-10.83,37.16-25.83.82-2.09-2.18-3.51-3.61-2.1-6.08,6-12.4,11.25-19.74,14.65a4.52,4.52,0,0,0-4.56-1,33.31,33.31,0,0,1-20,0c-6-2-10.21-5.91-14.72-10.11a1.38,1.38,0,0,0-2.29,1.34C604,640.31,613.47,646.75,623.82,648.83Z" transform="translate(-441.75 -165.67)"/><path class="cls-13" d="M695.75,697.58a3.35,3.35,0,0,0-4.2-3.2,18.56,18.56,0,0,0-9.44,6.56c-1.73,2.27,1.94,4.9,3.88,3a12.06,12.06,0,0,1,2.5-1.9,7.62,7.62,0,0,0,2,4.77c2.55,2.7,6.83,3.47,9.51.52,3.14-3.45-.37-7.76-4.29-6.72l0-.05A18.3,18.3,0,0,0,695.75,697.58Z" transform="translate(-441.75 -165.67)"/><path class="cls-13" d="M774.47,735.66c1.3,12,1.72,24.37,4.1,36.2h9.55c-1.7-12.48-5.91-24.73-9.47-36.77C778,732.89,774.2,733.19,774.47,735.66Z" transform="translate(-441.75 -165.67)"/><path class="cls-13" d="M713.52,515c-4.4,2.46-7.89,7.5-9.22,12.3-.93,3.34,3.83,4.45,5.06,1.39a12.34,12.34,0,0,1,2.9-4.3,11.92,11.92,0,0,1,4.27-2.25,3.9,3.9,0,1,0-3-7.14Z" transform="translate(-441.75 -165.67)"/><path class="cls-13" d="M690.93,525.62a16.32,16.32,0,0,1,3.26-5.07c1.49-1.49,3.28-2.51,4.88-3.87,3.28-2.79-1-8.38-4.62-6-4.2,2.79-6.74,8.34-7.75,13.15C686.2,526.23,689.81,528.15,690.93,525.62Z" transform="translate(-441.75 -165.67)"/><path class="cls-13" d="M680.63,519.8a26.69,26.69,0,0,0-1.48-7.17c-1.07-3.57-.62-5.38,1.53-8.3,3.85-5.23,7.6-10.43,11.19-15.83,1-1.59-1.25-3.19-2.56-2-5.46,5.11-11.83,10.23-16.16,16.4-3.93,5.6-1.55,10.62-2,16.87C670.8,525.83,680.79,525.91,680.63,519.8Z" transform="translate(-441.75 -165.67)"/><path class="cls-13" d="M829,677c1.1-16,3.53-32,1.41-48.05a88.08,88.08,0,0,0-6-22.14c-2.25-5.44-4.82-11.38-8.16-16.41-3.26-13.48-13-23-26.52-27-7.38-2.19-15.12-2.65-22.76-3.2-4.51-.33-9.09-.54-13.57-1.22-3.47-.53-7-1.69-10.47-2.08a17.42,17.42,0,0,1-1.58-2.52c.34.52.73.31,1.18-.64.69-1.14,1.83-2,2.5-3.2a19,19,0,0,0,2.11-8.53,42.81,42.81,0,0,0-1.73-12.92c5-4.05,8.73-10.73,11.79-16.07a108.31,108.31,0,0,0,8.92-19.65c4.26-12.89,6.74-27.85,3.77-41.34,6.24-4.39,11.44-11.89,12.1-19.28.47-5.22-1.22-14-6.25-17.42,4.61-10.84,3.8-24.8,1.77-35.8-2.37-12.82-7.93-27.16-16-37.5-1.63-2.09-4.21.31-3.92,2.28,0,0,0,.06,0,.08a1.69,1.69,0,0,0-1.41.31c-4,3-7.93,6-11.91,9a3.84,3.84,0,0,0-.9-.14h-.48q2.07-1.41,4.08-2.95c10.54-8.08,17.38-18.94,22.45-31.06.42-1-1.1-1.79-1.77-1-9.23,10.22-19.55,19.72-31.56,26.59-11.46,6.55-24.09,10.53-37,13.08-13.32,2.65-27.19,3.15-39.89,8.33-10,4.1-21.84,12.68-23.3,24.26a3.6,3.6,0,0,0,1.14,3.2l-.38.48c-7.9,10.5-7.76,23.18-6.1,35.69a1.09,1.09,0,0,0,2.18,0c1.16-12.77,2.91-24.58,13-33.45,8.8-7.7,20.3-11.4,31.58-13.57,12.39-2.39,24.89-3.72,37.08-7.14a154.16,154.16,0,0,0,17.61-6.14c1.35-.56,2.78-1.12,4.22-1.72a3.52,3.52,0,0,0,2.73-.65c1-.72,2.05-1.45,3.06-2.21a17.77,17.77,0,0,0,3.58-2.84c1.42-1.18,2.78-2.41,4.1-3.68.44,3.48,2.47,6.61,3.8,9.84a100.38,100.38,0,0,1,4.12,11.75,69.4,69.4,0,0,1,2.1,12c.39,4.3-.19,8.6,2,12.49a4.94,4.94,0,0,0,2.81,2.36c-.67,2.48-1.39,4.95-2,7.53-1.36,6.14,6.16,10.07,10.19,5.83,1.46,4.17.77,10-.72,13.43a15.08,15.08,0,0,1-3.15,4.57,7.13,7.13,0,0,0-1.74-4.8c-1-1.44-2.46-3.43-4.16-4.16s-4.2.06-4,2.32c.1,1.38.84,3.25,1,4.26.12.82.12,1.64.23,2.45a5,5,0,0,0,2.7,3.62,3.2,3.2,0,0,0,1.36.49,30.5,30.5,0,0,0-3.1,3,5.2,5.2,0,0,0,3,8.6c-2.69,11-4.87,22.06-9,32.73,3.57-12.44,6.28-26.43,3.7-38.86a1,1,0,0,0-1.83-.24c-6.19,11.24-9.19,24.29-13.4,36.36-1.92,5.5-3.55,11.22-6.81,16.12s-7.66,7.76-12.91,10.13a6.36,6.36,0,0,0-.58.3,12,12,0,0,1-2-1.25c-2.1-1.59-4.9,1.48-3.55,3.55a13.19,13.19,0,0,0,3.07,3.38l.13.1c.63,3.49,3.84,6.75,7.79,5.34A34.49,34.49,0,0,0,739.26,516a36.2,36.2,0,0,0-4.68,8.48c-1.18,3.32,1.29,6.17,4.26,6.86,0,1.17,0,2.34-.1,3.51-.15,3.43-.1,7.87-2.71,10.5-.4.41-.8.77-1.19,1.1a5.56,5.56,0,0,0-1.4-4.72c-1.11-1.24-1.56-1.39-2.26-2.87-.59-1.27-.78-2.68-1.82-3.84a2.92,2.92,0,0,0-3.53-.46c-3.73,2.84-3.06,9.94-.63,13.53a5.41,5.41,0,0,0,5.91,2.38,8.6,8.6,0,0,0-.68,2.42c-.5,3.61.9,6.74,2.85,9.71,2.2,3.37,6.22,3.06,8.64,1.1,4.8,3,11.16,4.1,16.42,4.85,7.36,1.05,14.85,1,22.18,2.41,6.19,1.17,12.73,3.12,17.56,7.37,5.56,4.88,6.78,11.7,8.8,18.43a6.39,6.39,0,0,0,.37,1,1.75,1.75,0,0,0-1.06,2.12c3.9,19.42,2.16,38.85.55,58.42-.89,10.72-1.85,22-1.57,33.08a40.69,40.69,0,0,0-7.21.46c-5.3.7-10.65,1.32-15.89,2.41-1.09.23-2.41.46-3.77.76a4.56,4.56,0,0,0,0-1c-1.9-14.47-4.49-29-4.68-43.64a2.06,2.06,0,0,0-4.12,0c-.24,8.59-.7,17.15-.76,25.71q-.09-1.92-.06-3.84c0-1.88-2.56-2.07-3.13-.43-3.18,9.06-3.74,18.48-4.3,28a91,91,0,0,1-5.45,26.52c-5.28,14.56-10.85,30-9.25,45.57h30.94a362.17,362.17,0,0,0-5.63-42.33,2.38,2.38,0,0,0-.82-1.41c-.1-2.12-.18-4.24-.21-6.36a1.89,1.89,0,0,0-1.16-1.87,67.88,67.88,0,0,0,1.81-13.9c.14.3.27.6.4.89.52,1.15,2.26.73,2.57-.34.22-.73.36-1.68.56-2.58a67.15,67.15,0,0,0,15.28.41c5.2-.35,10.62-.2,15.84-.56.12.88.25,1.76.38,2.64.56,10,3.19,20.13,5.16,29.58,1.32,6.36,2.7,12.71,4.09,19.05,1.15,5.29,1.94,11.51,4,16.78h21.83C834.11,740.6,826.73,709.35,829,677ZM753,355.43c.37-.47.78-.94,1.19-1.42.31.77.6,1.56.88,2.34A11.89,11.89,0,0,0,753,355.43Zm4.15-4.2a1.76,1.76,0,0,0-.45-.32c.56-.73,1.1-1.48,1.63-2.25.35,1.72.74,3.42,1.17,5.12C758.76,352.91,758,352.05,757.17,351.23Zm4.23,403.22c-.63,5.16-1.76,10.9-1.16,16.17a6,6,0,0,0-1.17-1.33c-.9-10.62,1.65-20.68,4.83-30.78C763,743.81,762.05,749.1,761.4,754.45Zm9.78-56.13c0-.4-.09-.8-.13-1.2a5,5,0,0,0,.81.52A7.27,7.27,0,0,0,771.18,698.32Zm46.74-37c0-2.22,0-4.45,0-6.68,0-18.29-.76-37.12-7.59-54.31a5.29,5.29,0,0,0,3.61-.45c.92,3.67,2,7.33,2.73,10.93a116.36,116.36,0,0,1,3,22.68C819.79,642.83,818.87,652.08,817.92,661.33Z" transform="translate(-441.75 -165.67)"/><path class="cls-13" d="M626.4,446a5.7,5.7,0,0,0-1.81-2.54,5.5,5.5,0,0,0-4.61-1,3.79,3.79,0,0,0-1.83-2.85,4.52,4.52,0,0,0-5.06.57,7.9,7.9,0,0,0-2.4,8.11,8.38,8.38,0,0,0,6.18,5.87,8.74,8.74,0,0,0,5.41-.55l.24-.12a2.58,2.58,0,0,0,3.33,1.84,22.25,22.25,0,0,1,5.56-1.24,3.81,3.81,0,0,0,2.11-.83,3.91,3.91,0,0,0,4.3-3.85c0-2.72-2.5-4.22-5-3.8A32.41,32.41,0,0,1,626.4,446Z" transform="translate(-441.75 -165.67)"/><path class="cls-13" d="M700.36,477a3.16,3.16,0,0,0-3.35-.09,4.55,4.55,0,0,0-1.34,6.4c1.36,2.22,4.13,3.16,6.61,3.18A12.4,12.4,0,0,0,714,478.31a5.2,5.2,0,0,0-1.68-5.5,16.67,16.67,0,0,0-1.81-10.88c-1.73-3.2-6.37-.94-5.66,2.38.79,3.68-.54,6.8-3.11,9.39A4.5,4.5,0,0,0,700.36,477Z" transform="translate(-441.75 -165.67)"/><path class="cls-13" d="M700.8,457.73c-4.58-6.39-7.71-12.57-7.86-20.62-.05-2.38-3.63-3-4.24-.57-2.17,8.64-1.31,18.52,4,26C696.14,467.42,704.35,462.67,700.8,457.73Z" transform="translate(-441.75 -165.67)"/><path class="cls-13" d="M670.45,440.49c-1.36.75-2.42.09-3.69-.51-1.68-.8-4.54.1-4.23,2.42.59,4.54,5.18,6.65,9.41,6.17,5.13-.58,8.51-4.68,10.21-9.25,1.79-4.81-6.12-8.18-8.34-3.51C673,437.45,672.14,439.56,670.45,440.49Z" transform="translate(-441.75 -165.67)"/><path class="cls-13" d="M721,444.92c4,.36,7.62-2,10.14-4.95,1.9-2.22,1.95-5.43-.5-7.32A4.92,4.92,0,0,0,723.4,434a7.85,7.85,0,0,1-2.54,2.88c-.45.22-1.76.45-1.85.2a2.73,2.73,0,0,0-5.25,1.45A7.91,7.91,0,0,0,721,444.92Z" transform="translate(-441.75 -165.67)"/><path class="cls-13" d="M658.86,419.9c2.59-4,6.85-4.72,11.29-4.89,4-.16,5.24-6.34,1-7.31-7.06-1.6-14.06,3.07-17,9.46C652.73,420.3,656.92,422.89,658.86,419.9Z" transform="translate(-441.75 -165.67)"/><path class="cls-13" d="M718.7,415.32c3.74-.45,6.61.78,9.6,3,4.83,3.57,10.22-5.4,4.73-8.09a21,21,0,0,0-15.18-1.15C714.52,410,715,415.77,718.7,415.32Z" transform="translate(-441.75 -165.67)"/></g></g><g id="lineart"><path class="cls-9" d="M625.8,648.06c-13.53-3.29-23.86-14.83-32.78-36.22a1.5,1.5,0,1,0-2.77,1.15c5.93,14.23,15.6,32.43,33.67,37.63.1-.47.19-.93.29-1.39A1.5,1.5,0,0,1,625.8,648.06Z" transform="translate(-441.75 -165.67)"/><path class="cls-9" d="M677.07,592.58c0-.92,0-1.84,0-2.77,0-10.22-5-29.86-9.49-47.19-3.22-12.51-6.25-24.33-6.25-28.6,0-19.4,24.38-31.89,28-31.89a3.54,3.54,0,0,1,3.47,3.69c0,2.34-2.27,4.14-5.13,6.42-4.42,3.52-10.48,8.33-10.48,18.3a42.66,42.66,0,0,0,1,8,22.18,22.18,0,0,1,2.43-3.51,32.82,32.82,0,0,1-.38-4.47c0-8.52,5-12.47,9.35-16,3.22-2.56,6.26-5,6.26-8.77a6.52,6.52,0,0,0-6.47-6.69c-5.34,0-31,14-31,34.89a59.88,59.88,0,0,0,1.8,11,1.48,1.48,0,0,1,.22,1c1.15,5,2.68,10.94,4.32,17.33,4.41,17.15,9.4,36.6,9.4,46.44,0,.35,0,.68,0,1q.84.2,1.74.36A1.49,1.49,0,0,1,677.07,592.58Z" transform="translate(-441.75 -165.67)"/><path class="cls-9" d="M627.14,649.87c-.11.48-.2,1-.3,1.45a38.66,38.66,0,0,0,7.61.75c19.64,0,41.46-24.22,42.62-59.33,0,.06,0,.13,0,.19a1.49,1.49,0,0,1-1.47,1.23l-.27,0-1.29-.26c-1.55,32.72-21.54,55.19-39.57,55.19a36.77,36.77,0,0,1-8.16-.88A1.5,1.5,0,0,1,627.14,649.87Z" transform="translate(-441.75 -165.67)"/><path class="cls-9" d="M677.13,527.59h.15a1.5,1.5,0,0,0,1.5-1.35c.84-8.45,9.29-16.14,17.72-16.14a8.32,8.32,0,0,1,6,2.14,18.36,18.36,0,0,1,2.91-1.28,11,11,0,0,0-8.93-3.86c-6,0-11.91,3.19-15.88,7.91a22.18,22.18,0,0,0-2.43,3.51,19.11,19.11,0,0,0-2.4,7.42A1.51,1.51,0,0,0,677.13,527.59Z" transform="translate(-441.75 -165.67)"/><path class="cls-9" d="M720.72,520.1l-.62.18a1.69,1.69,0,0,0,.38-.07Z" transform="translate(-441.75 -165.67)"/><path class="cls-9" d="M710.75,510a16.17,16.17,0,0,0-5.32.92,18.36,18.36,0,0,0-2.91,1.28,26.52,26.52,0,0,0-11.82,14.39,1.49,1.49,0,0,0,.94,1.9,1.61,1.61,0,0,0,.48.08,1.5,1.5,0,0,0,1.42-1c3.15-9.45,11.22-14.54,17.21-14.54,3.44,0,5.78,1.56,7.28,4.87a22.75,22.75,0,0,1,2.87-.91C718.93,512.38,715.52,510,710.75,510Z" transform="translate(-441.75 -165.67)"/><path class="cls-9" d="M733.23,521.47a1.5,1.5,0,0,1-.79-2.77c.26-.16.53-.34.81-.53a13.49,13.49,0,0,0-7.16-1.83,21.66,21.66,0,0,0-5.19.66,22.75,22.75,0,0,0-2.87.91c-5.24,2.08-9.79,6.19-11.19,12.23a1.5,1.5,0,1,0,2.93.67c1-4.31,4.7-8.67,10.33-10.53l.62-.18a19,19,0,0,1,5.37-.76c7.16,0,10.79,5,10.79,14.78,0,6-2.28,15.52-8.36,16-.29-.73-.79-2.18-1.51-4.23-.66-1.89-1.55-4.46-2.78-7.92a19.58,19.58,0,0,0-2.13,3c.87,2.49,1.55,4.43,2.08,5.93,1.94,5.56,2.19,6.28,3.44,6.28l.43,0c7.77,0,11.83-9.56,11.83-19,0-6.26-1.47-11-4.23-14-.54.37-1.08.75-1.64,1.09A1.49,1.49,0,0,1,733.23,521.47Z" transform="translate(-441.75 -165.67)"/><path class="cls-9" d="M640.85,713.86a54.17,54.17,0,0,1-5.57,2.52l.56,1.26a1.5,1.5,0,0,1-.73,2,1.56,1.56,0,0,1-.63.14,1.5,1.5,0,0,1-1.36-.87c-.23-.5-.45-1-.67-1.5a51,51,0,0,1-15.81,2.49c-20.81,0-39.08-11.56-54.28-34.37a1.5,1.5,0,1,0-2.5,1.67c15.8,23.69,34.9,35.7,56.78,35.7a54.67,54.67,0,0,0,25.27-6.19q-.51-1.16-1-2.34A1.48,1.48,0,0,1,640.85,713.86Z" transform="translate(-441.75 -165.67)"/><path class="cls-9" d="M729.5,533.86a1.5,1.5,0,0,0-1.26-2.72c-6.7,3.09-11.76,11.13-11.76,18.7a14.5,14.5,0,0,0,3.24,9.23c1.46,2.11,2.72,3.93,2.72,7.62,0,5-2.32,8.41-5.54,13.12a76.46,76.46,0,0,0-11,21.72c-.08.24-.25.91-.51,2-6.2,24.53-14.19,46.15-23.76,64.26-11.45,21.68-24.31,36.66-38.44,44.83a1.43,1.43,0,0,1,.55.7c.26.67.53,1.33.81,2,14.67-8.43,28-23.85,39.74-46.12C694,650.83,702,629,708.3,604.22c.24-1,.39-1.55.46-1.78a73.65,73.65,0,0,1,10.61-20.93c3.39-5,6.07-8.88,6.07-14.82a14.67,14.67,0,0,0-3.26-9.33c-1.45-2.08-2.7-3.89-2.7-7.52a17.92,17.92,0,0,1,2.62-8.91,19.58,19.58,0,0,1,2.13-3A16.06,16.06,0,0,1,729.5,533.86Z" transform="translate(-441.75 -165.67)"/><path class="cls-9" d="M634.48,719.77a1.56,1.56,0,0,0,.63-.14,1.5,1.5,0,0,0,.73-2l-.56-1.26A114,114,0,0,1,625,670.12a94.83,94.83,0,0,1,1.86-18.8c.1-.48.19-1,.3-1.45a1.5,1.5,0,0,0-.85-1.68,1,1,0,0,0-.3-.1,1.25,1.25,0,0,0-.19,0,1.5,1.5,0,0,0-1.59,1.17c-.1.46-.19.92-.29,1.39a98.07,98.07,0,0,0-1.94,19.5,117,117,0,0,0,10.47,47.28c.22.5.44,1,.67,1.5A1.5,1.5,0,0,0,634.48,719.77Z" transform="translate(-441.75 -165.67)"/><path class="cls-9" d="M540.83,671.49c0-95.71,73.34-108.2,100.94-112.9,5.06-.87,8.4-1.44,10.07-2.27.65-.33,1.34-.64,2-1,3.66-1.67,7.81-3.56,8.91-8.52a1.5,1.5,0,1,0-2.92-.65c-.78,3.5-3.77,4.86-7.23,6.44-.72.33-1.44.65-2.13,1-1.26.63-4.77,1.23-9.22,2C613,560.45,537.83,573.25,537.83,671.49c0,15.3,1.93,30.94,3.8,46.07,1.85,15,3.76,30.44,3.76,45.41a1.5,1.5,0,0,0,3,0c0-15.16-1.92-30.73-3.78-45.78S540.83,686.6,540.83,671.49Z" transform="translate(-441.75 -165.67)"/><path class="cls-9" d="M675.58,594.16a1.49,1.49,0,0,0,1.47-1.23c0-.06,0-.13,0-.19v-.16a1.49,1.49,0,0,0-1.22-1.39q-.9-.16-1.74-.36c-19.09-4.13-23.35-15.78-26.56-29.43a1.5,1.5,0,0,0-2.92.69c3.36,14.25,8.16,27.4,29.39,31.79l1.29.26Z" transform="translate(-441.75 -165.67)"/><path class="cls-9" d="M643.19,712.58a1.5,1.5,0,0,0-2.24,1.78q.45,1.18,1,2.34c9.28,21.61,29,36.49,48.69,36.49,31.82,0,55.82-26.9,55.82-62.57,0-26.06-14-44.14-38.45-49.6a1.5,1.5,0,0,0-.66,2.93c23.28,5.2,36.11,21.78,36.11,46.67,0,34-22.71,59.57-52.82,59.57-18.61,0-37.28-14.25-46.05-34.92-.28-.66-.55-1.32-.81-2A1.43,1.43,0,0,0,643.19,712.58Z" transform="translate(-441.75 -165.67)"/><path class="cls-9" d="M727.88,686.93a1.5,1.5,0,0,0-2.88.84,33.93,33.93,0,0,1,.85,3.72,1.5,1.5,0,0,0,1.47,1.26l.25,0a1.51,1.51,0,0,0,1.24-1.73A35.27,35.27,0,0,0,727.88,686.93Z" transform="translate(-441.75 -165.67)"/><path class="cls-9" d="M712,724.53a1.49,1.49,0,0,0-.19,2.11,1.51,1.51,0,0,0,2.12.19c1-.88,2.07-1.83,3-2.8a1.5,1.5,0,0,0-2.13-2.12C714,722.83,713,723.71,712,724.53Z" transform="translate(-441.75 -165.67)"/><path class="cls-9" d="M726.05,700a31.18,31.18,0,0,1-.69,3.75,1.5,1.5,0,0,0,1.1,1.82,1.47,1.47,0,0,0,.36,0,1.5,1.5,0,0,0,1.45-1.14,35.25,35.25,0,0,0,.76-4.11,1.5,1.5,0,1,0-3-.36Z" transform="translate(-441.75 -165.67)"/><path class="cls-9" d="M712.26,665.52a1.5,1.5,0,0,0-1.79,2.41c1,.77,2,1.6,3,2.44a1.5,1.5,0,1,0,2-2.25C714.45,667.22,713.37,666.35,712.26,665.52Z" transform="translate(-441.75 -165.67)"/><path class="cls-9" d="M724.31,711.2a1.51,1.51,0,0,0-2,.64c-.58,1.12-1.24,2.24-1.94,3.32a1.5,1.5,0,0,0,.43,2.08,1.56,1.56,0,0,0,.82.24,1.51,1.51,0,0,0,1.26-.68c.76-1.17,1.46-2.37,2.09-3.58A1.49,1.49,0,0,0,724.31,711.2Z" transform="translate(-441.75 -165.67)"/><path class="cls-9" d="M721.78,674.92a1.5,1.5,0,0,0-2.4,1.8,37.92,37.92,0,0,1,2.15,3.19,1.5,1.5,0,0,0,1.29.73,1.46,1.46,0,0,0,.77-.22,1.49,1.49,0,0,0,.51-2A40,40,0,0,0,721.78,674.92Z" transform="translate(-441.75 -165.67)"/><path class="cls-9" d="M701.9,733.84a1.52,1.52,0,0,0,.55-.1,38.72,38.72,0,0,0,3.78-1.73,1.5,1.5,0,1,0-1.39-2.66,35.18,35.18,0,0,1-3.49,1.6,1.5,1.5,0,0,0,.55,2.89Z" transform="translate(-441.75 -165.67)"/><path class="cls-9" d="M703,663.33a1.48,1.48,0,0,0,2-.66,1.5,1.5,0,0,0-.66-2c-1.22-.62-2.48-1.2-3.74-1.72a1.5,1.5,0,1,0-1.15,2.77C700.7,662.2,701.89,662.75,703,663.33Z" transform="translate(-441.75 -165.67)"/><path class="cls-9" d="M677.06,730.81A1.5,1.5,0,1,0,676,733.6a36,36,0,0,0,4,1.3,1.73,1.73,0,0,0,.38.05,1.5,1.5,0,0,0,.39-3A33,33,0,0,1,677.06,730.81Z" transform="translate(-441.75 -165.67)"/><path class="cls-9" d="M693,733a32.55,32.55,0,0,1-3.81.16,1.52,1.52,0,0,0-1.52,1.48,1.48,1.48,0,0,0,1.47,1.52h.72a33.73,33.73,0,0,0,3.46-.19,1.5,1.5,0,0,0-.32-3Z" transform="translate(-441.75 -165.67)"/><path class="cls-9" d="M660.26,711.92A1.5,1.5,0,0,0,659,713.6a23.06,23.06,0,0,0,.95,4.16,1.5,1.5,0,0,0,2.85-.93,19.74,19.74,0,0,1-.82-3.63A1.49,1.49,0,0,0,660.26,711.92Z" transform="translate(-441.75 -165.67)"/><path class="cls-9" d="M667,724a1.5,1.5,0,0,0-2.23,2,25.85,25.85,0,0,0,3.08,2.91,1.49,1.49,0,0,0,2.1-.23,1.51,1.51,0,0,0-.22-2.11A22.27,22.27,0,0,1,667,724Z" transform="translate(-441.75 -165.67)"/><path class="cls-9" d="M704.84,703.6a1.51,1.51,0,0,0-.88-1.33c-5-2.27-10.47-9.57-13.94-15.65a1.52,1.52,0,0,0-1.35-.76,1.5,1.5,0,0,0-1.3.85l-.53,1.07c-2.66,5.46-5.41,11.1-8.48,16.47a1.49,1.49,0,0,0,.78,2.15,31.11,31.11,0,0,0,10.59,1.81A32.48,32.48,0,0,0,704,705,1.5,1.5,0,0,0,704.84,703.6Zm-23,.54c2.5-4.5,4.78-9.12,7-13.63,2.32,3.68,6.47,9.58,11.17,12.92A30.73,30.73,0,0,1,681.87,704.14Z" transform="translate(-441.75 -165.67)"/><path class="cls-9" d="M833.37,770.42c-12.43-34.19-12.93-74.51-13.42-113.51-.13-10.16-.26-20.67-.6-30.94-1.88-57-37.23-59.08-63.05-60.62-11.82-.7-22-1.31-25-7.3a1.5,1.5,0,1,0-2.68,1.35c3.77,7.53,14.78,8.19,27.53,9,26,1.55,58.44,3.48,60.23,57.72.34,10.24.47,20.73.6,30.88.15,12.23.31,24.59.83,36.87.32-.1.64-.21,1-.34a1.5,1.5,0,1,1,1.15,2.77,12.49,12.49,0,0,1-2,.63c1.25,26,4.29,51.6,12.63,74.56a1.69,1.69,0,0,0,.23.42h2.36A1.49,1.49,0,0,0,833.37,770.42Z" transform="translate(-441.75 -165.67)"/><path class="cls-9" d="M778.09,737.1c-.85-6.91-1.72-12.33-2.56-17.57-1.11-6.84-2.13-13.19-2.85-21.65-.39.11-.78.21-1.16.33a1.67,1.67,0,0,1-.44.06,1.48,1.48,0,0,1-1.43-1.06,1.38,1.38,0,0,1-.06-.26c.28,3.41.6,6.48.95,9.37a1.5,1.5,0,0,1,.51,1.16c0,.65-.07,1.3-.1,1.94.49,3.64,1,7.05,1.61,10.59.85,5.21,1.71,10.6,2.56,17.45.87,7.11,1.16,14.38,1.45,21.42.17,4.27.35,8.61.66,13h3c-.32-4.4-.5-8.79-.67-13.1C779.28,751.66,779,744.33,778.09,737.1Z" transform="translate(-441.75 -165.67)"/><path class="cls-9" d="M770.64,695.34q.9-.27,1.8-.51c-.49-6.94-.79-15.32-.79-26.35A196.91,196.91,0,0,1,773.21,642a1.5,1.5,0,1,0-3-.4,201.27,201.27,0,0,0-1.58,26.92c0,12.1.35,21,.94,28.39A1.49,1.49,0,0,1,770.64,695.34Z" transform="translate(-441.75 -165.67)"/><path class="cls-9" d="M771.08,698.27a1.67,1.67,0,0,0,.44-.06c.38-.12.77-.22,1.16-.33a78.87,78.87,0,0,1,21.84-3.06,114.25,114.25,0,0,1,20.37,2.3,3.83,3.83,0,0,0,.52.07,10.84,10.84,0,0,0,2.51-.31,12.49,12.49,0,0,0,2-.63,1.5,1.5,0,1,0-1.15-2.77c-.32.13-.64.24-1,.34a8.13,8.13,0,0,1-2.23.37h-.07a117.1,117.1,0,0,0-21-2.36,81.82,81.82,0,0,0-22.08,3q-.9.24-1.8.51a1.49,1.49,0,0,0-1,1.53V697a1.38,1.38,0,0,0,.06.26A1.48,1.48,0,0,0,771.08,698.27Z" transform="translate(-441.75 -165.67)"/><path class="cls-9" d="M767.18,733.43c1.7-8.09,3.3-15.77,3.77-24,0-.64.08-1.29.1-1.94a1.5,1.5,0,0,0-3-.1c-.29,8.73-2,16.84-3.81,25.43-2.14,10.15-4.35,20.64-4.35,33,0,2.16.1,4.18.29,6.1h3a58.38,58.38,0,0,1-.31-6.1C762.89,753.76,765.07,743.42,767.18,733.43Z" transform="translate(-441.75 -165.67)"/><path class="cls-9" d="M691.59,368c-32.58,5.44-63.34,10.57-63.34,53.67A75.7,75.7,0,0,0,632.48,446a1.5,1.5,0,0,0,2.83-1,72.73,72.73,0,0,1-4.06-23.37c0-40.56,28.19-45.26,60.83-50.71,22.49-3.75,47.06-7.86,64.37-24.88-.31-.56-.62-1.13-1-1.68a1.5,1.5,0,0,1,0-1.45C739,360.11,715,364.11,691.59,368Z" transform="translate(-441.75 -165.67)"/><path class="cls-9" d="M772.71,312.88a88.8,88.8,0,0,1-14.13.8c-5.92,0-11.93-.21-17.75-.42s-11.89-.42-17.86-.42c-12.71,0-45.28,1.42-73.19,14.55-26.25,12.34-40.13,31.64-40.13,55.81,0,11,2.07,22.18,4.07,33,.88,4.75,1.79,9.65,2.5,14.45-10.16,3.87-12.34,10.48-12.34,15.43,0,10.76,10.1,16.89,20.07,17.49a127.11,127.11,0,0,0,8.71,37.08c3.75,9.05,10.75,14.53,17.52,19.83,2.61,2,5.32,4.17,7.74,6.44a1.51,1.51,0,0,0,2.12-.07,1.41,1.41,0,0,0,.36-.83,1.48,1.48,0,0,0-.22-1,1.94,1.94,0,0,0-.21-.29c-2.51-2.36-5.27-4.52-7.94-6.61-6.76-5.29-13.15-10.29-16.6-18.62a124.75,124.75,0,0,1-8.6-37.5,1.51,1.51,0,0,0-1.48-1.38c-9-.09-18.47-5.21-18.47-14.54,0-6.05,3.87-10.43,11.48-13a1.5,1.5,0,0,0,1-1.63c-.74-5.23-1.73-10.59-2.69-15.77-2-10.71-4-21.78-4-32.48,0-23.25,12.92-41.11,38.41-53.1,27.36-12.87,59.4-14.26,71.91-14.26,5.92,0,11.94.22,17.76.42s11.88.42,17.85.42a107.94,107.94,0,0,0,12.25-.51c-3.56,11.13-8.66,19.63-14.85,26.23l0,0a1.49,1.49,0,0,1,2.06.53l.54,1c6.68-7.27,12.13-16.68,15.76-29.07a1.51,1.51,0,0,0-1.68-1.91Z" transform="translate(-441.75 -165.67)"/><path class="cls-9" d="M617.23,447.29c-2-.58-2.27-.81-2.27-1.37a3.43,3.43,0,0,1,1.7-1.95,1.5,1.5,0,0,0,2.41-1.73,2.33,2.33,0,0,0-2.12-1.33c-2.66,0-5,3.11-5,5,0,3,2.67,3.76,4.43,4.27,1.22.36,2.38.69,2.83,1.45a1.5,1.5,0,0,0,1.29.73,1.46,1.46,0,0,0,.77-.22,1.49,1.49,0,0,0,.51-2.05C620.73,448.31,618.79,447.74,617.23,447.29Z" transform="translate(-441.75 -165.67)"/><path class="cls-9" d="M664.35,423.37c-3,1.47-4.72,4.69-4.72,8.61,0,6.83,5.15,11.59,9.78,11.59,6.11,0,9.89-5.89,9.89-11.34,0-6.47-5.27-10-10.24-10A10.46,10.46,0,0,0,664.35,423.37Zm11.79,6.32a3.48,3.48,0,0,1-.07.64,7.55,7.55,0,0,1,.23,1.9c0,4-2.77,8.34-6.89,8.34-2.83,0-6.78-3.27-6.78-8.59,0-2.75,1.14-5,3.06-5.93l.25-.11a1.47,1.47,0,0,1,1.06-1l.18,0a14,14,0,0,1,3.5-.55C674.2,424.32,676.14,426.22,676.14,429.69Z" transform="translate(-441.75 -165.67)"/><path class="cls-9" d="M667,424.91a1.47,1.47,0,0,0-1.06,1,1.51,1.51,0,0,0,0,.79l.06.18a4.49,4.49,0,0,0-.67,2.58,5.69,5.69,0,0,0,5.83,5.52c1.9,0,4.52-2.31,4.94-4.68a3.48,3.48,0,0,0,.07-.64c0-3.47-1.94-5.37-5.46-5.37a14,14,0,0,0-3.5.55Zm4.13,7.1a2.7,2.7,0,0,1-2.83-2.52c0-1,.17-1.06.87-1.41a1.49,1.49,0,0,0,.69-.71,7.37,7.37,0,0,1,.82-.05c1.86,0,2.46.57,2.46,2.37C673.14,430.54,671.63,431.92,671.13,432Z" transform="translate(-441.75 -165.67)"/><path class="cls-9" d="M720.26,440.79c5.51,0,10-5,10-11.24,0-7.93-6-8.59-11.6-8.59h-.49l-.3,0c-.24,0-.5,0-.74,0-1.88,0-6.62,2.63-6.62,8.85C710.5,435.06,714.23,440.79,720.26,440.79ZM716.92,424a3.9,3.9,0,0,1,3.11-1.51h.56a5.27,5.27,0,0,1,5,2.74c1.22.86,1.66,2.24,1.66,4.36,0,4-2.81,8.24-7,8.24s-6.76-4.17-6.76-8S716.11,424.25,716.92,424Z" transform="translate(-441.75 -165.67)"/><path class="cls-9" d="M720.93,433.76c3.82,0,5.24-3.8,5.24-6.19a5.19,5.19,0,0,0-.58-2.38,5.27,5.27,0,0,0-5-2.74H720a3.9,3.9,0,0,0-3.11,1.51,6.19,6.19,0,0,0-1.28,3.85C715.64,431.09,718,433.76,720.93,433.76Zm0-3c-1.42,0-2.29-1.53-2.29-2.95,0-.74.35-2.36,1.39-2.36h.56c2.33,0,2.58,1.49,2.58,2.12C723.17,427.61,723,430.76,720.93,430.76Z" transform="translate(-441.75 -165.67)"/><path class="cls-9" d="M670,410.57a1.5,1.5,0,0,0,0-3c-8,0-16.56,5.53-16.56,13.77,0,.44,0,1.81,1.37,1.94h.1a1.53,1.53,0,0,0,1.55-1.35c0-.06,0-.22.08-.32a1.52,1.52,0,0,0,0-1.75C657.53,414.25,664,410.57,670,410.57Z" transform="translate(-441.75 -165.67)"/><path class="cls-9" d="M715.3,409a11,11,0,0,1,4-.76c4.1,0,8.61,2.33,12.37,6.4a1.47,1.47,0,0,0,1.1.48,1.5,1.5,0,0,0,1.1-2.52c-4.32-4.68-9.63-7.36-14.57-7.36a14.18,14.18,0,0,0-5.13,1,1.5,1.5,0,0,0,1.09,2.8Z" transform="translate(-441.75 -165.67)"/><path class="cls-9" d="M756,342.37l0,0a1.47,1.47,0,0,0-.51.57,1.5,1.5,0,0,0,0,1.45c.33.55.64,1.12,1,1.68a88.55,88.55,0,0,1,10.74,43.07,95.87,95.87,0,0,1-3.88,27,19.12,19.12,0,0,1,3,.5,98.7,98.7,0,0,0,3.9-27.54,91.37,91.37,0,0,0-11.56-45.31l-.54-1A1.49,1.49,0,0,0,756,342.37Z" transform="translate(-441.75 -165.67)"/><path class="cls-9" d="M761.47,416.09a140.81,140.81,0,0,0-14.54-51,1.5,1.5,0,1,0-2.67,1.37,138.25,138.25,0,0,1,14.34,51.17A1.52,1.52,0,0,0,760,419h.43c5.94.21,10.49,1,10.49,8.53A21.94,21.94,0,0,1,761,446.26a1.52,1.52,0,0,0-.7,1.17c-3.42,49.19-19.48,65.65-27.09,70.74-.28.19-.55.37-.81.53a1.5,1.5,0,0,0,1.57,2.55c.56-.34,1.1-.72,1.64-1.09,21.12-14.79,26.35-54.33,27.63-71.77A25.09,25.09,0,0,0,774,427.58c0-7.27-3.77-9.89-7.67-10.87a19.12,19.12,0,0,0-3-.5C762.67,416.15,762.05,416.11,761.47,416.09Z" transform="translate(-441.75 -165.67)"/><path class="cls-9" d="M762.62,431.88a1.41,1.41,0,0,0,1.25-.66,15.08,15.08,0,0,1-.3,2.19,13.91,13.91,0,0,0-.29,2.36,1.5,1.5,0,0,0,3,0,13,13,0,0,1,.24-1.83,16,16,0,0,0,.35-2.9c0-2.73-1.49-3.8-2.76-4.22a2,2,0,0,0-.53-.08,3,3,0,0,0-2.56,2.63C761,430.19,761,431.88,762.62,431.88Z" transform="translate(-441.75 -165.67)"/><path class="cls-9" d="M695.89,465.79c1.73,0,3.21-1.33,4.78-2.75,1.4-1.26,3-2.7,4.39-2.7s4.19,1.51,4.19,6.18c0,6-3.92,10.45-9.12,10.45a1.56,1.56,0,0,1-1.19-.51,1.5,1.5,0,0,0-2.12,2.13,4.54,4.54,0,0,0,3.31,1.38c6.91,0,12.12-5.78,12.12-13.45,0-6.33-4.21-9.18-7.19-9.18-2.55,0-4.6,1.85-6.4,3.47-.92.84-2.19,2-2.73,2-1.29-.26-5.52-6.09-5.52-17.08,0-2.61.16-5.31.33-7.92s.32-5.18.32-7.66a1.5,1.5,0,0,0-3,0c0,2.39-.16,4.86-.32,7.47s-.33,5.4-.33,8.11C687.41,457,692,465.79,695.89,465.79Z" transform="translate(-441.75 -165.67)"/><path class="cls-9" d="M719.63,496a23.14,23.14,0,0,1-17.17,8,18.63,18.63,0,0,1-9.67-2.63,1.5,1.5,0,1,0-1.55,2.56A21.53,21.53,0,0,0,702.46,507a25.86,25.86,0,0,0,19.46-9.05,1.5,1.5,0,0,0-2.29-1.94Z" transform="translate(-441.75 -165.67)"/></g><g id="Réteg_13" data-name="Réteg 13"><path class="cls-9" d="M540.67,437.31c0-11.6-11-19.39-21.2-19.39a23,23,0,0,0-9.1,2.34c-6.3,2.74-10.07,9.07-10.07,16.94,0,7.33,3.13,13.42,8.17,17a17.38,17.38,0,0,1,1.71-1.37,1.48,1.48,0,0,1,1.34-.2c-5.07-2.86-8.22-8.44-8.22-15.46,0-6.64,3.09-11.94,8.26-14.19a20.35,20.35,0,0,1,7.91-2.09c8.79,0,18.2,6.58,18.2,16.39,0,10.93-9,17.46-17.79,17.46a16.94,16.94,0,0,1-7.93-1.88,1.39,1.39,0,0,1,.32.32,1.5,1.5,0,0,1-.35,2.09c-.24.17-.46.36-.69.54a19.9,19.9,0,0,0,8.65,1.93,21.55,21.55,0,0,0,9.66-2.33,9.23,9.23,0,0,0-.73-.8,1.5,1.5,0,0,1,2.11-2.14,15,15,0,0,1,1.22,1.39A19.74,19.74,0,0,0,540.67,437.31Z" transform="translate(-441.75 -165.67)"/><path class="cls-9" d="M539.73,490.56c-.12-5.79-.38-18.36-3.41-28.09v.14c0-.22-.1-.43-.16-.64h0l0,0c-.06-.24-.11-.48-.18-.72a1,1,0,0,0-.17-.3,25.07,25.07,0,0,0-3.66-7,15,15,0,0,0-1.22-1.39,1.5,1.5,0,0,0-2.11,2.14,9.23,9.23,0,0,1,.73.8,21.75,21.75,0,0,1,3.62,6.89l.06-.07c.34,1.12.71,2.23,1.1,3.34l-.15.17c2.07,8.24,2.42,18.16,2.54,23.68-4.79-.15-8.86-.22-12.69-.22v.06l-2.31.12-.7-.05a.49.49,0,0,1,0-.12c-6.27.07-11.94.34-17.24.84a28.29,28.29,0,0,1-1.47-8c0-12.21,3.25-21.7,8.93-26.27.23-.18.45-.37.69-.54a1.5,1.5,0,0,0,.35-2.09,1.39,1.39,0,0,0-.32-.32,1.37,1.37,0,0,0-.43-.23,1.48,1.48,0,0,0-1.34.2,17.38,17.38,0,0,0-1.71,1.37c-7.93,7.16-9.17,20.35-9.17,27.88a32.42,32.42,0,0,0,2,10.1,1.5,1.5,0,0,0,1.41,1h.15a209.19,209.19,0,0,1,21.05-.95c4.23,0,8.76.08,14.25.27a1.54,1.54,0,0,0,1.11-.43,1.51,1.51,0,0,0,.44-1.1Z" transform="translate(-441.75 -165.67)"/><path class="cls-9" d="M561.11,456.57a11.93,11.93,0,0,1-4-9c0-4.51,4.4-11.19,10.48-11.19a8.5,8.5,0,0,1,2.11.28,9,9,0,0,1,5.72,4.8,14,14,0,0,1,2,6.31c0,4.83-3.28,11.81-9.22,11.81a11.1,11.1,0,0,1-7.08-3,1.51,1.51,0,0,1,0,2.12c-.32.33-.62.68-.92,1a12.91,12.91,0,0,0,8,2.86,10.32,10.32,0,0,0,7-2.69c-.32-.41-.64-.82-1-1.21a1.5,1.5,0,0,1,2.23-2c.28.32.53.65.8,1a17.64,17.64,0,0,0,3.22-9.87,16.63,16.63,0,0,0-2.4-7.73,12,12,0,0,0-7.59-6.28,11.34,11.34,0,0,0-2.88-.38c-6.23,0-13.48,6.2-13.48,14.19a15.84,15.84,0,0,0,4,10.08c.31-.37.62-.75,1-1.09A1.52,1.52,0,0,1,561.11,456.57Z" transform="translate(-441.75 -165.67)"/><path class="cls-9" d="M553.7,478.54a1.51,1.51,0,0,0,1.47,1.19h.16a178.58,178.58,0,0,1,25.53-1.16,1.51,1.51,0,0,0,1.51-1.17,21.17,21.17,0,0,0,.51-4.62,24.08,24.08,0,0,0-5.68-15.11c-.27-.32-.52-.65-.8-1a1.5,1.5,0,0,0-2.23,2c.35.39.67.8,1,1.21a20.93,20.93,0,0,1,4.72,12.86,18.32,18.32,0,0,1-.21,2.76,181.49,181.49,0,0,0-23.28,1.06,25.13,25.13,0,0,1-.31-4,20.42,20.42,0,0,1,4.12-12.87c.3-.36.6-.71.92-1a1.5,1.5,0,1,0-2.13-2.12c-.33.34-.64.72-1,1.09a23.28,23.28,0,0,0-5,14.94A28.63,28.63,0,0,0,553.7,478.54Z" transform="translate(-441.75 -165.67)"/><path class="cls-9" d="M467.34,458.55a1.5,1.5,0,0,1,2,2.27q-.39.33-.75.69a13.45,13.45,0,0,0,5.73,1.22,12.83,12.83,0,0,0,5.56-1.25c-.24-.33-.47-.67-.72-1a1.49,1.49,0,0,1,.2-2.11,1.52,1.52,0,0,1,2.12.21c.33.41.64.84.94,1.27a14.52,14.52,0,0,0,5.41-11.05c0-9.48-9.2-13-15-13a10.27,10.27,0,0,0-7.24,2.68A14.45,14.45,0,0,0,461,449.05a14.1,14.1,0,0,0,5,10.82A18.8,18.8,0,0,1,467.34,458.55Zm-3.33-9.5a11.4,11.4,0,0,1,3.6-8.36,7.32,7.32,0,0,1,5.19-1.88c.12,0,12,.27,12,10,0,4.57-3.65,10.91-10.51,10.91C467.62,459.73,464,454.23,464,449.05Z" transform="translate(-441.75 -165.67)"/><path class="cls-9" d="M460.94,482.6h1.37q3.4,0,6.82,0c4.26,0,9.86,0,15.43.41h.1a1.51,1.51,0,0,0,1.49-1.28,44.1,44.1,0,0,0,.51-6.55c0-6.11-1.45-11.23-4.27-15.27-.3-.43-.61-.86-.94-1.27a1.52,1.52,0,0,0-2.12-.21,1.49,1.49,0,0,0-.2,2.11c.25.31.48.65.72,1,2.52,3.54,3.81,8.12,3.81,13.66a39.09,39.09,0,0,1-.3,4.75c-5.18-.29-10.28-.33-14.23-.33q-3.42,0-6.82,0c0-.5,0-1,0-1.51,0-6.58,2.34-12.69,6.29-16.57q.36-.36.75-.69a1.5,1.5,0,0,0-2-2.27,18.8,18.8,0,0,0-1.36,1.32c-4.23,4.45-6.71,11.1-6.71,18.21a27.85,27.85,0,0,0,.18,3.18A1.5,1.5,0,0,0,460.94,482.6Z" transform="translate(-441.75 -165.67)"/><path class="cls-9" d="M501.38,525.79h0Z" transform="translate(-441.75 -165.67)"/><path class="cls-9" d="M501.52,525.41s0,0,0,.05S501.51,525.43,501.52,525.41Z" transform="translate(-441.75 -165.67)"/><path class="cls-9" d="M501.4,524.45a1.17,1.17,0,0,1,.09.24c-.31-1.06-.68-2.1-1-3.11a24,24,0,0,1-1.85-7.94,1.5,1.5,0,0,0-3,0,26.71,26.71,0,0,0,2,8.94l.15.42c-12-3.4-22.44-13.09-27.75-25.83a1.5,1.5,0,1,0-2.77,1.16c5.45,13.08,16.08,23.13,28.33,27.12,1.29-.53,2.57-1.08,3.82-1.69A1.5,1.5,0,0,1,501.4,524.45Z" transform="translate(-441.75 -165.67)"/><path class="cls-9" d="M501.38,525.8a1.06,1.06,0,0,0,.12-.34s0,0,0-.05a1.47,1.47,0,0,0,0-.72,1.17,1.17,0,0,0-.09-.24,1.5,1.5,0,0,0-2-.69c-1.25.61-2.53,1.16-3.82,1.69-2.36,1-4.76,1.83-7.11,2.67A1.5,1.5,0,0,0,489,531a1.52,1.52,0,0,0,.51-.09,109.48,109.48,0,0,0,11.23-4.49A1.53,1.53,0,0,0,501.38,525.8Z" transform="translate(-441.75 -165.67)"/><path class="cls-9" d="M519.29,517.05c-3.16.86-5.12,3.93-5.12,8,0,6.52,4.87,9.49,9.39,9.49,3.21,0,8-2.88,8-9a9.11,9.11,0,0,0-8.78-9.09A12.89,12.89,0,0,0,519.29,517.05Zm9.24,8.47c0,4.12-3,6-5,6-2.95,0-6.39-1.7-6.39-6.49,0-1,.21-4.4,2.91-5.13a10.9,10.9,0,0,1,2.67-.51A6.08,6.08,0,0,1,528.53,525.52Z" transform="translate(-441.75 -165.67)"/><path class="cls-9" d="M545.76,528.52a1.49,1.49,0,0,1,1.67-2.27c1,.31,2,.64,2.94,1,12.38-6.44,22-19.69,25.45-35.43a1.51,1.51,0,0,0-1.15-1.79,1.48,1.48,0,0,0-1.78,1.14c-3.3,15-12.43,27.6-24.17,33.57.6-3,1-5.42,1.25-7.57a1.5,1.5,0,0,0-3-.33A100.26,100.26,0,0,1,545.16,527a1.5,1.5,0,0,0,.5,1.47Z" transform="translate(-441.75 -165.67)"/><path class="cls-9" d="M545.56,527.26a1.5,1.5,0,0,0,.2,1.26,1.48,1.48,0,0,0,.81.61c1.31.39,2.61.85,3.87,1.28a52,52,0,0,0,7,2.08l.3,0a1.5,1.5,0,0,0,.29-3,49.35,49.35,0,0,1-6.58-2l-1.06-.36c-1-.33-1.93-.66-2.94-1A1.51,1.51,0,0,0,545.56,527.26Z" transform="translate(-441.75 -165.67)"/></g></g></svg>