<svg xmlns="http://www.w3.org/2000/svg" viewBox="0 0 415.57 653.56"><defs><style>.cls-1{isolation:isolate;}.cls-2{fill:#42799b;}.cls-3{fill:#d9e6ed;}.cls-4,.cls-5{fill:#e4cbb9;}.cls-4{stroke:#e4cbb9;stroke-miterlimit:10;}.cls-6{fill:#82cecd;}.cls-7{fill:#fff;}.cls-8{fill:#dd708d;}.cls-9{fill:#4e4f7d;}.cls-10{fill:#edbf2e;}.cls-11{fill:#f5b6a3;}.cls-12{mix-blend-mode:multiply;}.cls-13{fill:#e0dfe6;}</style></defs><title>strategiai</title><g class="cls-1"><g id="Réteg_17" data-name="Réteg 17"><rect class="cls-2" width="415.57" height="626.93"/><path class="cls-3" d="M660.85,502.68a6.68,6.68,0,0,0-2.78.67,7.82,7.82,0,0,0-4.55,11.52,8,8,0,0,0,3.61,3.08,6.13,6.13,0,0,0,3.87,1.42,5.78,5.78,0,0,0,4.39-2,6.66,6.66,0,0,0,2.29-2.85C669.77,509.51,666.78,502.63,660.85,502.68Z" transform="translate(-433.61 -243.81)"/><path class="cls-3" d="M719.94,506.24c-.75-2.89-3.25-4.56-6-5.08a6.38,6.38,0,0,0-1.56-.7,6.12,6.12,0,0,0-4.59.6,6,6,0,0,0-2.74,3.56l-.11.82a5.67,5.67,0,0,0-.6,2.44,7.33,7.33,0,0,0,1,4.47,6.71,6.71,0,0,0,1.35,1.6,9.15,9.15,0,0,0,.86,1.11,6.5,6.5,0,0,0,4.82,2.1,6.72,6.72,0,0,0,5.64-3.38C719.34,511.55,720.64,508.91,719.94,506.24Z" transform="translate(-433.61 -243.81)"/></g><g id="Réteg_5" data-name="Réteg 5"><path class="cls-4" d="M757.67,496.88a10,10,0,0,0-4.84.13,9.26,9.26,0,0,0-1.58.23l0,0A2.72,2.72,0,0,0,751,497a58.52,58.52,0,0,0-3.49-21.42,33.06,33.06,0,0,1-1.25-5.73,6.76,6.76,0,0,0-.08-4.77c-2.49-6.05-3.87-12.36-5.23-18.73-1.22-5.79-1.78-14.06-6.93-17.8-6.51-4.74-15,.19-15.75,7.78q-.07.75-.09,1.53a26.13,26.13,0,0,0-13,4,33.29,33.29,0,0,1-5.4,2.82c-1.16.39-2.31.84-3.47,1.3l-1.25.41a88.27,88.27,0,0,0-10.31.9,22.84,22.84,0,0,0-4.75,1.67h-.41a9,9,0,0,0-4.4,1.15,50.47,50.47,0,0,0-7.92,1.58,10.75,10.75,0,0,0-2.28.23l-.43.1a35.48,35.48,0,0,0-11.37,3l-1.82.89c-5.21,1.77-10.07,4.08-13.66,7.93a29,29,0,0,0-8.1,7.31c-3.41,4.64-5.61,10.38-7.29,15.87a24.55,24.55,0,0,0-1,10.21c.37,3.26,1,6.07.2,9.31a8.56,8.56,0,0,0,1.79,7.82,10.75,10.75,0,0,0-1.54-.14l-1.43.12a14,14,0,0,0-2.61-2.09c-2.71-1.59-6.29-1.54-9.32-1.27-6.16.55-9.16,5-9.71,10.2-1.05,2.93-.83,6.49,1.26,8.75,2.62,6.24,8.75,9,15.41,9.84a6.56,6.56,0,0,0,2.08-.07c.11.41.23.82.38,1.23s.41,1.05.61,1.57a8.74,8.74,0,0,0-.26,2.06V545a6.87,6.87,0,0,0,.59,3.05,16,16,0,0,0,.34,3.5c.31,1.54.76,2.87,1.1,4.22l.42,4.19a11,11,0,0,0,2.13,5.6,11.69,11.69,0,0,0,1,5.63c1,2.23,1.91,4.48,2.92,6.71s2.66,4,4,6.09c.71,1.15,1.15,2.7,2,3.94a12.26,12.26,0,0,0,7,5.25c3.71,3.33,7.69,6.45,11.31,9.67a9.52,9.52,0,0,0,3.35,2q.81,3.36,1.75,6.68a16.94,16.94,0,0,0,2.52,5.16l.74,2.36a13.81,13.81,0,0,0-2.43,3.39c-1.24,2.43-2.41,4.89-3.56,7.37a16,16,0,0,0-8,10.16c-2.08,9.12,2.74,18.23,11.87,20.91a27.5,27.5,0,0,0,11.75.89c.07.38.16.76.26,1.14l.41,2.34a16.37,16.37,0,0,0,14.13,12.18,13,13,0,0,0,6.78-.3l4.06-1.72a17.06,17.06,0,0,0,6.1-6.1l1.71-4.06a17.18,17.18,0,0,0,.47-6.68c.24-.36.48-.74.69-1.13,3.16-5.85,5.58-11.66,6.12-18.34a38.4,38.4,0,0,0-1.28-11.66c.49-1.05,1-2.1,1.46-3.14a10.82,10.82,0,0,0,1.07-4.67,18.32,18.32,0,0,0,4.35-3.12,5,5,0,0,0,.82.77,5.74,5.74,0,0,0-.18,1.38c0,.33,0,.66.08,1,0,0,0,.15,0,.54,0,0,0,0,0,.06a7.26,7.26,0,0,0,.2,3.31A5.57,5.57,0,0,0,722,629c4,0,5.87-3.19,5.74-6.26a4.65,4.65,0,0,0,.37-2.2,11.66,11.66,0,0,1-.06-1.32c0-.21,0-1.46,0-.53s.1-.25.17-.5c.13-.42.29-.83.45-1.24a4,4,0,0,0,.24-1.64,8.4,8.4,0,0,0,1.7-5.2,10.15,10.15,0,0,0-2.38-6c-.76-1-1.49-2.05-2.19-3.11.3-.5.59-1,.9-1.52a5.35,5.35,0,0,1,2.69-4.55c1.19-2.07,2.36-4.17,3.5-6.27l.44-.19c2.28-1,3.94-3.5,5.48-5.4,2.45-3,4.7-6.64,4.22-10.74,0-.3-.07-.58-.11-.86l.63-.78a10.39,10.39,0,0,0,2.53-6.5,25.9,25.9,0,0,0,1.28-6.68c1.33-3.38,2.58-6.79,3.78-10.22a20.2,20.2,0,0,1,.24-3.09,18.4,18.4,0,0,0,.48-5.32,4.79,4.79,0,0,1,1.45-4.38,18.31,18.31,0,0,0-1.25-3.86c-.09-1-.17-1.89-.19-2.76,0,0,0-.08,0-.12v-.12c.11-.17.22-.38.37-.65.53-1,1-1.91,1.46-2.86a18.9,18.9,0,0,0,6.65-6.25c1.92-3,2.6-6.49,3.36-9.9C765,503.37,762.57,498,757.67,496.88ZM666.9,516.06a6.79,6.79,0,0,1-7.84,3.57c-2.89-.81-4.48-3.65-5-6.42a11.39,11.39,0,0,1-.22-2.32,6.42,6.42,0,0,1,0-1.16,6.61,6.61,0,0,1,.85-2.64,7.46,7.46,0,0,1,1.6-2.23,4.41,4.41,0,0,1,3-1.19,6.05,6.05,0,0,1,4,.56,6.49,6.49,0,0,1,.77-.05c2.91.06,4.55,2.7,4.68,5.31A13.15,13.15,0,0,1,666.9,516.06Zm53-6.37a8.32,8.32,0,0,1-.6,1.67,8,8,0,0,1-.85,1.68,4.76,4.76,0,0,1-1.48,1.42c-1.15,2.06-3.73,2.69-6,2.18a5.53,5.53,0,0,1-1.12-.4,7.44,7.44,0,0,1-2.6-2,4.23,4.23,0,0,1-.53-.51,8.19,8.19,0,0,1-1.33-8.41,5.2,5.2,0,0,1,4.37-3.33,6.2,6.2,0,0,1,1.35-.41,6.41,6.41,0,0,1,2.55.07,6.89,6.89,0,0,1,4.11,1.17C720.06,504.4,720.45,507.19,719.88,509.69Z" transform="translate(-433.61 -243.81)"/><path class="cls-5" d="M668.74,748.9v0h0Z" transform="translate(-433.61 -243.81)"/><path class="cls-5" d="M668.1,636.16a.83.83,0,0,1-.08.12S668.06,636.23,668.1,636.16Z" transform="translate(-433.61 -243.81)"/><path class="cls-5" d="M722.41,636.37a13.77,13.77,0,0,1-3.2-4.22,6,6,0,0,0-1.29-2.56c-.07-.3-.13-.61-.18-.91-.48-3.15.12-6.23-.92-9.33-1.34-4-5.4-4.81-8.39-3.57-4.23-.94-9.44,3.74-6.77,8.87,1.27,2.46,2.6,4.9,4,7.32l-.4-.05a9.24,9.24,0,0,0-9,4.3,11.94,11.94,0,0,0-.64,1.46,8.3,8.3,0,0,0,.2,8.56,14.94,14.94,0,0,1,.85,1.7,9.06,9.06,0,0,1-.45.79c-1.65,2.32-3.67,4.41-5.38,6.69a23.89,23.89,0,0,0-1.52,2.36,7.75,7.75,0,0,0-3.1-2.52h0c.59-4.84-4.55-9-9-9a8.45,8.45,0,0,0-8,5.29c-.85-.36-1.7-.7-2.57-1a19.15,19.15,0,0,0-2.88-.78l-.39-.06s0-.07-.1-.12a45.4,45.4,0,0,1-4.09-4.46c.81-.43,1.61-.88,2.41-1.36a7.54,7.54,0,0,0,3.14-2.25,11.78,11.78,0,0,0,2-3.42,11.31,11.31,0,0,0,1.3-1.84c-.16.14,2-4.86.78-2.14a25.08,25.08,0,0,0,1.76-4.51,9.44,9.44,0,0,0,2.86-6.46V623a35.71,35.71,0,0,0,.57-4.15,9,9,0,0,0-2.64-6.36,9.38,9.38,0,0,0-5.55-2.62A8.64,8.64,0,0,0,660.1,611c-1.84,1.19-3.78,3.12-4.13,5.38-.14.87-.27,1.74-.41,2.6a16.54,16.54,0,0,0-2.18,5.06c-.1.44-.18.9-.27,1.34,0,.09,0,.14,0,.21a5,5,0,0,1-.28.49,9.65,9.65,0,0,0-2.77,3.55,33,33,0,0,0-6,3.6,9.29,9.29,0,0,0-1.31-.09c-11.3,0-11.59,17.12-.82,18,.32.74.66,1.45,1,2.12a41.41,41.41,0,0,0,8.47,10c3.81,3.44,8.11,3.46,12.44,5.66a9.13,9.13,0,0,0,4.84,1,27.51,27.51,0,0,1-.7,7.83c-.92,3.59-.89,7.12-1.27,10.57a12.06,12.06,0,0,0-1.63,2.9c-.33.82-.63,1.65-.92,2.48a15.19,15.19,0,0,0-4.32,9.94,12.7,12.7,0,0,0-6.52,6.51q-2,4.56-3.94,9.12c-.06.14-.13.28-.2.43l-.59.25a108.54,108.54,0,0,0-16.11,9.4l-.26.19a17.73,17.73,0,0,0-2.13-.27,12.17,12.17,0,0,0-2.68.36l-.15,0-.23,0a6.89,6.89,0,0,0-2.86,0,6.63,6.63,0,0,0-3.34,1.07,10.06,10.06,0,0,0-4.14,5.38c-.1.79-.21,1.59-.32,2.39,0,.15,0,.3,0,.44a9.16,9.16,0,0,0-.07,4.74,14.19,14.19,0,0,0,.58,1.74,51.49,51.49,0,0,0-.28,13.2,30.73,30.73,0,0,0,2.27,8.51c.13,2.15.4,4.32.72,6.47a12.71,12.71,0,0,0-.91,4.95,9.37,9.37,0,0,0,2.64,6.37,9.54,9.54,0,0,0,2.87,1.91,13.08,13.08,0,0,0,3.11,2.81,8,8,0,0,0,3.65,1.16,8.1,8.1,0,0,0,4.8.05A9.45,9.45,0,0,0,639,789l.43-.18a8.78,8.78,0,0,0,1-.55,11.12,11.12,0,0,0,4.81-6.21,7.68,7.68,0,0,0,.19-.83,5,5,0,0,0,3.21-1.52,4.46,4.46,0,0,0,1.41-1.17,41.61,41.61,0,0,0,3.41-4c1.22-1.41,2.45-2.82,3.67-4.24a69.52,69.52,0,0,0,7.51-8.83c4.29-6.2,7.72-13.15,11.35-19.8.48-.78.94-1.56,1.36-2.37a13.66,13.66,0,0,0,2.88-3.37,4.55,4.55,0,0,0,.33-3.75c.7-1.67,1.39-3.35,2.11-5a23.8,23.8,0,0,0,1.48-4.8,6,6,0,0,0,1.61-3c0-.07,0-.15,0-.23a5.09,5.09,0,0,0,.37-1.32,4.29,4.29,0,0,0,.88-1.51c.12-.36.22-.72.33-1.07a3.5,3.5,0,0,0,.52-.5c.24-.31.46-.62.68-.93l0,0,.06-.13a11.85,11.85,0,0,0,2.11-5.56,37.88,37.88,0,0,0,1.47-7.69,40.35,40.35,0,0,0,1.38-6.12c.81-2,1.72-4,2.45-6a70,70,0,0,0,3.14-12.26c0-.09,0-.17,0-.26,1-1.56,1.89-3.21,2.83-4.87a73.84,73.84,0,0,1,7.09-9.76c3.6-4.45,5.76-9.15,5.69-14,.1-.22.19-.43.28-.65a6,6,0,0,0,2.56.54,5.43,5.43,0,0,0,4.63-2.28l.08-.06C724.46,642.73,725,638.35,722.41,636.37Z" transform="translate(-433.61 -243.81)"/><path class="cls-5" d="M824.12,850.64c-.28-3.4-2.55-6.25-4.11-9.26.35-6.5-2.68-12.62-4.42-19-1.12-4.1-1.31-8.22-2.16-12.35a20.13,20.13,0,0,0-1.09-3.67c.11-4.51.4-9,.14-13.63a60.67,60.67,0,0,0-.63-6.14,2.3,2.3,0,0,0,.76-1.75c0-2.74.44-5.7.06-8.41-.4-2.88-2.41-3.16-4.87-3.07a2.33,2.33,0,0,0-1.92,1,9.21,9.21,0,0,0-.93-.51c-3.35-1.49-7.81-1.13-11.43-1.23-3.22-.09-6.45-.08-9.68,0a10.65,10.65,0,0,0-1.43-.25,35.08,35.08,0,0,0-13.32,1.33,7.05,7.05,0,0,0-2.24,1.13,2.49,2.49,0,0,0-3.19,3.8l.47.39a6.68,6.68,0,0,0,.07,3.29,6.89,6.89,0,0,0,1.18,2.34,6.71,6.71,0,0,0-.33,2.59,48,48,0,0,0,3.17,14.85c.22,1.25.41,2.5.59,3.75.57,13.75,3.34,27.44,2.49,41.27-.35,5.78,5.3,7.83,9.54,6.18,0,.09,0,.19.08.28a6.92,6.92,0,0,0,10.4,3.88,8.2,8.2,0,0,0,1,.23c2.58,3.47,7.71,2.71,10.5-.15a7.42,7.42,0,0,0,5.84,2.52,24.49,24.49,0,0,0,3.31,2.78c4.5,3.15,11-1.39,10.56-6.49A8.35,8.35,0,0,0,824.12,850.64Z" transform="translate(-433.61 -243.81)"/></g><g id="Réteg_16" data-name="Réteg 16"><path class="cls-2" d="M662.52,504.37c-4.5,0-4.51,7,0,7S667,504.37,662.52,504.37Z" transform="translate(-433.61 -243.81)"/><path class="cls-2" d="M712.35,502.54c-4.51,0-4.51,7,0,7S716.86,502.54,712.35,502.54Z" transform="translate(-433.61 -243.81)"/></g><g id="Réteg_6" data-name="Réteg 6"><path class="cls-6" d="M810.68,768.77l.21-1.59a5.87,5.87,0,0,0-.81-3l-.2-.39a4.11,4.11,0,0,0-.68-1c0-.29.08-.57.1-.86,3-6,1.49-12.72-.29-19.09a7.73,7.73,0,0,0,.39-3.11,112.87,112.87,0,0,1-.24-16.24c.32-5.31,1.14-10.09.31-15.41a7,7,0,0,0-1-2.74c.12-1.32.24-2.65.25-4,.1-8-2.25-16.32-3.78-24.18a8.43,8.43,0,0,0-1.15-2.93h0c.38-4.11-2.7-7.77-6.43-9.27a16.7,16.7,0,0,0-3-3.57,24.18,24.18,0,0,0-5.58-4.93c-.2-.19-.4-.39-.62-.57-2.41-2-5.08-3.72-7.67-5.5a9,9,0,0,0-7.2-1.1h0c-3.1-2.07-7.46-2.8-11-2.94-2.83-.12-5.46.18-8.2.07a87.65,87.65,0,0,0-18.23-2.78c-.22-.16-.44-.34-.69-.49a10.7,10.7,0,0,0-5.46-1.6,6.22,6.22,0,0,0-2.6-1.05,5.47,5.47,0,0,0-2.61-.62,6,6,0,0,0-4.21,1.74c-.09.1-.16.22-.25.33a5.15,5.15,0,0,0-2.27,2h0a6.06,6.06,0,0,0-1,1.36,5.32,5.32,0,0,0-.54.75,6.29,6.29,0,0,0-.77,3.74,6.79,6.79,0,0,0,0,1c-.17.27-.34.54-.5.81a45.11,45.11,0,0,0-2.93,6.22,18.33,18.33,0,0,1-1.64,1.82,9.32,9.32,0,0,0-3,5.77,39.55,39.55,0,0,0-4.58,6.14,36.78,36.78,0,0,0-5.23,19.85,7.68,7.68,0,0,0-.37,1.24,10.85,10.85,0,0,0-.89,3.17,10,10,0,0,0-1.66,3.7q-.79,3.43-1.62,6.87a27.37,27.37,0,0,0-4.2,11.95c-5.6,10-9.94,20.46-14.21,31a80,80,0,0,0-4.72,7.8c-.26.49-.51,1-.75,1.49-5.83,7-11.13,14.5-16.5,21.87a39.14,39.14,0,0,0-9.69,6.06,24.18,24.18,0,0,1-3.81,3.31c-1.12.68-2.37,1.09-3.48,1.83a19.26,19.26,0,0,0-3.46,3c-.81.23-1.41.41-1.61.49a14.42,14.42,0,0,0-2.22,1.12,37.22,37.22,0,0,0-4-1.39l0-.12a18.29,18.29,0,0,0-1.53-3.89c-.11-.19-.23-.36-.35-.55-.53-2.47-1.09-4.93-1.72-7.38a16.31,16.31,0,0,0-2.56-5.41l-.16-1.84a12.08,12.08,0,0,0-1.77-5.39c-.44-10.65-.21-21.31.09-32a33.06,33.06,0,0,0-.85-8.24,77.8,77.8,0,0,0,7.87-2.24,8.33,8.33,0,0,0,4.87.3,6.72,6.72,0,0,0,1.35.07l2.66-.35a10.05,10.05,0,0,0,4.41-2.57l1.2-1.24a14.13,14.13,0,0,0,6.35-3.31,21.48,21.48,0,0,0,2.16-2.4,14.36,14.36,0,0,0,6-6.17,22.48,22.48,0,0,0,2.45-3.71,11.4,11.4,0,0,0,.68-1.58,31.92,31.92,0,0,0,4.65-7.7,49.36,49.36,0,0,0,2.33-7.59,9.67,9.67,0,0,0,1.83-3.62c.68-2.51.25-5.15.91-7.65a4.25,4.25,0,0,0,.11-1.35,10.88,10.88,0,0,1,.9-2,3.93,3.93,0,0,0,.56-1.68c.46-2.25-.78-4.92-3.76-4.92a4.79,4.79,0,0,0-.78.08c-1.77-2.23-4.59-3.74-8.61-4.06-.56-.2-.94-.33-1.18-.39l-.56-.62c-1.45-1.93-3.37-3.13-5.25-4.59-2.12-1.65-3.13-2.43-3.77-5.22a9,9,0,0,0-3.57-5.57c-.52-2.56-1.13-5.09-1.9-7.59-.09-1.34-.14-2.69-.13-4a4,4,0,0,0-4-4,4.15,4.15,0,0,0-3.53,2.21c-.1,0-.18.1-.27.14a3.53,3.53,0,0,0-2.11,0,4.25,4.25,0,0,0-1.5.85.45.45,0,0,0-.11,0c-2.47-.57-5.57-.56-7.71,1-.81.6-1.61,1.2-2.39,1.82l-.31.05c-3.8.71-7.61,1.6-11.34,2.62a81.73,81.73,0,0,0-22.41,10.32c-2.93,1.86-5.84,3.7-8.65,5.68a7.49,7.49,0,0,0-3,1.27,72.92,72.92,0,0,0-26,33.43,11.09,11.09,0,0,0-2.34,4c-.65,2-1.35,3.89-2.07,5.81a33.07,33.07,0,0,0-2.15,4.45,13.32,13.32,0,0,0-1.05,4c-.07.75-.15,1.49-.23,2.23a45.08,45.08,0,0,0-2.58,6.73,20.85,20.85,0,0,0,.07,8.18,116.12,116.12,0,0,0-1,28.46,13,13,0,0,0,.51,2.58,176.31,176.31,0,0,0,.55,28.25c1.17,10.38,3.1,20.62,4.88,30.9.36,2.07.69,4.14,1,6.22a11.55,11.55,0,0,0-.46,2.68,13.2,13.2,0,0,0,1.09,5.67,12.15,12.15,0,0,0-.64,5.16c.12,1.12.25,2.23.37,3.35a33.25,33.25,0,0,0,.82,4.76c.19,9.1,8.8,17.56,18,17.15a18.68,18.68,0,0,0,14-6.89,63.6,63.6,0,0,0,39.72,14.06c7.91,3.49,16.59,1.59,23.91-4.29l1.26-1,1.41-1.06a23.8,23.8,0,0,0,13.84.66c.24.14.47.3.72.43a22.52,22.52,0,0,0,10.5,2.71c2.56,9,9.48,18.6,17.83,23,9.05,4.79,20,7.18,30.05,3.93,9.2-3,19-8.86,23.31-17.92a101.61,101.61,0,0,0,4.48-10.88,8.66,8.66,0,0,0,6-6.5v-.05c5.58-1.58,7.79-6.95,6.9-12.27a34.89,34.89,0,0,1,.1-10.65c.58-4.15.11-8.76,1-12.7,2-8.54,4.07-16.6,4.88-25.36a19,19,0,0,0,1.42-3.36,21.82,21.82,0,0,0,.78-5.74c0-.47,0-.94,0-1.41a9.34,9.34,0,0,0,1.94-5.67c0-2.92,0-5.83-.07-8.75a7.59,7.59,0,0,0,2.94-.84,7.5,7.5,0,0,0,2.88-1.75l17.19-.64a83.54,83.54,0,0,0,10.67-.73,10.76,10.76,0,0,0,3.16.46c.26,0,.5,0,.74,0a6.42,6.42,0,0,0,3,1.85,6.22,6.22,0,0,0,2.79.08,2.18,2.18,0,0,0,1.94,1,2.93,2.93,0,0,0,2.88-2.88,2.13,2.13,0,0,0-.55-1.55A5.36,5.36,0,0,0,810.68,768.77Z" transform="translate(-433.61 -243.81)"/><path class="cls-5" d="M676.26,729.89a6,6,0,0,0-7.78,1.64,6.27,6.27,0,0,0-2.65,4l-2.5,3.78a5.93,5.93,0,0,0,1.53,7.68h0a6.51,6.51,0,0,0-8.14,3.63c-.28.69-.57,1.38-.85,2.08-.68.83-1.4,1.63-2,2.44-1,1.27-2.25,3.37-3.44,4.23-2.38,1.72-3.64,4.63-2.5,7.39-2.89,2.95-6.68,4.72-9.28,7.9a6.24,6.24,0,0,0-1.25,2.44,9.64,9.64,0,0,0-8.44-2,9.09,9.09,0,0,0-5.37,4.13l-.91,2.15a9.53,9.53,0,0,0-.25,1.38,11.93,11.93,0,0,0-.13,5.22,6.77,6.77,0,0,0,1.3,2.68c-.46,2.51.95,5.44,4.26,5.44a4.13,4.13,0,0,0,3.32-1.5,7.09,7.09,0,0,0,2.19-.33l2.15-.91a8.93,8.93,0,0,0,3.23-3.23A8.3,8.3,0,0,0,640,787a12.8,12.8,0,0,0,.34-2.81A4.79,4.79,0,0,0,647,783c1.77-2.15,4.46-3.37,6.58-5.18a37.19,37.19,0,0,0,5.75-6.46,64.22,64.22,0,0,0,7-13.06,12.31,12.31,0,0,0,2.28-5.64,3,3,0,0,0,0-.6,4.46,4.46,0,0,0-1.85-4.19,5.6,5.6,0,0,0,5.89-1.44,27.84,27.84,0,0,0,3.1-4.07,11.9,11.9,0,0,0,.74-1.53L678.4,738A6,6,0,0,0,676.26,729.89Z" transform="translate(-433.61 -243.81)"/><path class="cls-5" d="M620.78,727.2c-5.79,0-5.8,9,0,9S626.58,727.2,620.78,727.2Z" transform="translate(-433.61 -243.81)"/></g><g id="Réteg_7" data-name="Réteg 7"><path class="cls-7" d="M737,767.12c-.64-10.12-2.71-23.67-11.24-30.16a18.5,18.5,0,0,0-2.29-4.38,11.59,11.59,0,0,0-8.62-5,10.73,10.73,0,0,0-2.1-1,8.51,8.51,0,0,0-2.58-1.79,11.16,11.16,0,0,0-7-2.84l-1.05.14A111.47,111.47,0,0,0,688.05,718c-.12,0-.24,0-.36-.06a7.28,7.28,0,0,0-.69-.44,20.57,20.57,0,0,1-2.6,7.51l-.19.23a44,44,0,0,1-3.91,8.21,10.85,10.85,0,0,1-.55,3,9.47,9.47,0,0,1-2.3,3.68,9,9,0,0,1-1.35,2.24,4.36,4.36,0,0,1-.11.52,7.93,7.93,0,0,1-1.54,3.9,8.15,8.15,0,0,1-.87,1.12,16,16,0,0,1-1.88,3.24,10.46,10.46,0,0,1-1.56,3.6l-.12.13c0,.1-.1.21-.16.31a7.75,7.75,0,0,1-2.45,3.28l-.33.34-.11.15c-.13.31-.25.61-.4.91a12.72,12.72,0,0,1-3.38,5.83l-.09.14a10.55,10.55,0,0,1-3.1,2.93,12.86,12.86,0,0,1-3.54,4.57l-.3.22c-.51,1-1,2-1.58,3a7.89,7.89,0,0,0-2.18,1.71l-4.74,5.23a11.15,11.15,0,0,0-7.62,5.72,11.58,11.58,0,0,0-2.14,2.63,1.42,1.42,0,0,0-.6-.14,1.52,1.52,0,0,0-1.5,1.5,8.55,8.55,0,0,0,.21,2.94,1.2,1.2,0,0,0,.35.62,9.07,9.07,0,0,0,4.78,8.67,14.5,14.5,0,0,0,1.67.84,9.71,9.71,0,0,0,4.27,5.54c2.44,1.56,3.95,5,6.47,6.77a33.79,33.79,0,0,0,6.35,3.35,39.42,39.42,0,0,0,8.76,4.61c9.88,3.63,21.8,2.29,31.89.35a8.07,8.07,0,0,0,3.92-2c.28-.12.56-.24.84-.39,4-2.07,7.4-5.19,10.75-8.17a18.76,18.76,0,0,0,3.92-4.75,24.05,24.05,0,0,0,2.44-1.93,15.26,15.26,0,0,0,4.75-8,13.91,13.91,0,0,0,1-1.2,46.22,46.22,0,0,0,6.54-15.94C735.94,778.89,737.39,772.85,737,767.12Z" transform="translate(-433.61 -243.81)"/></g><g id="Réteg_11" data-name="Réteg 11"><path class="cls-8" d="M718.13,774.61c-.92-20.59-16.7-38-38-38-.59,0-1.17,0-1.75,0a32.83,32.83,0,0,1-2.2,6.17,80.21,80.21,0,0,1-8.25,14,19.59,19.59,0,0,1-1.9,4.26,15.58,15.58,0,0,1-3.62,5c-.31.3-.64.61-1,.92a21.61,21.61,0,0,1-4,4.29c-1.3,3.24-2.83,5.19-5.43,8.27a34.2,34.2,0,0,1-7.57,6.42l-.14.09c5.1,15.16,18.67,26.47,35.84,26.47C700,812.61,719.05,795.13,718.13,774.61Z" transform="translate(-433.61 -243.81)"/></g><g id="Réteg_15" data-name="Réteg 15"><path class="cls-8" d="M521.71,601.15c-.27-1.85-1.52-2-2.9-2.4a1.56,1.56,0,0,0-.94-.4,3.55,3.55,0,0,0-2.07-1.87c-3.57-1.19-5.83,2.21-6.8,5.1a1.28,1.28,0,0,0,.23,1.25c-.87,2-.68,4.33,1.82,5.19l.05,0a1.23,1.23,0,0,0,.7,1.33,4,4,0,0,0,2,.35,2.33,2.33,0,0,0,1.7.07l.14-.07a1.41,1.41,0,0,0,1.67.15c2-1,3.07-3.26,3.53-5.4a4.71,4.71,0,0,0,.11-1.06A2.68,2.68,0,0,0,521.71,601.15Z" transform="translate(-433.61 -243.81)"/><path class="cls-9" d="M501.58,455.09A1.5,1.5,0,0,0,502,453a1.94,1.94,0,0,1-.34-1.14c0-1.38.41-3.22,3.91-3.22,4.28,0,4.86,1.82,4.86,3.61,0,2.54-2.32,4.93-4.36,7-1.88,1.94-3.5,3.61-3.5,5.53a10.53,10.53,0,0,0,1,3.74c.19.47.39,1,.55,1.45a1.51,1.51,0,0,0,1.42,1A1.61,1.61,0,0,0,506,471a1.51,1.51,0,0,0,.95-1.9c-.19-.55-.4-1.09-.61-1.62a8.27,8.27,0,0,1-.77-2.62c0-.7,1.53-2.29,2.65-3.44,2.32-2.4,5.21-5.38,5.21-9.13,0-2.47-1-6.61-7.86-6.61-4.32,0-6.91,2.32-6.91,6.22a5,5,0,0,0,.85,2.81A1.5,1.5,0,0,0,501.58,455.09Z" transform="translate(-433.61 -243.81)"/><path class="cls-9" d="M507.59,485.29a3,3,0,0,0,3.1-3,3.51,3.51,0,0,0-2.06-3.08,1.78,1.78,0,0,0-.2-.45,1.5,1.5,0,0,0-2.08-.41,4.2,4.2,0,0,0-.72.59,1.51,1.51,0,0,0-1.16,1.46,1.62,1.62,0,0,0,.07.44,4.54,4.54,0,0,0-.15,1.18A3,3,0,0,0,507.59,485.29Zm-.2-3.34a.72.72,0,0,1,.33.32,1.41,1.41,0,0,1-.31,0,1.51,1.51,0,0,1,0-.26Z" transform="translate(-433.61 -243.81)"/></g><g id="Réteg_12" data-name="Réteg 12"><path class="cls-7" d="M657,804.71c-1.89-3.53-3.93-5.47-4.73-9.6a60.55,60.55,0,0,1-.95-13.44c.51-.55,1-1.1,1.47-1.66a18.56,18.56,0,0,1-1.66.85,22.07,22.07,0,0,1-9.71,7,73.06,73.06,0,0,0,1.2,9.87,25.52,25.52,0,0,0,1.84,6.19c1,2.16,2.79,3.72,3.91,5.8C651.41,815.43,660.05,810.39,657,804.71Z" transform="translate(-433.61 -243.81)"/></g><g id="Réteg_9" data-name="Réteg 9"><path class="cls-7" d="M685.72,411.44a13.18,13.18,0,0,0-17.79-4.67c-.67.4-1.34.79-2,1.15-.24.1-.77.34-1,.43-2,.66-4,1.24-5.93,1.83a67.13,67.13,0,0,0-12.7,5c-5.65,3-7.82,10.54-5.32,16.23,2.67,6.08,8.85,9,15.34,7.53L669.35,436c4.86.28,10.12-1.74,12-6.29l.3-.71.14-.33A13.22,13.22,0,0,0,685.72,411.44Z" transform="translate(-433.61 -243.81)"/><path class="cls-10" d="M759.41,392.93c-.29.29-.58.56-.88.84a11.08,11.08,0,0,0-4.38-.19l-5.51.41a19.38,19.38,0,0,0-2.88.36,11.42,11.42,0,0,0-4.17-2.51,9.39,9.39,0,0,1-8.54.54l-5.69,1.95c-1.28-.14-2.55-.28-3.83-.4a12.14,12.14,0,0,0-2.6-.25h-.39a80.61,80.61,0,0,0-14,.08q-.79.09-1.56.24c-10.63.47-21.41,1.22-31.66,4.14l-1.38.41a97.61,97.61,0,0,0-21.51,5.15c-16.79,6.11-32.36,16.49-40.63,32.81a15,15,0,0,0-1.53,5.31c-.24.49-.49,1-.71,1.47-.05.09-.1.19-.14.28a4.91,4.91,0,0,0-1.71,3.49c0,.25,0,.49,0,.73s-.22.68-.31,1a12.42,12.42,0,0,0-.36,4.68c-1.45,4.83-1.13,10.34-.71,15.39.87,10.46,2.15,20.87,3.74,31.24a4,4,0,0,0,2.25,3.23c0,1.34,0,2.67,0,4a4.9,4.9,0,0,0,.54,2.41h0l-.26,0c-.52,0-.64.68-.25.93A33,33,0,0,0,614,513c2.56,1.9,6,3.13,8.75,2.78.52-.07.73-.84.14-1l-.49-.13a.61.61,0,0,0,.06-.35.47.47,0,0,0,.17-.47.48.48,0,0,0,0-.42l0-.06a.53.53,0,0,0-.37-.84l-.12,0a2.35,2.35,0,0,0,.27-.86,2.54,2.54,0,0,0-.46-1.8q-.17-2.9-.32-5.81a2.42,2.42,0,0,0-1.34-2.09v-.11a4.9,4.9,0,0,0,1.16-3.06c.21-5,.29-9.82,1.78-14.64,1-3.21,2.13-6.39,3.28-9.56a10.91,10.91,0,0,0,5.73-7.51,14.47,14.47,0,0,1,1.28-3.63,1.05,1.05,0,0,0,.11-.07c15.95-12.08,36.1-13.59,55.07-17.59,3.6-.76,7.16-1.67,10.71-2.63l2.29-.37c.57-.09,1.1-.21,1.63-.33a44.52,44.52,0,0,0,5.8-.84c5-1.1,9.53-2.72,14.48-3.21a15.79,15.79,0,0,0,8.78-3.65c.68-.23,1.34-.48,2-.74.2,1.2.43,2.4.74,3.57a28.72,28.72,0,0,0,1.53,4.28c.28.65,1.32,2.12,1.34,2.71a4.74,4.74,0,0,0,3.41,4.55c1.27,2.83,2.57,5.63,3.88,8.43a35.22,35.22,0,0,0,2.15,8.11,67.61,67.61,0,0,0,1,9.79,4.45,4.45,0,0,0,1.22,2.46,5.11,5.11,0,0,0,.77,2.14c1.09,3.84,2,7.79,1.41,11.79-.5,3.15,4.32,4.5,4.82,1.33a24.64,24.64,0,0,0,.23-5.54,2.68,2.68,0,0,0,3-2.37,44.56,44.56,0,0,0-.27-10.45,1.75,1.75,0,0,0-.36-.85c0-.12,0-.25,0-.38a4.35,4.35,0,0,0,.37-1.91c0-.17,0-.34,0-.5a4.27,4.27,0,0,0,0-.71c0-2.27-.14-4.53-.25-6.8.88-5.05-.6-11.71-1.2-15.26a4,4,0,0,0-1.41-2.5c-.12-.88-.26-1.77-.43-2.65-1.38-7-4.59-13.54-8-19.83a11.22,11.22,0,0,0,1.27-4.44,12.42,12.42,0,0,0,6.34-9.44l1.78-2.76a15,15,0,0,0,2.53-3.88,5.88,5.88,0,0,0,2-3.92l0-.27a3.39,3.39,0,0,0-.15-1.39l.88-.83C765.24,394.2,761.7,390.67,759.41,392.93Z" transform="translate(-433.61 -243.81)"/></g><g id="Réteg_8" data-name="Réteg 8"><path class="cls-11" d="M691.47,780.52a1.87,1.87,0,0,0-.83-.71,3.31,3.31,0,0,0-1.56-1.53,5.36,5.36,0,0,0-2.08-3.52,5.61,5.61,0,0,0-2.47-3.1,7,7,0,0,0-1.53-.6c-.26-.89-.51-1.79-.77-2.69a1.51,1.51,0,0,0-3,.4,2.81,2.81,0,0,1,0,.29,2.31,2.31,0,0,0-.19.14c-1.82,1.68-2.63,4.28-3.88,6.37a7.53,7.53,0,0,0-1.12,4.2,1.59,1.59,0,0,0-.86,2.57c.72.81,1.16.54,1.87.61a1.51,1.51,0,0,0,1.53.31,1.33,1.33,0,0,0,.84.53,5.44,5.44,0,0,0,.54.27,5.86,5.86,0,0,0,3.54.28,5.49,5.49,0,0,0,2.3.46,5.07,5.07,0,0,0,4-1.79l.26-.07c1.36.38,2.63.28,3.31-.91A1.49,1.49,0,0,0,691.47,780.52Z" transform="translate(-433.61 -243.81)"/><path class="cls-11" d="M525.55,529.05a16.5,16.5,0,0,0,2.29-5.61c.07-.15.13-.31.19-.47a7.89,7.89,0,0,0,1.4-2.09c1.25-2.88.63-5.73-.44-8.48a9.65,9.65,0,0,0-2.56-5.91c-.35-.38-.73-.74-1.12-1.09-2.23-3.2-5.22-5.89-9-6a6.28,6.28,0,0,0-.75,0c-4.55-1.21-10.35-.12-14.13,1.91a15.58,15.58,0,0,0-8,13.53,18.4,18.4,0,0,0,7.46,14.7,18.12,18.12,0,0,0,3.64,2.07,7.31,7.31,0,0,0-1.64,1.07,15.49,15.49,0,0,0-4.56,7.4c-2.18,2.49-3.34,5.66-4.56,8.9-1.78,4.73.81,8.9-.42,13.65-1.62,6.28,6.32,9.51,10,5.88l.54-.2a6.12,6.12,0,0,0,2.61-.19,40.65,40.65,0,0,0,5.16.22l6.88.14a6.28,6.28,0,0,0,2-.28,5.19,5.19,0,0,0,2.73-.11c.18-.06.34-.14.51-.21a4.11,4.11,0,0,0,1.55.3,3.61,3.61,0,0,0,3.38-2,3.65,3.65,0,0,0,.12-4.05c-.22-.37-.42-.75-.62-1.12,1.64-4.18-.25-10.2-1.57-14.86.12-1.2.2-2.41.22-3.62a6.18,6.18,0,0,0-2.77-5c-.15-.57-.3-1.15-.47-1.73a6.41,6.41,0,0,0-.68-1.47c0-.34-.09-.68-.15-1a6,6,0,0,0-.28-1.11A16,16,0,0,0,525.55,529.05Z" transform="translate(-433.61 -243.81)"/><path class="cls-11" d="M476.89,553.87a8.09,8.09,0,0,0,.4-3.65c-.4-3.51-3.39-6.2-4.28-9.24a5.77,5.77,0,0,0-1.75-2.83c0-.14,0-.28,0-.42a6,6,0,0,0,2.52-2.1,9.74,9.74,0,0,0,.86-1.63c3.69-3.37,3.17-9.1,0-13.15-.07-.09-.15-.16-.22-.24s-.26-.29-.4-.43l-.06,0a7.06,7.06,0,0,0-3.57-1.77,8.83,8.83,0,0,0-2.15-1c-3.27-1-7.67-.78-10.09,1.89a8.1,8.1,0,0,0-1.86,5.38,9.34,9.34,0,0,0-.62,2.31,8.66,8.66,0,0,0,1.33,6,6.16,6.16,0,0,0,2.68,3.8c0,1.23,0,2.45-.09,3.64a5.16,5.16,0,0,0-2.13,2.53,11.87,11.87,0,0,0-2.82,7.22l0,0a6.62,6.62,0,0,0-1.51,2.61,6.08,6.08,0,0,0,.61,4.59,6,6,0,0,0,3.55,2.74l1.59.21h0a5.88,5.88,0,0,0,3.42-.39,16,16,0,0,0,3.64.72,7.69,7.69,0,0,0,4.56-1.16,14,14,0,0,0,1.45-.55,4.1,4.1,0,0,0,1.26.21l.24,0A1.58,1.58,0,0,0,476,558,4.38,4.38,0,0,0,476.89,553.87Z" transform="translate(-433.61 -243.81)"/><path class="cls-11" d="M571.87,550.74a6.54,6.54,0,0,0-1.13-5.62,20.35,20.35,0,0,0-1.18-5.21,6.7,6.7,0,0,0-3.82-4l1.61-2.74a5.49,5.49,0,0,0,.7-2c.43-.78.88-1.56,1.35-2.33l-.09,0a12.69,12.69,0,0,0,.69-1.38,4.73,4.73,0,0,0-1.73-6,6.5,6.5,0,0,0-1.62-4.85c-2.66-3.19-7.14-3.51-10.91-2.38s-7.5,3.49-7.79,7.71a12.43,12.43,0,0,0,1.48,6,8.43,8.43,0,0,0,3.92,7.07,2.16,2.16,0,0,0-.05.27,6.07,6.07,0,0,0-1.11,1.4,29.27,29.27,0,0,0-2.16,4.88,1.55,1.55,0,0,0-2.46,1.16c0,.52-.51.95-.82,1.33a6.41,6.41,0,0,0-1,1.64,3.11,3.11,0,0,0,.52,3.49,2.51,2.51,0,0,0,1.06.6,9.52,9.52,0,0,0-.09,2.33,4.07,4.07,0,0,0,4,4,4.64,4.64,0,0,0,2.81-1.19,2.17,2.17,0,0,0,.36,0,5.79,5.79,0,0,0,.59.72,6,6,0,0,0,7.64.59,3.85,3.85,0,0,0,.77-.17,13.91,13.91,0,0,0,1.4-.4,9,9,0,0,0,1.15-.49h.41a5.91,5.91,0,0,0,2.89-.7,1.49,1.49,0,0,0,2.52-1.08,1.46,1.46,0,0,0,.79-1.3A1.56,1.56,0,0,0,571.87,550.74Z" transform="translate(-433.61 -243.81)"/></g><g id="color"><g class="cls-12"><path class="cls-13" d="M708.77,625.39c.3-2.34-3-2.72-4.08-1.11-3,4.46-4.26,8.52-2.28,13.67s2.72,9.26.26,14.42a6.09,6.09,0,0,0-.28,4.91,91.16,91.16,0,0,0-6,11,172.24,172.24,0,0,0-9.22,26c-5.18,18.19-9.71,36.35-19.51,52.74a5,5,0,0,0-.59,1.42c-2.26,2.87-4.59,5.67-6.92,8.39a114.14,114.14,0,0,1-16.88,16.52,65.69,65.69,0,0,1-10,6.18c-.14-.2-.29-.38-.42-.58-.67-1-1.29-2-1.89-2.94-1.48-2.47-2.88-5-4.11-7.63a74.74,74.74,0,0,1-5.47-16.12c-.62-2.85-4.68-2-4.85.65a56.66,56.66,0,0,0,3.8,25.51c.59,1.42,1.32,3.13,2.19,4.85a5.55,5.55,0,0,0-.95.2c-11.8,3.55-22.89,4.52-34.74.41a53,53,0,0,1-13.63-7.34c-4.66-3.42-8.39-7.83-12.92-11.36a2.37,2.37,0,0,0-3.92,2.28,23,23,0,0,0,1.36,4.95,1.63,1.63,0,0,0-1.26,2c1.13,5.2,4.38,9.81,7.26,14.21a52.69,52.69,0,0,0,11.6,13.21,47.06,47.06,0,0,0,11.62,6.52,70.36,70.36,0,0,0,12.89,5c9.56,2.74,21.73,2.78,30.3-3,8.23-1.39,15.55-5.93,22.07-11.77a3.74,3.74,0,0,0,1.34-3.62l.48-.41c10-5.31,18.41-13.69,24.62-23.09,4.19-6.33,8.6-14.87,10.39-23.39a46,46,0,0,0,3.11-7.66,5.12,5.12,0,0,0,.57.3c9.78,4.61,18.21,11.37,22.37,21.65a38.14,38.14,0,0,1-2.66,33.27c-5.68,9.58-16.09,16.52-27.29,17.26-10.9.73-21.92-4.66-29.66-12.09a1.8,1.8,0,0,0-3,1.74c3.64,14.16,17.12,22,31.15,22.76,15.53.81,30.49-8.35,39-20.92,17.82-26.34,5.6-65.42-24.94-75.49a5.69,5.69,0,0,0-2.27-.28A65.55,65.55,0,0,1,708,704.82a50.42,50.42,0,0,0,4.73-3.8c2.88-2.69,5.15-6.59,4-10.66s-5.48-8-9.46-9.15l-.16,0a1.75,1.75,0,0,0-1.12-.53,3.39,3.39,0,0,0-3,1.45,2.14,2.14,0,0,0-1.58.81c-2.83,3.49-4.34,8.11-6,12.26q-.95,2.34-1.87,4.7c.28-1.19.55-2.39.83-3.58,2.22-9.41,4.66-18.9,8.38-27.85a59.76,59.76,0,0,1,3.92-7.32,5.26,5.26,0,0,0,5-1.14A6.66,6.66,0,0,0,713,658.4a21.1,21.1,0,0,0,2.9-12.09,19.67,19.67,0,0,0-.78-4.45,20,20,0,0,0-3.58-6.85C708.88,631.72,708.23,629.62,708.77,625.39ZM619.49,797.52a48.18,48.18,0,0,0,6.92-2.55,5.45,5.45,0,0,0,1.91-1.43,38.38,38.38,0,0,0,4-1.06A57.55,57.55,0,0,1,619.49,797.52Zm49-33.72a73.86,73.86,0,0,1-10.29,11.14,130.4,130.4,0,0,0,8.7-10.14c2.2-2.83,4.33-5.71,6.36-8.65l.12.19A81.14,81.14,0,0,1,668.53,763.8Z" transform="translate(-433.61 -243.81)"/><path class="cls-13" d="M615.68,727c0,2.35,1.54,4.49,4.49,4.1,15.29-2,31.27-10.83,37.16-25.83.82-2.09-2.18-3.51-3.61-2.1-6.08,6-12.4,11.25-19.74,14.65a4.5,4.5,0,0,0-4.56-1,33.39,33.39,0,0,1-20,0c-6-2-10.21-5.91-14.72-10.11a1.38,1.38,0,0,0-2.29,1.34C595.85,718.45,605.33,724.89,615.68,727Z" transform="translate(-433.61 -243.81)"/><path class="cls-13" d="M687.61,775.73a3.34,3.34,0,0,0-4.2-3.2,18.54,18.54,0,0,0-9.44,6.55c-1.73,2.27,1.94,4.9,3.88,3a12.06,12.06,0,0,1,2.5-1.9,7.63,7.63,0,0,0,2,4.78c2.55,2.69,6.82,3.46,9.5.51,3.14-3.45-.37-7.76-4.29-6.72l0,0A18.2,18.2,0,0,0,687.61,775.73Z" transform="translate(-433.61 -243.81)"/><path class="cls-13" d="M766.33,813.8c1.3,12,1.72,24.37,4.1,36.2H780c-1.69-12.48-5.91-24.73-9.47-36.77C769.86,811,766.07,811.33,766.33,813.8Z" transform="translate(-433.61 -243.81)"/><path class="cls-13" d="M705.38,593.1c-4.4,2.46-7.89,7.5-9.22,12.3-.93,3.34,3.83,4.45,5.06,1.39a12.34,12.34,0,0,1,2.9-4.3,11.92,11.92,0,0,1,4.27-2.25,3.9,3.9,0,1,0-3-7.14Z" transform="translate(-433.61 -243.81)"/><path class="cls-13" d="M682.79,603.76a16.28,16.28,0,0,1,3.27-5.07c1.48-1.49,3.28-2.51,4.87-3.87,3.28-2.79-1-8.38-4.62-6-4.2,2.78-6.74,8.33-7.75,13.14C678.06,604.38,681.68,606.3,682.79,603.76Z" transform="translate(-433.61 -243.81)"/><path class="cls-13" d="M672.49,597.94a26.69,26.69,0,0,0-1.48-7.17c-1.07-3.57-.62-5.38,1.53-8.3,3.86-5.22,7.6-10.42,11.19-15.83,1-1.58-1.25-3.19-2.55-2-5.47,5.11-11.84,10.24-16.17,16.4-3.93,5.61-1.55,10.62-2,16.87C662.66,604,672.65,604.06,672.49,597.94Z" transform="translate(-433.61 -243.81)"/><path class="cls-13" d="M820.81,755.12c1.1-16,3.53-32,1.41-48a88.08,88.08,0,0,0-6-22.14c-2.25-5.44-4.82-11.38-8.16-16.41-3.26-13.48-13-23-26.52-27-7.38-2.19-15.12-2.65-22.76-3.2-4.51-.32-9.09-.54-13.57-1.22-3.47-.52-7-1.69-10.47-2.08a17.42,17.42,0,0,1-1.58-2.52c.34.52.73.31,1.18-.64.69-1.14,1.83-2,2.5-3.2a19,19,0,0,0,2.11-8.53,42.81,42.81,0,0,0-1.73-12.92c5-4.05,8.73-10.73,11.79-16.07A108.31,108.31,0,0,0,758,571.49c4.26-12.89,6.74-27.85,3.77-41.34,6.24-4.39,11.44-11.89,12.11-19.28.47-5.22-1.22-14-6.26-17.42,4.61-10.84,3.81-24.8,1.77-35.79-2.37-12.83-7.93-27.17-16-37.51-1.63-2.09-4.21.31-3.92,2.28,0,0,0,.06,0,.09a1.65,1.65,0,0,0-1.41.3c-4,3-7.93,6-11.91,9a4.45,4.45,0,0,0-.9-.14h-.48c1.38-.94,2.75-1.92,4.08-2.95,10.54-8.08,17.38-18.94,22.45-31.06.42-1-1.1-1.78-1.77-1C750.28,406.82,740,416.32,728,423.18c-11.46,6.55-24.09,10.53-37,13.09-13.32,2.64-27.19,3.14-39.89,8.32-10,4.1-21.83,12.69-23.3,24.26a3.63,3.63,0,0,0,1.14,3.2l-.38.48c-7.9,10.5-7.76,23.18-6.1,35.69a1.09,1.09,0,0,0,2.18,0c1.16-12.77,2.91-24.58,13-33.45,8.8-7.7,20.3-11.4,31.58-13.57,12.39-2.38,24.89-3.71,37.08-7.14a154.16,154.16,0,0,0,17.61-6.14c1.35-.56,2.78-1.12,4.22-1.71a3.58,3.58,0,0,0,2.73-.66c1-.72,2.05-1.45,3.06-2.2a18.53,18.53,0,0,0,3.59-2.85c1.41-1.18,2.77-2.41,4.1-3.68.43,3.48,2.46,6.61,3.79,9.84a100.38,100.38,0,0,1,4.12,11.75,70.56,70.56,0,0,1,2.11,12c.38,4.3-.2,8.6,2,12.49a5,5,0,0,0,2.81,2.36c-.67,2.48-1.39,4.95-2,7.53-1.36,6.14,6.17,10.07,10.2,5.83,1.45,4.17.76,10-.73,13.43a15.08,15.08,0,0,1-3.15,4.57,7.19,7.19,0,0,0-1.73-4.8c-1.06-1.44-2.47-3.43-4.17-4.16s-4.2.06-4,2.32c.1,1.38.84,3.25,1,4.27.12.81.12,1.63.23,2.44a5,5,0,0,0,2.71,3.62,3.11,3.11,0,0,0,1.35.49,29.57,29.57,0,0,0-3.1,3,5.19,5.19,0,0,0,3,8.59c-2.68,11-4.87,22.06-9,32.73,3.57-12.44,6.29-26.43,3.7-38.86A1,1,0,0,0,749,526c-6.19,11.24-9.19,24.29-13.4,36.36-1.92,5.5-3.55,11.22-6.81,16.12s-7.66,7.76-12.91,10.13a6.36,6.36,0,0,0-.58.3,12,12,0,0,1-2-1.25c-2.1-1.59-4.9,1.48-3.55,3.55a13,13,0,0,0,3.07,3.38l.13.1c.63,3.49,3.84,6.75,7.79,5.34a34.28,34.28,0,0,0,10.47-5.94,36.2,36.2,0,0,0-4.68,8.48c-1.18,3.32,1.29,6.17,4.26,6.87,0,1.16,0,2.33-.09,3.5-.16,3.44-.1,7.88-2.72,10.51-.4.4-.8.76-1.19,1.09a5.57,5.57,0,0,0-1.4-4.72c-1.11-1.24-1.56-1.39-2.26-2.87-.59-1.27-.78-2.68-1.82-3.84a2.91,2.91,0,0,0-3.52-.46c-3.74,2.85-3.07,9.94-.64,13.53a5.41,5.41,0,0,0,5.91,2.38,8.6,8.6,0,0,0-.68,2.42c-.49,3.62.9,6.74,2.85,9.72,2.2,3.36,6.23,3,8.64,1.09,4.81,3,11.16,4.1,16.42,4.85,7.36,1.05,14.85,1,22.18,2.41,6.19,1.17,12.73,3.13,17.56,7.37,5.56,4.89,6.78,11.7,8.8,18.43a6.39,6.39,0,0,0,.37,1,1.76,1.76,0,0,0-1.06,2.12c3.9,19.42,2.16,38.85.55,58.42-.89,10.72-1.85,22-1.57,33.08a40.72,40.72,0,0,0-7.21.47c-5.3.69-10.65,1.31-15.89,2.41-1.09.22-2.41.45-3.77.76a4.64,4.64,0,0,0,0-1c-1.9-14.47-4.49-29-4.68-43.64a2.06,2.06,0,0,0-4.12,0c-.24,8.59-.7,17.15-.76,25.71-.05-1.28-.08-2.56-.06-3.84,0-1.87-2.55-2.07-3.13-.43-3.17,9.06-3.74,18.49-4.3,28a91.05,91.05,0,0,1-5.45,26.53c-5.28,14.56-10.85,30-9.25,45.56h30.94a362.46,362.46,0,0,0-5.63-42.33,2.37,2.37,0,0,0-.81-1.41c-.11-2.12-.19-4.24-.22-6.36a1.87,1.87,0,0,0-1.16-1.86,68.69,68.69,0,0,0,1.82-13.91c.13.31.26.6.39.89.52,1.16,2.26.73,2.57-.34.22-.73.36-1.67.56-2.57a67.73,67.73,0,0,0,15.28.4c5.2-.35,10.62-.2,15.84-.56q.18,1.32.39,2.64c.55,10,3.18,20.14,5.15,29.58,1.32,6.36,2.7,12.71,4.09,19.05,1.15,5.29,1.94,11.51,4,16.78H833.4C826,818.75,818.6,787.49,820.81,755.12ZM744.88,433.57c.37-.47.78-.94,1.19-1.42.31.77.6,1.56.89,2.34A12,12,0,0,0,744.88,433.57Zm4.15-4.2a1.72,1.72,0,0,0-.45-.31c.56-.74,1.1-1.49,1.63-2.25q.52,2.56,1.17,5.12C750.63,431.05,749.85,430.19,749,429.37Zm4.23,403.22c-.63,5.16-1.76,10.9-1.15,16.17a6.25,6.25,0,0,0-1.18-1.33c-.9-10.62,1.65-20.68,4.83-30.77C754.83,822,753.91,827.25,753.26,832.59ZM763,776.46c0-.4-.09-.8-.13-1.2a4.72,4.72,0,0,0,.82.52A6.35,6.35,0,0,0,763,776.46Zm46.74-37c0-2.22,0-4.44,0-6.68,0-18.29-.76-37.12-7.59-54.31a5.23,5.23,0,0,0,3.61-.45c.92,3.68,2,7.34,2.73,10.93a117.25,117.25,0,0,1,3,22.68A233.09,233.09,0,0,1,809.78,739.47Z" transform="translate(-433.61 -243.81)"/><path class="cls-13" d="M618.26,524.14a5.7,5.7,0,0,0-1.81-2.54,5.47,5.47,0,0,0-4.61-1,3.81,3.81,0,0,0-1.83-2.86,4.54,4.54,0,0,0-5.06.57,7.9,7.9,0,0,0-2.4,8.11,8.38,8.38,0,0,0,6.18,5.87,8.73,8.73,0,0,0,5.41-.55l.24-.12a2.58,2.58,0,0,0,3.34,1.84,22.06,22.06,0,0,1,5.56-1.24,3.8,3.8,0,0,0,2.1-.82,3.92,3.92,0,0,0,4.3-3.86c0-2.72-2.5-4.21-5-3.8A31.64,31.64,0,0,1,618.26,524.14Z" transform="translate(-433.61 -243.81)"/><path class="cls-13" d="M692.22,555.12a3.18,3.18,0,0,0-3.35-.09,4.55,4.55,0,0,0-1.34,6.4c1.36,2.23,4.13,3.17,6.61,3.18a12.4,12.4,0,0,0,11.75-8.16,5.21,5.21,0,0,0-1.67-5.5,16.75,16.75,0,0,0-1.82-10.88c-1.73-3.2-6.37-.94-5.66,2.38.79,3.68-.54,6.8-3.11,9.39A4.56,4.56,0,0,0,692.22,555.12Z" transform="translate(-433.61 -243.81)"/><path class="cls-13" d="M692.67,535.87c-4.59-6.39-7.72-12.56-7.87-20.62,0-2.38-3.63-3-4.24-.57-2.17,8.64-1.31,18.53,4,26C688,545.56,696.21,540.81,692.67,535.87Z" transform="translate(-433.61 -243.81)"/><path class="cls-13" d="M662.31,518.63c-1.36.75-2.42.09-3.69-.51-1.67-.8-4.54.1-4.23,2.43.59,4.53,5.18,6.64,9.41,6.16,5.13-.58,8.51-4.68,10.21-9.25,1.79-4.8-6.11-8.18-8.34-3.51C664.88,515.6,664,517.7,662.31,518.63Z" transform="translate(-433.61 -243.81)"/><path class="cls-13" d="M712.83,523.07c4,.36,7.62-2,10.14-5a4.9,4.9,0,1,0-7.71-5.94,7.67,7.67,0,0,1-2.54,2.88c-.45.23-1.76.45-1.85.2a2.73,2.73,0,0,0-5.25,1.45A7.93,7.93,0,0,0,712.83,523.07Z" transform="translate(-433.61 -243.81)"/><path class="cls-13" d="M650.72,498c2.59-4,6.86-4.72,11.29-4.89,4-.16,5.24-6.34,1-7.3-7.06-1.61-14.06,3.07-17,9.45C644.59,498.44,648.78,501,650.72,498Z" transform="translate(-433.61 -243.81)"/><path class="cls-13" d="M710.56,493.47c3.74-.45,6.61.77,9.6,3,4.83,3.57,10.22-5.39,4.73-8.09a21.08,21.08,0,0,0-15.18-1.15C706.38,488.13,706.88,493.91,710.56,493.47Z" transform="translate(-433.61 -243.81)"/></g></g><g id="lineart"><path class="cls-9" d="M617.66,726.2c-13.53-3.29-23.86-14.82-32.78-36.22a1.49,1.49,0,0,0-2-.81,1.51,1.51,0,0,0-.81,2c5.93,14.23,15.61,32.43,33.67,37.63.1-.46.19-.93.29-1.39A1.5,1.5,0,0,1,617.66,726.2Z" transform="translate(-433.61 -243.81)"/><path class="cls-9" d="M668.93,670.72c0-.92.06-1.84.06-2.77,0-10.22-5-29.86-9.5-47.19-3.22-12.51-6.25-24.32-6.25-28.6,0-19.4,24.38-31.89,28-31.89a3.54,3.54,0,0,1,3.47,3.69c0,2.34-2.27,4.14-5.13,6.42-4.42,3.52-10.48,8.33-10.48,18.3a42.66,42.66,0,0,0,.95,8,22.18,22.18,0,0,1,2.43-3.51,32.82,32.82,0,0,1-.38-4.47c0-8.52,5-12.47,9.35-15.95,3.22-2.56,6.26-5,6.26-8.77a6.52,6.52,0,0,0-6.47-6.69c-5.33,0-31,14-31,34.89a60.77,60.77,0,0,0,1.8,11,1.49,1.49,0,0,1,.23,1c1.14,5,2.67,10.94,4.31,17.33C661,638.67,666,658.11,666,668c0,.35,0,.68,0,1,.57.12,1.14.24,1.74.35A1.48,1.48,0,0,1,668.93,670.72Z" transform="translate(-433.61 -243.81)"/><path class="cls-9" d="M619,728c-.11.47-.2,1-.3,1.44a38.66,38.66,0,0,0,7.61.75c19.64,0,41.46-24.22,42.62-59.33a.58.58,0,0,1,0,.19,1.49,1.49,0,0,1-1.47,1.23l-.27,0-1.29-.26c-1.55,32.72-21.54,55.19-39.57,55.19a36.77,36.77,0,0,1-8.16-.88A1.51,1.51,0,0,1,619,728Z" transform="translate(-433.61 -243.81)"/><path class="cls-9" d="M669,605.73h.16a1.5,1.5,0,0,0,1.49-1.35c.84-8.45,9.29-16.15,17.72-16.15a8.32,8.32,0,0,1,6,2.14,18.77,18.77,0,0,1,2.91-1.28,11,11,0,0,0-8.93-3.86c-6,0-11.91,3.19-15.88,7.91a22.18,22.18,0,0,0-2.43,3.51,19.32,19.32,0,0,0-2.4,7.43A1.5,1.5,0,0,0,669,605.73Z" transform="translate(-433.61 -243.81)"/><path class="cls-9" d="M712.58,598.24l-.61.18a1.72,1.72,0,0,0,.37-.07Z" transform="translate(-433.61 -243.81)"/><path class="cls-9" d="M702.61,588.18a16.17,16.17,0,0,0-5.32.92,18.77,18.77,0,0,0-2.91,1.28,26.52,26.52,0,0,0-11.82,14.39,1.5,1.5,0,1,0,2.84,1c3.15-9.44,11.22-14.54,17.21-14.54,3.44,0,5.79,1.56,7.28,4.87a22.38,22.38,0,0,1,2.88-.91C710.79,590.52,707.38,588.18,702.61,588.18Z" transform="translate(-433.61 -243.81)"/><path class="cls-9" d="M725.09,599.61a1.5,1.5,0,0,1-.79-2.77c.26-.16.53-.34.81-.53a13.55,13.55,0,0,0-7.16-1.83,21.51,21.51,0,0,0-5.18.66,22.38,22.38,0,0,0-2.88.91c-5.24,2.08-9.79,6.19-11.19,12.23a1.5,1.5,0,0,0,2.93.68c1-4.32,4.7-8.68,10.34-10.54l.61-.18a19,19,0,0,1,5.37-.76c7.16,0,10.79,5,10.79,14.78,0,6-2.28,15.52-8.36,16-.29-.73-.79-2.18-1.51-4.23-.66-1.89-1.55-4.45-2.78-7.91a19.5,19.5,0,0,0-2.13,3c.88,2.49,1.55,4.43,2.08,5.94,1.94,5.55,2.19,6.27,3.44,6.27a3.24,3.24,0,0,0,.43,0c7.77,0,11.83-9.56,11.83-19,0-6.25-1.46-11-4.23-14-.54.38-1.08.75-1.64,1.09A1.46,1.46,0,0,1,725.09,599.61Z" transform="translate(-433.61 -243.81)"/><path class="cls-9" d="M632.71,792a52.11,52.11,0,0,1-5.57,2.52l.56,1.26a1.5,1.5,0,0,1-.73,2,1.41,1.41,0,0,1-.63.14A1.5,1.5,0,0,1,625,797c-.23-.5-.45-1-.67-1.5A51,51,0,0,1,608.5,798c-20.81,0-39.08-11.57-54.28-34.38a1.5,1.5,0,0,0-2.5,1.67C567.52,789,586.62,801,608.5,801a54.79,54.79,0,0,0,25.27-6.19c-.34-.78-.66-1.56-1-2.35A1.48,1.48,0,0,1,632.71,792Z" transform="translate(-433.61 -243.81)"/><path class="cls-9" d="M721.36,612a1.5,1.5,0,0,0-1.26-2.72c-6.7,3.09-11.76,11.14-11.76,18.7a14.5,14.5,0,0,0,3.24,9.23c1.46,2.11,2.72,3.93,2.72,7.62,0,5-2.32,8.42-5.54,13.13a76.37,76.37,0,0,0-11,21.71c-.08.25-.25.92-.51,2-6.2,24.53-14.19,46.15-23.76,64.26-11.45,21.68-24.31,36.66-38.44,44.83a1.42,1.42,0,0,1,.55.7c.26.67.53,1.34.81,2,14.67-8.43,28-23.85,39.74-46.12,9.67-18.32,17.75-40.16,24-64.93.24-.94.39-1.55.46-1.78a73.65,73.65,0,0,1,10.61-20.93c3.4-5,6.07-8.88,6.07-14.82A14.69,14.69,0,0,0,714,635.5c-1.44-2.08-2.7-3.89-2.7-7.52a18,18,0,0,1,2.62-8.91,19.5,19.5,0,0,1,2.13-3A16,16,0,0,1,721.36,612Z" transform="translate(-433.61 -243.81)"/><path class="cls-9" d="M626.34,797.91a1.41,1.41,0,0,0,.63-.14,1.5,1.5,0,0,0,.73-2l-.56-1.26a114,114,0,0,1-10.3-46.26,94.83,94.83,0,0,1,1.86-18.8c.1-.48.19-1,.3-1.44a1.51,1.51,0,0,0-.85-1.69,1.32,1.32,0,0,0-.3-.1,1.25,1.25,0,0,0-.19,0,1.5,1.5,0,0,0-1.59,1.17c-.1.46-.19.93-.29,1.39a98.07,98.07,0,0,0-1.94,19.5,117,117,0,0,0,10.47,47.28c.22.5.44,1,.67,1.5A1.5,1.5,0,0,0,626.34,797.91Z" transform="translate(-433.61 -243.81)"/><path class="cls-9" d="M532.69,749.63c0-95.7,73.34-108.2,100.94-112.9,5.06-.86,8.4-1.43,10.07-2.26.66-.33,1.34-.64,2-1,3.66-1.66,7.81-3.55,8.92-8.52a1.5,1.5,0,1,0-2.93-.65c-.78,3.5-3.77,4.87-7.23,6.44-.72.33-1.43.66-2.13,1-1.26.63-4.77,1.23-9.22,2-28.29,4.82-103.44,17.62-103.44,115.86,0,15.3,1.93,30.94,3.8,46.07,1.85,15,3.76,30.44,3.76,45.41a1.5,1.5,0,1,0,3,0c0-15.15-1.92-30.72-3.78-45.78S532.69,764.75,532.69,749.63Z" transform="translate(-433.61 -243.81)"/><path class="cls-9" d="M667.44,672.3a1.49,1.49,0,0,0,1.47-1.23.58.58,0,0,0,0-.19.86.86,0,0,0,0-.16,1.48,1.48,0,0,0-1.22-1.39c-.6-.11-1.17-.23-1.74-.35-19.09-4.14-23.35-15.79-26.56-29.44a1.5,1.5,0,0,0-2.92.69c3.36,14.25,8.16,27.4,29.39,31.79l1.29.26Z" transform="translate(-433.61 -243.81)"/><path class="cls-9" d="M635.05,790.72a1.46,1.46,0,0,0-1.38-.16,1.5,1.5,0,0,0-.86,1.94c.3.79.62,1.57,1,2.35,9.28,21.6,29,36.48,48.69,36.48,31.82,0,55.82-26.9,55.82-62.57,0-26.06-14-44.14-38.45-49.6a1.5,1.5,0,0,0-.66,2.93c23.29,5.2,36.11,21.78,36.11,46.67,0,34-22.71,59.57-52.82,59.57-18.61,0-37.28-14.25-46.05-34.92-.28-.65-.55-1.32-.81-2A1.42,1.42,0,0,0,635.05,790.72Z" transform="translate(-433.61 -243.81)"/><path class="cls-9" d="M719.74,765.07a1.5,1.5,0,0,0-2.88.84,31.77,31.77,0,0,1,.85,3.72,1.49,1.49,0,0,0,1.47,1.26l.25,0a1.51,1.51,0,0,0,1.24-1.73A35.75,35.75,0,0,0,719.74,765.07Z" transform="translate(-433.61 -243.81)"/><path class="cls-9" d="M703.89,802.67a1.5,1.5,0,0,0,1,2.65,1.51,1.51,0,0,0,1-.35c1-.88,2.07-1.82,3-2.8a1.5,1.5,0,0,0-2.12-2.12C705.83,801,704.87,801.85,703.89,802.67Z" transform="translate(-433.61 -243.81)"/><path class="cls-9" d="M717.91,778.17a31.18,31.18,0,0,1-.69,3.75,1.5,1.5,0,0,0,1.1,1.82,1.51,1.51,0,0,0,1.81-1.1,33.27,33.27,0,0,0,.76-4.11,1.5,1.5,0,1,0-3-.36Z" transform="translate(-433.61 -243.81)"/><path class="cls-9" d="M704.12,743.66a1.5,1.5,0,0,0-1.79,2.41c1,.78,2,1.6,3,2.44a1.5,1.5,0,1,0,2-2.25C706.31,745.36,705.23,744.49,704.12,743.66Z" transform="translate(-433.61 -243.81)"/><path class="cls-9" d="M716.17,789.34a1.51,1.51,0,0,0-2,.64c-.58,1.12-1.24,2.24-1.94,3.32a1.5,1.5,0,1,0,2.51,1.64c.76-1.16,1.46-2.37,2.09-3.58A1.49,1.49,0,0,0,716.17,789.34Z" transform="translate(-433.61 -243.81)"/><path class="cls-9" d="M713.65,753.07a1.5,1.5,0,0,0-2.41,1.8,36.22,36.22,0,0,1,2.15,3.18,1.5,1.5,0,0,0,1.29.73,1.54,1.54,0,0,0,.77-.21,1.5,1.5,0,0,0,.51-2.06A40.51,40.51,0,0,0,713.65,753.07Z" transform="translate(-433.61 -243.81)"/><path class="cls-9" d="M693.76,812a1.52,1.52,0,0,0,.55-.1,38.72,38.72,0,0,0,3.78-1.73,1.5,1.5,0,0,0,.64-2,1.52,1.52,0,0,0-2-.64,34.16,34.16,0,0,1-3.49,1.6,1.5,1.5,0,0,0,.55,2.89Z" transform="translate(-433.61 -243.81)"/><path class="cls-9" d="M694.9,741.48a1.5,1.5,0,0,0,1.36-2.68c-1.22-.62-2.48-1.2-3.74-1.72a1.5,1.5,0,0,0-1.15,2.77C692.56,740.34,693.75,740.89,694.9,741.48Z" transform="translate(-433.61 -243.81)"/><path class="cls-9" d="M668.93,809a1.5,1.5,0,1,0-1.1,2.79,36,36,0,0,0,4,1.3,1.28,1.28,0,0,0,.38.05,1.5,1.5,0,0,0,.39-3A32.12,32.12,0,0,1,668.93,809Z" transform="translate(-433.61 -243.81)"/><path class="cls-9" d="M684.9,811.17a30.51,30.51,0,0,1-3.81.16,1.52,1.52,0,0,0-1.52,1.48,1.5,1.5,0,0,0,1.47,1.52h.72a31.12,31.12,0,0,0,3.46-.19,1.5,1.5,0,1,0-.32-3Z" transform="translate(-433.61 -243.81)"/><path class="cls-9" d="M652.12,790.06a1.49,1.49,0,0,0-1.28,1.68,22.85,22.85,0,0,0,.94,4.16,1.51,1.51,0,0,0,1.43,1,1.52,1.52,0,0,0,1.42-2,19.82,19.82,0,0,1-.82-3.62A1.49,1.49,0,0,0,652.12,790.06Z" transform="translate(-433.61 -243.81)"/><path class="cls-9" d="M658.81,802.15a1.5,1.5,0,1,0-2.23,2,25.78,25.78,0,0,0,3.08,2.9,1.44,1.44,0,0,0,.94.33,1.49,1.49,0,0,0,.94-2.66A23.14,23.14,0,0,1,658.81,802.15Z" transform="translate(-433.61 -243.81)"/><path class="cls-9" d="M696.7,781.75a1.51,1.51,0,0,0-.88-1.34c-5-2.27-10.47-9.57-13.94-15.65a1.51,1.51,0,0,0-1.35-.75,1.47,1.47,0,0,0-1.3.84l-.52,1.07c-2.67,5.46-5.42,11.1-8.49,16.47a1.49,1.49,0,0,0,.78,2.15,30.87,30.87,0,0,0,10.59,1.81,32.61,32.61,0,0,0,14.28-3.23A1.51,1.51,0,0,0,696.7,781.75Zm-23,.53c2.5-4.49,4.78-9.11,7-13.63,2.32,3.69,6.47,9.58,11.18,12.92A30.69,30.69,0,0,1,673.73,782.28Z" transform="translate(-433.61 -243.81)"/><path class="cls-9" d="M825.23,848.56c-12.43-34.18-12.93-74.51-13.42-113.51-.13-10.16-.26-20.66-.6-30.93-1.88-57-37.23-59.09-63.05-60.63-11.82-.7-22-1.31-25-7.29a1.49,1.49,0,0,0-2-.68,1.51,1.51,0,0,0-.67,2c3.77,7.53,14.78,8.19,27.53,9,26,1.55,58.45,3.48,60.23,57.72.34,10.24.47,20.73.6,30.88.15,12.23.31,24.6.83,36.87.32-.1.64-.21,1-.34a1.5,1.5,0,0,1,1.15,2.77,12.17,12.17,0,0,1-2,.63c1.25,26.05,4.29,51.61,12.63,74.56a1.44,1.44,0,0,0,.24.42H825A1.48,1.48,0,0,0,825.23,848.56Z" transform="translate(-433.61 -243.81)"/><path class="cls-9" d="M770,815.24c-.85-6.91-1.73-12.33-2.57-17.57-1.11-6.84-2.13-13.18-2.85-21.65l-1.16.33a1.68,1.68,0,0,1-.44.07,1.5,1.5,0,0,1-1.43-1.07,2.44,2.44,0,0,1-.06-.26c.28,3.41.6,6.48.95,9.37a1.47,1.47,0,0,1,.51,1.16c0,.66-.07,1.3-.1,1.94.5,3.64,1,7.05,1.62,10.59.84,5.21,1.7,10.6,2.55,17.46.87,7.1,1.16,14.38,1.45,21.41.17,4.27.35,8.61.66,13h3c-.32-4.4-.5-8.79-.67-13.1C771.14,829.8,770.84,822.47,770,815.24Z" transform="translate(-433.61 -243.81)"/><path class="cls-9" d="M762.5,773.48c.6-.18,1.2-.34,1.8-.51-.49-6.94-.79-15.32-.79-26.34a197,197,0,0,1,1.56-26.53,1.5,1.5,0,0,0-3-.39,201.06,201.06,0,0,0-1.58,26.92c0,12.09.36,21,.94,28.38A1.5,1.5,0,0,1,762.5,773.48Z" transform="translate(-433.61 -243.81)"/><path class="cls-9" d="M762.94,776.42a1.68,1.68,0,0,0,.44-.07l1.16-.33A78.87,78.87,0,0,1,786.38,773a114.13,114.13,0,0,1,20.37,2.3,2.7,2.7,0,0,0,.52.07,10.84,10.84,0,0,0,2.51-.31,12.17,12.17,0,0,0,2-.63,1.5,1.5,0,0,0-1.15-2.77c-.32.13-.64.24-1,.34a8.13,8.13,0,0,1-2.23.37h-.07a117,117,0,0,0-21-2.36,81.82,81.82,0,0,0-22.08,3c-.6.17-1.2.33-1.8.51a1.5,1.5,0,0,0-1,1.53v.08a2.44,2.44,0,0,0,.06.26A1.5,1.5,0,0,0,762.94,776.42Z" transform="translate(-433.61 -243.81)"/><path class="cls-9" d="M759,811.57c1.7-8.09,3.3-15.77,3.77-24,0-.64.08-1.28.1-1.94a1.47,1.47,0,0,0-.51-1.16,1.48,1.48,0,0,0-.94-.39,1.51,1.51,0,0,0-1.55,1.45c-.29,8.73-2,16.84-3.81,25.43-2.14,10.15-4.35,20.64-4.35,33,0,2.15.1,4.17.29,6.09h3a58.33,58.33,0,0,1-.31-6.09C754.75,831.9,756.93,821.57,759,811.57Z" transform="translate(-433.61 -243.81)"/><path class="cls-9" d="M683.45,446.16c-32.58,5.44-63.34,10.57-63.34,53.67a75.7,75.7,0,0,0,4.23,24.35,1.5,1.5,0,1,0,2.84-1,72.48,72.48,0,0,1-4.07-23.37c0-40.55,28.19-45.26,60.83-50.71,22.49-3.75,47.06-7.86,64.37-24.88-.31-.56-.62-1.12-.95-1.68a1.5,1.5,0,0,1,0-1.45C730.85,438.25,706.87,442.26,683.45,446.16Z" transform="translate(-433.61 -243.81)"/><path class="cls-9" d="M764.57,391a90,90,0,0,1-14.13.79c-5.92,0-11.93-.21-17.75-.42S720.8,391,714.83,391c-12.71,0-45.28,1.41-73.19,14.54-26.25,12.35-40.13,31.64-40.13,55.81,0,11,2.07,22.18,4.07,33,.88,4.75,1.79,9.66,2.5,14.45-10.16,3.87-12.34,10.48-12.34,15.43,0,10.76,10.1,16.89,20.07,17.5a127.11,127.11,0,0,0,8.71,37.07c3.75,9.06,10.75,14.54,17.52,19.84,2.62,2.05,5.32,4.16,7.74,6.43a1.51,1.51,0,0,0,1,.41,1.5,1.5,0,0,0,1.24-2.31,1.94,1.94,0,0,0-.21-.29c-2.51-2.36-5.27-4.52-7.94-6.61C637.13,591,630.74,586,627.3,577.66a124.38,124.38,0,0,1-8.61-37.5,1.51,1.51,0,0,0-1.48-1.38c-9-.08-18.47-5.21-18.47-14.54,0-6,3.87-10.42,11.48-13a1.51,1.51,0,0,0,1-1.63c-.74-5.24-1.73-10.6-2.69-15.78-2-10.71-4-21.78-4-32.48,0-23.25,12.92-41.11,38.41-53.1,27.36-12.86,59.4-14.25,71.91-14.25,5.92,0,11.94.21,17.76.41s11.88.42,17.85.42a107.94,107.94,0,0,0,12.25-.51c-3.56,11.13-8.66,19.63-14.84,26.23l0,0A1.51,1.51,0,0,1,750,421l.54,1c6.68-7.27,12.13-16.68,15.76-29.07a1.51,1.51,0,0,0-1.68-1.9Z" transform="translate(-433.61 -243.81)"/><path class="cls-9" d="M609.09,525.43c-2-.57-2.26-.81-2.27-1.37a3.47,3.47,0,0,1,1.7-1.95,1.5,1.5,0,0,0,2.41-1.73,2.32,2.32,0,0,0-2.12-1.32c-2.65,0-5,3.1-5,5,0,3,2.66,3.76,4.42,4.27,1.22.36,2.38.69,2.83,1.45a1.5,1.5,0,0,0,1.29.73,1.54,1.54,0,0,0,.77-.21,1.51,1.51,0,0,0,.52-2.06C612.6,526.45,610.65,525.89,609.09,525.43Z" transform="translate(-433.61 -243.81)"/><path class="cls-9" d="M656.21,501.51c-3,1.47-4.72,4.7-4.72,8.62,0,6.82,5.15,11.58,9.78,11.58,6.11,0,9.89-5.88,9.89-11.34,0-6.47-5.27-10-10.23-10A10.64,10.64,0,0,0,656.21,501.51ZM668,507.83a3.48,3.48,0,0,1-.07.64,7.55,7.55,0,0,1,.23,1.9c0,4-2.77,8.34-6.89,8.34-2.83,0-6.78-3.27-6.78-8.58,0-2.76,1.14-5,3.06-5.94l.25-.1a1.48,1.48,0,0,1,1.07-1l.17,0a14,14,0,0,1,3.5-.55C666.06,502.46,668,504.37,668,507.83Z" transform="translate(-433.61 -243.81)"/><path class="cls-9" d="M658.87,503.05a1.48,1.48,0,0,0-1.07,1,1.47,1.47,0,0,0,0,.78l.06.18a4.52,4.52,0,0,0-.67,2.59,5.69,5.69,0,0,0,5.83,5.51c1.9,0,4.52-2.31,4.94-4.68a3.48,3.48,0,0,0,.07-.64c0-3.46-1.94-5.37-5.46-5.37a14,14,0,0,0-3.5.55Zm4.12,7.1a2.7,2.7,0,0,1-2.83-2.51c0-1,.17-1.07.87-1.41a1.5,1.5,0,0,0,.69-.72,7.37,7.37,0,0,1,.82-.05c1.86,0,2.46.57,2.46,2.37C665,508.68,663.49,510.06,663,510.15Z" transform="translate(-433.61 -243.81)"/><path class="cls-9" d="M712.12,518.93c5.51,0,10-5,10-11.23,0-7.93-6-8.6-11.6-8.6H710l-.31,0c-.24,0-.5,0-.74,0-1.88,0-6.62,2.63-6.62,8.86C702.36,513.2,706.09,518.93,712.12,518.93Zm-3.34-16.83a3.93,3.93,0,0,1,3.11-1.51h.57a5.27,5.27,0,0,1,5,2.75c1.22.85,1.66,2.23,1.66,4.36,0,4-2.81,8.23-7,8.23s-6.76-4.17-6.76-8S708,502.39,708.78,502.1Z" transform="translate(-433.61 -243.81)"/><path class="cls-9" d="M712.79,511.9c3.82,0,5.24-3.79,5.24-6.18a5.13,5.13,0,0,0-.58-2.38,5.27,5.27,0,0,0-5-2.75h-.57a3.93,3.93,0,0,0-3.11,1.51A6.19,6.19,0,0,0,707.5,506C707.5,509.23,709.87,511.9,712.79,511.9Zm0-3c-1.42,0-2.29-1.53-2.29-2.95,0-.74.35-2.36,1.39-2.36h.57c2.32,0,2.57,1.49,2.57,2.13C715,505.75,714.9,508.9,712.79,508.9Z" transform="translate(-433.61 -243.81)"/><path class="cls-9" d="M661.86,488.71a1.5,1.5,0,0,0,0-3c-8,0-16.55,5.53-16.55,13.77,0,.45,0,1.81,1.36,1.95h.1a1.52,1.52,0,0,0,1.55-1.34c0-.07,0-.23.08-.33a1.52,1.52,0,0,0,0-1.75C649.39,492.39,655.82,488.71,661.86,488.71Z" transform="translate(-433.61 -243.81)"/><path class="cls-9" d="M707.16,487.1a11.05,11.05,0,0,1,4-.76c4.1,0,8.61,2.33,12.37,6.4a1.5,1.5,0,0,0,2.12.08,1.51,1.51,0,0,0,.08-2.12c-4.32-4.68-9.63-7.36-14.57-7.36a14,14,0,0,0-5.13,1,1.5,1.5,0,0,0,1.09,2.79Z" transform="translate(-433.61 -243.81)"/><path class="cls-9" d="M747.89,420.51l0,0a1.51,1.51,0,0,0-.49,2c.33.56.64,1.12.95,1.68a88.6,88.6,0,0,1,10.74,43.07,95.81,95.81,0,0,1-3.88,27,19.12,19.12,0,0,1,3,.5,98.7,98.7,0,0,0,3.9-27.54A91.37,91.37,0,0,0,750.49,422l-.54-1A1.51,1.51,0,0,0,747.89,420.51Z" transform="translate(-433.61 -243.81)"/><path class="cls-9" d="M753.33,494.23a140.7,140.7,0,0,0-14.54-51,1.5,1.5,0,1,0-2.67,1.36,138.25,138.25,0,0,1,14.34,51.17,1.52,1.52,0,0,0,1.44,1.37h.43c5.94.21,10.49,1,10.49,8.53a22,22,0,0,1-9.91,18.69,1.47,1.47,0,0,0-.71,1.16c-3.42,49.19-19.48,65.65-27.09,70.74-.28.19-.55.37-.81.53a1.5,1.5,0,0,0,.79,2.77,1.46,1.46,0,0,0,.78-.22c.56-.34,1.1-.71,1.64-1.09,21.12-14.79,26.35-54.33,27.63-71.77a25.06,25.06,0,0,0,10.68-20.81c0-7.27-3.76-9.88-7.67-10.87a19.12,19.12,0,0,0-3-.5C754.53,494.29,753.91,494.26,753.33,494.23Z" transform="translate(-433.61 -243.81)"/><path class="cls-9" d="M754.48,510a1.41,1.41,0,0,0,1.25-.66,15.08,15.08,0,0,1-.3,2.19,13.91,13.91,0,0,0-.29,2.36,1.5,1.5,0,0,0,3,0,13,13,0,0,1,.24-1.83,16,16,0,0,0,.35-2.9c0-2.73-1.49-3.8-2.76-4.22a2,2,0,0,0-.53-.08,3,3,0,0,0-2.56,2.64C752.88,508.33,752.88,510,754.48,510Z" transform="translate(-433.61 -243.81)"/><path class="cls-9" d="M687.75,543.93c1.74,0,3.21-1.33,4.78-2.75,1.4-1.26,3-2.7,4.39-2.7s4.19,1.51,4.19,6.18c0,6-3.92,10.46-9.12,10.46a1.56,1.56,0,0,1-1.18-.51,1.5,1.5,0,0,0-2.13,2.12,4.55,4.55,0,0,0,3.31,1.39c6.91,0,12.12-5.79,12.12-13.46,0-6.33-4.21-9.18-7.19-9.18-2.55,0-4.6,1.85-6.4,3.48-.92.83-2.19,2-2.73,2-1.28-.26-5.52-6.1-5.52-17.09,0-2.61.17-5.31.33-7.92s.32-5.18.32-7.66a1.5,1.5,0,0,0-3,0c0,2.39-.15,4.86-.32,7.47s-.33,5.4-.33,8.11C679.27,535.16,683.83,543.93,687.75,543.93Z" transform="translate(-433.61 -243.81)"/><path class="cls-9" d="M711.49,574.12a23.15,23.15,0,0,1-17.17,8,18.48,18.48,0,0,1-9.66-2.64,1.52,1.52,0,0,0-2.07.5,1.5,1.5,0,0,0,.51,2.06,21.54,21.54,0,0,0,11.22,3.08,25.87,25.87,0,0,0,19.46-9.06,1.5,1.5,0,0,0-2.29-1.94Z" transform="translate(-433.61 -243.81)"/></g><g id="Réteg_13" data-name="Réteg 13"><path class="cls-9" d="M532.53,515.45c0-11.6-11-19.39-21.2-19.39a23,23,0,0,0-9.1,2.34c-6.3,2.74-10.07,9.07-10.07,16.94,0,7.33,3.13,13.42,8.18,17A16.16,16.16,0,0,1,502,531a1.51,1.51,0,0,1,1.34-.2c-5.07-2.86-8.22-8.44-8.22-15.46,0-6.64,3.09-11.94,8.27-14.19a20.26,20.26,0,0,1,7.9-2.09c8.79,0,18.2,6.58,18.2,16.39,0,10.93-9,17.46-17.79,17.46a16.94,16.94,0,0,1-7.93-1.88,1.62,1.62,0,0,1,.32.32,1.5,1.5,0,0,1-.35,2.09c-.24.17-.46.36-.69.54a19.9,19.9,0,0,0,8.65,1.93,21.55,21.55,0,0,0,9.66-2.33,9.23,9.23,0,0,0-.73-.8,1.5,1.5,0,0,1,2.11-2.14A16.38,16.38,0,0,1,524,532,19.74,19.74,0,0,0,532.53,515.45Z" transform="translate(-433.61 -243.81)"/><path class="cls-9" d="M527.83,541.79l-1.13,1.33-.67.8c2.07,8.23,2.42,18.16,2.54,23.67-4.79-.15-8.86-.22-12.69-.22,0,.44.09.88.15,1.31a1.5,1.5,0,0,1-1.29,1.68h-.2a1.51,1.51,0,0,1-1.49-1.31c-.07-.54-.12-1.11-.18-1.68-6.27.07-11.94.34-17.24.84a28.29,28.29,0,0,1-1.47-8c0-12.21,3.25-21.7,8.93-26.27.23-.18.45-.37.69-.54a1.5,1.5,0,0,0,.35-2.09,1.62,1.62,0,0,0-.32-.32,1.37,1.37,0,0,0-.43-.23,1.51,1.51,0,0,0-1.34.2,16.16,16.16,0,0,0-1.7,1.37c-7.94,7.16-9.18,20.35-9.18,27.88a32.42,32.42,0,0,0,2,10.1,1.5,1.5,0,0,0,1.41,1h.15a209.19,209.19,0,0,1,21-1c4.24,0,8.76.09,14.25.27a1.54,1.54,0,0,0,1.11-.43,1.51,1.51,0,0,0,.44-1.1v-.41c-.12-5.79-.38-18.36-3.41-28.09A1.52,1.52,0,0,1,527.83,541.79Z" transform="translate(-433.61 -243.81)"/><path class="cls-9" d="M520.66,530.66a1.5,1.5,0,0,0,0,2.12,9.23,9.23,0,0,1,.73.8,21.36,21.36,0,0,1,3.62,6.89l.54-.64a1.51,1.51,0,0,1,2.47.29,26.52,26.52,0,0,0-4-8.09,16.38,16.38,0,0,0-1.22-1.39A1.5,1.5,0,0,0,520.66,530.66Z" transform="translate(-433.61 -243.81)"/><path class="cls-9" d="M553,534.72a12,12,0,0,1-4-9c0-4.51,4.4-11.19,10.48-11.19a8.43,8.43,0,0,1,2.11.28,9,9,0,0,1,5.72,4.81,14,14,0,0,1,2,6.3c0,4.83-3.28,11.82-9.22,11.82a11.11,11.11,0,0,1-7.08-3,1.5,1.5,0,0,1,0,2.12c-.32.33-.62.68-.91,1a12.87,12.87,0,0,0,8,2.87,10.33,10.33,0,0,0,7-2.7c-.32-.41-.64-.82-1-1.21a1.5,1.5,0,0,1,2.23-2c.28.32.53.65.8,1a17.64,17.64,0,0,0,3.22-9.87,16.63,16.63,0,0,0-2.4-7.73,12,12,0,0,0-7.59-6.28,11.34,11.34,0,0,0-2.88-.38c-6.23,0-13.48,6.2-13.48,14.19a15.84,15.84,0,0,0,4,10.08c.31-.37.62-.74,1-1.08A1.5,1.5,0,0,1,553,534.72Z" transform="translate(-433.61 -243.81)"/><path class="cls-9" d="M545.56,556.69a1.51,1.51,0,0,0,1.47,1.18h.16a178.51,178.51,0,0,1,25.53-1.15,1.52,1.52,0,0,0,1.51-1.18,21.17,21.17,0,0,0,.51-4.62,24,24,0,0,0-5.68-15.11c-.27-.32-.52-.65-.8-1a1.5,1.5,0,0,0-2.23,2c.35.39.67.8,1,1.21a20.87,20.87,0,0,1,4.72,12.86,18.22,18.22,0,0,1-.21,2.76,181.49,181.49,0,0,0-23.28,1.06,25,25,0,0,1-.31-4,20.42,20.42,0,0,1,4.13-12.87c.29-.36.59-.71.91-1a1.5,1.5,0,1,0-2.13-2.11c-.33.34-.64.71-1,1.08a23.28,23.28,0,0,0-5,14.94A28.72,28.72,0,0,0,545.56,556.69Z" transform="translate(-433.61 -243.81)"/><path class="cls-9" d="M459.2,536.69a1.5,1.5,0,0,1,2,2.27q-.39.33-.75.69a13.46,13.46,0,0,0,5.74,1.22,12.78,12.78,0,0,0,5.55-1.25c-.23-.33-.47-.66-.72-1a1.5,1.5,0,1,1,2.32-1.9c.33.41.64.84.94,1.27a14.5,14.5,0,0,0,5.41-11c0-9.47-9.2-13-15-13a10.27,10.27,0,0,0-7.23,2.68,14.43,14.43,0,0,0-4.56,10.57,14.09,14.09,0,0,0,5,10.81C458.27,537.55,458.73,537.11,459.2,536.69Zm-3.33-9.49a11.41,11.41,0,0,1,3.6-8.37,7.39,7.39,0,0,1,5.19-1.88c.12,0,12,.28,12,10,0,4.57-3.65,10.91-10.5,10.91C459.48,537.87,455.87,532.37,455.87,527.2Z" transform="translate(-433.61 -243.81)"/><path class="cls-9" d="M452.8,560.74h1.37q3.4,0,6.82,0c4.26,0,9.86,0,15.44.41h.09a1.51,1.51,0,0,0,1.49-1.27,44.31,44.31,0,0,0,.51-6.55c0-6.12-1.45-11.24-4.27-15.28-.3-.43-.61-.86-.94-1.27a1.5,1.5,0,1,0-2.32,1.9c.25.32.49.65.72,1,2.52,3.54,3.81,8.13,3.81,13.67a39.05,39.05,0,0,1-.3,4.74c-5.18-.29-10.28-.33-14.23-.33-2.27,0-4.55,0-6.81,0,0-.5-.05-1-.05-1.5,0-6.59,2.34-12.7,6.29-16.58q.36-.36.75-.69a1.5,1.5,0,0,0-2-2.27c-.47.42-.93.86-1.36,1.32-4.23,4.45-6.71,11.1-6.71,18.22a27.81,27.81,0,0,0,.18,3.17A1.5,1.5,0,0,0,452.8,560.74Z" transform="translate(-433.61 -243.81)"/><path class="cls-9" d="M493.25,603.93h0Z" transform="translate(-433.61 -243.81)"/><path class="cls-9" d="M493.38,603.56a.07.07,0,0,0,0,.05A.07.07,0,0,1,493.38,603.56Z" transform="translate(-433.61 -243.81)"/><path class="cls-9" d="M493.26,602.59a1.17,1.17,0,0,1,.09.24c-.31-1.06-.68-2.1-1-3.11a24,24,0,0,1-1.85-7.93,1.5,1.5,0,0,0-3,0,26.71,26.71,0,0,0,2,8.93l.15.42c-12-3.4-22.44-13.08-27.75-25.83a1.5,1.5,0,0,0-2.77,1.16c5.45,13.09,16.08,23.13,28.33,27.12,1.29-.53,2.57-1.08,3.82-1.69A1.5,1.5,0,0,1,493.26,602.59Z" transform="translate(-433.61 -243.81)"/><path class="cls-9" d="M493.24,603.94a1.51,1.51,0,0,0,.13-.33.07.07,0,0,1,0-.05,1.51,1.51,0,0,0,0-.73,1.17,1.17,0,0,0-.09-.24,1.5,1.5,0,0,0-2-.69c-1.25.61-2.53,1.16-3.82,1.69-2.36,1-4.76,1.83-7.11,2.67a1.5,1.5,0,0,0,.5,2.92,1.52,1.52,0,0,0,.51-.09,109.48,109.48,0,0,0,11.23-4.49A1.48,1.48,0,0,0,493.24,603.94Z" transform="translate(-433.61 -243.81)"/><path class="cls-9" d="M511.15,595.19c-3.16.86-5.11,3.93-5.11,8,0,6.52,4.86,9.49,9.38,9.49,3.21,0,8-2.87,8-9a9.11,9.11,0,0,0-8.78-9.09A12.89,12.89,0,0,0,511.15,595.19Zm9.24,8.47c0,4.12-3,6-5,6-2.95,0-6.38-1.7-6.38-6.49,0-1,.2-4.39,2.9-5.13a11,11,0,0,1,2.67-.51A6.08,6.08,0,0,1,520.39,603.66Z" transform="translate(-433.61 -243.81)"/><path class="cls-9" d="M537.62,606.67a1.52,1.52,0,0,1-.2-1.27,1.5,1.5,0,0,1,1.87-1c1,.3,2,.63,2.94,1,12.38-6.44,22-19.68,25.45-35.43a1.51,1.51,0,0,0-1.15-1.79,1.49,1.49,0,0,0-1.78,1.15c-3.3,15-12.43,27.59-24.17,33.56.6-3,1-5.42,1.25-7.57a1.5,1.5,0,1,0-3-.33A100.07,100.07,0,0,1,537,605.14a1.5,1.5,0,0,0,.5,1.47A.53.53,0,0,1,537.62,606.67Z" transform="translate(-433.61 -243.81)"/><path class="cls-9" d="M537.42,605.4a1.52,1.52,0,0,0,.2,1.27,1.5,1.5,0,0,0,.81.6c1.31.39,2.61.85,3.87,1.29a53.43,53.43,0,0,0,7,2.07l.3,0a1.5,1.5,0,0,0,.29-3,49.35,49.35,0,0,1-6.58-2l-1.06-.36c-1-.33-1.93-.66-2.94-1A1.5,1.5,0,0,0,537.42,605.4Z" transform="translate(-433.61 -243.81)"/></g></g></svg>