<svg xmlns="http://www.w3.org/2000/svg" viewBox="0 0 658.4 498.12"><defs><style>.cls-1{fill:#fff;stroke:#75db8f;}.cls-1,.cls-2{stroke-miterlimit:10;}.cls-2,.cls-3{fill:#82cecd;}.cls-2{stroke:#82cecd;}.cls-4,.cls-9{fill:#4e4f7d;}.cls-5{fill:#edbf2e;}.cls-6{fill:#f5b6a3;}.cls-7{fill:#dd708d;}.cls-8{fill:#525d7d;}.cls-9{font-size:36px;font-family:MVBoli, MV Boli;letter-spacing:0.05em;}</style></defs><title>csaladi</title><g id="Réteg_7" data-name="Réteg 7"><path class="cls-1" d="M828.86,783.3c-49.78,2.49-75-12.08-134,2.82-36.57,9.23-42.45,18.74-72,24-65,11.59-122.69-19.2-139.17-29-102.17-60.59-148.8-219.31-98.93-281.72C426,447.87,513.94,485.93,559,419.86c25.59-37.55,8.45-66.38,38.71-88.17,33.05-23.8,95.94-20,135.49,3.22,8.5,5,13.22,9.3,23.65,11.83,31.12,7.55,49.79-16,79.41-22.9,41-9.54,95.82,14.46,114.14,49.78,20.79,40.09-19.24,68.21,0,124.73,11.8,34.64,29.61,32.25,50.21,77.12,10.28,22.38,27.81,60.56,19.18,96.41C1004.05,737.14,905.33,779.47,828.86,783.3Z" transform="translate(-364.17 -315.07)"/></g><g id="Réteg_8" data-name="Réteg 8"><path class="cls-2" d="M734,530.87a12.27,12.27,0,0,0-2.12-3.48c2.38-3.48,0-6.84-3.33-7.89a12.83,12.83,0,0,0-1.74-3.23c-1.63-2-3-4-4.4-6.13-3.59-5.38-11-2.7-15.27-6.59a6,6,0,0,0-4.82-1.59,3.71,3.71,0,0,0,0-.48V501a4.64,4.64,0,0,0-1.32-3.19,4.56,4.56,0,0,0-3.18-1.31,5.33,5.33,0,0,0-1.11.17c-1-2.51-5.41-2.63-7.27-3.93a9.37,9.37,0,0,1-1.49-1.47,1.91,1.91,0,0,0-.42-.39,7.54,7.54,0,0,0-1.67-1.52c-1.78-1.13-4.11-.32-5.19-2.51a2,2,0,0,0-3.48,0,1.3,1.3,0,0,0-.25.39,5.39,5.39,0,0,0-.6,2.25,2.94,2.94,0,0,0,.93,2.16,2.87,2.87,0,0,0,3.25.41,12.77,12.77,0,0,0,1.49.47c1.85,1.08,3.3,3.22,4.65,4.66a29.1,29.1,0,0,0,3,3.15,5.5,5.5,0,0,0,.5,2.82,39.61,39.61,0,0,1,2.9,9.21,3.91,3.91,0,0,0,.34.94c0,1,0,1.89-.08,2.84-2.56,2.11-2.51,5.92-2.14,9.06.06.52.14,1,.22,1.54a17.63,17.63,0,0,0-1.94-.6,21.26,21.26,0,0,0-10.6.34c-7.11,2.19-7.94,8.75-11.48,14.08l-.72,1a5.1,5.1,0,0,0-.85,4.6,27,27,0,0,0-2.64,7.83,27.52,27.52,0,0,0-3.48.83q-2.16-3.95-4.34-7.88a12.5,12.5,0,0,0-.55-2.62,37.72,37.72,0,0,0-1.78-3.71,14.5,14.5,0,0,0-1.47-5.26,5.22,5.22,0,0,0-1.32-1.6,12.88,12.88,0,0,0-1.07-1.87,11.3,11.3,0,0,0-10-5,33.29,33.29,0,0,0-3.9-1.42,9,9,0,0,1-5.7-4.16c-.48-4.33-3.49-7.66-4.65-11.69-.09-.39-.18-.79-.3-1.2a6,6,0,0,0-1.79-3,47,47,0,0,1-.27-5.83,6.32,6.32,0,0,0-.24-1.8,19,19,0,0,0,3.76-2.58,4.13,4.13,0,0,0,1.2-2.22,14.13,14.13,0,0,1,5.29-1.59,2,2,0,0,0,1.66-1.17c1.35-.39,2.7-.79,4-1.23s3.29-.73,4.25-1.81a2,2,0,0,0,1.26-2.13c.49-1.39-.53-3.26-2.31-2.65a83.44,83.44,0,0,0-8,3.19,2,2,0,0,0-3.14-.52,12.83,12.83,0,0,1-1.36,1.1,9.51,9.51,0,0,1-2.7,1.11,4,4,0,0,0-1.56.63,3.85,3.85,0,0,0-1.83-.39,4.83,4.83,0,0,0-2.63.9,4.23,4.23,0,0,0-2.59,1.25c-.42.42-.83.85-1.24,1.27a4.47,4.47,0,0,0-1.28,3.08,5.65,5.65,0,0,0-3.94,3,7,7,0,0,0-2.22.51,5.59,5.59,0,0,0-.94.52A4.92,4.92,0,0,0,607,498a6.7,6.7,0,0,0-2.64.68,6.3,6.3,0,0,0-3.15.8,5.95,5.95,0,0,0-2.14,8.14,5.8,5.8,0,0,0,.67.86,7,7,0,0,0-1.25,1.93,5.89,5.89,0,0,0-4.13,5.65,7.54,7.54,0,0,0,.31,1.82,6.1,6.1,0,0,0,.14,2.3c.13.53.29,1.13.44,1.76a56.13,56.13,0,0,0-.88,6.39,23.71,23.71,0,0,0-1.08,7c-1.85,2.57-3.72,4.91-4.28,7.76a4.6,4.6,0,0,0-3.61.85,131.87,131.87,0,0,0-12.91,10.78c-3.72,3.63-4.52,7.73-3.87,12.82a9.22,9.22,0,0,0,4.69,7.08,5.33,5.33,0,0,0,3.76,3c4,1,7.79,3,11.78,3.92a39.52,39.52,0,0,0,9.27.69l1.66.25a41.5,41.5,0,0,1,12.34,4c.92.9,1.84,1.79,2.73,2.63a6.35,6.35,0,0,0,1,.8,19.14,19.14,0,0,0,2.08,9.11,27.37,27.37,0,0,0,4.91,9.1,25.62,25.62,0,0,0,.49,2.53c-1.67,4.77-2,10.49-3,15.13-1.16,5.83-2.3,11.65-2.9,17.55a6.4,6.4,0,0,0-1.6,8,5.45,5.45,0,0,0,5.51,4.19,5.62,5.62,0,0,0,3.79-1.34,6.37,6.37,0,0,0,2.54,0,46.55,46.55,0,0,1,8-.58,5.54,5.54,0,0,0,5.75,1.7,15.21,15.21,0,0,0,3.4-1.32,5.48,5.48,0,0,0,3.84-.74,44.46,44.46,0,0,0,8.45-7c1.15-.51,2.28-1,3.32-1.61a6.31,6.31,0,0,0,1.35-1l2.35-.5a19.46,19.46,0,0,0,5.47-2.19,6.77,6.77,0,0,0,2.16-.88l2.39-1.06a5.15,5.15,0,0,0,5.39-.35l1.17-.71a9.17,9.17,0,0,0,5.66.27,6.71,6.71,0,0,0,1.45.7,13.4,13.4,0,0,0,6,.69,6.54,6.54,0,0,0,4.21-1.75,6.08,6.08,0,0,0,1.75-4.21c0-.17,0-.35,0-.52a43.27,43.27,0,0,0,2.4-5.6,5.86,5.86,0,0,0,1.66-1.49L704,626a5.08,5.08,0,0,0,.5-.44,8.31,8.31,0,0,0,2.19-4.84,7,7,0,0,0-.28-1.75,27.55,27.55,0,0,0-.43-3.1,4.69,4.69,0,0,0-1.18-2.35c.8-5.25.34-10.58,0-15.89a120.29,120.29,0,0,0,.8-14.33,5.82,5.82,0,0,0,5.37,4.11,25.88,25.88,0,0,0,7.85-.54,5.84,5.84,0,0,0,2.81.67c4.54,0,6.4-4.19,5.55-7.6,1.54-3.41,1.87-7.45,2.4-11.13q1.22-8.37,1.62-16.79c.12-.59.23-1.18.35-1.77C732.63,544.72,736,536.37,734,530.87Z" transform="translate(-364.17 -315.07)"/><path class="cls-3" d="M544,555.72c-.19-.22-.39-.43-.61-.64a2,2,0,0,0-1.37-.56c-.46-.28-.92-.56-1.35-.86a1.91,1.91,0,0,0-1-.33,1.7,1.7,0,0,0-.39,0,30.89,30.89,0,0,1-3-2.22,1.93,1.93,0,0,0-1.62-.5,1.68,1.68,0,0,0-2.58,1.22c0,.21-.08.39-.12.59a9.89,9.89,0,0,0-1.68,2.32c-.32.54-.66,1-1,1.51-2.34.71-4.59,1.68-5.06,4.3a4.29,4.29,0,0,0-.06.87,3.4,3.4,0,0,0-.14,2.91,17.34,17.34,0,0,0,1,3,5.51,5.51,0,0,0,.54,1.42,1.85,1.85,0,0,0,.62.65,9.44,9.44,0,0,0,1.86,2.32,2,2,0,0,0,3.34-.88c.14-.36.27-.74.4-1.11.39.11.79.23,1.19.33.2.6.41,1.19.61,1.78.57,1.65,3.36,2.08,3.83.13a4.65,4.65,0,0,0,3.12,1,1.82,1.82,0,0,0,2.36,1.32,7.44,7.44,0,0,0,4.73-3.72c1.1-2.16.6-4.74,1.09-7C549.58,559.59,547,557.55,544,555.72Z" transform="translate(-364.17 -315.07)"/></g><g id="Réteg_9" data-name="Réteg 9"><path class="cls-4" d="M583.8,639.74c-.91-20.32-16.47-37.5-37.5-37.5-19.61,0-38.4,17.25-37.5,37.5s16.48,37.5,37.5,37.5C565.92,677.24,584.71,660,583.8,639.74Z" transform="translate(-364.17 -315.07)"/></g><g id="Réteg_10" data-name="Réteg 10"><path class="cls-5" d="M910.88,634.6c-.13-.64-.26-1.27-.43-1.9a6.33,6.33,0,0,0-.83-2.55,20.86,20.86,0,0,0,1.34-9.53,17,17,0,0,0-2.26-7.21c0-1.83-.13-3.65-.31-5.47,1.3-2.75.62-6.43-2.26-8a20.59,20.59,0,0,0-8-2.31,11.75,11.75,0,0,0-6-1.51,12.84,12.84,0,0,0-3.06.36,5.46,5.46,0,0,0-4.77-2.44,6,6,0,0,0-2.39.46,1.38,1.38,0,0,0-1-.4,1.53,1.53,0,0,0-1.5,1.5v.8a4.93,4.93,0,0,0-.61.88l-.6,1.43a6.08,6.08,0,0,0-.17,2.28,11.5,11.5,0,0,0-1.49,2.65,34.84,34.84,0,0,1-9.92,4.33c.45-.13-1,.15-1.13.18-1.47.26-3,.24-4.47.59l-.36.1a32,32,0,0,0-4.53-.32,29.67,29.67,0,0,0-4.11.29c-2.56-3.11-6.4-5.07-10.41-4.33a19.46,19.46,0,0,0-3.81-2.44,10,10,0,0,0-.78-1.53l-.33-.43a5.82,5.82,0,0,0-1.3-2.57,10.4,10.4,0,0,0-1.29-1.28l-.21-.17a5.4,5.4,0,0,0-.59-.69,1.45,1.45,0,0,0-.25-1.47,1.54,1.54,0,0,0-1.84-1.82c-2.24.55-4.45,1.22-6.64,2a31.75,31.75,0,0,0-3.86,1,6.43,6.43,0,0,0-1.63-.21,5.75,5.75,0,0,0-3.43,1h-.22a9.07,9.07,0,0,0-4.62,1,10.79,10.79,0,0,0-6.34,6.34,7.77,7.77,0,0,0-.57,1.37,8.76,8.76,0,0,0-1.52,2.8,9,9,0,0,0-1,3.65,8.46,8.46,0,0,0-.56,1.31,9.06,9.06,0,0,0-1,4.62l.43,3.19c0,.11.07.2.1.3a11.33,11.33,0,0,0-.4,1.16c0,.14-.06.28-.09.43a5.41,5.41,0,0,0-2.38,4.68,6.14,6.14,0,0,0,.32,1.73,1.55,1.55,0,0,0-.77,1.7l.25,1.31a1.52,1.52,0,0,0,1.84,1.05,1.4,1.4,0,0,0,.94-.84,5,5,0,0,0,3.42,1,15.41,15.41,0,0,0,2.26-.35,5.93,5.93,0,0,0,4,1.53l1.59-.22a5.59,5.59,0,0,0,.89-.33,11.11,11.11,0,0,0,5.18,2,14.78,14.78,0,0,0,.24,4.11l.31,1.6a5.32,5.32,0,0,0-.44,1.17l-.21,1.59a6.45,6.45,0,0,0,.12,1.17,13.68,13.68,0,0,0-.74,5.19,7.05,7.05,0,0,0-1.09,1.74c-3.24,3.26-1.9,10.41,4.08,10.41a6,6,0,0,0,2.86-.68c1.86.91,3.81,1.69,5.77,2.42a18.81,18.81,0,0,0,3.47,2.5,20.42,20.42,0,0,0,6.15,2.21A31.71,31.71,0,0,0,850,674c.2.22.4.44.62.65a16,16,0,0,0,2.75,2c1.16,1.64,2.38,3.24,3.68,4.77a37.61,37.61,0,0,0,3,3.29,9.78,9.78,0,0,0,1,.82,5.46,5.46,0,0,0,2.42,2.82,3.23,3.23,0,0,0,.43.29,1.4,1.4,0,0,0,1.44,1.41,1.37,1.37,0,0,0,1.11-.51c.24,0,.46.06.71.06h.12a5.43,5.43,0,0,0,3.42,1.54,6.22,6.22,0,0,0,1.94.29,6.5,6.5,0,0,0,1.19-.11,1.46,1.46,0,0,0,.38.05,1.36,1.36,0,0,0,1.13-.54,6.08,6.08,0,0,0,3-6.45l.24-.46a29.24,29.24,0,0,0,7.12-11.51,5.09,5.09,0,0,0,.17-2.48c.55-1,1.12-2,1.72-2.95a5.64,5.64,0,0,0,.94-3.26v0a5.32,5.32,0,0,0,.92-4,24.84,24.84,0,0,0,1.18-4.48h0a15.32,15.32,0,0,0,1.13-1.55,20.15,20.15,0,0,0,2.69-8.39,32.57,32.57,0,0,0,.34-3.71l.56-.18c.37-.15.76-.29,1.14-.43a5.47,5.47,0,0,0,4.81,2.5c.22,0,.43,0,.64,0a4.87,4.87,0,0,0,.66,0h.22a5.68,5.68,0,0,0,3.43,1C911.94,644.43,913.46,638.05,910.88,634.6Z" transform="translate(-364.17 -315.07)"/><path class="cls-6" d="M591.07,482.2a2.29,2.29,0,0,0,.33-.75,2.87,2.87,0,0,0-.3-2.31l-.33-.43a3,3,0,0,0,.87-2.76,27.67,27.67,0,0,0-2-6.58,2.75,2.75,0,0,0,.07-1.05c-1.11-9.58-8.8-12.87-17.25-14.23a28.87,28.87,0,0,0-5.21-.62h0a3.08,3.08,0,0,0-1.71-.84,32.6,32.6,0,0,0-8.77,0,3.1,3.1,0,0,0-1.93,1,52.74,52.74,0,0,0-14,2,16.17,16.17,0,0,0-4,.57,9.46,9.46,0,0,0-6.15,2,2.59,2.59,0,0,0-1.73.44c-13.37,8.59-12.94,24.93-11.27,38.95a3.48,3.48,0,0,0,.39,1.23c-1.16,1.75-.39,4.79,2.37,4.79a3,3,0,0,0,2.65-4.25,3.58,3.58,0,0,0,.48-1,1.82,1.82,0,0,0,.07-.25,2.85,2.85,0,0,0,.8-1.33q3.75-12.81,6.84-25.78a11.44,11.44,0,0,0,11.32,2.66,3.13,3.13,0,0,0,1.06.19,3.07,3.07,0,0,0,.89-.14l4.59,1.22a2.13,2.13,0,0,0,1.06,1.25l1,.53a2.5,2.5,0,0,0,2.52-4.32l-1-.53a2.65,2.65,0,0,0-.88-.27,1.31,1.31,0,0,0-1-.87l-1.51-.94c2.92-.24,5.74.41,8.75.64.49.19,1,.36,1.48.51a3,3,0,0,0,.94.74c4.32,2.23,9.31,2.92,13.37,5.62a2.58,2.58,0,0,0,3.7-.66,6.14,6.14,0,0,0,4.9,2.74,2.24,2.24,0,0,0,1.27-.28l.19.21a3.74,3.74,0,0,0,.31.27,1.91,1.91,0,0,0,.35.87l1,1.32a3,3,0,0,0-.05.42,2.49,2.49,0,0,0,2.14,3.69h0a2.32,2.32,0,0,0,1.54.52C591.81,486.5,592.39,483.57,591.07,482.2Z" transform="translate(-364.17 -315.07)"/></g><g id="Réteg_13" data-name="Réteg 13"><path class="cls-5" d="M885.87,498.26a.8.8,0,0,1-.08-.16c-.13-.23-.25-.46-.36-.7-.34-.75-.3-.64.12.34a6.65,6.65,0,0,1-.69-2c-.94-3.05-3.89-5.66-7.23-5.51a7.9,7.9,0,0,0-7.23,5.51,16.12,16.12,0,0,0-.45,9.08c1.09,3.94,4.17,6,7.87,6.65a8.07,8.07,0,0,0,5,1.21c3.9-.34,7.69-3.21,7.5-7.5A8.31,8.31,0,0,0,885.87,498.26Z" transform="translate(-364.17 -315.07)"/><path class="cls-6" d="M903,510.81a51.05,51.05,0,0,0-.73-6.25c0-.93.06-1.87.08-2.8.07-5.19-.1-8.49-2.76-12.87a7.72,7.72,0,0,0-2-2.22,9.63,9.63,0,0,0-8.81-4.49c-2.78.11-5.92-.3-8.61.56a10.32,10.32,0,0,0-2.06.93c-.34-.29-.69-.6-1-.86a5.25,5.25,0,0,0-2.4-2.54,16.53,16.53,0,0,0-5.36-2.29,10.15,10.15,0,0,0-1.91-.09,5.1,5.1,0,0,0-2.24-.23l-.58.06a28.71,28.71,0,0,0-6.36.79c-.27.06-.52.14-.77.22a1.84,1.84,0,0,0-2-.64,80.65,80.65,0,0,0-16.65,9.12,52.7,52.7,0,0,0-4.26,3.35c-.38.33-.75.67-1.12,1a24.74,24.74,0,0,0-4.35,6.58,43.72,43.72,0,0,0-3.11,4.57,1.81,1.81,0,0,0-.17,1.64c.19,1.56,2.08,2.8,3.27,1.28a25,25,0,0,0,2.5-4.14l.1-.15a1.85,1.85,0,0,0,.92-.32c3.65-2.42,7.38-5,11.53-6.5.54-.19,1.08-.36,1.62-.5a2,2,0,0,0,2.51-.15l.63-.54c1.89-.33,3.81-.58,5.7-1,.37-.09.73-.2,1.09-.31a6,6,0,0,0,4.58,1.22l4.53-.53a4.52,4.52,0,0,1,2.32,1.3,7.65,7.65,0,0,0,.34,2.77l.12.38a7.19,7.19,0,0,0-.81,1.89,8.3,8.3,0,0,0,2.1,7.58,3.52,3.52,0,0,0,1.14,1.9l.32.24a6.46,6.46,0,0,0,2.27,4.1,14.56,14.56,0,0,0,3.62,4.48c.66.53,1.37.81,1.95,1.3a29,29,0,0,0,3.11,3c3,2,7,2.83,10.4,4a8.4,8.4,0,0,0,1,.25,1.83,1.83,0,0,0,.81.7,7.39,7.39,0,0,0,3.93.78,8.36,8.36,0,0,0,4,.85,2,2,0,0,0,1.4-1.4C904.2,522.13,903.25,515.6,903,510.81Z" transform="translate(-364.17 -315.07)"/><path class="cls-6" d="M918.28,550.39a2,2,0,0,0-2-2,9,9,0,0,0-1.2-2.11c-1.75-2.29-4.78-2.82-7.08-4.25a2.27,2.27,0,0,0-.72-.8h0l-.2-.18c-.11-.1-.21-.22-.31-.33s-.21-.3-.25-.37-.19-.37-.28-.56a2,2,0,0,0-2.73-.71,1.93,1.93,0,0,0-.95,1.75l0,.07c-.34,1.2-4.93,2.62-6,3.92-1.71,2-2.26,4.53-2.57,7.07-.41,3.35-.62,6.75-.87,10.12a9.9,9.9,0,0,0-.41,1.37c-.6,2.81.84,5,.48,7.71-.51,3.84,2,6.21,5,7a38.45,38.45,0,0,0,6.54,5.07,1.94,1.94,0,0,0,.55,1.16l.2.2a2,2,0,0,0,2.83,0,2.15,2.15,0,0,0,.53-1.83,2.09,2.09,0,0,0-.11-1.28c0-.08,0-.15,0-.24-.53-3.17-1.1-6.52,0-9.61.79-2.14,2.4-3.72,3.72-5.54a23.81,23.81,0,0,0,4.57-11.1,16.07,16.07,0,0,0,.08-2.69A2,2,0,0,0,918.28,550.39Z" transform="translate(-364.17 -315.07)"/></g><g id="Réteg_11" data-name="Réteg 11"><path class="cls-7" d="M837.64,560.28a21.68,21.68,0,0,0-5-6l-.15-.11a6.34,6.34,0,0,0-1.53-3.68c1.19-1.75.42-4.81-2.34-4.81a2.81,2.81,0,0,0-2.89,2.89,6.08,6.08,0,0,0-5,4.66c-.18.06-.36.12-.54.2a7.46,7.46,0,0,0-2.2,1.41,6.26,6.26,0,0,0-6.15,1.15c-3.22,2.56-5.68,2.55-9.61,2.13a56.05,56.05,0,0,0-9.69-.16l-.81-.33a44.05,44.05,0,0,1-11-7.21,13.45,13.45,0,0,0-1.29-2.71c-1.33-2.24-3.34-4.21-4.22-6.72-.82-2.34-.45-4.7-.66-6.82a6.4,6.4,0,0,0,.27-1.67c2.26-1.32,1.77-5.61-1.5-5.61a2.9,2.9,0,0,0-1.53.42,6,6,0,0,0-4.49-.55,7.52,7.52,0,0,0-2,1c-3.13-.27-6.45-.07-9.23-.22s-5.85-.56-8.62.25a15.17,15.17,0,0,0-2.62,1.14c-.34.18-.81.38-1.21.59a4.86,4.86,0,0,0-1.55.76c-4.88.08-7.45,5.8-5.47,9.22a50.93,50.93,0,0,0-4.71,15c-1,7.8-1.41,15.73-2,23.59,0,.08,0,.16,0,.24a7.16,7.16,0,0,0-1.65,4c-.16,1.61-.15,3.44-.36,5.14a6,6,0,0,0-.92,2.88l-.06.94a5.54,5.54,0,0,0,3.83,5.48c5.26,4,14.2,4.19,20.07,3.71a6.71,6.71,0,0,0,1.39-.27,5,5,0,0,0,1,.09h.53a6.11,6.11,0,0,0,.73,0,7.4,7.4,0,0,0,.83,0,6.64,6.64,0,0,0,1.21-.11,16,16,0,0,0,1.06,2.25c0,.44.08.86.1,1.31a6,6,0,0,0,.86,2.9,12.8,12.8,0,0,0,1.35,3.34,11.67,11.67,0,0,0,5.71,4.92c3,1.29,3.79,1.06,4.59,4.45a71.29,71.29,0,0,0,6,17.14c3.12,6.09,3.57,13,6.7,19.13,2.23,4.34,9.31,3.36,10.83-.78a5.75,5.75,0,0,0,1.28-1.48c2.38-4,2.67-8.77,2.8-13.43a6.48,6.48,0,0,0-.83-8.15l0,0c0-.12,0-.24-.08-.36a5.22,5.22,0,0,0-1.28-2.42,49.32,49.32,0,0,0,3.57-15q2.7-7.8,5.55-15.54c5.79-2.24,11.82-4.49,17.93-6.29a8.25,8.25,0,0,0,3.06.13,70.57,70.57,0,0,0,11.3-2.43c6.09-.42,13-5.7,14.87-10.51C855.6,569.58,844.56,564.75,837.64,560.28Z" transform="translate(-364.17 -315.07)"/></g><g id="Réteg_12" data-name="Réteg 12"><path class="cls-5" d="M887.49,458.28a6.6,6.6,0,0,0-1.07-3.34,6.78,6.78,0,0,0-2.31-2.53c-1-5.49-5.08-10.3-12.14-10.58a11.84,11.84,0,0,0-6.67-5.37,23.66,23.66,0,0,0-5.16-2.13,1.81,1.81,0,0,0-1.55.2c-.07-.14-.16-.27-.23-.41a7.84,7.84,0,0,0-2.55-2.82,48.54,48.54,0,0,0,1.85-6.46,10.34,10.34,0,0,0,.07-3.68c0-.07.07-.14.1-.22,1.21-2.9,1-6,.57-9.07-.16-1.05-.37-2.07-.59-3.11-.07-.32-.13-.64-.19-.95,0-.09,0-.35,0-.8,0-4.43-3.66-8.68-8.15-9a22.17,22.17,0,0,0-3.81-2.94,18.2,18.2,0,0,0-2.61-1.22,23.84,23.84,0,0,0-2.8-1.09,10.3,10.3,0,0,0-5.39-.24,10.12,10.12,0,0,0-5,1.6,10.83,10.83,0,0,0-2.46,1.86l-.36-.13a8,8,0,0,0-5.89-4.2c-.19-.06-.38-.12-.57-.16l-.45-.11-.07-.07a9.22,9.22,0,0,0-6.37-2.64,9.44,9.44,0,0,0-5.66,2,22.46,22.46,0,0,0-6.94.87A61.53,61.53,0,0,0,785,399c-.83.35-1.64.73-2.44,1.12a9.33,9.33,0,0,0-4.72,1.15,34.58,34.58,0,0,0-5.38,3.76c-.34.27-.66.56-1,.85a9.51,9.51,0,0,0-6.15,5.75,8.84,8.84,0,0,0-4.77,3.92c-.17.39-.33.79-.5,1.19a14.43,14.43,0,0,0-3.54,6.45,9,9,0,0,0-.48,1.29l-.27,1.57a6.81,6.81,0,0,0-.16,3.58,6.61,6.61,0,0,0,.19,1.26,14.3,14.3,0,0,0,.67,11.63,9.66,9.66,0,0,0-1.36,2,28.22,28.22,0,0,0-2.51,7.58,8.11,8.11,0,0,0-4.18,2.33,10.18,10.18,0,0,0-1.4,2,8,8,0,0,0-5.87,4.33,10.48,10.48,0,0,0-4.78,4.09c-2.38,4.06-.9,8.31,1.15,12.08,1.9,3.49,4.84,7.21,8.63,8.78a7.26,7.26,0,0,0,.26,3.93,33.93,33.93,0,0,0,2.53,5.52,15.68,15.68,0,0,0-2.14,3.64l-.21.11c-2.67,1.5-4.17,4.15-5.22,6.91q-.26.64-.45,1.29a8.6,8.6,0,0,0-.76,1.8,9.59,9.59,0,0,0-.25,3.28c0,.62-.06,1.25-.06,1.87a9,9,0,0,0-.78,3.6,18.1,18.1,0,0,0,.36,2.66,1,1,0,0,0,.08.25l.9,2.15a9.36,9.36,0,0,0,5.66,4.42,9.8,9.8,0,0,0,2.59.35,6.89,6.89,0,0,0,3.61-.81l.13,0a8.57,8.57,0,0,0,3.47-1.78,11.41,11.41,0,0,0,4,.62,17.49,17.49,0,0,0,2.69-.33,13.19,13.19,0,0,0,7.06,1.89,14,14,0,0,0,5.15-.94,26.12,26.12,0,0,0,3.92.87,8.38,8.38,0,0,0,5.8,2.09,10.25,10.25,0,0,0,2.21-.24,4.36,4.36,0,0,0,3.27,1.48,4.55,4.55,0,0,0,4.5-4.5,17.74,17.74,0,0,0-1.3-6,9.42,9.42,0,0,0-2.34-6.15,8.61,8.61,0,0,0-6.52-4.44l-1.56-.82a10.52,10.52,0,0,0-1.19-.53,12.06,12.06,0,0,0-9.2-7.6,13.68,13.68,0,0,0-2.46-5.09,9.29,9.29,0,0,0-2.22-5.19,1.94,1.94,0,0,1,0-.24c-.06-1.3,0-2.59,0-3.88a8.19,8.19,0,0,0-1.7-5.21,8.2,8.2,0,0,0,.12-1.32V477a7.58,7.58,0,0,0,0-1,10.21,10.21,0,0,0,1.11-5.09c0-.22,0-.43,0-.64.28-1.14.57-2.29.87-3.44,1.12-4.3.53-9.26,2.57-13.23a9.13,9.13,0,0,0,1.07-4.72,13.45,13.45,0,0,0,4.87-2.33,21.79,21.79,0,0,0,9-1.92,9.13,9.13,0,0,0,3.82-1.19c.7-.4,1.41-.77,2.12-1.14a20,20,0,0,0,5.08-1.13,26.85,26.85,0,0,0,7.31-4.27,4.73,4.73,0,0,0,.46-.44,20.41,20.41,0,0,0,2.42-1,4.14,4.14,0,0,0,2.93-.55,23.86,23.86,0,0,0,3.78-3.31l.14-.19a131.93,131.93,0,0,0,13.17-7.16c1,4.7,1.89,9.41,4.09,13.73,3.37,6.65,9.41,11.08,15.36,15.28l.3.19a8.23,8.23,0,0,0,5.39,5.95,12.11,12.11,0,0,0,6.63,3.19l-.24,2.08a10.2,10.2,0,0,0,.46,3.46,4.18,4.18,0,0,0-2.38,3.86c0,.05,0,.1,0,.14A20,20,0,0,0,853,475c-1.78,1.86,1,4.69,2.82,2.83a17.77,17.77,0,0,1,2.5-2.17,3.66,3.66,0,0,0,2.6.82,12.62,12.62,0,0,0,3.25-.68,9.92,9.92,0,0,0,2.47,1.2,10.21,10.21,0,0,0,5.2,1.16l2.08-.28a4,4,0,0,0,1,1.65,4.48,4.48,0,0,0,8.83-.62,3.63,3.63,0,0,0,.79-1.58l.27-1.3a5.56,5.56,0,0,0,.1-1.46,10,10,0,0,0,1.08-8.93,6.65,6.65,0,0,0,1.11-2.49c.09-.44.17-.87.26-1.31A6.75,6.75,0,0,0,887.49,458.28Z" transform="translate(-364.17 -315.07)"/></g><g id="lineart"><path class="cls-4" d="M519.44,506.51a1.48,1.48,0,0,0,0-1.15,69.32,69.32,0,0,1-1.61-14.05c0-23.06,5.44-27.16,9.82-30.46a26.21,26.21,0,0,0,2.81-2.34,1.5,1.5,0,1,0-2.12-2.12,22.87,22.87,0,0,1-2.5,2.06c-4.91,3.7-11,8.3-11,32.86a76.74,76.74,0,0,0,1.49,13.91,9,9,0,0,1,2.24.51A1.49,1.49,0,0,1,519.44,506.51Z" transform="translate(-364.17 -315.07)"/><path class="cls-4" d="M519.62,519.47a1.37,1.37,0,0,1,.78.06,1.34,1.34,0,0,0-.34-.57,1.49,1.49,0,0,0-2.12,0,4.39,4.39,0,0,1-3.08,1.26c-1.13,0-3.76,0-3.76-5.29,0-6.75,3.24-6.75,4.45-6.75a5.76,5.76,0,0,1,2,.37,1.5,1.5,0,0,0,1-2.82,9,9,0,0,0-2.24-.51,7.14,7.14,0,0,0-.8,0c-2.78,0-7.45,1.27-7.45,9.75,0,7.21,4.23,8.29,6.76,8.29a7.48,7.48,0,0,0,3.79-1.05c-.07-.31-.13-.61-.2-.93A1.49,1.49,0,0,1,519.62,519.47Z" transform="translate(-364.17 -315.07)"/><path class="cls-4" d="M533.73,551.05A32.83,32.83,0,0,0,540,554.1c5,2,8.38,3.32,8.38,14.29a4.3,4.3,0,0,1-1.37,3.05,16.27,16.27,0,0,0-1,1.37,1.49,1.49,0,0,1,1.69,1.23,1.5,1.5,0,0,1-1.23,1.73l-.29,0,.1,0a1.35,1.35,0,0,0,.55.11,1.5,1.5,0,0,0,1.4-.94,6.64,6.64,0,0,1,1.11-1.67,7.12,7.12,0,0,0,2.06-5c0-13-4.76-14.89-10.27-17.08-6.49-2.57-14.57-5.76-19.72-30.67a1.47,1.47,0,0,0-1-1.11,1.37,1.37,0,0,0-.78-.06,1.49,1.49,0,0,0-1.17,1.77c.07.32.13.62.2.93,3.77,17.57,9.25,24.81,14.48,28.48A1.51,1.51,0,0,1,533.73,551.05Z" transform="translate(-364.17 -315.07)"/><path class="cls-4" d="M590.77,492.14a1.48,1.48,0,0,1,1.07.45c1.1-2.71,1.23-9.48,1.23-12.56,0-22.64-7.86-29.91-32.35-29.91a94,94,0,0,0-27.43,4.36,1.5,1.5,0,0,0,.87,2.87,91.17,91.17,0,0,1,26.56-4.23c23,0,29.35,5.79,29.35,26.91,0,3.83-.38,10.27-1,11.41a1.51,1.51,0,0,0,.07,2,.53.53,0,0,0,.1.06A1.5,1.5,0,0,1,590.77,492.14Z" transform="translate(-364.17 -315.07)"/><path class="cls-4" d="M538.92,473.46a15.74,15.74,0,0,1-3.37-1.24,15.92,15.92,0,0,0-4.73-1.54,1.52,1.52,0,0,0-1.17.37,1.55,1.55,0,0,0-.49,1.12c0,11.18-2.68,21.41-7.75,29.58a1.49,1.49,0,0,0,.48,2.06,1.54,1.54,0,0,0,.79.23,1.51,1.51,0,0,0,1.28-.71c5.07-8.18,7.88-18.27,8.17-29.28.71.25,1.44.57,2.19.91a18.61,18.61,0,0,0,4,1.44,33.7,33.7,0,0,0,6.14.47c3.61.05,7,.09,10.58,2.13a1.5,1.5,0,1,0,1.49-2.61c-4.23-2.42-8.37-2.47-12-2.52A30.82,30.82,0,0,1,538.92,473.46Z" transform="translate(-364.17 -315.07)"/><path class="cls-4" d="M569.23,475.14c-8-4.78-9.84-4.9-12-5a14.06,14.06,0,0,1-5.43-1.45,1.5,1.5,0,1,0-1.19,2.75,16.69,16.69,0,0,0,6.42,1.69c1.78.12,3.31.22,10.66,4.63a1.54,1.54,0,0,0,.77.21,1.5,1.5,0,0,0,.77-2.79Z" transform="translate(-364.17 -315.07)"/><path class="cls-4" d="M586.48,484.4a1.51,1.51,0,0,0,.26-2.11,11.11,11.11,0,0,0-5.23-4.15c-1.69-.7-3.29-1.37-7.22-8.25a1.51,1.51,0,0,0-2-.55,1.49,1.49,0,0,0-.56,2c4.12,7.21,6.2,8.5,8.68,9.53a8.24,8.24,0,0,1,4,3.23,1.52,1.52,0,0,0,2.11.26Z" transform="translate(-364.17 -315.07)"/><path class="cls-4" d="M592,498a4.58,4.58,0,0,1,.53,0h.25a12.35,12.35,0,0,1-.51-4.37,1.5,1.5,0,0,0-1.5-1.5,1.5,1.5,0,0,0-1.49,1.4s0,.07,0,.1a14.78,14.78,0,0,0,.72,5.47,1.56,1.56,0,0,0,.54.67,1.55,1.55,0,0,1,0-.31A1.5,1.5,0,0,1,592,498Z" transform="translate(-364.17 -315.07)"/><path class="cls-4" d="M593.15,512.69a1.52,1.52,0,0,1,1.57,1.42c0,.07,0,.14,0,.2,1.81-1.1,5.34-4,5.34-8a17.42,17.42,0,0,0-.42-4.32l-.5.29a1.5,1.5,0,0,1-1.52-2.58c.24-.15.48-.29.74-.43a5,5,0,0,0-4.11-1.79,2.35,2.35,0,0,0-1.12.34,2.79,2.79,0,0,1-.35.15h-.27a4.58,4.58,0,0,0-.53,0,1.5,1.5,0,0,0-1.5,1.5,1.55,1.55,0,0,0,0,.31A1.5,1.5,0,0,0,592,501l.29,0,.51,0a3.68,3.68,0,0,0,1.71-.48c1.34.06,2.57.74,2.57,5.82,0,2.42-2.79,4.87-4.22,5.58a1.49,1.49,0,0,0-.82,1.36A1.51,1.51,0,0,1,593.15,512.69Z" transform="translate(-364.17 -315.07)"/><path class="cls-4" d="M529.41,502.28c.75-.83,4.69-2.53,8.81-3.8a1.5,1.5,0,1,0-.89-2.86c-10.89,3.34-10.89,5.52-10.89,6.34a1.5,1.5,0,0,0,1.5,1.5A1.49,1.49,0,0,0,529.41,502.28Z" transform="translate(-364.17 -315.07)"/><path class="cls-4" d="M584.25,495.33c-3.09-2.06-6.6-2.56-10-3a1.5,1.5,0,1,0-.43,3c3.2.45,6.22.89,8.75,2.57a1.47,1.47,0,0,0,.83.25,1.5,1.5,0,0,0,.83-2.75Z" transform="translate(-364.17 -315.07)"/><path class="cls-4" d="M534.85,511.63c0,2.43,2,4.4,3.66,4.4a3.22,3.22,0,0,0,2.47-1.26,1.51,1.51,0,0,0,.84-.43,4.24,4.24,0,0,0,1.2-3,5.44,5.44,0,0,0-1-3.08,5.28,5.28,0,0,0-5-4.26h-.19c-4.21.21-7.35,3.59-8.77,6.43a1.51,1.51,0,0,0,.67,2,1.49,1.49,0,0,0,2-.68c1.14-2.28,3.51-4.64,6.28-4.78a1.86,1.86,0,0,1,1.1.38A4.65,4.65,0,0,0,534.85,511.63Zm4.42-1.5a5.43,5.43,0,0,1,0,.58,3.36,3.36,0,0,1-.72,2.28,1.82,1.82,0,0,1-.72-1.36C537.85,510.81,538.67,510.32,539.27,510.13Z" transform="translate(-364.17 -315.07)"/><path class="cls-4" d="M559.22,524.75a1.46,1.46,0,0,0,1.2.6,1.52,1.52,0,0,0,.9-.3c1.85-1.39,4-8,4-9.26a2.66,2.66,0,0,0-.92-2,5.32,5.32,0,0,0-2.34-1c-2.37-.61-5.32-1.37-5.32-7.26a35.7,35.7,0,0,1,.31-4.14l0-.43a1.5,1.5,0,1,0-3-.33l0,.42a39.1,39.1,0,0,0-.33,4.48c0,8.21,5.11,9.53,7.57,10.16.34.09.77.2,1,.27-.25,1.36-1.93,6-2.73,6.69A1.49,1.49,0,0,0,559.22,524.75Z" transform="translate(-364.17 -315.07)"/><path class="cls-4" d="M567.38,507a1.49,1.49,0,0,0,2.12,0,9.87,9.87,0,0,1,3.55-1.85,4.39,4.39,0,0,0-1.23,3c0,1.87,1.35,4.47,3.88,4.47,1.86,0,4.71-2.44,4.71-5.67s-1.61-5.57-4.12-5.57c-1.34,0-6.64,1.24-8.91,3.51A1.49,1.49,0,0,0,567.38,507Zm9.64-.66c.12.06.32.22.32.38a1.63,1.63,0,0,0,.06.45,3.18,3.18,0,0,1-1.7,2.44c-.51,0-.88-1-.88-1.47C574.82,507.29,575.81,506.5,577,506.34Z" transform="translate(-364.17 -315.07)"/><path class="cls-4" d="M547,531.54a1.5,1.5,0,0,0-2.9.77c1.15,4.32,5.16,6.88,8.53,7.85a1.84,1.84,0,0,0,.41.05,1.5,1.5,0,0,0,.41-2.94C550.82,536.53,547.78,534.64,547,531.54Z" transform="translate(-364.17 -315.07)"/><path class="cls-4" d="M488.51,582.67c.06.29.13.59.2.87A1.49,1.49,0,0,0,488.51,582.67Z" transform="translate(-364.17 -315.07)"/><path class="cls-4" d="M456.59,690.67a1.5,1.5,0,0,1-.31,2.09,12.28,12.28,0,0,0-1.1.93c.12.54.25,1.1.37,1.69.06.26.11.53.16.8.43,2.34,1.08,5.89,7,5.89.59,0,1.18,0,1.76-.06s1-.06,1.5-.06a1.39,1.39,0,0,0,.46-.08,1.49,1.49,0,0,1-1-1.51,1.5,1.5,0,0,1,1-1.33,1.77,1.77,0,0,0-.46-.08c-.54,0-1.09,0-1.66.06s-1.06.06-1.6.06c-3.37,0-3.58-1.15-4-3.43-.05-.29-.11-.59-.17-.88-1.9-9-4-11.86-5.71-14.15s-2.66-3.58-2.66-10.84c0-.55,0-1.09,0-1.64s0-1.1,0-1.64c0-1.88-.15-4.83-.33-8.24-.26-4.94-.58-11.09-.58-16.73,0-4.67.31-9.6.44-11.5,0-.13,0-.2,0-.21a34.18,34.18,0,0,0-.23-3.63c0,.06,0,.12,0,.18a1.51,1.51,0,0,1-1.47,1.2l-.3,0c-.37-.07-.75-.17-1.12-.27.08.88.14,1.72.14,2.55-.14,1.93-.45,6.94-.45,11.71,0,5.72.32,11.91.58,16.89.18,3.37.33,6.28.33,8.08,0,.54,0,1.07,0,1.62s0,1.1,0,1.66c0,7.85,1.24,9.91,3.25,12.63a22.68,22.68,0,0,1,4,8.09,2,2,0,0,0,.16-.14A1.5,1.5,0,0,1,456.59,690.67Z" transform="translate(-364.17 -315.07)"/><path class="cls-4" d="M449.38,625.62l-.09-.81a41,41,0,0,1-.37-4.67c0-6.25,6.12-10.54,12.6-15.08a78.66,78.66,0,0,0,8.46-6.5,2.07,2.07,0,0,0,.17-.24,1.47,1.47,0,0,0-2.06-2.05l-.15.09a77.39,77.39,0,0,1-8.14,6.25c-6.83,4.78-13.88,9.72-13.88,17.53a34.77,34.77,0,0,0,.27,3.94c.69.2,1.39.38,2.06.51A1.48,1.48,0,0,1,449.38,625.62Z" transform="translate(-364.17 -315.07)"/><path class="cls-4" d="M467.36,702c3.82,0,12.76-3.81,12.76-11.2a27.16,27.16,0,0,0-.7-5.17c-.08-.41-.19-.92-.2-1,0-.75,0-1,1.72-1l1,0h1.33a1.49,1.49,0,0,1,1.81-2c.67.2,1.54.4,2.57.62a4.19,4.19,0,0,0,1.52-3.28c0-4-13.89-8.37-19.29-9.9a3.26,3.26,0,0,1-.85,1.57,1.49,1.49,0,0,1-2.48-1.51,1.5,1.5,0,0,0,1.12,2.37c2.32.37,16.94,5.47,18.49,7.64-.14,1.21-1.77,1.47-3.15,1.47h-1l-1.05,0c-1.17,0-4.72,0-4.72,4a9.19,9.19,0,0,0,.26,1.61,24.68,24.68,0,0,1,.64,4.57c0,5.66-7.76,8.2-9.76,8.2H467a1.36,1.36,0,0,0-.57.07,1.5,1.5,0,0,0-1,1.33,1.49,1.49,0,0,0,1,1.51,1.61,1.61,0,0,0,.38.08Z" transform="translate(-364.17 -315.07)"/><path class="cls-4" d="M506,575.61a1.5,1.5,0,0,0-1.34,1.61,1.59,1.59,0,0,1,.65-.55,1.49,1.49,0,0,1,2,.76c.25.56.47,1.14.68,1.73-.14-.74-.24-1.48-.32-2.22A1.5,1.5,0,0,0,506,575.61Z" transform="translate(-364.17 -315.07)"/><path class="cls-4" d="M505.1,580a29.42,29.42,0,0,0,.87,3.44A19.05,19.05,0,0,0,505.1,580Z" transform="translate(-364.17 -315.07)"/><path class="cls-4" d="M616.76,648.39a1.51,1.51,0,0,0-2.07.46,9.72,9.72,0,0,0-.88,1.77,21.22,21.22,0,0,0-.9,3.48,16.64,16.64,0,0,1-.91,3.4,142,142,0,0,0-7.58,21.66c-.69,2.6-1,3.9-1.72,4.53s-2.36,1-5.32,1.76c-6.23,1.5-19.2,4.62-45.68,16a1.5,1.5,0,0,0,.59,2.88,1.56,1.56,0,0,0,.59-.12c26.24-11.25,39-14.32,45.2-15.8,7.13-1.71,7.56-2.11,9.24-8.45a139.22,139.22,0,0,1,7.44-21.24,19.39,19.39,0,0,0,1.1-4,11.86,11.86,0,0,1,1.36-4.2,1.51,1.51,0,0,0-.46-2.08Z" transform="translate(-364.17 -315.07)"/><path class="cls-4" d="M578.74,728.87a1.49,1.49,0,0,1-1.26-.68,1.51,1.51,0,0,1,.44-2.08l.3-.18c-5.54-6.67-15.36-13.08-21-16.75l-1.89-1.24a1.5,1.5,0,1,0-1.66,2.5l1.91,1.25c6.49,4.24,23.72,15.48,23.72,23.13,0,1-1.36,7.27-4.53,7.27h-.27a6.41,6.41,0,0,0-1,0l-.45,0h-.21c-13.69-9.68-28.52-14.51-43.06-17a1.5,1.5,0,0,1-1.27,1h-.13a1.49,1.49,0,0,1-1.49-1.37v-.06c-12.31-1.87-24.32-2.17-35.16-2.44-24.56-.61-40.78-1-40.78-17.93a14.32,14.32,0,0,1,4.2-10.57,12.28,12.28,0,0,1,1.1-.93,1.5,1.5,0,0,0-1.79-2.41,2,2,0,0,1-.16.14A17,17,0,0,0,448,704.26c0,19.84,19.28,20.32,43.7,20.93,24.05.6,54,1.34,79.47,19.36a3.22,3.22,0,0,0,1.93.56c.22,0,.44,0,.65,0a2.54,2.54,0,0,1,.55,0l.5,0c5.65,0,7.53-8.09,7.53-10.27a12.17,12.17,0,0,0-2.29-6.46l-.47.27A1.5,1.5,0,0,1,578.74,728.87Z" transform="translate(-364.17 -315.07)"/><path class="cls-4" d="M531.44,715.89a1.48,1.48,0,0,0-2,.2l-.06.06a11.84,11.84,0,0,0-2.47,7.37c0,.36,0,.73,0,1.11v.06a1.49,1.49,0,0,0,1.49,1.37h.13a1.5,1.5,0,0,0,1.27-1,1.48,1.48,0,0,0,.1-.66c0-.31,0-.62,0-.92a8.79,8.79,0,0,1,1.76-5.43.36.36,0,0,0,.07-.1A1.5,1.5,0,0,0,531.44,715.89Z" transform="translate(-364.17 -315.07)"/><path class="cls-4" d="M628.31,676.9a77.42,77.42,0,0,0-14.55,1.83c-1.46.29-2.92.56-4.38.82a1.5,1.5,0,1,0,.51,3c1.48-.25,3-.54,4.44-.82a75.33,75.33,0,0,1,14-1.78c6.87,0,9.32,3,9.74,4q1.41-.42,2.91-.78C640.15,680.58,636.23,676.9,628.31,676.9Z" transform="translate(-364.17 -315.07)"/><path class="cls-4" d="M608.63,717.63l-.23.09c-3.27,1.56-8.92,2.68-14.38,3.75-6.41,1.27-12.47,2.46-15.8,4.46l-.3.18a1.51,1.51,0,0,0-.44,2.08,1.5,1.5,0,0,0,2.07.44l.47-.27c3-1.65,8.86-2.82,14.58-3.94,5.24-1,10.62-2.11,14.25-3.64a11.33,11.33,0,0,1-.25-2.2C608.6,718.26,608.62,718,608.63,717.63Z" transform="translate(-364.17 -315.07)"/><path class="cls-4" d="M725.91,697a1.74,1.74,0,0,1-.39,0,1.5,1.5,0,0,1-1.06-1.84c0-.15.09-.31.13-.47-.37-.24-.73-.48-1.11-.71a72.67,72.67,0,0,0-9.5-4.89,1.51,1.51,0,0,1-1.31.77h-.16a1.49,1.49,0,0,1-1.33-1.65l0-.25c-2.34-.91-4.89-1.78-7.65-2.58a1.56,1.56,0,0,1-.74.22,1.52,1.52,0,0,1-1.35-.8,128.46,128.46,0,0,0-33.34-4c-11.36,0-20,.72-27.17,2.43q-1.5.36-2.91.78a44.28,44.28,0,0,0-15.88,8.41c-6,4.92-13.17,13.28-13.54,25.29,0,.32,0,.63,0,1a11.33,11.33,0,0,0,.25,2.2c3,14.45,33.37,36.63,64.49,36.63h2.12l1.89,0c.63,0,1.3,0,2.43,0,10,0,18.62-1.64,26.41-5q2.14-.93,4.27-1.81c12.9-5.42,25.08-10.54,31-25.59a14.56,14.56,0,0,0,1-5.27c0-7.93-5.67-16.47-15.33-23.41A1.5,1.5,0,0,1,725.91,697Zm13.55,22.77a11.54,11.54,0,0,1-.82,4.17c-4,10.15-11,15.36-19.47,19.54,0,.39-.09.77-.15,1.16a1.49,1.49,0,0,1-1.48,1.29l-.21,0a1.5,1.5,0,0,1-1.2-1c-2.21,1-4.49,2-6.84,2.95q-2.13.89-4.29,1.81c-7.41,3.2-15.66,4.76-25.22,4.76-1.1,0-1.74,0-2.35,0s-1.12,0-2,0h-2.12c-16,0-31.25-5.91-42.57-13.29a1.51,1.51,0,0,1-1.35.9,1.57,1.57,0,0,1-.37,0,1.5,1.5,0,0,1-1.09-1.82c.06-.25.13-.52.18-.8C618,732.15,611.6,724,611.6,718.58c0-11.35,6.78-19.27,12.47-23.92a42,42,0,0,1,7.66-5c0-.2,0-.39,0-.59a1.5,1.5,0,0,1,2.76-.68c7.28-3,17.24-4.62,33.6-4.62C714.67,683.72,739.46,704.67,739.46,719.8Z" transform="translate(-364.17 -315.07)"/><path class="cls-4" d="M520.94,562.46a1.5,1.5,0,0,0,1.39.93h.23a1.5,1.5,0,0,0,1.22-.64,1.44,1.44,0,0,0,.21-.41l1.36-1.37a102.56,102.56,0,0,1,8.22-7.75,1.51,1.51,0,0,0,.22-2.11l-.06-.06a1.51,1.51,0,0,0-2.05-.16,105.75,105.75,0,0,0-8.47,8l-1.79,1.81-.15.16A1.49,1.49,0,0,0,520.94,562.46Z" transform="translate(-364.17 -315.07)"/><path class="cls-4" d="M597.11,501.79a1.49,1.49,0,0,0,2,.53l.5-.29a113.44,113.44,0,0,1,10.66-5,11.16,11.16,0,0,1,1.92-4.09l-.08,0c-.16.09-1,.43-1.75.76a128.43,128.43,0,0,0-12,5.61c-.26.14-.5.28-.74.43A1.49,1.49,0,0,0,597.11,501.79Z" transform="translate(-364.17 -315.07)"/><path class="cls-4" d="M610,499.71c0,2.33,3.68,27.3,5.42,35.12a1.46,1.46,0,0,0,.8,1,1.49,1.49,0,0,1,.48-1.83l1.39-1c-1.92-9.35-5.09-31.74-5.09-33.27,0-8.78,12.89-12.08,23.26-14.73,2.69-.68,5.23-1.34,7.41-2.05,0-.25,0-.51,0-.76a12.31,12.31,0,0,0-.21-2.26,1.47,1.47,0,0,0-.41.07c-2.15.72-4.78,1.39-7.56,2.1-8.63,2.2-18.86,4.82-23.28,10.82a11.16,11.16,0,0,0-1.92,4.09A11.93,11.93,0,0,0,610,499.71Z" transform="translate(-364.17 -315.07)"/><path class="cls-4" d="M662.86,556.65c-.14.37-.26.73-.4,1.11A1.5,1.5,0,0,0,662.86,556.65Z" transform="translate(-364.17 -315.07)"/><path class="cls-4" d="M632.35,525.37a1.55,1.55,0,0,1-.56.11,1.5,1.5,0,0,1-1.39-1l-.12-.28c-1.72,1-4,2.72-7.5,5.29L618.1,533l-1.39,1a1.49,1.49,0,0,0-.48,1.83,1.35,1.35,0,0,0,.15.26,1.5,1.5,0,0,0,2.09.34l6.09-4.46c8.87-6.54,8.87-6.54,11.61-5.52a37.6,37.6,0,0,0,9.81,2.29c3,.35,6.14,9.37,8.41,16,1.78,5.19,3.35,9.74,5.18,12.23.47-1.26.9-2.47,1.3-3.66a91.91,91.91,0,0,1-3.65-9.54c-3.07-9-6-17.4-10.9-18a34.51,34.51,0,0,1-9.1-2.12c-1.72-.64-2.85-1-4.21-.62a4,4,0,0,1,.17.41A1.5,1.5,0,0,1,632.35,525.37Z" transform="translate(-364.17 -315.07)"/><path class="cls-4" d="M659.49,557.15a1.5,1.5,0,0,0,.88,1.93,1.58,1.58,0,0,0,.52.09,1.51,1.51,0,0,0,1.41-1c.05-.15.1-.29.16-.44.14-.38.26-.74.4-1.11,1.28-3.54,2.3-6.78,3.2-9.67,4.36-13.93,6.16-19.7,24.38-19.7,1.74,0,3.21,1.92,4.64,3.78s2.74,3.58,4.65,4a1.55,1.55,0,0,0,1-.16,1.43,1.43,0,0,1-.47-.66,17.93,17.93,0,0,1-.56-2.42,14.37,14.37,0,0,1-2.26-2.55c-1.34-1.73-2.93-3.8-5.12-4.6a1.48,1.48,0,0,1-1.49,1.39,1.5,1.5,0,0,1-1.5-1.5c0-.08,0-.15,0-.22-19.4.28-21.83,8-26.14,21.78-.69,2.2-1.44,4.61-2.33,7.18-.4,1.19-.83,2.4-1.3,3.66Z" transform="translate(-364.17 -315.07)"/><path class="cls-4" d="M700.75,534.86a1.52,1.52,0,0,0,1,.36,1.58,1.58,0,0,0,.47-.07,1.5,1.5,0,0,0,1-1.9c-1.15-3.46-1.46-14.16-1.46-19.33s.2-9.27.34-11.57a8.88,8.88,0,0,0-1.15-.32,1.5,1.5,0,1,1,.59-2.94c.21,0,.41.11.62.16-.49-3-3.57-4.65-16.37-11.52l-7.64-4.12a20.08,20.08,0,0,0-.65,3.06q3.84,2.08,6.87,3.7c12.63,6.78,14.83,8,14.87,9.91-.06.69-.48,6.28-.48,13.64,0,1.36,0,12,1.05,17.86a17.93,17.93,0,0,0,.56,2.42A1.43,1.43,0,0,0,700.75,534.86Z" transform="translate(-364.17 -315.07)"/><path class="cls-4" d="M643,486.93c-.74.18-5.91,1.56-10.93,3.44-9.72,3.63-11,6.13-11,7.9,0,6.2,5.24,17.45,8,23.49.5,1.08.9,1.94,1.14,2.49l.12.28a1.5,1.5,0,0,0,1.39,1,1.55,1.55,0,0,0,.56-.11,1.5,1.5,0,0,0,.83-2A4,4,0,0,0,633,523c-.25-.59-.64-1.42-1.15-2.51-2.52-5.42-7.77-16.69-7.77-22.23.1-1.84,10.36-6.06,18.51-8.15.25-1,.47-2.11.65-3.22Z" transform="translate(-364.17 -315.07)"/><path class="cls-4" d="M690.85,526a1.48,1.48,0,0,0,1.49-1.39.41.41,0,0,0,0-.11c0-.36,0-.7-.05-1s0-.36,0-.55l0-.14a58.62,58.62,0,0,0,1.56-11.6c0-6.58-.92-11.23-13.59-20.29a1.5,1.5,0,1,0-1.75,2.44c12.34,8.82,12.34,12.8,12.34,17.85a55.67,55.67,0,0,1-1.5,11,2.67,2.67,0,0,0-.09.63c0,.31,0,.62,0,.94,0,.17,0,.36,0,.55s0,.14,0,.22A1.5,1.5,0,0,0,690.85,526Z" transform="translate(-364.17 -315.07)"/><path class="cls-4" d="M643.68,482.93a33.38,33.38,0,0,1-.43,4c-.18,1.11-.4,2.21-.65,3.22-.61,2.55-1.33,4.55-1.74,4.85a1.51,1.51,0,0,0-.67,2,1.53,1.53,0,0,0,1.35.83,1.64,1.64,0,0,0,.67-.16c3.66-1.83,4.49-15.36,4.49-15.49,0-9.48-7.18-12.49-14.11-15.4-7.53-3.17-14.64-6.15-14.64-16.95,0-1.44.13-2.86.27-4.37s.28-3.08.28-4.67v-.62c0-1,0-1.72-.63-2.31a2.31,2.31,0,0,0-2-.41,12.91,12.91,0,0,1-1.53.1c-6.4,0-8.09-4.47-8.09-6.83,0-4.82,2.65-10.14,7-10.34a1.5,1.5,0,0,0,1.42-1.57,1.52,1.52,0,0,0-1.57-1.43,9.07,9.07,0,0,0-2,.36c0,.33.06.66.1,1a1.5,1.5,0,0,1-1.35,1.64h-.15a1.48,1.48,0,0,1-1.43-1.14c-3.15,2.48-4.93,7.07-4.93,11.48,0,4.88,3.81,9.83,11.09,9.83.44,0,.82,0,1.14-.05v.29c0,1.46-.13,2.89-.27,4.41s-.28,3.06-.28,4.63c0,12.79,8.76,16.47,16.48,19.71,5.86,2.47,11,4.64,12.06,10.38a12.31,12.31,0,0,1,.21,2.26C643.7,482.42,643.69,482.68,643.68,482.93Z" transform="translate(-364.17 -315.07)"/><path class="cls-4" d="M612.88,434.65a1.5,1.5,0,0,0,1.74-2.44,3.11,3.11,0,0,1-1.31-2.53,3.17,3.17,0,0,1,.16-1,1.89,1.89,0,0,0,.08-.53,1.48,1.48,0,0,0,0-.21,1.49,1.49,0,0,0-2-2,1.87,1.87,0,0,0-1.07,1.71,2.16,2.16,0,0,0,0,.46,5.74,5.74,0,0,0-.21,1.55A6.11,6.11,0,0,0,612.88,434.65Z" transform="translate(-364.17 -315.07)"/><path class="cls-4" d="M609.63,420.37h.15a1.5,1.5,0,0,0,1.35-1.64c0-.33-.07-.66-.1-1-.52-5.46-.77-10-.77-14.23,0-26.18,8.35-38.64,27.94-41.65a1.49,1.49,0,0,0,1.25-1.71,1.47,1.47,0,0,0-1-1.2,1.51,1.51,0,0,1-1.17.57,1.45,1.45,0,0,1-.7-.17l-.36-.18c-25.59,4.75-28.93,26.11-28.93,44.34a155.12,155.12,0,0,0,.88,15.52,1.29,1.29,0,0,0,.06.21A1.48,1.48,0,0,0,609.63,420.37Z" transform="translate(-364.17 -315.07)"/><path class="cls-8" d="M637.25,359.51a1.51,1.51,0,0,0,1.17-.57c.05-.07.11-.14.16-.22a1.5,1.5,0,0,0-.62-2c-4.47-2.38-8.71-3.14-12.52-2.24a1.5,1.5,0,1,0,.69,2.92c3-.71,6.38-.1,10.06,1.79l.36.18A1.45,1.45,0,0,0,637.25,359.51Z" transform="translate(-364.17 -315.07)"/><path class="cls-8" d="M644.84,354.71c-1.08-1.84-2.31-3.92-4.58-5.06a1.5,1.5,0,1,0-1.34,2.68c1.48.74,2.38,2.27,3.33,3.9A23.16,23.16,0,0,0,644,359a1.5,1.5,0,1,0,2.34-1.87A22.06,22.06,0,0,1,644.84,354.71Z" transform="translate(-364.17 -315.07)"/><path class="cls-8" d="M651.86,355.23a1.46,1.46,0,0,1-.1-1.22,3.84,3.84,0,0,1-.17-1.25c0-.28,0-.56,0-.84s0-.65,0-1a7.38,7.38,0,0,0-.32-2.3,1.5,1.5,0,0,0-2.85.95,4.19,4.19,0,0,1,.17,1.35c0,.29,0,.57,0,.86s0,.64,0,1a5.73,5.73,0,0,0,1,3.58,1.49,1.49,0,0,0,1.2.6,1.49,1.49,0,0,0,1.47-1.22A1.48,1.48,0,0,1,651.86,355.23Z" transform="translate(-364.17 -315.07)"/><path class="cls-4" d="M704.6,407.84a4.78,4.78,0,0,1,.84-.08,5.23,5.23,0,0,1,1.5.23,192.59,192.59,0,0,0,1.14-21.09c0-34.78-17.49-37.66-37-37.66-5.4,0-12.4.45-18.67,3.95a1.55,1.55,0,0,0-.68.82,1.46,1.46,0,0,0,.1,1.22,1.5,1.5,0,0,0,2,.58c5.67-3.16,12.18-3.57,17.21-3.57,19.25,0,34,2.55,34,34.66,0,6-.28,12.13-.8,17.69.15.94.29,1.74.41,2.35A1.46,1.46,0,0,1,704.6,407.84Z" transform="translate(-364.17 -315.07)"/><path class="cls-4" d="M703.69,408.07a5.27,5.27,0,0,1,.91-.23,1.46,1.46,0,0,0,.09-.9c-.12-.61-.26-1.41-.41-2.35l0-.25c-1.64-9.77-5.45-32.65-24.24-32.65-5.93,0-9.52,2.29-12.69,4.32-2.51,1.6-4.67,3-7.63,3a13.58,13.58,0,0,1-7.84-2.41,13.58,13.58,0,0,0-7.57-2.44c-13.45,0-14.48,12.94-15,19.89a28,28,0,0,1-.42,3.68,29.57,29.57,0,0,1-7.9,14.8c-2.62,2.91-4.88,5.43-4.88,10.54a12.52,12.52,0,0,0,.07,1.36,1.5,1.5,0,0,0,1.49,1.34h.15a1.5,1.5,0,0,0,1.34-1.65c0-.35-.05-.7-.05-1.05,0-4,1.64-5.78,4.11-8.54a32.49,32.49,0,0,0,8.59-16.11,29.68,29.68,0,0,0,.49-4.13c.7-8.67,2.19-17.13,12-17.13a10.88,10.88,0,0,1,6.05,2,16.45,16.45,0,0,0,9.36,2.83c3.84,0,6.59-1.76,9.24-3.45,3-1.89,6-3.85,11.08-3.85,16.25,0,19.77,21.13,21.28,30.15.18,1.1.33,2,.48,2.71a1.5,1.5,0,0,0,.51.84,1.81,1.81,0,0,1,.32-.22A1.51,1.51,0,0,1,703.69,408.07Z" transform="translate(-364.17 -315.07)"/><path class="cls-4" d="M704.6,407.84a5.27,5.27,0,0,0-.91.23,1.51,1.51,0,0,1,.84,2.24,3,3,0,0,1,0,.38c0,.17,0,.34,0,.51a1.68,1.68,0,0,0,.15-.3,2.33,2.33,0,0,1,.75-.14c2.17,0,2.28,3.06,2.28,3.68,0,3.07-2.16,5.84-3.33,7,0,1.14,0,2.27,0,3.4a1.43,1.43,0,0,0,.64-.15c1.36-.68,5.65-5.07,5.65-10.27,0-3.32-1.47-5.73-3.78-6.45a5.23,5.23,0,0,0-1.5-.23A4.78,4.78,0,0,0,704.6,407.84Z" transform="translate(-364.17 -315.07)"/><path class="cls-4" d="M682,474a1.5,1.5,0,0,1,1.5,1.5,1.48,1.48,0,0,1-.5,1.1c14.26-4.58,21.66-12.09,21.66-39.66,0-3-.06-6.12-.13-9.1l-.06-3c0-1.13,0-2.26,0-3.4,0-.89,0-1.77,0-2.65,0-2.78,0-5.24.17-7.61,0-.17,0-.34,0-.51a3,3,0,0,0,0-.38,1.5,1.5,0,0,0-1.94-2.14,1.81,1.81,0,0,0-.32.22,2,2,0,0,0-.78,1.66,4.36,4.36,0,0,0,.07.68c-.13,2.45-.19,5.1-.19,8.08s.06,6.13.12,9.11.13,6,.13,9c0,32.39-10.29,34.86-29,39.34a1.5,1.5,0,0,0,.35,3,1.48,1.48,0,0,0,.35-.05c1.27-.3,2.5-.6,3.7-.91C678.59,475.62,680.47,474,682,474Z" transform="translate(-364.17 -315.07)"/><path class="cls-4" d="M682.07,477a1.45,1.45,0,0,0,.89-.39,1.48,1.48,0,0,0,.5-1.1A1.5,1.5,0,0,0,682,474c-1.49,0-3.37,1.6-4.9,4.28a23.22,23.22,0,0,0-2.86,11.4,34.66,34.66,0,0,0,1.16,8.66,1.49,1.49,0,0,0,1.45,1.13,1.73,1.73,0,0,0,.38-.05,1.5,1.5,0,0,0,1.07-1.83,32,32,0,0,1-1.06-7.91,22.29,22.29,0,0,1,.21-3,20.08,20.08,0,0,1,.65-3.06C679.22,479.67,681.25,477.32,682.07,477Z" transform="translate(-364.17 -315.07)"/><path class="cls-4" d="M639.05,404.3c-1.5.32-10.08,3.26-10.08,6.14a1.5,1.5,0,0,0,2.93.44,22.8,22.8,0,0,1,7.77-3.65,1.5,1.5,0,1,0-.62-2.93Z" transform="translate(-364.17 -315.07)"/><path class="cls-4" d="M681.62,404l0-.06h.16a29.25,29.25,0,0,1,6.71,1.1c1.12.28,2.28.56,3.44.77l.28,0a1.5,1.5,0,0,0,.28-3c-1.09-.21-2.21-.48-3.29-.74a31.76,31.76,0,0,0-7.42-1.19c-1,0-1.8,0-2.36,1a1.5,1.5,0,0,0,2.15,2.1Z" transform="translate(-364.17 -315.07)"/><path class="cls-4" d="M643,413.17c-4.73,0-9.08,3.71-12.27,10.44a1.5,1.5,0,1,0,2.71,1.29c1.51-3.19,4.68-8.47,9.23-8.72a6.93,6.93,0,0,1,1,1.84c-3.18.39-5.1,2.64-5.1,4.74,0,2.62,2.7,4.07,4.58,4.07,2.76,0,4.17-1.82,4.17-5.43C647.3,418.16,645.46,413.17,643,413.17Zm.11,10.66c-.54,0-1.58-.48-1.58-1.07,0-.44.68-1.67,2.74-1.79,0,.15,0,.29,0,.43C644.3,423.83,643.73,423.83,643.13,423.83Z" transform="translate(-364.17 -315.07)"/><path class="cls-4" d="M675.75,415.7a1.5,1.5,0,1,0,2.12,2.13l.29-.3c1.6-1.6,3.41-3.42,5.33-3.42a2.25,2.25,0,0,1,2.45,2.18c-3.4.47-5.39,2.62-5.39,4.7a4,4,0,0,0,3.75,3.83c2.72,0,4.69-4.61,4.69-7.71,0-3.65-2.16-6-5.5-6-3.17,0-5.54,2.39-7.45,4.3Zm8.45,6.1a1,1,0,0,1-.65-.81c0-.37.64-1.17,2-1.56A5.41,5.41,0,0,1,684.2,421.8Z" transform="translate(-364.17 -315.07)"/><path class="cls-4" d="M664.29,405.2a1.5,1.5,0,0,0-1.61,1.38c-.21,2.73-.32,5.49-.32,8.44,0,16,3.53,18.48,7.14,19.63a5.79,5.79,0,0,1,.72.24.9.9,0,0,1,0,.27c-.18.47-1.11,1.81-5,5.62l-.45.44a1.49,1.49,0,0,0,0,2.12,1.45,1.45,0,0,0,1.06.44,1.47,1.47,0,0,0,1.06-.44l.43-.42c5-4.86,5.9-6.44,5.9-7.65,0-2.58-1.78-3.15-2.85-3.49-1.77-.55-5-1.59-5-16.76,0-2.88.1-5.56.31-8.21A1.51,1.51,0,0,0,664.29,405.2Z" transform="translate(-364.17 -315.07)"/><path class="cls-4" d="M645.37,447.22c.83,4.71,5.35,7.51,9.29,8.56a1.74,1.74,0,0,0,.39.05,1.5,1.5,0,0,0,.39-2.95c-2.92-.78-6.53-2.86-7.11-6.18a1.5,1.5,0,0,0-3,.52Z" transform="translate(-364.17 -315.07)"/><path class="cls-4" d="M699.68,500.27a1.5,1.5,0,0,0,1.18,1.76,8.88,8.88,0,0,1,1.15.32,21.75,21.75,0,0,1,2.78,1.22c.68.33,1.38.68,2.12,1a58.23,58.23,0,0,0,7.68,2.54c6.79,1.86,9.33,2.55,18.75,22.56a1.48,1.48,0,0,0,1.35.87,1.43,1.43,0,0,0,.64-.15,1.49,1.49,0,0,0,.72-2c-9.55-20.3-12.57-22-20.66-24.18a56.52,56.52,0,0,1-7.32-2.42c-.66-.28-1.29-.59-2-.91a20.64,20.64,0,0,0-4-1.63c-.21-.05-.41-.12-.62-.16A1.51,1.51,0,0,0,699.68,500.27Z" transform="translate(-364.17 -315.07)"/><path class="cls-4" d="M621.05,652.85a1.5,1.5,0,1,0-.36,3,112.75,112.75,0,0,0,13.34.8c1.49,0,3,0,4.45-.09a1.5,1.5,0,0,0-.12-3A109.28,109.28,0,0,1,621.05,652.85Z" transform="translate(-364.17 -315.07)"/><path class="cls-4" d="M709.08,642.23a3.62,3.62,0,0,1-.43-.38c-1.53-1.48-4.39-4.25-19.19-4.25-20,0-31.27,7.84-41.26,14.75-6.23,4.31-12.11,8.38-19.53,10.37a1.5,1.5,0,0,0,.39,2.95,1.31,1.31,0,0,0,.39,0c7.92-2.13,14-6.34,20.45-10.8,10.1-7,20.55-14.22,39.56-14.22,13.52,0,15.94,2.28,17.09,3.39l3.32-.16A1.54,1.54,0,0,0,709.08,642.23Z" transform="translate(-364.17 -315.07)"/><path class="cls-4" d="M701.93,656.09h1.84l-.17-9-.73,0h-.08a1.48,1.48,0,0,1-1.34-2.15,1.5,1.5,0,0,0-.86,1.38l.19,10.23A1.51,1.51,0,0,1,701.93,656.09Z" transform="translate(-364.17 -315.07)"/><path class="cls-4" d="M702.79,685.57a1.58,1.58,0,0,0,.77-.22,1.5,1.5,0,0,0,.73-1.31l-.46-24.95h-1.9a1.48,1.48,0,0,1-1.11-.51l.47,25.52a1.56,1.56,0,0,0,.18.67A1.5,1.5,0,0,0,702.79,685.57Z" transform="translate(-364.17 -315.07)"/><path class="cls-4" d="M702.79,647.18h.08l.73,0,14.48-.72c.21-1,.43-2,.65-3l-1.92.1a1.52,1.52,0,0,1-1.07,1.35,1.54,1.54,0,0,1-.43.06,1.49,1.49,0,0,1-1.43-1.07l-.07-.19-3.94.2-3.32.16-3.83.19a1.49,1.49,0,0,0-1.27.85,1.48,1.48,0,0,0,1.34,2.15Z" transform="translate(-364.17 -315.07)"/><path class="cls-4" d="M775.17,647.42a1.51,1.51,0,0,0,1.51-1.49,1.48,1.48,0,0,0-1.48-1.51l-23.93-.23c-.17,1-.38,2-.65,3Z" transform="translate(-364.17 -315.07)"/><path class="cls-4" d="M715.31,644.89a1.54,1.54,0,0,0,.43-.06,1.52,1.52,0,0,0,1.07-1.35,1.54,1.54,0,0,0-.06-.52c-.73-2.45-1.72-4.89-2.76-7.47-3-7.38-6.36-15.74-6.36-29.38,0-4,.23-8.21.43-11.94.08-1.56.16-3.07.22-4.47a1.49,1.49,0,0,1,.09-2.77c0-.34,0-.67,0-1,0-7.34-1.31-13.45-4-18.66a3.55,3.55,0,0,1-.32-1.66,1.5,1.5,0,0,0-3,0,6.41,6.41,0,0,0,.66,3c2.46,4.77,3.66,10.43,3.66,17.28,0,2.16-.15,5-.32,8.06-.2,3.77-.43,8-.43,12.1a70.49,70.49,0,0,0,1.9,16.65s.09,0,.13.09a1.49,1.49,0,0,1,.31,1.66,99.12,99.12,0,0,0,4.24,12.1c1,2.45,1.92,4.76,2.6,7l.07.19A1.49,1.49,0,0,0,715.31,644.89Z" transform="translate(-364.17 -315.07)"/><path class="cls-4" d="M706.66,622.85s-.09-.05-.13-.09a1.5,1.5,0,0,0-2,.09c-2.76,2.76-4.27,6.23-5.73,9.57-.52,1.21-1,2.36-1.57,3.46a1.5,1.5,0,0,0,.67,2,1.44,1.44,0,0,0,.67.16,1.49,1.49,0,0,0,1.34-.83c.59-1.17,1.12-2.41,1.64-3.6,1.35-3.09,2.74-6.29,5.1-8.65a1.29,1.29,0,0,0,.31-.46A1.49,1.49,0,0,0,706.66,622.85Z" transform="translate(-364.17 -315.07)"/><path class="cls-4" d="M707.38,588.46a1.52,1.52,0,0,0,1.5,1.37H709c2-.17,4-.25,5.89-.32a74.94,74.94,0,0,0,10.15-.87.35.35,0,0,0,.11,0c.19-.89.38-1.76.56-2.62a1.5,1.5,0,0,0-1.18-.3,72.19,72.19,0,0,1-9.76.82c-2,.07-4,.15-6,.33a1.53,1.53,0,0,0-1.37,1.62Z" transform="translate(-364.17 -315.07)"/><path class="cls-4" d="M743.49,527.75a1.5,1.5,0,0,1-1.14.53,1.48,1.48,0,0,1-1-.37l-.49-.42c-6.27,3.21-7.48,10.18-9.56,25.21-1.13,8.19-2.64,19.09-5.6,33.29-.18.86-.37,1.73-.56,2.62s-.41,1.93-.63,2.91a4.68,4.68,0,0,0-.1,1c0,.28,0,.55,0,.82s0,.41,0,.61a1.5,1.5,0,0,0,.65,1.23,1.5,1.5,0,0,1,2.32-1.85,1.48,1.48,0,0,1,0-.21q0-.3,0-.6a1.86,1.86,0,0,1,0-.36c3.79-17.06,5.55-29.78,6.83-39.06,1.67-12.09,2.59-18.75,6.2-21.87s10.51-3.44,24.37-3.44c2.71,0,5.94.2,9.63.57,0-.27,0-.54.07-.81a1.5,1.5,0,0,1,3,.3c0,.28-.06.57-.08.85,3.57.43,7.51,1,11.85,1.76l.22,0a20.52,20.52,0,0,0,1.88-2.41,1.51,1.51,0,0,0-.87-.46l-.73-.12c-10.51-1.8-18.91-2.71-25-2.71-9.87,0-16.49.23-21.07,1.55A1.53,1.53,0,0,1,743.49,527.75Z" transform="translate(-364.17 -315.07)"/><path class="cls-4" d="M725.44,593.29a1.5,1.5,0,0,0-.29,1.9,1.7,1.7,0,0,0,.15.22,18,18,0,0,0,2.62,2.42c0-.14.05-.27.08-.41a1.5,1.5,0,0,1,3,.55c-.1.54-.2,1-.3,1.57,5.22,2.66,11.47,2.92,17.18,3.14,1.23.05,2.4.1,3.55.17a1.5,1.5,0,0,1,2.82-.7,1.46,1.46,0,0,0,.19-.59A1.49,1.49,0,0,0,753,600c-1.64-.13-3.3-.2-5.06-.27-7.6-.29-15.45-.6-20.39-6.25l-.09-.09A1.52,1.52,0,0,0,725.44,593.29Z" transform="translate(-364.17 -315.07)"/><path class="cls-4" d="M770,615.16a1.48,1.48,0,0,1,1.41,1,1.65,1.65,0,0,0,.22-.36,1.51,1.51,0,0,0-.84-1.95,9.76,9.76,0,0,0-1.88-.43c-3.84-.63-11-1.8-11-17.79a100.78,100.78,0,0,1,1.89-19.58c.29-1.72.6-3.53.9-5.52a1.5,1.5,0,1,0-3-.46c-.3,2-.61,3.77-.9,5.48a104.56,104.56,0,0,0-1.93,20.08c0,18.54,9.46,20.09,13.51,20.75l.09,0A1.5,1.5,0,0,1,770,615.16Z" transform="translate(-364.17 -315.07)"/><path class="cls-4" d="M783.58,656.84a1.44,1.44,0,0,1,.58.25,1.75,1.75,0,0,1,.32,0h.23c-1.74-6.86-4.89-14.72-7.68-21.67-2.91-7.26-5.66-14.11-5.66-17.15,0-.24,0-.47,0-.71s.06-.6.06-.87a1.63,1.63,0,0,0-.09-.49,1.48,1.48,0,0,0-1.41-1,1.5,1.5,0,0,0-1.48,1.25,2,2,0,0,0,0,.25c0,.18,0,.38,0,.59s-.06.66-.06,1c0,3.62,2.72,10.41,5.88,18.26,2.77,6.93,5.92,14.78,7.6,21.48A1.51,1.51,0,0,1,783.58,656.84Z" transform="translate(-364.17 -315.07)"/><path class="cls-4" d="M752.88,601.35a1.5,1.5,0,0,0-1.5,1.5c0,3.71-.94,7.92-1.93,12.38-1.06,4.76-2.15,9.68-2.15,14.32a28.37,28.37,0,0,0,.84,6.83,15.4,15.4,0,0,1,.53,3.56c0,8.59-5.86,18.8-12.07,29.6-4.79,8.33-9.73,16.94-12,25.13,0,.16-.09.32-.13.47a1.5,1.5,0,0,0,1.06,1.84,1.74,1.74,0,0,0,.39,0,1.5,1.5,0,0,0,1.22-.64,1.35,1.35,0,0,0,.22-.47c2.12-7.95,7.07-16.56,11.85-24.89,2.19-3.8,4.33-7.53,6.2-11.17h0a1.5,1.5,0,0,1-.12-3l1.72-.11a57,57,0,0,0,3.67-9.56c.27-1,.48-2,.65-3a24.91,24.91,0,0,0,.4-4.25,17.83,17.83,0,0,0-.6-4.23,25.07,25.07,0,0,1-.77-6.16c0-4.31,1.05-9.07,2.08-13.66s2-9,2-13a1.52,1.52,0,0,0-1.5-1.5Z" transform="translate(-364.17 -315.07)"/><path class="cls-4" d="M718.73,643.38c-.22,1-.44,2-.65,3-.75,3.55-1.44,6.85-2.07,10.07a1.47,1.47,0,0,1,.49,1.1,1.5,1.5,0,0,1-1,1.4c-1.66,8.63-3,17.07-4.31,28.94l0,.25a1.49,1.49,0,0,0,1.33,1.65h.16a1.51,1.51,0,0,0,1.31-.77,1.54,1.54,0,0,0,.18-.56c2.16-19.4,4.32-29.57,7.91-46.41,2.22-10.43,5-23.37,8.58-42.56.1-.52.2-1,.3-1.57a1.5,1.5,0,0,0-3-.55c0,.14,0,.27-.08.41-3.71,19.8-6.53,33-8.79,43.64Z" transform="translate(-364.17 -315.07)"/><path class="cls-4" d="M790.1,696.61H734.49a1.47,1.47,0,0,0-.8-.23,1.61,1.61,0,0,0-1.74,1.73,1.5,1.5,0,0,0,1.5,1.5H790.1a1.5,1.5,0,0,0,0-3Zm-56.41,2.77a10.93,10.93,0,0,1,0-1.28S733.69,699.38,733.69,699.38Z" transform="translate(-364.17 -315.07)"/><path class="cls-4" d="M784.28,664.26a32.8,32.8,0,0,1,.28-4.2h-.08a1.5,1.5,0,0,1-.32-3,1.44,1.44,0,0,0-.58-.25,1.5,1.5,0,0,0-1.73,1.15.14.14,0,0,1,0,.06,35.84,35.84,0,0,0-.55,6.21c0,12,6.8,25.14,13.14,29.9a1.53,1.53,0,0,0,.46.23,33.88,33.88,0,0,1,.26-3.53C789.8,686,784.28,674.5,784.28,664.26Z" transform="translate(-364.17 -315.07)"/><path class="cls-4" d="M784.16,657.09a1.5,1.5,0,0,0,.32,3h.08c.62,0,1.24,0,1.85,0l1.93,0a21.34,21.34,0,0,0,3.36-.23c.22-1,.51-2,.87-3.22l-.23,0a15.92,15.92,0,0,1-4,.41l-1.85,0c-.59,0-1.18,0-1.78,0h-.23A1.75,1.75,0,0,0,784.16,657.09Z" transform="translate(-364.17 -315.07)"/><path class="cls-4" d="M824.22,394.42a1.51,1.51,0,0,1,1.09-1.82l.43-.09a33.21,33.21,0,0,0-17.09-5c-8.7,0-56,17.84-56,40.6a70.94,70.94,0,0,0,.49,7.18,66.46,66.46,0,0,1,.48,6.89c0,7.38-4.52,10.12-9.75,13.29s-11,6.68-11,15.46c0,7,4.76,10.85,8.59,13.94,3,2.44,5.61,4.54,5.61,7.55a4.65,4.65,0,0,1-1.18,3c-.61.72-1.24,1.39-1.85,2.05-3.91,4.22-7.61,8.2-7.61,20.59,0,4.63,1.32,6.69,4.45,9.46l.49.42a1.48,1.48,0,0,0,1,.37,1.5,1.5,0,0,0,1.14-.53,1.53,1.53,0,0,0,.3-1.4,1.46,1.46,0,0,0-.47-.71c-3.06-2.63-3.89-3.87-3.89-7.61,0-11.21,3.16-14.61,6.81-18.55.64-.69,1.29-1.39,1.93-2.14a7.6,7.6,0,0,0,1.9-4.93c0-4.44-3.42-7.21-6.73-9.88-3.67-3-7.47-6-7.47-11.61,0-7.09,4.43-9.78,9.56-12.89s11.19-6.79,11.19-15.86a68.34,68.34,0,0,0-.5-7.2c-.23-2.27-.47-4.62-.47-6.87,0-11.56,14.73-21.51,23.52-26.41,13.17-7.34,26.19-11.19,29.48-11.19A31,31,0,0,1,830,399.65a1.5,1.5,0,0,0,2.12-2.12,33.45,33.45,0,0,0-2.89-2.56,23.31,23.31,0,0,0-3.2.55A1.5,1.5,0,0,1,824.22,394.42Z" transform="translate(-364.17 -315.07)"/><path class="cls-4" d="M888.94,465.39c0-20.49-12-25-20.78-28.35-6.18-2.35-9.68-3.88-9.68-8.28a20.77,20.77,0,0,1,1-5.65,26.71,26.71,0,0,0,1.26-7.53c0-22.32-20.81-23.71-21-23.71-1,0-2.08,0-3.13-.05s-2.13-.05-3.19-.05a34.06,34.06,0,0,0-7.67.74l-.43.09a1.5,1.5,0,0,0,.73,2.92,23.31,23.31,0,0,1,3.2-.55,37.4,37.4,0,0,1,4.17-.2c1,0,2.08,0,3.12.05s2.13.05,3.2.05c.18,0,18,1.22,18,20.71a23.81,23.81,0,0,1-1.15,6.73,23.43,23.43,0,0,0-1.12,6.45c0,6.68,5.64,8.82,11.62,11.08,8.83,3.34,18.84,7.13,18.84,25.55a48.89,48.89,0,0,1-2.8,14,2.46,2.46,0,0,0-.07.29,19.57,19.57,0,0,1,3.27-.37A51.62,51.62,0,0,0,888.94,465.39Z" transform="translate(-364.17 -315.07)"/><path class="cls-4" d="M827.37,423.46l.3,1.2a1.5,1.5,0,0,0-1.58-2.36A1.5,1.5,0,0,1,827.37,423.46Z" transform="translate(-364.17 -315.07)"/><path class="cls-4" d="M771.47,449.55a1.49,1.49,0,0,1,.89,1c14.76-2.43,34.79-9.61,52.75-23.8q-.36-1.32-.66-2.67a1.43,1.43,0,0,1,0-.65c-21.27,17.29-45.74,24.3-60.41,25a1.5,1.5,0,0,0,.08,3h.07c1.59-.08,3.29-.23,5.08-.46.08-.24.16-.46.24-.67A1.52,1.52,0,0,1,771.47,449.55Z" transform="translate(-364.17 -315.07)"/><path class="cls-4" d="M824.45,424.12q.3,1.35.66,2.67c3.64,13.6,11.1,23.83,22.21,30.42l.7.41a1.53,1.53,0,0,0,1.06.44,1.5,1.5,0,0,0,1.06-2.56,6.35,6.35,0,0,0-1.29-.87c-10.76-6.39-17.88-16.47-21.18-30l-.3-1.2a1.5,1.5,0,0,0-1.28-1.16,1.47,1.47,0,0,0-.51,0,1.49,1.49,0,0,0-1.13,1.15A1.43,1.43,0,0,0,824.45,424.12Z" transform="translate(-364.17 -315.07)"/><path class="cls-4" d="M851.57,475.92a1.51,1.51,0,0,0,2.13,0c2-2,5.61-5.61,5.61-10.36,0-3.65-2.34-7.53-6.67-7.53a12.29,12.29,0,0,0-2.71.34,1.5,1.5,0,1,0,.65,2.93,9.56,9.56,0,0,1,2.06-.27c2.69,0,3.67,2.71,3.67,4.53,0,3.24-2.45,5.95-4.74,8.24A1.51,1.51,0,0,0,851.57,475.92Z" transform="translate(-364.17 -315.07)"/><path class="cls-4" d="M788.33,531.81a9,9,0,0,0-2.19,2.92,1.48,1.48,0,0,0,.93,1.87,1.61,1.61,0,0,0,.48.08,1.54,1.54,0,0,0,1.43-1,11.52,11.52,0,0,1,1.53-1.81c2.23-2.35,6-6.29,6-12.15,0-8.08-5.32-11.23-10.94-14.56-7.71-4.56-16.45-9.74-16.45-29.31,0-1.75,1.16-21.27,3.22-26.35a1.43,1.43,0,0,0,.07-.91,1.49,1.49,0,0,0-.89-1,1.52,1.52,0,0,0-2,.82c-.08.21-.16.43-.24.67-2.3,6.83-3.2,26.63-3.2,26.81,0,21.28,9.93,27.17,17.92,31.89,5.5,3.26,9.47,5.61,9.47,12a11.36,11.36,0,0,1-2,6.37,20.52,20.52,0,0,1-1.88,2.41C789.13,531,788.72,531.4,788.33,531.81Z" transform="translate(-364.17 -315.07)"/><path class="cls-4" d="M814.78,525.5c0,5.57,2.78,16.78,6.74,18.1a1.5,1.5,0,0,0,.94-2.85c-1.54-.52-4.68-9.1-4.68-15.25,0-4.35,1-7.29,5.9-10.47-.16-1.25-.29-2.34-.39-3.28C816.24,515.88,814.78,520.09,814.78,525.5Z" transform="translate(-364.17 -315.07)"/><path class="cls-4" d="M797.29,480.37a1.5,1.5,0,0,0-.77,1.31c0,2.44,3.48,3.65,7,4.68l.58.18a1.5,1.5,0,0,0,.94-2.85l-.69-.21a22.19,22.19,0,0,1-4.18-1.52,13.62,13.62,0,0,0,5.08-10.71,37.67,37.67,0,0,0-.55-5.55,39.55,39.55,0,0,1-.5-4.29,1.48,1.48,0,0,0-1.57-1.44,1.51,1.51,0,0,0-1.43,1.57,43.62,43.62,0,0,0,.53,4.61,34.33,34.33,0,0,1,.52,5.1A10.7,10.7,0,0,1,797.29,480.37Z" transform="translate(-364.17 -315.07)"/><path class="cls-4" d="M780.1,472.28a3.08,3.08,0,0,0,3,2.78,7,7,0,0,0,1-.09,3.8,3.8,0,0,1,.59-.06c2.08,0,3.47-2.55,3.47-4.94,0-2.57-2-7.52-4.8-7.52-1.57,0-7.59,3.61-9,5.65a1.5,1.5,0,1,0,2.45,1.72c.93-1.32,5.15-3.78,6.52-4.3a3.09,3.09,0,0,1,.58.71C782.25,467.55,780.1,471.11,780.1,472.28Zm5-3a4.73,4.73,0,0,1,.07.73,3.07,3.07,0,0,1-.63,1.94c-.32,0-.61.06-.87.09s-.27.05-.41.06A17,17,0,0,1,785.11,469.24Z" transform="translate(-364.17 -315.07)"/><path class="cls-4" d="M815.78,467.85a1.5,1.5,0,0,0,2,2.23c.3-.27.6-.54.9-.83,1.63-1.52,3.47-3.24,5.17-3.24a2,2,0,0,1,1.66.84c-1.64,1.83-3.7,4.27-3.7,7a3.2,3.2,0,0,0,.72,2.39,2,2,0,0,0,1.48.54h.2c2.54,0,5.09-2.07,5.09-6.7a10,10,0,0,0-.53-3.38,1.48,1.48,0,0,0-.13-.35,5,5,0,0,0-4.79-3.37c-2.88,0-5.28,2.24-7.22,4.05C816.34,467.33,816.06,467.6,815.78,467.85Zm9,5.84a6.37,6.37,0,0,1,1.47-3.11C826.2,472.2,825.66,473.33,824.82,473.69Z" transform="translate(-364.17 -315.07)"/><path class="cls-4" d="M775.94,458.87l1.24-.53a44.91,44.91,0,0,1,8.77-3.12,1.5,1.5,0,0,0-.59-2.94,47,47,0,0,0-9.37,3.3l-1.23.53a1.5,1.5,0,0,0,1.18,2.76Z" transform="translate(-364.17 -315.07)"/><path class="cls-4" d="M832.77,455.11a1.6,1.6,0,0,0,.63.14,1.5,1.5,0,0,0,.63-2.86,21.23,21.23,0,0,0-10.56-2.25,1.5,1.5,0,1,0,.2,3A18.29,18.29,0,0,1,832.77,455.11Z" transform="translate(-364.17 -315.07)"/><path class="cls-4" d="M803.81,501a6.17,6.17,0,0,0,4.18-1.31,1.5,1.5,0,1,0-2.12-2.12,3.87,3.87,0,0,1-2.06.43c-.72,0-3.11-.15-3.9-2a1.5,1.5,0,0,0-2.77,1.16C798.15,499.59,800.64,501,803.81,501Z" transform="translate(-364.17 -315.07)"/><path class="cls-4" d="M776.2,526.22a1.5,1.5,0,0,0-1.64,1.34c0,.27,0,.54-.07.81-.15,1.58-.28,3.24-.28,4.9,0,19.83,19.08,26.3,25.66,26.3.72,0,1.45,0,2.18-.08s1.4-.08,2.12-.08c.46,0,11.53-.13,22.61-11.2a1.51,1.51,0,0,0,0-2.12,1.49,1.49,0,0,0-2.12,0c-10.21,10.2-20.08,10.32-20.49,10.32-.78,0-1.54,0-2.29.09s-1.34.07-2,.07c-6.67,0-22.66-6.7-22.66-23.3,0-1.52.12-3.07.26-4.56,0-.28,0-.57.08-.85A1.5,1.5,0,0,0,776.2,526.22Z" transform="translate(-364.17 -315.07)"/><path class="cls-4" d="M833.46,591.71a1.5,1.5,0,0,1,1.94.86l.09.2c10.64-2.18,20-6.33,20-18.65,0-5.08-4.49-7.72-9.25-10.51-6.41-3.77-13.69-8-15.2-19.18-.78-5.78-1.72-11.88-2.54-17.26-1.09-7.07-2-13.29-2.3-16.47a1.52,1.52,0,0,1-.72.19,1.48,1.48,0,0,1-.82-.25,1.5,1.5,0,0,1-.44-2.07,35,35,0,0,1,2.29-3.1c1.77-9.06,9.36-15.53,14.13-18.79,8.18-5.58,17.55-8.5,22.58-8.5,10.47,0,12,2.82,12.65,4a3.6,3.6,0,0,0,.75,1,1.48,1.48,0,0,1,.55-1,12.94,12.94,0,0,1,1.65-1.07,1,1,0,0,0-.19-.22c0-.06-.07-.14-.12-.22-1.5-2.77-4.48-5.6-15.29-5.6-11.9,0-40.09,13.26-40.09,34.16,0,.6.06,1.42.15,2.41s.23,2,.39,3.28c.44,3.32,1.1,7.67,1.86,12.59.83,5.37,1.76,11.46,2.54,17.21,1.71,12.59,10.35,17.66,16.66,21.37,4.81,2.83,7.76,4.72,7.76,7.92,0,13.34-13.7,15.32-26.94,17.24-11,1.59-21.35,3.09-23.37,11.16-.83,3.33-1.76,6.65-2.66,9.85a179.52,179.52,0,0,0-4.61,19,1.5,1.5,0,0,0,1.23,1.73l.25,0a1.5,1.5,0,0,0,1.48-1.26,175.23,175.23,0,0,1,4.53-18.73c.91-3.22,1.85-6.56,2.69-9.94,1.53-6.11,10.93-7.47,20.88-8.91,2.16-.31,4.36-.63,6.54-1A1.52,1.52,0,0,1,833.46,591.71Z" transform="translate(-364.17 -315.07)"/><path class="cls-4" d="M876.63,483.25a1.49,1.49,0,0,0,2.4,1.4c2-1.59,4.78-2.37,8.4-2.37,10,0,15,8.72,15,25.92,0,2.66-.1,5.39-.2,8s-.2,5.41-.2,8.09c0,1.08,0,2.15,0,3.21a1.6,1.6,0,0,0,0,.23,5.49,5.49,0,0,1,1.38,1.21h.14a1.51,1.51,0,0,0,1.45-1.56c0-1,0-2.06,0-3.1,0-2.63.1-5.35.2-8s.2-5.43.2-8.15c0-19.19-6.07-28.92-18-28.92-.37,0-.73,0-1.09,0a19.57,19.57,0,0,0-3.27.37,14.32,14.32,0,0,0-4.24,1.53,12.94,12.94,0,0,0-1.65,1.07A1.48,1.48,0,0,0,876.63,483.25Z" transform="translate(-364.17 -315.07)"/><path class="cls-4" d="M826.75,510.2c4.24-6.53,12.79-15.27,37.89-16.51,0-.17,0-.35,0-.52a1.5,1.5,0,0,1,2.87-.46,1.5,1.5,0,0,0-1.43-2.09c-12.31.44-29.36,2.52-39.6,14.85a35,35,0,0,0-2.29,3.1,1.5,1.5,0,0,0,.44,2.07,1.48,1.48,0,0,0,.82.25,1.53,1.53,0,0,0,1.26-.69Z" transform="translate(-364.17 -315.07)"/><path class="cls-4" d="M867.57,495.72c0-.76,0-1.53.1-2.28a1.61,1.61,0,0,0-.12-.73,1.5,1.5,0,0,0-2.87.46c0,.17,0,.35,0,.52,0,.68-.07,1.36-.07,2,0,7.62,1.89,13.35,4.78,17.72a1.49,1.49,0,0,1,.92,1.31c6.06,8.07,15.62,11.07,21.77,13,1.36.42,2.66.83,3.64,1.22a1.59,1.59,0,0,1,.64-1,6,6,0,0,1,2.33-.91,25.68,25.68,0,0,0-5.71-2.2C883.45,521.92,867.57,516.94,867.57,495.72Z" transform="translate(-364.17 -315.07)"/><path class="cls-4" d="M902.15,527.76a4.89,4.89,0,0,0-2.63-.74,6.13,6.13,0,0,0-.87.07,6,6,0,0,0-2.33.91,1.59,1.59,0,0,0-.64,1,1.48,1.48,0,0,0,.23,1.11,1.5,1.5,0,0,0,2.08.42,2.77,2.77,0,0,1,1.53-.48c2.65,0,3.19,4.65,3.19,5.89,0,4.51-5.65,6.08-6.39,6.13a.23.23,0,0,1-.11,0,1.49,1.49,0,0,0-1.39,2.6,1.5,1.5,0,0,1,1,0,1.43,1.43,0,0,1,.51.36c1.37,0,6.35-1.52,8.42-5.41a9,9,0,0,1-.6-.78,1.5,1.5,0,0,1,.41-2.08,1.48,1.48,0,0,1,1.07-.23c0-.21,0-.4,0-.62a11.47,11.47,0,0,0-2.18-6.94A5.49,5.49,0,0,0,902.15,527.76Z" transform="translate(-364.17 -315.07)"/><path class="cls-4" d="M897.88,539.05a1.55,1.55,0,0,0,.56.11,1.51,1.51,0,0,0,1.39-.95l.18-.44a7.88,7.88,0,0,0,.81-3.07,4.07,4.07,0,0,0-.43-1.86,1.5,1.5,0,0,0-2.68,1.34,1.24,1.24,0,0,1,.11.52,5.53,5.53,0,0,1-.57,1.9l-.21.5A1.51,1.51,0,0,0,897.88,539.05Z" transform="translate(-364.17 -315.07)"/><path class="cls-4" d="M882.41,593.24a1.5,1.5,0,0,1,1.4-.63,1,1,0,0,1,.25,0,1.38,1.38,0,0,0-.49-.23c-4.27-1.07-12.57-8.21-12.57-17.5,0-5.22,2.49-6.44,7-8.66,3.87-1.89,8.75-4.31,13.29-10.24.19-1,.39-2,.62-3l0-.09a1.5,1.5,0,0,1,2.25-2,2.47,2.47,0,0,1,.23.28c.76-1.38,1.5-2.88,2.21-4.54a1.52,1.52,0,0,0-.27-1.61,1.43,1.43,0,0,0-.51-.36,1.5,1.5,0,0,0-1,0,1.46,1.46,0,0,0-.93.84c-5.24,12.2-11.87,15.45-17.19,18.06-4.67,2.28-8.7,4.26-8.7,11.35a21.59,21.59,0,0,0,5.3,13.67,24.87,24.87,0,0,0,5.32,4.77s0,0,0-.07a1.5,1.5,0,1,1,2.89.79l-.18.74a10.85,10.85,0,0,0,1.32.45l-.09-.06A1.51,1.51,0,0,1,882.41,593.24Z" transform="translate(-364.17 -315.07)"/><path class="cls-4" d="M904.6,536.76a1.5,1.5,0,0,0-.41,2.08,9,9,0,0,0,.6.78,17.57,17.57,0,0,0,4.74,3.46c3.87,2.22,7.52,4.31,7.52,11.41,0,3.46-2.27,6.6-4.67,9.93-2.65,3.69-5.4,7.5-5.4,12.22a24.7,24.7,0,0,0,1.19,6.87l.17.06c.74.26,1.36.48,1.83.68a1.51,1.51,0,0,1,.83.92,1.5,1.5,0,0,0,.36-1.49,23.85,23.85,0,0,1-1.38-7c0-3.75,2.35-7,4.84-10.46s5.23-7.26,5.23-11.69c0-8.84-5-11.71-9-14-1.85-1.07-3.46-2-4.34-3.31a1.51,1.51,0,0,0-2.08-.41Z" transform="translate(-364.17 -315.07)"/><path class="cls-4" d="M910.17,584.25c-.47-.2-1.09-.42-1.83-.68l-.17-.06c-5-1.75-15-5.41-15-18.12a61.64,61.64,0,0,1,1.72-11.77,2.37,2.37,0,0,0,.1-.63,3,3,0,0,0-.53-1.81,2.47,2.47,0,0,0-.23-.28,1.5,1.5,0,0,0-2.25,2l0,.09c-.23,1-.43,2-.62,3a53.4,53.4,0,0,0-1.17,9.42c0,15,12.06,19.21,17.21,21,.66.23,1.22.43,1.64.61a1.5,1.5,0,0,0,2-.79,1.47,1.47,0,0,0,0-1.05A1.51,1.51,0,0,0,910.17,584.25Z" transform="translate(-364.17 -315.07)"/><path class="cls-4" d="M840,521.6h-.14c-3.52.23-6.18,2.6-8.32,4.5l-.15.13a1.5,1.5,0,1,0,2,2.24l.14-.13a15.72,15.72,0,0,1,5.08-3.47,4.42,4.42,0,0,0-2.28,3.66,2.49,2.49,0,0,0,2.45,2.21c2.76,0,4.69-1.65,4.69-4C843.43,525.25,842.22,521.6,840,521.6Z" transform="translate(-364.17 -315.07)"/><path class="cls-4" d="M873,522.55c-3.44,0-6.38,2.22-8.56,4.16a1.5,1.5,0,1,0,2,2.25c1.6-1.43,3.67-3.05,5.84-3.36-2,1.1-4,2.64-3.51,4.59a3,3,0,0,0,2.89,2.07c2,0,4.13-2,4.13-5.23C875.81,525.48,875.23,522.55,873,522.55Z" transform="translate(-364.17 -315.07)"/><path class="cls-4" d="M851.94,536.9a4.65,4.65,0,0,0-1.76-.49A17,17,0,0,0,855,524.52a27.35,27.35,0,0,0-.59-5.51,1.5,1.5,0,0,0-2.94.62,24.12,24.12,0,0,1,.53,4.89,13.91,13.91,0,0,1-5.11,10.81,1.58,1.58,0,0,0-.66,1.25,1.54,1.54,0,0,0,.44,1.07,4.7,4.7,0,0,0,3.21,1.74,1.72,1.72,0,0,1,.73.19,1.47,1.47,0,0,0,.67.16,1.5,1.5,0,0,0,.67-2.84Z" transform="translate(-364.17 -315.07)"/><path class="cls-4" d="M865.59,548.58a1.5,1.5,0,0,0-2.08.42,8.45,8.45,0,0,1-5.78,2.27,7.23,7.23,0,0,1-2-.27,1.5,1.5,0,0,0-.86,2.87,10,10,0,0,0,2.87.4c3.83,0,7.26-2.09,8.27-3.61A1.5,1.5,0,0,0,865.59,548.58Z" transform="translate(-364.17 -315.07)"/><path class="cls-4" d="M833.06,520.35a1.59,1.59,0,0,0,.56-.11,8.35,8.35,0,0,0,1.67-1,4.33,4.33,0,0,1,1.56-.83,1.5,1.5,0,0,0,1.24-1.72,1.52,1.52,0,0,0-1.73-1.24,6.85,6.85,0,0,0-2.79,1.33,5.37,5.37,0,0,1-1.07.65,1.51,1.51,0,0,0,.56,2.9Z" transform="translate(-364.17 -315.07)"/><path class="cls-4" d="M869.35,513.44a1.58,1.58,0,0,0-.58-.11h-4a1.5,1.5,0,0,0,0,3h4a1.5,1.5,0,0,0,1.5-1.5v-.08A1.49,1.49,0,0,0,869.35,513.44Z" transform="translate(-364.17 -315.07)"/><path class="cls-4" d="M800.34,632.3a1.51,1.51,0,0,1,1.34,1.65,3.06,3.06,0,0,0,0,.32l3,.54c4.66.86,8.76,1.59,11.1,1.82a1.5,1.5,0,0,1,0-.29l.06-.28a19.3,19.3,0,0,0,.37-2.39c-2.37-.22-7.49-1.16-11-1.81S800.48,631,800,631a2.53,2.53,0,0,0-1.84.78,1.49,1.49,0,0,0,0,2.11,1.43,1.43,0,0,0,.44.3c0-.18,0-.37.07-.56A1.51,1.51,0,0,1,800.34,632.3Z" transform="translate(-364.17 -315.07)"/><path class="cls-4" d="M832.59,684.62a1.51,1.51,0,0,1,1.91-.92l.43.18a1.45,1.45,0,0,0-.73-.81c-3.48-1.74-8.53-3.26-13.88-4.88-11.58-3.49-26-7.83-26-15.55,0-1.75,1.18-5.34,2.54-9.51,1.82-5.57,4.08-12.49,4.78-18.86a3.06,3.06,0,0,1,0-.32,1.5,1.5,0,1,0-3-.31c0,.19-.05.38-.07.56-.71,6-2.87,12.63-4.62,18-.53,1.62-1,3.11-1.43,4.47-.36,1.19-.65,2.26-.87,3.22a13.26,13.26,0,0,0-.39,2.75c0,5.61,4.76,9.49,11.28,12.52l.08-.09a1.49,1.49,0,0,1,2.12,0,1.45,1.45,0,0,1,.41,1.22c4.45,1.82,9.47,3.33,14.26,4.78a98.4,98.4,0,0,1,13.14,4.56A1.52,1.52,0,0,1,832.59,684.62Z" transform="translate(-364.17 -315.07)"/><path class="cls-4" d="M817.21,638.13l-.29,0a1.52,1.52,0,0,1-1.13-1,1.55,1.55,0,0,0-.07.31,142.1,142.1,0,0,1-4.27,20.81,1.52,1.52,0,0,0-.06.42,4.62,4.62,0,0,0,.1,1,1.5,1.5,0,0,0,1.46,1.21,1.53,1.53,0,0,0,.3,0l.08,0-.31-.13a1.52,1.52,0,0,1-.88-1.37c0-.15,0-.32,0-.47v-.18a1.48,1.48,0,0,1,2.57-1,140.06,140.06,0,0,0,4-19.87,1.34,1.34,0,0,0-.08-.66A1.49,1.49,0,0,1,817.21,638.13Z" transform="translate(-364.17 -315.07)"/><path class="cls-4" d="M864.46,689.41a35.29,35.29,0,0,0-16.33-16.25l-33-14.86a1.58,1.58,0,0,0-1.46-1.17,1.5,1.5,0,0,0-1.5,1.5v.18c0,.15,0,.32,0,.47a1.52,1.52,0,0,0,.88,1.37l.31.13,33.54,15.1c13,6,17.11,19.76,17.31,21.68a14.86,14.86,0,0,1-1.24,2.23l.58.66a1.5,1.5,0,0,1-.16,2.12,1.45,1.45,0,0,1-.53.29,1.47,1.47,0,0,1,.24,1.5.35.35,0,0,1-.05.08c1.64-1.47,4.17-5.38,4.17-6.76a21.21,21.21,0,0,0-2.18-7.13A1.49,1.49,0,0,1,864.46,689.41Z" transform="translate(-364.17 -315.07)"/><path class="cls-4" d="M862.83,702.86a1.78,1.78,0,0,1-.45.08,1.5,1.5,0,0,1-1.13-.52l-.61-.71c-4.58-2.14-12.65-6.81-15.35-9.79s-6-6.38-10.36-8l-.43-.18a1.5,1.5,0,0,0-1.9,1.93,1.48,1.48,0,0,0,.91.9c3.87,1.37,7,4.54,9.56,7.4,3.5,3.87,13.82,9.58,18,11.27a1.54,1.54,0,0,0,.56.1,1.48,1.48,0,0,0,1.34-.86.35.35,0,0,0,.05-.08A1.47,1.47,0,0,0,862.83,702.86Z" transform="translate(-364.17 -315.07)"/><path class="cls-4" d="M858.87,695.57a1.5,1.5,0,0,0-2,2.28,35,35,0,0,1,3.72,3.86l.61.71a1.5,1.5,0,0,0,1.13.52,1.78,1.78,0,0,0,.45-.08,1.45,1.45,0,0,0,.53-.29,1.5,1.5,0,0,0,.16-2.12l-.58-.66A37.6,37.6,0,0,0,858.87,695.57Z" transform="translate(-364.17 -315.07)"/><path class="cls-4" d="M815.74,636.34a1.5,1.5,0,0,0,0,.29,1.78,1.78,0,0,0,.08.47,1.52,1.52,0,0,0,1.13,1l.29,0a1.49,1.49,0,0,0,1.41-1,.94.94,0,0,0,.06-.15l.06-.28a16.94,16.94,0,0,0,.44-3.35,6.29,6.29,0,0,0-1.35-3.95c.29-.31.66-.67.93-.93a7,7,0,0,0,1.74-2.11,1.52,1.52,0,0,0-.82-2,1.47,1.47,0,0,0-1.94.8,10.25,10.25,0,0,1-1.08,1.14c-1.18,1.15-2.21,2.15-2.21,3.34a1.5,1.5,0,0,0,.67,1.25,3.08,3.08,0,0,1,1.06,2.44c0,.12,0,.24,0,.37a19.3,19.3,0,0,1-.37,2.39Z" transform="translate(-364.17 -315.07)"/><path class="cls-4" d="M880.48,592.18a1.51,1.51,0,0,0-1.84,1.06s0,0,0,.07c-.07.26-.14.57-.22.93-.89,4-2.74,12.24-19,12.24-11.41,0-20.55-5.25-23.94-13.71l-.09-.2a1.5,1.5,0,0,0-2.88.75,1.78,1.78,0,0,0,.09.33c3.78,9.77,14,15.83,26.82,15.83,18.63,0,21-10.6,21.9-14.59l0-.12.18-.74A1.51,1.51,0,0,0,880.48,592.18Z" transform="translate(-364.17 -315.07)"/><path class="cls-4" d="M913.47,641.57a1.52,1.52,0,0,1-.28,1.44,1.51,1.51,0,0,0,1.14-1.73q-.57-3.09-1-6.23h-.09l-.92,0h-.06a1.5,1.5,0,0,1,0-3H913c-.68-6-1.06-12.11-1.42-18.06-.16-2.61-.32-5.22-.5-7.82-.77-10.91-10.56-11.58-18.43-12.11a36,36,0,0,1-7.42-1,1.66,1.66,0,0,0-1.16-.49,1,1,0,0,0-.25,0,1.5,1.5,0,0,0-1.4.63,1.51,1.51,0,0,0,.17,1.92l.09.06a1.69,1.69,0,0,0,.69.39c2.43,1,5.66,1.21,9.08,1.44,9.09.62,15.09,1.6,15.64,9.33q.27,3.89.49,7.79a244.8,244.8,0,0,0,2.62,26.57l.38-.12A1.5,1.5,0,0,1,913.47,641.57Z" transform="translate(-364.17 -315.07)"/><path class="cls-4" d="M893.28,629.38a3.16,3.16,0,0,0,1.36-2.44,1.5,1.5,0,0,0-3-.12c-.07.08-.21.19-.31.28a3.16,3.16,0,0,0-1.35,2.44v.65c0,3.08,2.27,3.81,3.49,4.2s1.31.5,1.31,1.17a6.2,6.2,0,0,1-.47,1.85l-.22.64a1.5,1.5,0,0,0,2.84,1l.21-.58a8.62,8.62,0,0,0,.64-2.86c0-2.93-2.2-3.64-3.39-4S893,631,893,630.19v-.54C893.05,629.57,893.19,629.46,893.28,629.38Z" transform="translate(-364.17 -315.07)"/><path class="cls-4" d="M893.85,651a1.49,1.49,0,0,1,1.1.49c.28-1.13.55-2.22.79-3.23.31-1.26.59-2.42.86-3.48h-.22a1.5,1.5,0,1,1,.14-3l.69,0a1.49,1.49,0,0,0-2.9-.09c-.46,1.63-.94,3.58-1.48,5.84-2.68,11-6.72,27.72-17.88,41.11a1.49,1.49,0,0,0,.2,2.11,1.46,1.46,0,0,0,1,.35,1.48,1.48,0,0,0,1.15-.54c7.89-9.47,12.4-20.72,15.29-30.29-.13-3.72-.2-6.57-.2-7.8A1.5,1.5,0,0,1,893.85,651Z" transform="translate(-364.17 -315.07)"/><path class="cls-4" d="M895,643.19a1.49,1.49,0,0,0,1.43,1.56h.22c1.85.09,3.54.15,5.26.15a43.1,43.1,0,0,0,6.09-.39c0-.11,0-.21,0-.32a1.5,1.5,0,0,1,3-.27c.54-.14,1.07-.29,1.59-.46a1.58,1.58,0,0,0,.67-.46,1.52,1.52,0,0,0,.28-1.44,1.5,1.5,0,0,0-1.9-1l-.38.12a31.06,31.06,0,0,1-9.33,1.17c-1.51,0-3,0-4.65-.12l-.69,0A1.49,1.49,0,0,0,895,643.19Z" transform="translate(-364.17 -315.07)"/><path class="cls-4" d="M914.22,687.25a1.5,1.5,0,0,1-.14-3l.68-.07c.19-2.68.31-5.38.31-8.07,0-6.75-1.09-9.38-2.15-11.93s-2.07-5-2.07-12.25c0-1.28,0-2.56,0-3.84s.06-2.6.06-3.9a2.48,2.48,0,0,0,0-.27,1.5,1.5,0,0,0-3,.27c0,.11,0,.21,0,.32,0,1.17,0,2.35-.05,3.52s0,2.6,0,3.9c0,7.83,1.17,10.66,2.3,13.4,1,2.38,1.92,4.63,1.92,10.78a186.06,186.06,0,0,1-1.73,22q-.33,2.8-.65,5.61a22.57,22.57,0,0,1,2.78,1.4,1.33,1.33,0,0,0,.13-.43c.23-2.09.47-4.16.72-6.23.43-3.69.87-7.44,1.2-11.22h-.3Z" transform="translate(-364.17 -315.07)"/><path class="cls-4" d="M895.35,652.48a1.52,1.52,0,0,0-.4-1,1.49,1.49,0,0,0-2.6,1c0,1.23.07,4.08.2,7.8.23,6.19.62,14.82,1.11,22.63a1.51,1.51,0,0,1,1.45,1.5,1.49,1.49,0,0,1-1.25,1.47c.34,5,.74,9.52,1.15,12.46l3.23,1.17C896.74,691.9,895.35,658.65,895.35,652.48Z" transform="translate(-364.17 -315.07)"/><path class="cls-4" d="M804.79,675.07a1.49,1.49,0,0,0-2.12,0l-.08.09a27.15,27.15,0,0,0-7.45,15.7,33.88,33.88,0,0,0-.26,3.53c0,.26,0,.53,0,.79a32.09,32.09,0,0,0,6.25,19.29,1.5,1.5,0,1,0,2.39-1.8,29.55,29.55,0,0,1-5.64-17.49c0-7.13,2.46-13.52,6.93-18a1.5,1.5,0,0,0,.41-.9A1.45,1.45,0,0,0,804.79,675.07Z" transform="translate(-364.17 -315.07)"/><path class="cls-4" d="M908.26,703.15l-10-3.64L895,698.34c-28.81-10.46-28.84-10.46-29.07-10.46a1.49,1.49,0,0,0-1.48,1.24,1.41,1.41,0,0,0,0,.29,1.49,1.49,0,0,0,.55,1.14,1.71,1.71,0,0,0,.42.24L907.25,706c8.44,2.94,13.09,10.34,13.09,20.83,0,2.57-2,6.68-3.33,8a1.47,1.47,0,0,0-.43,1.11,1.47,1.47,0,0,1,1.7,1.41,1.43,1.43,0,0,0,.85-.4c1.67-1.67,4.21-6.56,4.21-10.11,0-10-3.84-17.55-10.87-21.7a22.57,22.57,0,0,0-2.78-1.4C909.22,703.52,908.75,703.32,908.26,703.15Z" transform="translate(-364.17 -315.07)"/><path class="cls-4" d="M916.58,735.91a1.36,1.36,0,0,0-.59.21c-6.65,4.16-12,4.32-24.56,4.32-6.46,0-14.85-.45-22.51-3.94a1.52,1.52,0,0,0-.86-.12,15.07,15.07,0,0,1-1.18,2,1.51,1.51,0,0,0,.8.9c8.18,3.73,17,4.21,23.75,4.21,13.16,0,18.8-.18,26.15-4.78a1.49,1.49,0,0,0-1-2.75Z" transform="translate(-364.17 -315.07)"/><path class="cls-4" d="M831.74,719.34a1.5,1.5,0,0,0,1.47,1.21l.29,0a1.51,1.51,0,0,0,1.18-1.77,11.44,11.44,0,0,0-4.57-7.21,1.5,1.5,0,0,0-1.67,2.5A8.35,8.35,0,0,1,831.74,719.34Z" transform="translate(-364.17 -315.07)"/><path class="cls-4" d="M795,735.34a1.5,1.5,0,0,1-1.38-2.09c0-.11.1-.21.14-.31a52.22,52.22,0,0,0-10.84-1.07c-7.64,0-19.27,2.2-23.65,3l-1.29.24a3.19,3.19,0,0,1-2.8-1.22c0-4,11.2-10.34,16.58-13.38,1.84-1,3.29-1.86,4.21-2.48a14.59,14.59,0,0,0,3.25-3.22c1.33-1.69,2.14-2.7,4.66-2.7a7.52,7.52,0,0,1,1.77.21,16.48,16.48,0,0,1,3.84,2,45.63,45.63,0,0,0,12.16,5.6c.17-.2.33-.4.5-.59a1.5,1.5,0,0,1,2.58,1.36,60.87,60.87,0,0,0,12.8,1.26c3.9,0,9.24,0,9.24-4.23a1.5,1.5,0,0,0-3,0c0,.53-.64,1.23-6.24,1.23-14.84,0-21.84-4.32-26.47-7.19a18,18,0,0,0-4.68-2.36,10.55,10.55,0,0,0-2.5-.3c-4,0-5.59,2-7,3.83a11.56,11.56,0,0,1-2.58,2.6c-.82.55-2.3,1.39-4,2.36-9.54,5.39-18.1,10.67-18.1,16,0,2,2.37,4.22,5.89,4.22a11.33,11.33,0,0,0,1.75-.29c3.9-.74,15.74-3,23.1-3a45.49,45.49,0,0,1,14.91,2.28,1.5,1.5,0,0,0,1-2.84c-.68-.23-1.38-.44-2.08-.64-.11.25-.23.5-.34.76A1.5,1.5,0,0,1,795,735.34Z" transform="translate(-364.17 -315.07)"/><path class="cls-4" d="M870.12,726.27a28.92,28.92,0,0,0-4.7-16.11,1.5,1.5,0,1,0-2.5,1.66,25.89,25.89,0,0,1,4.2,14.45c0,14.91-9.91,17.54-30.72,17.54-16.19,0-33.21-7.33-33.38-7.41a1.53,1.53,0,0,0-.6-.12,4.59,4.59,0,0,0-1.56.33l-.2.07a1.5,1.5,0,1,0,.94,2.84l.23-.08.38-.12c2.73,1.14,18.55,7.49,34.19,7.49,13.36,0,25-.82,30.48-8.48a15.07,15.07,0,0,0,1.18-2A22.28,22.28,0,0,0,870.12,726.27Z" transform="translate(-364.17 -315.07)"/><path class="cls-4" d="M804.71,720.73a1.5,1.5,0,0,0-2.58-1.36c-.17.19-.33.39-.5.59a51.53,51.53,0,0,0-7.89,13c0,.1-.09.2-.14.31a1.5,1.5,0,0,0,2.76,1.18c.11-.26.23-.51.34-.76a46.72,46.72,0,0,1,7.68-12.32A1.44,1.44,0,0,0,804.71,720.73Z" transform="translate(-364.17 -315.07)"/><path class="cls-4" d="M924.42,684.38a1.49,1.49,0,0,1,2.09.33,9.27,9.27,0,0,0,.62.72c6.33-1.34,11.75-3.33,16-6.38L943,679a1.5,1.5,0,1,1,1.89-2.33l.62.5a25,25,0,0,0,7.51-13.63,1.52,1.52,0,0,1-.14-1.59,1.48,1.48,0,0,1,.54-.57,45.82,45.82,0,0,0,.51-7c0-19.6-40.28-22.32-40.69-22.32h-1a1.5,1.5,0,0,0,0,3h.06l.92,0h.09c1.73.11,37.61,3.05,37.61,19.31,0,22-13.27,27.66-36.21,29.83l-.68.07a1.5,1.5,0,0,0,.14,3h.3c3.28-.3,6.4-.69,9.36-1.19A1.48,1.48,0,0,1,924.42,684.38Z" transform="translate(-364.17 -315.07)"/><path class="cls-4" d="M895.11,684.41a1.51,1.51,0,0,0-1.45-1.5h0c-.68,0-1.38-.07-2.12-.14a17.42,17.42,0,0,0-3.74-.09,1.5,1.5,0,1,0,.37,3,14.74,14.74,0,0,1,3.07.09,23.6,23.6,0,0,0,2.42.16l.25,0A1.49,1.49,0,0,0,895.11,684.41Z" transform="translate(-364.17 -315.07)"/><path class="cls-4" d="M955.35,687.26a1.5,1.5,0,0,0-.23,2.11c.94,1.18,2.53,3.53,2.53,6,0,3.34-3.06,3.7-4.37,3.7-2.39,0-21.25-8.46-26.15-13.61a9.27,9.27,0,0,1-.62-.72,1.49,1.49,0,0,0-2.63,1.33,1.23,1.23,0,0,0,.21.43c4.09,5.63,25.48,15.57,29.19,15.57s7.37-2.07,7.37-6.7a12.34,12.34,0,0,0-2.26-6.57C957.36,688.28,956.34,687.77,955.35,687.26Z" transform="translate(-364.17 -315.07)"/><path class="cls-4" d="M982.9,670.22a48.67,48.67,0,0,0-15-4.88,43.29,43.29,0,0,1-13-4.08,1.52,1.52,0,0,0-1.49.07,1.48,1.48,0,0,0-.54.57,1.52,1.52,0,0,0,.14,1.59,1.38,1.38,0,0,0,.5.43,46.31,46.31,0,0,0,13.78,4.37c4.45.86,8.66,1.68,14,4.5,1.35,1.7,5.91,14.52,6.13,16.2,0,.73,0,.76-.6,1-1.29.5-4.16.75-8.77.75a38.49,38.49,0,0,1-11.57-1.93l-.09.12a1.54,1.54,0,0,1-1.16.54,1.5,1.5,0,0,1-1.49-1.62c-1-.39-2-.81-3-1.25a1.6,1.6,0,0,1-.23,0,1.47,1.47,0,0,1-.73-.19,1.58,1.58,0,0,1-.56-.56,76.28,76.28,0,0,1-13.7-8.75l-.62-.5A1.5,1.5,0,1,0,943,679l.12.1a81.33,81.33,0,0,0,12.21,8.2c1,.52,2,1,3,1.52,5.9,2.82,12.67,5,19.7,5,9.13,0,12.37-.72,12.37-4.74,0-1.41-2.91-9.33-2.94-9.41C984.37,671,983.45,670.52,982.9,670.22Z" transform="translate(-364.17 -315.07)"/><path class="cls-4" d="M961.85,685.85a10.54,10.54,0,0,0,1.3-5.1,10.84,10.84,0,0,0-.46-3.16,1.5,1.5,0,0,0-2.87.86,8.15,8.15,0,0,1,.33,2.3,7.51,7.51,0,0,1-.92,3.64,1.5,1.5,0,0,0,0,1.48,1.58,1.58,0,0,0,.56.56,1.47,1.47,0,0,0,.73.19,1.6,1.6,0,0,0,.23,0A1.48,1.48,0,0,0,961.85,685.85Z" transform="translate(-364.17 -315.07)"/><path class="cls-4" d="M966.93,681.49a1.5,1.5,0,0,0-1.5,1.5,5.94,5.94,0,0,1-1.31,4,1.44,1.44,0,0,0-.34.84,1.5,1.5,0,0,0,2.65,1.08l.09-.12a8.93,8.93,0,0,0,1.91-5.81A1.5,1.5,0,0,0,966.93,681.49Z" transform="translate(-364.17 -315.07)"/><path class="cls-4" d="M701.93,659.09H715a1.52,1.52,0,0,0,1.5-1.5,1.52,1.52,0,0,0-1.5-1.5H701.93a1.52,1.52,0,0,0-1.5,1.5,1.53,1.53,0,0,0,1.5,1.5Z" transform="translate(-364.17 -315.07)"/><path class="cls-4" d="M743.85,658.47a1.5,1.5,0,0,0,1.5,1.39h.11c3.18-.24,6.6-.35,11.08-.35,2.05,0,4.11,0,6.16,0s4.11.05,6.16.05c2.65,0,4.84,0,6.9-.12a1.5,1.5,0,0,0,1.44-1.55,1.52,1.52,0,0,0-1.55-1.45c-2,.08-4.18.12-6.79.12-2,0-4.08,0-6.13-.05s-4.13,0-6.19,0c-3.77,0-6.8.08-9.59.25l-1.72.11A1.51,1.51,0,0,0,743.85,658.47Z" transform="translate(-364.17 -315.07)"/><path class="cls-4" d="M623.62,612.35c0-26.88-16.76-29.29-31.54-31.41-12.58-1.8-22.52-3.23-22.52-17.77,0-6.37,4.24-9,9.59-12.3,7.18-4.44,16.11-10,16.11-26.87,0-2.18-.16-4.38-.31-6.5-.08-1.06-.15-2.12-.21-3.19,0-.06,0-.13,0-.2a1.49,1.49,0,0,0-2.68-.82,1.46,1.46,0,0,0-.31,1c.06,1.16.14,2.3.22,3.44.16,2.17.31,4.22.31,6.29,0,15.23-7.47,19.85-14.69,24.32-5.66,3.5-11,6.81-11,14.85,0,12.21,6.48,16.65,14.66,18.83v1.49c0,11.33-3.82,16.16-12.76,16.16-22.88,0-29.77-18.66-30.71-25.25a25.7,25.7,0,0,0,6.87,1.51,12.58,12.58,0,0,0,1.54-.1l.29,0a1.5,1.5,0,0,0,1.23-1.73,1.49,1.49,0,0,0-1.69-1.23,8.66,8.66,0,0,1-1.37.1c-2.63,0-9.27-2.47-13.23-3.94-3.22-1.2-3.89-1.44-4.44-1.44-.3,0-.6,0-.9.06a12.45,12.45,0,0,0-2.27-4.84,1.5,1.5,0,0,1-1.22.64h-.23a1.5,1.5,0,0,1-1.06-2.56l.15-.16a15.16,15.16,0,0,0-8.07-1.86c-13.86,0-28.93,18.65-29.58,20a1.53,1.53,0,0,0,.65,2,1.63,1.63,0,0,0,.62.16c.15.55.28,1.17.42,1.83.2.91.43,1.93.71,3-.28-1-.51-2-.7-3-1.61,1.11-3.26,2.17-4.9,3.21a24,24,0,0,0-5.07,3.16c-2.17,1.36-4.36,2.77-6.47,4.26a1.49,1.49,0,0,0-.62,1.06,1.51,1.51,0,0,0-.32,1.78,1.47,1.47,0,0,1,2.06,2.05l.74.59a15.42,15.42,0,0,1,2.27,2s.39.53,1,1.29l6.29,8.3.82,1.09c-14.12,5.15-15.33,15-15.33,24.61,0,3.58.28,8.4.56,13.07.27,4.5.54,9.16.54,12.46,0,2.37-.13,4.45-.13,4.57,0,.33,0,.67.06,1s.05.5.05.75-.07.45-.11.48a1.57,1.57,0,0,0-.35.61,1.51,1.51,0,0,0,.35,1.51,1.51,1.51,0,0,0,2.13,0,3.26,3.26,0,0,0,.85-1.57,4.21,4.21,0,0,0,.13-1,8.91,8.91,0,0,0-.07-1c0-.25,0-.49-.05-.63s.14-2.2.14-4.67c0-3.39-.28-8.09-.55-12.64s-.55-9.4-.55-12.89c0-9.48,1.07-17.68,14.25-22.11,2,2.54,2.12,2.55,2.7,2.55s.57,0,2.49-1.37c1.4-1,3.88-2.72,5.74-3.81.16,4.47,2.52,8.49,5,12.73,2.07,3.53,4.2,7.15,5,11.06.1.78.19,1.56.28,2.35,0,.2,0,.4,0,.6,0,1.85-1.1,3.3-2.38,5-1.62,2.14-3.47,4.57-3.47,8.35,0,5.62,2.05,8,4,10.37,2.17,2.55,4.41,5.18,4.41,13.1,0,1.18,0,2.36-.08,3.53s-.08,2.36-.08,3.52a1.47,1.47,0,0,0,.17.66,6.9,6.9,0,0,0-.1,3.9c-6.52-1.77-12-2.88-15.92-3.67-1.24-.25-2.36-.47-3.33-.68s-1.9-.42-2.57-.62a1.49,1.49,0,0,0-1.81,2,1.46,1.46,0,0,0,1,.9c1.43.42,3.51.84,6.15,1.36A178.82,178.82,0,0,1,533,699.33c-3.43,5.72-5,11.17-5,12.37a7.23,7.23,0,0,0,1.39,4.39,1.49,1.49,0,0,1,2.3,1.9.36.36,0,0,1-.07.1,7.49,7.49,0,0,0,3.69,1.07c5.75,0,7.49-3.13,10.14-7.88a81.14,81.14,0,0,1,5-8.08,1.5,1.5,0,1,0-2.44-1.75,83.06,83.06,0,0,0-5.18,8.37c-2.57,4.62-3.54,6.34-7.52,6.34a4.42,4.42,0,0,1-4.31-4.44c.11-2,5.37-17,16.1-22.33,14.4-7.2,23.4-10.95,29.36-13.43,10.6-4.41,11.23-4.67,12.22-12.75a116.38,116.38,0,0,1,3.2-16.92,1,1,0,0,0,0-.38,20.51,20.51,0,0,1,2.31.52c10.86,3.06,16.34,4.19,19.41,4.19h.16a9.72,9.72,0,0,1,.88-1.77,1.51,1.51,0,0,1,2.07-.46,1.55,1.55,0,0,1,.66.94c1-1.09,1-2.6.94-4a14.77,14.77,0,0,1,.09-2.29,1.51,1.51,0,0,0,.8-1.54,10.16,10.16,0,0,1-.1-1.53c0-5.09,1.07-9.17,2.19-13.48A53.55,53.55,0,0,0,623.62,612.35Zm-103.2-28.7c-1.22.22-2.23-.48-2.77-1.93a45.24,45.24,0,0,1-1.52-5.23c-.32-1.25-.64-2.53-1-3.81a1.5,1.5,0,0,0-2.87.88c.37,1.2.68,2.45,1,3.65a50,50,0,0,0,1.63,5.57,7.17,7.17,0,0,0,.91,1.69,1.5,1.5,0,0,0-1.3,1.48,1.66,1.66,0,0,1-1.67,1.76c-1.57,0-2.91-2.05-3.85-4.82a22.75,22.75,0,0,0-.94-3.74c-.21-.58-.43-1.16-.68-1.72a1.49,1.49,0,0,0-2-.76,1.59,1.59,0,0,0-.65.55,1.51,1.51,0,0,0-.11,1.42c.2.46.37.93.53,1.4a19.05,19.05,0,0,1,.87,3.44,21.54,21.54,0,0,1,.27,3.23c0,3.67-.52,4.61-.69,4.82-3.39-.09-5.54-5.28-6.83-8.4-.2-.47-.38-.9-.54-1.26a1.5,1.5,0,0,0-2.74,1.22c.13.3.28.64.43,1a1.49,1.49,0,0,0,0,1.08,2,2,0,0,1,.15.78c0,1.61-.86,4-2.71,4-2.68,0-3.74-2.69-4.61-6.42-.07-.28-.14-.58-.2-.87s-.08-.33-.11-.5a22.31,22.31,0,0,0-.91-3.38c3.64-4.4,15.57-17,25.86-17,9,0,10.56,4.12,10.56,15.73C523.91,581.3,522.1,583.34,520.42,583.65Zm57.3,44.6c0,.27-.05.53-.07.8a6.87,6.87,0,0,0-.4,3.76c-.24,1.62-.54,3.22-.91,4.8l-1.19,4.06a6.09,6.09,0,0,0-1,2.23c-1,4.69-1.43,10.76-3.59,15.11-1.22,2.48-4.23,4.76-7.26,6.49,0-.18,0-.36,0-.54.42-3.83.3-7.68-1.13-11-3.79-8.77-12.6-8-20.53-7.43-2.33.17-4.61.35-6.83.67a10.76,10.76,0,0,0-1.48-4.1l-.19-.27a11.43,11.43,0,0,0,1.17,0,9.49,9.49,0,0,0,4.82-1.08,9.29,9.29,0,0,0,4-2.58l2-2.53a12.4,12.4,0,0,0,1.7-6.31c-.14-1.11-.29-2.22-.44-3.33a12.57,12.57,0,0,0-3.22-5.51l-.26-.26a9.4,9.4,0,0,0-4-2.59,9.58,9.58,0,0,0-2.05-.77c.18-1.58.29-3.17.32-4.76a12.6,12.6,0,0,0-1-5.28c2.58,1,5.14,2.06,7.75,3,.53.2,1.07.38,1.62.57a4.75,4.75,0,0,0,6.32,1.91l1.73.43a6.35,6.35,0,0,0,5.67,7.69,45.48,45.48,0,0,0,13.44-1,6.68,6.68,0,0,0,5.15,7Q577.76,627.89,577.72,628.25Z" transform="translate(-364.17 -315.07)"/><path class="cls-4" d="M448,627.56a1.51,1.51,0,0,0,1.47-1.2c0-.06,0-.12,0-.18a1.46,1.46,0,0,0-.07-.56,1.48,1.48,0,0,0-1.13-1c-.67-.13-1.37-.31-2.06-.51-.53-.15-1.06-.31-1.6-.5a1.5,1.5,0,1,0-1,2.84c1,.34,2,.61,2.93.84.37.1.75.2,1.12.27Z" transform="translate(-364.17 -315.07)"/></g><g id="text_shadow"><text class="cls-9" transform="translate(359.2 65.81)">#CSALÁDI</text></g></svg>