<svg xmlns="http://www.w3.org/2000/svg" viewBox="0 0 722.67 706.76"><defs><style>.cls-1,.cls-3{fill:#fff;}.cls-1{stroke:#82cecd;stroke-miterlimit:10;}.cls-2{fill:#82cecd;}.cls-4{fill:#dd708d;}.cls-5,.cls-8{fill:#4e4f7d;}.cls-6{fill:#edbf2e;}.cls-7{fill:#f5b6a3;}.cls-8{font-size:36px;font-family:MVBoli, MV Boli;letter-spacing:0.05em;}</style></defs><title>strategiai</title><g id="Réteg_5" data-name="Réteg 5"><path class="cls-1" d="M661.51,194.15c62.25,13.75,111.54,73.4,122.56,127.73,6.39,31.53-4.5,39.53,5.42,60.62,24.92,53,107,30.87,164.2,73.65,81.4,60.91,87.8,235,29,274.08-59.28,39.36-163.17-72.82-249.52-21-37.43,22.46-39.3,56.38-75.41,59.88-42.44,4.12-88-38.08-118.29-66.13-21.79-20.19-16.71-20.28-29.88-30.53-55.27-43-102.68-8.68-152.32-40-43.75-27.6-63.65-90.06-55.54-138.85,6.45-38.8,30.09-65.79,36.22-72.44,26.21-28.45,47.07-26.78,77.43-55.79,24.87-23.77,30.31-43.45,43.31-65C492.61,244.28,578.16,175.75,661.51,194.15Z" transform="translate(-299.43 -190.6)"/></g><g id="Réteg_6" data-name="Réteg 6"><path class="cls-2" d="M810.68,768.77l.21-1.59a5.87,5.87,0,0,0-.81-3l-.2-.39a4.11,4.11,0,0,0-.68-1c0-.29.08-.57.1-.86,3-6,1.49-12.72-.29-19.09a7.73,7.73,0,0,0,.39-3.11,112.87,112.87,0,0,1-.24-16.24c.32-5.31,1.14-10.09.31-15.41a7,7,0,0,0-1-2.74c.12-1.32.24-2.65.25-4,.1-8-2.25-16.32-3.78-24.18a8.43,8.43,0,0,0-1.15-2.93h0c.38-4.11-2.7-7.77-6.43-9.27a16.7,16.7,0,0,0-3-3.57,24.18,24.18,0,0,0-5.58-4.93c-.2-.19-.4-.39-.62-.57-2.41-2-5.08-3.72-7.67-5.5a9,9,0,0,0-7.2-1.1h0c-3.1-2.07-7.46-2.8-11-2.94-2.83-.12-5.46.18-8.2.07a87.65,87.65,0,0,0-18.23-2.78c-.22-.16-.44-.34-.69-.49a10.7,10.7,0,0,0-5.46-1.6,6.22,6.22,0,0,0-2.6-1.05,5.47,5.47,0,0,0-2.61-.62,6,6,0,0,0-4.21,1.74c-.09.1-.16.22-.25.33a5.15,5.15,0,0,0-2.27,2h0a6.06,6.06,0,0,0-1,1.36,5.32,5.32,0,0,0-.54.75,6.29,6.29,0,0,0-.77,3.74,6.79,6.79,0,0,0,0,1c-.17.27-.34.54-.5.81a45.11,45.11,0,0,0-2.93,6.22,18.33,18.33,0,0,1-1.64,1.82,9.32,9.32,0,0,0-3,5.77,39.55,39.55,0,0,0-4.58,6.14,36.78,36.78,0,0,0-5.23,19.85,7.68,7.68,0,0,0-.37,1.24,10.85,10.85,0,0,0-.89,3.17,10,10,0,0,0-1.66,3.7q-.79,3.43-1.62,6.87a27.37,27.37,0,0,0-4.2,11.95c-5.6,10-9.94,20.46-14.21,31a80,80,0,0,0-4.72,7.8c-.26.49-.51,1-.75,1.49-5.83,7-11.13,14.5-16.5,21.87a39.14,39.14,0,0,0-9.69,6.06,24.18,24.18,0,0,1-3.81,3.31c-1.12.68-2.37,1.09-3.48,1.83a19.26,19.26,0,0,0-3.46,3c-.81.23-1.41.41-1.61.49a14.42,14.42,0,0,0-2.22,1.12,37.22,37.22,0,0,0-4-1.39l0-.12a18.29,18.29,0,0,0-1.53-3.89c-.11-.19-.23-.36-.35-.55-.53-2.47-1.09-4.93-1.72-7.38a16.31,16.31,0,0,0-2.56-5.41l-.16-1.84a12.08,12.08,0,0,0-1.77-5.39c-.44-10.65-.21-21.31.09-32a33.06,33.06,0,0,0-.85-8.24,77.8,77.8,0,0,0,7.87-2.24,8.33,8.33,0,0,0,4.87.3,6.72,6.72,0,0,0,1.35.07l2.66-.35a10.05,10.05,0,0,0,4.41-2.57l1.2-1.24a14.13,14.13,0,0,0,6.35-3.31,21.48,21.48,0,0,0,2.16-2.4,14.36,14.36,0,0,0,6-6.17,22.48,22.48,0,0,0,2.45-3.71,11.4,11.4,0,0,0,.68-1.58,31.92,31.92,0,0,0,4.65-7.7,49.36,49.36,0,0,0,2.33-7.59,9.67,9.67,0,0,0,1.83-3.62c.68-2.51.25-5.15.91-7.65a4.25,4.25,0,0,0,.11-1.35,10.88,10.88,0,0,1,.9-2,3.93,3.93,0,0,0,.56-1.68c.46-2.25-.78-4.92-3.76-4.92a4.79,4.79,0,0,0-.78.08c-1.77-2.23-4.59-3.74-8.61-4.06-.56-.2-.94-.33-1.18-.39l-.56-.62c-1.45-1.93-3.37-3.13-5.25-4.59-2.12-1.65-3.13-2.43-3.77-5.22a9,9,0,0,0-3.57-5.57c-.52-2.56-1.13-5.09-1.9-7.59-.09-1.34-.14-2.69-.13-4a4,4,0,0,0-4-4,4.15,4.15,0,0,0-3.53,2.21c-.1,0-.18.1-.27.14a3.53,3.53,0,0,0-2.11,0,4.25,4.25,0,0,0-1.5.85.45.45,0,0,0-.11,0c-2.47-.57-5.57-.56-7.71,1-.81.6-1.61,1.2-2.39,1.82l-.31.05c-3.8.71-7.61,1.6-11.34,2.62a81.73,81.73,0,0,0-22.41,10.32c-2.93,1.86-5.84,3.7-8.65,5.68a7.49,7.49,0,0,0-3,1.27,72.92,72.92,0,0,0-26,33.43,11.09,11.09,0,0,0-2.34,4c-.65,2-1.35,3.89-2.07,5.81a33.07,33.07,0,0,0-2.15,4.45,13.32,13.32,0,0,0-1.05,4c-.07.75-.15,1.49-.23,2.23a45.08,45.08,0,0,0-2.58,6.73,20.85,20.85,0,0,0,.07,8.18,116.12,116.12,0,0,0-1,28.46,13,13,0,0,0,.51,2.58,176.31,176.31,0,0,0,.55,28.25c1.17,10.38,3.1,20.62,4.88,30.9.36,2.07.69,4.14,1,6.22a11.55,11.55,0,0,0-.46,2.68,13.2,13.2,0,0,0,1.09,5.67,12.15,12.15,0,0,0-.64,5.16c.12,1.12.25,2.23.37,3.35a33.25,33.25,0,0,0,.82,4.76c.19,9.1,8.8,17.56,18,17.15a18.68,18.68,0,0,0,14-6.89,63.6,63.6,0,0,0,39.72,14.06c7.91,3.49,16.59,1.59,23.91-4.29l1.26-1,1.41-1.06a23.8,23.8,0,0,0,13.84.66c.24.14.47.3.72.43a22.52,22.52,0,0,0,10.5,2.71c2.56,9,9.48,18.6,17.83,23,9.05,4.79,20,7.18,30.05,3.93,9.2-3,19-8.86,23.31-17.92a101.61,101.61,0,0,0,4.48-10.88,8.66,8.66,0,0,0,6-6.5v-.05c5.58-1.58,7.79-6.95,6.9-12.27a34.89,34.89,0,0,1,.1-10.65c.58-4.15.11-8.76,1-12.7,2-8.54,4.07-16.6,4.88-25.36a19,19,0,0,0,1.42-3.36,21.82,21.82,0,0,0,.78-5.74c0-.47,0-.94,0-1.41a9.34,9.34,0,0,0,1.94-5.67c0-2.92,0-5.83-.07-8.75a7.59,7.59,0,0,0,2.94-.84,7.5,7.5,0,0,0,2.88-1.75l17.19-.64a83.54,83.54,0,0,0,10.67-.73,10.76,10.76,0,0,0,3.16.46c.26,0,.5,0,.74,0a6.42,6.42,0,0,0,3,1.85,6.22,6.22,0,0,0,2.79.08,2.18,2.18,0,0,0,1.94,1,2.93,2.93,0,0,0,2.88-2.88,2.13,2.13,0,0,0-.55-1.55A5.36,5.36,0,0,0,810.68,768.77Z" transform="translate(-299.43 -190.6)"/></g><g id="Réteg_7" data-name="Réteg 7"><path class="cls-3" d="M737,767.12c-.64-10.12-2.71-23.67-11.24-30.16a18.5,18.5,0,0,0-2.29-4.38,11.59,11.59,0,0,0-8.62-5,10.73,10.73,0,0,0-2.1-1,8.51,8.51,0,0,0-2.58-1.79,11.16,11.16,0,0,0-7-2.84l-1.05.14A111.47,111.47,0,0,0,688.05,718c-.12,0-.24,0-.36-.06a9.55,9.55,0,0,0-5.61-1.8c-5.22,0-10.25,4.57-10,10a29.11,29.11,0,0,0,.29,3.13,6.85,6.85,0,0,0-1,2.51,14.2,14.2,0,0,0,1.62,9.79c1,1.77,1.54,2.44,1.34,3.82a9.76,9.76,0,0,0-1.68,2.28c-1.51,2.84-3.12,5.62-4.76,8.38a8.09,8.09,0,0,0-5.65,4.69l-4.49,9.71a8.68,8.68,0,0,0-.7,1.24c-.78,1.68-1.62,3.31-2.51,4.91a7.89,7.89,0,0,0-2.18,1.71l-4.74,5.23a11.15,11.15,0,0,0-7.62,5.72,11.58,11.58,0,0,0-2.14,2.63,1.42,1.42,0,0,0-.6-.14,1.52,1.52,0,0,0-1.5,1.5,8.55,8.55,0,0,0,.21,2.94,1.2,1.2,0,0,0,.35.62,9.07,9.07,0,0,0,4.78,8.67,14.5,14.5,0,0,0,1.67.84,9.71,9.71,0,0,0,4.27,5.54c2.44,1.56,3.95,5,6.47,6.77a33.79,33.79,0,0,0,6.35,3.35,39.42,39.42,0,0,0,8.76,4.61c9.88,3.63,21.8,2.29,31.89.35a8.07,8.07,0,0,0,3.92-2c.28-.12.56-.24.84-.39,4-2.07,7.4-5.19,10.75-8.17a18.76,18.76,0,0,0,3.92-4.75,24.05,24.05,0,0,0,2.44-1.93,15.26,15.26,0,0,0,4.75-8,13.91,13.91,0,0,0,1-1.2,46.22,46.22,0,0,0,6.54-15.94C735.94,778.89,737.39,772.85,737,767.12Z" transform="translate(-299.43 -190.6)"/><path class="cls-3" d="M722,640.48a1.5,1.5,0,0,0-1.18-2.37h-.2a1.36,1.36,0,0,0-1.37,1,1.48,1.48,0,0,0-.25.62,16,16,0,0,1-3.58,2.81,1.5,1.5,0,0,0,1.52,2.59,18.49,18.49,0,0,0,4.55-3.66,1.43,1.43,0,0,0,.32-.57A1.92,1.92,0,0,0,722,640.48Z" transform="translate(-299.43 -190.6)"/><path class="cls-3" d="M743.33,390.65h-.43l-1.94,0a.45.45,0,0,0-.38-.22,14.71,14.71,0,0,0-4.19.29l-6.95.11a.5.5,0,0,0,0,1l4.71-.07h0c2.85.2,5.69.27,8.55.22a.48.48,0,0,0,.46-.37h.13A.5.5,0,0,0,743.33,390.65Z" transform="translate(-299.43 -190.6)"/></g><g id="Réteg_11" data-name="Réteg 11"><path class="cls-4" d="M718.13,774.61c-.92-20.59-16.7-38-38-38-19.88,0-38.92,17.48-38,38s16.7,38,38,38C700,812.61,719.05,795.13,718.13,774.61Z" transform="translate(-299.43 -190.6)"/></g><g id="Réteg_15" data-name="Réteg 15"><path class="cls-4" d="M549.71,434.15c-.27-1.85-1.52-2-2.9-2.4a1.56,1.56,0,0,0-.94-.4,3.55,3.55,0,0,0-2.07-1.87c-3.57-1.19-5.83,2.21-6.8,5.1a1.28,1.28,0,0,0,.23,1.25c-.87,2-.68,4.33,1.82,5.19l.05,0a1.23,1.23,0,0,0,.7,1.33,4,4,0,0,0,2,.35,2.33,2.33,0,0,0,1.7.07l.14-.07a1.41,1.41,0,0,0,1.67.15c2-1.05,3.07-3.26,3.53-5.4a4.71,4.71,0,0,0,.11-1.06A2.68,2.68,0,0,0,549.71,434.15Z" transform="translate(-299.43 -190.6)"/><path class="cls-5" d="M529.58,288.09A1.5,1.5,0,0,0,530,286a1.94,1.94,0,0,1-.34-1.14c0-1.38.41-3.22,3.91-3.22,4.28,0,4.86,1.82,4.86,3.61,0,2.54-2.32,4.93-4.36,7-1.88,1.94-3.5,3.61-3.5,5.53a10.53,10.53,0,0,0,1,3.74c.19.47.39,1,.55,1.45a1.51,1.51,0,0,0,1.42,1A1.61,1.61,0,0,0,534,304a1.51,1.51,0,0,0,1-1.9c-.19-.55-.4-1.09-.61-1.62a8.27,8.27,0,0,1-.77-2.62c0-.7,1.53-2.29,2.65-3.44,2.32-2.4,5.21-5.38,5.21-9.13,0-2.47-1-6.61-7.86-6.61-4.32,0-6.91,2.32-6.91,6.22a5,5,0,0,0,.85,2.81A1.5,1.5,0,0,0,529.58,288.09Z" transform="translate(-299.43 -190.6)"/><path class="cls-5" d="M535.59,318.29a3,3,0,0,0,3.1-3,3.51,3.51,0,0,0-2.06-3.08,1.78,1.78,0,0,0-.2-.45,1.5,1.5,0,0,0-2.08-.41,4.2,4.2,0,0,0-.72.59,1.51,1.51,0,0,0-1.16,1.46,1.62,1.62,0,0,0,.07.44,4.54,4.54,0,0,0-.15,1.18A3,3,0,0,0,535.59,318.29Zm-.2-3.34a.72.72,0,0,1,.33.32,1.41,1.41,0,0,1-.31,0,1.51,1.51,0,0,1,0-.26Z" transform="translate(-299.43 -190.6)"/></g><g id="Réteg_12" data-name="Réteg 12"><path class="cls-3" d="M677.93,727.42a11.43,11.43,0,0,0-5.14-6.31c-5.35-3.13-13.46-1.49-16.42,4.3-.49,1-1,1.94-1.51,2.91-.09.17-.18.34-.26.51-1.12,2.15-2.23,4.3-3.37,6.45a9.77,9.77,0,0,0-1.08-.06c-6.76,0-11.69,5.5-12,12,0-.91-1.29,2.18-1.86,3-2.14,2.95-4.51,5.59-6.2,8.83a12.46,12.46,0,0,0,.8,12.73c-.68,6.39,4.42,12.57,10.42,13.66a73.55,73.55,0,0,0,1.31,12.36,25.52,25.52,0,0,0,1.84,6.19c1,2.16,2.79,3.72,3.91,5.8,3,5.67,11.68.63,8.63-5-1.89-3.53-3.93-5.47-4.73-9.6a60.55,60.55,0,0,1-.95-13.44,73.94,73.94,0,0,0,11.75-17.76c.14-.28.28-.56.41-.84.37-.66.72-1.31,1.07-2a14.05,14.05,0,0,0,1.52-2.14l1.74-3a15.4,15.4,0,0,0,3.48-5.79c1-1.56,2-3.12,3-4.67a11.55,11.55,0,0,0,1.14-2.24,10.18,10.18,0,0,0,.91-2.62A11.26,11.26,0,0,0,677.93,727.42Z" transform="translate(-299.43 -190.6)"/></g><g id="Réteg_9" data-name="Réteg 9"><path class="cls-3" d="M685.72,411.44a13.18,13.18,0,0,0-17.79-4.67c-.67.4-1.34.79-2,1.15-.24.1-.77.34-1,.43-2,.66-4,1.24-5.93,1.83a67.13,67.13,0,0,0-12.7,5c-5.65,3-7.82,10.54-5.32,16.23,2.67,6.08,8.85,9,15.34,7.53L669.35,436c4.86.28,10.12-1.74,12-6.29l.3-.71.14-.33A13.22,13.22,0,0,0,685.72,411.44Z" transform="translate(-299.43 -190.6)"/><path class="cls-6" d="M759.41,392.93c-.29.29-.58.56-.88.84a11.08,11.08,0,0,0-4.38-.19l-5.51.41a19.38,19.38,0,0,0-2.88.36,11.06,11.06,0,0,0-11.6-2.36l-6.8,2.34c-1.28-.14-2.55-.28-3.83-.4a12.14,12.14,0,0,0-2.6-.25h-.39a80.61,80.61,0,0,0-14,.08q-.79.09-1.56.24c-10.63.47-21.41,1.22-31.66,4.14l-1.38.41a97.61,97.61,0,0,0-21.51,5.15c-16.79,6.11-32.36,16.49-40.63,32.81a15,15,0,0,0-1.53,5.31c-.24.49-.49,1-.71,1.47-.05.09-.1.19-.14.28a4.91,4.91,0,0,0-1.71,3.49c0,.25,0,.49,0,.73s-.22.68-.31,1a12.42,12.42,0,0,0-.36,4.68c-1.45,4.83-1.13,10.34-.71,15.39.87,10.46,2.15,20.87,3.74,31.24a4,4,0,0,0,2.25,3.23c0,1.34,0,2.67,0,4a4.9,4.9,0,0,0,.54,2.41h0l-.26,0c-.52,0-.64.68-.25.93A33,33,0,0,0,614,513c2.56,1.9,6,3.13,8.75,2.78.52-.07.73-.84.14-1l-.49-.13a.61.61,0,0,0,.06-.35.47.47,0,0,0,.17-.47.48.48,0,0,0,0-.42l0-.06a.53.53,0,0,0-.37-.84l-.12,0a2.35,2.35,0,0,0,.27-.86,2.54,2.54,0,0,0-.46-1.8q-.17-2.9-.32-5.81a2.42,2.42,0,0,0-1.34-2.09v-.11a4.9,4.9,0,0,0,1.16-3.06c.21-5,.29-9.82,1.78-14.64,1-3.21,2.13-6.39,3.28-9.56a10.91,10.91,0,0,0,5.73-7.51,14.47,14.47,0,0,1,1.28-3.63,1.05,1.05,0,0,0,.11-.07c15.95-12.08,36.1-13.59,55.07-17.59,3.6-.76,7.16-1.67,10.71-2.63l2.29-.37c.57-.09,1.1-.21,1.63-.33a44.52,44.52,0,0,0,5.8-.84c5-1.1,9.53-2.72,14.48-3.21a15.79,15.79,0,0,0,8.78-3.65c.68-.23,1.34-.48,2-.74.2,1.2.43,2.4.74,3.57a28.72,28.72,0,0,0,1.53,4.28c.28.65,1.32,2.12,1.34,2.71a4.74,4.74,0,0,0,3.41,4.55c1.27,2.83,2.57,5.63,3.88,8.43a35.22,35.22,0,0,0,2.15,8.11,67.61,67.61,0,0,0,1,9.79,4.45,4.45,0,0,0,1.22,2.46,5.11,5.11,0,0,0,.77,2.14c1.09,3.84,2,7.79,1.41,11.79-.5,3.15,4.32,4.5,4.82,1.33a24.64,24.64,0,0,0,.23-5.54,2.68,2.68,0,0,0,3-2.37,44.56,44.56,0,0,0-.27-10.45,1.75,1.75,0,0,0-.36-.85c0-.12,0-.25,0-.38a4.35,4.35,0,0,0,.37-1.91c0-.17,0-.34,0-.5a4.27,4.27,0,0,0,0-.71c0-2.27-.14-4.53-.25-6.8.88-5.05-.6-11.71-1.2-15.26a4,4,0,0,0-1.41-2.5c-.12-.88-.26-1.77-.43-2.65-1.38-7-4.59-13.54-8-19.83a11.22,11.22,0,0,0,1.27-4.44,12.42,12.42,0,0,0,6.34-9.44l1.78-2.76a15,15,0,0,0,2.53-3.88,5.88,5.88,0,0,0,2-3.92l0-.27a3.39,3.39,0,0,0-.15-1.39l.88-.83C765.24,394.2,761.7,390.67,759.41,392.93Z" transform="translate(-299.43 -190.6)"/></g><g id="Réteg_8" data-name="Réteg 8"><path class="cls-7" d="M691.47,780.52a1.87,1.87,0,0,0-.83-.71,3.31,3.31,0,0,0-1.56-1.53,5.36,5.36,0,0,0-2.08-3.52,5.61,5.61,0,0,0-2.47-3.1,7,7,0,0,0-1.53-.6c-.26-.89-.51-1.79-.77-2.69a1.51,1.51,0,0,0-3,.4,2.81,2.81,0,0,1,0,.29,2.31,2.31,0,0,0-.19.14c-1.82,1.68-2.63,4.28-3.88,6.37a7.53,7.53,0,0,0-1.12,4.2,1.59,1.59,0,0,0-.86,2.57c.72.81,1.16.54,1.87.61a1.51,1.51,0,0,0,1.53.31,1.33,1.33,0,0,0,.84.53,5.44,5.44,0,0,0,.54.27,5.86,5.86,0,0,0,3.54.28,5.49,5.49,0,0,0,2.3.46,5.07,5.07,0,0,0,4-1.79l.26-.07c1.36.38,2.63.28,3.31-.91A1.49,1.49,0,0,0,691.47,780.52Z" transform="translate(-299.43 -190.6)"/><path class="cls-7" d="M553.55,362.05a16.5,16.5,0,0,0,2.29-5.61c.07-.15.13-.31.19-.47a7.89,7.89,0,0,0,1.4-2.09c1.25-2.88.63-5.73-.44-8.48a9.65,9.65,0,0,0-2.56-5.91c-.35-.38-.73-.74-1.12-1.09-2.23-3.2-5.22-5.89-9-6a6.28,6.28,0,0,0-.75,0c-4.55-1.21-10.35-.12-14.13,1.91a15.58,15.58,0,0,0-8,13.53,18.4,18.4,0,0,0,7.46,14.7,18.12,18.12,0,0,0,3.64,2.07,7.31,7.31,0,0,0-1.64,1.07,15.49,15.49,0,0,0-4.56,7.4c-2.18,2.49-3.34,5.66-4.56,8.9-1.78,4.73.81,8.9-.42,13.65-1.62,6.28,6.32,9.51,10,5.88l.54-.2a6.12,6.12,0,0,0,2.61-.19,40.65,40.65,0,0,0,5.16.22l6.88.14a6.28,6.28,0,0,0,2-.28,5.19,5.19,0,0,0,2.73-.11c.18-.06.34-.14.51-.21a4.11,4.11,0,0,0,1.55.3,3.61,3.61,0,0,0,3.38-2,3.65,3.65,0,0,0,.12-4.05c-.22-.37-.42-.75-.62-1.12,1.64-4.18-.25-10.2-1.57-14.86.12-1.2.2-2.41.22-3.62a6.18,6.18,0,0,0-2.77-5c-.15-.57-.3-1.15-.47-1.73a6.41,6.41,0,0,0-.68-1.47c0-.34-.09-.68-.15-1a6,6,0,0,0-.28-1.11A16,16,0,0,0,553.55,362.05Z" transform="translate(-299.43 -190.6)"/><path class="cls-7" d="M504.89,386.87a8.09,8.09,0,0,0,.4-3.65c-.4-3.51-3.39-6.2-4.28-9.24a5.77,5.77,0,0,0-1.75-2.83c0-.14,0-.28,0-.42a6,6,0,0,0,2.52-2.1,9.74,9.74,0,0,0,.86-1.63c3.69-3.37,3.17-9.1,0-13.15-.07-.09-.15-.16-.22-.24s-.26-.29-.4-.43l-.06-.05a7.06,7.06,0,0,0-3.57-1.77,8.83,8.83,0,0,0-2.15-1c-3.27-1-7.67-.78-10.09,1.89a8.1,8.1,0,0,0-1.86,5.38,9.34,9.34,0,0,0-.62,2.31,8.66,8.66,0,0,0,1.33,6,6.16,6.16,0,0,0,2.68,3.8c0,1.23,0,2.45-.09,3.64a5.16,5.16,0,0,0-2.13,2.53,11.87,11.87,0,0,0-2.82,7.22l0,0a6.62,6.62,0,0,0-1.51,2.61,6.08,6.08,0,0,0,.61,4.59,6,6,0,0,0,3.55,2.74l1.59.21h0a5.88,5.88,0,0,0,3.42-.39,16,16,0,0,0,3.64.72,7.69,7.69,0,0,0,4.56-1.16,14,14,0,0,0,1.45-.55,4.1,4.1,0,0,0,1.26.21l.24,0A1.58,1.58,0,0,0,504,391,4.38,4.38,0,0,0,504.89,386.87Z" transform="translate(-299.43 -190.6)"/><path class="cls-7" d="M599.87,383.74a6.54,6.54,0,0,0-1.13-5.62,20.35,20.35,0,0,0-1.18-5.21,6.7,6.7,0,0,0-3.82-4l1.61-2.74a5.49,5.49,0,0,0,.7-2c.43-.78.88-1.56,1.35-2.33l-.09,0a12.69,12.69,0,0,0,.69-1.38,4.73,4.73,0,0,0-1.73-6,6.5,6.5,0,0,0-1.62-4.85c-2.66-3.19-7.14-3.51-10.91-2.38s-7.5,3.49-7.79,7.71a12.43,12.43,0,0,0,1.48,6,8.43,8.43,0,0,0,3.92,7.07,2.16,2.16,0,0,0-.05.27,6.07,6.07,0,0,0-1.11,1.4,29.27,29.27,0,0,0-2.16,4.88,1.55,1.55,0,0,0-2.46,1.16c0,.52-.51.95-.82,1.33a6.41,6.41,0,0,0-1,1.64,3.11,3.11,0,0,0,.52,3.49,2.51,2.51,0,0,0,1.06.6,9.52,9.52,0,0,0-.09,2.33,4.07,4.07,0,0,0,4,4,4.64,4.64,0,0,0,2.81-1.19,2.17,2.17,0,0,0,.36,0,5.79,5.79,0,0,0,.59.72,6,6,0,0,0,7.64.59,3.85,3.85,0,0,0,.77-.17,13.91,13.91,0,0,0,1.4-.4,9,9,0,0,0,1.15-.49h.41a5.91,5.91,0,0,0,2.89-.7,1.49,1.49,0,0,0,2.52-1.08,1.46,1.46,0,0,0,.79-1.3A1.56,1.56,0,0,0,599.87,383.74Z" transform="translate(-299.43 -190.6)"/></g><g id="Réteg_10" data-name="Réteg 10"><path class="cls-3" d="M741.56,391q-3.81-.06-7.63.07a.5.5,0,0,0-.13,1,5,5,0,0,0,2.8.28A.39.39,0,0,0,737,392c1.54,0,3.08,0,4.61,0A.5.5,0,0,0,741.56,391Z" transform="translate(-299.43 -190.6)"/></g><g id="lineart"><path class="cls-5" d="M617.66,726.2c-13.53-3.29-23.86-14.82-32.78-36.22a1.49,1.49,0,0,0-2-.81,1.51,1.51,0,0,0-.81,2c5.93,14.23,15.61,32.43,33.67,37.63.1-.46.19-.93.29-1.39A1.5,1.5,0,0,1,617.66,726.2Z" transform="translate(-299.43 -190.6)"/><path class="cls-5" d="M668.93,670.72c0-.92.06-1.84.06-2.77,0-10.22-5-29.86-9.5-47.19-3.22-12.51-6.25-24.32-6.25-28.6,0-19.4,24.38-31.89,28-31.89a3.54,3.54,0,0,1,3.47,3.69c0,2.34-2.27,4.14-5.13,6.42-4.42,3.52-10.48,8.33-10.48,18.3a42.66,42.66,0,0,0,.95,8,22.18,22.18,0,0,1,2.43-3.51,32.82,32.82,0,0,1-.38-4.47c0-8.52,5-12.47,9.35-15.95,3.22-2.56,6.26-5,6.26-8.77a6.52,6.52,0,0,0-6.47-6.69c-5.33,0-31,14-31,34.89a60.77,60.77,0,0,0,1.8,11,1.49,1.49,0,0,1,.23,1c1.14,5,2.67,10.94,4.31,17.33C661,638.67,666,658.11,666,668c0,.35,0,.68,0,1,.57.12,1.14.24,1.74.35A1.48,1.48,0,0,1,668.93,670.72Z" transform="translate(-299.43 -190.6)"/><path class="cls-5" d="M619,728c-.11.47-.2,1-.3,1.44a38.66,38.66,0,0,0,7.61.75c19.64,0,41.46-24.22,42.62-59.33a.58.58,0,0,1,0,.19,1.49,1.49,0,0,1-1.47,1.23l-.27,0-1.29-.26c-1.55,32.72-21.54,55.19-39.57,55.19a36.77,36.77,0,0,1-8.16-.88A1.51,1.51,0,0,1,619,728Z" transform="translate(-299.43 -190.6)"/><path class="cls-5" d="M669,605.73h.16a1.5,1.5,0,0,0,1.49-1.35c.84-8.45,9.29-16.15,17.72-16.15a8.32,8.32,0,0,1,6,2.14,18.77,18.77,0,0,1,2.91-1.28,11,11,0,0,0-8.93-3.86c-6,0-11.91,3.19-15.88,7.91a22.18,22.18,0,0,0-2.43,3.51,19.32,19.32,0,0,0-2.4,7.43A1.5,1.5,0,0,0,669,605.73Z" transform="translate(-299.43 -190.6)"/><path class="cls-5" d="M712.58,598.24l-.61.18a1.72,1.72,0,0,0,.37-.07Z" transform="translate(-299.43 -190.6)"/><path class="cls-5" d="M702.61,588.18a16.17,16.17,0,0,0-5.32.92,18.77,18.77,0,0,0-2.91,1.28,26.52,26.52,0,0,0-11.82,14.39,1.5,1.5,0,1,0,2.84,1c3.15-9.44,11.22-14.54,17.21-14.54,3.44,0,5.79,1.56,7.28,4.87a22.38,22.38,0,0,1,2.88-.91C710.79,590.52,707.38,588.18,702.61,588.18Z" transform="translate(-299.43 -190.6)"/><path class="cls-5" d="M725.09,599.61a1.5,1.5,0,0,1-.79-2.77c.26-.16.53-.34.81-.53a13.55,13.55,0,0,0-7.16-1.83,21.51,21.51,0,0,0-5.18.66,22.38,22.38,0,0,0-2.88.91c-5.24,2.08-9.79,6.19-11.19,12.23a1.5,1.5,0,0,0,2.93.68c1-4.32,4.7-8.68,10.34-10.54l.61-.18a19,19,0,0,1,5.37-.76c7.16,0,10.79,5,10.79,14.78,0,6-2.28,15.52-8.36,16-.29-.73-.79-2.18-1.51-4.23-.66-1.89-1.55-4.45-2.78-7.91a19.5,19.5,0,0,0-2.13,3c.88,2.49,1.55,4.43,2.08,5.94,1.94,5.55,2.19,6.27,3.44,6.27a3.24,3.24,0,0,0,.43,0c7.77,0,11.83-9.56,11.83-19,0-6.25-1.46-11-4.23-14-.54.38-1.08.75-1.64,1.09A1.46,1.46,0,0,1,725.09,599.61Z" transform="translate(-299.43 -190.6)"/><path class="cls-5" d="M632.71,792a52.11,52.11,0,0,1-5.57,2.52l.56,1.26a1.5,1.5,0,0,1-.73,2,1.41,1.41,0,0,1-.63.14A1.5,1.5,0,0,1,625,797c-.23-.5-.45-1-.67-1.5A51,51,0,0,1,608.5,798c-20.81,0-39.08-11.57-54.28-34.38a1.5,1.5,0,0,0-2.5,1.67C567.52,789,586.62,801,608.5,801a54.79,54.79,0,0,0,25.27-6.19c-.34-.78-.66-1.56-1-2.35A1.48,1.48,0,0,1,632.71,792Z" transform="translate(-299.43 -190.6)"/><path class="cls-5" d="M721.36,612a1.5,1.5,0,0,0-1.26-2.72c-6.7,3.09-11.76,11.14-11.76,18.7a14.5,14.5,0,0,0,3.24,9.23c1.46,2.11,2.72,3.93,2.72,7.62,0,5-2.32,8.42-5.54,13.13a76.37,76.37,0,0,0-11,21.71c-.08.25-.25.92-.51,2-6.2,24.53-14.19,46.15-23.76,64.26-11.45,21.68-24.31,36.66-38.44,44.83a1.42,1.42,0,0,1,.55.7c.26.67.53,1.34.81,2,14.67-8.43,28-23.85,39.74-46.12,9.67-18.32,17.75-40.16,24-64.93.24-.94.39-1.55.46-1.78a73.65,73.65,0,0,1,10.61-20.93c3.4-5,6.07-8.88,6.07-14.82A14.69,14.69,0,0,0,714,635.5c-1.44-2.08-2.7-3.89-2.7-7.52a18,18,0,0,1,2.62-8.91,19.5,19.5,0,0,1,2.13-3A16,16,0,0,1,721.36,612Z" transform="translate(-299.43 -190.6)"/><path class="cls-5" d="M626.34,797.91a1.41,1.41,0,0,0,.63-.14,1.5,1.5,0,0,0,.73-2l-.56-1.26a114,114,0,0,1-10.3-46.26,94.83,94.83,0,0,1,1.86-18.8c.1-.48.19-1,.3-1.44a1.51,1.51,0,0,0-.85-1.69,1.32,1.32,0,0,0-.3-.1,1.25,1.25,0,0,0-.19,0,1.5,1.5,0,0,0-1.59,1.17c-.1.46-.19.93-.29,1.39a98.07,98.07,0,0,0-1.94,19.5,117,117,0,0,0,10.47,47.28c.22.5.44,1,.67,1.5A1.5,1.5,0,0,0,626.34,797.91Z" transform="translate(-299.43 -190.6)"/><path class="cls-5" d="M532.69,749.63c0-95.7,73.34-108.2,100.94-112.9,5.06-.86,8.4-1.43,10.07-2.26.66-.33,1.34-.64,2-1,3.66-1.66,7.81-3.55,8.92-8.52a1.5,1.5,0,1,0-2.93-.65c-.78,3.5-3.77,4.87-7.23,6.44-.72.33-1.43.66-2.13,1-1.26.63-4.77,1.23-9.22,2-28.29,4.82-103.44,17.62-103.44,115.86,0,15.3,1.93,30.94,3.8,46.07,1.85,15,3.76,30.44,3.76,45.41a1.5,1.5,0,1,0,3,0c0-15.15-1.92-30.72-3.78-45.78S532.69,764.75,532.69,749.63Z" transform="translate(-299.43 -190.6)"/><path class="cls-5" d="M667.44,672.3a1.49,1.49,0,0,0,1.47-1.23.58.58,0,0,0,0-.19.86.86,0,0,0,0-.16,1.48,1.48,0,0,0-1.22-1.39c-.6-.11-1.17-.23-1.74-.35-19.09-4.14-23.35-15.79-26.56-29.44a1.5,1.5,0,0,0-2.92.69c3.36,14.25,8.16,27.4,29.39,31.79l1.29.26Z" transform="translate(-299.43 -190.6)"/><path class="cls-5" d="M635.05,790.72a1.46,1.46,0,0,0-1.38-.16,1.5,1.5,0,0,0-.86,1.94c.3.79.62,1.57,1,2.35,9.28,21.6,29,36.48,48.69,36.48,31.82,0,55.82-26.9,55.82-62.57,0-26.06-14-44.14-38.45-49.6a1.5,1.5,0,0,0-.66,2.93c23.29,5.2,36.11,21.78,36.11,46.67,0,34-22.71,59.57-52.82,59.57-18.61,0-37.28-14.25-46.05-34.92-.28-.65-.55-1.32-.81-2A1.42,1.42,0,0,0,635.05,790.72Z" transform="translate(-299.43 -190.6)"/><path class="cls-5" d="M719.74,765.07a1.5,1.5,0,0,0-2.88.84,31.77,31.77,0,0,1,.85,3.72,1.49,1.49,0,0,0,1.47,1.26l.25,0a1.51,1.51,0,0,0,1.24-1.73A35.75,35.75,0,0,0,719.74,765.07Z" transform="translate(-299.43 -190.6)"/><path class="cls-5" d="M703.89,802.67a1.5,1.5,0,0,0,1,2.65,1.51,1.51,0,0,0,1-.35c1-.88,2.07-1.82,3-2.8a1.5,1.5,0,0,0-2.12-2.12C705.83,801,704.87,801.85,703.89,802.67Z" transform="translate(-299.43 -190.6)"/><path class="cls-5" d="M717.91,778.17a31.18,31.18,0,0,1-.69,3.75,1.5,1.5,0,0,0,1.1,1.82,1.51,1.51,0,0,0,1.81-1.1,33.27,33.27,0,0,0,.76-4.11,1.5,1.5,0,1,0-3-.36Z" transform="translate(-299.43 -190.6)"/><path class="cls-5" d="M704.12,743.66a1.5,1.5,0,0,0-1.79,2.41c1,.78,2,1.6,3,2.44a1.5,1.5,0,1,0,2-2.25C706.31,745.36,705.23,744.49,704.12,743.66Z" transform="translate(-299.43 -190.6)"/><path class="cls-5" d="M716.17,789.34a1.51,1.51,0,0,0-2,.64c-.58,1.12-1.24,2.24-1.94,3.32a1.5,1.5,0,1,0,2.51,1.64c.76-1.16,1.46-2.37,2.09-3.58A1.49,1.49,0,0,0,716.17,789.34Z" transform="translate(-299.43 -190.6)"/><path class="cls-5" d="M713.65,753.07a1.5,1.5,0,0,0-2.41,1.8,36.22,36.22,0,0,1,2.15,3.18,1.5,1.5,0,0,0,1.29.73,1.54,1.54,0,0,0,.77-.21,1.5,1.5,0,0,0,.51-2.06A40.51,40.51,0,0,0,713.65,753.07Z" transform="translate(-299.43 -190.6)"/><path class="cls-5" d="M693.76,812a1.52,1.52,0,0,0,.55-.1,38.72,38.72,0,0,0,3.78-1.73,1.5,1.5,0,0,0,.64-2,1.52,1.52,0,0,0-2-.64,34.16,34.16,0,0,1-3.49,1.6,1.5,1.5,0,0,0,.55,2.89Z" transform="translate(-299.43 -190.6)"/><path class="cls-5" d="M694.9,741.48a1.5,1.5,0,0,0,1.36-2.68c-1.22-.62-2.48-1.2-3.74-1.72a1.5,1.5,0,0,0-1.15,2.77C692.56,740.34,693.75,740.89,694.9,741.48Z" transform="translate(-299.43 -190.6)"/><path class="cls-5" d="M668.93,809a1.5,1.5,0,1,0-1.1,2.79,36,36,0,0,0,4,1.3,1.28,1.28,0,0,0,.38.05,1.5,1.5,0,0,0,.39-3A32.12,32.12,0,0,1,668.93,809Z" transform="translate(-299.43 -190.6)"/><path class="cls-5" d="M684.9,811.17a30.51,30.51,0,0,1-3.81.16,1.52,1.52,0,0,0-1.52,1.48,1.5,1.5,0,0,0,1.47,1.52h.72a31.12,31.12,0,0,0,3.46-.19,1.5,1.5,0,1,0-.32-3Z" transform="translate(-299.43 -190.6)"/><path class="cls-5" d="M652.12,790.06a1.49,1.49,0,0,0-1.28,1.68,22.85,22.85,0,0,0,.94,4.16,1.51,1.51,0,0,0,1.43,1,1.52,1.52,0,0,0,1.42-2,19.82,19.82,0,0,1-.82-3.62A1.49,1.49,0,0,0,652.12,790.06Z" transform="translate(-299.43 -190.6)"/><path class="cls-5" d="M658.81,802.15a1.5,1.5,0,1,0-2.23,2,25.78,25.78,0,0,0,3.08,2.9,1.44,1.44,0,0,0,.94.33,1.49,1.49,0,0,0,.94-2.66A23.14,23.14,0,0,1,658.81,802.15Z" transform="translate(-299.43 -190.6)"/><path class="cls-5" d="M696.7,781.75a1.51,1.51,0,0,0-.88-1.34c-5-2.27-10.47-9.57-13.94-15.65a1.51,1.51,0,0,0-1.35-.75,1.47,1.47,0,0,0-1.3.84l-.52,1.07c-2.67,5.46-5.42,11.1-8.49,16.47a1.49,1.49,0,0,0,.78,2.15,30.87,30.87,0,0,0,10.59,1.81,32.61,32.61,0,0,0,14.28-3.23A1.51,1.51,0,0,0,696.7,781.75Zm-23,.53c2.5-4.49,4.78-9.11,7-13.63,2.32,3.69,6.47,9.58,11.18,12.92A30.69,30.69,0,0,1,673.73,782.28Z" transform="translate(-299.43 -190.6)"/><path class="cls-5" d="M825.23,848.56c-12.43-34.18-12.93-74.51-13.42-113.51-.13-10.16-.26-20.66-.6-30.93-1.88-57-37.23-59.09-63.05-60.63-11.82-.7-22-1.31-25-7.29a1.49,1.49,0,0,0-2-.68,1.51,1.51,0,0,0-.67,2c3.77,7.53,14.78,8.19,27.53,9,26,1.55,58.45,3.48,60.23,57.72.34,10.24.47,20.73.6,30.88.15,12.23.31,24.6.83,36.87.32-.1.64-.21,1-.34a1.5,1.5,0,0,1,1.15,2.77,12.17,12.17,0,0,1-2,.63c1.25,26.05,4.29,51.61,12.63,74.56a1.44,1.44,0,0,0,.24.42H825A1.48,1.48,0,0,0,825.23,848.56Z" transform="translate(-299.43 -190.6)"/><path class="cls-5" d="M770,815.24c-.85-6.91-1.73-12.33-2.57-17.57-1.11-6.84-2.13-13.18-2.85-21.65l-1.16.33a1.68,1.68,0,0,1-.44.07,1.5,1.5,0,0,1-1.43-1.07,2.44,2.44,0,0,1-.06-.26c.28,3.41.6,6.48.95,9.37a1.47,1.47,0,0,1,.51,1.16c0,.66-.07,1.3-.1,1.94.5,3.64,1,7.05,1.62,10.59.84,5.21,1.7,10.6,2.55,17.46.87,7.1,1.16,14.38,1.45,21.41.17,4.27.35,8.61.66,13h3c-.32-4.4-.5-8.79-.67-13.1C771.14,829.8,770.84,822.47,770,815.24Z" transform="translate(-299.43 -190.6)"/><path class="cls-5" d="M762.5,773.48c.6-.18,1.2-.34,1.8-.51-.49-6.94-.79-15.32-.79-26.34a197,197,0,0,1,1.56-26.53,1.5,1.5,0,0,0-3-.39,201.06,201.06,0,0,0-1.58,26.92c0,12.09.36,21,.94,28.38A1.5,1.5,0,0,1,762.5,773.48Z" transform="translate(-299.43 -190.6)"/><path class="cls-5" d="M762.94,776.42a1.68,1.68,0,0,0,.44-.07l1.16-.33A78.87,78.87,0,0,1,786.38,773a114.13,114.13,0,0,1,20.37,2.3,2.7,2.7,0,0,0,.52.07,10.84,10.84,0,0,0,2.51-.31,12.17,12.17,0,0,0,2-.63,1.5,1.5,0,0,0-1.15-2.77c-.32.13-.64.24-1,.34a8.13,8.13,0,0,1-2.23.37h-.07a117,117,0,0,0-21-2.36,81.82,81.82,0,0,0-22.08,3c-.6.17-1.2.33-1.8.51a1.5,1.5,0,0,0-1,1.53v.08a2.44,2.44,0,0,0,.06.26A1.5,1.5,0,0,0,762.94,776.42Z" transform="translate(-299.43 -190.6)"/><path class="cls-5" d="M759,811.57c1.7-8.09,3.3-15.77,3.77-24,0-.64.08-1.28.1-1.94a1.47,1.47,0,0,0-.51-1.16,1.48,1.48,0,0,0-.94-.39,1.51,1.51,0,0,0-1.55,1.45c-.29,8.73-2,16.84-3.81,25.43-2.14,10.15-4.35,20.64-4.35,33,0,2.15.1,4.17.29,6.09h3a58.33,58.33,0,0,1-.31-6.09C754.75,831.9,756.93,821.57,759,811.57Z" transform="translate(-299.43 -190.6)"/><path class="cls-5" d="M683.45,446.16c-32.58,5.44-63.34,10.57-63.34,53.67a75.7,75.7,0,0,0,4.23,24.35,1.5,1.5,0,1,0,2.84-1,72.48,72.48,0,0,1-4.07-23.37c0-40.55,28.19-45.26,60.83-50.71,22.49-3.75,47.06-7.86,64.37-24.88-.31-.56-.62-1.12-.95-1.68a1.5,1.5,0,0,1,0-1.45C730.85,438.25,706.87,442.26,683.45,446.16Z" transform="translate(-299.43 -190.6)"/><path class="cls-5" d="M764.57,391a90,90,0,0,1-14.13.79c-5.92,0-11.93-.21-17.75-.42S720.8,391,714.83,391c-12.71,0-45.28,1.41-73.19,14.54-26.25,12.35-40.13,31.64-40.13,55.81,0,11,2.07,22.18,4.07,33,.88,4.75,1.79,9.66,2.5,14.45-10.16,3.87-12.34,10.48-12.34,15.43,0,10.76,10.1,16.89,20.07,17.5a127.11,127.11,0,0,0,8.71,37.07c3.75,9.06,10.75,14.54,17.52,19.84,2.62,2.05,5.32,4.16,7.74,6.43a1.51,1.51,0,0,0,1,.41,1.5,1.5,0,0,0,1.24-2.31,1.94,1.94,0,0,0-.21-.29c-2.51-2.36-5.27-4.52-7.94-6.61C637.13,591,630.74,586,627.3,577.66a124.38,124.38,0,0,1-8.61-37.5,1.51,1.51,0,0,0-1.48-1.38c-9-.08-18.47-5.21-18.47-14.54,0-6,3.87-10.42,11.48-13a1.51,1.51,0,0,0,1-1.63c-.74-5.24-1.73-10.6-2.69-15.78-2-10.71-4-21.78-4-32.48,0-23.25,12.92-41.11,38.41-53.1,27.36-12.86,59.4-14.25,71.91-14.25,5.92,0,11.94.21,17.76.41s11.88.42,17.85.42a107.94,107.94,0,0,0,12.25-.51c-3.56,11.13-8.66,19.63-14.84,26.23l0,0A1.51,1.51,0,0,1,750,421l.54,1c6.68-7.27,12.13-16.68,15.76-29.07a1.51,1.51,0,0,0-1.68-1.9Z" transform="translate(-299.43 -190.6)"/><path class="cls-5" d="M609.09,525.43c-2-.57-2.26-.81-2.27-1.37a3.47,3.47,0,0,1,1.7-1.95,1.5,1.5,0,0,0,2.41-1.73,2.32,2.32,0,0,0-2.12-1.32c-2.65,0-5,3.1-5,5,0,3,2.66,3.76,4.42,4.27,1.22.36,2.38.69,2.83,1.45a1.5,1.5,0,0,0,1.29.73,1.54,1.54,0,0,0,.77-.21,1.51,1.51,0,0,0,.52-2.06C612.6,526.45,610.65,525.89,609.09,525.43Z" transform="translate(-299.43 -190.6)"/><path class="cls-5" d="M656.21,501.51c-3,1.47-4.72,4.7-4.72,8.62,0,6.82,5.15,11.58,9.78,11.58,6.11,0,9.89-5.88,9.89-11.34,0-6.47-5.27-10-10.23-10A10.64,10.64,0,0,0,656.21,501.51ZM668,507.83a3.48,3.48,0,0,1-.07.64,7.55,7.55,0,0,1,.23,1.9c0,4-2.77,8.34-6.89,8.34-2.83,0-6.78-3.27-6.78-8.58,0-2.76,1.14-5,3.06-5.94l.25-.1a1.48,1.48,0,0,1,1.07-1l.17,0a14,14,0,0,1,3.5-.55C666.06,502.46,668,504.37,668,507.83Z" transform="translate(-299.43 -190.6)"/><path class="cls-5" d="M658.87,503.05a1.48,1.48,0,0,0-1.07,1,1.47,1.47,0,0,0,0,.78l.06.18a4.52,4.52,0,0,0-.67,2.59,5.69,5.69,0,0,0,5.83,5.51c1.9,0,4.52-2.31,4.94-4.68a3.48,3.48,0,0,0,.07-.64c0-3.46-1.94-5.37-5.46-5.37a14,14,0,0,0-3.5.55Zm4.12,7.1a2.7,2.7,0,0,1-2.83-2.51c0-1,.17-1.07.87-1.41a1.5,1.5,0,0,0,.69-.72,7.37,7.37,0,0,1,.82-.05c1.86,0,2.46.57,2.46,2.37C665,508.68,663.49,510.06,663,510.15Z" transform="translate(-299.43 -190.6)"/><path class="cls-5" d="M712.12,518.93c5.51,0,10-5,10-11.23,0-7.93-6-8.6-11.6-8.6H710l-.31,0c-.24,0-.5,0-.74,0-1.88,0-6.62,2.63-6.62,8.86C702.36,513.2,706.09,518.93,712.12,518.93Zm-3.34-16.83a3.93,3.93,0,0,1,3.11-1.51h.57a5.27,5.27,0,0,1,5,2.75c1.22.85,1.66,2.23,1.66,4.36,0,4-2.81,8.23-7,8.23s-6.76-4.17-6.76-8S708,502.39,708.78,502.1Z" transform="translate(-299.43 -190.6)"/><path class="cls-5" d="M712.79,511.9c3.82,0,5.24-3.79,5.24-6.18a5.13,5.13,0,0,0-.58-2.38,5.27,5.27,0,0,0-5-2.75h-.57a3.93,3.93,0,0,0-3.11,1.51A6.19,6.19,0,0,0,707.5,506C707.5,509.23,709.87,511.9,712.79,511.9Zm0-3c-1.42,0-2.29-1.53-2.29-2.95,0-.74.35-2.36,1.39-2.36h.57c2.32,0,2.57,1.49,2.57,2.13C715,505.75,714.9,508.9,712.79,508.9Z" transform="translate(-299.43 -190.6)"/><path class="cls-5" d="M661.86,488.71a1.5,1.5,0,0,0,0-3c-8,0-16.55,5.53-16.55,13.77,0,.45,0,1.81,1.36,1.95h.1a1.52,1.52,0,0,0,1.55-1.34c0-.07,0-.23.08-.33a1.52,1.52,0,0,0,0-1.75C649.39,492.39,655.82,488.71,661.86,488.71Z" transform="translate(-299.43 -190.6)"/><path class="cls-5" d="M707.16,487.1a11.05,11.05,0,0,1,4-.76c4.1,0,8.61,2.33,12.37,6.4a1.5,1.5,0,0,0,2.12.08,1.51,1.51,0,0,0,.08-2.12c-4.32-4.68-9.63-7.36-14.57-7.36a14,14,0,0,0-5.13,1,1.5,1.5,0,0,0,1.09,2.79Z" transform="translate(-299.43 -190.6)"/><path class="cls-5" d="M747.89,420.51l0,0a1.51,1.51,0,0,0-.49,2c.33.56.64,1.12.95,1.68a88.6,88.6,0,0,1,10.74,43.07,95.81,95.81,0,0,1-3.88,27,19.12,19.12,0,0,1,3,.5,98.7,98.7,0,0,0,3.9-27.54A91.37,91.37,0,0,0,750.49,422l-.54-1A1.51,1.51,0,0,0,747.89,420.51Z" transform="translate(-299.43 -190.6)"/><path class="cls-5" d="M753.33,494.23a140.7,140.7,0,0,0-14.54-51,1.5,1.5,0,1,0-2.67,1.36,138.25,138.25,0,0,1,14.34,51.17,1.52,1.52,0,0,0,1.44,1.37h.43c5.94.21,10.49,1,10.49,8.53a22,22,0,0,1-9.91,18.69,1.47,1.47,0,0,0-.71,1.16c-3.42,49.19-19.48,65.65-27.09,70.74-.28.19-.55.37-.81.53a1.5,1.5,0,0,0,.79,2.77,1.46,1.46,0,0,0,.78-.22c.56-.34,1.1-.71,1.64-1.09,21.12-14.79,26.35-54.33,27.63-71.77a25.06,25.06,0,0,0,10.68-20.81c0-7.27-3.76-9.88-7.67-10.87a19.12,19.12,0,0,0-3-.5C754.53,494.29,753.91,494.26,753.33,494.23Z" transform="translate(-299.43 -190.6)"/><path class="cls-5" d="M754.48,510a1.41,1.41,0,0,0,1.25-.66,15.08,15.08,0,0,1-.3,2.19,13.91,13.91,0,0,0-.29,2.36,1.5,1.5,0,0,0,3,0,13,13,0,0,1,.24-1.83,16,16,0,0,0,.35-2.9c0-2.73-1.49-3.8-2.76-4.22a2,2,0,0,0-.53-.08,3,3,0,0,0-2.56,2.64C752.88,508.33,752.88,510,754.48,510Z" transform="translate(-299.43 -190.6)"/><path class="cls-5" d="M687.75,543.93c1.74,0,3.21-1.33,4.78-2.75,1.4-1.26,3-2.7,4.39-2.7s4.19,1.51,4.19,6.18c0,6-3.92,10.46-9.12,10.46a1.56,1.56,0,0,1-1.18-.51,1.5,1.5,0,0,0-2.13,2.12,4.55,4.55,0,0,0,3.31,1.39c6.91,0,12.12-5.79,12.12-13.46,0-6.33-4.21-9.18-7.19-9.18-2.55,0-4.6,1.85-6.4,3.48-.92.83-2.19,2-2.73,2-1.28-.26-5.52-6.1-5.52-17.09,0-2.61.17-5.31.33-7.92s.32-5.18.32-7.66a1.5,1.5,0,0,0-3,0c0,2.39-.15,4.86-.32,7.47s-.33,5.4-.33,8.11C679.27,535.16,683.83,543.93,687.75,543.93Z" transform="translate(-299.43 -190.6)"/><path class="cls-5" d="M711.49,574.12a23.15,23.15,0,0,1-17.17,8,18.48,18.48,0,0,1-9.66-2.64,1.52,1.52,0,0,0-2.07.5,1.5,1.5,0,0,0,.51,2.06,21.54,21.54,0,0,0,11.22,3.08,25.87,25.87,0,0,0,19.46-9.06,1.5,1.5,0,0,0-2.29-1.94Z" transform="translate(-299.43 -190.6)"/></g><g id="Réteg_13" data-name="Réteg 13"><path class="cls-5" d="M560.53,348.45c0-11.6-11-19.39-21.2-19.39a23,23,0,0,0-9.1,2.34c-6.3,2.74-10.07,9.07-10.07,16.94,0,7.33,3.13,13.42,8.18,17A16.16,16.16,0,0,1,530,364a1.51,1.51,0,0,1,1.34-.2c-5.07-2.86-8.22-8.44-8.22-15.46,0-6.64,3.09-11.94,8.27-14.19a20.26,20.26,0,0,1,7.9-2.09c8.79,0,18.2,6.58,18.2,16.39,0,10.93-9,17.46-17.79,17.46a16.94,16.94,0,0,1-7.93-1.88,1.62,1.62,0,0,1,.32.32,1.5,1.5,0,0,1-.35,2.09c-.24.17-.46.36-.69.54a19.9,19.9,0,0,0,8.65,1.93,21.55,21.55,0,0,0,9.66-2.33,9.23,9.23,0,0,0-.73-.8,1.5,1.5,0,0,1,2.11-2.14A16.38,16.38,0,0,1,552,365,19.74,19.74,0,0,0,560.53,348.45Z" transform="translate(-299.43 -190.6)"/><path class="cls-5" d="M555.83,374.79l-1.13,1.33-.67.8c2.07,8.23,2.42,18.16,2.54,23.67-4.79-.15-8.86-.22-12.69-.22,0,.44.09.88.15,1.31a1.5,1.5,0,0,1-1.29,1.68h-.2a1.51,1.51,0,0,1-1.49-1.31c-.07-.54-.12-1.11-.18-1.68-6.27.07-11.94.34-17.24.84a28.29,28.29,0,0,1-1.47-8c0-12.21,3.25-21.7,8.93-26.27.23-.18.45-.37.69-.54a1.5,1.5,0,0,0,.35-2.09,1.62,1.62,0,0,0-.32-.32,1.37,1.37,0,0,0-.43-.23,1.51,1.51,0,0,0-1.34.2,16.16,16.16,0,0,0-1.7,1.37c-7.94,7.16-9.18,20.35-9.18,27.88a32.42,32.42,0,0,0,2,10.1,1.5,1.5,0,0,0,1.41,1h.15a209.19,209.19,0,0,1,21-.95c4.24,0,8.76.09,14.25.27a1.54,1.54,0,0,0,1.11-.43,1.51,1.51,0,0,0,.44-1.1v-.41c-.12-5.79-.38-18.36-3.41-28.09A1.52,1.52,0,0,1,555.83,374.79Z" transform="translate(-299.43 -190.6)"/><path class="cls-5" d="M548.66,363.66a1.5,1.5,0,0,0,0,2.12,9.23,9.23,0,0,1,.73.8,21.36,21.36,0,0,1,3.62,6.89l.54-.64a1.51,1.51,0,0,1,2.47.29,26.52,26.52,0,0,0-4-8.09,16.38,16.38,0,0,0-1.22-1.39A1.5,1.5,0,0,0,548.66,363.66Z" transform="translate(-299.43 -190.6)"/><path class="cls-5" d="M581,367.72a12,12,0,0,1-4-9c0-4.51,4.4-11.19,10.48-11.19a8.43,8.43,0,0,1,2.11.28,9,9,0,0,1,5.72,4.81,14,14,0,0,1,2,6.3c0,4.83-3.28,11.82-9.22,11.82a11.11,11.11,0,0,1-7.08-3,1.5,1.5,0,0,1,0,2.12c-.32.33-.62.68-.91,1a12.87,12.87,0,0,0,8,2.87,10.33,10.33,0,0,0,7-2.7c-.32-.41-.64-.82-1-1.21a1.5,1.5,0,1,1,2.23-2c.28.32.53.65.8,1a17.64,17.64,0,0,0,3.22-9.87,16.63,16.63,0,0,0-2.4-7.73,12,12,0,0,0-7.59-6.28,11.34,11.34,0,0,0-2.88-.38c-6.23,0-13.48,6.2-13.48,14.19a15.84,15.84,0,0,0,4,10.08c.31-.37.62-.74,1-1.08A1.5,1.5,0,0,1,581,367.72Z" transform="translate(-299.43 -190.6)"/><path class="cls-5" d="M573.56,389.69a1.51,1.51,0,0,0,1.47,1.18h.16a178.51,178.51,0,0,1,25.53-1.15,1.52,1.52,0,0,0,1.51-1.18,21.17,21.17,0,0,0,.51-4.62,24,24,0,0,0-5.68-15.11c-.27-.32-.52-.65-.8-1a1.5,1.5,0,1,0-2.23,2c.35.39.67.8,1,1.21a20.87,20.87,0,0,1,4.72,12.86,18.22,18.22,0,0,1-.21,2.76,181.49,181.49,0,0,0-23.28,1.06,25,25,0,0,1-.31-4,20.42,20.42,0,0,1,4.13-12.87c.29-.36.59-.71.91-1a1.5,1.5,0,1,0-2.13-2.11c-.33.34-.64.71-1,1.08a23.28,23.28,0,0,0-5,14.94A28.72,28.72,0,0,0,573.56,389.69Z" transform="translate(-299.43 -190.6)"/><path class="cls-5" d="M487.2,369.69a1.5,1.5,0,0,1,2,2.27q-.39.33-.75.69a13.46,13.46,0,0,0,5.74,1.22,12.78,12.78,0,0,0,5.55-1.25c-.23-.33-.47-.66-.72-1a1.5,1.5,0,1,1,2.32-1.9c.33.41.64.84.94,1.27A14.5,14.5,0,0,0,507.66,360c0-9.47-9.2-13-15-13a10.27,10.27,0,0,0-7.23,2.68,14.43,14.43,0,0,0-4.56,10.57,14.09,14.09,0,0,0,5,10.81C486.27,370.55,486.73,370.11,487.2,369.69Zm-3.33-9.49a11.41,11.41,0,0,1,3.6-8.37,7.39,7.39,0,0,1,5.19-1.88c.12,0,12,.28,12,10,0,4.57-3.65,10.91-10.5,10.91C487.48,370.87,483.87,365.37,483.87,360.2Z" transform="translate(-299.43 -190.6)"/><path class="cls-5" d="M480.8,393.74h1.37q3.4,0,6.82,0c4.26,0,9.86.05,15.44.41h.09a1.51,1.51,0,0,0,1.49-1.27,44.31,44.31,0,0,0,.51-6.55c0-6.12-1.45-11.24-4.27-15.28-.3-.43-.61-.86-.94-1.27a1.5,1.5,0,1,0-2.32,1.9c.25.32.49.65.72,1,2.52,3.54,3.81,8.13,3.81,13.67a39.05,39.05,0,0,1-.3,4.74c-5.18-.29-10.28-.33-14.23-.33-2.27,0-4.55,0-6.81,0,0-.5-.05-1-.05-1.5,0-6.59,2.34-12.7,6.29-16.58q.36-.36.75-.69a1.5,1.5,0,0,0-2-2.27c-.47.42-.93.86-1.36,1.32-4.23,4.45-6.71,11.1-6.71,18.22a27.81,27.81,0,0,0,.18,3.17A1.5,1.5,0,0,0,480.8,393.74Z" transform="translate(-299.43 -190.6)"/><path class="cls-5" d="M521.25,436.93h0Z" transform="translate(-299.43 -190.6)"/><path class="cls-5" d="M521.38,436.56a.07.07,0,0,0,0,.05A.07.07,0,0,1,521.38,436.56Z" transform="translate(-299.43 -190.6)"/><path class="cls-5" d="M521.26,435.59a1.17,1.17,0,0,1,.09.24c-.31-1.06-.68-2.1-1-3.11a24,24,0,0,1-1.85-7.93,1.5,1.5,0,1,0-3,0,26.71,26.71,0,0,0,2,8.93l.15.42c-12-3.4-22.44-13.08-27.75-25.83a1.5,1.5,0,0,0-2.77,1.16c5.45,13.09,16.08,23.13,28.33,27.12,1.29-.53,2.57-1.08,3.82-1.69A1.5,1.5,0,0,1,521.26,435.59Z" transform="translate(-299.43 -190.6)"/><path class="cls-5" d="M521.24,436.94a1.51,1.51,0,0,0,.13-.33.07.07,0,0,1,0-.05,1.51,1.51,0,0,0,0-.73,1.17,1.17,0,0,0-.09-.24,1.5,1.5,0,0,0-2-.69c-1.25.61-2.53,1.16-3.82,1.69-2.36,1-4.76,1.83-7.11,2.67a1.5,1.5,0,0,0,.5,2.92,1.52,1.52,0,0,0,.51-.09,109.48,109.48,0,0,0,11.23-4.49A1.48,1.48,0,0,0,521.24,436.94Z" transform="translate(-299.43 -190.6)"/><path class="cls-5" d="M539.15,428.19c-3.16.86-5.11,3.93-5.11,8,0,6.52,4.86,9.49,9.38,9.49,3.21,0,8-2.87,8-9a9.11,9.11,0,0,0-8.78-9.09A12.89,12.89,0,0,0,539.15,428.19Zm9.24,8.47c0,4.12-3,6-5,6-2.95,0-6.38-1.7-6.38-6.49,0-1,.2-4.39,2.9-5.13a11,11,0,0,1,2.67-.51A6.08,6.08,0,0,1,548.39,436.66Z" transform="translate(-299.43 -190.6)"/><path class="cls-5" d="M565.62,439.67a1.52,1.52,0,0,1-.2-1.27,1.5,1.5,0,0,1,1.87-1c1,.3,2,.63,2.94,1,12.38-6.44,22-19.68,25.45-35.43a1.51,1.51,0,0,0-1.15-1.79,1.49,1.49,0,0,0-1.78,1.15c-3.3,15-12.43,27.59-24.17,33.56.6-3,1-5.42,1.25-7.57a1.5,1.5,0,1,0-3-.33A100.07,100.07,0,0,1,565,438.14a1.5,1.5,0,0,0,.5,1.47A.53.53,0,0,1,565.62,439.67Z" transform="translate(-299.43 -190.6)"/><path class="cls-5" d="M565.42,438.4a1.52,1.52,0,0,0,.2,1.27,1.5,1.5,0,0,0,.81.6c1.31.39,2.61.85,3.87,1.29a53.43,53.43,0,0,0,7,2.07l.3,0a1.5,1.5,0,0,0,.29-3,49.35,49.35,0,0,1-6.58-2l-1.06-.36c-1-.33-1.93-.66-2.94-1A1.5,1.5,0,0,0,565.42,438.4Z" transform="translate(-299.43 -190.6)"/><text class="cls-8" transform="translate(77.76 434.83)">#STRATÉGIAI</text></g></svg>